<?xml version="1.0" encoding="UTF-8" standalone="no"?>
<!-- Created with Inkscape (http://www.inkscape.org/) -->

<svg
   xmlns:dc="http://purl.org/dc/elements/1.1/"
   xmlns:cc="http://creativecommons.org/ns#"
   xmlns:rdf="http://www.w3.org/1999/02/22-rdf-syntax-ns#"
   xmlns:svg="http://www.w3.org/2000/svg"
   xmlns="http://www.w3.org/2000/svg"
   version="1.1"
   width="210mm"
   height="297mm"
   viewBox="0 0 744.09449 1052.3622"
   id="svg2">
  <defs
     id="defs4" />
  <metadata
     id="metadata7">
    <rdf:RDF>
      <cc:Work
         rdf:about="">
        <dc:format>image/svg+xml</dc:format>
        <dc:type
           rdf:resource="http://purl.org/dc/dcmitype/StillImage" />
        <dc:title></dc:title>
      </cc:Work>
    </rdf:RDF>
  </metadata>
  <g
     id="layer1">
    <path
       d="m -154.80859,299.88867 0,0.002 -35.99805,21.44141 0,916.27147 a 399.93018,399.93018 0 0 1 -30.07031,-13.791 l 0,-884.57031 -36,21.44336 0,842.63475 a 399.93018,399.93018 0 0 1 -30.06836,-21.3535 l 0,-803.37305 -36,21.44336 0,120.33984 A 520.93018,520.93018 0 0 0 -562.21484,957.9707 520.93018,520.93018 0 0 0 -41.285156,1478.9004 520.93018,520.93018 0 0 0 479.64453,957.9707 520.93018,520.93018 0 0 0 147.05469,472.30273 l 0,-72.26562 -301.86133,-100.14844 -0.002,0 z M 147.05469,514.35742 A 399.93018,399.93018 0 0 1 358.64453,866.9707 399.93018,399.93018 0 0 1 336.55859,996.12891 l 0,-226.75 -76.36718,-25.33594 0,-138.85547 A 399.93018,399.93018 0 0 0 222.375,567.54492 l -75.32031,-24.98828 0,-28.19922 z M 1.625,519.85938 l 0,744.26762 a 399.93018,399.93018 0 0 1 -23.011719,1.5781 l 0,-732.13869 L 1.625,519.85938 z m -50.5625,30.11718 0,716.54494 a 399.93018,399.93018 0 0 1 -23.011719,-1.1524 l 0,-701.68746 23.011719,-13.70508 z m -274.00781,33.34961 0,253.73047 -30.23633,-10.03125 -14.11914,8.41016 0,262.32225 a 399.93018,399.93018 0 0 1 -11.79297,-18.3808 l 0,-236.91606 -14.12109,8.41015 0,205.33791 a 399.93018,399.93018 0 0 1 -11.79297,-24.1465 l 0,-174.16797 -14.1211,8.41016 0,130.25586 A 399.93018,399.93018 0 0 1 -441.21484,866.9707 399.93018,399.93018 0 0 1 -322.94531,583.32617 z m 484.30078,145.23828 0,482.64645 a 399.93018,399.93018 0 0 1 -15.59375,8.9434 l 0,-482.30078 1.29297,-0.77149 14.30078,-8.51758 z m -34.26172,20.40821 0,480.25194 a 399.93018,399.93018 0 0 1 -15.5918,6.9766 l 0,-477.94143 15.5918,-9.28711 z m -546.22266,247.7539 a 399.93018,399.93018 0 0 0 14.1211,35.58204 l 0,0 a 399.93018,399.93018 0 0 1 -0.87696,-2.207 399.93018,399.93018 0 0 1 -12.89843,-32.50394 399.93018,399.93018 0 0 1 -0.34571,-0.87109 l 0,-0.004 z m 752.63282,7.72854 a 399.93018,399.93018 0 0 1 -11.57618,28.3027 399.93018,399.93018 0 0 0 11.57618,-28.3027 z m -16.27735,37.9961 a 399.93018,399.93018 0 0 1 -13.29687,25.0371 399.93018,399.93018 0 0 0 13.29687,-25.0371 z m -710.4414,14.2715 a 399.93018,399.93018 0 0 0 6.30468,10.4707 399.93018,399.93018 0 0 1 -0.0254,-0.039 399.93018,399.93018 0 0 1 -6.27929,-10.4277 l 0,-0 z m 690.28906,21.9062 a 399.93018,399.93018 0 0 1 -14.42188,21.625 399.93018,399.93018 0 0 0 14.42188,-21.625 z m -664.375,19.502 a 399.93018,399.93018 0 0 0 21.8457,27.8086 399.93018,399.93018 0 0 1 -0.0254,-0.029 399.93018,399.93018 0 0 1 -18.82226,-23.959 399.93018,399.93018 0 0 1 -2.99805,-3.8164 l 0,-0 z m 640.56445,14.4316 a 399.93018,399.93018 0 0 1 -14.99805,18.2383 399.93018,399.93018 0 0 0 14.99805,-18.2383 z m -611.98242,21.0449 a 399.93018,399.93018 0 0 0 20.13867,20.9414 399.93018,399.93018 0 0 1 -0.0332,-0.031 399.93018,399.93018 0 0 1 -20.06641,-20.8653 399.93018,399.93018 0 0 1 -0.0391,-0.045 z m 584.79883,10.2305 a 399.93018,399.93018 0 0 1 -20.31836,20.2031 399.93018,399.93018 0 0 0 20.31836,-20.2031 z m -555.60156,19.1504 a 399.93018,399.93018 0 0 0 22.57617,19.3594 l 0,0 a 399.93018,399.93018 0 0 1 -3.95508,-3.3926 399.93018,399.93018 0 0 1 -18.56445,-15.918 399.93018,399.93018 0 0 1 -0.0566,-0.053 z m 52.64453,40.7929 a 399.93018,399.93018 0 0 0 30.73437,17.5079 399.93018,399.93018 0 0 1 -0.28125,-0.1563 399.93018,399.93018 0 0 1 -19.75,-11.25 399.93018,399.93018 0 0 1 -10.70312,-6.0976 l 0,-0 z m 35.92383,20.3848 a 399.93018,399.93018 0 0 0 0.0762,0.037 l 0,0 a 399.93018,399.93018 0 0 1 -0.0762,-0.041 z m 332.45507,12.2422 0,0 a 399.93018,399.93018 0 0 1 -2.54101,0.9277 399.93018,399.93018 0 0 1 -18.832034,6.8711 399.93018,399.93018 0 0 1 -0.113281,0.037 399.93018,399.93018 0 0 0 21.486325,-7.8398 z m -302.30859,1.252 a 399.93018,399.93018 0 0 0 36.77734,12.7714 399.93018,399.93018 0 0 1 -0.043,-0.012 399.93018,399.93018 0 0 1 -33.3457,-11.5801 399.93018,399.93018 0 0 1 -3.38867,-1.1757 l 0,-0 z m 265.703124,11.6113 a 399.93018,399.93018 0 0 1 -0.05078,0.018 399.93018,399.93018 0 0 1 -25.287109,6.664 399.93018,399.93018 0 0 1 -0.119141,0.027 399.93018,399.93018 0 0 0 25.457031,-6.709 z m -222.587894,2.7793 a 399.93018,399.93018 0 0 0 32.11719,7.6621 399.93018,399.93018 0 0 1 -0.0488,-0.01 399.93018,399.93018 0 0 1 -31.7832,-7.5821 399.93018,399.93018 0 0 1 -0.28516,-0.072 z m 183.833988,6.914 a 399.93018,399.93018 0 0 1 -0.07031,0.016 399.93018,399.93018 0 0 1 -25.742188,4.0898 399.93018,399.93018 0 0 1 -8.705078,1.3848 l 0,-0 a 399.93018,399.93018 0 0 0 34.517578,-5.4864 z m -142.603518,2.125 a 399.93018,399.93018 0 0 0 30.136721,4.0684 399.93018,399.93018 0 0 1 -0.126953,-0.014 399.93018,399.93018 0 0 1 -29.775388,-4.0195 399.93018,399.93018 0 0 1 -0.23438,-0.035 z m 34.339846,4.5059 a 399.93018,399.93018 0 0 0 0.171875,0.014 l 0,0 a 399.93018,399.93018 0 0 1 -0.171875,-0.018 z m 39.94336,0.8496 a 399.93018,399.93018 0 0 1 -9.107422,0.459 399.93018,399.93018 0 0 1 -7.652344,-0.2715 l 0,-0 a 399.93018,399.93018 0 0 0 7.652344,0.2715 399.93018,399.93018 0 0 0 9.107422,-0.4551 z"
       id="path4202"
       style="fill:#000080;fill-opacity:1;stroke:none" />
  </g>
</svg>
