<?xml version="1.0" encoding="UTF-8" standalone="no"?>
<!-- Created with Inkscape (http://www.inkscape.org/) -->

<svg
   xmlns:dc="http://purl.org/dc/elements/1.1/"
   xmlns:cc="http://creativecommons.org/ns#"
   xmlns:rdf="http://www.w3.org/1999/02/22-rdf-syntax-ns#"
   xmlns:svg="http://www.w3.org/2000/svg"
   xmlns="http://www.w3.org/2000/svg"
   xmlns:sodipodi="http://sodipodi.sourceforge.net/DTD/sodipodi-0.dtd"
   xmlns:inkscape="http://www.inkscape.org/namespaces/inkscape"
   width="556.78906"
   height="556.78906"
   viewBox="0 0 556.78907 556.78907"
   id="svg2"
   version="1.1"
   inkscape:version="0.91 r13725"
   inkscape:export-filename="C:\Users\brayan.bedritchuk\Desktop\g4304.png"
   inkscape:export-xdpi="82.760002"
   inkscape:export-ydpi="82.760002"
   sodipodi:docname="Abstract Squares.svg">
  <defs
     id="defs4" />
  <sodipodi:namedview
     id="base"
     pagecolor="#ffffff"
     bordercolor="#666666"
     borderopacity="1.0"
     inkscape:pageopacity="1"
     inkscape:pageshadow="2"
     inkscape:zoom="1"
     inkscape:cx="106.77896"
     inkscape:cy="250.67999"
     inkscape:document-units="px"
     inkscape:current-layer="layer1"
     showgrid="false"
     showborder="true"
     units="px"
     fit-margin-top="32"
     fit-margin-left="32"
     fit-margin-right="32"
     fit-margin-bottom="32"
     inkscape:window-width="1680"
     inkscape:window-height="987"
     inkscape:window-x="-8"
     inkscape:window-y="-8"
     inkscape:window-maximized="1" />
  <metadata
     id="metadata7">
    <rdf:RDF>
      <cc:Work
         rdf:about="">
        <dc:format>image/svg+xml</dc:format>
        <dc:type
           rdf:resource="http://purl.org/dc/dcmitype/StillImage" />
        <dc:title></dc:title>
      </cc:Work>
    </rdf:RDF>
  </metadata>
  <g
     inkscape:label="Layer 1"
     inkscape:groupmode="layer"
     id="layer1"
     transform="translate(-93.6046,-247.63837)">
    <path
       style="opacity:1;fill:#ff8080;fill-opacity:1;stroke:none;stroke-width:40;stroke-miterlimit:4;stroke-dasharray:none;stroke-opacity:1"
       d="m 371.99913,279.63837 -45.89453,45.89453 45.89453,45.89453 45.89453,-45.89453 -45.89453,-45.89453 z m -123.19727,33.01172 -16.79882,62.69336 62.69336,16.79882 16.79882,-62.69336 -62.69336,-16.79882 z m 246.39454,0 -62.69336,16.79882 16.79882,62.69336 62.69337,-16.79882 -16.79883,-62.69336 z m -273.88868,73.38867 -62.69336,16.79687 16.79883,62.69336 62.69336,-16.79883 -16.79883,-62.6914 z m 301.38282,0 -16.79883,62.6914 62.69336,16.79883 16.79883,-62.69336 -62.69336,-16.79687 z m -351.19141,94.09961 -45.89453,45.89453 45.89453,45.89453 45.89453,-45.89453 -45.89453,-45.89453 z m 401,0 -45.89453,45.89453 45.89453,45.89453 45.89453,-45.89453 -45.89453,-45.89453 z m -397.08594,106.40039 -16.79883,62.6914 62.69336,16.79883 16.79883,-62.69336 -62.69336,-16.79687 z m 393.17188,0 -62.69336,16.79687 16.79883,62.69336 62.69336,-16.79883 -16.79883,-62.6914 z m -273.88867,73.38672 -62.69336,16.79882 16.79882,62.69336 62.69336,-16.79882 -16.79882,-62.69336 z m 154.60546,0 -16.79882,62.69336 62.69336,16.79882 16.79883,-62.69336 -62.69337,-16.79882 z m -77.30273,20.71289 -45.89453,45.89453 45.89453,45.89453 45.89453,-45.89453 -45.89453,-45.89453 z"
       id="rect4136"
       inkscape:connector-curvature="0" />
    <path
       style="opacity:1;fill:#3771c8;fill-opacity:1;stroke:none;stroke-width:40;stroke-miterlimit:4;stroke-dasharray:none;stroke-opacity:1"
       d="m 371.99913,421.0329 a 20,20 0 0 0 -20,20 20,20 0 0 0 20,20 20,20 0 0 0 20,-20 20,20 0 0 0 -20,-20 z m -59.8125,24.89844 a 20,20 0 0 0 -14.43359,5.85546 20,20 0 0 0 0,28.28516 20,20 0 0 0 28.2832,0 20,20 0 0 0 0,-28.28516 20,20 0 0 0 -13.84961,-5.85546 z m 120.20898,0 a 20,20 0 0 0 -14.43359,5.85546 20,20 0 0 0 0,28.28516 20,20 0 0 0 28.2832,0 20,20 0 0 0 0,-28.28516 20,20 0 0 0 -13.84961,-5.85546 z M 286.99913,506.0329 a 20,20 0 0 0 -20,20 20,20 0 0 0 20,20 20,20 0 0 0 20,-20 20,20 0 0 0 -20,-20 z m 170,0 a 20,20 0 0 0 -20,20 20,20 0 0 0 20,20 20,20 0 0 0 20,-20 20,20 0 0 0 -20,-20 z m -144.8125,60.10742 a 20,20 0 0 0 -14.43359,5.85547 20,20 0 0 0 0,28.28516 20,20 0 0 0 28.2832,0 20,20 0 0 0 0,-28.28516 20,20 0 0 0 -13.84961,-5.85547 z m 120.20898,0 a 20,20 0 0 0 -14.43359,5.85547 20,20 0 0 0 0,28.2832 20,20 0 0 0 28.2832,0 20,20 0 0 0 0,-28.2832 20,20 0 0 0 -13.84961,-5.85547 z m -60.39648,24.89258 a 20,20 0 0 0 -20,20 20,20 0 0 0 20,20 20,20 0 0 0 20,-20 20,20 0 0 0 -20,-20 z"
       id="path4232"
       inkscape:connector-curvature="0" />
  </g>
</svg>
