<?xml version="1.0" encoding="UTF-8" standalone="no"?>
<!-- Created with Inkscape (http://www.inkscape.org/) -->

<svg
   xmlns:dc="http://purl.org/dc/elements/1.1/"
   xmlns:cc="http://creativecommons.org/ns#"
   xmlns:rdf="http://www.w3.org/1999/02/22-rdf-syntax-ns#"
   xmlns:svg="http://www.w3.org/2000/svg"
   xmlns="http://www.w3.org/2000/svg"
   xmlns:sodipodi="http://sodipodi.sourceforge.net/DTD/sodipodi-0.dtd"
   xmlns:inkscape="http://www.inkscape.org/namespaces/inkscape"
   width="344.70743"
   height="343.98804"
   viewBox="0 0 344.70743 343.98804"
   id="svg4323"
   version="1.1"
   inkscape:version="0.91 r13725"
   sodipodi:docname="Abstract Circles 2.svg"
   inkscape:export-filename="C:\Users\brayan.bedritchuk\Desktop\Abstract Circles 2.png"
   inkscape:export-xdpi="133.67999"
   inkscape:export-ydpi="133.67999">
  <defs
     id="defs4325" />
  <sodipodi:namedview
     id="base"
     pagecolor="#ffffff"
     bordercolor="#666666"
     borderopacity="1.0"
     inkscape:pageopacity="1"
     inkscape:pageshadow="2"
     inkscape:zoom="1"
     inkscape:cx="-150.80036"
     inkscape:cy="345.53982"
     inkscape:document-units="px"
     inkscape:current-layer="layer1"
     showgrid="false"
     units="px"
     fit-margin-top="64"
     fit-margin-left="64"
     fit-margin-right="64"
     fit-margin-bottom="64"
     inkscape:window-width="1680"
     inkscape:window-height="987"
     inkscape:window-x="-8"
     inkscape:window-y="-8"
     inkscape:window-maximized="1" />
  <metadata
     id="metadata4328">
    <rdf:RDF>
      <cc:Work
         rdf:about="">
        <dc:format>image/svg+xml</dc:format>
        <dc:type
           rdf:resource="http://purl.org/dc/dcmitype/StillImage" />
        <dc:title></dc:title>
      </cc:Work>
    </rdf:RDF>
  </metadata>
  <g
     inkscape:label="Layer 1"
     inkscape:groupmode="layer"
     id="layer1"
     transform="translate(-776.21775,-780.36818)">
    <g
       id="g4304"
       transform="matrix(0.23537056,0,0,0.23537056,1180.9517,929.99859)">
      <path
         id="path4298"
         d="m -964,-181.63867 a 50,50 0 0 0 -50,50 50,50 0 0 0 50,49.999998 50,50 0 0 0 50,-49.999998 50,50 0 0 0 -50,-50 z m -220,219.999998 a 50,50 0 0 0 -50,50 50,50 0 0 0 50,50.000002 50,50 0 0 0 50,-50.000002 50,50 0 0 0 -50,-50 z m 440,0 a 50,50 0 0 0 -50,50 50,50 0 0 0 50,50.000002 50,50 0 0 0 50,-50.000002 50,50 0 0 0 -50,-50 z M -964,258.36133 a 50,50 0 0 0 -50,50 50,50 0 0 0 50,50 50,50 0 0 0 50,-50 50,50 0 0 0 -50,-50 z"
         style="opacity:1;fill:#8ee0ae;fill-opacity:1;stroke:none;stroke-width:40;stroke-miterlimit:4;stroke-dasharray:none;stroke-opacity:1"
         inkscape:connector-curvature="0" />
      <path
         id="path4296"
         d="m -1128.9785,-97.197266 a 40,40 0 0 0 -28.8692,11.710938 40,40 0 0 0 0,56.568359 40,40 0 0 0 56.5684,0 40,40 0 0 0 0,-56.568359 40,40 0 0 0 -27.6992,-11.710938 z m 311.12694,0 a 40,40 0 0 0 -28.86914,11.710938 40,40 0 0 0 0,56.568359 40,40 0 0 0 56.56836,0 40,40 0 0 0 0,-56.568359 40,40 0 0 0 -27.69922,-11.710938 z M -1128.9785,213.92969 a 40,40 0 0 0 -28.8692,11.71093 40,40 0 0 0 0,56.57032 40,40 0 0 0 56.5684,0 40,40 0 0 0 0,-56.57032 40,40 0 0 0 -27.6992,-11.71093 z m 311.12694,0 a 40,40 0 0 0 -28.86914,11.71093 40,40 0 0 0 0,56.57032 40,40 0 0 0 56.56836,0 40,40 0 0 0 0,-56.57032 40,40 0 0 0 -27.69922,-11.71093 z"
         style="opacity:1;fill:#ade9c4;fill-opacity:1;stroke:none;stroke-width:40;stroke-miterlimit:4;stroke-dasharray:none;stroke-opacity:1"
         inkscape:connector-curvature="0" />
      <path
         id="path4282"
         d="m -761.97461,-348.67188 a 90.855058,90.855058 0 0 0 -80.82617,45.40235 90.855058,90.855058 0 0 0 33.2539,124.10937 90.855058,90.855058 0 0 0 124.11133,-33.25586 90.855058,90.855058 0 0 0 -33.25586,-124.10937 90.855058,90.855058 0 0 0 -43.2832,-12.14649 z m -546.08589,146.32227 a 90.855058,90.855058 0 0 0 -80.8262,45.40234 90.855058,90.855058 0 0 0 33.2558,124.109379 90.855058,90.855058 0 0 0 124.1094,-33.253906 90.855058,90.855058 0 0 0 -33.2558,-124.111323 90.855058,90.855058 0 0 0 -43.2832,-12.14649 z m 692.40816,399.76172 a 90.855058,90.855058 0 0 0 -80.82618,45.40234 90.855058,90.855058 0 0 0 33.25586,124.11133 90.855058,90.855058 0 0 0 124.10938,-33.25586 90.855058,90.855058 0 0 0 -33.25586,-124.10937 90.855058,90.855058 0 0 0 -43.2832,-12.14844 z m -546.08396,146.32422 a 90.855058,90.855058 0 0 0 -80.8282,45.40234 90.855058,90.855058 0 0 0 33.2559,124.10938 90.855058,90.855058 0 0 0 124.1094,-33.25586 90.855058,90.855058 0 0 0 -33.2539,-124.10938 90.855058,90.855058 0 0 0 -43.2832,-12.14648 z"
         style="opacity:1;fill:#5fd38d;fill-opacity:1;stroke:none;stroke-width:40;stroke-miterlimit:4;stroke-dasharray:none;stroke-opacity:1"
         inkscape:connector-curvature="0" />
      <path
         id="path4280"
         d="m -1089.5117,-363.75781 a 72.684047,72.684047 0 0 0 -21.5879,2.42187 72.684047,72.684047 0 0 0 -51.3965,89.01953 72.684047,72.684047 0 0 0 89.0195,51.39453 72.684047,72.684047 0 0 0 51.3965,-89.01757 72.684047,72.684047 0 0 0 -32.9492,-43.59571 72.684047,72.684047 0 0 0 -34.4824,-10.22265 z m 489.6074,282.673826 a 72.684047,72.684047 0 0 0 -21.58984,2.423828 72.684047,72.684047 0 0 0 -51.39453,89.017578 72.684047,72.684047 0 0 0 89.01953,51.396484 72.684047,72.684047 0 0 0 51.39453,-89.019531 72.684047,72.684047 0 0 0 -32.94922,-43.595703 72.684047,72.684047 0 0 0 -34.48047,-10.222656 z m -772.2812,206.931644 a 72.684047,72.684047 0 0 0 -21.5899,2.42382 72.684047,72.684047 0 0 0 -51.3965,89.02149 72.684047,72.684047 0 0 0 89.0196,51.39648 72.684047,72.684047 0 0 0 51.3964,-89.02343 72.684047,72.684047 0 0 0 -32.9492,-43.59375 72.684047,72.684047 0 0 0 -34.4804,-10.22461 z m 489.60738,282.67578 a 72.684047,72.684047 0 0 0 -21.58985,2.42187 72.684047,72.684047 0 0 0 -51.39648,89.02344 72.684047,72.684047 0 0 0 89.01953,51.39453 72.684047,72.684047 0 0 0 51.39648,-89.02148 72.684047,72.684047 0 0 0 -32.94922,-43.59571 72.684047,72.684047 0 0 0 -34.48046,-10.22265 z"
         style="opacity:1;fill:#5fd38d;fill-opacity:1;stroke:none;stroke-width:40;stroke-miterlimit:4;stroke-dasharray:none;stroke-opacity:1"
         inkscape:connector-curvature="0" />
    </g>
  </g>
</svg>
