<?xml version="1.0" encoding="UTF-8" standalone="no"?>
<!-- Created with Inkscape (http://www.inkscape.org/) -->

<svg
   xmlns:dc="http://purl.org/dc/elements/1.1/"
   xmlns:cc="http://creativecommons.org/ns#"
   xmlns:rdf="http://www.w3.org/1999/02/22-rdf-syntax-ns#"
   xmlns:svg="http://www.w3.org/2000/svg"
   xmlns="http://www.w3.org/2000/svg"
   xmlns:sodipodi="http://sodipodi.sourceforge.net/DTD/sodipodi-0.dtd"
   xmlns:inkscape="http://www.inkscape.org/namespaces/inkscape"
   width="368"
   height="1056.0703"
   viewBox="0 0 368 1056.0703"
   id="svg2"
   version="1.1"
   inkscape:version="0.91 r13725"
   sodipodi:docname="Wine Bottle.svg"
   inkscape:export-filename="E:\Tasks\Google Drive\Projects\Senior UI-UX Designer\Inkscape\Other\2016-08-22\Wine Bottle.png"
   inkscape:export-xdpi="87.266914"
   inkscape:export-ydpi="87.266914">
  <defs
     id="defs4">
    <clipPath
       clipPathUnits="userSpaceOnUse"
       id="clipPath4149">
      <rect
         style="opacity:0.38100011;fill:#000000;fill-opacity:1;stroke:none;stroke-width:20;stroke-linecap:round;stroke-linejoin:round;stroke-miterlimit:4;stroke-dasharray:none;stroke-opacity:1"
         id="rect4151"
         width="322"
         height="566"
         x="-471"
         y="245.3622"
         rx="0"
         ry="0" />
    </clipPath>
  </defs>
  <sodipodi:namedview
     id="base"
     pagecolor="#ffffff"
     bordercolor="#666666"
     borderopacity="1.0"
     inkscape:pageopacity="1"
     inkscape:pageshadow="2"
     inkscape:zoom="0.35355339"
     inkscape:cx="-453.85723"
     inkscape:cy="917.54624"
     inkscape:document-units="px"
     inkscape:current-layer="layer1"
     showgrid="false"
     showborder="true"
     inkscape:object-paths="true"
     inkscape:snap-intersection-paths="true"
     inkscape:object-nodes="true"
     inkscape:snap-smooth-nodes="true"
     inkscape:snap-nodes="true"
     inkscape:snap-object-midpoints="true"
     inkscape:window-width="1680"
     inkscape:window-height="987"
     inkscape:window-x="-8"
     inkscape:window-y="-8"
     inkscape:window-maximized="1"
     units="px"
     fit-margin-top="16"
     fit-margin-left="16"
     fit-margin-right="16"
     fit-margin-bottom="16" />
  <metadata
     id="metadata7">
    <rdf:RDF>
      <cc:Work
         rdf:about="">
        <dc:format>image/svg+xml</dc:format>
        <dc:type
           rdf:resource="http://purl.org/dc/dcmitype/StillImage" />
        <dc:title />
      </cc:Work>
    </rdf:RDF>
  </metadata>
  <g
     inkscape:label="Layer 1"
     inkscape:groupmode="layer"
     id="layer1"
     transform="translate(48.160156,60.431641)">
    <path
       style="opacity:1;fill:#f4f4f6;fill-opacity:1;stroke:#000000;stroke-width:10;stroke-linecap:round;stroke-linejoin:round;stroke-miterlimit:4;stroke-dasharray:none;stroke-opacity:1"
       d="m 73.40625,36.216797 0,209.082033 A 163,163 0 0 0 -27.160156,395.8125 l 0,386.08008 0,85.53125 0,74.6875 c 0,18.0199 14.015514,32.52734 31.4238279,32.52734 l 263.1542981,0 c 17.40831,0 31.42187,-14.50744 31.42187,-32.52734 l 0,-74.6875 0,-85.53125 0,-386.08008 A 163,163 0 0 0 198.27344,245.39844 l 0,-209.181643 -124.86719,0 z"
       id="rect4155"
       inkscape:connector-curvature="0" />
    <path
       style="opacity:1;fill:#babccb;fill-opacity:1;stroke:#000000;stroke-width:10;stroke-linecap:round;stroke-linejoin:round;stroke-miterlimit:4;stroke-dasharray:none;stroke-opacity:1"
       d="m 84.42605,-39.430897 102.82758,0 c 10.85076,0 14.98891,9.757486 19.58621,19.586206 l 16,34.206897 c 5.63332,12.043644 -10.704,23.999999 -24,23.999999 l -125.999997,0 c -13.296,0 -29.633317,-11.956355 -24,-23.999999 l 16,-34.206897 c 4.597305,-9.82872 8.735448,-19.586206 19.586207,-19.586206 z"
       id="rect4178"
       inkscape:connector-curvature="0"
       sodipodi:nodetypes="sssssssss" />
    <rect
       style="opacity:1;fill:#c1c0c8;fill-opacity:1;stroke:#000000;stroke-width:10;stroke-linecap:round;stroke-linejoin:round;stroke-miterlimit:4;stroke-dasharray:none;stroke-opacity:1"
       id="rect4182"
       width="326"
       height="308"
       x="-27.160156"
       y="447.8125" />
    <g
       id="g4190"
       transform="translate(-7.6256398,0.60627549)">
      <path
         inkscape:connector-curvature="0"
         id="path4184"
         d="M 250.46383,526.53972 36.467137,677.08529"
         style="fill:none;fill-rule:evenodd;stroke:#000000;stroke-width:5.00000048;stroke-linecap:round;stroke-linejoin:round;stroke-miterlimit:4;stroke-dasharray:none;stroke-opacity:1" />
      <path
         style="fill:none;fill-rule:evenodd;stroke:#000000;stroke-width:5.00000048;stroke-linecap:round;stroke-linejoin:round;stroke-miterlimit:4;stroke-dasharray:none;stroke-opacity:1"
         d="m 205.34053,623.32689 -71.00138,48.97125"
         id="path4186"
         inkscape:connector-curvature="0" />
      <path
         inkscape:connector-curvature="0"
         id="path4188"
         d="M 152.5918,525.32689 81.59042,574.29814"
         style="fill:none;fill-rule:evenodd;stroke:#000000;stroke-width:5.00000048;stroke-linecap:round;stroke-linejoin:round;stroke-miterlimit:4;stroke-dasharray:none;stroke-opacity:1" />
    </g>
    <path
       style="opacity:0.152;fill:#000000;fill-opacity:1;stroke:#000000;stroke-width:10;stroke-linecap:round;stroke-linejoin:round;stroke-miterlimit:4;stroke-dasharray:none;stroke-opacity:1"
       d="M 132.58594 21 C 121.73518 21 117.59731 30.759171 113 40.587891 L 97 74.792969 C 91.366683 86.836613 107.704 98.792969 121 98.792969 L 121.56641 98.792969 L 121.56641 305.73047 A 163 163 0 0 0 21 456.24414 L 21 508.24414 L 21 816.24414 L 21 842.32422 L 21 927.85547 L 21 1002.543 C 21 1020.5629 35.015514 1035.0703 52.423828 1035.0703 L 184 1035.0703 L 184 21 L 132.58594 21 z "
       transform="translate(-48.160156,-60.431641)"
       id="path4143" />
  </g>
</svg>
