<?xml version="1.0" encoding="UTF-8" standalone="no"?>
<!-- Created with Inkscape (http://www.inkscape.org/) -->

<svg
   xmlns:dc="http://purl.org/dc/elements/1.1/"
   xmlns:cc="http://creativecommons.org/ns#"
   xmlns:rdf="http://www.w3.org/1999/02/22-rdf-syntax-ns#"
   xmlns:svg="http://www.w3.org/2000/svg"
   xmlns="http://www.w3.org/2000/svg"
   xmlns:sodipodi="http://sodipodi.sourceforge.net/DTD/sodipodi-0.dtd"
   xmlns:inkscape="http://www.inkscape.org/namespaces/inkscape"
   width="901.26965"
   height="1011.7376"
   id="svg2"
   version="1.1"
   inkscape:version="0.48.5 r10040"
   sodipodi:docname="Oktoberfest.svg">
  <defs
     id="defs4" />
  <sodipodi:namedview
     id="base"
     pagecolor="#ffffff"
     bordercolor="#666666"
     borderopacity="1.0"
     inkscape:pageopacity="0.0"
     inkscape:pageshadow="2"
     inkscape:zoom="0.70710678"
     inkscape:cx="698.72494"
     inkscape:cy="603.40689"
     inkscape:document-units="px"
     inkscape:current-layer="layer1"
     showgrid="false"
     showborder="true"
     inkscape:object-nodes="true"
     inkscape:object-paths="true"
     inkscape:snap-global="true"
     inkscape:snap-center="true"
     inkscape:snap-bbox="true"
     inkscape:bbox-nodes="true"
     inkscape:bbox-paths="true"
     inkscape:snap-smooth-nodes="true"
     inkscape:window-width="1920"
     inkscape:window-height="1017"
     inkscape:window-x="-8"
     inkscape:window-y="-8"
     inkscape:window-maximized="1"
     fit-margin-top="0"
     fit-margin-left="0"
     fit-margin-right="0"
     fit-margin-bottom="0"
     showguides="false" />
  <metadata
     id="metadata7">
    <rdf:RDF>
      <cc:Work
         rdf:about="">
        <dc:format>image/svg+xml</dc:format>
        <dc:type
           rdf:resource="http://purl.org/dc/dcmitype/StillImage" />
        <dc:title />
      </cc:Work>
    </rdf:RDF>
  </metadata>
  <g
     inkscape:label="Layer 1"
     inkscape:groupmode="layer"
     id="layer1"
     transform="translate(303.5567,-239.98659)">
    <path
       style="fill:#ffb888;fill-opacity:1;stroke:none"
       d="m 124.13785,397.01008 32.2277,0 c 1.90627,0 2.89968,1.61311 3.44092,3.44093 l 9.26209,31.27905 c 0.79759,2.69357 -2.26154,5.07071 -5.07071,5.07071 l -47.4923,0 c -2.80918,0 -5.86831,-2.37714 -5.07071,-5.07071 l 9.26209,-31.27905 c 0.54124,-1.82782 1.53465,-3.44093 3.44092,-3.44093 z"
       id="rect3797"
       inkscape:connector-curvature="0"
       sodipodi:nodetypes="sssssssss" />
    <rect
       style="fill:#ececec;fill-opacity:1;stroke:none"
       id="rect3753"
       width="193"
       height="208"
       x="43.751698"
       y="419.24445"
       ry="12.35" />
    <path
       style="fill:#ececec;fill-opacity:1;stroke:none"
       d="m 226.1892,419.476 c -1.43551,0.0388 -2.88299,0.4163 -4.21875,1.1875 l -13.25,7.65625 c -4.27442,2.46784 -5.71784,7.88183 -3.25,12.15625 l 59.25,102.625 c 5.11912,3.88973 11.80584,6.25 19.125,6.25 7.31916,0 14.00196,-2.36027 19.125,-6.25 l 41.03125,-71.0625 c 1.85761,-3.21748 0.74873,-7.29864 -2.46875,-9.15625 L 324.5017,453.0385 c -3.21748,-1.85761 -7.29864,-0.77998 -9.15625,2.4375 l -31.5,54.5625 -49.71875,-86.09375 c -1.69664,-2.93866 -4.77938,-4.55405 -7.9375,-4.46875 z"
       id="rect4032"
       inkscape:connector-curvature="0" />
    <path
       style="fill:#ececec;fill-opacity:1;stroke:none"
       d="m 18.751698,276.4135 c -1.359292,0 -2.70844,0.52094 -3.75,1.5625 l -57.125,57.125 c -0.5308,0.32076 -1.04089,0.69714 -1.5,1.15625 l -12.6875,12.71875 c -3.046998,3.047 -3.046998,7.953 0,11 l 96.46875,96.46875 c 3.047,3.047 7.953,3.047 11,0 l 12.71875,-12.6875 c 3.047,-3.047 3.047,-7.953 0,-11 l -78.125,-78.125 52.96875,-52.9375 c 2.08312,-2.08312 2.08312,-5.44813 0,-7.53125 l -16.1875,-16.1875 c -1.04156,-1.04156 -2.421958,-1.5625 -3.78125,-1.5625 z"
       id="rect4240"
       inkscape:connector-curvature="0" />
    <rect
       y="873.69568"
       x="163.17085"
       height="185.26198"
       width="50.911686"
       id="rect4129"
       style="fill:#ffccaa;fill-opacity:1;stroke:none" />
    <rect
       style="fill:#ececec;fill-opacity:1;stroke:none"
       id="rect4131"
       width="50.911686"
       height="121.26198"
       x="163.17085"
       y="937.69568" />
    <rect
       style="fill:#ffccaa;fill-opacity:1;stroke:none"
       id="rect4069"
       width="50.911686"
       height="185.26198"
       x="66.420853"
       y="873.69568" />
    <rect
       y="937.69568"
       x="66.420853"
       height="121.26198"
       width="50.911686"
       id="rect4073"
       style="fill:#ececec;fill-opacity:1;stroke:none" />
    <g
       id="g4133"
       transform="translate(73.751698,67.882251)">
      <path
         inkscape:connector-curvature="0"
         id="rect4075"
         d="m -47.478251,991.07539 c -10.022534,0 -18.091217,8.06862 -18.091217,18.09121 l 0,18.0912 18.091217,0 72.967877,0 18.091217,0 0,-18.0912 0,-18.09121 -18.091217,0 -4.494512,0 -68.473365,0 z"
         style="fill:#a05a2c;fill-opacity:1;stroke:none" />
      <path
         inkscape:connector-curvature="0"
         style="fill:#37c871;fill-opacity:1;stroke:none"
         d="m -65.569468,1017.0061 0,10.2517 109.150311,0 0,-10.2517 -109.150311,0 z"
         id="path4086" />
    </g>
    <rect
       style="fill:#ededed;fill-opacity:1;stroke:none"
       id="rect3759"
       width="56.505512"
       height="77.109726"
       x="357.03268"
       y="416.86145"
       ry="5.6260319" />
    <rect
       style="fill:#ffdd55;fill-opacity:1;stroke:none"
       id="rect3753-1"
       width="49.013065"
       height="72.739136"
       x="360.7789"
       y="419.04675"
       ry="5.3071475" />
    <path
       sodipodi:type="arc"
       style="fill:#ececec;fill-opacity:1;stroke:none"
       id="path3769"
       sodipodi:cx="-253"
       sodipodi:cy="518.36218"
       sodipodi:rx="27"
       sodipodi:ry="27"
       d="m -226,518.36218 c 0,14.91169 -12.08831,27 -27,27 -14.91169,0 -27,-12.08831 -27,-27 0,-14.91169 12.08831,-27 27,-27 14.91169,0 27,12.08831 27,27 z"
       transform="matrix(0.31218514,0,0,0.31218514,447.2542,253.78774)" />
    <path
       transform="matrix(0.31218514,0,0,0.31218514,456.61975,262.21674)"
       d="m -226,518.36218 c 0,14.91169 -12.08831,27 -27,27 -14.91169,0 -27,-12.08831 -27,-27 0,-14.91169 12.08831,-27 27,-27 14.91169,0 27,12.08831 27,27 z"
       sodipodi:ry="27"
       sodipodi:rx="27"
       sodipodi:cy="518.36218"
       sodipodi:cx="-253"
       id="path3771"
       style="fill:#ececec;fill-opacity:1;stroke:none"
       sodipodi:type="arc" />
    <path
       sodipodi:type="arc"
       style="fill:#ececec;fill-opacity:1;stroke:none"
       id="path3773"
       sodipodi:cx="-253"
       sodipodi:cy="518.36218"
       sodipodi:rx="27"
       sodipodi:ry="27"
       d="m -226,518.36218 c 0,14.91169 -12.08831,27 -27,27 -14.91169,0 -27,-12.08831 -27,-27 0,-14.91169 12.08831,-27 27,-27 14.91169,0 27,12.08831 27,27 z"
       transform="matrix(0.31218514,0,0,0.31218514,458.49286,248.16841)" />
    <path
       transform="matrix(0.31218514,0,0,0.31218514,469.57544,260.34363)"
       d="m -226,518.36218 c 0,14.91169 -12.08831,27 -27,27 -14.91169,0 -27,-12.08831 -27,-27 0,-14.91169 12.08831,-27 27,-27 14.91169,0 27,12.08831 27,27 z"
       sodipodi:ry="27"
       sodipodi:rx="27"
       sodipodi:cy="518.36218"
       sodipodi:cx="-253"
       id="path3775"
       style="fill:#ececec;fill-opacity:1;stroke:none"
       sodipodi:type="arc" />
    <path
       sodipodi:type="arc"
       style="fill:#ececec;fill-opacity:1;stroke:none"
       id="path3777"
       sodipodi:cx="-253"
       sodipodi:cy="518.36218"
       sodipodi:rx="27"
       sodipodi:ry="27"
       d="m -226,518.36218 c 0,14.91169 -12.08831,27 -27,27 -14.91169,0 -27,-12.08831 -27,-27 0,-14.91169 12.08831,-27 27,-27 14.91169,0 27,12.08831 27,27 z"
       transform="matrix(0.31218514,0,0,0.31218514,468.79497,250.5098)" />
    <path
       transform="matrix(0.31218514,0,0,0.31218514,480.8141,254.41211)"
       d="m -226,518.36218 c 0,14.91169 -12.08831,27 -27,27 -14.91169,0 -27,-12.08831 -27,-27 0,-14.91169 12.08831,-27 27,-27 14.91169,0 27,12.08831 27,27 z"
       sodipodi:ry="27"
       sodipodi:rx="27"
       sodipodi:cy="518.36218"
       sodipodi:cx="-253"
       id="path3779"
       style="fill:#ececec;fill-opacity:1;stroke:none"
       sodipodi:type="arc" />
    <path
       sodipodi:type="arc"
       style="fill:#ececec;fill-opacity:1;stroke:none"
       id="path3781"
       sodipodi:cx="-253"
       sodipodi:cy="518.36218"
       sodipodi:rx="27"
       sodipodi:ry="27"
       d="m -226,518.36218 c 0,14.91169 -12.08831,27 -27,27 -14.91169,0 -27,-12.08831 -27,-27 0,-14.91169 12.08831,-27 27,-27 14.91169,0 27,12.08831 27,27 z"
       transform="matrix(0.31218514,0,0,0.31218514,477.06138,248.45191)" />
    <path
       style="fill:none;stroke:#ededed;stroke-width:3.74622178;stroke-linecap:round;stroke-linejoin:round;stroke-miterlimit:4;stroke-opacity:1;stroke-dasharray:none"
       d="m 357.18879,470.4012 -10.59624,0 c -3.72844,0 -6.73004,-3.00159 -6.73004,-6.73004 l 0,-21.19247 c 0,-3.72844 3.0016,-6.73004 6.73004,-6.73004 l 0,0 10.59624,0"
       id="path3806"
       inkscape:connector-curvature="0" />
    <rect
       style="fill:#ffeda5;fill-opacity:1;stroke:none"
       id="rect3797-7"
       width="6.6043839"
       height="31.467947"
       x="369.4201"
       y="444.50092"
       ry="3.302192" />
    <path
       sodipodi:type="arc"
       style="fill:#ececec;fill-opacity:1;stroke:none"
       id="path3799"
       sodipodi:cx="-253"
       sodipodi:cy="518.36218"
       sodipodi:rx="27"
       sodipodi:ry="27"
       d="m -226,518.36218 c 0,14.91169 -12.08831,27 -27,27 -14.91169,0 -27,-12.08831 -27,-27 0,-14.91169 12.08831,-27 27,-27 14.91169,0 27,12.08831 27,27 z"
       transform="matrix(0.31218514,0,0,0.31218514,490.33575,253.47556)" />
    <path
       transform="matrix(0.31218514,0,0,0.31218514,437.26427,255.97304)"
       d="m -226,518.36218 c 0,14.91169 -12.08831,27 -27,27 -14.91169,0 -27,-12.08831 -27,-27 0,-14.91169 12.08831,-27 27,-27 14.91169,0 27,12.08831 27,27 z"
       sodipodi:ry="27"
       sodipodi:rx="27"
       sodipodi:cy="518.36218"
       sodipodi:cx="-253"
       id="path3801"
       style="fill:#ececec;fill-opacity:1;stroke:none"
       sodipodi:type="arc" />
    <path
       transform="matrix(0.31218514,0,0,0.31218514,445.04672,248.48978)"
       d="m -226,518.36218 c 0,14.91169 -12.08831,27 -27,27 -14.91169,0 -27,-12.08831 -27,-27 0,-14.91169 12.08831,-27 27,-27 14.91169,0 27,12.08831 27,27 z"
       sodipodi:ry="27"
       sodipodi:rx="27"
       sodipodi:cy="518.36218"
       sodipodi:cx="-253"
       id="path3814"
       style="fill:#ececec;fill-opacity:1;stroke:none"
       sodipodi:type="arc" />
    <g
       id="g4272"
       transform="translate(73.751698,64.382232)">
      <path
         inkscape:connector-curvature="0"
         id="rect3765"
         d="m 46.404879,359.70244 c 0.829388,-0.82939 2.164793,-0.82939 2.994181,0 l 35.074721,35.07471 c 0.829388,0.82939 0.829388,2.1648 0,2.99419 -0.829391,0.82939 -2.164796,0.82939 -2.994184,0 L 46.404879,362.69663 c -0.829391,-0.82939 -0.829391,-2.1648 0,-2.99419 z"
         style="fill:#a05a2c;fill-opacity:1;stroke:none" />
      <path
         inkscape:connector-curvature="0"
         id="rect3767"
         d="m 84.473791,359.70244 c -0.829388,-0.82939 -2.164793,-0.82939 -2.994181,0 l -35.074716,35.07471 c -0.82939,0.82939 -0.82939,2.1648 0,2.99419 0.829388,0.82939 2.164793,0.82939 2.994181,0 l 35.074716,-35.07471 c 0.829391,-0.82939 0.829391,-2.1648 0,-2.99419 z"
         style="fill:#a05a2c;fill-opacity:1;stroke:none" />
    </g>
    <path
       sodipodi:type="arc"
       style="fill:#ffccaa;fill-opacity:1;stroke:none"
       id="path3800"
       sodipodi:cx="31.466251"
       sodipodi:cy="284.44421"
       sodipodi:rx="42.779961"
       sodipodi:ry="42.779961"
       d="m 74.246212,284.44421 c 0,23.62672 -19.153241,42.77996 -42.779961,42.77996 -23.6267195,0 -42.77996,-19.15324 -42.77996,-42.77996 0,-23.62672 19.1532405,-42.77996 42.77996,-42.77996 23.62672,0 42.779961,19.15324 42.779961,42.77996 z"
       transform="matrix(1.3098572,0,0,1.3098572,99.035402,-25.586501)" />
    <path
       style="fill:#ffab6f;fill-opacity:1;stroke:none"
       d="m 123.98083,374.44488 c 0,6.14729 7.28636,11.12474 16.27087,11.12474 8.9845,0 16.27087,-4.97745 16.27087,-11.12474 l -32.54174,0 z"
       id="path3810"
       inkscape:connector-curvature="0" />
    <path
       inkscape:connector-curvature="0"
       id="path3815"
       d="m 123.98083,374.44488 c 0,2.4515 7.28636,4.43648 16.27087,4.43648 8.9845,0 16.27087,-1.98498 16.27087,-4.43648 l -32.54174,0 z"
       style="fill:#ffffff;fill-opacity:1;stroke:none" />
    <g
       id="g3979"
       transform="translate(74.090711,67.882251)">
      <path
         transform="matrix(0.36842106,0,0,0.50415512,197.98465,165.11671)"
         d="m -408.70773,215.14775 c 0,7.41996 -6.01507,13.43503 -13.43503,13.43503 -7.41996,0 -13.43503,-6.01507 -13.43503,-13.43503 0,-7.41996 6.01507,-13.43503 13.43503,-13.43503 7.41996,0 13.43503,6.01507 13.43503,13.43503 z"
         sodipodi:ry="13.435029"
         sodipodi:rx="13.435029"
         sodipodi:cy="215.14775"
         sodipodi:cx="-422.14276"
         id="path3802"
         style="fill:#5fd38d;fill-opacity:1;stroke:none"
         sodipodi:type="arc" />
      <rect
         transform="matrix(0.96592583,-0.25881905,0.25881905,0.96592583,0,0)"
         ry="2.1715729"
         y="258.04376"
         x="-38.030586"
         height="4.3431458"
         width="16.069639"
         id="rect3971"
         style="fill:#ff9955;fill-opacity:1;stroke:none" />
      <path
         sodipodi:type="arc"
         style="fill:#5fd38d;fill-opacity:1;stroke:none"
         id="path3975"
         sodipodi:cx="-422.14276"
         sodipodi:cy="215.14775"
         sodipodi:rx="13.435029"
         sodipodi:ry="13.435029"
         d="m -408.70773,215.14775 c 0,7.41996 -6.01507,13.43503 -13.43503,13.43503 -7.41996,0 -13.43503,-6.01507 -13.43503,-13.43503 0,-7.41996 6.01507,-13.43503 13.43503,-13.43503 7.41996,0 13.43503,6.01507 13.43503,13.43503 z"
         transform="matrix(-0.36842106,0,0,0.50415512,-65.662679,165.11671)" />
      <rect
         style="fill:#ff9955;fill-opacity:1;stroke:none"
         id="rect3977"
         width="16.069639"
         height="4.3431458"
         x="-165.8438"
         y="223.79631"
         ry="2.1715729"
         transform="matrix(-0.96592583,-0.25881905,-0.25881905,0.96592583,0,0)" />
    </g>
    <g
       id="g4015"
       transform="translate(73.751698,67.882251)">
      <path
         transform="translate(221.32443,-17.67767)"
         d="m -185,261.36218 c 0,8.56042 -6.93959,15.5 -15.5,15.5 -8.56041,0 -15.5,-6.93958 -15.5,-15.5 0,-8.56041 6.93959,-15.5 15.5,-15.5 8.56041,0 15.5,6.93959 15.5,15.5 z"
         sodipodi:ry="15.5"
         sodipodi:rx="15.5"
         sodipodi:cy="261.36218"
         sodipodi:cx="-200.5"
         id="path3985"
         style="fill:#ff9955;fill-opacity:1;stroke:none"
         sodipodi:type="arc" />
      <path
         sodipodi:type="arc"
         style="fill:#ff9955;fill-opacity:1;stroke:none"
         id="path3987"
         sodipodi:cx="-200.5"
         sodipodi:cy="261.36218"
         sodipodi:rx="15.5"
         sodipodi:ry="15.5"
         d="m -185,261.36218 c 0,8.56042 -6.93959,15.5 -15.5,15.5 -8.56041,0 -15.5,-6.93958 -15.5,-15.5 0,-8.56041 6.93959,-15.5 15.5,-15.5 8.56041,0 15.5,6.93959 15.5,15.5 z"
         transform="matrix(0.63504166,0,0,0.63504166,165.4744,67.809143)" />
      <path
         transform="matrix(0.63504166,0,0,0.63504166,154.16069,58.616755)"
         d="m -185,261.36218 c 0,8.56042 -6.93959,15.5 -15.5,15.5 -8.56041,0 -15.5,-6.93958 -15.5,-15.5 0,-8.56041 6.93959,-15.5 15.5,-15.5 8.56041,0 15.5,6.93959 15.5,15.5 z"
         sodipodi:ry="15.5"
         sodipodi:rx="15.5"
         sodipodi:cy="261.36218"
         sodipodi:cx="-200.5"
         id="path3989"
         style="fill:#ff9955;fill-opacity:1;stroke:none"
         sodipodi:type="arc" />
      <path
         sodipodi:type="arc"
         style="fill:#ff9955;fill-opacity:1;stroke:none"
         id="path3991"
         sodipodi:cx="-200.5"
         sodipodi:cy="261.36218"
         sodipodi:rx="15.5"
         sodipodi:ry="15.5"
         d="m -185,261.36218 c 0,8.56042 -6.93959,15.5 -15.5,15.5 -8.56041,0 -15.5,-6.93958 -15.5,-15.5 0,-8.56041 6.93959,-15.5 15.5,-15.5 8.56041,0 15.5,6.93959 15.5,15.5 z"
         transform="matrix(0.63504166,0,0,0.63504166,170.42415,61.091629)" />
      <path
         transform="matrix(0.63504166,0,0,0.63504166,176.78811,51.545687)"
         d="m -185,261.36218 c 0,8.56042 -6.93959,15.5 -15.5,15.5 -8.56041,0 -15.5,-6.93958 -15.5,-15.5 0,-8.56041 6.93959,-15.5 15.5,-15.5 8.56041,0 15.5,6.93959 15.5,15.5 z"
         sodipodi:ry="15.5"
         sodipodi:rx="15.5"
         sodipodi:cy="261.36218"
         sodipodi:cx="-200.5"
         id="path3993"
         style="fill:#ff9955;fill-opacity:1;stroke:none"
         sodipodi:type="arc" />
      <path
         sodipodi:type="arc"
         style="fill:#ff9955;fill-opacity:1;stroke:none"
         id="path3995"
         sodipodi:cx="-200.5"
         sodipodi:cy="261.36218"
         sodipodi:rx="15.5"
         sodipodi:ry="15.5"
         d="m -185,261.36218 c 0,8.56042 -6.93959,15.5 -15.5,15.5 -8.56041,0 -15.5,-6.93958 -15.5,-15.5 0,-8.56041 6.93959,-15.5 15.5,-15.5 8.56041,0 15.5,6.93959 15.5,15.5 z"
         transform="matrix(0.63504166,0,0,0.63504166,184.21273,65.334269)" />
      <path
         sodipodi:type="arc"
         style="fill:#ff9955;fill-opacity:1;stroke:none"
         id="path3997"
         sodipodi:cx="-200.5"
         sodipodi:cy="261.36218"
         sodipodi:rx="15.5"
         sodipodi:ry="15.5"
         d="m -185,261.36218 c 0,8.56042 -6.93959,15.5 -15.5,15.5 -8.56041,0 -15.5,-6.93958 -15.5,-15.5 0,-8.56041 6.93959,-15.5 15.5,-15.5 8.56041,0 15.5,6.93959 15.5,15.5 z"
         transform="translate(270.1148,-43.840621)" />
      <path
         sodipodi:type="arc"
         style="fill:#ff9955;fill-opacity:1;stroke:none"
         id="path3999"
         sodipodi:cx="-200.5"
         sodipodi:cy="261.36218"
         sodipodi:rx="15.5"
         sodipodi:ry="15.5"
         d="m -185,261.36218 c 0,8.56042 -6.93959,15.5 -15.5,15.5 -8.56041,0 -15.5,-6.93958 -15.5,-15.5 0,-8.56041 6.93959,-15.5 15.5,-15.5 8.56041,0 15.5,6.93959 15.5,15.5 z"
         transform="matrix(0.63504166,0,0,0.63504166,198.70842,60.030969)" />
      <path
         transform="matrix(0.63504166,0,0,0.63504166,213.91122,64.27361)"
         d="m -185,261.36218 c 0,8.56042 -6.93959,15.5 -15.5,15.5 -8.56041,0 -15.5,-6.93958 -15.5,-15.5 0,-8.56041 6.93959,-15.5 15.5,-15.5 8.56041,0 15.5,6.93959 15.5,15.5 z"
         sodipodi:ry="15.5"
         sodipodi:rx="15.5"
         sodipodi:cy="261.36218"
         sodipodi:cx="-200.5"
         id="path4001"
         style="fill:#ff9955;fill-opacity:1;stroke:none"
         sodipodi:type="arc" />
      <path
         sodipodi:type="arc"
         style="fill:#ff9955;fill-opacity:1;stroke:none"
         id="path4003"
         sodipodi:cx="-200.5"
         sodipodi:cy="261.36218"
         sodipodi:rx="15.5"
         sodipodi:ry="15.5"
         d="m -185,261.36218 c 0,8.56042 -6.93959,15.5 -15.5,15.5 -8.56041,0 -15.5,-6.93958 -15.5,-15.5 0,-8.56041 6.93959,-15.5 15.5,-15.5 8.56041,0 15.5,6.93959 15.5,15.5 z"
         transform="matrix(0.63504166,0,0,0.63504166,215.67899,49.424368)" />
      <path
         transform="translate(306.88435,-29.698485)"
         d="m -185,261.36218 c 0,8.56042 -6.93959,15.5 -15.5,15.5 -8.56041,0 -15.5,-6.93958 -15.5,-15.5 0,-8.56041 6.93959,-15.5 15.5,-15.5 8.56041,0 15.5,6.93959 15.5,15.5 z"
         sodipodi:ry="15.5"
         sodipodi:rx="15.5"
         sodipodi:cy="261.36218"
         sodipodi:cx="-200.5"
         id="path4005"
         style="fill:#ff9955;fill-opacity:1;stroke:none"
         sodipodi:type="arc" />
      <path
         sodipodi:type="arc"
         style="fill:#ff9955;fill-opacity:1;stroke:none"
         id="path4007"
         sodipodi:cx="-200.5"
         sodipodi:cy="261.36218"
         sodipodi:rx="15.5"
         sodipodi:ry="15.5"
         d="m -185,261.36218 c 0,8.56042 -6.93959,15.5 -15.5,15.5 -8.56041,0 -15.5,-6.93958 -15.5,-15.5 0,-8.56041 6.93959,-15.5 15.5,-15.5 8.56041,0 15.5,6.93959 15.5,15.5 z"
         transform="matrix(0.63504166,0,0,0.63504166,226.99269,47.303046)" />
      <path
         transform="matrix(0.63504166,0,0,0.63504166,169.71704,48.010153)"
         d="m -185,261.36218 c 0,8.56042 -6.93959,15.5 -15.5,15.5 -8.56041,0 -15.5,-6.93958 -15.5,-15.5 0,-8.56041 6.93959,-15.5 15.5,-15.5 8.56041,0 15.5,6.93959 15.5,15.5 z"
         sodipodi:ry="15.5"
         sodipodi:rx="15.5"
         sodipodi:cy="261.36218"
         sodipodi:cx="-200.5"
         id="path4009"
         style="fill:#ff9955;fill-opacity:1;stroke:none"
         sodipodi:type="arc" />
      <path
         sodipodi:type="arc"
         style="fill:#ff9955;fill-opacity:1;stroke:none"
         id="path4011"
         sodipodi:cx="-200.5"
         sodipodi:cy="261.36218"
         sodipodi:rx="15.5"
         sodipodi:ry="15.5"
         d="m -185,261.36218 c 0,8.56042 -6.93959,15.5 -15.5,15.5 -8.56041,0 -15.5,-6.93958 -15.5,-15.5 0,-8.56041 6.93959,-15.5 15.5,-15.5 8.56041,0 15.5,6.93959 15.5,15.5 z"
         transform="matrix(0.63504166,0,0,0.63504166,239.22059,50.847032)" />
      <path
         transform="matrix(0.63504166,0,0,0.63504166,244.89435,80.634266)"
         d="m -185,261.36218 c 0,8.56042 -6.93959,15.5 -15.5,15.5 -8.56041,0 -15.5,-6.93958 -15.5,-15.5 0,-8.56041 6.93959,-15.5 15.5,-15.5 8.56041,0 15.5,6.93959 15.5,15.5 z"
         sodipodi:ry="15.5"
         sodipodi:rx="15.5"
         sodipodi:cy="261.36218"
         sodipodi:cx="-200.5"
         id="path4013"
         style="fill:#ff9955;fill-opacity:1;stroke:none"
         sodipodi:type="arc" />
    </g>
    <g
       id="g3866"
       transform="matrix(0.40646996,0,0,0.40646996,208.08227,131.59215)">
      <path
         style="fill:#37c871;fill-opacity:1;stroke:none"
         d="m -228.42195,267.76884 61.54475,24.74874 61.54475,-24.74874 c 15.25871,-6.13592 22.6438,14.82423 29.68629,29.6863 l 34.76896,73.37434 c 9.72645,20.52613 -18.286,41 -41,41 l -170,0 c -22.714,0 -50.72645,-20.47387 -41,-41 l 34.76896,-73.37434 c 7.04249,-14.86207 13.24008,-29.6863 29.68629,-29.6863 z"
         id="path3889"
         inkscape:connector-curvature="0"
         sodipodi:nodetypes="ccsssssssc" />
      <path
         inkscape:connector-curvature="0"
         id="rect3891"
         d="m -320.8772,361.25231 308,0 c 21.6059996,0 39,14.272 39,32 0,17.728 -17.3940004,32 -39,32 l -308,0 c -21.606,0 -39,-14.272 -39,-32 0,-17.728 17.394,-32 39,-32 z"
         style="fill:#37c871;fill-opacity:1;stroke:none" />
      <path
         inkscape:connector-curvature="0"
         id="rect3893"
         d="m -271.13636,353.75231 208.5183,0 c 4.709,0 8.5,3.791 8.5,8.5 0,4.709 -3.791,8.5 -8.5,8.5 l -208.5183,0 c -4.709,0 -8.5,-3.791 -8.5,-8.5 0,-4.709 3.791,-8.5 8.5,-8.5 z"
         style="fill:#ffdd55;fill-opacity:1;stroke:none" />
      <g
         id="g3988"
         transform="translate(138.1228,-104.10987)">
        <path
           inkscape:connector-curvature="0"
           id="path3897"
           d="m -151.07111,411.24091 -20.27907,51.77555 c -0.45796,1.16925 -1.76796,1.74188 -2.93721,1.28391 -1.16926,-0.45796 -1.74189,-1.76796 -1.28392,-2.93721 l 20.27907,-51.77555 c 0.45796,-1.16926 1.76796,-1.74188 2.93721,-1.28392 1.16926,0.45797 1.74189,1.76797 1.28392,2.93722 z"
           style="fill:#ff8080;fill-opacity:1;stroke:none" />
        <path
           style="fill:#ff8080;fill-opacity:1;stroke:none"
           d="m -154.17668,408.85424 22.61476,-9.88535 c 1.15062,-0.50296 2.48184,0.0184 2.9848,1.16906 0.50295,1.15062 -0.0185,2.48183 -1.16907,2.98479 l -22.61476,9.88536 c -1.15062,0.50296 -2.48184,-0.0184 -2.9848,-1.16906 -0.50296,-1.15062 0.0185,-2.48184 1.16907,-2.9848 z"
           id="path3901"
           inkscape:connector-curvature="0" />
        <path
           style="fill:#ff8080;fill-opacity:1;stroke:none"
           d="m -151.39185,409.94498 -9.88535,-22.61476 c -0.50296,-1.15062 -1.83418,-1.67202 -2.9848,-1.16907 -1.15062,0.50296 -1.67202,1.83418 -1.16906,2.9848 l 9.88536,22.61477 c 0.50296,1.15061 1.83417,1.67202 2.98479,1.16906 1.15062,-0.50296 1.67202,-1.83418 1.16906,-2.9848 z"
           id="path3903"
           inkscape:connector-curvature="0" />
        <path
           style="fill:#ff8080;fill-opacity:1;stroke:none"
           d="m -158.44484,419.75148 22.61477,-9.88535 c 1.15062,-0.50296 2.48184,0.0184 2.98479,1.16906 0.50296,1.15062 -0.0184,2.48183 -1.16906,2.98479 l -22.61477,9.88536 c -1.15061,0.50296 -2.48183,-0.0184 -2.98479,-1.16906 -0.50296,-1.15062 0.0184,-2.48184 1.16906,-2.9848 z"
           id="path3907"
           inkscape:connector-curvature="0" />
        <path
           style="fill:#ff8080;fill-opacity:1;stroke:none"
           d="m -155.66,420.84222 -9.88536,-22.61476 c -0.50295,-1.15062 -1.83417,-1.67202 -2.98479,-1.16907 -1.15062,0.50296 -1.67202,1.83418 -1.16906,2.9848 l 9.88535,22.61477 c 0.50296,1.15061 1.83418,1.67202 2.9848,1.16906 1.15062,-0.50296 1.67202,-1.83418 1.16906,-2.9848 z"
           id="path3909"
           inkscape:connector-curvature="0" />
        <path
           style="fill:#ff8080;fill-opacity:1;stroke:none"
           d="m -162.71299,430.64873 22.61477,-9.88535 c 1.15061,-0.50296 2.48183,0.0184 2.98479,1.16906 0.50296,1.15062 -0.0184,2.48183 -1.16906,2.98479 l -22.61477,9.88536 c -1.15062,0.50296 -2.48184,-0.0184 -2.98479,-1.16906 -0.50296,-1.15062 0.0184,-2.48184 1.16906,-2.9848 z"
           id="path3913"
           inkscape:connector-curvature="0" />
        <path
           style="fill:#ff8080;fill-opacity:1;stroke:none"
           d="m -159.92815,431.73947 -9.88536,-22.61476 c -0.50296,-1.15062 -1.83418,-1.67202 -2.98479,-1.16907 -1.15062,0.50296 -1.67202,1.83418 -1.16907,2.9848 l 9.88536,22.61477 c 0.50296,1.15061 1.83418,1.67202 2.9848,1.16906 1.15061,-0.50296 1.67202,-1.83418 1.16906,-2.9848 z"
           id="path3915"
           inkscape:connector-curvature="0" />
        <path
           style="fill:#ff8080;fill-opacity:1;stroke:none"
           d="m -162.71299,430.64873 22.61477,-9.88535 c 1.15061,-0.50296 2.48183,0.0184 2.98479,1.16906 0.50296,1.15062 -0.0184,2.48183 -1.16906,2.98479 l -22.61477,9.88536 c -1.15062,0.50296 -2.48184,-0.0184 -2.98479,-1.16906 -0.50296,-1.15062 0.0184,-2.48184 1.16906,-2.9848 z"
           id="path3917"
           inkscape:connector-curvature="0" />
        <path
           style="fill:#ff8080;fill-opacity:1;stroke:none"
           d="m -166.98114,441.54597 22.61476,-9.88535 c 1.15062,-0.50296 2.48184,0.0184 2.9848,1.16906 0.50296,1.15062 -0.0184,2.48183 -1.16907,2.98479 l -22.61476,9.88536 c -1.15062,0.50296 -2.48184,-0.0184 -2.9848,-1.16906 -0.50295,-1.15062 0.0184,-2.48184 1.16907,-2.9848 z"
           id="path3921"
           inkscape:connector-curvature="0" />
        <path
           style="fill:#ff8080;fill-opacity:1;stroke:none"
           d="m -164.1963,442.63671 -9.88536,-22.61476 c -0.50296,-1.15062 -1.83418,-1.67202 -2.9848,-1.16907 -1.15061,0.50296 -1.67202,1.83418 -1.16906,2.9848 l 9.88536,22.61477 c 0.50296,1.15061 1.83417,1.67202 2.98479,1.16906 1.15062,-0.50296 1.67202,-1.83418 1.16907,-2.9848 z"
           id="path3923"
           inkscape:connector-curvature="0" />
        <path
           style="fill:#ff8080;fill-opacity:1;stroke:none"
           d="m -166.98114,441.54597 22.61476,-9.88535 c 1.15062,-0.50296 2.48184,0.0184 2.9848,1.16906 0.50296,1.15062 -0.0184,2.48183 -1.16907,2.98479 l -22.61476,9.88536 c -1.15062,0.50296 -2.48184,-0.0184 -2.9848,-1.16906 -0.50295,-1.15062 0.0184,-2.48184 1.16907,-2.9848 z"
           id="path3925"
           inkscape:connector-curvature="0" />
        <path
           style="fill:#ff8080;fill-opacity:1;stroke:none"
           d="m -171.24929,452.44321 22.61476,-9.88535 c 1.15062,-0.50296 2.48184,0.0184 2.9848,1.16906 0.50296,1.15062 -0.0185,2.48183 -1.16906,2.98479 l -22.61477,9.88536 c -1.15062,0.50296 -2.48184,-0.0184 -2.9848,-1.16906 -0.50295,-1.15062 0.0185,-2.48184 1.16907,-2.9848 z"
           id="path3929"
           inkscape:connector-curvature="0" />
        <path
           style="fill:#ff8080;fill-opacity:1;stroke:none"
           d="m -168.46445,453.53395 -9.88536,-22.61476 c -0.50296,-1.15062 -1.83418,-1.67202 -2.9848,-1.16907 -1.15061,0.50296 -1.67202,1.83418 -1.16906,2.9848 l 9.88536,22.61477 c 0.50296,1.15061 1.83418,1.67202 2.98479,1.16906 1.15062,-0.50296 1.67202,-1.83418 1.16907,-2.9848 z"
           id="path3931"
           inkscape:connector-curvature="0" />
        <path
           style="fill:#ff8080;fill-opacity:1;stroke:none"
           d="m -171.24929,452.44321 22.61476,-9.88535 c 1.15062,-0.50296 2.48184,0.0184 2.9848,1.16906 0.50296,1.15062 -0.0185,2.48183 -1.16906,2.98479 l -22.61477,9.88536 c -1.15062,0.50296 -2.48184,-0.0184 -2.9848,-1.16906 -0.50295,-1.15062 0.0185,-2.48184 1.16907,-2.9848 z"
           id="path3933"
           inkscape:connector-curvature="0" />
        <path
           style="fill:#ff8080;fill-opacity:1;stroke:none"
           d="m -175.51744,463.34045 22.61476,-9.88535 c 1.15062,-0.50296 2.48184,0.0184 2.9848,1.16906 0.50296,1.15062 -0.0185,2.48183 -1.16907,2.98479 l -22.61476,9.88536 c -1.15062,0.50296 -2.48184,-0.0184 -2.9848,-1.16906 -0.50295,-1.15062 0.0185,-2.48184 1.16907,-2.9848 z"
           id="path3937"
           inkscape:connector-curvature="0" />
        <path
           style="fill:#ff8080;fill-opacity:1;stroke:none"
           d="m -172.7326,464.43119 -9.88536,-22.61476 c -0.50296,-1.15062 -1.83418,-1.67202 -2.9848,-1.16907 -1.15061,0.50296 -1.67202,1.83418 -1.16906,2.9848 l 9.88536,22.61477 c 0.50296,1.15061 1.83417,1.67202 2.98479,1.16906 1.15062,-0.50296 1.67202,-1.83418 1.16907,-2.9848 z"
           id="path3939"
           inkscape:connector-curvature="0" />
        <path
           style="fill:#ff8080;fill-opacity:1;stroke:none"
           d="m -175.51744,463.34045 22.61476,-9.88535 c 1.15062,-0.50296 2.48184,0.0184 2.9848,1.16906 0.50296,1.15062 -0.0185,2.48183 -1.16907,2.98479 l -22.61476,9.88536 c -1.15062,0.50296 -2.48184,-0.0184 -2.9848,-1.16906 -0.50295,-1.15062 0.0185,-2.48184 1.16907,-2.9848 z"
           id="path3941"
           inkscape:connector-curvature="0" />
      </g>
      <path
         inkscape:connector-curvature="0"
         id="path3943"
         d="m -316.65845,364.79638 c -18.34956,0 -33.3125,14.96294 -33.3125,33.3125 a 3.9542366,3.9542366 0 1 0 7.90625,0 c 0,-14.07592 11.33033,-25.40625 25.40625,-25.40625 a 3.9542366,3.9542366 0 1 0 0,-7.90625 z"
         style="font-size:medium;font-style:normal;font-variant:normal;font-weight:normal;font-stretch:normal;text-indent:0;text-align:start;text-decoration:none;line-height:normal;letter-spacing:normal;word-spacing:normal;text-transform:none;direction:ltr;block-progression:tb;writing-mode:lr-tb;text-anchor:start;baseline-shift:baseline;color:#000000;fill:#7bdba1;fill-opacity:1;stroke:none;stroke-width:7.90768242;marker:none;visibility:visible;display:inline;overflow:visible;enable-background:accumulate;font-family:Sans;-inkscape-font-specification:Sans" />
    </g>
    <rect
       style="fill:#ffccaa;fill-opacity:1;stroke:none"
       id="rect4036"
       width="34.499496"
       height="29.95154"
       x="-483.93561"
       y="299.08047"
       ry="1.6321968"
       transform="matrix(-0.94084791,-0.33882918,-0.33882918,0.94084791,0,0)" />
    <path
       inkscape:connector-curvature="0"
       style="fill:#a05a2c;fill-opacity:1;stroke:none"
       d="m 75.126698,419.25725 0,208 15,0 0,-96.875 100.250002,0 0,96.875 15,0 0,-208 -15,0 0,96.875 -100.250002,0 0,-96.875 -15,0 z"
       id="rect3755" />
    <path
       inkscape:connector-curvature="0"
       style="fill:#a05a2c;fill-opacity:1;stroke:none"
       d="m 43.751698,618.2885 0,73.78125 11.3125,184 73.625002,0 11.3125,-184 0.5,0 11.3125,184 73.625,0 11.3125,-184 0,-73.78125 -193.000002,0 z"
       id="rect4038" />
    <g
       id="g4050"
       transform="translate(73.833235,99.727131)">
      <path
         transform="matrix(0.32603886,0,0,0.32603886,-83.997412,355.09598)"
         d="m 306.38299,567.96503 c 0,12.53412 -10.16091,22.69503 -22.69503,22.69503 -12.53412,0 -22.69504,-10.16091 -22.69504,-22.69503 0,-12.53413 10.16092,-22.69504 22.69504,-22.69504 12.53412,0 22.69503,10.16091 22.69503,22.69504 z"
         sodipodi:ry="22.695036"
         sodipodi:rx="22.695036"
         sodipodi:cy="567.96503"
         sodipodi:cx="283.68796"
         id="path4042"
         style="fill:#ffdd55;fill-opacity:1;stroke:none"
         sodipodi:type="arc" />
      <path
         sodipodi:type="arc"
         style="fill:#ffdd55;fill-opacity:1;stroke:none"
         id="path4044"
         sodipodi:cx="283.68796"
         sodipodi:cy="567.96503"
         sodipodi:rx="22.695036"
         sodipodi:ry="22.695036"
         d="m 306.38299,567.96503 c 0,12.53412 -10.16091,22.69503 -22.69503,22.69503 -12.53412,0 -22.69504,-10.16091 -22.69504,-22.69503 0,-12.53413 10.16092,-22.69504 22.69504,-22.69504 12.53412,0 22.69503,10.16091 22.69503,22.69504 z"
         transform="matrix(0.32603886,0,0,0.32603886,-83.997412,386.43937)" />
      <path
         sodipodi:type="arc"
         style="fill:#ffdd55;fill-opacity:1;stroke:none"
         id="path4046"
         sodipodi:cx="283.68796"
         sodipodi:cy="567.96503"
         sodipodi:rx="22.695036"
         sodipodi:ry="22.695036"
         d="m 306.38299,567.96503 c 0,12.53412 -10.16091,22.69503 -22.69503,22.69503 -12.53412,0 -22.69504,-10.16091 -22.69504,-22.69503 0,-12.53413 10.16092,-22.69504 22.69504,-22.69504 12.53412,0 22.69503,10.16091 22.69503,22.69504 z"
         transform="matrix(0.32603886,0,0,0.32603886,31.847742,355.09598)" />
      <path
         transform="matrix(0.32603886,0,0,0.32603886,31.847742,386.43937)"
         d="m 306.38299,567.96503 c 0,12.53412 -10.16091,22.69503 -22.69503,22.69503 -12.53412,0 -22.69504,-10.16091 -22.69504,-22.69503 0,-12.53413 10.16092,-22.69504 22.69504,-22.69504 12.53412,0 22.69503,10.16091 22.69503,22.69504 z"
         sodipodi:ry="22.695036"
         sodipodi:rx="22.695036"
         sodipodi:cy="567.96503"
         sodipodi:cx="283.68796"
         id="path4048"
         style="fill:#ffdd55;fill-opacity:1;stroke:none"
         sodipodi:type="arc" />
    </g>
    <rect
       style="fill:#37c871;fill-opacity:1;stroke:none"
       id="rect4065"
       width="89.695961"
       height="18.384777"
       x="47.028717"
       y="866.86469" />
    <rect
       y="866.86469"
       x="143.77872"
       height="18.384777"
       width="89.695961"
       id="rect4067"
       style="fill:#37c871;fill-opacity:1;stroke:none" />
    <g
       id="g4137"
       transform="matrix(-1,0,0,1,206.7517,67.882255)">
      <path
         style="fill:#a05a2c;fill-opacity:1;stroke:none"
         d="m -47.478251,991.07539 c -10.022534,0 -18.091217,8.06862 -18.091217,18.09121 l 0,18.0912 18.091217,0 72.967877,0 18.091217,0 0,-18.0912 0,-18.09121 -18.091217,0 -4.494512,0 -68.473365,0 z"
         id="path4139"
         inkscape:connector-curvature="0" />
      <path
         id="path4141"
         d="m -65.569468,1017.0061 0,10.2517 109.150311,0 0,-10.2517 -109.150311,0 z"
         style="fill:#37c871;fill-opacity:1;stroke:none"
         inkscape:connector-curvature="0" />
    </g>
    <rect
       transform="matrix(-0.70710678,-0.70710678,-0.70710678,0.70710678,0,0)"
       ry="1.6321968"
       y="160.53958"
       x="-241.23013"
       height="29.95154"
       width="34.499496"
       id="rect4244"
       style="fill:#ffccaa;fill-opacity:1;stroke:none" />
    <g
       id="g4276"
       transform="translate(73.751698,67.88224)">
      <path
         style="fill:#a05a2c;fill-opacity:1;stroke:none"
         d="m 46.404879,406.70244 c 0.829388,-0.82939 2.164793,-0.82939 2.994181,0 l 35.074721,35.07471 c 0.829388,0.82939 0.829388,2.1648 0,2.99419 -0.829391,0.82939 -2.164796,0.82939 -2.994184,0 L 46.404879,409.69663 c -0.829391,-0.82939 -0.829391,-2.1648 0,-2.99419 z"
         id="path4268"
         inkscape:connector-curvature="0" />
      <path
         style="fill:#a05a2c;fill-opacity:1;stroke:none"
         d="m 84.473791,406.70244 c -0.829388,-0.82939 -2.164793,-0.82939 -2.994181,0 l -35.074716,35.07471 c -0.82939,0.82939 -0.82939,2.1648 0,2.99419 0.829388,0.82939 2.164793,0.82939 2.994181,0 l 35.074716,-35.07471 c 0.829391,-0.82939 0.829391,-2.1648 0,-2.99419 z"
         id="path4270"
         inkscape:connector-curvature="0" />
    </g>
    <g
       id="g3884"
       transform="translate(0,-26)">
      <path
         sodipodi:nodetypes="cccccc"
         inkscape:connector-curvature="0"
         id="path3103"
         d="m -79.293261,1152.0338 -224.263439,0 40.15106,62.8452 -40.15106,62.8452 224.263439,0 z"
         style="fill:#ffce0b;fill-opacity:1;stroke:none" />
      <path
         style="fill:#ffce0b;fill-opacity:1;stroke:none"
         d="m 373.44952,1152.0338 224.26344,0 -40.15106,62.8452 40.15106,62.8452 -224.26344,0 z"
         id="path3085"
         inkscape:connector-curvature="0"
         sodipodi:nodetypes="cccccc" />
      <path
         inkscape:connector-curvature="0"
         id="rect3089"
         d="m -161.9108,1124.5225 617.97795,0 0,125.6904 -617.97795,0 z"
         style="fill:#ffdd55;fill-opacity:1;stroke:none" />
      <text
         xml:space="preserve"
         style="font-size:69.87870026px;font-style:normal;font-variant:normal;font-weight:normal;font-stretch:normal;line-height:125%;letter-spacing:0px;word-spacing:0px;fill:#ffffff;fill-opacity:1;stroke:none;font-family:Roboto;-inkscape-font-specification:Roboto"
         x="-93.658653"
         y="1212.2075"
         id="text3091"
         sodipodi:linespacing="125%"><tspan
           sodipodi:role="line"
           id="tspan3093"
           x="-93.658653"
           y="1212.2075">OKTOBERFEST</tspan></text>
      <path
         inkscape:connector-curvature="0"
         id="path3880"
         d="m -79.293234,1277.7242 -82.617536,-27.5113 82.617536,0.043 z"
         style="fill:#ab8900;fill-opacity:1;stroke:none" />
      <path
         inkscape:connector-curvature="0"
         id="path3882"
         d="m 373.46917,1250.2129 -0.0198,27.5113 82.61762,-27.5113 z"
         style="fill:#ab8900;fill-opacity:1;stroke:none" />
    </g>
    <path
       sodipodi:type="star"
       style="fill:#ffc198;fill-opacity:1;stroke:none"
       id="path3914"
       sodipodi:sides="3"
       sodipodi:cx="-293.44931"
       sodipodi:cy="-124.746"
       sodipodi:r1="113.87054"
       sodipodi:r2="56.935268"
       sodipodi:arg1="0.52359878"
       sodipodi:arg2="1.5707963"
       inkscape:flatsided="true"
       inkscape:rounded="0"
       inkscape:randomized="0"
       d="m -194.83453,-67.810733 -197.22956,-10e-7 98.61478,-170.805806 z"
       transform="matrix(0.04813024,0,0,0.10058635,154.37548,365.61191)"
       inkscape:transform-center-y="-2.8634591" />
  </g>
</svg>
