<?xml version="1.0" encoding="UTF-8" standalone="no"?>
<!-- Created with Inkscape (http://www.inkscape.org/) -->

<svg
   xmlns:dc="http://purl.org/dc/elements/1.1/"
   xmlns:cc="http://creativecommons.org/ns#"
   xmlns:rdf="http://www.w3.org/1999/02/22-rdf-syntax-ns#"
   xmlns:svg="http://www.w3.org/2000/svg"
   xmlns="http://www.w3.org/2000/svg"
   xmlns:sodipodi="http://sodipodi.sourceforge.net/DTD/sodipodi-0.dtd"
   xmlns:inkscape="http://www.inkscape.org/namespaces/inkscape"
   width="366.55142"
   height="419.37314"
   id="svg2"
   version="1.1"
   inkscape:version="0.48.5 r10040"
   sodipodi:docname="Giris.svg"
   inkscape:export-filename="C:\Users\Brayan\Desktop\Giris.png"
   inkscape:export-xdpi="251.42"
   inkscape:export-ydpi="251.42">
  <defs
     id="defs4" />
  <sodipodi:namedview
     id="base"
     pagecolor="#ffffff"
     bordercolor="#666666"
     borderopacity="1.0"
     inkscape:pageopacity="1"
     inkscape:pageshadow="2"
     inkscape:zoom="1"
     inkscape:cx="26.552389"
     inkscape:cy="166.94882"
     inkscape:document-units="px"
     inkscape:current-layer="layer1"
     showgrid="false"
     showborder="true"
     fit-margin-top="0"
     fit-margin-left="0"
     fit-margin-right="0"
     fit-margin-bottom="0"
     inkscape:window-width="1920"
     inkscape:window-height="1017"
     inkscape:window-x="-8"
     inkscape:window-y="-8"
     inkscape:window-maximized="1" />
  <metadata
     id="metadata7">
    <rdf:RDF>
      <cc:Work
         rdf:about="">
        <dc:format>image/svg+xml</dc:format>
        <dc:type
           rdf:resource="http://purl.org/dc/dcmitype/StillImage" />
        <dc:title></dc:title>
      </cc:Work>
    </rdf:RDF>
  </metadata>
  <g
     inkscape:label="Layer 1"
     inkscape:groupmode="layer"
     id="layer1"
     transform="translate(4.7237956,-513.72537)">
    <path
       style="fill:#ffe680;fill-opacity:1;stroke:#333333;stroke-width:5;stroke-linecap:round;stroke-linejoin:round;stroke-miterlimit:4;stroke-opacity:1;stroke-dasharray:none"
       d="m 246.1875,516.25 c -6.34787,0.31751 -12.43061,3.68424 -15.96875,9.53125 -3.7489,6.1953 -3.67644,13.60525 -0.5,19.5625 l -11.0625,18.28125 17.25,10.4375 11.03125,-18.25 c 6.76912,0.068 13.3977,-3.32 17.15625,-9.53125 5.66103,-9.35521 2.66771,-21.52647 -6.6875,-27.1875 -3.5082,-2.12289 -7.41003,-3.03426 -11.21875,-2.84375 z"
       id="rect3840"
       inkscape:connector-curvature="0" />
    <path
       style="fill:#ffe680;fill-opacity:1;stroke:#333333;stroke-width:5;stroke-linecap:round;stroke-linejoin:round;stroke-miterlimit:4;stroke-opacity:1;stroke-dasharray:none"
       d="m 109.03125,516.25 c -3.18914,0.14854 -6.389,1.07468 -9.3125,2.84375 -9.355211,5.66103 -12.348531,17.83229 -6.6875,27.1875 3.752753,6.20166 10.36677,9.58846 17.125,9.53125 l 11.0625,18.25 17.21875,-10.4375 -11.03125,-18.25 c 3.18944,-5.96138 3.25407,-13.38992 -0.5,-19.59375 -3.89196,-6.43171 -10.85889,-9.85804 -17.875,-9.53125 z"
       id="rect3853"
       inkscape:connector-curvature="0" />
    <path
       sodipodi:type="arc"
       style="fill:#ffe680;fill-opacity:1;stroke:#333333;stroke-width:7.35646963;stroke-miterlimit:4;stroke-opacity:1;stroke-dasharray:none"
       id="path3810"
       sodipodi:cx="396"
       sodipodi:cy="559.86218"
       sodipodi:rx="46"
       sodipodi:ry="46"
       d="m 442,559.86218 c 0,25.4051 -20.5949,46 -46,46 -25.4051,0 -46,-20.5949 -46,-46 0,-25.4051 20.5949,-46 46,-46 25.4051,0 46,20.5949 46,46 z"
       transform="matrix(0.22549888,0.40317996,-0.87276604,0.48813875,717.1831,146.78749)" />
    <path
       transform="matrix(-0.22549888,0.40317996,0.87276604,0.48813875,-360.07926,146.78749)"
       d="m 442,559.86218 c 0,25.4051 -20.5949,46 -46,46 -25.4051,0 -46,-20.5949 -46,-46 0,-25.4051 20.5949,-46 46,-46 25.4051,0 46,20.5949 46,46 z"
       sodipodi:ry="46"
       sodipodi:rx="46"
       sodipodi:cy="559.86218"
       sodipodi:cx="396"
       id="path3812"
       style="fill:#ffe680;fill-opacity:1;stroke:#333333;stroke-width:7.35646963;stroke-linecap:round;stroke-linejoin:round;stroke-miterlimit:4;stroke-opacity:1;stroke-dasharray:none"
       sodipodi:type="arc" />
    <path
       style="fill:#ffe680;fill-opacity:1;stroke:#333333;stroke-width:5;stroke-linecap:round;stroke-linejoin:round;stroke-miterlimit:4;stroke-opacity:1;stroke-dasharray:none"
       d="m 9.5519298,781.84852 c 1.49e-5,-31.41122 4.7290032,-61.33556 13.2808522,-88.55326 8.551855,-27.21772 20.926606,-51.72883 36.21808,-72.31353 15.291509,-20.58469 33.499749,-37.24301 53.718628,-48.75512 20.21888,-11.51212 42.4484,-17.87808 65.78243,-17.87809 23.33403,0 45.56354,6.36597 65.78243,17.87809 20.21887,11.51212 38.42712,28.17042 53.71862,48.75512 15.29149,20.5847 27.66623,45.0958 36.21809,72.31353 8.55186,27.21772 13.28086,57.14207 13.28086,88.55327 -10e-6,125.64478 -97.20298,148.74999 -169.00001,148.74999 -71.79704,4e-5 -168.999995,-23.1052 -168.9999802,-148.75 z"
       id="path3753"
       inkscape:connector-curvature="0"
       sodipodi:nodetypes="sssssssssss" />
    <g
       id="g3772"
       transform="translate(2.1287783,0)">
      <g
         id="g3768">
        <path
           sodipodi:type="arc"
           style="fill:#333333;fill-opacity:1;stroke:none"
           id="path3756"
           sodipodi:cx="81.317284"
           sodipodi:cy="639.4118"
           sodipodi:rx="38.183765"
           sodipodi:ry="38.183765"
           d="m 119.50105,639.4118 c 0,21.08832 -17.09546,38.18377 -38.183766,38.18377 -21.088312,0 -38.183766,-17.09545 -38.183766,-38.18377 0,-21.08831 17.095454,-38.18376 38.183766,-38.18376 21.088306,0 38.183766,17.09545 38.183766,38.18376 z"
           transform="translate(33.941126,33.941126)" />
        <path
           transform="matrix(0.46296295,0,0,0.46296295,85.11152,366.82895)"
           d="m 119.50105,639.4118 c 0,21.08832 -17.09546,38.18377 -38.183766,38.18377 -21.088312,0 -38.183766,-17.09545 -38.183766,-38.18377 0,-21.08831 17.095454,-38.18376 38.183766,-38.18376 21.088306,0 38.183766,17.09545 38.183766,38.18376 z"
           sodipodi:ry="38.183765"
           sodipodi:rx="38.183765"
           sodipodi:cy="639.4118"
           sodipodi:cx="81.317284"
           id="path3758"
           style="fill:#ffffff;fill-opacity:1;stroke:none"
           sodipodi:type="arc" />
      </g>
      <g
         id="g3764">
        <path
           transform="translate(156.2706,33.941126)"
           d="m 119.50105,639.4118 c 0,21.08832 -17.09546,38.18377 -38.183766,38.18377 -21.088312,0 -38.183766,-17.09545 -38.183766,-38.18377 0,-21.08831 17.095454,-38.18376 38.183766,-38.18376 21.088306,0 38.183766,17.09545 38.183766,38.18376 z"
           sodipodi:ry="38.183765"
           sodipodi:rx="38.183765"
           sodipodi:cy="639.4118"
           sodipodi:cx="81.317284"
           id="path3760"
           style="fill:#333333;fill-opacity:1;stroke:none"
           sodipodi:type="arc" />
        <path
           sodipodi:type="arc"
           style="fill:#ffffff;fill-opacity:1;stroke:none"
           id="path3762"
           sodipodi:cx="81.317284"
           sodipodi:cy="639.4118"
           sodipodi:rx="38.183765"
           sodipodi:ry="38.183765"
           d="m 119.50105,639.4118 c 0,21.08832 -17.09546,38.18377 -38.183766,38.18377 -21.088312,0 -38.183766,-17.09545 -38.183766,-38.18377 0,-21.08831 17.095454,-38.18376 38.183766,-38.18376 21.088306,0 38.183766,17.09545 38.183766,38.18376 z"
           transform="matrix(0.46296295,0,0,0.46296295,207.44099,366.82895)" />
      </g>
    </g>
    <path
       style="fill:#d38d5f;fill-opacity:1;stroke:#333333;stroke-width:5;stroke-linecap:round;stroke-linejoin:round;stroke-miterlimit:4;stroke-opacity:1;stroke-dasharray:none"
       d="m 178.5625,735.375 c -23.33403,0 -45.56237,3.30778 -65.78125,9.28125 -20.218879,5.97346 -38.427241,14.60015 -53.71875,25.28125 -15.291474,10.6811 -27.666895,23.40837 -36.21875,37.53125 -3.559173,5.87776 -6.455479,11.99383 -8.625,18.3125 20.172356,87.31142 101.8729,104.81253 164.34375,104.8125 62.4626,0 144.12656,-17.49978 164.3125,-104.78125 -2.17057,-6.32853 -5.02935,-12.45735 -8.59375,-18.34375 C 325.72939,793.34587 313.35399,780.6186 298.0625,769.9375 282.771,759.2564 264.56262,750.62972 244.34375,744.65625 224.12486,738.68278 201.89653,735.375 178.5625,735.375 z"
       id="path3782"
       inkscape:connector-curvature="0" />
    <g
       id="g3791"
       transform="translate(-2.5112624,0)">
      <path
         transform="matrix(0.57068518,0,0,0.57068518,21.705357,353.43754)"
         d="m 60.457631,823.25958 c 0,5.46734 -4.432155,9.8995 -9.899495,9.8995 -5.46734,0 -9.899495,-4.43216 -9.899495,-9.8995 0,-5.46734 4.432155,-9.89949 9.899495,-9.89949 5.46734,0 9.899495,4.43215 9.899495,9.89949 z"
         sodipodi:ry="9.8994951"
         sodipodi:rx="9.8994951"
         sodipodi:cy="823.25958"
         sodipodi:cx="50.558136"
         id="path3787"
         style="fill:#333333;fill-opacity:1;stroke:none"
         sodipodi:type="arc" />
      <path
         sodipodi:type="arc"
         style="fill:#333333;fill-opacity:1;stroke:none"
         id="path3789"
         sodipodi:cx="50.558136"
         sodipodi:cy="823.25958"
         sodipodi:rx="9.8994951"
         sodipodi:ry="9.8994951"
         d="m 60.457631,823.25958 c 0,5.46734 -4.432155,9.8995 -9.899495,9.8995 -5.46734,0 -9.899495,-4.43216 -9.899495,-9.8995 0,-5.46734 4.432155,-9.89949 9.899495,-9.89949 5.46734,0 9.899495,4.43215 9.899495,9.89949 z"
         transform="matrix(0.57068518,0,0,0.57068518,282.70536,353.43754)" />
    </g>
    <path
       style="fill:#cf8351;fill-opacity:1;stroke:none"
       d="m 338.84375,830.86898 c -34.62528,52.57912 -93.51059,87.19024 -160.36185,87.19024 -66.84206,0 -125.765444,-34.59195 -160.392638,-87.15889 22.149411,82.31085 100.299788,99.06845 160.392638,99.06842 60.09912,0 138.22286,-16.7664 160.36185,-99.09977 z"
       id="path3795"
       inkscape:connector-curvature="0" />
    <path
       style="fill:#cf8351;fill-opacity:1;stroke:#333333;stroke-width:5;stroke-linecap:round;stroke-linejoin:round;stroke-miterlimit:4;stroke-opacity:1;stroke-dasharray:none"
       d="m 205.6875,557.28125 c -1.51593,4.16315 -2.34375,8.65639 -2.34375,13.34375 0,21.53911 17.46089,39 39,39 12.86031,0 24.27086,-6.21171 31.375,-15.8125 -9.18687,-8.44307 -19.00905,-15.69163 -29.375,-21.59375 -12.21259,-6.95353 -25.17624,-12.0078 -38.65625,-14.9375 z"
       id="path3800"
       inkscape:connector-curvature="0" />
    <path
       style="fill:#cf8351;fill-opacity:1;stroke:#333333;stroke-width:5;stroke-linecap:round;stroke-linejoin:round;stroke-miterlimit:4;stroke-opacity:1;stroke-dasharray:none"
       d="m 91.90625,586.5 c -8.959104,7.21599 -17.372884,15.4987 -25.15625,24.75 3.236597,3.61029 7.925926,5.875 13.15625,5.875 9.763107,0 17.6875,-7.89314 17.6875,-17.65625 0,-5.12715 -2.200561,-9.73977 -5.6875,-12.96875 z"
       id="path3805"
       inkscape:connector-curvature="0" />
  </g>
</svg>
