<?xml version="1.0" encoding="UTF-8" standalone="no"?>
<!-- Created with Inkscape (http://www.inkscape.org/) -->

<svg
   xmlns:dc="http://purl.org/dc/elements/1.1/"
   xmlns:cc="http://creativecommons.org/ns#"
   xmlns:rdf="http://www.w3.org/1999/02/22-rdf-syntax-ns#"
   xmlns:svg="http://www.w3.org/2000/svg"
   xmlns="http://www.w3.org/2000/svg"
   xmlns:sodipodi="http://sodipodi.sourceforge.net/DTD/sodipodi-0.dtd"
   xmlns:inkscape="http://www.inkscape.org/namespaces/inkscape"
   width="129.93047mm"
   height="130.55573mm"
   viewBox="0 0 460.38354 462.59902"
   id="svg2"
   version="1.1"
   inkscape:version="0.91 r13725"
   inkscape:export-filename="C:\Users\brayan.bedritchuk\Desktop\rect4199.png"
   inkscape:export-xdpi="100.09"
   inkscape:export-ydpi="100.09"
   sodipodi:docname="Ball.svg">
  <defs
     id="defs4">
    <filter
       inkscape:collect="always"
       style="color-interpolation-filters:sRGB"
       id="filter4191"
       x="-0.083890386"
       width="1.1677808"
       y="-0.32313335"
       height="1.6462667">
      <feGaussianBlur
         inkscape:collect="always"
         stdDeviation="10.386428"
         id="feGaussianBlur4193" />
    </filter>
  </defs>
  <sodipodi:namedview
     id="base"
     pagecolor="#ffffff"
     bordercolor="#666666"
     borderopacity="1.0"
     inkscape:pageopacity="1"
     inkscape:pageshadow="2"
     inkscape:zoom="0.35"
     inkscape:cx="-596.93182"
     inkscape:cy="9.9605875"
     inkscape:document-units="px"
     inkscape:current-layer="layer1"
     showgrid="false"
     showborder="true"
     fit-margin-left="16"
     fit-margin-right="16"
     fit-margin-bottom="16"
     fit-margin-top="16"
     inkscape:window-width="1680"
     inkscape:window-height="987"
     inkscape:window-x="-8"
     inkscape:window-y="-8"
     inkscape:window-maximized="1" />
  <metadata
     id="metadata7">
    <rdf:RDF>
      <cc:Work
         rdf:about="">
        <dc:format>image/svg+xml</dc:format>
        <dc:type
           rdf:resource="http://purl.org/dc/dcmitype/StillImage" />
        <dc:title></dc:title>
      </cc:Work>
    </rdf:RDF>
  </metadata>
  <g
     inkscape:label="Layer 1"
     inkscape:groupmode="layer"
     id="layer1"
     transform="translate(484.47749,-404.24068)">
    <g
       id="g5004">
      <ellipse
         ry="38.571426"
         rx="148.57143"
         style="opacity:1;fill:#000000;fill-opacity:1;stroke:none;stroke-width:6;stroke-miterlimit:4;stroke-dasharray:none;stroke-opacity:1;filter:url(#filter4191)"
         id="circle4153"
         cx="-254.28572"
         cy="746.64795" />
      <circle
         r="148.57143"
         cy="609.50507"
         cx="-254.28572"
         id="path4136"
         style="opacity:1;fill:#8080ff;fill-opacity:1;stroke:none;stroke-width:6;stroke-miterlimit:4;stroke-dasharray:none;stroke-opacity:1" />
      <path
         id="rect4138"
         d="m -254.28516,460.93359 a 148.57143,148.57143 0 0 0 -26.51953,2.44727 l 166.21485,95.96484 a 148.57143,148.57143 0 0 0 -13.09571,-27.35547 l -122.73828,-70.86328 a 148.57143,148.57143 0 0 0 -3.86133,-0.19336 z m -96.67382,35.98633 a 148.57143,148.57143 0 0 0 -12.79883,12.4043 l 251.08789,144.96484 a 148.57143,148.57143 0 0 0 4.30273,-17.31054 l -242.59179,-140.0586 z m -44.9668,67.87305 a 148.57143,148.57143 0 0 0 -4.29102,17.31836 l 242.54297,140.0332 a 148.57143,148.57143 0 0 0 12.80664,-12.40234 L -395.92578,564.79297 Z m 1.97851,94.97851 a 148.57143,148.57143 0 0 0 13.13477,27.37696 l 122.5,70.72656 a 148.57143,148.57143 0 0 0 4.02734,0.20117 148.57143,148.57143 0 0 0 26.41211,-2.42187 l -166.07422,-95.88282 z"
         style="opacity:1;fill:#e3d7f4;fill-opacity:1;stroke:none;stroke-width:6;stroke-miterlimit:4;stroke-dasharray:none;stroke-opacity:1"
         inkscape:connector-curvature="0" />
    </g>
  </g>
</svg>
