<?xml version="1.0" encoding="UTF-8" standalone="no"?>
<!-- Created with Inkscape (http://www.inkscape.org/) -->

<svg
   xmlns:dc="http://purl.org/dc/elements/1.1/"
   xmlns:cc="http://creativecommons.org/ns#"
   xmlns:rdf="http://www.w3.org/1999/02/22-rdf-syntax-ns#"
   xmlns:svg="http://www.w3.org/2000/svg"
   xmlns="http://www.w3.org/2000/svg"
   xmlns:sodipodi="http://sodipodi.sourceforge.net/DTD/sodipodi-0.dtd"
   xmlns:inkscape="http://www.inkscape.org/namespaces/inkscape"
   width="210mm"
   height="297mm"
   viewBox="0 0 744.09448819 1052.3622047"
   id="svg2"
   version="1.1"
   inkscape:version="0.91 r13725"
   sodipodi:docname="Pokemon With Shadow.svg"
   inkscape:export-filename="C:\Users\brayan.bedritchuk\Desktop\rect4138.png"
   inkscape:export-xdpi="27.110001"
   inkscape:export-ydpi="27.110001">
  <defs
     id="defs4">
    <filter
       inkscape:collect="always"
       style="color-interpolation-filters:sRGB"
       id="filter5193"
       x="-0.12"
       width="1.24"
       y="-0.12"
       height="1.24">
      <feGaussianBlur
         inkscape:collect="always"
         stdDeviation="45.618033"
         id="feGaussianBlur5195" />
    </filter>
    <filter
       inkscape:collect="always"
       style="color-interpolation-filters:sRGB"
       id="filter5228"
       x="-0.1248"
       width="1.2496"
       y="-0.1248"
       height="1.2496">
      <feGaussianBlur
         inkscape:collect="always"
         stdDeviation="11.549959"
         id="feGaussianBlur5230" />
    </filter>
  </defs>
  <sodipodi:namedview
     id="base"
     pagecolor="#ffffff"
     bordercolor="#666666"
     borderopacity="1.0"
     inkscape:pageopacity="0.0"
     inkscape:pageshadow="2"
     inkscape:zoom="0.24748737"
     inkscape:cx="-3545.7271"
     inkscape:cy="28.220573"
     inkscape:document-units="px"
     inkscape:current-layer="layer1"
     showgrid="false"
     showborder="false"
     inkscape:window-width="1680"
     inkscape:window-height="987"
     inkscape:window-x="-8"
     inkscape:window-y="-8"
     inkscape:window-maximized="1" />
  <metadata
     id="metadata7">
    <rdf:RDF>
      <cc:Work
         rdf:about="">
        <dc:format>image/svg+xml</dc:format>
        <dc:type
           rdf:resource="http://purl.org/dc/dcmitype/StillImage" />
        <dc:title></dc:title>
      </cc:Work>
    </rdf:RDF>
  </metadata>
  <g
     inkscape:label="Layer 1"
     inkscape:groupmode="layer"
     id="layer1">
    <rect
       style="opacity:1;fill:#87aade;fill-opacity:1;stroke:none;stroke-opacity:1"
       id="rect4251"
       width="1700"
       height="1234.4222"
       x="-3864.4922"
       y="266.44028"
       inkscape:export-filename="C:\Users\brayan.bedritchuk\Desktop\rect4251.png"
       inkscape:export-xdpi="27"
       inkscape:export-ydpi="27" />
    <g
       transform="matrix(0.98571371,0,0,0.98571371,-466.09545,444.95897)"
       id="g5173"
       style="fill:#000000;filter:url(#filter5193)">
      <circle
         style="opacity:1;fill:#000000;fill-opacity:1;stroke:none;stroke-opacity:1"
         id="circle5175"
         cx="-2585.3315"
         cy="518.83563"
         r="456.18033" />
      <path
         id="path5177"
         d="m -2585.3326,112.85321 a 402.85715,402.85715 0 0 0 -402.8554,402.85743 l 805.7129,0 a 402.85715,402.85715 0 0 0 -402.8575,-402.85743 z"
         style="opacity:1;fill:#000000;fill-opacity:1;stroke:none;stroke-opacity:1"
         inkscape:connector-curvature="0" />
      <path
         inkscape:connector-curvature="0"
         style="opacity:1;fill:#000000;fill-opacity:1;stroke:none;stroke-opacity:1"
         d="M -2585.3326,918.56806 A 402.85715,402.85715 0 0 1 -2988.188,515.71064 l 805.7129,0 a 402.85715,402.85715 0 0 1 -402.8575,402.85742 z"
         id="path5179" />
      <path
         id="path5181"
         d="m -2584.2603,394.49189 a 121.21831,121.21831 0 0 0 -116.1796,86.87305 l -316.6368,0 0,68.6914 316.6543,0 a 121.21831,121.21831 0 0 0 116.1641,86.87305 121.21831,121.21831 0 0 0 116.1797,-86.87305 l 336.3672,0 0,-68.6914 -336.3848,0 a 121.21831,121.21831 0 0 0 -116.1641,-86.87305 z"
         style="opacity:1;fill:#000000;fill-opacity:1;stroke:none;stroke-opacity:1"
         inkscape:connector-curvature="0" />
      <circle
         r="76.771591"
         cy="515.71063"
         cx="-2585.3315"
         id="circle5183"
         style="opacity:1;fill:#000000;fill-opacity:1;stroke:none;stroke-opacity:1" />
    </g>
    <circle
       style="opacity:1;fill:#000000;fill-opacity:1;stroke:none;stroke-opacity:1"
       id="path4151"
       cx="-3014.4922"
       cy="883.65143"
       r="456.18033" />
    <path
       id="path4143"
       d="m -3014.4933,477.66898 a 402.85715,402.85715 0 0 0 -402.8554,402.85743 l 805.7129,0 a 402.85715,402.85715 0 0 0 -402.8575,-402.85743 z"
       style="opacity:1;fill:#ff0000;fill-opacity:1;stroke:none;stroke-opacity:1"
       inkscape:connector-curvature="0" />
    <path
       inkscape:connector-curvature="0"
       style="opacity:1;fill:#ffffff;fill-opacity:1;stroke:none;stroke-opacity:1"
       d="m -3014.4933,1283.3838 a 402.85715,402.85715 0 0 1 -402.8554,-402.85739 l 805.7129,0 a 402.85715,402.85715 0 0 1 -402.8575,402.85739 z"
       id="path4145" />
    <path
       id="path4147"
       d="m -3013.421,759.30766 a 121.21831,121.21831 0 0 0 -116.1796,86.87305 l -316.6368,0 0,68.6914 316.6543,0 a 121.21831,121.21831 0 0 0 116.1641,86.87309 121.21831,121.21831 0 0 0 116.1797,-86.87309 l 336.3672,0 0,-68.6914 -336.3848,0 a 121.21831,121.21831 0 0 0 -116.1641,-86.87305 z"
       style="opacity:1;fill:#000000;fill-opacity:1;stroke:none;stroke-opacity:1"
       inkscape:connector-curvature="0" />
    <circle
       style="opacity:0.763;fill:#000000;fill-opacity:1;stroke:none;stroke-opacity:1;filter:url(#filter5228)"
       id="circle5202"
       cx="-3014.4922"
       cy="880.52643"
       r="111.0573"
       transform="matrix(1.1435468,0,0,1.1435468,432.72075,-117.82534)" />
    <circle
       r="76.771591"
       cy="880.52643"
       cx="-3014.4922"
       id="circle4149"
       style="opacity:1;fill:#ffffff;fill-opacity:1;stroke:none;stroke-opacity:1" />
  </g>
</svg>
