<?xml version="1.0" encoding="UTF-8" standalone="no"?>
<!-- Created with Inkscape (http://www.inkscape.org/) -->

<svg
   xmlns:dc="http://purl.org/dc/elements/1.1/"
   xmlns:cc="http://creativecommons.org/ns#"
   xmlns:rdf="http://www.w3.org/1999/02/22-rdf-syntax-ns#"
   xmlns:svg="http://www.w3.org/2000/svg"
   xmlns="http://www.w3.org/2000/svg"
   xmlns:sodipodi="http://sodipodi.sourceforge.net/DTD/sodipodi-0.dtd"
   xmlns:inkscape="http://www.inkscape.org/namespaces/inkscape"
   width="1221.8055"
   height="180.66258"
   viewBox="0 0 323.26938 47.80031"
   version="1.1"
   id="svg8"
   inkscape:version="0.92.1 r15371"
   sodipodi:docname="2018-09-12 Skulls.svg">
  <defs
     id="defs2">
    <clipPath
       clipPathUnits="userSpaceOnUse"
       id="clipPath4327">
      <rect
         style="opacity:0.5;vector-effect:none;fill:#455a64;fill-opacity:1;stroke:none;stroke-width:5.29166651;stroke-linecap:round;stroke-linejoin:round;stroke-miterlimit:4;stroke-dasharray:none;stroke-dashoffset:0;stroke-opacity:1"
         id="rect4329"
         width="57.679169"
         height="238.125"
         x="-124.88333"
         y="72.633324" />
    </clipPath>
  </defs>
  <sodipodi:namedview
     id="base"
     pagecolor="#ffffff"
     bordercolor="#666666"
     borderopacity="1.0"
     inkscape:pageopacity="0.0"
     inkscape:pageshadow="2"
     inkscape:zoom="0.35355339"
     inkscape:cx="623.15949"
     inkscape:cy="134.37184"
     inkscape:document-units="px"
     inkscape:current-layer="layer1"
     showgrid="false"
     units="px"
     showborder="false"
     inkscape:window-width="1920"
     inkscape:window-height="1017"
     inkscape:window-x="-8"
     inkscape:window-y="-8"
     inkscape:window-maximized="1"
     inkscape:snap-global="false"
     inkscape:snap-center="true"
     fit-margin-top="0"
     fit-margin-left="0"
     fit-margin-right="0"
     fit-margin-bottom="0" />
  <metadata
     id="metadata5">
    <rdf:RDF>
      <cc:Work
         rdf:about="">
        <dc:format>image/svg+xml</dc:format>
        <dc:type
           rdf:resource="http://purl.org/dc/dcmitype/StillImage" />
        <dc:title></dc:title>
      </cc:Work>
    </rdf:RDF>
  </metadata>
  <g
     inkscape:label="Layer 1"
     inkscape:groupmode="layer"
     id="layer1"
     transform="translate(187.3646,-249.79837)">
    <g
       id="g4715"
       transform="matrix(0.75339237,0,0,0.75339237,-151.2811,9.0868008)"
       style="stroke-width:1.32732952">
      <circle
         r="26.192413"
         cy="345.26889"
         cx="-21.702284"
         id="path4357"
         style="opacity:1;vector-effect:none;fill:#cdd7de;fill-opacity:1;stroke:none;stroke-width:7.02378607;stroke-linecap:round;stroke-linejoin:round;stroke-miterlimit:4;stroke-dasharray:none;stroke-dashoffset:0;stroke-opacity:1" />
      <g
         style="fill:#cdd7de;fill-opacity:1;stroke-width:1.32732952"
         transform="translate(-2.5256906)"
         id="g4368">
        <rect
           style="opacity:1;vector-effect:none;fill:#cdd7de;fill-opacity:1;stroke:none;stroke-width:7.02378511;stroke-linecap:round;stroke-linejoin:round;stroke-miterlimit:4;stroke-dasharray:none;stroke-dashoffset:0;stroke-opacity:1"
           id="rect4359"
           width="8.2318964"
           height="22.263552"
           x="-35.546848"
           y="360.23596" />
        <rect
           y="360.23596"
           x="-23.292542"
           height="22.263552"
           width="8.2318964"
           id="rect4361"
           style="opacity:1;vector-effect:none;fill:#cdd7de;fill-opacity:1;stroke:none;stroke-width:7.02378511;stroke-linecap:round;stroke-linejoin:round;stroke-miterlimit:4;stroke-dasharray:none;stroke-dashoffset:0;stroke-opacity:1" />
        <rect
           style="opacity:1;vector-effect:none;fill:#cdd7de;fill-opacity:1;stroke:none;stroke-width:7.02378511;stroke-linecap:round;stroke-linejoin:round;stroke-miterlimit:4;stroke-dasharray:none;stroke-dashoffset:0;stroke-opacity:1"
           id="rect4363"
           width="8.2318964"
           height="22.263552"
           x="-11.038235"
           y="360.23596" />
      </g>
      <circle
         r="8.0448132"
         cy="348.82355"
         cx="-32.553425"
         id="path4370"
         style="opacity:1;vector-effect:none;fill:#333333;fill-opacity:1;stroke:none;stroke-width:7.02378607;stroke-linecap:round;stroke-linejoin:round;stroke-miterlimit:4;stroke-dasharray:none;stroke-dashoffset:0;stroke-opacity:1" />
      <circle
         style="opacity:1;vector-effect:none;fill:#333333;fill-opacity:1;stroke:none;stroke-width:7.02378607;stroke-linecap:round;stroke-linejoin:round;stroke-miterlimit:4;stroke-dasharray:none;stroke-dashoffset:0;stroke-opacity:1"
         id="circle4372"
         cx="-10.851141"
         cy="348.82355"
         r="8.0448132" />
      <path
         sodipodi:nodetypes="cscccsc"
         inkscape:connector-curvature="0"
         id="path4378"
         d="m -21.702284,355.0743 c 0,0 2.348269,2.33907 3.13666,3.77161 0.637007,1.15747 1.218429,3.77162 1.218429,3.77162 h -4.355089 -4.355089 c 0,0 0.581423,-2.61415 1.21843,-3.77162 0.78839,-1.43254 3.136659,-3.77161 3.136659,-3.77161 z"
         inkscape:transform-center-y="-1.2572115"
         style="opacity:1;vector-effect:none;fill:#333333;fill-opacity:1;stroke:none;stroke-width:7.02378607;stroke-linecap:round;stroke-linejoin:round;stroke-miterlimit:4;stroke-dasharray:none;stroke-dashoffset:0;stroke-opacity:1" />
    </g>
    <g
       id="g4727"
       transform="translate(-197.71107,-10.502465)">
      <path
         inkscape:connector-curvature="0"
         style="opacity:1;vector-effect:none;fill:#cdd7de;fill-opacity:1;stroke:none;stroke-width:5.29166651;stroke-linecap:round;stroke-linejoin:round;stroke-miterlimit:4;stroke-dasharray:none;stroke-dashoffset:0;stroke-opacity:1"
         d="m 82.880406,261.26622 a 18.1476,20.579753 0 0 0 -18.147728,20.57961 18.1476,20.579753 0 0 0 3.17965,11.59931 h -0.256315 c 5.709941,1.85086 6.874666,4.41759 6.278686,7.9158 -0.427931,2.5118 -0.956928,5.11337 2.058273,5.11337 h 6.769612 6.770129 c 3.015201,0 2.485687,-2.60157 2.057756,-5.11337 -0.59598,-3.49821 0.569263,-6.06494 6.279203,-7.9158 a 18.1476,20.579753 0 0 0 3.158468,-11.59931 18.1476,20.579753 0 0 0 -18.147734,-20.57961 z"
         id="path4511" />
      <g
         transform="translate(0.28075385)"
         id="g4521">
        <circle
           r="6.1331744"
           cy="285.59128"
           cx="74.327003"
           id="circle4513"
           style="opacity:1;vector-effect:none;fill:#333333;fill-opacity:1;stroke:none;stroke-width:5.29166651;stroke-linecap:round;stroke-linejoin:round;stroke-miterlimit:4;stroke-dasharray:none;stroke-dashoffset:0;stroke-opacity:1" />
        <circle
           style="opacity:1;vector-effect:none;fill:#333333;fill-opacity:1;stroke:none;stroke-width:5.29166651;stroke-linecap:round;stroke-linejoin:round;stroke-miterlimit:4;stroke-dasharray:none;stroke-dashoffset:0;stroke-opacity:1"
           id="circle4515"
           cx="90.872307"
           cy="285.59128"
           r="6.1331744" />
      </g>
      <path
         style="opacity:1;vector-effect:none;fill:#333333;fill-opacity:1;stroke:none;stroke-width:5.29166651;stroke-linecap:round;stroke-linejoin:round;stroke-miterlimit:4;stroke-dasharray:none;stroke-dashoffset:0;stroke-opacity:1"
         inkscape:transform-center-y="-0.95846851"
         d="m 82.59965,290.35672 c 0,0 1.790265,1.78325 2.391315,2.87539 0.485639,0.88242 0.928901,2.87539 0.928901,2.87539 H 82.59965 79.279434 c 0,0 0.443263,-1.99297 0.928902,-2.87539 0.60105,-1.09214 2.391314,-2.87539 2.391314,-2.87539 z"
         id="path4517"
         inkscape:connector-curvature="0"
         sodipodi:nodetypes="cscccsc" />
      <g
         transform="translate(-0.09953761)"
         id="g4535">
        <rect
           style="opacity:1;vector-effect:none;fill:#242b30;fill-opacity:1;stroke:none;stroke-width:1.32291663;stroke-linecap:round;stroke-linejoin:round;stroke-miterlimit:4;stroke-dasharray:none;stroke-dashoffset:0;stroke-opacity:1"
           id="rect4523"
           width="1.9182291"
           height="4.5640626"
           x="75.406242"
           y="301.10104"
           ry="0.95911455" />
        <rect
           ry="0.95911455"
           y="301.10104"
           x="79.815971"
           height="4.5640626"
           width="1.9182291"
           id="rect4525"
           style="opacity:1;vector-effect:none;fill:#242b30;fill-opacity:1;stroke:none;stroke-width:1.32291663;stroke-linecap:round;stroke-linejoin:round;stroke-miterlimit:4;stroke-dasharray:none;stroke-dashoffset:0;stroke-opacity:1" />
        <rect
           style="opacity:1;vector-effect:none;fill:#242b30;fill-opacity:1;stroke:none;stroke-width:1.32291663;stroke-linecap:round;stroke-linejoin:round;stroke-miterlimit:4;stroke-dasharray:none;stroke-dashoffset:0;stroke-opacity:1"
           id="rect4527"
           width="1.9182291"
           height="4.5640626"
           x="84.2257"
           y="301.10104"
           ry="0.95911455" />
        <rect
           ry="0.95911455"
           y="301.10104"
           x="88.635422"
           height="4.5640626"
           width="1.9182291"
           id="rect4529"
           style="opacity:1;vector-effect:none;fill:#242b30;fill-opacity:1;stroke:none;stroke-width:1.32291663;stroke-linecap:round;stroke-linejoin:round;stroke-miterlimit:4;stroke-dasharray:none;stroke-dashoffset:0;stroke-opacity:1" />
      </g>
    </g>
    <g
       id="g4881"
       transform="translate(-0.8869111)">
      <path
         sodipodi:nodetypes="ccscscssscc"
         id="path4537"
         d="m -60.336276,251.47663 c -11.343764,-9e-5 -20.539775,2.91993 -20.539855,15.82299 0.0079,4.70123 0.232803,10.14622 3.598773,13.16806 2.894116,2.59823 7.382664,5.2403 6.816203,8.98636 -0.484338,2.85151 -1.083067,5.80493 2.329578,5.80493 h 7.661951 7.662517 c 3.412657,0 2.813338,-2.95342 2.329001,-5.80493 -0.674538,-3.97132 1.484827,-5.16091 7.106887,-8.98636 3.736876,-2.54271 3.574359,-8.4697 3.5748,-13.16806 -7.9e-5,-12.90306 -9.19609,-15.82308 -20.539855,-15.82299 z"
         style="opacity:1;vector-effect:none;fill:#cdd7de;fill-opacity:1;stroke:none;stroke-width:5.29166698;stroke-linecap:round;stroke-linejoin:round;stroke-miterlimit:4;stroke-dasharray:none;stroke-dashoffset:0;stroke-opacity:1"
         inkscape:connector-curvature="0" />
      <g
         id="g4543"
         transform="matrix(1.131814,0,0,1.1352444,-153.82372,-52.664274)"
         style="stroke-width:0.88220149">
        <circle
           style="opacity:1;vector-effect:none;fill:#333333;fill-opacity:1;stroke:none;stroke-width:4.66831636;stroke-linecap:round;stroke-linejoin:round;stroke-miterlimit:4;stroke-dasharray:none;stroke-dashoffset:0;stroke-opacity:1"
           id="circle4539"
           cx="74.327003"
           cy="285.59128"
           r="6.1331744" />
        <circle
           r="6.1331744"
           cy="285.59128"
           cx="90.872307"
           id="circle4541"
           style="opacity:1;vector-effect:none;fill:#333333;fill-opacity:1;stroke:none;stroke-width:4.66831636;stroke-linecap:round;stroke-linejoin:round;stroke-miterlimit:4;stroke-dasharray:none;stroke-dashoffset:0;stroke-opacity:1" />
      </g>
      <path
         sodipodi:nodetypes="cscccsc"
         inkscape:connector-curvature="0"
         id="path4545"
         d="m -60.654044,276.96156 c 0,0 2.026253,2.02443 2.70653,3.26427 0.549654,1.00177 1.051342,3.26428 1.051342,3.26428 h -3.757872 -3.75786 c 0,0 0.501688,-2.26251 1.051342,-3.26428 0.680277,-1.23984 2.706518,-3.26427 2.706518,-3.26427 z"
         inkscape:transform-center-y="-0.95846851"
         style="opacity:1;vector-effect:none;fill:#333333;fill-opacity:1;stroke:none;stroke-width:5.29166698;stroke-linecap:round;stroke-linejoin:round;stroke-miterlimit:4;stroke-dasharray:none;stroke-dashoffset:0;stroke-opacity:1" />
      <g
         id="g4555"
         transform="matrix(1.131814,0,0,1.1352444,-154.25414,-52.664274)"
         style="stroke-width:0.88220149">
        <rect
           ry="0.95911455"
           y="301.10104"
           x="75.406242"
           height="4.5640626"
           width="1.9182291"
           id="rect4547"
           style="opacity:1;vector-effect:none;fill:#242b30;fill-opacity:1;stroke:none;stroke-width:1.16707909;stroke-linecap:round;stroke-linejoin:round;stroke-miterlimit:4;stroke-dasharray:none;stroke-dashoffset:0;stroke-opacity:1" />
        <rect
           style="opacity:1;vector-effect:none;fill:#242b30;fill-opacity:1;stroke:none;stroke-width:1.16707909;stroke-linecap:round;stroke-linejoin:round;stroke-miterlimit:4;stroke-dasharray:none;stroke-dashoffset:0;stroke-opacity:1"
           id="rect4549"
           width="1.9182291"
           height="4.5640626"
           x="79.815971"
           y="301.10104"
           ry="0.95911455" />
        <rect
           ry="0.95911455"
           y="301.10104"
           x="84.2257"
           height="4.5640626"
           width="1.9182291"
           id="rect4551"
           style="opacity:1;vector-effect:none;fill:#242b30;fill-opacity:1;stroke:none;stroke-width:1.16707909;stroke-linecap:round;stroke-linejoin:round;stroke-miterlimit:4;stroke-dasharray:none;stroke-dashoffset:0;stroke-opacity:1" />
        <rect
           style="opacity:1;vector-effect:none;fill:#242b30;fill-opacity:1;stroke:none;stroke-width:1.16707909;stroke-linecap:round;stroke-linejoin:round;stroke-miterlimit:4;stroke-dasharray:none;stroke-dashoffset:0;stroke-opacity:1"
           id="rect4553"
           width="1.9182291"
           height="4.5640626"
           x="88.635422"
           y="301.10104"
           ry="0.95911455" />
      </g>
    </g>
    <g
       id="g4695"
       transform="matrix(1.131814,0,0,1.1352444,306.32092,-40.06442)"
       style="stroke-width:0.88220149">
      <path
         sodipodi:nodetypes="ccscscssscc"
         id="path4617"
         d="m -222.97399,256.26425 c -10.02264,-8e-5 -18.14766,5.81322 -18.14773,17.17911 0.007,4.14116 0.20569,8.93747 3.17965,11.59931 2.55706,2.2887 6.52286,0.58111 6.02237,3.8809 -0.42793,2.5118 -0.95693,6.99675 2.05827,6.99675 h 6.76962 6.77012 c 3.01521,0 2.48569,-4.48495 2.05776,-6.99675 -0.59598,-3.49821 2.74239,-1.83892 6.2792,-3.8809 3.45518,-1.99485 3.15808,-7.46068 3.15847,-11.59931 -7e-5,-11.36589 -8.12509,-17.17919 -18.14773,-17.17911 z"
         style="opacity:1;vector-effect:none;fill:#f2f2f2;fill-opacity:1;stroke:#242b30;stroke-width:1.86732638;stroke-linecap:round;stroke-linejoin:round;stroke-miterlimit:4;stroke-dasharray:none;stroke-dashoffset:0;stroke-opacity:1"
         inkscape:connector-curvature="0" />
      <path
         inkscape:connector-curvature="0"
         id="path4619"
         d="m -232.6921,283.39421 c -2.79727,0 -5.04923,-2.25196 -5.04923,-5.04922 v -1.3633 c 0,-2.04203 1.64393,-3.68594 3.68594,-3.68594 h 1.36329 1.3633 c 2.04201,0 3.68594,1.64391 3.68594,3.68594 v 1.3633 c 0,2.79726 -2.25196,5.04922 -5.04924,5.04922 z"
         style="opacity:1;vector-effect:none;fill:#242b30;fill-opacity:1;stroke:none;stroke-width:4.66831636;stroke-linecap:round;stroke-linejoin:round;stroke-miterlimit:4;stroke-dasharray:none;stroke-dashoffset:0;stroke-opacity:1" />
      <path
         style="opacity:1;vector-effect:none;fill:#242b30;fill-opacity:1;stroke:none;stroke-width:4.66831636;stroke-linecap:round;stroke-linejoin:round;stroke-miterlimit:4;stroke-dasharray:none;stroke-dashoffset:0;stroke-opacity:1"
         d="m -213.24963,283.39421 c -2.79728,0 -5.04923,-2.25196 -5.04923,-5.04922 v -1.3633 c 0,-2.04203 1.64392,-3.68594 3.68594,-3.68594 h 1.36329 1.36329 c 2.04201,0 3.68594,1.64391 3.68594,3.68594 v 1.3633 c 0,2.79726 -2.25196,5.04922 -5.04923,5.04922 z"
         id="path4621"
         inkscape:connector-curvature="0" />
      <path
         sodipodi:nodetypes="sssssss"
         inkscape:connector-curvature="0"
         id="rect4627"
         d="m -227.99796,288.39748 c 0.53135,0 0.95911,0.42776 0.95911,0.95911 v 5.63926 c 0,0.53135 -0.42776,0.95911 -0.95911,0.95911 -0.53135,0 -0.95912,-0.42776 -0.95912,-0.95911 v -5.63926 c 0,-0.53135 0.42777,-0.95911 0.95912,-0.95911 z"
         style="opacity:1;vector-effect:none;fill:#242b30;fill-opacity:1;stroke:none;stroke-width:1.16707909;stroke-linecap:round;stroke-linejoin:round;stroke-miterlimit:4;stroke-dasharray:none;stroke-dashoffset:0;stroke-opacity:1" />
      <path
         sodipodi:nodetypes="sssssss"
         inkscape:connector-curvature="0"
         id="rect4629"
         d="m -222.97086,288.39748 c 0.53135,0 0.95911,0.42776 0.95911,0.95911 v 5.63926 c 0,0.53135 -0.42776,0.95911 -0.95911,0.95911 -0.53135,0 -0.95912,-0.42776 -0.95912,-0.95911 v -5.63926 c 0,-0.53135 0.42777,-0.95911 0.95912,-0.95911 z"
         style="opacity:1;vector-effect:none;fill:#242b30;fill-opacity:1;stroke:none;stroke-width:1.16707909;stroke-linecap:round;stroke-linejoin:round;stroke-miterlimit:4;stroke-dasharray:none;stroke-dashoffset:0;stroke-opacity:1" />
      <path
         sodipodi:nodetypes="sssssss"
         inkscape:connector-curvature="0"
         id="rect4633"
         d="m -217.94376,288.39748 c 0.53135,0 0.95911,0.42776 0.95911,0.95911 v 5.63926 c 0,0.53135 -0.42776,0.95911 -0.95911,0.95911 -0.53135,0 -0.95912,-0.42776 -0.95912,-0.95911 v -5.63926 c 0,-0.53135 0.42777,-0.95911 0.95912,-0.95911 z"
         style="opacity:1;vector-effect:none;fill:#242b30;fill-opacity:1;stroke:none;stroke-width:1.16707909;stroke-linecap:round;stroke-linejoin:round;stroke-miterlimit:4;stroke-dasharray:none;stroke-dashoffset:0;stroke-opacity:1" />
      <path
         inkscape:connector-curvature="0"
         id="path4637"
         d="m -222.97087,282.32707 c -0.98336,0 -1.77501,0.79165 -1.77501,1.775 v 0.47926 c 0,0.71786 0.5779,1.29576 1.29576,1.29576 h 0.47925 0.47925 c 0.71785,0 1.29576,-0.5779 1.29576,-1.29576 v -0.47926 c 0,-0.98335 -0.79166,-1.775 -1.77501,-1.775 z"
         style="opacity:1;vector-effect:none;fill:#242b30;fill-opacity:1;stroke:none;stroke-width:4.66831636;stroke-linecap:round;stroke-linejoin:round;stroke-miterlimit:4;stroke-dasharray:none;stroke-dashoffset:0;stroke-opacity:1" />
    </g>
    <g
       id="g4705"
       transform="matrix(1.131814,0,0,1.1352444,312.58288,-40.06442)"
       style="stroke-width:0.88220149">
      <path
         inkscape:connector-curvature="0"
         style="opacity:1;vector-effect:none;fill:#cdd7de;fill-opacity:1;stroke:#242b30;stroke-width:1.86732638;stroke-linecap:round;stroke-linejoin:round;stroke-miterlimit:4;stroke-dasharray:none;stroke-dashoffset:0;stroke-opacity:1"
         d="m -279.85941,256.26425 c -10.02264,-8e-5 -18.14766,5.81322 -18.14773,17.17911 0.007,4.14116 0.20569,8.93747 3.17965,11.59931 2.55706,2.2887 6.52286,0.58111 6.02237,3.8809 -0.42793,2.5118 -0.95693,6.99675 2.05827,6.99675 h 6.76962 6.77012 c 3.01521,0 2.48569,-4.48495 2.05776,-6.99675 -0.59598,-3.49821 2.74239,-1.83892 6.2792,-3.8809 3.45518,-1.99485 3.15808,-7.46068 3.15847,-11.59931 -7e-5,-11.36589 -8.12509,-17.17919 -18.14773,-17.17911 z"
         id="path4656"
         sodipodi:nodetypes="ccscscssscc" />
      <g
         transform="translate(0.19926311,-3.96875)"
         id="g4672"
         style="stroke-width:0.88220149">
        <path
           inkscape:connector-curvature="0"
           id="path4658"
           d="m -289.18195,285.1127 c -3.74931,0 -6.76772,-3.01841 -6.76772,-6.7677 v -1.8273 c 0,-2.73703 2.20344,-4.94044 4.94044,-4.94044 h 1.82728 1.8273 c 2.737,0 4.94044,2.20341 4.94044,4.94044 v 1.8273 c 0,3.74929 -3.01841,6.7677 -6.76774,6.7677 z"
           style="opacity:1;vector-effect:none;fill:#242b30;fill-opacity:1;stroke:none;stroke-width:4.66831636;stroke-linecap:round;stroke-linejoin:round;stroke-miterlimit:4;stroke-dasharray:none;stroke-dashoffset:0;stroke-opacity:1" />
        <path
           style="opacity:1;vector-effect:none;fill:#242b30;fill-opacity:1;stroke:none;stroke-width:4.66831636;stroke-linecap:round;stroke-linejoin:round;stroke-miterlimit:4;stroke-dasharray:none;stroke-dashoffset:0;stroke-opacity:1"
           d="m -270.9275,285.1127 c -3.74932,0 -6.76772,-3.01841 -6.76772,-6.7677 v -1.8273 c 0,-2.73703 2.20342,-4.94044 4.94044,-4.94044 h 1.82728 1.82728 c 2.737,0 4.94044,2.20341 4.94044,4.94044 v 1.8273 c 0,3.74929 -3.01841,6.7677 -6.76772,6.7677 z"
           id="path4660"
           inkscape:connector-curvature="0" />
      </g>
      <path
         style="opacity:1;vector-effect:none;fill:#242b30;fill-opacity:1;stroke:none;stroke-width:1.16707909;stroke-linecap:round;stroke-linejoin:round;stroke-miterlimit:4;stroke-dasharray:none;stroke-dashoffset:0;stroke-opacity:1"
         d="m -284.88338,288.39748 c 0.53135,0 0.95911,0.42776 0.95911,0.95911 v 5.63926 c 0,0.53135 -0.42776,0.95911 -0.95911,0.95911 -0.53135,0 -0.95912,-0.42776 -0.95912,-0.95911 v -5.63926 c 0,-0.53135 0.42777,-0.95911 0.95912,-0.95911 z"
         id="path4662"
         inkscape:connector-curvature="0"
         sodipodi:nodetypes="sssssss" />
      <path
         style="opacity:1;vector-effect:none;fill:#242b30;fill-opacity:1;stroke:none;stroke-width:1.16707909;stroke-linecap:round;stroke-linejoin:round;stroke-miterlimit:4;stroke-dasharray:none;stroke-dashoffset:0;stroke-opacity:1"
         d="m -279.85628,288.39748 c 0.53135,0 0.95911,0.42776 0.95911,0.95911 v 5.63926 c 0,0.53135 -0.42776,0.95911 -0.95911,0.95911 -0.53135,0 -0.95912,-0.42776 -0.95912,-0.95911 v -5.63926 c 0,-0.53135 0.42777,-0.95911 0.95912,-0.95911 z"
         id="path4664"
         inkscape:connector-curvature="0"
         sodipodi:nodetypes="sssssss" />
      <path
         style="opacity:1;vector-effect:none;fill:#242b30;fill-opacity:1;stroke:none;stroke-width:1.16707909;stroke-linecap:round;stroke-linejoin:round;stroke-miterlimit:4;stroke-dasharray:none;stroke-dashoffset:0;stroke-opacity:1"
         d="m -274.82918,288.39748 c 0.53135,0 0.95911,0.42776 0.95911,0.95911 v 5.63926 c 0,0.53135 -0.42776,0.95911 -0.95911,0.95911 -0.53135,0 -0.95912,-0.42776 -0.95912,-0.95911 v -5.63926 c 0,-0.53135 0.42777,-0.95911 0.95912,-0.95911 z"
         id="path4666"
         inkscape:connector-curvature="0"
         sodipodi:nodetypes="sssssss" />
      <path
         style="opacity:1;vector-effect:none;fill:#242b30;fill-opacity:1;stroke:none;stroke-width:4.66831636;stroke-linecap:round;stroke-linejoin:round;stroke-miterlimit:4;stroke-dasharray:none;stroke-dashoffset:0;stroke-opacity:1"
         d="m -279.85629,282.32707 c -0.98336,0 -1.77501,0.79165 -1.77501,1.775 v 0.47926 c 0,0.71786 0.5779,1.29576 1.29576,1.29576 h 0.47925 0.47925 c 0.71785,0 1.29576,-0.5779 1.29576,-1.29576 v -0.47926 c 0,-0.98335 -0.79166,-1.775 -1.77501,-1.775 z"
         id="path4668"
         inkscape:connector-curvature="0" />
    </g>
    <g
       id="g4783"
       transform="translate(-2.2173268)">
      <path
         inkscape:connector-curvature="0"
         id="path4743"
         transform="scale(0.26458333)"
         d="m 432.00586,948.125 c -42.86774,0.005 -77.61689,24.94868 -77.61719,73.7109 0.002,17.7576 -1.26858,41.2103 13.51172,49.7696 15.12949,8.7615 29.40878,1.6406 26.85938,16.6504 -1.83058,10.7772 -4.09551,30.0214 8.80273,30.0214 h 28.44336 28.44336 c 12.89824,0 10.63331,-19.2441 8.80273,-30.0214 -2.5494,-15.0098 11.72989,-7.8889 26.85938,-16.6504 14.78029,-8.5593 13.51005,-32.012 13.51172,-49.7696 -3.1e-4,-48.76218 -34.74946,-73.70591 -77.61719,-73.7109 z"
         style="opacity:1;vector-effect:none;fill:#cdd7de;fill-opacity:1;stroke:#242b30;stroke-width:7.99999952;stroke-linecap:round;stroke-linejoin:round;stroke-miterlimit:4;stroke-dasharray:none;stroke-dashoffset:0;stroke-opacity:1" />
      <path
         style="opacity:1;vector-effect:none;fill:#242b30;fill-opacity:1;stroke:none;stroke-width:5.29166698;stroke-linecap:round;stroke-linejoin:round;stroke-miterlimit:4;stroke-dasharray:none;stroke-dashoffset:0;stroke-opacity:1"
         d="m 103.29882,281.65744 c -3.16599,0 -5.714786,-2.55653 -5.714786,-5.7321 v -1.54768 c 0,-2.3182 1.860623,-4.18444 4.171796,-4.18444 h 1.54299 1.54301 c 2.31117,0 4.17179,1.86624 4.17179,4.18444 v 1.54768 c 0,3.17557 -2.5488,5.7321 -5.7148,5.7321 z"
         id="path4745"
         inkscape:connector-curvature="0" />
      <path
         inkscape:connector-curvature="0"
         id="path4747"
         d="m 125.30408,281.65744 c -3.166,0 -5.71479,-2.55653 -5.71479,-5.7321 v -1.54768 c 0,-2.3182 1.86062,-4.18444 4.1718,-4.18444 h 1.54299 1.54299 c 2.31118,0 4.1718,1.86624 4.1718,4.18444 v 1.54768 c 0,3.17557 -2.5488,5.7321 -5.71479,5.7321 z"
         style="opacity:1;vector-effect:none;fill:#242b30;fill-opacity:1;stroke:none;stroke-width:5.29166698;stroke-linecap:round;stroke-linejoin:round;stroke-miterlimit:4;stroke-dasharray:none;stroke-dashoffset:0;stroke-opacity:1" />
      <path
         style="opacity:1;vector-effect:none;fill:#242b30;fill-opacity:1;stroke:none;stroke-width:1.32291675;stroke-linecap:round;stroke-linejoin:round;stroke-miterlimit:4;stroke-dasharray:none;stroke-dashoffset:0;stroke-opacity:1"
         d="m 108.61172,287.33737 c 0.60139,0 1.08553,0.48562 1.08553,1.08883 v 6.40194 c 0,0.60321 -0.48414,1.08882 -1.08553,1.08882 -0.60139,0 -1.08555,-0.48561 -1.08555,-1.08882 v -6.40194 c 0,-0.60321 0.48416,-1.08883 1.08555,-1.08883 z"
         id="path4749"
         inkscape:connector-curvature="0"
         sodipodi:nodetypes="sssssss" />
      <path
         style="opacity:1;vector-effect:none;fill:#242b30;fill-opacity:1;stroke:none;stroke-width:1.32291675;stroke-linecap:round;stroke-linejoin:round;stroke-miterlimit:4;stroke-dasharray:none;stroke-dashoffset:0;stroke-opacity:1"
         d="m 114.30146,287.33737 c 0.60139,0 1.08553,0.48562 1.08553,1.08883 v 6.40194 c 0,0.60321 -0.48414,1.08882 -1.08553,1.08882 -0.60139,0 -1.08555,-0.48561 -1.08555,-1.08882 v -6.40194 c 0,-0.60321 0.48416,-1.08883 1.08555,-1.08883 z"
         id="path4751"
         inkscape:connector-curvature="0"
         sodipodi:nodetypes="sssssss" />
      <path
         style="opacity:1;vector-effect:none;fill:#242b30;fill-opacity:1;stroke:none;stroke-width:1.32291675;stroke-linecap:round;stroke-linejoin:round;stroke-miterlimit:4;stroke-dasharray:none;stroke-dashoffset:0;stroke-opacity:1"
         d="m 119.9912,287.33737 c 0.60139,0 1.08554,0.48562 1.08554,1.08883 v 6.40194 c 0,0.60321 -0.48415,1.08882 -1.08554,1.08882 -0.60139,0 -1.08554,-0.48561 -1.08554,-1.08882 v -6.40194 c 0,-0.60321 0.48415,-1.08883 1.08554,-1.08883 z"
         id="path4753"
         inkscape:connector-curvature="0"
         sodipodi:nodetypes="sssssss" />
      <path
         transform="matrix(0.52297467,0,0,0.51749299,40.626039,125.48993)"
         inkscape:transform-center-y="-0.9839285"
         d="m 140.87778,295.10087 3.2932,5.704 3.29321,5.704 -6.58641,0 -6.58641,0 3.2932,-5.704 z"
         inkscape:randomized="0"
         inkscape:rounded="0"
         inkscape:flatsided="false"
         sodipodi:arg2="-0.52359878"
         sodipodi:arg1="-1.5707963"
         sodipodi:r2="3.8026662"
         sodipodi:r1="7.6053324"
         sodipodi:cy="302.70621"
         sodipodi:cx="140.87778"
         sodipodi:sides="3"
         id="path4774"
         style="opacity:1;vector-effect:none;fill:#242b30;fill-opacity:1;stroke:#242b30;stroke-width:2.03436995;stroke-linecap:round;stroke-linejoin:round;stroke-miterlimit:4;stroke-dasharray:none;stroke-dashoffset:0;stroke-opacity:1"
         sodipodi:type="star" />
    </g>
    <g
       id="g4869"
       transform="translate(-1.5055623)">
      <path
         style="opacity:1;vector-effect:none;fill:#cdd7de;fill-opacity:1;stroke:#242b30;stroke-width:2.11666656;stroke-linecap:round;stroke-linejoin:round;stroke-miterlimit:4;stroke-dasharray:none;stroke-dashoffset:0;stroke-opacity:1"
         d="m 171.71611,250.85807 c -11.34209,0.001 -20.53613,6.601 -20.53621,19.50268 5.3e-4,4.69836 -0.33565,10.90355 3.57497,13.1682 4.00302,2.31815 7.78108,0.43408 7.10655,4.40542 -0.48434,2.85147 -1.08361,7.94316 2.32905,7.94316 h 7.52564 7.52564 c 3.41266,0 2.8134,-5.09167 2.32906,-7.94316 -0.67453,-3.97134 3.10353,-2.08727 7.10654,-4.40542 3.91062,-2.26465 3.57454,-8.46984 3.57498,-13.1682 -8e-5,-12.90166 -9.19413,-19.50136 -20.53622,-19.50268 z"
         id="path4785"
         inkscape:connector-curvature="0" />
      <path
         sodipodi:nodetypes="sssssss"
         inkscape:connector-curvature="0"
         id="path4791"
         d="m 166.02628,287.33737 c 0.60139,0 1.08553,0.48562 1.08553,1.08883 v 6.40194 c 0,0.60321 -0.48414,1.08882 -1.08553,1.08882 -0.60139,0 -1.08555,-0.48561 -1.08555,-1.08882 v -6.40194 c 0,-0.60321 0.48416,-1.08883 1.08555,-1.08883 z"
         style="opacity:1;vector-effect:none;fill:#242b30;fill-opacity:1;stroke:none;stroke-width:1.32291675;stroke-linecap:round;stroke-linejoin:round;stroke-miterlimit:4;stroke-dasharray:none;stroke-dashoffset:0;stroke-opacity:1" />
      <path
         sodipodi:nodetypes="sssssss"
         inkscape:connector-curvature="0"
         id="path4793"
         d="m 171.71602,287.33737 c 0.60139,0 1.08553,0.48562 1.08553,1.08883 v 6.40194 c 0,0.60321 -0.48414,1.08882 -1.08553,1.08882 -0.60139,0 -1.08555,-0.48561 -1.08555,-1.08882 v -6.40194 c 0,-0.60321 0.48416,-1.08883 1.08555,-1.08883 z"
         style="opacity:1;vector-effect:none;fill:#242b30;fill-opacity:1;stroke:none;stroke-width:1.32291675;stroke-linecap:round;stroke-linejoin:round;stroke-miterlimit:4;stroke-dasharray:none;stroke-dashoffset:0;stroke-opacity:1" />
      <path
         sodipodi:nodetypes="sssssss"
         inkscape:connector-curvature="0"
         id="path4795"
         d="m 177.40576,287.33737 c 0.60139,0 1.08554,0.48562 1.08554,1.08883 v 6.40194 c 0,0.60321 -0.48415,1.08882 -1.08554,1.08882 -0.60139,0 -1.08554,-0.48561 -1.08554,-1.08882 v -6.40194 c 0,-0.60321 0.48415,-1.08883 1.08554,-1.08883 z"
         style="opacity:1;vector-effect:none;fill:#242b30;fill-opacity:1;stroke:none;stroke-width:1.32291675;stroke-linecap:round;stroke-linejoin:round;stroke-miterlimit:4;stroke-dasharray:none;stroke-dashoffset:0;stroke-opacity:1" />
      <path
         sodipodi:type="star"
         style="opacity:1;vector-effect:none;fill:#242b30;fill-opacity:1;stroke:#242b30;stroke-width:2.03436995;stroke-linecap:round;stroke-linejoin:round;stroke-miterlimit:4;stroke-dasharray:none;stroke-dashoffset:0;stroke-opacity:1"
         id="path4797"
         sodipodi:sides="3"
         sodipodi:cx="140.87778"
         sodipodi:cy="302.70621"
         sodipodi:r1="7.6053324"
         sodipodi:r2="3.8026662"
         sodipodi:arg1="-1.5707963"
         sodipodi:arg2="-0.52359878"
         inkscape:flatsided="false"
         inkscape:rounded="0"
         inkscape:randomized="0"
         d="m 140.87778,295.10087 3.2932,5.704 3.29321,5.704 -6.58641,0 -6.58641,0 3.2932,-5.704 z"
         inkscape:transform-center-y="-0.9839285"
         transform="matrix(0.52297467,0,0,0.51749299,98.040603,125.48993)" />
      <g
         style="stroke-width:0.88220149"
         transform="matrix(1.131814,0,0,1.1352444,78.228683,-51.541742)"
         id="g4822">
        <circle
           r="6.1331744"
           cy="285.59128"
           cx="74.327003"
           id="circle4818"
           style="opacity:1;vector-effect:none;fill:#333333;fill-opacity:1;stroke:none;stroke-width:4.66831636;stroke-linecap:round;stroke-linejoin:round;stroke-miterlimit:4;stroke-dasharray:none;stroke-dashoffset:0;stroke-opacity:1" />
        <circle
           style="opacity:1;vector-effect:none;fill:#333333;fill-opacity:1;stroke:none;stroke-width:4.66831636;stroke-linecap:round;stroke-linejoin:round;stroke-miterlimit:4;stroke-dasharray:none;stroke-dashoffset:0;stroke-opacity:1"
           id="circle4820"
           cx="90.872307"
           cy="285.59128"
           r="6.1331744" />
      </g>
    </g>
    <g
       id="g4859"
       transform="translate(-3.0531434e-5)">
      <path
         style="opacity:1;vector-effect:none;fill:#cdd7de;fill-opacity:1;stroke:#242b30;stroke-width:2.11666656;stroke-linecap:round;stroke-linejoin:round;stroke-miterlimit:4;stroke-dasharray:none;stroke-dashoffset:0;stroke-opacity:1"
         d="m 228.33695,250.85807 c -11.34209,0.001 -20.53614,6.601 -20.53622,19.50268 5.3e-4,4.69836 -0.33564,10.90355 3.57498,13.1682 4.00301,2.31815 7.78107,0.43408 7.10654,4.40542 -0.48434,2.85147 -1.0836,7.94316 2.32906,7.94316 h 7.52564 7.52564 c 3.41266,0 2.81339,-5.09167 2.32905,-7.94316 -0.67453,-3.97134 3.10354,-2.08727 7.10655,-4.40542 3.91062,-2.26465 3.57453,-8.46984 3.57497,-13.1682 -8e-5,-12.90166 -9.19412,-19.50136 -20.53621,-19.50268 z"
         id="path4824"
         inkscape:connector-curvature="0" />
      <g
         transform="translate(-0.28052497)"
         id="g4849">
        <path
           style="opacity:1;vector-effect:none;fill:#242b30;fill-opacity:1;stroke:none;stroke-width:5.29166698;stroke-linecap:round;stroke-linejoin:round;stroke-miterlimit:4;stroke-dasharray:none;stroke-dashoffset:0;stroke-opacity:1"
           d="m 218.04101,281.65744 c -3.55755,0 -6.42158,-2.87271 -6.42158,-6.44103 v -1.73909 c 0,-2.60491 2.09075,-4.70196 4.68776,-4.70196 h 1.73382 1.73385 c 2.59701,0 4.68774,2.09705 4.68774,4.70196 v 1.73909 c 0,3.56832 -2.86403,6.44103 -6.42159,6.44103 z"
           id="path4826"
           inkscape:connector-curvature="0" />
        <path
           inkscape:connector-curvature="0"
           id="path4828"
           d="m 239.19396,281.65744 c -3.55757,0 -6.42158,-2.87271 -6.42158,-6.44103 v -1.73909 c 0,-2.60491 2.09073,-4.70196 4.68775,-4.70196 h 1.73383 1.73382 c 2.59702,0 4.68776,2.09705 4.68776,4.70196 v 1.73909 c 0,3.56832 -2.86403,6.44103 -6.42158,6.44103 z"
           style="opacity:1;vector-effect:none;fill:#242b30;fill-opacity:1;stroke:none;stroke-width:5.29166698;stroke-linecap:round;stroke-linejoin:round;stroke-miterlimit:4;stroke-dasharray:none;stroke-dashoffset:0;stroke-opacity:1" />
      </g>
      <path
         sodipodi:nodetypes="sssssss"
         inkscape:connector-curvature="0"
         id="path4830"
         d="m 222.64712,287.33737 c 0.60139,0 1.08553,0.48562 1.08553,1.08883 v 6.40194 c 0,0.60321 -0.48414,1.08882 -1.08553,1.08882 -0.60139,0 -1.08555,-0.48561 -1.08555,-1.08882 v -6.40194 c 0,-0.60321 0.48416,-1.08883 1.08555,-1.08883 z"
         style="opacity:1;vector-effect:none;fill:#242b30;fill-opacity:1;stroke:none;stroke-width:1.32291675;stroke-linecap:round;stroke-linejoin:round;stroke-miterlimit:4;stroke-dasharray:none;stroke-dashoffset:0;stroke-opacity:1" />
      <path
         sodipodi:nodetypes="sssssss"
         inkscape:connector-curvature="0"
         id="path4832"
         d="m 228.33686,287.33737 c 0.60139,0 1.08553,0.48562 1.08553,1.08883 v 6.40194 c 0,0.60321 -0.48414,1.08882 -1.08553,1.08882 -0.60139,0 -1.08555,-0.48561 -1.08555,-1.08882 v -6.40194 c 0,-0.60321 0.48416,-1.08883 1.08555,-1.08883 z"
         style="opacity:1;vector-effect:none;fill:#242b30;fill-opacity:1;stroke:none;stroke-width:1.32291675;stroke-linecap:round;stroke-linejoin:round;stroke-miterlimit:4;stroke-dasharray:none;stroke-dashoffset:0;stroke-opacity:1" />
      <path
         sodipodi:nodetypes="sssssss"
         inkscape:connector-curvature="0"
         id="path4834"
         d="m 234.0266,287.33737 c 0.60139,0 1.08554,0.48562 1.08554,1.08883 v 6.40194 c 0,0.60321 -0.48415,1.08882 -1.08554,1.08882 -0.60139,0 -1.08554,-0.48561 -1.08554,-1.08882 v -6.40194 c 0,-0.60321 0.48415,-1.08883 1.08554,-1.08883 z"
         style="opacity:1;vector-effect:none;fill:#242b30;fill-opacity:1;stroke:none;stroke-width:1.32291675;stroke-linecap:round;stroke-linejoin:round;stroke-miterlimit:4;stroke-dasharray:none;stroke-dashoffset:0;stroke-opacity:1" />
      <path
         sodipodi:type="star"
         style="opacity:1;vector-effect:none;fill:#242b30;fill-opacity:1;stroke:#242b30;stroke-width:2.03436995;stroke-linecap:round;stroke-linejoin:round;stroke-miterlimit:4;stroke-dasharray:none;stroke-dashoffset:0;stroke-opacity:1"
         id="path4836"
         sodipodi:sides="3"
         sodipodi:cx="140.87778"
         sodipodi:cy="302.70621"
         sodipodi:r1="7.6053324"
         sodipodi:r2="3.8026662"
         sodipodi:arg1="-1.5707963"
         sodipodi:arg2="-0.52359878"
         inkscape:flatsided="false"
         inkscape:rounded="0"
         inkscape:randomized="0"
         d="m 140.87778,295.10087 3.2932,5.704 3.29321,5.704 -6.58641,0 -6.58641,0 3.2932,-5.704 z"
         inkscape:transform-center-y="-0.9839285"
         transform="matrix(0.52297467,0,0,0.51749299,154.66144,125.48993)" />
    </g>
  </g>
</svg>
