<?xml version="1.0" encoding="UTF-8" standalone="no"?>
<!-- Created with Inkscape (http://www.inkscape.org/) -->

<svg
   xmlns:dc="http://purl.org/dc/elements/1.1/"
   xmlns:cc="http://creativecommons.org/ns#"
   xmlns:rdf="http://www.w3.org/1999/02/22-rdf-syntax-ns#"
   xmlns:svg="http://www.w3.org/2000/svg"
   xmlns="http://www.w3.org/2000/svg"
   xmlns:sodipodi="http://sodipodi.sourceforge.net/DTD/sodipodi-0.dtd"
   xmlns:inkscape="http://www.inkscape.org/namespaces/inkscape"
   width="3284.6719"
   height="5296.9351"
   viewBox="0 0 3284.6718 5296.9352"
   id="svg4140"
   version="1.1"
   inkscape:version="0.91 r13725"
   sodipodi:docname="Material Beer.svg"
   inkscape:export-filename="C:\Users\brayan.bedritchuk\Desktop\Material Beer2.png"
   inkscape:export-xdpi="19.870001"
   inkscape:export-ydpi="19.870001">
  <defs
     id="defs4142">
    <filter
       inkscape:collect="always"
       style="color-interpolation-filters:sRGB"
       id="filter4199"
       x="-0.12"
       width="1.24"
       y="-0.12"
       height="1.24">
      <feGaussianBlur
         inkscape:collect="always"
         stdDeviation="27.476151"
         id="feGaussianBlur4201" />
    </filter>
    <filter
       inkscape:collect="always"
       style="color-interpolation-filters:sRGB"
       id="filter4242"
       x="-0.013568905"
       width="1.0271378"
       y="-0.10378378"
       height="1.2075676">
      <feGaussianBlur
         inkscape:collect="always"
         stdDeviation="9.142857"
         id="feGaussianBlur4244" />
    </filter>
  </defs>
  <sodipodi:namedview
     id="base"
     pagecolor="#ffffff"
     bordercolor="#666666"
     borderopacity="1.0"
     inkscape:pageopacity="1"
     inkscape:pageshadow="2"
     inkscape:zoom="0.087500002"
     inkscape:cx="-2000.2178"
     inkscape:cy="1812.6878"
     inkscape:document-units="px"
     inkscape:current-layer="layer1"
     showgrid="false"
     showborder="false"
     units="px"
     inkscape:object-paths="true"
     inkscape:snap-intersection-paths="true"
     inkscape:object-nodes="true"
     inkscape:snap-smooth-nodes="true"
     inkscape:snap-nodes="false"
     inkscape:window-width="1680"
     inkscape:window-height="987"
     inkscape:window-x="-8"
     inkscape:window-y="-8"
     inkscape:window-maximized="1"
     fit-margin-top="0"
     fit-margin-left="0"
     fit-margin-right="0"
     fit-margin-bottom="0"
     showguides="false" />
  <metadata
     id="metadata4145">
    <rdf:RDF>
      <cc:Work
         rdf:about="">
        <dc:format>image/svg+xml</dc:format>
        <dc:type
           rdf:resource="http://purl.org/dc/dcmitype/StillImage" />
        <dc:title></dc:title>
      </cc:Work>
    </rdf:RDF>
  </metadata>
  <g
     inkscape:label="Layer 1"
     inkscape:groupmode="layer"
     id="layer1"
     transform="translate(2651.312,5425.4883)">
    <rect
       y="-5425.4883"
       x="-2607.9199"
       height="146.95139"
       width="3197.9482"
       id="rect4271"
       style="opacity:1;fill:#005be4;fill-opacity:1;stroke:none;stroke-width:40;stroke-miterlimit:4;stroke-dasharray:none;stroke-opacity:1"
       inkscape:export-filename="C:\Users\brayan.bedritchuk\Desktop\g4227.png"
       inkscape:export-xdpi="19"
       inkscape:export-ydpi="19" />
    <rect
       style="opacity:1;fill:#87deaa;fill-opacity:1;stroke:none;stroke-width:40;stroke-miterlimit:4;stroke-dasharray:none;stroke-opacity:1"
       id="rect4162"
       width="3197.8882"
       height="4848.2427"
       x="-2607.9199"
       y="-4976.7959"
       inkscape:export-filename="C:\Users\brayan.bedritchuk\Desktop\g4227.png"
       inkscape:export-xdpi="19"
       inkscape:export-ydpi="19" />
    <g
       id="g4164"
       transform="matrix(1.3697365,0,0,1.3697365,595.23689,-2433.9794)"
       inkscape:export-filename="C:\Users\brayan.bedritchuk\Desktop\g4227.png"
       inkscape:export-xdpi="19"
       inkscape:export-ydpi="19">
      <path
         style="opacity:1;fill:#ffffff;fill-opacity:1;stroke:none;stroke-width:40;stroke-miterlimit:4;stroke-dasharray:none;stroke-opacity:1"
         d="m -1188.1727,63.350444 0,-539.371714 -870.4863,0 -117.8042,0 c -16.3979,0 -29.5989,15.56215 -29.5989,34.89311 0,19.33096 13.201,34.89763 29.5989,34.89763 l 117.8042,0 233.1309,0 c 21.4127,0 38.6499,20.3202 38.6499,45.56282 0,25.24265 -17.2372,45.56285 -38.6499,45.56285 l -233.1309,0 -217.3753,0 -4.1774,0 c -19.0983,0 -34.4726,18.12416 -34.4726,40.63835 0,22.51412 15.3743,40.64284 34.4726,40.64284 l 28.5491,0 193.0036,0 271.7808,0 c 34.9141,0 63.0217,33.13491 63.0217,74.29351 0,41.15866 -28.1076,74.293553 -63.0217,74.293553 l -271.7808,0 -193.0036,0 c -34.9141,0 -63.0217,33.13487 -63.0217,74.2935 0,41.158644 28.1076,74.293551 63.0217,74.293551 l 193.0036,0 271.7808,0 598.7055,0 z"
         id="path5764"
         inkscape:connector-curvature="0" />
      <path
         inkscape:connector-curvature="0"
         id="rect4839"
         d="m -1441.3357,-757.40779 0,616.51457 1092.36829,0 147.83178,0 c 20.5779,0 37.1435,-17.7879 37.1435,-39.88365 0,-22.09574 -16.5656,-39.88882 -37.1435,-39.88882 l -147.83178,0 -292.55456,0 c -26.87078,0 -48.50166,-23.22646 -48.50166,-52.07937 0,-28.85294 21.63088,-52.0794 48.50166,-52.0794 l 292.55456,0 272.783176,0 5.2422,0 c 23.9663,0 43.2595,-20.71634 43.2595,-46.45059 0,-25.73418 -19.2932,-46.45573 -43.2595,-46.45573 l -35.826096,0 -242.19928,0 -341.05622,0 c -43.81337,0 -79.0855,-37.87398 -79.0855,-84.91923 0,-47.04532 35.27213,-84.91927 79.0855,-84.91927 l 341.05622,0 242.19928,0 c 43.813496,0 79.085596,-37.87395 79.085596,-84.91924 0,-47.04529 -35.2721,-84.91927 -79.085596,-84.91927 l -242.19928,0 -341.05622,0 -751.31207,0 z"
         style="opacity:1;fill:#ffffff;fill-opacity:1;stroke:none;stroke-width:40;stroke-miterlimit:4;stroke-dasharray:none;stroke-opacity:1" />
      <path
         inkscape:connector-curvature="0"
         id="circle5181"
         d="m -1195.9395,-836.77734 a 458.99069,458.99069 0 0 0 -458.9902,458.99023 458.99069,458.99069 0 0 0 285.3965,424.636719 458.99069,458.99069 0 0 1 -213.9668,-387.494139 458.99069,458.99069 0 0 1 458.9902,-458.99024 458.99069,458.99069 0 0 1 173.58792,34.35157 458.99069,458.99069 0 0 0 -245.01762,-71.49414 z"
         style="opacity:1;fill:#000000;fill-opacity:0;stroke:none;stroke-width:40;stroke-miterlimit:4;stroke-dasharray:none;stroke-opacity:1" />
      <g
         transform="translate(-811.42856,17.142838)"
         id="g5195">
        <circle
           style="opacity:1;fill:#5599ff;fill-opacity:1;stroke:none;stroke-width:40;stroke-miterlimit:4;stroke-dasharray:none;stroke-opacity:1"
           id="path4712"
           cx="-384.51028"
           cy="-394.92966"
           r="458.99069" />
        <path
           inkscape:connector-curvature="0"
           style="opacity:1;fill:#91bdff;fill-opacity:1;stroke:none;stroke-width:40;stroke-miterlimit:4;stroke-dasharray:none;stroke-opacity:1"
           d="M -384.50977,-853.91992 A 458.99069,458.99069 0 0 0 -843.5,-394.92969 a 458.99069,458.99069 0 0 0 204.70508,381.814456 458.99069,458.99069 0 0 1 -98.99219,-284.671876 458.99069,458.99069 0 0 1 458.99023,-458.99023 458.99069,458.99069 0 0 1 254.285161,77.17773 458.99069,458.99069 0 0 0 -359.998051,-174.32031 z"
           id="circle5190" />
      </g>
      <g
         transform="matrix(0.77602929,0,0,0.77602929,-308.60921,-508.20698)"
         id="g5033">
        <g
           id="g5018"
           transform="translate(-1313.1983,-214.15234)">
          <g
             transform="matrix(1.1296161,0,0,1.1296161,-761.62571,-1258.9415)"
             id="g4973">
            <g
               id="g4923"
               style="fill:#000000"
               transform="matrix(1.211898,0,0,1.0825366,3917.3943,-630.65431)">
              <path
                 style="opacity:1;fill:#000000;fill-opacity:1;stroke:none;stroke-width:40;stroke-miterlimit:4;stroke-dasharray:none;stroke-opacity:1"
                 d="m -2685.1567,1715.9821 c 0,0 -3.9667,84.9683 0,126.9942 4.6353,49.11 22.9773,95.0247 27.6126,144.1347 2.8958,30.6797 2.8958,62.0293 0,92.709 -4.6353,49.11 -27.6126,144.1348 -27.6126,144.1348 l 51.1375,0 10.4644,0 40.6715,0 10.4644,0 40.6715,0 10.4645,0 40.6714,0 10.4645,0 51.1359,0 c 0,0 -22.9757,-95.0248 -27.6111,-144.1348 -2.8957,-30.6797 -2.8957,-62.0293 0,-92.709 4.6354,-49.11 22.9757,-95.0247 27.6111,-144.1347 3.9667,-42.0259 0,-126.9942 0,-126.9942 l -51.1359,0 -10.4645,0 -40.6714,0 -10.4645,0 -40.6715,0 -10.4644,0 -40.6715,0 -10.4644,0 -51.1375,0 z"
                 id="path4925"
                 inkscape:connector-curvature="0" />
              <path
                 inkscape:connector-curvature="0"
                 id="path4927"
                 d="m -2533.7756,1625.3325 a 37.64657,52.091142 0 0 0 -29.063,19.0239 30.117253,41.672909 0 0 0 -16.1127,-6.5215 30.117253,41.672909 0 0 0 -25.6397,19.9084 34.63484,47.923843 0 0 0 -22.548,-11.5737 34.63484,47.923843 0 0 0 -34.3083,41.7304 25.599666,35.421975 0 0 0 -23.9623,28.946 l 266.6214,0 a 30.117255,41.672913 0 0 0 0.964,-10.2512 30.117255,41.672913 0 0 0 -30.117,-41.6727 30.117255,41.672913 0 0 0 -17.8128,8.1303 30.117255,41.672913 0 0 0 -21.3399,-12.298 30.117255,41.672913 0 0 0 -10.4366,2.613 37.64657,52.091142 0 0 0 -36.2451,-38.0349 z"
                 style="opacity:1;fill:#000000;fill-opacity:1;stroke:none;stroke-width:40;stroke-miterlimit:4;stroke-dasharray:none;stroke-opacity:1" />
              <circle
                 style="opacity:1;fill:#000000;fill-opacity:1;stroke:none;stroke-width:40;stroke-miterlimit:4;stroke-dasharray:none;stroke-opacity:1"
                 id="circle4929"
                 cx="-2479.9246"
                 cy="1719.0627"
                 r="32.324883" />
              <rect
                 style="opacity:0.60700001;fill:#000000;fill-opacity:1;stroke:none;stroke-width:40;stroke-miterlimit:4;stroke-dasharray:none;stroke-opacity:1"
                 id="rect4931"
                 width="25.746782"
                 height="131.42851"
                 x="-2643.0205"
                 y="1769.8823"
                 ry="35.572086" />
            </g>
          </g>
          <g
             transform="matrix(1.1296161,0,0,1.1296161,-1474.8976,-1305.2673)"
             id="g4980">
            <g
               id="g4966"
               transform="translate(634.28571,37.142857)">
              <path
                 inkscape:connector-curvature="0"
                 id="rect4773"
                 d="m 688.599,1248.0487 c 0,0 -3.9667,84.9683 0,126.9942 4.6353,49.11 22.9773,95.0247 27.6126,144.1347 2.8958,30.6797 2.8958,62.0293 0,92.709 -4.6353,49.11 -27.6126,144.1348 -27.6126,144.1348 l 51.1375,0 10.4644,0 40.6715,0 10.4644,0 40.6715,0 10.4645,0 40.6714,0 10.4645,0 51.1359,0 c 0,0 -22.9757,-95.0248 -27.6111,-144.1348 -2.8957,-30.6797 -2.8957,-62.0293 0,-92.709 4.6354,-49.11 22.9757,-95.0247 27.6111,-144.1347 3.9667,-42.0259 0,-126.9942 0,-126.9942 l -51.1359,0 -10.4645,0 -40.6714,0 -10.4645,0 -40.6715,0 -10.4644,0 -40.6715,0 -10.4644,0 -51.1375,0 z"
                 style="opacity:1;fill:#fbb03b;fill-opacity:1;stroke:none;stroke-width:40;stroke-miterlimit:4;stroke-dasharray:none;stroke-opacity:1" />
              <path
                 style="opacity:1;fill:#ffffff;fill-opacity:1;stroke:none;stroke-width:40;stroke-miterlimit:4;stroke-dasharray:none;stroke-opacity:1"
                 d="m 839.9801,1157.3991 a 37.64657,52.091142 0 0 0 -29.063,19.0239 30.117253,41.672909 0 0 0 -16.1127,-6.5215 30.117253,41.672909 0 0 0 -25.6397,19.9084 34.63484,47.923843 0 0 0 -22.548,-11.5737 34.63484,47.923843 0 0 0 -34.3083,41.7304 25.599666,35.421975 0 0 0 -23.9623,28.946 l 266.6214,0 a 30.117255,41.672913 0 0 0 0.964,-10.2512 30.117255,41.672913 0 0 0 -30.117,-41.6727 30.117255,41.672913 0 0 0 -17.8128,8.1303 30.117255,41.672913 0 0 0 -21.3399,-12.298 30.117255,41.672913 0 0 0 -10.4366,2.613 37.64657,52.091142 0 0 0 -36.2451,-38.0349 z"
                 id="path4830"
                 inkscape:connector-curvature="0" />
              <circle
                 r="32.324883"
                 cy="1251.1294"
                 cx="893.83112"
                 id="path4888"
                 style="opacity:1;fill:#ffffff;fill-opacity:1;stroke:none;stroke-width:40;stroke-miterlimit:4;stroke-dasharray:none;stroke-opacity:1" />
              <rect
                 ry="35.572086"
                 y="1301.949"
                 x="730.73517"
                 height="131.42851"
                 width="25.746782"
                 id="rect4893"
                 style="opacity:0.60700001;fill:#ffffff;fill-opacity:1;stroke:none;stroke-width:40;stroke-miterlimit:4;stroke-dasharray:none;stroke-opacity:1" />
              <rect
                 style="opacity:0.60700001;fill:#ffffff;fill-opacity:1;stroke:none;stroke-width:40;stroke-miterlimit:4;stroke-dasharray:none;stroke-opacity:1"
                 id="rect4942"
                 width="25.746782"
                 height="45.714226"
                 x="730.73517"
                 y="1459.0918"
                 ry="12.37289" />
            </g>
          </g>
        </g>
      </g>
    </g>
    <g
       id="g4232"
       transform="translate(0,-517.19809)"
       inkscape:export-filename="C:\Users\brayan.bedritchuk\Desktop\g4227.png"
       inkscape:export-xdpi="19"
       inkscape:export-ydpi="19">
      <circle
         transform="matrix(0.88140418,0,0,0.88140418,-555.86818,-37.411237)"
         style="opacity:0.76300001;fill:#000000;fill-opacity:1;stroke:none;stroke-width:40;stroke-miterlimit:4;stroke-dasharray:none;stroke-opacity:1;filter:url(#filter4199)"
         id="circle4189"
         cx="794.27386"
         cy="-42.888153"
         r="274.76151" />
      <circle
         r="274.76151"
         cy="-123.70036"
         cx="144.20813"
         id="path4187"
         style="opacity:1;fill:#ff8080;fill-opacity:1;stroke:none;stroke-width:40;stroke-miterlimit:4;stroke-dasharray:none;stroke-opacity:1" />
      <rect
         y="-208.55318"
         x="124.62671"
         height="169.70564"
         width="39.162838"
         id="rect4203"
         style="opacity:1;fill:#ffffff;fill-opacity:1;stroke:none;stroke-width:40;stroke-miterlimit:4;stroke-dasharray:none;stroke-opacity:1" />
      <rect
         transform="matrix(0,1,-1,0,0,0)"
         style="opacity:1;fill:#ffffff;fill-opacity:1;stroke:none;stroke-width:40;stroke-miterlimit:4;stroke-dasharray:none;stroke-opacity:1"
         id="rect4205"
         width="39.162838"
         height="169.70564"
         x="-143.2818"
         y="-229.06094" />
    </g>
    <text
       xml:space="preserve"
       style="font-style:normal;font-weight:normal;font-size:216.32922363px;line-height:125%;font-family:sans-serif;letter-spacing:0px;word-spacing:0px;fill:#000000;fill-opacity:1;stroke:none;stroke-width:1px;stroke-linecap:butt;stroke-linejoin:miter;stroke-opacity:1"
       x="-2178.717"
       y="-1902.1954"
       id="text4218"
       sodipodi:linespacing="125%"
       inkscape:export-filename="C:\Users\brayan.bedritchuk\Desktop\g4227.png"
       inkscape:export-xdpi="19"
       inkscape:export-ydpi="19"><tspan
         sodipodi:role="line"
         id="tspan4220"
         x="-2178.717"
         y="-1902.1954"
         style="font-style:normal;font-variant:normal;font-weight:normal;font-stretch:normal;font-family:Roboto;-inkscape-font-specification:Roboto;fill:#ffffff">Click to add a new beer</tspan></text>
    <rect
       y="-5195.5186"
       x="-2495.2322"
       height="211.42857"
       width="1617.1428"
       id="rect4212"
       style="opacity:0.481;fill:#000000;fill-opacity:1;stroke:none;stroke-width:40;stroke-miterlimit:4;stroke-dasharray:none;stroke-opacity:1;filter:url(#filter4242)"
       transform="matrix(1.975748,0,0,1.9050869,2322.0122,4619.6907)"
       inkscape:export-filename="C:\Users\brayan.bedritchuk\Desktop\g4227.png"
       inkscape:export-xdpi="19"
       inkscape:export-ydpi="19" />
    <rect
       style="opacity:1;fill:#2a7fff;fill-opacity:1;stroke:none;stroke-width:40;stroke-miterlimit:4;stroke-dasharray:none;stroke-opacity:1"
       id="rect4136"
       width="3197.8882"
       height="402.75568"
       x="-2607.9199"
       y="-5310.8613"
       inkscape:export-filename="C:\Users\brayan.bedritchuk\Desktop\g4227.png"
       inkscape:export-xdpi="19"
       inkscape:export-ydpi="19" />
    <text
       xml:space="preserve"
       style="font-style:normal;font-weight:normal;font-size:157.63023376px;line-height:125%;font-family:sans-serif;letter-spacing:0px;word-spacing:0px;fill:#ffffff;fill-opacity:1;stroke:none;stroke-width:1px;stroke-linecap:butt;stroke-linejoin:miter;stroke-opacity:1"
       x="-2035.7501"
       y="-5025.4067"
       id="text4267"
       sodipodi:linespacing="125%"
       transform="scale(0.99813709,1.0018664)"
       inkscape:export-filename="C:\Users\brayan.bedritchuk\Desktop\g4227.png"
       inkscape:export-xdpi="19"
       inkscape:export-ydpi="19"><tspan
         sodipodi:role="line"
         id="tspan4269"
         x="-2035.7501"
         y="-5025.4067"
         style="font-style:normal;font-variant:normal;font-weight:normal;font-stretch:normal;font-family:Roboto;-inkscape-font-specification:Roboto">Beer</tspan></text>
    <g
       id="g4227"
       transform="translate(0,17.578362)"
       inkscape:export-filename="C:\Users\brayan.bedritchuk\Desktop\g4227.png"
       inkscape:export-xdpi="19"
       inkscape:export-ydpi="19">
      <rect
         y="-5186.0122"
         x="-2477.7827"
         height="23.956375"
         width="254.85211"
         id="rect4250"
         style="opacity:1;fill:#ffffff;fill-opacity:1;stroke:none;stroke-width:40;stroke-miterlimit:4;stroke-dasharray:none;stroke-opacity:1" />
      <rect
         style="opacity:1;fill:#ffffff;fill-opacity:1;stroke:none;stroke-width:40;stroke-miterlimit:4;stroke-dasharray:none;stroke-opacity:1"
         id="rect4223"
         width="254.85211"
         height="23.956375"
         x="-2477.7827"
         y="-5106.7153" />
      <rect
         y="-5027.4185"
         x="-2477.7827"
         height="23.956375"
         width="254.85211"
         id="rect4225"
         style="opacity:1;fill:#ffffff;fill-opacity:1;stroke:none;stroke-width:40;stroke-miterlimit:4;stroke-dasharray:none;stroke-opacity:1" />
    </g>
  </g>
</svg>
