<?xml version="1.0" encoding="UTF-8" standalone="no"?>
<!-- Created with Inkscape (http://www.inkscape.org/) -->

<svg
   xmlns:dc="http://purl.org/dc/elements/1.1/"
   xmlns:cc="http://creativecommons.org/ns#"
   xmlns:rdf="http://www.w3.org/1999/02/22-rdf-syntax-ns#"
   xmlns:svg="http://www.w3.org/2000/svg"
   xmlns="http://www.w3.org/2000/svg"
   xmlns:sodipodi="http://sodipodi.sourceforge.net/DTD/sodipodi-0.dtd"
   xmlns:inkscape="http://www.inkscape.org/namespaces/inkscape"
   width="210mm"
   height="297mm"
   viewBox="0 0 744.09448819 1052.3622047"
   id="svg4290"
   version="1.1"
   inkscape:version="0.48.5 r10040"
   sodipodi:docname="Tetris.svg">
  <defs
     id="defs4292" />
  <sodipodi:namedview
     id="base"
     pagecolor="#ffffff"
     bordercolor="#666666"
     borderopacity="1.0"
     inkscape:pageopacity="0.0"
     inkscape:pageshadow="2"
     inkscape:zoom="1"
     inkscape:cx="-11852.99"
     inkscape:cy="-4356.8003"
     inkscape:document-units="px"
     inkscape:current-layer="layer1"
     showgrid="false"
     showborder="false"
     inkscape:window-width="1920"
     inkscape:window-height="1017"
     inkscape:window-x="-8"
     inkscape:window-y="-8"
     inkscape:window-maximized="1" />
  <metadata
     id="metadata4295">
    <rdf:RDF>
      <cc:Work
         rdf:about="">
        <dc:format>image/svg+xml</dc:format>
        <dc:type
           rdf:resource="http://purl.org/dc/dcmitype/StillImage" />
        <dc:title></dc:title>
      </cc:Work>
    </rdf:RDF>
  </metadata>
  <g
     inkscape:label="Layer 1"
     inkscape:groupmode="layer"
     id="layer1">
    <rect
       style="fill:#f4eed7;fill-opacity:1;stroke:none"
       id="rect3783"
       width="556"
       height="556"
       x="-12111"
       y="5202.3623"
       inkscape:export-filename="C:\Users\Brayan\Google Drive\Design\Inkscape\Other\2016-07-20\2016-07-20 Tetris\Tetris.png"
       inkscape:export-xdpi="90"
       inkscape:export-ydpi="90" />
    <g
       transform="matrix(0.03314771,0,0,0.03314771,-11886.948,5698.2142)"
       id="g4838"
       inkscape:export-filename="C:\Users\Brayan\Google Drive\Design\Inkscape\Other\2016-07-20\2016-07-20 Tetris\Tetris.png"
       inkscape:export-xdpi="90"
       inkscape:export-ydpi="90">
      <path
         inkscape:connector-curvature="0"
         id="rect4197"
         transform="translate(-3035.3689,-956.4699)"
         d="m 1753.625,-1736.6992 0,646.4961 -646.498,0 0,646.49802 646.498,0 646.498,0 646.4961,0 0,-646.49802 -646.4961,0 0,-646.4961 -646.498,0 z"
         style="opacity:0.86299995;fill:#ff00ff;fill-opacity:1;stroke:none" />
      <path
         inkscape:connector-curvature="0"
         id="rect4205"
         d="m 11.2483,-2046.673 0,-646.4961 0,-646.498 0,-646.4981 -646.4961,0 -646.4981,0 0,646.4981 646.4981,0 0,646.498 0,646.4961 646.4961,0 z"
         style="opacity:0.86299995;fill:#000080;fill-opacity:1;stroke:none" />
      <path
         inkscape:connector-curvature="0"
         style="opacity:0.86299995;fill:#ff0000;fill-opacity:1;stroke:none"
         d="m -635.2478,-3339.6671 -646.4961,0 0,-646.498 -646.498,0 0,646.498 0,646.498 0,646.4961 646.498,0 0,-646.4961 646.4961,0 0,-646.498 z"
         id="path4208" />
      <path
         inkscape:connector-curvature="0"
         id="rect4216"
         transform="translate(-3035.3689,-956.4699)"
         d="m 1107.127,-4969.1875 0,646.498 0,646.4981 646.496,0 646.4981,0 0,-646.4981 0,-646.498 -646.4981,0 -646.496,0 z"
         style="opacity:0.86299995;fill:#00ff00;fill-opacity:1;stroke:none" />
      <path
         style="opacity:0.86299995;fill:#000080;fill-opacity:1;stroke:none"
         d="m -1928.2419,-3986.1652 646.4961,0 646.498,0 646.4981,0 0,-646.4961 0,-646.4981 -646.4981,0 0,646.4981 -646.498,0 -646.4961,0 0,646.4961 z"
         id="path4219"
         inkscape:connector-curvature="0" />
      <path
         inkscape:connector-curvature="0"
         id="path4230"
         d="m -1928.2419,-6572.1535 646.4961,0 646.498,0 646.4981,0 0,646.4961 0,646.4981 -646.4981,0 0,-646.4981 -646.498,0 -646.4961,0 0,-646.4961 z"
         style="opacity:0.86299995;fill:#d35f5f;fill-opacity:1;stroke:none" />
      <g
         transform="matrix(0,1,-1,0,-1388.9247,-12695.892)"
         id="g4238">
        <path
           id="path4232"
           d="m 1598.2561,-2693.1691 0,646.4961 -646.498,0 0,646.498 646.498,0 646.498,0 646.4961,0 0,-646.498 -646.4961,0 0,-646.4961 -646.498,0 z"
           style="opacity:0.86299995;fill:#ff00ff;fill-opacity:1;stroke:none"
           inkscape:connector-curvature="0" />
        <path
           inkscape:connector-curvature="0"
           id="path4234"
           d="m 2891.2483,-2046.673 0,-646.4961 0,-646.498 0,-646.4981 -646.4961,0 -646.4981,0 0,646.4981 646.4981,0 0,646.498 0,646.4961 646.4961,0 z"
           style="opacity:0.86299995;fill:#000080;fill-opacity:1;stroke:none" />
        <path
           inkscape:connector-curvature="0"
           style="opacity:0.86299995;fill:#ff0000;fill-opacity:1;stroke:none"
           d="m 2244.7522,-3339.6671 -646.4961,0 0,-646.498 -646.498,0 0,646.498 0,646.498 0,646.4961 646.498,0 0,-646.4961 646.4961,0 0,-646.498 z"
           id="path4236" />
      </g>
      <g
         transform="matrix(0,-1,1,0,3794.8304,-836.9883)"
         id="g4249">
        <path
           id="path4243"
           d="m 563.18667,-3137.086 0,646.498 0,646.4981 646.49603,0 646.4981,0 0,-646.4981 0,-646.498 -646.4981,0 -646.49603,0 z"
           style="opacity:0.86299995;fill:#00ff00;fill-opacity:1;stroke:none"
           inkscape:connector-curvature="0" />
        <path
           style="opacity:0.86299995;fill:#000080;fill-opacity:1;stroke:none"
           d="m 563.18667,-1197.5938 646.49613,0 646.498,0 646.4981,0 0,-646.4961 0,-646.4981 -646.4981,0 0,646.4981 -646.498,0 -646.49613,0 0,646.4961 z"
           id="path4245"
           inkscape:connector-curvature="0" />
        <path
           inkscape:connector-curvature="0"
           id="path4247"
           d="m 563.18667,-3783.5821 646.49613,0 646.498,0 646.4981,0 0,646.4961 0,646.4981 -646.4981,0 0,-646.4981 -646.498,0 -646.49613,0 0,-646.4961 z"
           style="opacity:0.86299995;fill:#d35f5f;fill-opacity:1;stroke:none" />
      </g>
      <path
         inkscape:connector-curvature="0"
         style="opacity:0.86299995;fill:#ff00ff;fill-opacity:1;stroke:none"
         d="m -1281.7439,-7865.1476 0,646.4961 -646.498,0 0,646.498 646.498,0 646.498,0 646.4961,0 0,-646.498 -646.4961,0 0,-646.4961 -646.498,0 z"
         id="path4254" />
      <path
         style="opacity:0.86299995;fill:#000080;fill-opacity:1;stroke:none"
         d="m 11.2483,-7218.6515 0,-646.4961 0,-646.498 0,-646.4981 -646.4961,0 -646.4981,0 0,646.4981 646.4981,0 0,646.498 0,646.4961 646.4961,0 z"
         id="path4256"
         inkscape:connector-curvature="0" />
      <path
         id="path4258"
         d="m -635.2478,-8511.6456 -646.4961,0 0,-646.498 -646.498,0 0,646.498 0,646.498 0,646.4961 646.498,0 0,-646.4961 646.4961,0 0,-646.498 z"
         style="opacity:0.86299995;fill:#ff0000;fill-opacity:1;stroke:none"
         inkscape:connector-curvature="0" />
      <path
         inkscape:connector-curvature="0"
         style="opacity:0.86299995;fill:#00ff00;fill-opacity:1;stroke:none"
         d="m -1928.2419,-11097.636 0,646.498 0,646.4982 646.496,0 646.4981,0 0,-646.4982 0,-646.498 -646.4981,0 -646.496,0 z"
         id="path4260" />
      <path
         inkscape:connector-curvature="0"
         id="path4262"
         d="m -1928.2419,-9158.1437 646.4961,0 646.498,0 646.4981,0 0,-646.4961 0,-646.4982 -646.4981,0 0,646.4982 -646.498,0 -646.4961,0 0,646.4961 z"
         style="opacity:0.86299995;fill:#000080;fill-opacity:1;stroke:none" />
      <path
         style="opacity:0.86299995;fill:#d35f5f;fill-opacity:1;stroke:none"
         d="m -1928.2419,-11744.132 646.4961,0 646.498,0 646.4981,0 0,646.496 0,646.498 -646.4981,0 0,-646.498 -646.498,0 -646.4961,0 0,-646.496 z"
         id="path4264"
         inkscape:connector-curvature="0" />
      <g
         id="g4266"
         transform="matrix(0,-1,1,0,6380.8225,-9241.4571)">
        <path
           inkscape:connector-curvature="0"
           style="opacity:0.86299995;fill:#00ff00;fill-opacity:1;stroke:none"
           d="m 563.18667,-3137.086 0,646.498 0,646.4981 646.49603,0 646.4981,0 0,-646.4981 0,-646.498 -646.4981,0 -646.49603,0 z"
           id="path4268" />
        <path
           inkscape:connector-curvature="0"
           id="path4270"
           d="m 563.18667,-1197.5938 646.49613,0 646.498,0 646.4981,0 0,-646.4961 0,-646.4981 -646.4981,0 0,646.4981 -646.498,0 -646.49613,0 0,646.4961 z"
           style="opacity:0.86299995;fill:#000080;fill-opacity:1;stroke:none" />
        <path
           style="opacity:0.86299995;fill:#d35f5f;fill-opacity:1;stroke:none"
           d="m 563.18667,-3783.5821 646.49613,0 646.498,0 646.4981,0 0,646.4961 0,646.4981 -646.4981,0 0,-646.4981 -646.498,0 -646.49613,0 0,-646.4961 z"
           id="path4272"
           inkscape:connector-curvature="0" />
      </g>
      <g
         id="g4274"
         transform="matrix(0,1,-1,0,1197.0616,-4291.4252)">
        <path
           inkscape:connector-curvature="0"
           style="opacity:0.86299995;fill:#ff00ff;fill-opacity:1;stroke:none"
           d="m 1598.2561,-2693.1691 0,646.4961 -646.498,0 0,646.498 646.498,0 646.498,0 646.4961,0 0,-646.498 -646.4961,0 0,-646.4961 -646.498,0 z"
           id="path4276" />
        <path
           style="opacity:0.86299995;fill:#000080;fill-opacity:1;stroke:none"
           d="m 2891.2483,-2046.673 0,-646.4961 0,-646.498 0,-646.4981 -646.4961,0 -646.4981,0 0,646.4981 646.4981,0 0,646.498 0,646.4961 646.4961,0 z"
           id="path4278"
           inkscape:connector-curvature="0" />
        <path
           id="path4280"
           d="m 2244.7522,-3339.6671 -646.4961,0 0,-646.498 -646.498,0 0,646.498 0,646.498 0,646.4961 646.498,0 0,-646.4961 646.4961,0 0,-646.498 z"
           style="opacity:0.86299995;fill:#ff0000;fill-opacity:1;stroke:none"
           inkscape:connector-curvature="0" />
      </g>
      <g
         transform="matrix(0,1,-1,0,-1388.9247,-8170.4096)"
         id="g4282">
        <path
           id="path4284"
           d="m 1598.2561,-2693.1691 0,646.4961 -646.498,0 0,646.498 646.498,0 646.498,0 646.4961,0 0,-646.498 -646.4961,0 0,-646.4961 -646.498,0 z"
           style="opacity:0.86299995;fill:#ff00ff;fill-opacity:1;stroke:none"
           inkscape:connector-curvature="0" />
        <path
           inkscape:connector-curvature="0"
           id="path4286"
           d="m 2891.2483,-2046.673 0,-646.4961 0,-646.498 0,-646.4981 -646.4961,0 -646.4981,0 0,646.4981 646.4981,0 0,646.498 0,646.4961 646.4961,0 z"
           style="opacity:0.86299995;fill:#000080;fill-opacity:1;stroke:none" />
        <path
           inkscape:connector-curvature="0"
           style="opacity:0.86299995;fill:#ff0000;fill-opacity:1;stroke:none"
           d="m 2244.7522,-3339.6671 -646.4961,0 0,-646.498 -646.498,0 0,646.498 0,646.498 0,646.4961 646.498,0 0,-646.4961 646.4961,0 0,-646.498 z"
           id="path4288" />
      </g>
    </g>
  </g>
</svg>
