<?xml version="1.0" encoding="UTF-8" standalone="no"?>
<!-- Created with Inkscape (http://www.inkscape.org/) -->

<svg
   xmlns:dc="http://purl.org/dc/elements/1.1/"
   xmlns:cc="http://creativecommons.org/ns#"
   xmlns:rdf="http://www.w3.org/1999/02/22-rdf-syntax-ns#"
   xmlns:svg="http://www.w3.org/2000/svg"
   xmlns="http://www.w3.org/2000/svg"
   version="1.1"
   width="744.09448"
   height="1052.3622"
   id="svg2">
  <defs
     id="defs4">
    <filter
       x="-0.12"
       y="-0.12"
       width="1.24"
       height="1.24"
       color-interpolation-filters="sRGB"
       id="filter3886">
      <feGaussianBlur
         id="feGaussianBlur3888"
         stdDeviation="5.2325901" />
    </filter>
  </defs>
  <metadata
     id="metadata7">
    <rdf:RDF>
      <cc:Work
         rdf:about="">
        <dc:format>image/svg+xml</dc:format>
        <dc:type
           rdf:resource="http://purl.org/dc/dcmitype/StillImage" />
        <dc:title></dc:title>
      </cc:Work>
    </rdf:RDF>
  </metadata>
  <g
     id="layer1">
    <rect
       width="1280"
       height="720"
       x="-1004"
       y="-947.36218"
       transform="scale(1,-1)"
       id="rect3924"
       style="fill:#5f8dd3;fill-opacity:1;stroke:none" />
    <g
       transform="translate(-68.468475,0.37004852)"
       id="g3926">
      <rect
         width="396.83624"
         height="63.604416"
         x="-493.94965"
         y="291.78467"
         id="rect3841"
         style="fill:#5fd3bc;fill-opacity:1;stroke:none" />
      <rect
         width="396.83624"
         height="31.802208"
         x="-493.94965"
         y="-291.78467"
         transform="scale(1,-1)"
         id="rect3843"
         style="fill:#268875;fill-opacity:1;stroke:none" />
      <rect
         width="396.83624"
         height="529.57593"
         x="-493.94965"
         y="-884.96497"
         transform="scale(1,-1)"
         id="rect3845"
         style="fill:#ececec;fill-opacity:1;stroke:none" />
      <rect
         width="396.83624"
         height="33.184914"
         x="-493.94965"
         y="880.81689"
         id="rect3847"
         style="fill:#333333;fill-opacity:1;stroke:none" />
      <g
         transform="matrix(0.95555895,0,0,0.95555895,-279.94722,-82.695513)"
         id="g3855">
        <rect
           width="30.752253"
           height="3.0539322"
           x="-204.37613"
           y="413.39771"
           id="rect3849"
           style="fill:#ffffff;fill-opacity:1;stroke:none" />
        <rect
           width="30.752253"
           height="3.0539322"
           x="-204.37613"
           y="423.65076"
           id="rect3851"
           style="fill:#ffffff;fill-opacity:1;stroke:none" />
        <rect
           width="30.752253"
           height="3.0539322"
           x="-204.37613"
           y="433.90384"
           id="rect3853"
           style="fill:#ffffff;fill-opacity:1;stroke:none" />
      </g>
      <path
         d="m -42.426407,572.94379 a 55.154327,55.154327 0 1 1 -110.308653,0 55.154327,55.154327 0 1 1 110.308653,0 z"
         transform="matrix(1.3827047,0,0,1.3827047,-160.60619,-261.79802)"
         id="path3860"
         style="fill:#ffffff;fill-opacity:1;stroke:none" />
      <g
         transform="matrix(1.9221921,0,0,1.9221921,67.762791,-286.85924)"
         id="g3862"
         style="fill:#5fd3bc;fill-opacity:1">
        <rect
           width="30.752253"
           height="3.0539322"
           x="-204.37613"
           y="413.39771"
           id="rect3864"
           style="fill:#5fd3bc;fill-opacity:1;stroke:none" />
        <rect
           width="30.752253"
           height="3.0539322"
           x="-204.37613"
           y="423.65076"
           id="rect3866"
           style="fill:#5fd3bc;fill-opacity:1;stroke:none" />
        <rect
           width="30.752253"
           height="3.0539322"
           x="-204.37613"
           y="433.90384"
           id="rect3868"
           style="fill:#5fd3bc;fill-opacity:1;stroke:none" />
      </g>
      <text
         x="-408.73224"
         y="334.14764"
         id="text3870"
         xml:space="preserve"
         style="font-size:25.81236267px;font-style:normal;font-variant:normal;font-weight:normal;font-stretch:normal;line-height:125%;letter-spacing:0px;word-spacing:0px;fill:#ffffff;fill-opacity:1;stroke:none;font-family:Ubuntu;-inkscape-font-specification:Ubuntu"><tspan
           x="-408.73224"
           y="334.14764"
           id="tspan3872">Android App</tspan></text>
      <text
         x="-365.18268"
         y="656.12427"
         id="text3874"
         xml:space="preserve"
         style="font-size:25.81236267px;font-style:normal;font-variant:normal;font-weight:normal;font-stretch:normal;line-height:125%;letter-spacing:0px;word-spacing:0px;fill:#268875;fill-opacity:1;stroke:none;font-family:Ubuntu;-inkscape-font-specification:Ubuntu"><tspan
           x="-365.18268"
           y="656.12427"
           id="tspan3876">EMPTY LIST</tspan></text>
      <text
         x="-402.24503"
         y="696.85638"
         id="text3878"
         xml:space="preserve"
         style="font-size:15.68446159px;font-style:normal;font-variant:normal;font-weight:normal;font-stretch:normal;line-height:125%;letter-spacing:0px;word-spacing:0px;fill:#5fd3bc;fill-opacity:1;stroke:none;font-family:Ubuntu;-inkscape-font-specification:Ubuntu"><tspan
           x="-402.24503"
           y="696.85638"
           id="tspan3880">CLICK THE + BUTTON TO ADD</tspan></text>
      <g
         transform="matrix(0.61772285,0,0,0.61772285,95.721481,447.81501)"
         id="g3898">
        <path
           d="m -338.70416,621.02704 a 52.325901,52.325901 0 1 1 -104.6518,0 52.325901,52.325901 0 1 1 104.6518,0 z"
           transform="matrix(0.94551003,0,0,0.94551003,-21.307218,43.032136)"
           id="path3884"
           style="opacity:0.52884617;fill:#000000;fill-opacity:1;stroke:none;filter:url(#filter3886)" />
        <path
           d="m -338.70416,621.02704 a 52.325901,52.325901 0 1 1 -104.6518,0 52.325901,52.325901 0 1 1 104.6518,0 z"
           id="path3882"
           style="fill:#ffd42a;fill-opacity:1;stroke:none" />
        <g
           transform="translate(3.8449402,3.789856)"
           id="g3894">
          <rect
             width="5.75"
             height="33.75"
             x="-397.75"
             y="600.36218"
             id="rect3890"
             style="fill:#ffffff;fill-opacity:1;stroke:none" />
          <rect
             width="5.75"
             height="33.75"
             x="-620.11218"
             y="-411.75"
             transform="matrix(0,-1,1,0,0,0)"
             id="rect3892"
             style="fill:#ffffff;fill-opacity:1;stroke:none" />
        </g>
      </g>
      <g
         transform="matrix(1.091609,0,0,1.091609,-178.25921,-140.71292)"
         id="g3911">
        <path
           d="m 57.098873,412.60733 a 3.3587573,3.3587573 0 1 1 -6.717514,0 3.3587573,3.3587573 0 1 1 6.717514,0 z"
           transform="translate(0,6.4373016e-6)"
           id="path3905"
           style="fill:#ffffff;fill-opacity:1;stroke:none" />
        <path
           d="m 57.098873,412.60733 a 3.3587573,3.3587573 0 1 1 -6.717514,0 3.3587573,3.3587573 0 1 1 6.717514,0 z"
           transform="translate(0,12.727912)"
           id="path3907"
           style="fill:#ffffff;fill-opacity:1;stroke:none" />
        <path
           d="m 57.098873,412.60733 a 3.3587573,3.3587573 0 1 1 -6.717514,0 3.3587573,3.3587573 0 1 1 6.717514,0 z"
           transform="translate(0,25.455848)"
           id="path3909"
           style="fill:#ffffff;fill-opacity:1;stroke:none" />
      </g>
    </g>
  </g>
</svg>
