<?xml version="1.0" encoding="UTF-8" standalone="no"?>
<!-- Created with Inkscape (http://www.inkscape.org/) -->

<svg
   xmlns:dc="http://purl.org/dc/elements/1.1/"
   xmlns:cc="http://creativecommons.org/ns#"
   xmlns:rdf="http://www.w3.org/1999/02/22-rdf-syntax-ns#"
   xmlns:svg="http://www.w3.org/2000/svg"
   xmlns="http://www.w3.org/2000/svg"
   xmlns:sodipodi="http://sodipodi.sourceforge.net/DTD/sodipodi-0.dtd"
   xmlns:inkscape="http://www.inkscape.org/namespaces/inkscape"
   width="441.20126"
   height="186"
   id="svg2"
   version="1.1"
   inkscape:version="0.48.5 r10040"
   sodipodi:docname="New document 1">
  <defs
     id="defs4" />
  <sodipodi:namedview
     id="base"
     pagecolor="#ffffff"
     bordercolor="#666666"
     borderopacity="1.0"
     inkscape:pageopacity="0.0"
     inkscape:pageshadow="2"
     inkscape:zoom="1"
     inkscape:cx="60.251618"
     inkscape:cy="16.258652"
     inkscape:document-units="px"
     inkscape:current-layer="layer1"
     showgrid="false"
     showborder="true"
     fit-margin-top="0"
     fit-margin-left="0"
     fit-margin-right="0"
     fit-margin-bottom="0"
     inkscape:window-width="1920"
     inkscape:window-height="1017"
     inkscape:window-x="-8"
     inkscape:window-y="-8"
     inkscape:window-maximized="1" />
  <metadata
     id="metadata7">
    <rdf:RDF>
      <cc:Work
         rdf:about="">
        <dc:format>image/svg+xml</dc:format>
        <dc:type
           rdf:resource="http://purl.org/dc/dcmitype/StillImage" />
        <dc:title></dc:title>
      </cc:Work>
    </rdf:RDF>
  </metadata>
  <g
     inkscape:label="Layer 1"
     inkscape:groupmode="layer"
     id="layer1"
     transform="translate(313.24695,-430.98312)">
    <path
       style="fill:#37483e;fill-opacity:1;stroke:none"
       d="m -127,472.29777 c 0,0 22.50317,-1.80807 33.779029,-1.81196 C -81.798002,470.48186 -59,472.29777 -59,472.29777 l 0,15.82178 0,15.82178 c 0,0 -23.717279,-8.03432 -36,-7.875 -10.98399,0.14248 -32,7.875 -32,7.875 l 0,-15.82178 z"
       id="rect2989"
       inkscape:connector-curvature="0"
       sodipodi:nodetypes="cscccsccc" />
    <g
       id="g3771"
       transform="translate(-6,0)">
      <path
         transform="translate(218.75305,14.620937)"
         sodipodi:type="arc"
         style="fill:#87cdde;fill-opacity:1;stroke:#37483e;stroke-width:24;stroke-miterlimit:4;stroke-opacity:1;stroke-dasharray:none"
         id="path2987"
         sodipodi:cx="-199"
         sodipodi:cy="509.36218"
         sodipodi:rx="81"
         sodipodi:ry="81"
         d="m -118,509.36218 c 0,44.73507 -36.26494,81 -81,81 -44.73506,0 -81,-36.26493 -81,-81 0,-44.73506 36.26494,-81 81,-81 44.73506,0 81,36.26494 81,81 z" />
      <path
         sodipodi:nodetypes="sssssssss"
         inkscape:connector-curvature="0"
         id="rect2994"
         d="m 110.24182,508.06443 18.94961,5.09398 c 2.54817,0.68499 4.76288,2.12424 4.76288,4.76287 l 0,12.12368 c 0,2.63863 -2.21471,4.07788 -4.76288,4.76287 l -18.94961,5.09398 c -3.74731,1.00735 -7.00423,-3.12388 -7.00423,-7.00422 l 0,-17.82894 c 0,-3.88034 3.25692,-8.01157 7.00423,-7.00422 z"
         style="fill:#37483e;fill-opacity:1;stroke:none" />
    </g>
    <path
       transform="matrix(-1,0,0,1,-398.04569,14.620937)"
       sodipodi:type="arc"
       style="fill:#87cdde;fill-opacity:1;stroke:#37483e;stroke-width:24;stroke-miterlimit:4;stroke-opacity:1;stroke-dasharray:none"
       id="path3777"
       sodipodi:cx="-199"
       sodipodi:cy="509.36218"
       sodipodi:rx="81"
       sodipodi:ry="81"
       d="m -118,509.36218 c 0,44.73507 -36.26494,81 -81,81 -44.73506,0 -81,-36.26493 -81,-81 0,-44.73506 36.26494,-81 81,-81 44.73506,0 81,36.26494 81,81 z" />
    <path
       sodipodi:nodetypes="sssssssss"
       inkscape:connector-curvature="0"
       id="path3779"
       d="m -289.53446,508.06443 -18.94961,5.09398 c -2.54817,0.68499 -4.76288,2.12424 -4.76288,4.76287 l 0,12.12368 c 0,2.63863 2.21471,4.07788 4.76288,4.76287 l 18.94961,5.09398 c 3.74731,1.00735 7.00423,-3.12388 7.00423,-7.00422 l 0,-17.82894 c 0,-3.88034 -3.25692,-8.01157 -7.00423,-7.00422 z"
       style="fill:#37483e;fill-opacity:1;stroke:none" />
    <path
       style="fill:#37483e;fill-opacity:1;stroke:none"
       d="m -289.53446,508.06443 -18.94961,5.09398 c -2.54817,0.68499 -4.76288,2.12424 -4.76288,4.76287 l 0,12.12368 c 0,2.63863 2.21471,4.07788 4.76288,4.76287 l 18.94961,5.09398 c 3.74731,1.00735 7.00423,-3.12388 7.00423,-7.00422 l 0,-17.82894 c 0,-3.88034 -3.25692,-8.01157 -7.00423,-7.00422 z"
       id="path3787"
       inkscape:connector-curvature="0"
       sodipodi:nodetypes="sssssssss" />
  </g>
</svg>
