<?xml version="1.0" encoding="UTF-8" standalone="no"?>
<!-- Created with Inkscape (http://www.inkscape.org/) -->

<svg
   xmlns:dc="http://purl.org/dc/elements/1.1/"
   xmlns:cc="http://creativecommons.org/ns#"
   xmlns:rdf="http://www.w3.org/1999/02/22-rdf-syntax-ns#"
   xmlns:svg="http://www.w3.org/2000/svg"
   xmlns="http://www.w3.org/2000/svg"
   xmlns:sodipodi="http://sodipodi.sourceforge.net/DTD/sodipodi-0.dtd"
   xmlns:inkscape="http://www.inkscape.org/namespaces/inkscape"
   width="5366.644"
   height="6043.6763"
   id="svg2"
   version="1.1"
   inkscape:version="0.48.5 r10040"
   inkscape:export-filename="C:\Users\brayan.bedritchuk\Desktop\coffee.png"
   inkscape:export-xdpi="7.6244984"
   inkscape:export-ydpi="7.6244984"
   sodipodi:docname="New document 1">
  <defs
     id="defs4">
    <inkscape:path-effect
       fuse_tolerance="0"
       vertical_pattern="false"
       prop_units="false"
       tang_offset="0"
       normal_offset="0"
       spacing="0"
       scale_y_rel="false"
       prop_scale="1"
       copytype="single_stretched"
       pattern="m -256.00005,-141.83051 c 0,0 226.238798,-186.1695 428,-186.16949 201.7611,10e-6 428,186.16949 428,186.16949 0,0 -226.2389,186.16949 -428,186.16949 -201.761202,1e-5 -428,-186.16949 -428,-186.16949 z"
       is_visible="true"
       id="path-effect3877"
       effect="skeletal" />
    <inkscape:path-effect
       is_visible="true"
       id="path-effect3875"
       effect="spiro" />
    <inkscape:path-effect
       fuse_tolerance="0"
       vertical_pattern="false"
       prop_units="false"
       tang_offset="0"
       normal_offset="0"
       spacing="0"
       scale_y_rel="false"
       prop_scale="1"
       copytype="single_stretched"
       pattern="m 1791.9999,-141.83051 c 0,0 226.2388,-186.1695 428,-186.16949 201.7611,10e-6 428,186.16949 428,186.16949 0,0 -226.2389,186.16949 -428,186.16949 -201.7612,1e-5 -428,-186.16949 -428,-186.16949 z"
       is_visible="true"
       id="path-effect3071"
       effect="skeletal" />
    <inkscape:path-effect
       is_visible="true"
       id="path-effect3069"
       effect="spiro" />
    <inkscape:path-effect
       effect="skeletal"
       id="path-effect3059"
       is_visible="true"
       pattern="m 755.63426,-141.83051 c 0,0 226.2388,-186.1695 428.00004,-186.16949 201.7611,10e-6 428,186.16949 428,186.16949 0,0 -226.2389,186.16949 -428,186.16949 -201.76124,1e-5 -428.00004,-186.16949 -428.00004,-186.16949 z"
       copytype="single_stretched"
       prop_scale="1"
       scale_y_rel="false"
       spacing="0"
       normal_offset="0"
       tang_offset="0"
       prop_units="false"
       vertical_pattern="false"
       fuse_tolerance="0" />
    <inkscape:path-effect
       effect="spiro"
       id="path-effect3057"
       is_visible="true" />
    <inkscape:path-effect
       effect="skeletal"
       id="path-effect3036"
       is_visible="true"
       pattern="M 0,186.16949 C 0,186.16949 226.2388,-9.9999995e-6 428,0 c 201.7611,1e-5 428,186.16949 428,186.16949 0,0 -226.2389,186.16949 -428,186.16949 C 226.2388,372.33899 0,186.16949 0,186.16949 z"
       copytype="single_stretched"
       prop_scale="1"
       scale_y_rel="false"
       spacing="0"
       normal_offset="0"
       tang_offset="0"
       prop_units="false"
       vertical_pattern="false"
       fuse_tolerance="0" />
    <inkscape:path-effect
       effect="spiro"
       id="path-effect3034"
       is_visible="true" />
  </defs>
  <sodipodi:namedview
     id="base"
     pagecolor="#ffffff"
     bordercolor="#666666"
     borderopacity="1.0"
     inkscape:pageopacity="1"
     inkscape:pageshadow="2"
     inkscape:zoom="0.03125"
     inkscape:cx="-1758.0077"
     inkscape:cy="48.716323"
     inkscape:document-units="px"
     inkscape:current-layer="layer1"
     showgrid="false"
     showborder="true"
     fit-margin-top="128"
     fit-margin-left="128"
     fit-margin-right="128"
     fit-margin-bottom="128"
     inkscape:window-width="1680"
     inkscape:window-height="987"
     inkscape:window-x="-8"
     inkscape:window-y="-8"
     inkscape:window-maximized="1" />
  <metadata
     id="metadata7">
    <rdf:RDF>
      <cc:Work
         rdf:about="">
        <dc:format>image/svg+xml</dc:format>
        <dc:type
           rdf:resource="http://purl.org/dc/dcmitype/StillImage" />
        <dc:title></dc:title>
      </cc:Work>
    </rdf:RDF>
  </metadata>
  <g
     inkscape:label="Layer 1"
     inkscape:groupmode="layer"
     id="layer1"
     transform="translate(17015.816,2576.0676)">
    <path
       style="fill:#6c535d;fill-opacity:1"
       d="m -16553.482,105.26535 3351.853,0 c 182.518,0 366.872,150.81341 329.455,329.45571 l -558.642,2667.20844 c -26.993,128.8772 -106.004,237.6793 -237.678,237.6793 l -2418.123,0 c -131.674,0 -210.685,-108.8021 -237.679,-237.6793 l -558.642,-2667.20844 c -37.416,-178.6423 146.937,-329.45571 329.456,-329.45571 z"
       id="rect2985"
       inkscape:connector-curvature="0"
       sodipodi:nodetypes="sssssssss" />
    <path
       style="fill:#6c535d;fill-opacity:1"
       d="m -12830.771,667.06746 c -581.799,0 -1053.381,471.80064 -1053.381,1053.59914 0,581.7986 471.582,1053.3815 1053.381,1053.3815 581.798,0 1053.599,-471.5829 1053.599,-1053.3815 0,-581.7985 -471.801,-1053.59914 -1053.599,-1053.59914 z m 0,275.6369 c 429.552,0 777.744,348.40944 777.744,777.96224 0,429.5514 -348.192,777.7445 -777.744,777.7445 -429.552,0 -777.744,-348.1931 -777.744,-777.7445 0,-429.5528 348.192,-777.96224 777.744,-777.96224 z"
       id="path2988"
       inkscape:connector-curvature="0" />
    <path
       sodipodi:nodetypes="sssssssss"
       inkscape:connector-curvature="0"
       id="path2993"
       d="m -16070.634,571.18586 2386.157,0 c 129.933,0 261.173,107.3624 234.536,234.5366 l -397.693,1898.76454 c -19.216,91.7463 -75.463,169.2012 -169.201,169.2012 l -1721.441,0 c -93.738,0 -149.986,-77.4549 -169.202,-169.2012 l -397.693,-1898.76454 c -26.636,-127.1742 104.604,-234.5366 234.537,-234.5366 z"
       style="fill:#ffffff;fill-opacity:1" />
    <g
       id="g3884"
       transform="translate(-15424.147,-1131.3708)"
       style="fill:#6c535d">
      <path
         sodipodi:nodetypes="cssc"
         inkscape:connector-curvature="0"
         inkscape:original-d="m 758.32012,968.72094 c 0,0 -960.06805,-277.09963 -542.98928,-597.45166 417.07874,-320.3522 528.33549,-950.23459 149.17973,-882.92988 -379.155779,67.30469 -1079.59691,-616.5447 -669.64813,-803.5422"
         inkscape:path-effect="#path-effect3057;#path-effect3059"
         id="path3055"
         d="m 758.32012,968.72094 c 0,0 -1.31707,0.0698 -3.8953,0.17204 -2.57823,0.10219 -6.41801,0.23626 -11.47168,0.32298 -10.10736,0.17345 -25.07743,0.18457 -44.52411,-0.99557 -19.44668,-1.18015 -43.38645,-3.56499 -71.21732,-8.53652 -27.83087,-4.97153 -59.56592,-12.54322 -94.16172,-24.24886 -31.9227,-10.78679 -66.29326,-25.10222 -101.8544,-44.11179 C 395.63445,872.31364 358.88326,848.60075 322.65805,819.1974 292.80397,794.91026 263.48725,766.90688 235.79776,735.13578 208.10828,703.36469 182.05011,667.82485 158.78896,628.74214 137.71493,593.41232 118.92164,555.17868 103.27431,514.4098 87.62699,473.64093 75.129057,430.33755 66.601142,385.05277 58.561231,340.83435 54.048722,296.07037 52.708011,251.59458 51.3673,207.11879 53.196183,162.93551 57.652183,119.86213 61.885587,77.516951 68.034798,36.112689 75.428627,-4.0495677 82.822455,-44.211824 91.457262,-83.130532 100.63675,-120.6204 c 10e-6,-4e-5 2e-5,-7e-5 3e-5,-1.1e-4 10.93977,-45.42936 22.46855,-88.80674 33.41069,-130.18091 7.12575,-26.94372 14.08314,-53.32536 20.48509,-79.2064 7.87765,-32.44566 15.30517,-64.05125 21.4599,-94.79336 6.15474,-30.74211 11.0329,-60.62234 13.84374,-89.72268 4.0238,-37.27739 5.04701,-75.37084 3.17338,-113.53479 -1.87363,-38.16396 -6.64596,-76.39186 -14.14212,-113.90471 -8.15038,-40.39006 -19.47267,-79.99205 -33.60504,-117.90681 -14.13237,-37.91476 -31.07687,-74.1356 -50.304504,-107.95678 -22.749104,-40.20685 -48.987803,-77.33945 -76.823388,-110.74995 -27.835586,-33.4105 -57.262263,-63.0952 -86.438933,-88.8736 -30.926465,-27.288 -61.586865,-50.2234 -89.931755,-69.1254 -28.34489,-18.9019 -54.36899,-33.7921 -76.27184,-45.3188 -21.90286,-11.5268 -39.67738,-19.7213 -51.86214,-25.1584 -6.09238,-2.7186 -10.7932,-4.7437 -13.96209,-6.1012 -3.16889,-1.3576 -4.80533,-2.0485 -4.80533,-2.0485 0,0 1.76878,-0.1352 5.22007,-0.3463 3.45129,-0.211 8.58575,-0.497 15.33011,-0.7369 6.74437,-0.24 15.09943,-0.4331 24.9938,-0.4088 9.89438,0.024 21.32891,0.2669 34.22168,0.9364 25.78554,1.3392 57.4406,4.3726 93.99463,11.0577 18.27701,3.3426 37.770591,7.6026 58.298704,13.0378 20.528113,5.4352 42.09108,12.0462 64.4572712,20.085 21.1167218,7.576 42.9554938,16.4248 65.2799508,26.7444 22.324458,10.3197 45.134524,22.1107 68.151804,35.5499 46.03456,26.8785 92.93219,60.3877 138.00775,101.5669 37.91257,34.744 74.23128,74.6398 107.31649,119.36974 33.08521,44.72992 62.92706,94.29265 87.9325,147.87635 23.27788,49.71021 42.40017,102.89802 56.25182,158.56072 13.85166,55.66269 22.42549,113.79598 24.86593,173.11255 1.58789,45.50569 -0.004,90.25241 -4.11304,133.68492 -4.10942,43.4325 -10.73343,85.54821 -19.13465,125.91018 -6.56657,32.12094 -13.97208,63.22355 -21.8695,93.2834 -12.1271,46.15922 -25.61474,90.580983 -39.06817,133.328755 -1e-5,3.2e-5 -2e-5,6.4e-5 -3e-5,9.6e-5 -10.8911,35.061809 -21.82654,69.06288 -32.04868,102.134647 -10.22214,33.071762 -19.72798,65.216782 -27.81585,96.666092 -8.0426,31.78317 -15.19461,62.81156 -20.6312,93.0297 -5.4366,30.21815 -9.15342,59.6277 -10.44328,88.24543 -1.64462,28.98913 -0.94483,58.31243 1.89665,87.40764 2.84147,29.09521 7.82529,57.95963 14.70998,86.07975 7.65325,31.07493 17.63613,61.262 29.54758,89.98518 11.91144,28.72319 25.75187,55.98029 41.04083,81.36408 18.49303,30.8032 39.28749,59.03699 60.97675,84.36655 21.68927,25.32956 44.27113,47.75604 66.44695,67.26406 24.0452,21.13293 47.62015,38.85627 69.24337,53.49148 21.62322,14.6352 41.29239,26.19805 57.75216,35.18416 16.45978,8.98611 29.70645,15.41529 38.75459,19.68699 9.04813,4.27169 13.89071,6.40517 13.89071,6.40517 0,0 0,0 0,0 z"
         style="fill:#6c535d;fill-opacity:1;fill-rule:evenodd;stroke:none" />
      <path
         style="fill:#6c535d;fill-opacity:1;fill-rule:evenodd;stroke:none"
         d="m 1769.9544,968.72094 c 0,0 -1.3171,0.0698 -3.8953,0.17204 -2.5782,0.10219 -6.418,0.23626 -11.4717,0.32298 -10.1073,0.17345 -25.0774,0.18457 -44.5241,-0.99557 -19.4467,-1.18015 -43.3864,-3.56499 -71.2173,-8.53652 -27.8309,-4.97153 -59.5659,-12.54321 -94.1617,-24.24885 -31.9227,-10.78679 -66.2933,-25.10222 -101.8544,-44.1118 -35.5612,-19.00957 -72.3124,-42.72247 -108.5376,-72.12582 -29.8541,-24.28713 -59.1708,-52.29052 -86.8603,-84.06161 -27.6895,-31.7711 -53.7476,-67.31093 -77.0088,-106.39365 -21.074,-35.32982 -39.8673,-73.56346 -55.5146,-114.33233 -15.6474,-40.76887 -28.1453,-84.07225 -36.6732,-129.35703 -8.0399,-44.21842 -12.5524,-88.9824 -13.8931,-133.45819 -1.3408,-44.47579 0.4881,-88.65907 4.9441,-131.73245 4.2334,-42.345184 10.3826,-83.749447 17.7765,-123.911703 7.3938,-40.162256 16.0286,-79.080964 25.2081,-116.570837 0,-3e-5 0,-7e-5 0,-1e-4 10.9398,-45.42932 22.4685,-88.80667 33.4107,-130.1808 7.1257,-26.94376 14.0831,-53.32544 20.4851,-79.20651 7.8777,-32.44567 15.3052,-64.05126 21.4599,-94.79337 6.1547,-30.7421 11.0329,-60.62234 13.8437,-89.72268 4.0238,-37.27738 5.047,-75.37083 3.1734,-113.53478 -1.8736,-38.16396 -6.6459,-76.39185 -14.1421,-113.9047 -8.1504,-40.39006 -19.4727,-79.99205 -33.605,-117.90681 -14.1324,-37.91476 -31.0769,-74.1356 -50.3045,-107.95677 -22.7491,-40.20678 -48.9878,-77.33948 -76.8234,-110.74998 -27.8356,-33.4105 -57.26225,-63.0952 -86.43891,-88.8736 -30.92646,-27.288 -61.58686,-50.2234 -89.93174,-69.1254 -28.34489,-18.9019 -54.36898,-33.7921 -76.27183,-45.3188 -21.90285,-11.5268 -39.67738,-19.7213 -51.86213,-25.1584 -6.09238,-2.7186 -10.7932,-4.7437 -13.96209,-6.1012 -3.16889,-1.3576 -4.80533,-2.0485 -4.80533,-2.0485 0,0 1.76878,-0.1352 5.22007,-0.3463 3.45129,-0.211 8.58575,-0.497 15.33011,-0.7369 6.74436,-0.24 15.09943,-0.4331 24.9938,-0.4088 9.89437,0.024 21.3289,0.2669 34.22167,0.9365 25.78554,1.3391 57.4406,4.3725 93.99462,11.0576 18.27701,3.3426 37.77059,7.6027 58.2987,13.0379 20.52811,5.4351 42.09107,12.0461 64.45726,20.085 21.1167,7.576 42.9555,16.4247 65.2799,26.7444 22.3245,10.3196 45.1346,22.1106 68.1518,35.5499 46.0346,26.8784 92.9322,60.3877 138.0078,101.5668 37.9125,34.7441 74.2312,74.6399 107.3164,119.36978 33.0852,44.72992 62.9271,94.29265 87.9325,147.87634 23.2779,49.7102 42.4002,102.89801 56.2518,158.5607 13.8517,55.66269 22.4255,113.79597 24.866,173.11254 1.5879,45.50568 -0,90.25241 -4.1131,133.68491 -4.1094,43.4325 -10.7334,85.54821 -19.1346,125.91018 -6.5666,32.12099 -13.9721,63.22364 -21.8695,93.28352 -12.1271,46.15919 -25.6147,90.580905 -39.0682,133.328639 0,3.2e-5 0,6.5e-5 0,9.7e-5 -10.8911,35.061807 -21.8265,69.062879 -32.0487,102.134646 -10.2221,33.071768 -19.7279,65.216778 -27.8158,96.666088 -8.0426,31.78317 -15.1946,62.81157 -20.6312,93.02971 -5.4366,30.21814 -9.1534,59.6277 -10.4433,88.24542 -1.6446,28.98913 -0.9448,58.31244 1.8967,87.40765 2.8414,29.09521 7.8253,57.95962 14.7099,86.07975 7.6533,31.07493 17.6362,61.26199 29.5476,89.98518 11.9115,28.72319 25.7519,55.98029 41.0409,81.36408 18.493,30.8032 39.2875,59.03699 60.9767,84.36655 21.6893,25.32956 44.2711,47.75604 66.447,67.26406 24.0452,21.13293 47.6201,38.85627 69.2433,53.49148 21.6233,14.6352 41.2924,26.19805 57.7522,35.18416 16.4598,8.98611 29.7064,15.41529 38.7546,19.68699 9.0481,4.27169 13.8907,6.40517 13.8907,6.40517 0,0 0,0 0,0 z"
         id="path3067"
         inkscape:path-effect="#path-effect3069;#path-effect3071"
         inkscape:original-d="m 1769.9544,968.72094 c 0,0 -960.06801,-277.09963 -542.9893,-597.45166 417.0787,-320.3522 528.3355,-950.23459 149.1797,-882.92988 -379.15568,67.30469 -1079.59682,-616.5447 -669.64803,-803.5422"
         inkscape:connector-curvature="0"
         sodipodi:nodetypes="cssc" />
      <path
         style="fill:#6c535d;fill-opacity:1;fill-rule:evenodd;stroke:none"
         d="m -253.31419,968.72094 c 0,0 -1.31707,0.0698 -3.8953,0.17204 -2.57823,0.10219 -6.41801,0.23626 -11.47168,0.32298 -10.10736,0.17345 -25.07743,0.18457 -44.52411,-0.99558 -19.44668,-1.18014 -43.38645,-3.56499 -71.21732,-8.53652 -27.83086,-4.97153 -59.56592,-12.54322 -94.16171,-24.24886 -31.92271,-10.78679 -66.29326,-25.10222 -101.8544,-44.11179 -35.56113,-19.00958 -72.31232,-42.72248 -108.53753,-72.12582 -29.85408,-24.28714 -59.1708,-52.29053 -86.86029,-84.06162 -27.68948,-31.77109 -53.74765,-67.31092 -77.0088,-106.39364 -21.07403,-35.32982 -39.86732,-73.56346 -55.51464,-114.33233 -15.64733,-40.76887 -28.14526,-84.07225 -36.67318,-129.35702 -8.03991,-44.21842 -12.55242,-88.9824 -13.89313,-133.45819 -1.34071,-44.47579 0.48817,-88.65907 4.94417,-131.73245 4.2334,-42.345183 10.38261,-83.749446 17.77643,-123.9117021 7.39383,-40.1622559 16.02864,-79.0809639 25.20812,-116.5708379 10e-6,-3e-5 2e-5,-7e-5 3e-5,-1e-4 10.93976,-45.42934 22.46854,-88.80671 33.41068,-130.18086 7.12575,-26.94374 14.08314,-53.3254 20.4851,-79.20645 7.87765,-32.44567 15.30517,-64.05126 21.4599,-94.79336 6.15473,-30.74211 11.0329,-60.62235 13.84373,-89.72268 4.0238,-37.2774 5.04701,-75.37085 3.17338,-113.5348 -1.87363,-38.16396 -6.64596,-76.39185 -14.14213,-113.90471 -8.15038,-40.39006 -19.47266,-79.99205 -33.60504,-117.90681 -14.13237,-37.91476 -31.07687,-74.1356 -50.3045,-107.95678 -22.74911,-40.20685 -48.98781,-77.33945 -76.8234,-110.74995 -27.83559,-33.4105 -57.26229,-63.0952 -86.43889,-88.8736 -30.9265,-27.288 -61.5869,-50.2234 -89.9318,-69.1254 -28.3449,-18.9019 -54.369,-33.7921 -76.2718,-45.3188 -21.9029,-11.5268 -39.6774,-19.7213 -51.8622,-25.1584 -6.0924,-2.7186 -10.7932,-4.7437 -13.9621,-6.1012 -3.1689,-1.3576 -4.8053,-2.0485 -4.8053,-2.0485 0,0 1.7688,-0.1352 5.2201,-0.3463 3.4513,-0.211 8.5857,-0.497 15.3301,-0.7369 6.7443,-0.24 15.0994,-0.4331 24.9938,-0.4088 9.8944,0.024 21.3289,0.2669 34.2217,0.9364 25.7855,1.3392 57.4406,4.3726 93.9946,11.0577 18.277,3.3426 37.7706,7.6026 58.2987,13.0378 20.5281,5.4352 42.0911,12.0462 64.4573,20.085 21.11669,7.576 42.95546,16.4248 65.27992,26.7444 22.32446,10.3197 45.13452,22.1107 68.1518,35.5499 46.03457,26.8785 92.9322,60.3877 138.00775,101.5669 37.91258,34.744 74.23129,74.6398 107.31649,119.36973 33.08521,44.72993 62.92707,94.29266 87.93251,147.87635 23.27788,49.71022 42.40017,102.89803 56.25183,158.56072 13.85165,55.6627 22.42548,113.79599 24.86592,173.11255 1.5879,45.50569 -0.004,90.25242 -4.11303,133.68492 -4.10941,43.4325 -10.73342,85.54821 -19.13465,125.91018 -6.56656,32.12096 -13.97208,63.22359 -21.8695,93.28345 -12.1271,46.15921 -25.61473,90.580952 -39.06815,133.328709 -10e-6,3.2e-5 -2e-5,6.4e-5 -3e-5,9.7e-5 -10.8911,35.061807 -21.82654,69.062879 -32.04868,102.134646 -10.22214,33.071768 -19.72798,65.216778 -27.81584,96.666088 -8.0426,31.78317 -15.19461,62.81157 -20.63121,93.02971 -5.43659,30.21814 -9.15342,59.6277 -10.44327,88.24542 -1.64462,28.98913 -0.94483,58.31244 1.89664,87.40765 2.84148,29.09521 7.8253,57.95962 14.70999,86.07974 7.65325,31.07493 17.63613,61.262 29.54757,89.98519 11.91145,28.72318 25.75188,55.98028 41.04083,81.36407 18.49304,30.8032 39.28749,59.037 60.97676,84.36656 21.68926,25.32956 44.27112,47.75603 66.44694,67.26406 24.0452,21.13293 47.62015,38.85627 69.24337,53.49147 21.62322,14.63521 41.29238,26.19805 57.75215,35.18416 16.45978,8.98612 29.70645,15.4153 38.75459,19.687 9.04813,4.27169 13.89071,6.40517 13.89071,6.40517 z"
         id="path3873"
         inkscape:path-effect="#path-effect3875;#path-effect3877"
         inkscape:original-d="m -253.31419,968.72094 c 0,0 -960.06811,-277.09963 -542.98926,-597.45166 417.07872,-320.3522 528.33547,-950.23459 149.1797,-882.92988 -379.15585,67.30469 -1079.59695,-616.5447 -669.64815,-803.5422"
         inkscape:connector-curvature="0"
         sodipodi:nodetypes="cssc" />
    </g>
  </g>
</svg>
