<?xml version="1.0" encoding="UTF-8" standalone="no"?>
<!-- Created with Inkscape (http://www.inkscape.org/) -->

<svg
   xmlns:dc="http://purl.org/dc/elements/1.1/"
   xmlns:cc="http://creativecommons.org/ns#"
   xmlns:rdf="http://www.w3.org/1999/02/22-rdf-syntax-ns#"
   xmlns:svg="http://www.w3.org/2000/svg"
   xmlns="http://www.w3.org/2000/svg"
   xmlns:sodipodi="http://sodipodi.sourceforge.net/DTD/sodipodi-0.dtd"
   xmlns:inkscape="http://www.inkscape.org/namespaces/inkscape"
   width="236.3125"
   height="417.52927"
   id="svg4258"
   version="1.1"
   inkscape:version="0.48.5 r10040"
   inkscape:export-filename="C:\Users\brayan.bedritchuk\Desktop\bitmap.png"
   inkscape:export-xdpi="110.36352"
   inkscape:export-ydpi="110.36352"
   sodipodi:docname="New document 4">
  <defs
     id="defs4260" />
  <sodipodi:namedview
     id="base"
     pagecolor="#ffffff"
     bordercolor="#666666"
     borderopacity="1.0"
     inkscape:pageopacity="0.0"
     inkscape:pageshadow="2"
     inkscape:zoom="0.70710678"
     inkscape:cx="-231.12457"
     inkscape:cy="113.94766"
     inkscape:document-units="px"
     inkscape:current-layer="layer1"
     showgrid="false"
     fit-margin-top="16"
     fit-margin-left="16"
     fit-margin-right="16"
     fit-margin-bottom="16"
     inkscape:window-width="1680"
     inkscape:window-height="987"
     inkscape:window-x="-8"
     inkscape:window-y="-8"
     inkscape:window-maximized="1" />
  <metadata
     id="metadata4263">
    <rdf:RDF>
      <cc:Work
         rdf:about="">
        <dc:format>image/svg+xml</dc:format>
        <dc:type
           rdf:resource="http://purl.org/dc/dcmitype/StillImage" />
        <dc:title></dc:title>
      </cc:Work>
    </rdf:RDF>
  </metadata>
  <g
     inkscape:label="Layer 1"
     inkscape:groupmode="layer"
     id="layer1"
     transform="translate(-736.12946,350.68817)">
    <rect
       style="fill:#ffdd55;fill-opacity:1"
       id="rect4187"
       width="80.610176"
       height="182.43355"
       x="813.98053"
       y="-131.59244"
       ry="36.769554" />
    <path
       inkscape:connector-curvature="0"
       style="fill:#ff5555;fill-opacity:1"
       d="m 854.28576,-334.68817 c -56.4193,0 -102.1563,46.40082 -102.1563,103.625 l 0,173.999998 c 0,9.25096 7.4365,16.6875 16.6875,16.6875 l 170.9375,0 c 9.251,0 16.6875,-7.43654 16.6875,-16.6875 l 0,-120.874998 c -26.1181,-2.2194 -46.625,-24.12002 -46.625,-50.8125 0,-12.32285 4.3809,-23.62169 11.6562,-32.4375 -17.2408,-2.1751 -30.5937,-16.88765 -30.5937,-34.71875 0,-10.50726 4.6376,-19.92826 11.9687,-26.34375 -14.4458,-7.93499 -30.9812,-12.4375 -48.5624,-12.4375 z"
       id="rect4176" />
    <path
       style="fill:#ffcc03;fill-opacity:1"
       d="m 856.33046,-35.510052 c -0.4742,0.007 -0.9454,0.1973 -1.303,0.56678 l -10.684,11.04539 c -0.7148,0.73898 -0.6957,1.90962 0.043,2.62445 0.7391,0.71483 1.9096,0.69501 2.6245,-0.0441 l 9.4474,-9.76633 9.4474,9.76633 c 0.7149,0.73897 1.8854,0.7588 2.6245,0.0441 0.7389,-0.71483 0.7579,-1.88547 0.043,-2.62445 l -10.684,-11.04539 c -0.3896,-0.40277 -0.9143,-0.5907 -1.431,-0.56358 -0.043,-0.002 -0.085,-0.004 -0.128,-0.004 z"
       id="path4220"
       inkscape:connector-curvature="0" />
    <path
       style="fill:#ffcc03;fill-opacity:1"
       d="m 878.01516,-35.648212 c -0.4744,0.007 -0.9457,0.1973 -1.3031,0.56678 l -10.684,11.0454 c -0.7149,0.73897 -0.6959,1.90961 0.043,2.62446 0.7391,0.71481 1.9097,0.69499 2.6245,-0.0441 l 9.4474,-9.76634 9.4473,9.76634 c 0.7149,0.73898 1.8857,0.7588 2.6246,0.0441 0.7389,-0.71485 0.7579,-1.88549 0.043,-2.62446 l -10.6842,-11.0454 c -0.3896,-0.40278 -0.9141,-0.59069 -1.4308,-0.56358 -0.043,-0.002 -0.085,-0.004 -0.128,-0.004 z"
       id="path4222"
       inkscape:connector-curvature="0" />
    <path
       inkscape:connector-curvature="0"
       id="path4227"
       d="m 832.46646,-7.5100525 c -0.4742,0.007 -0.9454,0.1973 -1.303,0.56678 l -10.684,11.04539 c -0.7148,0.73898 -0.6957,1.90962 0.043,2.62445 0.7391,0.71483 1.9096,0.69501 2.6245,-0.0441 l 9.4474,-9.76633 9.4474,9.76633 c 0.7149,0.73897 1.8854,0.7588 2.6245,0.0441 0.7389,-0.71483 0.7579,-1.88547 0.043,-2.62445 l -10.684,-11.04539 c -0.3896,-0.40277 -0.9143,-0.5907 -1.431,-0.56358 -0.043,-0.002 -0.085,-0.004 -0.128,-0.004 z"
       style="fill:#ffcc03;fill-opacity:1" />
    <path
       inkscape:connector-curvature="0"
       id="path4229"
       d="m 854.15116,-7.6482125 c -0.4744,0.007 -0.9457,0.1973 -1.3031,0.56678 l -10.684,11.0454 c -0.7149,0.73897 -0.6959,1.90961 0.043,2.62446 0.7391,0.71481 1.9097,0.69499 2.6245,-0.0441 l 9.4474,-9.76634 9.4473,9.76634 c 0.7149,0.73898 1.8857,0.7588 2.6246,0.0441 0.7389,-0.71485 0.7579,-1.88549 0.043,-2.62446 l -10.6842,-11.0454 c -0.3896,-0.40278 -0.9141,-0.59069 -1.4308,-0.56358 -0.043,-0.002 -0.085,-0.004 -0.128,-0.004 z"
       style="fill:#ffcc03;fill-opacity:1" />
    <path
       style="fill:#ffcc03;fill-opacity:1"
       d="m 854.46646,15.489948 c -0.4742,0.007 -0.9454,0.1973 -1.303,0.56678 l -10.684,11.04539 c -0.7148,0.73898 -0.6957,1.90962 0.043,2.62445 0.7391,0.71483 1.9096,0.69501 2.6245,-0.0441 l 9.4474,-9.76633 9.4474,9.76633 c 0.7149,0.73897 1.8854,0.7588 2.6245,0.0441 0.7389,-0.71483 0.7579,-1.88547 0.043,-2.62445 l -10.684,-11.04539 c -0.3896,-0.40277 -0.9143,-0.5907 -1.431,-0.56358 -0.043,-0.002 -0.085,-0.004 -0.128,-0.004 z"
       id="path4231"
       inkscape:connector-curvature="0" />
    <path
       style="fill:#ffcc03;fill-opacity:1"
       d="m 876.15116,15.351788 c -0.4744,0.007 -0.9457,0.1973 -1.3031,0.56678 l -10.684,11.0454 c -0.7149,0.73897 -0.6959,1.90961 0.043,2.62446 0.7391,0.71481 1.9097,0.69499 2.6245,-0.0441 l 9.4474,-9.76634 9.4473,9.76634 c 0.7149,0.73898 1.8857,0.7588 2.6246,0.0441 0.7389,-0.71485 0.7579,-1.88549 0.043,-2.62446 l -10.6842,-11.0454 c -0.3896,-0.40278 -0.9141,-0.59069 -1.4308,-0.56358 -0.043,-0.002 -0.085,-0.004 -0.128,-0.004 z"
       id="path4233"
       inkscape:connector-curvature="0" />
    <rect
       style="fill:#ff9f9f;fill-opacity:1"
       id="rect4235"
       width="27"
       height="100"
       x="782.44196"
       y="-205.79474"
       ry="13.5" />
  </g>
</svg>
