<?xml version="1.0" encoding="UTF-8" standalone="no"?>
<!-- Created with Inkscape (http://www.inkscape.org/) -->

<svg
   xmlns:dc="http://purl.org/dc/elements/1.1/"
   xmlns:cc="http://creativecommons.org/ns#"
   xmlns:rdf="http://www.w3.org/1999/02/22-rdf-syntax-ns#"
   xmlns:svg="http://www.w3.org/2000/svg"
   xmlns="http://www.w3.org/2000/svg"
   xmlns:sodipodi="http://sodipodi.sourceforge.net/DTD/sodipodi-0.dtd"
   xmlns:inkscape="http://www.inkscape.org/namespaces/inkscape"
   width="1632.2284"
   height="660.64008"
   viewBox="0 0 431.86042 174.79436"
   version="1.1"
   id="svg8"
   inkscape:version="0.92.1 r15371"
   sodipodi:docname="Bezier Landscape.svg">
  <defs
     id="defs2" />
  <sodipodi:namedview
     id="base"
     pagecolor="#ffffff"
     bordercolor="#666666"
     borderopacity="1.0"
     inkscape:pageopacity="1"
     inkscape:pageshadow="2"
     inkscape:zoom="0.70710678"
     inkscape:cx="646.76178"
     inkscape:cy="337.08119"
     inkscape:document-units="px"
     inkscape:current-layer="layer1"
     showgrid="false"
     showborder="true"
     units="px"
     fit-margin-top="0"
     fit-margin-left="0"
     fit-margin-right="0"
     fit-margin-bottom="0"
     inkscape:window-width="1920"
     inkscape:window-height="1017"
     inkscape:window-x="-8"
     inkscape:window-y="-8"
     inkscape:window-maximized="1" />
  <metadata
     id="metadata5">
    <rdf:RDF>
      <cc:Work
         rdf:about="">
        <dc:format>image/svg+xml</dc:format>
        <dc:type
           rdf:resource="http://purl.org/dc/dcmitype/StillImage" />
        <dc:title></dc:title>
      </cc:Work>
    </rdf:RDF>
  </metadata>
  <g
     inkscape:label="Layer 1"
     inkscape:groupmode="layer"
     id="layer1"
     transform="translate(109.86003,-26.878538)">
    <path
       sodipodi:nodetypes="ccccccccccccccccccccccccccccccc"
       inkscape:connector-curvature="0"
       id="path4579"
       d="m 321.15294,198.38239 c -3.17266,-2.64675 -6.83348,-4.53414 -5.67638,-13.91608 -5.85903,4.39685 -10.46235,8.92109 -7.81736,14.18066 -2.51578,-2.80049 2.26968,-12.31552 -6.30783,-19.41914 -0.57676,3.36974 -6.64301,13.4533 -7.63028,19.41914 -3.17266,-2.64675 -4.86905,-6.35825 -6.05056,-9.14532 -3.54143,4.77268 -3.61204,5.20052 -7.44319,9.4099 -3.17266,-2.64675 -6.83348,-4.53414 -5.67638,-13.91608 -5.85904,4.39685 -10.46236,8.92109 -7.81737,14.18066 -2.51578,-2.80049 2.26968,-12.31552 -6.30783,-19.41914 -0.57676,3.36974 -6.64301,13.4533 -7.63028,19.41914 -3.17266,-2.64675 -4.86905,-6.35825 -6.05055,-9.14532 -3.54143,4.77268 -3.61204,5.20052 -7.4432,9.4099 -3.83115,-4.20938 -3.90176,-4.63722 -7.44319,-9.4099 -1.18151,2.78707 -2.8779,6.49857 -6.05056,9.14532 -0.98726,-5.96584 -7.05351,-16.0494 -7.63027,-19.41914 -8.57751,7.10362 -3.79205,16.61865 -6.30783,19.41914 2.64499,-5.25957 -1.95833,-9.78381 -7.81737,-14.18066 1.1571,9.38194 -2.50372,11.26933 -5.67638,13.91608 -3.83115,-4.20938 -3.90177,-4.63722 -7.4432,-9.4099 -1.1815,2.78707 -2.87789,6.49857 -6.05055,9.14532 -0.98727,-5.96584 -7.05352,-16.0494 -7.63028,-19.41914 -8.57751,7.10362 -3.79205,16.61865 -6.30783,19.41914 2.64499,-5.25957 -1.95833,-9.78381 -7.81737,-14.18066 1.1571,9.38194 -2.50372,11.26933 -5.67638,13.91608 -3.17266,-2.64675 -6.83348,-4.53414 -5.67638,-13.91608 -5.85904,4.39685 -10.46236,8.92109 -7.81737,14.18066 -2.51578,-2.80049 2.26968,-12.31552 -6.30783,-19.41914 -0.57676,3.36974 -6.64301,13.4533 -7.63027,19.41914 -3.17266,-2.64675 -4.86905,-6.35825 -6.05056,-9.14532 -3.54143,4.77268 -3.61204,5.20052 -7.44319,9.4099"
       style="fill:none;stroke:#5fd3bc;stroke-width:2.64583325;stroke-linecap:butt;stroke-linejoin:miter;stroke-miterlimit:4;stroke-dasharray:none;stroke-opacity:1" />
    <path
       style="fill:none;stroke:#5fd3bc;stroke-width:2.64583325;stroke-linecap:butt;stroke-linejoin:miter;stroke-miterlimit:4;stroke-dasharray:none;stroke-opacity:1"
       d="m -109.01258,198.38239 c 3.17266,-2.64675 6.83348,-4.53414 5.67638,-13.91608 5.859037,4.39685 10.462357,8.92109 7.817367,14.18066 2.51578,-2.80049 -2.26968,-12.31552 6.30783,-19.41914 0.57676,3.36974 6.64301,13.4533 7.630276,19.41914 3.17266,-2.64675 4.869049,-6.35825 6.050557,-9.14532 3.541428,4.77268 3.612041,5.20052 7.443193,9.4099 3.17266,-2.64675 6.83348,-4.53414 5.67638,-13.91608 5.85904,4.39685 10.46236,8.92109 7.81737,14.18066 2.51578,-2.80049 -2.26968,-12.31552 6.30783,-19.41914 0.57676,3.36974 6.64301,13.4533 7.630276,19.41914 3.17266,-2.64675 4.869049,-6.35825 6.050557,-9.14532 3.541428,4.77268 3.612041,5.20052 7.443193,9.4099 3.831152,-4.20938 3.901765,-4.63722 7.443193,-9.4099 1.181508,2.78707 2.877897,6.49857 6.050557,9.14532 0.987266,-5.96584 7.0535153,-16.0494 7.6302753,-19.41914 8.57751,7.10362 3.79205,16.61865 6.30783001,19.41914 -2.64499001,-5.25957 1.95832999,-9.78381 7.81736999,-14.18066 -1.1571,9.38194 2.5037197,11.26933 5.6763807,13.91608 3.831152,-4.20938 3.901765,-4.63722 7.443193,-9.4099 1.181508,2.78707 2.877897,6.49857 6.050557,9.14532 0.987266,-5.96584 7.053516,-16.0494 7.630276,-19.41914 8.57751,7.10362 3.79205,16.61865 6.30783,19.41914 -2.64499,-5.25957 1.95833,-9.78381 7.81737,-14.18066 -1.1571,9.38194 2.50372,11.26933 5.67638,13.91608 3.17266,-2.64675 6.83348,-4.53414 5.67638,-13.91608 5.85904,4.39685 10.46236,8.92109 7.81737,14.18066 2.51578,-2.80049 -2.26968,-12.31552 6.30783,-19.41914 0.57676,3.36974 6.64301,13.4533 7.630276,19.41914 3.17266,-2.64675 4.869049,-6.35825 6.050557,-9.14532 3.541428,4.77268 3.612041,5.20052 7.443193,9.4099"
       id="path4329"
       inkscape:connector-curvature="0"
       sodipodi:nodetypes="ccccccccccccccccccccccccccccccc" />
    <path
       style="fill:none;stroke:#d38d5f;stroke-width:10;stroke-linecap:butt;stroke-linejoin:miter;stroke-miterlimit:4;stroke-dasharray:none;stroke-opacity:1"
       d="m 339.03389,497.49722 c 10.4876,72.18441 38.25815,154.38327 22.34733,254.29446 h 78.99999 C 439.4298,661.74485 422.95673,625.4786 438.5233,501.01851"
       id="path4344"
       transform="scale(0.26458333)"
       inkscape:connector-curvature="0"
       sodipodi:nodetypes="cccc" />
    <path
       style="fill:none;stroke:#d38d5f;stroke-width:2.64583325;stroke-linecap:butt;stroke-linejoin:miter;stroke-miterlimit:4;stroke-dasharray:none;stroke-opacity:1"
       d="m 107.15625,136.59634 2.51354,4.0349 -0.99219,4.7625"
       id="path4348"
       inkscape:connector-curvature="0" />
    <path
       style="fill:none;stroke:#d38d5f;stroke-width:2.64583325;stroke-linecap:butt;stroke-linejoin:miter;stroke-miterlimit:4;stroke-dasharray:none;stroke-opacity:1"
       d="m 99.020307,151.28071 3.571883,1.78594 -0.33073,3.9026"
       id="path4350"
       inkscape:connector-curvature="0" />
    <path
       style="fill:none;stroke:#d38d5f;stroke-width:2.64583325;stroke-linecap:butt;stroke-linejoin:miter;stroke-miterlimit:4;stroke-dasharray:none;stroke-opacity:1"
       d="m 107.55312,164.57603 3.3073,4.10104 -0.79375,7.14375"
       id="path4352"
       inkscape:connector-curvature="0" />
    <path
       style="fill:none;stroke:#d38d5f;stroke-width:2.64583325;stroke-linecap:butt;stroke-linejoin:miter;stroke-miterlimit:4;stroke-dasharray:none;stroke-opacity:1"
       d="m 101.33542,183.55988 3.77031,4.10105 -2.11667,0.52916"
       id="path4354"
       inkscape:connector-curvature="0" />
    <path
       style="fill:none;stroke:#87deaa;stroke-width:2.64583325;stroke-linecap:butt;stroke-linejoin:miter;stroke-miterlimit:4;stroke-dasharray:none;stroke-opacity:1"
       d="m 90.460686,28.201455 c -4.465995,0 -8.582033,3.04216 -9.892419,7.11636 -1.913001,-1.842921 -4.534649,-3.001367 -7.289477,-3.001367 -3.077305,0 -5.965989,0.897779 -8.105449,2.79518 -1.921606,1.704197 -3.163906,4.209918 -3.397724,7.303947 -1.836901,-1.506442 -4.186433,-2.428793 -6.643005,-2.428793 -3.077308,0 -5.965989,0.89726 -8.105449,2.794662 -2.139461,1.897398 -3.44165,4.786005 -3.44165,8.37675 0,1.476788 0.279966,2.813463 0.767395,3.986318 -1.198586,-0.482129 -2.490602,-0.751893 -3.814239,-0.751893 -3.077305,0 -5.965989,0.897779 -8.105446,2.79518 -2.139461,1.897399 -3.441134,4.786003 -3.441134,8.376748 0,3.112143 1.229069,5.609929 3.068029,7.23832 1.073221,0.950331 2.334458,1.612215 3.664892,2.000393 -1.287296,0.460886 -2.467809,1.131702 -3.479374,2.028817 -2.139458,1.897401 -3.441134,4.786522 -3.441134,8.377267 0,3.112143 1.231138,5.609926 3.070098,7.238317 1.83896,1.628391 4.225748,2.415873 6.574276,2.415873 0.289362,0 0.578295,-0.01309 0.866614,-0.03307 -2.115309,1.897851 -3.401862,4.771584 -3.401862,8.339536 0,3.11215 1.231654,5.60993 3.070614,7.23832 1.663253,1.47281 3.77452,2.25377 5.900415,2.39003 -1.297181,1.78996 -2.04897,4.10975 -2.04897,6.83473 0,3.11215 1.231138,5.60992 3.070098,7.23832 1.83896,1.62839 4.225747,2.41587 6.574276,2.41587 2.559349,0 5.10096,-0.79364 7.200593,-2.19005 -0.247938,0.98982 -0.380338,2.059 -0.380338,3.19981 0,3.11214 1.229587,5.60992 3.068547,7.23832 1.838958,1.62838 4.227814,2.41587 6.576341,2.41587 5.746863,0 11.408653,-3.99293 12.156881,-9.85573 1.590088,0.96469 3.426664,1.43609 5.241542,1.43609 2.721535,0 5.423193,-0.89632 7.593851,-2.46187 2.170599,1.5654 4.871933,2.46187 7.593332,2.46187 2.34853,0 4.73532,-0.78593 6.57428,-2.41433 0.37145,-0.32892 0.71679,-0.69467 1.03352,-1.09243 2.3268,2.20532 5.57644,3.50676 8.85528,3.50676 1.81427,0 3.65129,-0.47101 5.24154,-1.43506 0.7488,5.8622 6.41244,9.8547 12.15895,9.8547 2.34853,0 4.73532,-0.78749 6.57427,-2.41587 1.83896,-1.6284 3.0701,-4.12618 3.0701,-7.23832 0,-1.14043 -0.13256,-2.20923 -0.38034,-3.19877 2.09897,1.3959 4.63966,2.18901 7.19853,2.18901 2.34853,0 4.73738,-0.78748 6.57634,-2.41587 1.83896,-1.6284 3.06855,-4.12617 3.06855,-7.23832 0,-2.725 -0.75128,-5.04476 -2.04794,-6.83473 2.12585,-0.13645 4.23847,-0.91746 5.90145,-2.39003 1.83896,-1.62839 3.06803,-4.12617 3.06803,-7.23832 0,-3.567952 -1.28604,-6.441685 -3.40135,-8.339536 0.28826,0.01998 0.57681,0.03307 0.8661,0.03307 2.34853,0 4.73738,-0.787482 6.57634,-2.415873 1.83896,-1.628391 3.06855,-4.126174 3.06855,-7.238317 0,-3.590745 -1.3022,-6.479866 -3.44165,-8.377267 -1.0115,-0.897056 -2.19166,-1.567934 -3.47886,-2.028817 1.33044,-0.388178 2.59116,-1.050062 3.66438,-2.000393 1.83896,-1.628391 3.07061,-4.126177 3.07061,-7.23832 0,-3.590745 -1.30426,-6.479349 -3.44371,-8.376748 -2.13946,-1.897401 -5.02815,-2.79518 -8.10545,-2.79518 -1.32292,0 -2.61413,0.269743 -3.81217,0.751377 0.48773,-1.172707 0.76739,-2.509276 0.76739,-3.985802 0,-3.590745 -1.30167,-6.479352 -3.44113,-8.37675 -2.13946,-1.897402 -5.02867,-2.794662 -8.10597,-2.794662 -2.45749,0 -4.80735,0.923412 -6.64455,2.430859 -0.23342,-3.094987 -1.4762,-5.601432 -3.39824,-7.306013 -2.13947,-1.897401 -5.02814,-2.79518 -8.10545,-2.79518 -3.66802,0 -7.09933,2.052793 -8.93537,5.043104 -0.55622,-1.986196 -1.58871,-3.636569 -2.97657,-4.867402 -2.13946,-1.897401 -5.02814,-2.794662 -8.10544,-2.794662 -4.09521,0 -7.89582,2.558243 -9.5095,6.124173 -0.55891,-1.967529 -1.586779,-3.603085 -2.965199,-4.825545 -2.139451,-1.897401 -5.028137,-2.794661 -8.105445,-2.794661 z"
       id="path4356"
       inkscape:connector-curvature="0" />
    <path
       style="fill:none;stroke:#ff9955;stroke-width:3.92319775;stroke-linecap:butt;stroke-linejoin:miter;stroke-miterlimit:4;stroke-dasharray:none;stroke-opacity:1"
       d="m 223.94882,33.287279 c 8.36493,0 15.16032,4.867904 15.16032,14.603731 0,8.235098 -6.26054,12.352654 -12.33946,12.352654 -7.60094,0 -15.12546,-5.370256 -16.0823,-12.910729 -0.93186,-7.343401 5.85914,-14.045656 13.26144,-14.045656 z"
       id="path4414"
       inkscape:connector-curvature="0"
       sodipodi:nodetypes="sssss" />
    <path
       style="fill:none;stroke:#87deaa;stroke-width:2.64583325;stroke-linecap:butt;stroke-linejoin:miter;stroke-miterlimit:4;stroke-dasharray:none;stroke-opacity:1"
       d="M 71.64299,59.448847 C 70.003486,56.96646 67.079542,55.244822 63.998569,55.244822 v 0 c -5.641371,0 -10.22423,3.28295 -10.22423,9.848863 0,1.280152 0.224322,2.412767 0.619763,3.397845"
       id="path4527"
       inkscape:connector-curvature="0" />
    <path
       inkscape:connector-curvature="0"
       id="path4529"
       d="M 72.765522,87.886325 C 71.126018,85.403938 68.202074,83.6823 65.121101,83.6823 v 0 c -5.641371,0 -10.22423,3.28295 -10.22423,9.848863 0,1.280152 0.224322,2.412767 0.619763,3.397845"
       style="fill:none;stroke:#87deaa;stroke-width:2.64583325;stroke-linecap:butt;stroke-linejoin:miter;stroke-miterlimit:4;stroke-dasharray:none;stroke-opacity:1" />
    <path
       style="fill:none;stroke:#87deaa;stroke-width:2.64583325;stroke-linecap:butt;stroke-linejoin:miter;stroke-miterlimit:4;stroke-dasharray:none;stroke-opacity:1"
       d="m 108.31237,53.087832 c -1.6395,-2.482387 -4.56345,-4.204025 -7.64442,-4.204025 v 0 c -5.641373,0 -10.224232,3.28295 -10.224232,9.848863 0,1.280152 0.224322,2.412767 0.619763,3.397845"
       id="path4531"
       inkscape:connector-curvature="0" />
    <path
       inkscape:connector-curvature="0"
       id="path4533"
       d="m 107.56402,81.52531 c -1.6395,-2.482387 -4.56345,-4.204025 -7.644425,-4.204025 v 0 c -5.641373,0 -10.224232,3.28295 -10.224232,9.848863 0,1.280152 0.224322,2.412767 0.619763,3.397845"
       style="fill:none;stroke:#87deaa;stroke-width:2.64583325;stroke-linecap:butt;stroke-linejoin:miter;stroke-miterlimit:4;stroke-dasharray:none;stroke-opacity:1" />
    <path
       style="fill:none;stroke:#87deaa;stroke-width:2.64583325;stroke-linecap:butt;stroke-linejoin:miter;stroke-miterlimit:4;stroke-dasharray:none;stroke-opacity:1"
       d="m 91.474394,108.84026 c -1.6395,-2.48239 -4.56345,-4.20403 -7.644425,-4.20403 v 0 c -5.641373,0 -10.224232,3.28295 -10.224232,9.84886 0,1.28016 0.224322,2.41277 0.619763,3.39785"
       id="path4535"
       inkscape:connector-curvature="0" />
    <path
       inkscape:connector-curvature="0"
       id="path4537"
       d="m 136.74985,65.061511 c -1.6395,-2.48239 -4.56345,-4.20403 -7.64442,-4.20403 v 0 c -5.64138,0 -10.22423,3.28295 -10.22423,9.84886 0,1.28016 0.22432,2.41277 0.61976,3.39785"
       style="fill:none;stroke:#87deaa;stroke-width:2.64583325;stroke-linecap:butt;stroke-linejoin:miter;stroke-miterlimit:4;stroke-dasharray:none;stroke-opacity:1" />
    <path
       style="fill:none;stroke:#87deaa;stroke-width:2.64583325;stroke-linecap:butt;stroke-linejoin:miter;stroke-miterlimit:4;stroke-dasharray:none;stroke-opacity:1"
       d="m 129.64048,98.737472 c -1.6395,-2.48239 -4.56345,-4.20403 -7.64442,-4.20403 v 0 c -5.64138,0 -10.22423,3.28295 -10.22423,9.848858 0,1.28016 0.22432,2.41277 0.61976,3.39785"
       id="path4539"
       inkscape:connector-curvature="0" />
    <path
       inkscape:connector-curvature="0"
       id="path4541"
       d="m 160.6972,81.525314 c -1.6395,-2.48239 -4.56345,-4.20403 -7.64442,-4.20403 v 0 c -5.64138,0 -10.22423,3.28295 -10.22423,9.848858 0,1.28016 0.22432,2.41277 0.61976,3.39785"
       style="fill:none;stroke:#87deaa;stroke-width:2.64583325;stroke-linecap:butt;stroke-linejoin:miter;stroke-miterlimit:4;stroke-dasharray:none;stroke-opacity:1" />
    <path
       style="fill:none;stroke:#aaccff;stroke-width:2.64583325;stroke-linecap:butt;stroke-linejoin:miter;stroke-miterlimit:4;stroke-dasharray:none;stroke-opacity:1"
       d="m 305.65794,88.926406 c 0,0 6.22931,2.837686 3.81732,5.681588 -2.56796,3.027788 -7.90096,-1.953045 -7.90096,-1.953045 0.84335,3.185996 2.38815,12.797251 -2.57447,8.699931 -3.10875,-2.566697 -6.48055,-6.746886 -6.48055,-6.746886 -1.14804,0.875754 -0.0248,11.207556 -5.6816,9.055026 -4.57804,-1.74203 -8.16726,-7.98973 -8.16726,-7.98973 0,0 -6.29639,7.14195 -9.41014,5.32649 -2.24961,-1.311639 0,-7.812183 0,-7.812183 0,0 -7.52307,2.637127 -8.61114,-2.396922 -1.12405,-5.200471 7.54585,-4.882609 7.54585,-4.882609 0,0 -8.38747,-5.20813 -5.59281,-9.321351 2.32561,-3.422867 8.25605,1.15407 8.25605,1.15407 0,0 -3.86103,-9.592873 1.15407,-10.564197 4.72392,-0.914929 9.1438,7.723403 9.1438,7.723403 0,0 0.34194,-7.293913 4.52752,-6.391782 3.73509,0.805039 7.0132,7.634633 7.0132,7.634633 0,0 5.06228,-9.500529 10.5642,-6.924434 4.65417,2.179161 -0.44387,8.699928 -0.44387,8.699928 0,0 8.30722,-1.17745 9.41012,2.84079 1.12012,4.080978 -6.56933,8.16728 -6.56933,8.16728 z"
       id="path4573"
       inkscape:connector-curvature="0"
       sodipodi:nodetypes="cscscscacscscscscscsc" />
    <path
       sodipodi:nodetypes="cscscscacscscscscscsc"
       inkscape:connector-curvature="0"
       id="path4575"
       d="m -27.13471,96.981328 c 0,0 -6.22931,-2.83768 -3.81732,-5.68159 2.56796,-3.02778 7.90096,1.95305 7.90096,1.95305 -0.84335,-3.186 -2.38815,-12.79725 2.57447,-8.69993 3.10875,2.56669 6.48055,6.74688 6.48055,6.74688 1.14804,-0.87575 0.0248,-11.20756 5.6815996,-9.05502 4.57804,1.74203 8.16726003,7.98973 8.16726003,7.98973 0,0 6.29638997,-7.14195 9.41013997,-5.32649 2.2496104,1.31164 0,7.81218 0,7.81218 0,0 7.5230704,-2.63713 8.6111404,2.39692 1.12405,5.200472 -7.54585,4.88261 -7.54585,4.88261 0,0 8.38747,5.208132 5.59281,9.321352 -2.32561,3.42286 -8.2560504,-1.15407 -8.2560504,-1.15407 0,0 3.8610304,9.59287 -1.15407,10.56419 -4.72392,0.91493 -9.1438,-7.7234 -9.1438,-7.7234 0,0 -0.34194,7.29391 -4.52752,6.39178 -3.7350896,-0.80504 -7.0131996,-7.63463 -7.0131996,-7.63463 0,0 -5.06228,9.50053 -10.5642,6.92443 -4.65417,-2.17916 0.44387,-8.69992 0.44387,-8.69992 0,0 -8.30722,1.17745 -9.41012,-2.84079 -1.12012,-4.08099 6.56933,-8.167282 6.56933,-8.167282 z"
       style="fill:none;stroke:#aaccff;stroke-width:2.64583325;stroke-linecap:butt;stroke-linejoin:miter;stroke-miterlimit:4;stroke-dasharray:none;stroke-opacity:1" />
    <path
       style="fill:none;stroke:#aaccff;stroke-width:2.64583325;stroke-linecap:butt;stroke-linejoin:miter;stroke-miterlimit:4;stroke-dasharray:none;stroke-opacity:1"
       d="m -79.957034,60.402705 c 0,0 -6.22931,2.83768 -3.81732,5.68159 2.56796,3.02778 7.90096,-1.95305 7.90096,-1.95305 -0.84335,3.186 -2.38815,12.79725 2.57447,8.69993 3.10875,-2.56669 6.48055,-6.74688 6.48055,-6.74688 1.14804,0.87575 0.0248,11.20756 5.6816,9.05502 4.57804,-1.74203 8.16726,-7.98973 8.16726,-7.98973 0,0 6.29639,7.14195 9.41014,5.32649 2.24961,-1.31164 0,-7.81218 0,-7.81218 0,0 7.52307,2.63713 8.61114,-2.39692 1.12405,-5.20047 -7.54585,-4.88261 -7.54585,-4.88261 0,0 8.38747,-5.20814 5.59281,-9.32136 -2.32561,-3.42286 -8.25605,1.15407 -8.25605,1.15407 0,0 3.86103,-9.59287 -1.15407,-10.56419 -4.72392,-0.91493 -9.1438,7.7234 -9.1438,7.7234 0,0 -0.34194,-7.29391 -4.52752,-6.39178 -3.73509,0.80504 -7.0132,7.63463 -7.0132,7.63463 0,0 -5.06228,-9.50053 -10.5642,-6.92443 -4.65417,2.17916 0.44387,8.69992 0.44387,8.69992 0,0 -8.30722,-1.17745 -9.41012,2.84079 -1.12012,4.08099 6.56933,8.16729 6.56933,8.16729 z"
       id="path4577"
       inkscape:connector-curvature="0"
       sodipodi:nodetypes="cscscscacscscscscscsc" />
  </g>
</svg>
