<?xml version="1.0" encoding="UTF-8" standalone="no"?>
<!-- Created with Inkscape (http://www.inkscape.org/) -->

<svg
   xmlns:dc="http://purl.org/dc/elements/1.1/"
   xmlns:cc="http://creativecommons.org/ns#"
   xmlns:rdf="http://www.w3.org/1999/02/22-rdf-syntax-ns#"
   xmlns:svg="http://www.w3.org/2000/svg"
   xmlns="http://www.w3.org/2000/svg"
   xmlns:sodipodi="http://sodipodi.sourceforge.net/DTD/sodipodi-0.dtd"
   xmlns:inkscape="http://www.inkscape.org/namespaces/inkscape"
   width="715.87646"
   height="628.17236"
   id="svg2"
   version="1.1"
   inkscape:version="0.48.5 r10040"
   sodipodi:docname="Flat Forest Landscape.svg">
  <defs
     id="defs4" />
  <sodipodi:namedview
     id="base"
     pagecolor="#ffffff"
     bordercolor="#666666"
     borderopacity="1.0"
     inkscape:pageopacity="0.0"
     inkscape:pageshadow="2"
     inkscape:zoom="0.70710678"
     inkscape:cx="343.72705"
     inkscape:cy="268.96047"
     inkscape:document-units="px"
     inkscape:current-layer="layer1"
     showgrid="false"
     showborder="false"
     inkscape:window-width="1920"
     inkscape:window-height="1017"
     inkscape:window-x="-8"
     inkscape:window-y="-8"
     inkscape:window-maximized="1"
     fit-margin-top="0"
     fit-margin-left="0"
     fit-margin-right="0"
     fit-margin-bottom="0" />
  <metadata
     id="metadata7">
    <rdf:RDF>
      <cc:Work
         rdf:about="">
        <dc:format>image/svg+xml</dc:format>
        <dc:type
           rdf:resource="http://purl.org/dc/dcmitype/StillImage" />
        <dc:title />
      </cc:Work>
    </rdf:RDF>
  </metadata>
  <g
     inkscape:label="Layer 1"
     inkscape:groupmode="layer"
     id="layer1"
     transform="translate(92.938221,-91.60203)">
    <path
       style="fill:#d3f2ed;fill-opacity:1;stroke:none"
       d="m 265,91.60203 c -197.683827,0 -357.938221,160.25439 -357.938221,357.93822 0,75.54499 23.390429,145.61604 63.342524,203.37398 l 589.191397,0 C 599.54779,595.15629 622.93822,525.08524 622.93822,449.54025 622.93822,251.85642 462.68383,91.60203 265,91.60203 z"
       id="path3887"
       inkscape:connector-curvature="0" />
    <path
       style="fill:#ffffff;fill-opacity:1;stroke:none"
       d="m 81.803034,270.12832 c -8.246086,0 -15.16054,5.71336 -16.996468,13.39697 -2.911923,-2.17194 -6.522429,-3.45794 -10.434467,-3.45794 -9.649345,0 -17.471681,7.82234 -17.471681,17.47167 0,2.81094 0.670083,5.46409 1.8503,7.81574 l 82.424242,0 c 0.73783,-1.93313 1.14254,-4.03617 1.14254,-6.22833 0,-9.64933 -7.82233,-17.47166 -17.47168,-17.47166 -2.20185,0 -4.30819,0.40926 -6.248552,1.15264 -2.083617,-7.31862 -8.807267,-12.67909 -16.794234,-12.67909 z"
       id="path3910"
       inkscape:connector-curvature="0" />
    <path
       inkscape:connector-curvature="0"
       id="path3762"
       d="m 278.80516,165.32461 c -16.41101,0 -30.17189,11.37049 -33.82567,26.6621 -5.7952,-4.32249 -12.98068,-6.88185 -20.76625,-6.88185 -19.20373,0 -34.77141,15.5677 -34.77141,34.77141 0,5.59421 1.33357,10.8744 3.68237,15.55457 l 164.03735,0 c 1.46839,-3.84724 2.27382,-8.03262 2.27382,-12.39535 0,-19.20372 -15.56768,-34.77141 -34.77141,-34.77141 -4.38204,0 -8.57396,0.8145 -12.43561,2.29394 -4.14671,-14.56524 -17.52785,-25.23341 -33.42319,-25.23341 z"
       style="fill:#ffffff;fill-opacity:1;stroke:none" />
    <path
       style="fill:#ffffff;fill-opacity:1;stroke:none"
       d="m 500.29742,266.22881 c -5.83896,0 -10.73502,4.04556 -12.03501,9.48624 -2.06191,-1.53792 -4.61847,-2.44852 -7.38854,-2.44852 -6.8326,0 -12.37151,5.53891 -12.37151,12.3715 0,1.9904 0.47449,3.86907 1.31019,5.53424 l 58.36371,0 c 0.52245,-1.36883 0.80902,-2.85796 0.80902,-4.41021 0,-6.83258 -5.53891,-12.3715 -12.37151,-12.3715 -1.55911,0 -3.05058,0.2898 -4.42453,0.81617 -1.47539,-5.18225 -6.23633,-8.97792 -11.89182,-8.97792 z"
       id="path3764"
       inkscape:connector-curvature="0" />
    <g
       id="g3955"
       transform="translate(0,2.9999423)">
      <rect
         style="fill:#be6c34;fill-opacity:1;stroke:none"
         id="rect4881"
         width="9.9307127"
         height="45.042873"
         x="-14.422161"
         y="590.96082" />
      <path
         inkscape:connector-curvature="0"
         id="path4854"
         d="m -9.456885,529.23955 c -3.722897,0 -6.825903,2.60219 -7.632837,6.08013 -2.437921,-2.6047 -6.426007,-3.29787 -9.648485,-1.43752 -3.228048,1.86385 -4.632208,5.66832 -3.585117,9.08706 -3.414537,-1.03877 -7.209114,0.34458 -9.070211,3.56872 -1.8599,3.22111 -1.181968,7.21016 1.420815,9.64831 -3.470159,0.81207 -6.06336,3.93137 -6.06336,7.64957 0,3.71768 2.593201,6.82043 6.06336,7.63248 -2.602783,2.43816 -3.280715,6.42721 -1.420815,9.64834 1.861097,3.22363 5.655674,4.60747 9.070211,3.56871 -1.047091,3.41876 0.357069,7.2227 3.585117,9.08658 3.222478,1.86084 7.210564,1.16766 9.648485,-1.43703 0.806934,3.47694 3.90994,6.08011 7.632837,6.08011 3.72326,0 6.842815,-2.60217 7.649352,-6.08011 2.43791,2.60469 6.4260464,3.29787 9.6484778,1.43703 3.2235822,-1.86085 4.6074832,-5.65528 3.5686172,-9.07003 3.418245,1.04729 7.223,-0.35713 9.086757,-3.58526 1.860515,-3.22213 1.167324,-7.21067 -1.437352,-9.64834 3.47586,-0.80805 6.063348,-3.91129 6.063348,-7.63248 0,-3.72222 -2.587488,-6.84151 -6.063348,-7.64957 2.604676,-2.43815 3.297867,-6.42617 1.437352,-9.64831 -1.863905,-3.22865 -5.66826,-4.61653 -9.086757,-3.56872 1.047744,-3.41874 -0.34022,-7.22272 -3.5686172,-9.08706 -3.2224314,-1.86035 -7.2105678,-1.16718 -9.6484778,1.43752 -0.806537,-3.47794 -3.926092,-6.08013 -7.649352,-6.08013 z"
         style="fill:#37c8ab;fill-opacity:1;stroke:none" />
    </g>
    <g
       id="g3943"
       transform="translate(0,2.9999423)">
      <rect
         y="590.96082"
         x="351.89081"
         height="45.042873"
         width="9.9307127"
         id="rect3858"
         style="fill:#be6c34;fill-opacity:1;stroke:none" />
      <path
         style="fill:#37c8ab;fill-opacity:1;stroke:none"
         d="m 356.85608,529.23955 c -3.7229,0 -6.8259,2.60219 -7.63284,6.08013 -2.43792,-2.6047 -6.42602,-3.29787 -9.64848,-1.43752 -3.22806,1.86385 -4.63221,5.66832 -3.58511,9.08706 -3.41454,-1.03877 -7.20912,0.34458 -9.07023,3.56872 -1.8599,3.22111 -1.18196,7.21016 1.42082,9.64831 -3.47017,0.81207 -6.06335,3.93137 -6.06335,7.64957 0,3.71768 2.59318,6.82043 6.06335,7.63248 -2.60278,2.43816 -3.28072,6.42721 -1.42082,9.64834 1.86111,3.22363 5.65569,4.60747 9.07023,3.56871 -1.0471,3.41876 0.35705,7.2227 3.58511,9.08658 3.22246,1.86084 7.21056,1.16766 9.64848,-1.43703 0.80694,3.47694 3.90994,6.08011 7.63284,6.08011 3.72326,0 6.84281,-2.60217 7.64935,-6.08011 2.43791,2.60469 6.42604,3.29787 9.64847,1.43703 3.22357,-1.86085 4.60749,-5.65528 3.56862,-9.07003 3.41825,1.04729 7.22301,-0.35713 9.08676,-3.58526 1.86051,-3.22213 1.16732,-7.21067 -1.43735,-9.64834 3.47587,-0.80805 6.06335,-3.91129 6.06335,-7.63248 0,-3.72222 -2.58748,-6.84151 -6.06335,-7.64957 2.60467,-2.43815 3.29786,-6.42617 1.43735,-9.64831 -1.8639,-3.22865 -5.66826,-4.61653 -9.08676,-3.56872 1.04775,-3.41874 -0.3402,-7.22272 -3.56862,-9.08706 -3.22243,-1.86035 -7.21056,-1.16718 -9.64847,1.43752 -0.80654,-3.47794 -3.92609,-6.08013 -7.64935,-6.08013 z"
         id="path3860"
         inkscape:connector-curvature="0" />
    </g>
    <g
       id="g3947"
       transform="translate(0,3.0001445)">
      <rect
         y="533.05475"
         x="171.23402"
         height="102.94874"
         width="22.697363"
         id="rect3870"
         style="fill:#be6c34;fill-opacity:1;stroke:none" />
      <path
         style="fill:#37c8ab;fill-opacity:1;stroke:none"
         d="m 182.58253,391.98652 c -8.50897,0 -15.60111,5.94748 -17.44541,13.89655 -5.57203,-5.95321 -14.68709,-7.53752 -22.05231,-3.28558 -7.37794,4.26 -10.58725,12.95538 -8.19405,20.76917 -7.80416,-2.37417 -16.47695,0.78756 -20.73062,8.15655 -4.25094,7.36213 -2.70147,16.47937 3.24737,22.05197 -7.9313,1.85602 -13.85824,8.98539 -13.85824,17.48359 0,8.49704 5.92694,15.58862 13.85824,17.44463 -5.94884,5.57259 -7.49831,14.68983 -3.24737,22.05194 4.25367,7.36784 12.92646,10.53074 20.73062,8.15656 -2.3932,7.8138 0.81611,16.50802 8.19405,20.76801 7.36522,4.25311 16.48028,2.66877 22.05231,-3.2844 1.8443,7.94675 8.93644,13.89653 17.44541,13.89653 8.50977,0 15.63974,-5.94748 17.48313,-13.89653 5.57203,5.95317 14.68721,7.53751 22.05231,3.2844 7.36773,-4.25311 10.53072,-12.92555 8.15632,-20.73018 7.81267,2.39367 16.50871,-0.81623 20.76846,-8.19439 4.25231,-7.36441 2.66801,-16.48052 -3.28521,-22.05194 7.94437,-1.84685 13.85826,-8.93957 13.85826,-17.44463 0,-8.50737 -5.91389,-15.63676 -13.85826,-17.48359 5.95322,-5.5726 7.53752,-14.68755 3.28521,-22.05197 -4.26007,-7.37929 -12.95522,-10.55136 -20.76846,-8.15655 2.39471,-7.81379 -0.77759,-16.50802 -8.15632,-20.76917 -7.3651,-4.25194 -16.48028,-2.66763 -22.05231,3.28558 -1.84339,-7.94907 -8.97336,-13.89655 -17.48313,-13.89655 z"
         id="path3872"
         inkscape:connector-curvature="0" />
    </g>
    <path
       style="fill:#87decd;fill-opacity:1;stroke:none"
       d="m -18.887921,639.00363 c -7.457832,0 -13.461791,6.00397 -13.461791,13.46179 0,7.45784 6.003959,13.4618 13.461791,13.4618 l 79.252221,0 40.59059,0 28.56528,0 c 7.45784,0 13.46179,6.00396 13.46179,13.4618 0,7.45782 -6.00395,13.46178 -13.46179,13.46178 l -69.15587,0 -10.065574,0 c -7.457824,0 -13.461785,6.00397 -13.461785,13.4618 0,7.45784 6.003961,13.46179 13.461785,13.46179 l 10.065574,0 109.77724,0 34.32143,0 121.07409,0 144.09865,0 10.06554,0 c 7.45785,0 13.4618,-6.00395 13.4618,-13.46179 0,-7.45783 -6.00395,-13.4618 -13.4618,-13.4618 l -79.22142,0 c -7.4578,0 -13.4618,-6.00396 -13.4618,-13.46178 0,-7.45784 6.004,-13.4618 13.4618,-13.4618 l 69.15588,0 79.25221,0 c 7.45786,0 13.4618,-6.00396 13.4618,-13.4618 0,-7.45782 -6.00394,-13.46179 -13.4618,-13.46179 l -79.25221,0 -144.09865,0 -121.07409,0 -103.50808,0 -40.59059,0 -79.252221,0 z"
       id="rect3751"
       inkscape:connector-curvature="0" />
    <rect
       y="540.47229"
       x="501.35995"
       height="98.531349"
       width="23.280008"
       id="rect5008"
       style="fill:#be6c34;fill-opacity:1;stroke:none" />
    <rect
       transform="matrix(0.78431123,0.62036755,-0.62036755,0.78431123,0,0)"
       style="fill:#be6c34;fill-opacity:1;stroke:none"
       id="rect5010"
       width="6.7300658"
       height="30.52565"
       x="785.25348"
       y="125.81355" />
    <path
       transform="matrix(0.22307847,0,0,0.22307847,-988.75975,-3563.1162)"
       sodipodi:type="arc"
       style="fill:#37c8ab;fill-opacity:1;stroke:none"
       id="path5012"
       sodipodi:cx="6875.1992"
       sodipodi:cy="18565.275"
       sodipodi:rx="70.003571"
       sodipodi:ry="70.003571"
       d="m 6945.2028,18565.275 c 0,38.662 -31.3417,70.004 -70.0036,70.004 -38.6619,0 -70.0036,-31.342 -70.0036,-70.004 0,-38.662 31.3417,-70.003 70.0036,-70.003 38.6619,0 70.0036,31.341 70.0036,70.003 z" />
    <path
       d="m 6945.2028,18565.275 c 0,38.662 -31.3417,70.004 -70.0036,70.004 -38.6619,0 -70.0036,-31.342 -70.0036,-70.004 0,-38.662 31.3417,-70.003 70.0036,-70.003 38.6619,0 70.0036,31.341 70.0036,70.003 z"
       sodipodi:ry="70.003571"
       sodipodi:rx="70.003571"
       sodipodi:cy="18565.275"
       sodipodi:cx="6875.1992"
       id="path3847"
       style="fill:#37c8ab;fill-opacity:1;stroke:none"
       sodipodi:type="arc"
       transform="matrix(0.73027733,0,0,0.73027733,-4507.8021,-13058.917)" />
    <rect
       y="755.84918"
       x="-29.282621"
       height="20.831078"
       width="4.592679"
       id="rect3023"
       style="fill:#be6c34;fill-opacity:1;stroke:none"
       transform="matrix(-0.78431123,0.62036755,0.62036755,0.78431123,0,0)" />
    <path
       d="m 6945.2028,18565.275 c 0,38.662 -31.3417,70.004 -70.0036,70.004 -38.6619,0 -70.0036,-31.342 -70.0036,-70.004 0,-38.662 31.3417,-70.003 70.0036,-70.003 38.6619,0 70.0036,31.341 70.0036,70.003 z"
       sodipodi:ry="70.003571"
       sodipodi:rx="70.003571"
       sodipodi:cy="18565.275"
       sodipodi:cx="6875.1992"
       id="path3025"
       style="fill:#37c8ab;fill-opacity:1;stroke:none"
       sodipodi:type="arc"
       transform="matrix(-0.15223147,0,0,0.15223147,1533.6362,-2256.6316)" />
    <g
       id="g4014"
       transform="translate(-23.334524,3.6304038)">
      <rect
         y="609.07349"
         x="113.20616"
         height="26.29974"
         width="6.2138414"
         id="rect4002"
         style="fill:#be6c34;fill-opacity:1;stroke:none" />
      <rect
         transform="matrix(0.78431123,0.62036755,-0.62036755,0.78431123,0,0)"
         style="fill:#be6c34;fill-opacity:1;stroke:none"
         id="rect4004"
         width="1.7963723"
         height="8.14783"
         x="481.78317"
         y="410.92834" />
      <path
         transform="matrix(0.05954354,0,0,0.05954354,-284.53284,-486.246)"
         sodipodi:type="arc"
         style="fill:#37c8ab;fill-opacity:1;stroke:none"
         id="path4006"
         sodipodi:cx="6875.1992"
         sodipodi:cy="18565.275"
         sodipodi:rx="70.003571"
         sodipodi:ry="70.003571"
         d="m 6945.2028,18565.275 c 0,38.662 -31.3417,70.004 -70.0036,70.004 -38.6619,0 -70.0036,-31.342 -70.0036,-70.004 0,-38.662 31.3417,-70.003 70.0036,-70.003 38.6619,0 70.0036,31.341 70.0036,70.003 z" />
      <path
         d="m 6945.2028,18565.275 c 0,38.662 -31.3417,70.004 -70.0036,70.004 -38.6619,0 -70.0036,-31.342 -70.0036,-70.004 0,-38.662 31.3417,-70.003 70.0036,-70.003 38.6619,0 70.0036,31.341 70.0036,70.003 z"
         sodipodi:ry="70.003571"
         sodipodi:rx="70.003571"
         sodipodi:cy="18565.275"
         sodipodi:cx="6875.1992"
         id="path4008"
         style="fill:#37c8ab;fill-opacity:1;stroke:none"
         sodipodi:type="arc"
         transform="matrix(0.19492379,0,0,0.19492379,-1223.8267,-3020.8413)" />
      <rect
         y="553.5174"
         x="296.70728"
         height="5.5601788"
         width="1.2258663"
         id="rect4010"
         style="fill:#be6c34;fill-opacity:1;stroke:none"
         transform="matrix(-0.78431123,0.62036755,0.62036755,0.78431123,0,0)" />
      <path
         d="m 6945.2028,18565.275 c 0,38.662 -31.3417,70.004 -70.0036,70.004 -38.6619,0 -70.0036,-31.342 -70.0036,-70.004 0,-38.662 31.3417,-70.003 70.0036,-70.003 38.6619,0 70.0036,31.341 70.0036,70.003 z"
         sodipodi:ry="70.003571"
         sodipodi:rx="70.003571"
         sodipodi:cy="18565.275"
         sodipodi:cx="6875.1992"
         id="path4012"
         style="fill:#37c8ab;fill-opacity:1;stroke:none"
         sodipodi:type="arc"
         transform="matrix(-0.04063324,0,0,0.04063324,388.73873,-137.52242)" />
    </g>
    <path
       inkscape:connector-curvature="0"
       id="path4022"
       d="m 358.80303,310.12832 c -8.24608,0 -15.16054,5.71336 -16.99646,13.39697 -2.91193,-2.17194 -6.52243,-3.45794 -10.43447,-3.45794 -9.64935,0 -17.47168,7.82234 -17.47168,17.47167 0,2.81094 0.67008,5.46409 1.8503,7.81574 l 82.42424,0 c 0.73783,-1.93313 1.14254,-4.03617 1.14254,-6.22833 0,-9.64933 -7.82233,-17.47166 -17.47168,-17.47166 -2.20185,0 -4.30819,0.40926 -6.24855,1.15264 -2.08362,-7.31862 -8.80727,-12.67909 -16.79424,-12.67909 z"
       style="fill:#ffffff;fill-opacity:1;stroke:none" />
  </g>
</svg>
