<?xml version="1.0" encoding="UTF-8" standalone="no"?>
<!-- Created with Inkscape (http://www.inkscape.org/) -->

<svg
   xmlns:dc="http://purl.org/dc/elements/1.1/"
   xmlns:cc="http://creativecommons.org/ns#"
   xmlns:rdf="http://www.w3.org/1999/02/22-rdf-syntax-ns#"
   xmlns:svg="http://www.w3.org/2000/svg"
   xmlns="http://www.w3.org/2000/svg"
   xmlns:sodipodi="http://sodipodi.sourceforge.net/DTD/sodipodi-0.dtd"
   xmlns:inkscape="http://www.inkscape.org/namespaces/inkscape"
   width="396"
   height="396.01282"
   id="svg2"
   version="1.1"
   inkscape:version="0.48.5 r10040"
   sodipodi:docname="New document 1">
  <defs
     id="defs4" />
  <sodipodi:namedview
     id="base"
     pagecolor="#ffffff"
     bordercolor="#666666"
     borderopacity="1.0"
     inkscape:pageopacity="0.0"
     inkscape:pageshadow="2"
     inkscape:zoom="0.70710678"
     inkscape:cx="72.4331"
     inkscape:cy="8.1323044"
     inkscape:document-units="px"
     inkscape:current-layer="layer1"
     showgrid="false"
     showborder="true"
     inkscape:snap-object-midpoints="true"
     inkscape:window-width="1920"
     inkscape:window-height="1017"
     inkscape:window-x="-8"
     inkscape:window-y="-8"
     inkscape:window-maximized="1"
     inkscape:snap-global="false"
     inkscape:object-nodes="true"
     inkscape:object-paths="true"
     fit-margin-top="0"
     fit-margin-left="0"
     fit-margin-right="0"
     fit-margin-bottom="0" />
  <metadata
     id="metadata7">
    <rdf:RDF>
      <cc:Work
         rdf:about="">
        <dc:format>image/svg+xml</dc:format>
        <dc:type
           rdf:resource="http://purl.org/dc/dcmitype/StillImage" />
        <dc:title></dc:title>
      </cc:Work>
    </rdf:RDF>
  </metadata>
  <g
     inkscape:label="Layer 1"
     inkscape:groupmode="layer"
     id="layer1"
     transform="translate(1771,960.63782)">
    <path
       sodipodi:type="arc"
       style="color:#000000;fill:#aaeeff;fill-opacity:1;fill-rule:nonzero;stroke:#1a1a1a;stroke-width:6;stroke-linecap:round;stroke-linejoin:round;stroke-miterlimit:4;stroke-dasharray:none;marker:none;visibility:visible;display:inline;overflow:visible;enable-background:accumulate"
       id="path3764"
       sodipodi:cx="-1666"
       sodipodi:cy="-788.63782"
       sodipodi:rx="195"
       sodipodi:ry="195"
       d="m -1471,-788.63782 c 0,107.69553 -87.3045,195 -195,195 -107.6955,0 -195,-87.30447 -195,-195 0,-107.69552 87.3045,-195 195,-195 107.6955,0 195,87.30448 195,195 z"
       transform="translate(93,26)" />
    <path
       style="color:#000000;fill:#ffdd55;fill-opacity:1;fill-rule:nonzero;stroke:#000000;stroke-width:6;stroke-linecap:round;stroke-linejoin:round;stroke-miterlimit:4;stroke-dasharray:none;marker:none;visibility:visible;display:inline;overflow:visible;enable-background:accumulate"
       d="m -1622.5312,-951.28125 c -40.2626,10.54602 -75.4503,33.63209 -101.125,64.84375 8.8128,23.08206 31.1339,39.5 57.3124,39.5 33.8865,0 61.375,-27.48856 61.375,-61.375 0,-16.73631 -6.6972,-31.89914 -17.5624,-42.96875 z"
       id="path3773"
       inkscape:connector-curvature="0" />
    <path
       style="color:#000000;fill:#ffffff;fill-opacity:1;fill-rule:nonzero;stroke:#000000;stroke-width:6;stroke-linecap:round;stroke-linejoin:round;stroke-miterlimit:4;stroke-dasharray:none;marker:none;visibility:visible;display:inline;overflow:visible;enable-background:accumulate"
       d="m -1712.8125,-894.1875 c -1.4235,0 -2.8471,0.0429 -4.25,0.125 -25.8111,28.27678 -43.3909,64.18263 -49,103.9375 l 171.3437,0 c -4.978,-19.58258 -22.7106,-34.0625 -43.8437,-34.0625 -0.9628,0 -1.9271,0.0345 -2.875,0.0937 -0.7004,-38.83697 -32.3707,-70.09375 -71.375,-70.09375 z"
       id="path3789"
       inkscape:connector-curvature="0" />
    <path
       style="color:#000000;fill:#ffffff;fill-opacity:1;fill-rule:nonzero;stroke:#000000;stroke-width:6;stroke-linecap:round;stroke-linejoin:round;stroke-miterlimit:4;stroke-dasharray:none;marker:none;visibility:visible;display:inline;overflow:visible;enable-background:accumulate"
       d="m -1443.1562,-908.09375 c -11.2742,5.33331 -19.0626,16.79333 -19.0626,30.09375 0,3.53741 0.5405,6.95789 1.5626,10.15625 -14.4295,1.66319 -25.6553,13.77835 -25.9063,28.59375 l 92.9375,0 c -11.3267,-26.47997 -28.3583,-49.93248 -49.5312,-68.84375 z"
       id="path3802"
       inkscape:connector-curvature="0" />
    <path
       style="color:#000000;fill:#e9c6af;fill-opacity:1;fill-rule:nonzero;stroke:#000000;stroke-width:6;stroke-linecap:round;stroke-linejoin:round;stroke-miterlimit:4;stroke-dasharray:none;marker:none;visibility:visible;display:inline;overflow:visible;enable-background:accumulate"
       d="m -1488,-637.625 c -47.6335,0 -88.9043,16.66958 -109.0625,41 l 126.4063,0 c 14.614,-9.02812 27.941,-19.93134 39.6562,-32.375 -17.02,-5.50187 -36.4097,-8.625 -57,-8.625 z"
       id="path3822"
       inkscape:connector-curvature="0" />
    <path
       style="color:#000000;fill:#803300;fill-opacity:1;fill-rule:nonzero;stroke:#000000;stroke-width:6;stroke-linecap:round;stroke-linejoin:round;stroke-miterlimit:4;stroke-dasharray:none;marker:none;visibility:visible;display:inline;overflow:visible;enable-background:accumulate"
       d="m -1656.4688,-623.125 c -16.3578,0 -31.704,2.59443 -45.0312,7.15625 10.3721,9.09398 21.7337,17.09131 33.875,23.84375 l 93.625,0 c -15.2415,-18.39617 -46.4532,-31 -82.4688,-31 z"
       id="path3825"
       inkscape:connector-curvature="0" />
    <rect
       style="color:#000000;fill:#87decd;fill-opacity:1;fill-rule:nonzero;stroke:#000000;stroke-width:6;stroke-miterlimit:4;stroke-dasharray:none;marker:none;visibility:visible;display:inline;overflow:visible;enable-background:accumulate"
       id="rect3828"
       width="25"
       height="133.10811"
       x="-1589"
       y="-750.69189"
       ry="12.5" />
    <path
       style="color:#000000;fill:#87decd;fill-opacity:1;fill-rule:nonzero;stroke:#000000;stroke-width:6;stroke-miterlimit:4;stroke-dasharray:none;marker:none;visibility:visible;display:inline;overflow:visible;enable-background:accumulate"
       d="m -1532.4688,-718.09375 c -3.8779,0 -7,3.122 -7,7 l 0,31.4375 -31.5624,0 c -3.878,0 -7,3.122 -7,7 0,3.878 3.122,7 7,7 l 38.4687,0 c 0.033,4.5e-4 0.061,0 0.094,0 0.3767,-0.005 0.7341,-0.0319 1.0938,-0.0937 0.07,-0.0108 0.1492,-0.0184 0.2188,-0.0312 0.043,-0.009 0.082,-0.0217 0.125,-0.0312 0.4149,-0.0845 0.8032,-0.22103 1.1874,-0.375 2.5754,-1.03183 4.375,-3.51609 4.375,-6.46875 l 0,-38.4375 c 0,-3.878 -3.122,-7 -7,-7 z"
       id="path3833"
       inkscape:connector-curvature="0" />
    <path
       style="color:#000000;fill:#87decd;fill-opacity:1;fill-rule:nonzero;stroke:#000000;stroke-width:6;stroke-miterlimit:4;stroke-dasharray:none;marker:none;visibility:visible;display:inline;overflow:visible;enable-background:accumulate"
       d="m -1627.5625,-699.09375 c -3.878,0 -7,3.122 -7,7 l 0,38.4375 c 0,2.95266 1.7996,5.43692 4.375,6.46875 0.3843,0.15397 0.8038,0.29052 1.2187,0.375 0.1031,0.0229 0.2078,0.0441 0.3126,0.0625 0.1261,0.0197 0.2466,0.0495 0.375,0.0625 0.2764,0.0329 0.5581,0.0312 0.8437,0.0312 l 38.4375,0 c 3.878,0 7,-3.122 7,-7 0,-3.878 -3.122,-7 -7,-7 l -31.5625,0 0,-31.4375 c 0,-3.878 -3.122,-7 -7,-7 z"
       id="path3835"
       inkscape:connector-curvature="0" />
    <path
       style="color:#000000;fill:#ff9955;fill-opacity:1;fill-rule:nonzero;stroke:#000000;stroke-width:6;stroke-linecap:round;stroke-linejoin:round;stroke-miterlimit:4;stroke-dasharray:none;marker:none;visibility:visible;display:inline;overflow:visible;enable-background:accumulate"
       d="m -1574,-619.625 c -38.8918,0 -74.6143,8.28197 -102.7188,22.125 30.0442,18.91112 65.5965,29.875 103.7188,29.875 37.7478,0 72.9875,-10.74248 102.8438,-29.3125 -28.2736,-14.17983 -64.4296,-22.6875 -103.8438,-22.6875 z"
       id="path3819"
       inkscape:connector-curvature="0" />
  </g>
</svg>
