<?xml version="1.0" encoding="UTF-8" standalone="no"?>
<!-- Created with Inkscape (http://www.inkscape.org/) -->

<svg
   xmlns:dc="http://purl.org/dc/elements/1.1/"
   xmlns:cc="http://creativecommons.org/ns#"
   xmlns:rdf="http://www.w3.org/1999/02/22-rdf-syntax-ns#"
   xmlns:svg="http://www.w3.org/2000/svg"
   xmlns="http://www.w3.org/2000/svg"
   xmlns:sodipodi="http://sodipodi.sourceforge.net/DTD/sodipodi-0.dtd"
   xmlns:inkscape="http://www.inkscape.org/namespaces/inkscape"
   width="386"
   height="590.00171"
   viewBox="0 0 386 590.00172"
   id="svg2"
   version="1.1"
   inkscape:version="0.91 r13725"
   inkscape:export-filename="C:\Users\brayan.bedritchuk\Desktop\path4146.png"
   inkscape:export-xdpi="119.38"
   inkscape:export-ydpi="119.38"
   sodipodi:docname="Material Clock.svg">
  <defs
     id="defs4" />
  <sodipodi:namedview
     id="base"
     pagecolor="#ffffff"
     bordercolor="#666666"
     borderopacity="1.0"
     inkscape:pageopacity="1"
     inkscape:pageshadow="2"
     inkscape:zoom="0.5"
     inkscape:cx="389.99639"
     inkscape:cy="523.39139"
     inkscape:document-units="px"
     inkscape:current-layer="layer1"
     showgrid="false"
     showborder="true"
     inkscape:object-paths="true"
     inkscape:snap-intersection-paths="true"
     inkscape:object-nodes="true"
     inkscape:snap-smooth-nodes="true"
     inkscape:snap-midpoints="true"
     inkscape:snap-nodes="false"
     units="px"
     fit-margin-top="16"
     fit-margin-left="16"
     fit-margin-right="16"
     fit-margin-bottom="16"
     inkscape:window-width="1680"
     inkscape:window-height="987"
     inkscape:window-x="-8"
     inkscape:window-y="-8"
     inkscape:window-maximized="1" />
  <metadata
     id="metadata7">
    <rdf:RDF>
      <cc:Work
         rdf:about="">
        <dc:format>image/svg+xml</dc:format>
        <dc:type
           rdf:resource="http://purl.org/dc/dcmitype/StillImage" />
        <dc:title></dc:title>
      </cc:Work>
    </rdf:RDF>
  </metadata>
  <g
     inkscape:label="Layer 1"
     inkscape:groupmode="layer"
     id="layer1"
     transform="translate(411,-314.36133)">
    <path
       style="opacity:1;fill:#333333;fill-opacity:1;stroke:none;stroke-width:1;stroke-miterlimit:4;stroke-dasharray:none;stroke-opacity:1"
       d="m -291,330.36133 -26.55273,119.86328 A 177,177 0 0 1 -218,419.36133 a 177,177 0 0 1 99.50391,30.64844 L -145,330.36133 l -146,0 z"
       id="rect4136"
       inkscape:connector-curvature="0" />
    <path
       style="opacity:1;fill:#333333;fill-opacity:1;stroke:none;stroke-width:1;stroke-miterlimit:4;stroke-dasharray:none;stroke-opacity:1"
       d="m -218,432.36133 a 177,177 0 0 0 -177,177 177,177 0 0 0 177,177 177,177 0 0 0 177,-177 177,177 0 0 0 -177,-177 z"
       id="circle4141"
       inkscape:connector-curvature="0" />
    <path
       inkscape:connector-curvature="0"
       id="path4146"
       d="m -145,888.36303 26.55273,-119.86328 A 177,177 0 0 1 -218,799.36303 177,177 0 0 1 -317.50391,768.71459 L -291,888.36303 l 146,0 z"
       style="opacity:1;fill:#333333;fill-opacity:1;stroke:none;stroke-width:1;stroke-miterlimit:4;stroke-dasharray:none;stroke-opacity:1" />
    <path
       id="path4151"
       d="M -218,457.81717 A 151.54416,151.54416 0 0 0 -369.54416,609.36133 151.54416,151.54416 0 0 0 -218,760.90549 151.54416,151.54416 0 0 0 -66.455844,609.36133 151.54416,151.54416 0 0 0 -218,457.81717 Z"
       style="opacity:1;fill:#5599ff;fill-opacity:1;stroke:none;stroke-width:1;stroke-miterlimit:4;stroke-dasharray:none;stroke-opacity:1"
       inkscape:connector-curvature="0" />
    <path
       style="opacity:1;fill:#65a2ff;fill-opacity:1;stroke:none;stroke-width:1;stroke-miterlimit:4;stroke-dasharray:none;stroke-opacity:1"
       d="M -143.2793,477.73633 -294.63281,739.89062 A 151.54416,151.54416 0 0 0 -218,760.90625 151.54416,151.54416 0 0 0 -66.455078,609.36133 151.54416,151.54416 0 0 0 -143.2793,477.73633 Z"
       id="rect4153"
       inkscape:connector-curvature="0" />
  </g>
</svg>
