<?xml version="1.0" encoding="UTF-8" standalone="no"?>
<!-- Created with Inkscape (http://www.inkscape.org/) -->

<svg
   xmlns:dc="http://purl.org/dc/elements/1.1/"
   xmlns:cc="http://creativecommons.org/ns#"
   xmlns:rdf="http://www.w3.org/1999/02/22-rdf-syntax-ns#"
   xmlns:svg="http://www.w3.org/2000/svg"
   xmlns="http://www.w3.org/2000/svg"
   xmlns:sodipodi="http://sodipodi.sourceforge.net/DTD/sodipodi-0.dtd"
   xmlns:inkscape="http://www.inkscape.org/namespaces/inkscape"
   width="257.57895"
   height="281.80298"
   viewBox="0 0 257.57895 281.80299"
   id="svg4284"
   version="1.1"
   inkscape:version="0.91 r13725"
   inkscape:export-filename="C:\Users\brayan.bedritchuk\Desktop\g4265.png"
   inkscape:export-xdpi="248.3"
   inkscape:export-ydpi="248.3"
   sodipodi:docname="Bottled Water.svg">
  <defs
     id="defs4286">
    <filter
       inkscape:collect="always"
       style="color-interpolation-filters:sRGB"
       id="filter4988"
       x="-0.078336209"
       width="1.1566724"
       y="-0.071022138"
       height="1.1420443">
      <feGaussianBlur
         inkscape:collect="always"
         stdDeviation="9.5823381"
         id="feGaussianBlur4990" />
    </filter>
  </defs>
  <sodipodi:namedview
     id="base"
     pagecolor="#ffffff"
     bordercolor="#666666"
     borderopacity="1.0"
     inkscape:pageopacity="1"
     inkscape:pageshadow="2"
     inkscape:zoom="0.84733863"
     inkscape:cx="-157.3502"
     inkscape:cy="203.10265"
     inkscape:document-units="px"
     inkscape:current-layer="layer1"
     showgrid="false"
     units="px"
     fit-margin-left="36"
     fit-margin-right="36"
     fit-margin-bottom="36"
     fit-margin-top="36"
     inkscape:window-width="1680"
     inkscape:window-height="987"
     inkscape:window-x="-8"
     inkscape:window-y="-8"
     inkscape:window-maximized="1" />
  <metadata
     id="metadata4289">
    <rdf:RDF>
      <cc:Work
         rdf:about="">
        <dc:format>image/svg+xml</dc:format>
        <dc:type
           rdf:resource="http://purl.org/dc/dcmitype/StillImage" />
        <dc:title></dc:title>
      </cc:Work>
    </rdf:RDF>
  </metadata>
  <g
     inkscape:label="Layer 1"
     inkscape:groupmode="layer"
     id="layer1"
     transform="translate(2114.7772,-118.42702)">
    <g
       id="g4992"
       transform="translate(-125.09757,-86.152097)">
      <g
         style="opacity:0.25899999;fill:#000000;filter:url(#filter4988)"
         id="g4954"
         transform="matrix(-0.39717351,-0.17508756,-0.22930823,0.30326055,-2583.3502,-115.17505)">
        <rect
           transform="scale(1,-1)"
           style="opacity:1;fill:#000000;fill-opacity:1;stroke:none;stroke-width:6;stroke-miterlimit:4;stroke-dasharray:none;stroke-opacity:1"
           id="rect4956"
           width="68.137947"
           height="47.948895"
           x="-2120.7104"
           y="-290.40775"
           ry="3.6125875" />
        <rect
           ry="22.304123"
           y="286.86087"
           x="-2166.1094"
           height="296.03653"
           width="160.11642"
           id="rect4958"
           style="opacity:1;fill:#000000;fill-opacity:1;stroke:none;stroke-width:6;stroke-miterlimit:4;stroke-dasharray:none;stroke-opacity:1" />
        <rect
           style="opacity:1;fill:#000000;fill-opacity:1;stroke:none;stroke-width:6;stroke-miterlimit:4;stroke-dasharray:none;stroke-opacity:1"
           id="rect4960"
           width="145.62433"
           height="285.19397"
           x="-2158.8633"
           y="292.28217"
           ry="21.487215" />
        <path
           inkscape:connector-curvature="0"
           id="path4962"
           d="m -2135.8606,314.46988 a 5.8984225,5.8984225 0 0 0 -5.8982,5.8982 5.8984225,5.8984225 0 0 0 5.8982,5.89819 5.8984225,5.8984225 0 0 0 5.8982,-5.89819 5.8984225,5.8984225 0 0 0 -5.8982,-5.8982 z m 83.3327,4.84501 a 5.8984225,5.8984225 0 0 0 -5.8982,5.89819 5.8984225,5.8984225 0 0 0 5.8982,5.89819 5.8984225,5.8984225 0 0 0 5.8982,-5.89819 5.8984225,5.8984225 0 0 0 -5.8982,-5.89819 z m -44.8275,33.03116 a 5.8984225,5.8984225 0 0 0 -5.8983,5.8982 5.8984225,5.8984225 0 0 0 5.8983,5.89819 5.8984225,5.8984225 0 0 0 5.8982,-5.89819 5.8984225,5.8984225 0 0 0 -5.8982,-5.8982 z m 36.5697,27.13298 a 5.8984225,5.8984225 0 0 0 -5.8982,5.89819 5.8984225,5.8984225 0 0 0 5.8982,5.89819 5.8984225,5.8984225 0 0 0 5.8982,-5.89819 5.8984225,5.8984225 0 0 0 -5.8982,-5.89819 z m -46.713,27.52651 a 5.8984225,5.8984225 0 0 0 -5.8982,5.89819 5.8984225,5.8984225 0 0 0 5.8982,5.89819 5.8984225,5.8984225 0 0 0 5.8983,-5.89819 5.8984225,5.8984225 0 0 0 -5.8983,-5.89819 z m 66.7672,20.83963 a 5.8984225,5.8984225 0 0 0 -5.8982,5.89819 5.8984225,5.8984225 0 0 0 5.8982,5.89819 5.8984225,5.8984225 0 0 0 5.8982,-5.89819 5.8984225,5.8984225 0 0 0 -5.8982,-5.89819 z m -97.0452,2.30799 a 5.8984225,5.8984225 0 0 0 -5.8982,5.89981 5.8984225,5.8984225 0 0 0 5.8982,5.89819 5.8984225,5.8984225 0 0 0 5.8998,-5.89819 5.8984225,5.8984225 0 0 0 -5.8998,-5.89981 z m 39.4535,31.07316 a 5.8984225,5.8984225 0 0 0 -5.8982,5.8982 5.8984225,5.8984225 0 0 0 5.8982,5.89819 5.8984225,5.8984225 0 0 0 5.8982,-5.89819 5.8984225,5.8984225 0 0 0 -5.8982,-5.8982 z m 39.2052,13.10925 a 5.8984225,5.8984225 0 0 0 -5.8982,5.89819 5.8984225,5.8984225 0 0 0 5.8982,5.89819 5.8984225,5.8984225 0 0 0 5.8982,-5.89819 5.8984225,5.8984225 0 0 0 -5.8982,-5.89819 z m -56.7223,34.20048 a 5.8984225,5.8984225 0 0 0 -5.8983,5.8982 5.8984225,5.8984225 0 0 0 5.8983,5.8998 5.8984225,5.8984225 0 0 0 5.8982,-5.8998 5.8984225,5.8984225 0 0 0 -5.8982,-5.8982 z m 70.0686,34.20049 a 5.8984225,5.8984225 0 0 0 -5.8982,5.8998 5.8984225,5.8984225 0 0 0 5.8982,5.89819 5.8984225,5.8984225 0 0 0 5.8998,-5.89819 5.8984225,5.8984225 0 0 0 -5.8998,-5.8998 z m -34.2004,7.7449 a 5.8984225,5.8984225 0 0 0 -5.8982,5.89819 5.8984225,5.8984225 0 0 0 5.8982,5.8982 5.8984225,5.8984225 0 0 0 5.8997,-5.8982 5.8984225,5.8984225 0 0 0 -5.8997,-5.89819 z"
           style="opacity:1;fill:#000000;fill-opacity:1;stroke:none;stroke-width:6;stroke-miterlimit:4;stroke-dasharray:none;stroke-opacity:1" />
      </g>
      <g
         transform="matrix(0.60198369,0,0,0.60198369,-649.71709,94.622846)"
         id="g4852">
        <rect
           ry="3.6125875"
           y="-290.40775"
           x="-2120.7104"
           height="47.948895"
           width="68.137947"
           id="rect4199"
           style="opacity:1;fill:#0066ff;fill-opacity:1;stroke:none;stroke-width:6;stroke-miterlimit:4;stroke-dasharray:none;stroke-opacity:1"
           transform="scale(1,-1)" />
        <rect
           style="opacity:1;fill:#808080;fill-opacity:1;stroke:none;stroke-width:6;stroke-miterlimit:4;stroke-dasharray:none;stroke-opacity:1"
           id="rect4197"
           width="160.11642"
           height="296.03653"
           x="-2166.1094"
           y="286.86087"
           ry="22.304123" />
        <rect
           ry="21.487215"
           y="292.28217"
           x="-2158.8633"
           height="285.19397"
           width="145.62433"
           id="rect4201"
           style="opacity:1;fill:#80b3ff;fill-opacity:1;stroke:none;stroke-width:6;stroke-miterlimit:4;stroke-dasharray:none;stroke-opacity:1" />
        <path
           style="opacity:1;fill:#ffffff;fill-opacity:1;stroke:none;stroke-width:6;stroke-miterlimit:4;stroke-dasharray:none;stroke-opacity:1"
           d="m -2135.8606,314.46988 a 5.8984225,5.8984225 0 0 0 -5.8982,5.8982 5.8984225,5.8984225 0 0 0 5.8982,5.89819 5.8984225,5.8984225 0 0 0 5.8982,-5.89819 5.8984225,5.8984225 0 0 0 -5.8982,-5.8982 z m 83.3327,4.84501 a 5.8984225,5.8984225 0 0 0 -5.8982,5.89819 5.8984225,5.8984225 0 0 0 5.8982,5.89819 5.8984225,5.8984225 0 0 0 5.8982,-5.89819 5.8984225,5.8984225 0 0 0 -5.8982,-5.89819 z m -44.8275,33.03116 a 5.8984225,5.8984225 0 0 0 -5.8983,5.8982 5.8984225,5.8984225 0 0 0 5.8983,5.89819 5.8984225,5.8984225 0 0 0 5.8982,-5.89819 5.8984225,5.8984225 0 0 0 -5.8982,-5.8982 z m 36.5697,27.13298 a 5.8984225,5.8984225 0 0 0 -5.8982,5.89819 5.8984225,5.8984225 0 0 0 5.8982,5.89819 5.8984225,5.8984225 0 0 0 5.8982,-5.89819 5.8984225,5.8984225 0 0 0 -5.8982,-5.89819 z m -46.713,27.52651 a 5.8984225,5.8984225 0 0 0 -5.8982,5.89819 5.8984225,5.8984225 0 0 0 5.8982,5.89819 5.8984225,5.8984225 0 0 0 5.8983,-5.89819 5.8984225,5.8984225 0 0 0 -5.8983,-5.89819 z m 66.7672,20.83963 a 5.8984225,5.8984225 0 0 0 -5.8982,5.89819 5.8984225,5.8984225 0 0 0 5.8982,5.89819 5.8984225,5.8984225 0 0 0 5.8982,-5.89819 5.8984225,5.8984225 0 0 0 -5.8982,-5.89819 z m -97.0452,2.30799 a 5.8984225,5.8984225 0 0 0 -5.8982,5.89981 5.8984225,5.8984225 0 0 0 5.8982,5.89819 5.8984225,5.8984225 0 0 0 5.8998,-5.89819 5.8984225,5.8984225 0 0 0 -5.8998,-5.89981 z m 39.4535,31.07316 a 5.8984225,5.8984225 0 0 0 -5.8982,5.8982 5.8984225,5.8984225 0 0 0 5.8982,5.89819 5.8984225,5.8984225 0 0 0 5.8982,-5.89819 5.8984225,5.8984225 0 0 0 -5.8982,-5.8982 z m 39.2052,13.10925 a 5.8984225,5.8984225 0 0 0 -5.8982,5.89819 5.8984225,5.8984225 0 0 0 5.8982,5.89819 5.8984225,5.8984225 0 0 0 5.8982,-5.89819 5.8984225,5.8984225 0 0 0 -5.8982,-5.89819 z m -56.7223,34.20048 a 5.8984225,5.8984225 0 0 0 -5.8983,5.8982 5.8984225,5.8984225 0 0 0 5.8983,5.8998 5.8984225,5.8984225 0 0 0 5.8982,-5.8998 5.8984225,5.8984225 0 0 0 -5.8982,-5.8982 z m 70.0686,34.20049 a 5.8984225,5.8984225 0 0 0 -5.8982,5.8998 5.8984225,5.8984225 0 0 0 5.8982,5.89819 5.8984225,5.8984225 0 0 0 5.8998,-5.89819 5.8984225,5.8984225 0 0 0 -5.8998,-5.8998 z m -34.2004,7.7449 a 5.8984225,5.8984225 0 0 0 -5.8982,5.89819 5.8984225,5.8984225 0 0 0 5.8982,5.8982 5.8984225,5.8984225 0 0 0 5.8997,-5.8982 5.8984225,5.8984225 0 0 0 -5.8997,-5.89819 z"
           id="path4203"
           inkscape:connector-curvature="0" />
      </g>
    </g>
  </g>
</svg>
