<?xml version="1.0" encoding="UTF-8" standalone="no"?>
<!-- Created with Inkscape (http://www.inkscape.org/) -->

<svg
   xmlns:dc="http://purl.org/dc/elements/1.1/"
   xmlns:cc="http://creativecommons.org/ns#"
   xmlns:rdf="http://www.w3.org/1999/02/22-rdf-syntax-ns#"
   xmlns:svg="http://www.w3.org/2000/svg"
   xmlns="http://www.w3.org/2000/svg"
   version="1.1"
   width="210mm"
   height="297mm"
   viewBox="0 0 744.09449 1052.3622"
   id="svg2">
  <defs
     id="defs4" />
  <metadata
     id="metadata7">
    <rdf:RDF>
      <cc:Work
         rdf:about="">
        <dc:format>image/svg+xml</dc:format>
        <dc:type
           rdf:resource="http://purl.org/dc/dcmitype/StillImage" />
        <dc:title></dc:title>
      </cc:Work>
    </rdf:RDF>
  </metadata>
  <g
     id="layer1">
    <path
       d="m -38.788861,-679.58341 c -1.521932,0.26266 -3.012643,0.56565 -4.485535,0.88283 l -0.02998,0.005 -0.072,0.0124 a 7.2580085,9.9220598 46.627205 0 0 -0.251089,0.051 c -0.0048,10e-4 -0.0098,10e-4 -0.01394,0.002 a 7.2580085,9.9220598 46.627205 0 0 -0.867916,0.22034 c -47.006694,10.64466 -84.736399,50.09075 -107.054979,86.71695 -23.01744,37.77304 -36.47221,79.71707 -42.01027,120.35816 -3.76697,27.64395 -3.85732,54.62237 0.74143,78.95189 l -228.20916,66.64983 197.64786,-34.10838 8.6267,-1.48881 -209.77227,61.26516 197.64813,-34.11033 8.6347,-1.49019 -209.78027,61.26653 197.64812,-34.11033 8.64071,-1.49123 -209.78654,61.26953 197.64813,-34.11033 144.431789,-24.9262 1.794147,-0.30964 0.0035,-0.0254 c 0.913531,-0.17667 1.820771,-0.35956 2.717931,-0.55298 l 122.009957,-21.05662 a 7.2580085,9.9220598 46.627205 0 0 0.112536,-0.0232 c 1.445788,-0.18631 2.916555,-0.39082 4.444662,-0.65454 49.531378,-8.54818 89.556628,-49.78746 112.775518,-87.8911 23.01744,-37.77307 36.47222,-79.71709 42.01027,-120.35817 5.53806,-40.64109 3.14172,-79.84951 -10.442,-111.30589 -13.70261,-31.73171 -44.14595,-60.80943 -93.677322,-52.26125 -1.536116,0.26511 -3.028755,0.57137 -4.500068,0.88915 a 7.2580085,9.9220598 46.627205 0 0 -0.08748,0.0113 l -122.009956,21.05662 c -1.464836,0.18901 -2.953156,0.40094 -4.485197,0.66535 z m 35.7108639,2.12183 c 13.4673341,-2.32421 25.4212731,-1.57325 35.9292211,1.39373 l -36.8650077,6.3622 c -9.3344753,-2.63515 -19.8105603,-3.5205 -31.4760283,-2.05355 l 27.8242717,-4.80195 -0.00109,0.008 c 1.520766,-0.33446 3.0487245,-0.64249 4.5886076,-0.90824 z M 18.9398,-681.26144 c 45.287935,-7.81584 73.596548,18.93048 86.58241,49.00188 12.98579,30.07175 15.39469,68.02335 10.00436,107.58039 -5.39034,39.55704 -18.507504,80.18813 -40.511766,116.29851 -22.004282,36.1104 -59.141248,74.15104 -104.429182,81.96688 -1.539885,0.26576 -3.05545,0.48284 -4.55614,0.66997 l -0.0011,0.008 -6.318514,1.09045 c 43.2518186,-9.46381 78.670568,-46.17361 99.943645,-81.08404 22.00427,-36.11039 35.121426,-76.74148 40.511767,-116.29852 5.39033,-39.55704 2.98144,-77.50863 -10.004365,-107.58038 -12.554289,-29.07249 -39.43341,-55.03084 -82.1272103,-49.66206 l 6.3185153,-1.09045 -0.0011,0.008 c 1.520768,-0.33447 3.048725,-0.64249 4.588609,-0.90825 z m 28.67434,-4.94865 c 45.287937,-7.81584 73.59655,18.93048 86.58241,49.00188 12.9858,30.07175 15.39469,68.02335 10.00436,107.58039 -5.39034,39.55704 -18.50749,80.18813 -40.51176,116.29851 -22.004285,36.1104 -59.141251,74.15104 -104.42918862,81.96688 -1.53988438,0.26576 -3.05544938,0.48284 -4.55613908,0.66997 l -0.00109,0.008 -6.3185143,1.09045 c 43.251818,-9.46381 78.67057,-46.17361 99.943645,-81.08404 22.004267,-36.11039 35.121427,-76.74148 40.511767,-116.29852 5.39033,-39.55704 2.98143,-77.50863 -10.00436,-107.58038 -12.55429,-29.07249 -39.433416,-55.03084 -82.127215,-49.66206 l 6.318514,-1.09045 -0.0011,0.008 c 1.520768,-0.33447 3.048725,-0.64249 4.588609,-0.90825 z m 43.523551,-7.51134 c 13.467339,-2.32421 25.421269,-1.57325 35.929219,1.39373 l -36.865007,6.36221 c -9.334477,-2.63516 -19.810559,-3.52051 -31.476027,-2.05356 l 27.824272,-4.80195 -0.0011,0.008 c 1.520753,-0.33436 3.048722,-0.64249 4.588608,-0.90824 z m -135.67024,23.52283 0.20601,-0.0355 c -0.06883,0.0148 -0.138133,0.0276 -0.207086,0.0434 l 0.0011,-0.008 z m 72.197891,-12.45999 0.206023,-0.0356 c -0.06882,0.0148 -0.138132,0.0276 -0.207085,0.0434 l 0.0011,-0.008 z m -8.226338,24.67983 36.851007,-6.35979 c 3.125687,2.37484 6.043242,4.97445 8.746812,7.76324 l -36.865008,6.3622 c -2.701706,-2.78639 -5.609626,-5.39256 -8.732811,-7.76565 z m 94.215686,-16.25985 36.85101,-6.35978 c 3.12569,2.37483 6.04324,4.97445 8.74681,7.76323 l -36.86501,6.3622 c -2.70169,-2.78638 -5.60962,-5.39257 -8.73281,-7.76565 z m -75.532999,36.40441 36.859008,-6.36117 c 2.140734,3.21387 4.079088,6.54295 5.806646,9.94708 l -36.871008,6.36324 c -1.727302,-3.40337 -3.654252,-6.73609 -5.794646,-9.94915 z m 94.215689,-16.25985 36.85901,-6.36117 c 2.14073,3.21387 4.07909,6.54295 5.80665,9.94708 l -36.87102,6.36324 c -1.7273,-3.40337 -3.65425,-6.73609 -5.79464,-9.94915 z m -83.375908,37.75986 36.867008,-6.36255 c 1.455639,3.87239 2.749389,7.86157 3.886567,11.95486 l -36.867008,6.36255 c -1.137178,-4.09329 -2.430929,-8.08246 -3.886567,-11.95486 z m 94.215688,-16.25985 36.86701,-6.36255 c 1.45564,3.87239 2.74939,7.86157 3.88657,11.95486 l -36.86701,6.36255 c -1.13718,-4.09329 -2.43093,-8.08246 -3.88657,-11.95486 z m -204.691334,46.72514 a 46.767628,95.4264 13.727339 0 1 36.486333,84.49317 46.767628,95.4264 13.727339 0 1 -61.825688,101.45996 46.767628,95.4264 13.727339 0 1 -36.486341,-84.49316 46.767628,95.4264 13.727339 0 1 61.825696,-101.45997 z m -1.311043,9.6211 a 41.928158,85.551769 13.727339 0 0 -55.430223,90.9614 41.928158,85.551769 13.727339 0 0 32.712686,75.75149 41.928158,85.551769 13.727339 0 0 31.190931,-24.70665 41.928158,85.551769 13.727339 0 1 -6.974981,-60.86965 41.928158,85.551769 13.727339 0 1 24.235304,-66.25407 41.928158,85.551769 13.727339 0 0 -25.733717,-14.88252 z m 118.160373,-17.81754 36.867008,-6.36255 c 0.94034,4.53212 1.706484,9.17241 2.308513,13.90363 l -36.867008,6.36255 c -0.602029,-4.73122 -1.368174,-9.37151 -2.308513,-13.90363 z m 94.215684,-16.25984 36.86701,-6.36255 c 0.94034,4.53211 1.70649,9.1724 2.30851,13.90363 l -36.867,6.36255 c -0.60203,-4.73123 -1.36818,-9.37152 -2.30852,-13.90363 z m -90.974258,39.06927 36.867009,-6.36255 c 0.427836,5.19349 0.651048,10.49049 0.714192,15.85711 l -36.867008,6.36255 c -0.06314,-5.36662 -0.286356,-10.66362 -0.714193,-15.85711 z m 94.215688,-16.25985 36.86701,-6.36255 c 0.42783,5.19349 0.65104,10.49049 0.71419,15.85711 l -36.86701,6.36255 c -0.0631,-5.36662 -0.28636,-10.66362 -0.71419,-15.85711 z m -93.526468,39.50974 36.867008,-6.36255 c -0.105747,5.86675 -0.403031,11.80792 -0.905866,17.81313 l -36.867008,6.36255 c 0.502835,-6.00521 0.800099,-11.94638 0.905866,-17.81313 z m 94.215688,-16.25985 36.86701,-6.36255 c -0.10575,5.86675 -0.40303,11.80792 -0.90587,17.81313 l -36.867,6.36255 c 0.50283,-6.00521 0.80012,-11.94638 0.90586,-17.81313 z m -95.674644,39.88047 36.867009,-6.36255 c -0.339771,3.27775 -0.714886,6.56483 -1.165088,9.86864 -0.450201,3.30381 -0.974438,6.61661 -1.533114,9.93214 l -36.867008,6.36255 c 0.558689,-3.31553 1.082914,-6.62834 1.533116,-9.93215 0.450201,-3.30381 0.825312,-6.59088 1.165085,-9.86863 z m 94.215684,-16.25985 36.86701,-6.36255 c -0.33976,3.27775 -0.71488,6.56483 -1.16508,9.86864 -0.4502,3.30381 -0.97443,6.61661 -1.53312,9.93214 l -36.86701,6.36255 c 0.55869,-3.31553 1.08292,-6.62833 1.53312,-9.93214 0.4502,-3.30381 0.82532,-6.59089 1.16508,-9.86864 z m -97.955018,41.95236 36.867008,-6.36255 c -1.148987,6.1167 -2.495578,12.23898 -4.022118,18.35093 l -36.867008,6.36255 c 1.52656,-6.11195 2.873131,-12.23423 4.022118,-18.35093 z m 94.215688,-16.25985 36.86701,-6.36255 c -1.14899,6.1167 -2.49557,12.23898 -4.02211,18.35093 l -36.86701,6.36255 c 1.52656,-6.11195 2.87312,-12.23423 4.02211,-18.35093 z m -100.274943,42.35082 36.867008,-6.36255 c -1.564001,5.64743 -3.276349,11.27848 -5.174288,16.87335 l -36.867008,6.36255 c 1.897893,-5.59476 3.610323,-11.22604 5.174288,-16.87335 z m 94.215683,-16.25985 36.86701,-6.36255 c -1.564,5.64743 -3.27635,11.27848 -5.17429,16.87335 l -36.86701,6.36255 c 1.89794,-5.59487 3.61029,-11.22592 5.17429,-16.87335 z m -102.853415,42.79772 36.867009,-6.36255 c -1.951503,5.17191 -4.04965,10.30653 -6.30019,15.38933 l -36.867008,6.36255 c 2.25054,-5.0828 4.348686,-10.21742 6.300189,-15.38933 z m 94.215685,-16.25984 36.86701,-6.36255 c -1.9515,5.1719 -4.04965,10.30652 -6.30019,15.38933 l -36.86701,6.36255 c 2.25054,-5.08281 4.34869,-10.21743 6.30019,-15.38933 z m -106.001407,43.33909 36.867008,-6.36255 c -2.334383,4.69241 -4.803819,9.33102 -7.410357,13.90451 l -36.867008,6.36255 c 2.606537,-4.57349 5.075973,-9.21209 7.410357,-13.90451 z m 94.215687,-16.25985 36.86701,-6.36255 c -2.33438,4.69241 -4.80382,9.33102 -7.41036,13.90451 l -36.86701,6.36255 c 2.60654,-4.57349 5.07598,-9.2121 7.41036,-13.90451 z m -110.138015,44.05491 36.871008,-6.36324 c -2.760856,4.17874 -5.721715,8.35333 -8.86255,12.47871 l -36.8590085,6.36117 c 3.1398487,-4.12394 6.0904898,-8.29926 8.8505505,-12.47664 z m 94.215685,-16.25985 36.87102,-6.36324 c -2.76086,4.17874 -5.72172,8.35333 -8.86256,12.47871 l -36.859007,6.36117 c 3.140257,-4.12442 6.090177,-8.29879 8.850547,-12.47664 z m -116.950301,45.22867 36.865008,-6.3622 c -3.612138,3.87875 -7.395772,7.63487 -11.334828,11.22895 l -36.851007,6.35979 c 3.935944,-3.59135 7.71132,-7.35095 11.320827,-11.22654 z m 94.215688,-16.25985 36.865013,-6.3622 c -3.61214,3.87876 -7.39578,7.63487 -11.33483,11.22896 l -36.85101,6.35978 c 3.935944,-3.59135 7.711321,-7.35095 11.320827,-11.22654 z m -133.391912,48.06809 36.865008,-6.3622 c -11.842164,6.82418 -24.581484,11.83675 -38.048819,14.16096 -1.539883,0.26575 -3.055449,0.48284 -4.556137,0.66996 l -0.0011,0.008 -27.824272,4.80195 c 11.817939,-2.58586 23.045726,-7.21688 33.565285,-13.27848 z m 94.215687,-16.25984 36.865009,-6.36221 c -11.842163,6.82418 -24.581484,11.83675 -38.048819,14.16096 -1.539886,0.26575 -3.055449,0.48284 -4.556137,0.66996 l -0.0011,0.008 -27.824272,4.80195 c 11.817939,-2.58586 23.045723,-7.21688 33.565283,-13.27847 z m -64.624753,18.63112 c 0.06673,-0.009 0.134287,-0.0185 0.200959,-0.0271 l -0.202021,0.0349 0.0011,-0.008 z"
       id="path4253"
       style="fill:#1a1a1a;fill-opacity:1;stroke:none" />
  </g>
</svg>
