<?xml version="1.0" encoding="UTF-8" standalone="no"?>
<!-- Created with Inkscape (http://www.inkscape.org/) -->

<svg
   xmlns:dc="http://purl.org/dc/elements/1.1/"
   xmlns:cc="http://creativecommons.org/ns#"
   xmlns:rdf="http://www.w3.org/1999/02/22-rdf-syntax-ns#"
   xmlns:svg="http://www.w3.org/2000/svg"
   xmlns="http://www.w3.org/2000/svg"
   xmlns:sodipodi="http://sodipodi.sourceforge.net/DTD/sodipodi-0.dtd"
   xmlns:inkscape="http://www.inkscape.org/namespaces/inkscape"
   width="296.00427"
   height="277.9722"
   viewBox="0 0 296.00428 277.9722"
   id="svg5276"
   version="1.1"
   inkscape:version="0.91 r13725"
   inkscape:export-filename="C:\Users\Brayan\Desktop\path5242.png"
   inkscape:export-xdpi="155.67"
   inkscape:export-ydpi="155.67"
   sodipodi:docname="Banana.svg">
  <defs
     id="defs5278" />
  <sodipodi:namedview
     id="base"
     pagecolor="#ffffff"
     bordercolor="#666666"
     borderopacity="1.0"
     inkscape:pageopacity="1"
     inkscape:pageshadow="2"
     inkscape:zoom="1"
     inkscape:cx="82.002143"
     inkscape:cy="147.98613"
     inkscape:document-units="px"
     inkscape:current-layer="layer1"
     showgrid="false"
     units="px"
     fit-margin-top="16"
     fit-margin-left="16"
     fit-margin-right="16"
     fit-margin-bottom="16"
     inkscape:window-width="1366"
     inkscape:window-height="705"
     inkscape:window-x="-8"
     inkscape:window-y="-8"
     inkscape:window-maximized="1" />
  <metadata
     id="metadata5281">
    <rdf:RDF>
      <cc:Work
         rdf:about="">
        <dc:format>image/svg+xml</dc:format>
        <dc:type
           rdf:resource="http://purl.org/dc/dcmitype/StillImage" />
        <dc:title></dc:title>
      </cc:Work>
    </rdf:RDF>
  </metadata>
  <g
     inkscape:label="Layer 1"
     inkscape:groupmode="layer"
     id="layer1"
     transform="translate(134.145,-402.37611)">
    <path
       style="opacity:1;fill:#ffe680;fill-opacity:1;stroke:#000000;stroke-width:3.72842169;stroke-miterlimit:4;stroke-dasharray:none;stroke-opacity:1"
       d="m -105.14078,586.57332 c 4.78893,12.84407 17.20849,21.13385 30.99799,20.48879 29.22821,1.28034 58.74393,-4.18206 84.98829,-17.35621 23.52216,-10.31647 46.00089,-25.94743 57.5329,-49.63446 11.12434,-21.76526 14.76045,-48.29727 5.56664,-71.37642 -3.76481,-9.12118 -5.33634,-25.50916 -11.71209,-29.55229 -1.99153,25.72335 -1.20368,53.29894 -15.49789,76.00808 -14.08292,25.45368 -41.27318,38.67067 -66.72827,50.03882 -25.34145,11.27169 -55.60702,16.69691 -81.6071,4.35584 -5.43615,-3.44831 -20.14813,-6.96238 -12.48551,3.74844 2.65948,4.64084 6.12837,8.74307 8.94504,13.27941 z"
       id="path5242"
       inkscape:connector-curvature="0" />
    <path
       style="opacity:1;fill:#ffe680;fill-opacity:1;stroke:#000000;stroke-width:3.72842169;stroke-miterlimit:4;stroke-dasharray:none;stroke-opacity:1"
       d="m -66.07002,625.42519 c 7.95004,11.16699 22.09198,15.95984 35.24462,11.76779 28.5637,-6.3281 55.6599,-19.24361 77.60028,-38.76142 20.05059,-16.0529 37.71776,-36.96916 42.72618,-62.83378 5.11204,-23.90288 1.75724,-50.47191 -13.0966,-70.38511 -5.99728,-7.83599 -11.75676,-23.25883 -18.96175,-25.514 4.73405,25.36225 12.63216,51.79434 4.70255,77.42933 -7.01514,28.23127 -29.85813,48.03527 -51.50356,65.60433 -21.5606,17.44648 -49.39077,30.52012 -77.69904,25.32889 -6.14339,-1.92383 -21.2636,-1.51042 -11.08993,6.85217 3.77011,3.79445 8.18254,6.85914 12.07725,10.5118 z"
       id="path5249"
       inkscape:connector-curvature="0" />
    <path
       style="opacity:1;fill:#ffe680;fill-opacity:1;stroke:#000000;stroke-width:3.72842169;stroke-miterlimit:4;stroke-dasharray:none;stroke-opacity:1"
       d="m -10.39249,647.34256 c 10.56937,8.72887 25.46993,9.69819 37.08944,2.24485 25.95258,-13.50531 48.78267,-32.99377 64.92391,-57.52507 15.21259,-20.69543 26.86421,-45.47161 25.00771,-71.75117 -1.24868,-24.41146 -11.36572,-49.20692 -30.86738,-64.59714 -7.82103,-6.01678 -17.37597,-19.4234 -24.91913,-19.73699 11.13695,23.27284 25.60714,46.76007 24.58249,73.57387 0.53048,29.08497 -16.40837,54.12639 -32.76909,76.69904 -16.31047,22.43231 -39.80866,42.26349 -68.49592,44.57582 -6.43197,-0.26808 -20.92998,4.04448 -8.93855,9.48898 4.62369,2.68935 9.67898,4.5077 14.38652,7.02781 z"
       id="path5251"
       inkscape:connector-curvature="0" />
    <path
       style="opacity:1;fill:#ffe680;fill-opacity:1;stroke:#000000;stroke-width:3.72842169;stroke-miterlimit:4;stroke-dasharray:none;stroke-opacity:1"
       d="m 49.69982,659.61548 c 12.46844,5.69588 27.11216,2.77563 36.40666,-7.43111 21.57284,-19.76213 38.58104,-44.4954 47.82305,-72.36852 9.33787,-23.92752 14.17993,-50.87513 5.58506,-75.77875 -7.52429,-23.25648 -23.7141,-44.58861 -46.53454,-54.40699 -9.11178,-3.78752 -21.81108,-14.26435 -29.17833,-12.6149 16.78088,19.59737 36.83699,38.53913 42.78715,64.70449 8.04015,27.9566 -1.84035,56.52887 -11.80135,82.56683 -9.94878,25.88941 -27.51359,51.12661 -54.62489,60.78498 -6.28227,1.40561 -19.17001,9.32374 -6.17807,11.47914 5.16219,1.40099 10.51587,1.84896 15.71526,3.06483 z"
       id="path5253"
       inkscape:connector-curvature="0" />
    <path
       style="opacity:1;fill:#ffe680;fill-opacity:1;stroke:#000000;stroke-width:2.05604362;stroke-miterlimit:4;stroke-dasharray:none;stroke-opacity:1"
       d="m 50.05719,427.90709 c 6.07569,-2.77581 11.39205,-8.3778 18.22073,-8.49778 6.00786,3.74639 7.92517,11.51788 11.94784,17.19209 5.49912,6.17251 -1.15518,12.01245 -7.00481,14.30487 -5.05317,3.32762 -13.43727,8.64002 -16.68283,0.20954 -3.04194,-5.80743 -7.09667,-11.15716 -9.43585,-17.28221 -0.32027,-2.33201 0.894,-4.78032 2.95492,-5.92662 z"
       id="rect5255"
       inkscape:connector-curvature="0" />
  </g>
</svg>
