<?xml version="1.0" encoding="UTF-8" standalone="no"?>
<!-- Created with Inkscape (http://www.inkscape.org/) -->

<svg
   xmlns:dc="http://purl.org/dc/elements/1.1/"
   xmlns:cc="http://creativecommons.org/ns#"
   xmlns:rdf="http://www.w3.org/1999/02/22-rdf-syntax-ns#"
   xmlns:svg="http://www.w3.org/2000/svg"
   xmlns="http://www.w3.org/2000/svg"
   xmlns:sodipodi="http://sodipodi.sourceforge.net/DTD/sodipodi-0.dtd"
   xmlns:inkscape="http://www.inkscape.org/namespaces/inkscape"
   width="340.5"
   height="386.15613"
   id="svg2"
   version="1.1"
   inkscape:version="0.92.1 r15371"
   sodipodi:docname="anchor.svg">
  <sodipodi:namedview
     id="base"
     pagecolor="#ffffff"
     bordercolor="#666666"
     borderopacity="1.0"
     inkscape:pageopacity="0.0"
     inkscape:pageshadow="2"
     inkscape:zoom="1"
     inkscape:cx="-43.358416"
     inkscape:cy="136.83346"
     inkscape:document-units="px"
     inkscape:current-layer="layer1"
     showgrid="false"
     showborder="true"
     inkscape:window-width="1920"
     inkscape:window-height="1017"
     inkscape:window-x="-8"
     inkscape:window-y="-8"
     inkscape:window-maximized="1"
     inkscape:snap-center="true"
     inkscape:snap-global="false"
     inkscape:snap-bbox="false"
     inkscape:bbox-nodes="true"
     inkscape:snap-nodes="true"
     inkscape:object-nodes="true"
     inkscape:bbox-paths="true"
     inkscape:object-paths="false"
     inkscape:snap-smooth-nodes="true"
     fit-margin-top="0"
     fit-margin-left="0"
     fit-margin-right="0"
     fit-margin-bottom="0" />
  <defs
     id="defs4" />
  <metadata
     id="metadata7">
    <rdf:RDF>
      <cc:Work
         rdf:about="">
        <dc:format>image/svg+xml</dc:format>
        <dc:type
           rdf:resource="http://purl.org/dc/dcmitype/StillImage" />
        <dc:title></dc:title>
      </cc:Work>
    </rdf:RDF>
  </metadata>
  <g
     id="layer1"
     inkscape:groupmode="layer"
     inkscape:label="Layer 1"
     transform="translate(367.60529,-365.05443)">
    <path
       style="color:#000000;display:inline;overflow:visible;visibility:visible;fill:#324554;fill-opacity:1;fill-rule:nonzero;stroke:none;stroke-width:10;marker:none;enable-background:accumulate"
       d="m -197.35534,365.05443 c -19.1384,0 -34.65625,15.51784 -34.65625,34.65625 0,13.82907 8.09746,25.75369 19.8125,31.3125 -0.0313,10.59444 -0.0483,21.1855 -0.0312,31.78125 -93.77074,6.54813 -79.34773,7.70639 -91.96875,0 0,0 4.84701,16.26129 17.28125,20.09375 4.89361,1.5083 68.20145,-11.94562 74.71875,13.15625 v -22.5625 c 0.0444,25.42152 0.0707,50.83226 -0.34375,76.25 -0.0859,25.40736 -2.45691,122.84276 -5.375,148.06239 -39.32226,-5.35623 -73.83649,-25.83506 -97.46875,-55.40625 16.35443,0.27725 31.59375,1.9375 31.59375,1.9375 0,0 -23.97579,-23.04944 -31.84375,-37.40625 -6.33857,-11.56613 -11.59375,-37.84375 -11.59375,-37.84375 0,0 -22.5928,33.41026 -30,52 -4.19136,10.519 -10.375,39.15625 -10.375,39.15625 0,0 15.75027,-14.23198 23.21875,-15.90625 1.02278,-0.22928 2.12183,-0.44146 3.25,-0.625 23.13628,55.98467 104.41389,68.13264 143.78125,107.5 39.36736,-39.36736 120.644969,-51.51533 143.781251,-107.5 1.128172,0.18354 2.227225,0.39572 3.25,0.625 7.46848,1.67427 23.21875,15.90625 23.21875,15.90625 0,0 -6.18364,-28.63725 -10.375,-39.15625 -7.4072,-18.58974 -30,-52 -30,-52 0,0 -5.25518,26.27762 -11.59375,37.84375 -7.86796,14.35681 -31.843751,37.40625 -31.843751,37.40625 0,0 15.239324,-1.66025 31.593751,-1.9375 -23.700851,29.65701 -58.348141,50.15391 -97.812501,55.4375 -0.66559,-21.93369 -6.36664,-142.65482 -5.125,-153.28114 -0.19084,-16.16369 -0.23748,-32.31014 -0.25,-48.46875 6.5173,-25.10186 69.82514,-11.6792 74.71875,-13.1875 12.434241,-3.83247 17.281251,-20.0625 17.281251,-20.0625 -12.622631,7.70738 1.810432,6.55035 -92.000001,0 0.0153,-10.61367 0.0414,-21.22911 0.0312,-31.84375 11.69663,-5.56579 19.78125,-17.46563 19.78125,-31.28125 0,-19.13841 -15.51784,-34.65625 -34.65625,-34.65625 z m -1.0625,14.125 c 0.35001,-0.0177 0.70809,0 1.0625,0 11.34127,0 20.53125,9.18996 20.53125,20.53125 0,10.98685 -8.61858,19.95 -19.46875,20.5 h -2.125 c -10.85017,-0.55 -19.46875,-9.51315 -19.46875,-20.5 0,-10.98687 8.61858,-19.98125 19.46875,-20.53125 z"
       id="path4073"
       inkscape:connector-curvature="0"
       sodipodi:nodetypes="sscccsccccccscscccccccscscccccscccsscssccsc" />
  </g>
</svg>
