<?xml version="1.0" encoding="UTF-8" standalone="no"?>
<!-- Created with Inkscape (http://www.inkscape.org/) -->

<svg
   xmlns:dc="http://purl.org/dc/elements/1.1/"
   xmlns:cc="http://creativecommons.org/ns#"
   xmlns:rdf="http://www.w3.org/1999/02/22-rdf-syntax-ns#"
   xmlns:svg="http://www.w3.org/2000/svg"
   xmlns="http://www.w3.org/2000/svg"
   xmlns:sodipodi="http://sodipodi.sourceforge.net/DTD/sodipodi-0.dtd"
   xmlns:inkscape="http://www.inkscape.org/namespaces/inkscape"
   width="962.96906"
   height="393.79318"
   id="svg2"
   version="1.1"
   inkscape:version="0.48.5 r10040"
   sodipodi:docname="New document 1">
  <defs
     id="defs4" />
  <sodipodi:namedview
     id="base"
     pagecolor="#ffffff"
     bordercolor="#666666"
     borderopacity="1.0"
     inkscape:pageopacity="0.0"
     inkscape:pageshadow="2"
     inkscape:zoom="0.70710678"
     inkscape:cx="545.14632"
     inkscape:cy="241.90638"
     inkscape:document-units="px"
     inkscape:current-layer="layer1"
     showgrid="false"
     showborder="true"
     inkscape:object-nodes="true"
     fit-margin-top="0"
     fit-margin-left="0"
     fit-margin-right="0"
     fit-margin-bottom="0"
     inkscape:window-width="1920"
     inkscape:window-height="1017"
     inkscape:window-x="-8"
     inkscape:window-y="-8"
     inkscape:window-maximized="1" />
  <metadata
     id="metadata7">
    <rdf:RDF>
      <cc:Work
         rdf:about="">
        <dc:format>image/svg+xml</dc:format>
        <dc:type
           rdf:resource="http://purl.org/dc/dcmitype/StillImage" />
        <dc:title></dc:title>
      </cc:Work>
    </rdf:RDF>
  </metadata>
  <g
     inkscape:label="Layer 1"
     inkscape:groupmode="layer"
     id="layer1"
     transform="translate(155.54697,-246.11765)">
    <path
       style="font-size:medium;font-style:normal;font-variant:normal;font-weight:normal;font-stretch:normal;text-indent:0;text-align:start;text-decoration:none;line-height:normal;letter-spacing:normal;word-spacing:normal;text-transform:none;direction:ltr;block-progression:tb;writing-mode:lr-tb;text-anchor:start;baseline-shift:baseline;color:#000000;fill:#333333;fill-opacity:1;fill-rule:nonzero;stroke:none;stroke-width:10.72029972;marker:none;visibility:visible;display:inline;overflow:visible;enable-background:accumulate;font-family:Sans;-inkscape-font-specification:Sans"
       d="m 145.40625,246.125 a 6.0006,6.0006 0 0 0 -3.09375,1.15625 L 72,287.875 1.15625,246.96875 a 6.0006,6.0006 0 0 0 -6,0 L -152.5625,332.25 a 6.0006,6.0006 0 0 0 0,10.375 l 64.875,37.4375 -64.875,37.46875 a 6.0006,6.0006 0 0 0 0,10.375 l 72.84375,42.0625 0,80.6875 a 4.0004002,4.0004002 0 0 0 2,3.4375 L 70,639.375 a 4.0004002,4.0004002 0 0 0 4,0 l 147.71875,-85.28125 a 4.0004002,4.0004002 0 0 0 2,-3.4375 l 0,-80.71875 72.84375,-42.0625 a 6.0006,6.0006 0 0 0 0,-10.375 L 231.71875,380.0625 296.5625,342.625 a 6.0006,6.0006 0 0 0 0,-10.375 L 148.84375,246.9375 A 6.0006,6.0006 0 0 0 146,246.125 a 6.0006,6.0006 0 0 0 -0.59375,0 z M -1.84375,259.0625 60,294.78125 -75.71875,373.15625 -137.5625,337.4375 -1.84375,259.0625 z m 147.71875,0 135.6875,78.375 -61.84375,35.71875 L 84,294.78125 145.875,259.0625 z M 219.71875,386.96875 281.5625,422.6875 145.875,501.0625 84,465.34375 219.71875,386.96875 z M -75.6875,387 60.03125,465.375 -1.84375,501.09375 -137.5625,422.71875 -75.6875,387 z m 291.40625,87.5625 0,73.78125 L 76,628.96875 76.03125,474.59375 142.375,512.875 a 6.0006,6.0006 0 0 0 6.46875,0.3125 l 66.875,-38.625 z m -287.4375,0.0312 66.875,38.59375 a 6.0006,6.0006 0 0 0 6,0 L 68.03125,474.5937 68,628.9687 l -139.71875,-80.625 0,-73.75 z"
       id="path3753"
       inkscape:connector-curvature="0" />
    <path
       style="font-size:medium;font-style:normal;font-variant:normal;font-weight:normal;font-stretch:normal;text-indent:0;text-align:start;text-decoration:none;line-height:normal;letter-spacing:normal;word-spacing:normal;text-transform:none;direction:ltr;block-progression:tb;writing-mode:lr-tb;text-anchor:start;baseline-shift:baseline;color:#000000;fill:#28170b;fill-opacity:1;fill-rule:nonzero;stroke:none;stroke-width:10.72029972;marker:none;visibility:visible;display:inline;overflow:visible;enable-background:accumulate;font-family:Sans;-inkscape-font-specification:Sans"
       d="m 653.28136,246.125 a 6.0006,6.0006 0 0 0 -3.09375,1.15625 l -70.3125,40.59375 -70.84375,-40.90625 a 6.0006,6.0006 0 0 0 -6,0 L 355.31261,332.25 a 6.0006,6.0006 0 0 0 0,10.375 l 64.875,37.4375 -64.875,37.46875 a 6.0006,6.0006 0 0 0 0,10.375 l 72.84375,42.0625 0,80.6875 a 4.0004002,4.0004002 0 0 0 2,3.4375 L 577.87511,639.375 a 4.0004002,4.0004002 0 0 0 4,0 l 147.71875,-85.28125 a 4.0004002,4.0004002 0 0 0 2,-3.4375 l 0,-80.71875 72.84375,-42.0625 a 6.0006,6.0006 0 0 0 0,-10.375 l -64.84375,-37.4375 64.84375,-37.4375 a 6.0006,6.0006 0 0 0 0,-10.375 L 656.71886,246.9375 a 6.0006,6.0006 0 0 0 -2.84375,-0.8125 6.0006,6.0006 0 0 0 -0.59375,0 z"
       id="path4007"
       inkscape:connector-curvature="0" />
    <path
       style="font-size:medium;font-style:normal;font-variant:normal;font-weight:normal;font-stretch:normal;text-indent:0;text-align:start;text-decoration:none;line-height:normal;letter-spacing:normal;word-spacing:normal;text-transform:none;direction:ltr;block-progression:tb;writing-mode:lr-tb;text-anchor:start;baseline-shift:baseline;color:#000000;fill:#cb7a44;fill-opacity:1;fill-rule:nonzero;stroke:none;stroke-width:10.72029972;marker:none;visibility:visible;display:inline;overflow:visible;enable-background:accumulate;font-family:Sans;-inkscape-font-specification:Sans"
       d="m 506.03136,259.0625 61.84375,35.71875 -135.71875,78.375 -61.84375,-35.71875 135.71875,-78.375 z"
       id="path4005"
       inkscape:connector-curvature="0" />
    <path
       style="font-size:medium;font-style:normal;font-variant:normal;font-weight:normal;font-stretch:normal;text-indent:0;text-align:start;text-decoration:none;line-height:normal;letter-spacing:normal;word-spacing:normal;text-transform:none;direction:ltr;block-progression:tb;writing-mode:lr-tb;text-anchor:start;baseline-shift:baseline;color:#000000;fill:#cb7a44;fill-opacity:1;fill-rule:nonzero;stroke:none;stroke-width:10.72029972;marker:none;visibility:visible;display:inline;overflow:visible;enable-background:accumulate;font-family:Sans;-inkscape-font-specification:Sans"
       d="m 653.75011,259.0625 135.6875,78.375 -61.84375,35.71875 -135.71875,-78.375 61.875,-35.71875 z"
       id="path4003"
       inkscape:connector-curvature="0" />
    <path
       style="font-size:medium;font-style:normal;font-variant:normal;font-weight:normal;font-stretch:normal;text-indent:0;text-align:start;text-decoration:none;line-height:normal;letter-spacing:normal;word-spacing:normal;text-transform:none;direction:ltr;block-progression:tb;writing-mode:lr-tb;text-anchor:start;baseline-shift:baseline;color:#000000;fill:#cb7a44;fill-opacity:1;fill-rule:nonzero;stroke:none;stroke-width:10.72029972;marker:none;visibility:visible;display:inline;overflow:visible;enable-background:accumulate;font-family:Sans;-inkscape-font-specification:Sans"
       d="m 727.59386,386.96875 61.84375,35.71875 -135.6875,78.375 -61.875,-35.71875 135.71875,-78.375 z"
       id="path4001"
       inkscape:connector-curvature="0" />
    <path
       style="font-size:medium;font-style:normal;font-variant:normal;font-weight:normal;font-stretch:normal;text-indent:0;text-align:start;text-decoration:none;line-height:normal;letter-spacing:normal;word-spacing:normal;text-transform:none;direction:ltr;block-progression:tb;writing-mode:lr-tb;text-anchor:start;baseline-shift:baseline;color:#000000;fill:#cb7a44;fill-opacity:1;fill-rule:nonzero;stroke:none;stroke-width:10.72029972;marker:none;visibility:visible;display:inline;overflow:visible;enable-background:accumulate;font-family:Sans;-inkscape-font-specification:Sans"
       d="m 432.18761,387 135.71875,78.375 -61.875,35.71875 -135.71875,-78.375 L 432.18761,387 z"
       id="path3999"
       inkscape:connector-curvature="0" />
    <path
       style="font-size:medium;font-style:normal;font-variant:normal;font-weight:normal;font-stretch:normal;text-indent:0;text-align:start;text-decoration:none;line-height:normal;letter-spacing:normal;word-spacing:normal;text-transform:none;direction:ltr;block-progression:tb;writing-mode:lr-tb;text-anchor:start;baseline-shift:baseline;color:#000000;fill:#deaa87;fill-opacity:1;fill-rule:nonzero;stroke:none;stroke-width:10.72029972;marker:none;visibility:visible;display:inline;overflow:visible;enable-background:accumulate;font-family:Sans;-inkscape-font-specification:Sans"
       d="m 723.59386,474.5625 0,73.78125 -139.71875,80.625 0.0312,-154.375 66.34375,38.28125 a 6.0006,6.0006 0 0 0 6.46875,0.3125 l 66.875,-38.625 z"
       id="path3997"
       inkscape:connector-curvature="0" />
    <path
       style="font-size:medium;font-style:normal;font-variant:normal;font-weight:normal;font-stretch:normal;text-indent:0;text-align:start;text-decoration:none;line-height:normal;letter-spacing:normal;word-spacing:normal;text-transform:none;direction:ltr;block-progression:tb;writing-mode:lr-tb;text-anchor:start;baseline-shift:baseline;color:#000000;fill:#deaa87;fill-opacity:1;fill-rule:nonzero;stroke:none;stroke-width:10.72029972;marker:none;visibility:visible;display:inline;overflow:visible;enable-background:accumulate;font-family:Sans;-inkscape-font-specification:Sans"
       d="m 436.15636,474.5937 66.875,38.59375 a 6.0006,6.0006 0 0 0 6,0 l 66.875,-38.59375 -0.0312,154.375 -139.71875,-80.625 0,-73.75 z"
       id="path3993"
       inkscape:connector-curvature="0" />
  </g>
</svg>
