<?xml version="1.0" encoding="UTF-8" standalone="no"?>
<!-- Created with Inkscape (http://www.inkscape.org/) -->

<svg
   xmlns:dc="http://purl.org/dc/elements/1.1/"
   xmlns:cc="http://creativecommons.org/ns#"
   xmlns:rdf="http://www.w3.org/1999/02/22-rdf-syntax-ns#"
   xmlns:svg="http://www.w3.org/2000/svg"
   xmlns="http://www.w3.org/2000/svg"
   xmlns:sodipodi="http://sodipodi.sourceforge.net/DTD/sodipodi-0.dtd"
   xmlns:inkscape="http://www.inkscape.org/namespaces/inkscape"
   width="431.7103"
   height="422.15146"
   viewBox="0 0 114.22335 111.69424"
   version="1.1"
   id="svg8"
   inkscape:version="0.92.1 r15371"
   sodipodi:docname="Brazil Map.svg">
  <defs
     id="defs2">
    <clipPath
       clipPathUnits="userSpaceOnUse"
       id="clipPath4329">
      <rect
         style="opacity:1;vector-effect:none;fill:#333333;fill-opacity:1;stroke:#333333;stroke-width:2.64583325;stroke-linecap:round;stroke-linejoin:round;stroke-miterlimit:4;stroke-dasharray:none;stroke-dashoffset:0;stroke-opacity:1"
         id="rect4331"
         width="142.34581"
         height="140.75833"
         x="-163.5125"
         y="117.87708" />
    </clipPath>
  </defs>
  <sodipodi:namedview
     id="base"
     pagecolor="#ffffff"
     bordercolor="#666666"
     borderopacity="1.0"
     inkscape:pageopacity="0.0"
     inkscape:pageshadow="2"
     inkscape:zoom="1"
     inkscape:cx="297.22991"
     inkscape:cy="214.21597"
     inkscape:document-units="px"
     inkscape:current-layer="layer1"
     showgrid="false"
     units="px"
     showborder="false"
     inkscape:window-width="1920"
     inkscape:window-height="1017"
     inkscape:window-x="-8"
     inkscape:window-y="-8"
     inkscape:window-maximized="1"
     fit-margin-top="0"
     fit-margin-left="0"
     fit-margin-right="0"
     fit-margin-bottom="0" />
  <metadata
     id="metadata5">
    <rdf:RDF>
      <cc:Work
         rdf:about="">
        <dc:format>image/svg+xml</dc:format>
        <dc:type
           rdf:resource="http://purl.org/dc/dcmitype/StillImage" />
        <dc:title></dc:title>
      </cc:Work>
    </rdf:RDF>
  </metadata>
  <g
     inkscape:label="Layer 1"
     inkscape:groupmode="layer"
     id="layer1"
     transform="translate(50.304927,-132.34413)">
    <path
       style="fill:#87decd;stroke:#4d4d4d;stroke-width:2.64583325;stroke-linecap:round;stroke-linejoin:round;stroke-miterlimit:4;stroke-dasharray:none;stroke-opacity:1"
       d="m 14.075065,136.0147 c 2.502501,1.96316 4.547429,5.43864 4.580814,8.82846 0.05162,5.24238 4.772978,5.31918 7.823618,6.37362 3.562458,1.23133 6.011233,2.80878 8.922095,4.86129 3.72009,2.62312 9.382037,0.49408 13.400359,2.49723 4.161302,2.07443 7.507759,4.38201 11.416505,7.07279 4.30904,2.96632 2.348565,11.86023 -2.591354,14.31441 -3.557502,1.76736 -4.802584,8.39404 -7.703235,7.48772 -2.129315,-0.66529 -0.905446,7.38109 -1.254285,9.68498 -0.842717,5.56573 -4.207787,10.84201 -8.399886,15.51317 -2.344649,2.61262 -1.044034,4.90388 -6.04831,4.21068 -5.036867,-0.69773 -12.512637,2.11875 -13.992293,7.5884 -1.131786,4.18375 -0.355436,6.76897 -3.244495,10.70398 -3.090459,4.20928 -7.8194746,11.03415 -12.1544314,5.47231 -1.9486571,-2.50017 -7.9824685,-2.35876 -7.7869813,-4.49403 0.426954,-4.6635 8.9754148,-4.89945 10.7452236,-8.98639 1.3810851,-3.18929 -1.6720084,-5.03273 -2.4978761,-9.19253 -0.4369443,-2.20082 -1.5254403,-1.0554 -3.7501334,-3.83108 -2.34674461,-2.92794 -8.0630585,-0.67171 -5.964392,-6.18166 1.7389191,-4.56547 -0.7627288,-10.62277 -6.7024184,-11.50025 -2.538096,-0.37494 1.9084683,-5.80652 -2.832453,-8.27585 -4.620616,-2.40668 -11.37749,-1.01413 -11.891002,-8.8561 -0.349347,-5.33498 -7.561089,4.31949 -12.399763,3.31773 -3.625994,-0.75066 -0.12568,-4.85963 -5.412011,-3.26238 -5.643865,1.70524 -5.928148,-6.4169 -4.745585,-11.95623 1.560312,-7.30883 10.751456,-2.0513 10.304473,-10.08625 -0.217908,-3.91694 0.171931,-4.61324 0.111531,-10.233 -0.06704,-6.23665 3.811367,-5.66191 5.286521,-3.70474 3.464891,4.59706 14.85317,1.25635 10.577274,-1.92121 -2.421563,-1.7995 -4.420613,-4.87677 -2.859684,-4.72903 4.500872,0.4259 7.969607,1.53076 10.984003,-1.56132 4.7313546,-4.85323 2.47305,3.39843 2.91613,6.13866 1.2069411,7.4643 9.8024352,-0.26328 14.2913419,-0.13319 3.3992269,0.0984 7.8188831,2.4706 8.5290241,-2.39902 0.209683,-1.43783 1.339626,-3.54711 2.341685,-2.76104 z"
       id="path4333"
       inkscape:connector-curvature="0"
       sodipodi:nodetypes="sssssssssssssssssssssssssssssssssss" />
  </g>
</svg>
