<?xml version="1.0" encoding="UTF-8" standalone="no"?>
<!-- Created with Inkscape (http://www.inkscape.org/) -->

<svg
   xmlns:dc="http://purl.org/dc/elements/1.1/"
   xmlns:cc="http://creativecommons.org/ns#"
   xmlns:rdf="http://www.w3.org/1999/02/22-rdf-syntax-ns#"
   xmlns:svg="http://www.w3.org/2000/svg"
   xmlns="http://www.w3.org/2000/svg"
   xmlns:sodipodi="http://sodipodi.sourceforge.net/DTD/sodipodi-0.dtd"
   xmlns:inkscape="http://www.inkscape.org/namespaces/inkscape"
   width="210mm"
   height="297mm"
   viewBox="0 0 744.09448819 1052.3622047"
   id="svg4437"
   version="1.1"
   inkscape:version="0.91 r13725"
   sodipodi:docname="Monitor.svg"
   inkscape:export-filename="C:\Users\brayan.bedritchuk\Desktop\g5052.png"
   inkscape:export-xdpi="272"
   inkscape:export-ydpi="272">
  <defs
     id="defs4439" />
  <sodipodi:namedview
     id="base"
     pagecolor="#ffffff"
     bordercolor="#666666"
     borderopacity="1.0"
     inkscape:pageopacity="0.0"
     inkscape:pageshadow="2"
     inkscape:zoom="1.4142136"
     inkscape:cx="-34.069053"
     inkscape:cy="469.11504"
     inkscape:document-units="px"
     inkscape:current-layer="layer1"
     showgrid="false"
     showborder="false"
     inkscape:window-width="1680"
     inkscape:window-height="987"
     inkscape:window-x="-8"
     inkscape:window-y="-8"
     inkscape:window-maximized="1" />
  <metadata
     id="metadata4442">
    <rdf:RDF>
      <cc:Work
         rdf:about="">
        <dc:format>image/svg+xml</dc:format>
        <dc:type
           rdf:resource="http://purl.org/dc/dcmitype/StillImage" />
        <dc:title></dc:title>
      </cc:Work>
    </rdf:RDF>
  </metadata>
  <g
     inkscape:label="Layer 1"
     inkscape:groupmode="layer"
     id="layer1">
    <rect
       style="opacity:1;fill:#e9c6af;fill-opacity:1;stroke:none;stroke-opacity:1"
       id="rect5066"
       width="233.34525"
       height="176.7767"
       x="-354.2605"
       y="444.25037"
       ry="0" />
    <g
       id="g5052"
       inkscape:export-filename="C:\Users\brayan.bedritchuk\Desktop\g5052.png"
       inkscape:export-xdpi="272.67001"
       inkscape:export-ydpi="272.67001"
       transform="translate(-235.58788,-84.723482)">
      <g
         id="g5039">
        <g
           id="g5027">
          <path
             inkscape:connector-curvature="0"
             id="path4275"
             d="m -5.712335,659.08125 a 8.1317282,4.2426405 0 0 0 -8.13086,4.24218 8.1317282,4.2426405 0 0 0 0.0117,0.1875 28.991379,4.5961943 0 0 0 -20.87305,4.41015 28.991379,4.5961943 0 0 0 28.99219,4.59571 28.991379,4.5961943 0 0 0 28.99219,-4.59571 28.991379,4.5961943 0 0 0 -20.87891,-4.41015 8.1317282,4.2426405 0 0 0 0.0176,-0.1875 8.1317282,4.2426405 0 0 0 -8.13086,-4.24218 z"
             style="opacity:1;fill:#4d4d4d;fill-opacity:1;stroke:none;stroke-opacity:1" />
          <g
             transform="translate(-20.738325,364.7375)"
             id="g4419">
            <g
               id="g4414">
              <g
                 id="g4410">
                <path
                   style="opacity:1;fill:#2a7fff;fill-opacity:1;stroke:none;stroke-opacity:1"
                   d="m -53.74012,197.47011 144.95689,0 c 6.659531,0 12.02082,5.36128 12.02082,12.02081 l 0,72.832 c 0,6.65953 -5.361289,12.02082 -12.02082,12.02082 l -144.95689,0 c -6.65953,0 -12.02082,-5.36129 -12.02082,-12.02082 l 0,-72.832 c 0,-6.65953 5.36129,-12.02081 12.02082,-12.02081 z"
                   id="rect4273"
                   inkscape:connector-curvature="0" />
                <path
                   style="opacity:1;fill:#ffffff;fill-opacity:1;stroke:none;stroke-opacity:1"
                   d="m -44.76202,203.47011 127.000678,0 c 5.834597,0 10.531764,4.69717 10.531764,10.53176 l 0,63.8101 c 0,5.8346 -4.697167,10.53177 -10.531764,10.53177 l -127.000678,0 c -5.8346,0 -10.53177,-4.69717 -10.53177,-10.53177 l 0,-63.8101 c 0,-5.83459 4.69717,-10.53176 10.53177,-10.53176 z"
                   id="rect4280"
                   inkscape:connector-curvature="0" />
              </g>
            </g>
          </g>
          <circle
             r="1.8561553"
             cy="656.16443"
             cx="59.42989"
             id="path4429"
             style="opacity:1;fill:#ffffff;fill-opacity:1;stroke:none;stroke-opacity:1" />
          <circle
             style="opacity:1;fill:#ffffff;fill-opacity:1;stroke:none;stroke-opacity:1"
             id="circle4431"
             cx="54.214985"
             cy="656.16443"
             r="0.9722718" />
          <circle
             r="0.9722718"
             cy="656.16443"
             cx="49.883961"
             id="circle4433"
             style="opacity:1;fill:#ffffff;fill-opacity:1;stroke:none;stroke-opacity:1" />
          <circle
             style="opacity:1;fill:#ffffff;fill-opacity:1;stroke:none;stroke-opacity:1"
             id="circle4435"
             cx="45.552937"
             cy="656.16443"
             r="0.9722718" />
        </g>
      </g>
    </g>
  </g>
</svg>
