<?xml version="1.0" encoding="UTF-8" standalone="no"?>
<!-- Created with Inkscape (http://www.inkscape.org/) -->

<svg
   xmlns:dc="http://purl.org/dc/elements/1.1/"
   xmlns:cc="http://creativecommons.org/ns#"
   xmlns:rdf="http://www.w3.org/1999/02/22-rdf-syntax-ns#"
   xmlns:svg="http://www.w3.org/2000/svg"
   xmlns="http://www.w3.org/2000/svg"
   xmlns:sodipodi="http://sodipodi.sourceforge.net/DTD/sodipodi-0.dtd"
   xmlns:inkscape="http://www.inkscape.org/namespaces/inkscape"
   width="430.03931"
   height="747.74402"
   id="svg2"
   version="1.1"
   inkscape:version="0.48.5 r10040"
   sodipodi:docname="flame.svg"
   inkscape:export-filename="C:\Users\Brayan\Desktop\flame.png"
   inkscape:export-xdpi="90"
   inkscape:export-ydpi="90">
  <defs
     id="defs4">
    <inkscape:path-effect
       fuse_tolerance="0"
       vertical_pattern="false"
       prop_units="false"
       tang_offset="0"
       normal_offset="0"
       spacing="0"
       scale_y_rel="false"
       prop_scale="1"
       copytype="single_stretched"
       pattern="m 349.39048,39.7031 c 0,0 -69.34921,47.7031 -131.19524,47.7031 C 156.34921,87.4062 87,39.7031 87,39.7031 87,39.7031 156.34921,-8 218.19524,-8 c 61.84603,0 131.19524,47.7031 131.19524,47.7031 z"
       is_visible="true"
       id="path-effect3849"
       effect="skeletal" />
    <inkscape:path-effect
       is_visible="true"
       id="path-effect3847"
       effect="spiro" />
    <inkscape:path-effect
       effect="skeletal"
       id="path-effect3837"
       is_visible="true"
       pattern="m 349.39048,-182.2969 c 0,0 -69.34921,47.7031 -131.19524,47.7031 C 156.34921,-134.5938 87,-182.2969 87,-182.2969 c 0,0 69.34921,-47.7031 131.19524,-47.7031 61.84603,0 131.19524,47.7031 131.19524,47.7031 z"
       copytype="single_stretched"
       prop_scale="1"
       scale_y_rel="false"
       spacing="0"
       normal_offset="0"
       tang_offset="0"
       prop_units="false"
       vertical_pattern="false"
       fuse_tolerance="0" />
    <inkscape:path-effect
       effect="spiro"
       id="path-effect3835"
       is_visible="true" />
    <inkscape:path-effect
       effect="skeletal"
       id="path-effect3825"
       is_visible="true"
       pattern="m 262.39048,47.7031 c 0,0 -69.34921,47.7031 -131.19524,47.7031 C 69.34921,95.4062 0,47.7031 0,47.7031 0,47.7031 69.34921,0 131.19524,0 193.04127,0 262.39048,47.7031 262.39048,47.7031 z"
       copytype="single_stretched"
       prop_scale="1"
       scale_y_rel="false"
       spacing="0"
       normal_offset="0"
       tang_offset="0"
       prop_units="false"
       vertical_pattern="false"
       fuse_tolerance="0" />
    <inkscape:path-effect
       effect="spiro"
       id="path-effect3823"
       is_visible="true" />
    <inkscape:path-effect
       effect="skeletal"
       id="path-effect3813"
       is_visible="true"
       pattern="m 262.39048,47.7031 c 0,0 -69.34921,47.7031 -131.19524,47.7031 C 69.34921,95.4062 0,47.7031 0,47.7031 0,47.7031 69.34921,0 131.19524,0 193.04127,0 262.39048,47.7031 262.39048,47.7031 z"
       copytype="single_stretched"
       prop_scale="1"
       scale_y_rel="false"
       spacing="0"
       normal_offset="0"
       tang_offset="0"
       prop_units="false"
       vertical_pattern="false"
       fuse_tolerance="0" />
    <inkscape:path-effect
       effect="spiro"
       id="path-effect3811"
       is_visible="true" />
    <inkscape:path-effect
       effect="skeletal"
       id="path-effect3801"
       is_visible="true"
       pattern="m 262.39048,47.7031 c 0,0 -69.34921,47.7031 -131.19524,47.7031 C 69.34921,95.4062 0,47.7031 0,47.7031 0,47.7031 69.34921,0 131.19524,0 193.04127,0 262.39048,47.7031 262.39048,47.7031 z"
       copytype="single_stretched"
       prop_scale="1"
       scale_y_rel="false"
       spacing="0"
       normal_offset="0"
       tang_offset="0"
       prop_units="false"
       vertical_pattern="false"
       fuse_tolerance="0" />
    <inkscape:path-effect
       effect="spiro"
       id="path-effect3799"
       is_visible="true" />
    <inkscape:path-effect
       effect="skeletal"
       id="path-effect3789"
       is_visible="true"
       pattern="m 262.39048,47.7031 c 0,0 -69.34921,47.7031 -131.19524,47.7031 C 69.34921,95.4062 0,47.7031 0,47.7031 0,47.7031 69.34921,0 131.19524,0 193.04127,0 262.39048,47.7031 262.39048,47.7031 z"
       copytype="single_stretched"
       prop_scale="1"
       scale_y_rel="false"
       spacing="0"
       normal_offset="0"
       tang_offset="0"
       prop_units="false"
       vertical_pattern="false"
       fuse_tolerance="0" />
    <inkscape:path-effect
       effect="spiro"
       id="path-effect3787"
       is_visible="true" />
    <inkscape:path-effect
       effect="skeletal"
       id="path-effect3777"
       is_visible="true"
       pattern="m 6.39048,42.7031 c 0,0 -69.34921,47.7031 -131.19524,47.7031 C -186.65079,90.4062 -256,42.7031 -256,42.7031 -256,42.7031 -186.65079,-5 -124.80476,-5 -62.95873,-5 6.39048,42.7031 6.39048,42.7031 z"
       copytype="single_stretched"
       prop_scale="1"
       scale_y_rel="false"
       spacing="0"
       normal_offset="0"
       tang_offset="0"
       prop_units="false"
       vertical_pattern="false"
       fuse_tolerance="0" />
    <inkscape:path-effect
       effect="spiro"
       id="path-effect3775"
       is_visible="true" />
  </defs>
  <sodipodi:namedview
     id="base"
     pagecolor="#ffffff"
     bordercolor="#666666"
     borderopacity="1.0"
     inkscape:pageopacity="1"
     inkscape:pageshadow="2"
     inkscape:zoom="0.70710678"
     inkscape:cx="-99.584644"
     inkscape:cy="477.05028"
     inkscape:document-units="px"
     inkscape:current-layer="layer1"
     showgrid="false"
     showborder="true"
     inkscape:window-width="1920"
     inkscape:window-height="1017"
     inkscape:window-x="-8"
     inkscape:window-y="-8"
     inkscape:window-maximized="1"
     fit-margin-top="16"
     fit-margin-left="16"
     fit-margin-right="16"
     fit-margin-bottom="16" />
  <metadata
     id="metadata7">
    <rdf:RDF>
      <cc:Work
         rdf:about="">
        <dc:format>image/svg+xml</dc:format>
        <dc:type
           rdf:resource="http://purl.org/dc/dcmitype/StillImage" />
        <dc:title></dc:title>
      </cc:Work>
    </rdf:RDF>
  </metadata>
  <g
     inkscape:label="Layer 1"
     inkscape:groupmode="layer"
     id="layer1"
     transform="translate(-12.044891,-245.32888)">
    <path
       style="fill:#ff7f2a;fill-rule:evenodd;stroke:none"
       d="m 304.96779,977.0729 c 0,0 1.93235,-2.34261 5.31362,-6.8146 3.38129,-4.47199 8.19466,-11.09075 13.58279,-19.76571 5.38811,-8.67496 11.33889,-19.42155 16.83758,-32.01679 5.4987,-12.59522 10.53729,-27.04545 14.09416,-42.82764 2.44749,-10.90474 4.16462,-22.46124 4.88691,-34.36783 0.72228,-11.90659 0.44982,-24.16116 -1.03073,-36.38605 -2.67309,-21.53203 -8.93346,-43.02295 -19.30161,-61.30658 -6.10162,-11.59622 -14.33176,-22.70559 -23.88451,-33.89865 -9.55278,-11.19306 -20.41877,-22.48122 -31.58949,-34.32975 -7.10034,-7.23548 -14.46381,-14.66998 -21.87324,-22.44183 -8.22703,-8.62944 -16.63428,-17.80081 -24.93515,-27.65405 -8.30086,-9.85324 -16.49331,-20.38896 -24.25361,-31.69851 -14.19912,-20.77299 -25.61426,-43.50321 -33.67468,-66.89597 -8.06039,-23.39277 -12.76233,-47.42998 -14.10504,-70.82472 -0.80178,-13.95408 -0.28509,-27.60738 1.32989,-40.6585 1.61497,-13.05115 4.32695,-25.49922 7.87285,-37.12642 3.5459,-11.62721 7.92446,-22.43324 12.84853,-32.29284 4.92404,-9.85961 10.39248,-18.7731 16.11146,-26.70769 8.61111,-11.86435 17.69482,-21.38621 26.21806,-28.95595 8.52324,-7.56977 16.48815,-13.19932 23.18443,-17.39619 6.69627,-4.19688 12.13023,-6.97456 15.84764,-8.76632 3.71738,-1.79174 5.72425,-2.61143 5.72425,-2.61143 0,0 -1.48975,1.59107 -4.14593,4.67476 -2.65621,3.08366 -6.46991,7.67189 -10.84546,13.77594 -4.37554,6.10407 -9.30652,13.73599 -14.03941,22.8317 -4.7329,9.09571 -9.26329,19.66271 -12.76025,31.41166 -2.36063,7.82241 -4.25451,16.18366 -5.536,24.97328 -1.28149,8.78962 -1.95042,18.0076 -1.91991,27.50003 0.0305,9.49244 0.76014,19.25891 2.21862,29.1049 1.45847,9.84597 3.64502,19.77073 6.54052,29.54744 4.88167,16.55606 12.03989,32.90056 21.00883,48.64967 8.96896,15.74912 19.73334,30.90302 31.56988,45.12966 6.48886,7.84554 13.64072,15.61244 21.20392,23.5456 7.56317,7.93317 15.5367,16.0345 23.62815,24.50331 7.28735,7.62721 14.76793,15.65158 22.23894,24.18011 12.32841,13.57395 24.43951,28.81926 35.18257,45.67652 10.74304,16.85725 20.10336,35.32311 27.0343,55.07034 5.37839,16.26105 8.54866,32.6219 9.84359,48.57241 1.29494,15.95049 0.71766,31.48878 -1.31739,46.21102 -2.27061,16.60461 -6.27601,32.19307 -11.43642,46.48457 -5.16042,14.2915 -11.4723,27.28632 -18.36036,38.86843 -9.90343,16.64012 -20.87054,30.36983 -31.43932,41.45634 -10.56878,11.08649 -20.73603,19.54694 -29.40778,25.93033 -8.67173,6.38338 -15.85297,10.71154 -20.79967,13.52124 -4.9467,2.80968 -7.66553,4.12476 -7.66553,4.12476 z"
       id="path3833"
       inkscape:connector-curvature="0" />
    <path
       style="fill:#ff7f2a;fill-rule:evenodd;stroke:none"
       d="m 102.64331,977.07289 c 0,0 -1.1085,-1.65138 -3.022778,-4.77408 -1.914267,-3.12272 -4.62143,-7.72687 -7.565512,-13.68297 -2.944079,-5.95611 -6.115674,-13.27319 -8.873776,-21.72202 -2.758119,-8.44885 -5.097024,-18.03259 -6.404085,-28.32761 -0.893695,-7.10795 -1.281863,-14.56452 -1.023817,-22.15418 0.258047,-7.58966 1.161976,-15.3109 2.813423,-22.90624 2.958165,-13.36344 8.093496,-26.3686 15.474958,-36.98107 4.344246,-6.80234 10.033217,-13.24983 16.584917,-19.79503 6.55167,-6.54519 13.9608,-13.19669 21.60289,-20.32607 4.86571,-4.32753 9.92688,-8.81262 15.04773,-13.55551 5.68592,-5.26621 11.53073,-10.9271 17.35457,-17.08146 5.82383,-6.15436 11.62533,-12.8026 17.19381,-20.00844 10.19477,-13.24806 18.57111,-27.94128 24.71228,-43.20856 6.14117,-15.26728 10.04462,-31.09596 11.6813,-46.59918 0.97813,-9.2526 1.05364,-18.34015 0.37039,-27.05339 -0.68326,-8.71326 -2.12436,-17.05158 -4.14843,-24.86109 -2.02407,-7.80951 -4.63024,-15.08995 -7.62598,-21.74954 -2.99573,-6.65958 -6.38027,-12.69848 -9.95583,-18.08747 -5.39057,-8.05778 -11.15398,-14.54894 -16.59127,-19.72281 -5.43729,-5.17386 -10.54975,-9.0385 -14.85722,-11.92676 -4.30747,-2.88827 -7.81421,-4.80929 -10.21506,-6.04998 -2.40083,-1.24071 -3.69998,-1.81048 -3.69998,-1.81048 0,0 0.86844,1.13302 2.39924,3.30779 1.5308,2.17479 3.71684,5.39852 6.16522,9.62987 2.44837,4.23135 5.15376,9.47772 7.6302,15.63434 2.47644,6.15661 4.7204,13.22791 6.2193,20.95476 1.02174,5.14398 1.70857,10.59222 1.97939,16.26339 0.27081,5.67117 0.12557,11.56524 -0.47428,17.57808 -0.59986,6.01281 -1.65398,12.14416 -3.16057,18.26898 -1.50653,6.12481 -3.46486,12.24266 -5.83998,18.21251 -4.00859,10.1238 -9.41835,19.97368 -15.88874,29.37309 -6.47037,9.3994 -13.99086,18.35016 -22.07427,26.7219 -4.43504,4.62657 -9.31204,9.21431 -14.48251,13.94055 -5.17049,4.72625 -10.63396,9.59235 -16.208923,14.74262 -5.020938,4.63844 -10.19938,9.56747 -15.408972,14.86274 -8.606252,8.38921 -17.152203,17.99703 -24.880015,28.80197 -7.727822,10.80496 -14.627525,22.80464 -19.990966,35.77891 -4.177034,10.72207 -6.857584,21.56196 -8.251877,32.16846 -1.394292,10.60649 -1.504524,20.97831 -0.602291,30.83497 0.998987,11.11104 3.196544,21.57604 6.207184,31.19393 3.010633,9.61789 6.831833,18.38881 11.077199,26.22388 6.102598,11.2503 12.993471,20.56664 19.686824,28.10665 6.693335,7.54001 13.186653,13.31529 18.741815,17.68113 5.555164,4.36584 10.175532,7.33698 13.361693,9.26734 3.186149,1.93036 4.942779,2.83609 4.942779,2.83609 z"
       id="path3845"
       inkscape:connector-curvature="0" />
    <path
       inkscape:connector-curvature="0"
       id="path3853"
       d="m 258.4554,867.75946 c 0,0 1.02354,-1.24084 2.81453,-3.60957 1.79101,-2.36874 4.34056,-5.87459 7.19457,-10.46955 2.85398,-4.59498 6.006,-10.28727 8.91857,-16.95874 2.91256,-6.67147 5.58143,-14.32551 7.46544,-22.68506 1.29639,-5.77605 2.20592,-11.89732 2.58851,-18.20404 0.38257,-6.30671 0.23826,-12.79774 -0.54596,-19.27306 -1.41589,-11.40513 -4.7319,-22.7885 -10.22373,-32.47302 -3.23192,-6.14232 -7.59129,-12.02675 -12.65121,-17.95552 -5.05994,-5.92878 -10.81546,-11.90792 -16.7324,-18.18389 -3.76092,-3.83249 -7.66123,-7.77042 -11.58587,-11.88703 -4.35772,-4.57087 -8.8109,-9.42878 -13.20772,-14.64787 -4.39682,-5.21908 -8.73621,-10.79968 -12.84671,-16.79015 -7.52104,-11.0031 -13.56743,-23.04289 -17.83689,-35.43363 -4.26945,-12.39075 -6.75998,-25.12283 -7.4712,-37.51462 -0.42469,-7.39124 -0.15101,-14.62315 0.70441,-21.5361 0.85543,-6.91296 2.29191,-13.50649 4.17012,-19.66522 1.8782,-6.15873 4.19745,-11.8825 6.80565,-17.10496 2.60817,-5.22245 5.5047,-9.94378 8.53396,-14.1466 4.56114,-6.28434 9.37263,-11.3279 13.88723,-15.33745 4.51463,-4.00958 8.7335,-6.99146 12.2804,-9.21446 3.54689,-2.22302 6.42517,-3.6943 8.39422,-4.64337 1.96902,-0.94906 3.03203,-1.38323 3.03203,-1.38323 0,0 -0.7891,0.84276 -2.19602,2.47614 -1.40694,1.63336 -3.427,4.06367 -5.74466,7.29687 -2.31764,3.23322 -4.9295,7.27572 -7.43642,12.09356 -2.50694,4.81784 -4.9066,10.41499 -6.75889,16.63822 -1.25038,4.14338 -2.25353,8.57219 -2.93231,13.22791 -0.6788,4.6557 -1.03311,9.5383 -1.01695,14.56627 0.0161,5.02799 0.40263,10.20111 1.17515,15.41636 0.77253,5.21525 1.93071,10.47222 3.46441,15.65077 2.58574,8.76945 6.37732,17.42685 11.12801,25.76888 4.75071,8.34203 10.45241,16.36879 16.72201,23.90439 3.43704,4.15566 7.22526,8.26965 11.23135,12.4717 4.00608,4.20206 8.22953,8.4932 12.51543,12.97898 3.85998,4.04 7.82231,8.29037 11.77958,12.80779 6.53014,7.18987 12.94517,15.26505 18.63559,24.19405 5.69039,8.92898 10.64839,18.71003 14.31959,29.1698 2.84884,8.61319 4.52808,17.27925 5.21398,25.72795 0.68592,8.4487 0.38013,16.67907 -0.69779,24.47718 -1.20271,8.79517 -3.3243,17.05211 -6.05768,24.62207 -2.73338,7.56995 -6.07667,14.45308 -9.72517,20.58792 -5.24567,8.81399 -11.05475,16.08637 -16.65285,21.95871 -5.59809,5.87232 -10.98351,10.35367 -15.57679,13.73484 -4.59327,3.38116 -8.39704,5.67371 -11.01722,7.16196 -2.62019,1.48824 -4.0603,2.18482 -4.0603,2.18482 z"
       style="fill:#ff7f2a;fill-opacity:1;fill-rule:evenodd;stroke:none" />
  </g>
</svg>
