<?xml version="1.0" encoding="UTF-8" standalone="no"?>
<!-- Created with Inkscape (http://www.inkscape.org/) -->

<svg
   xmlns:dc="http://purl.org/dc/elements/1.1/"
   xmlns:cc="http://creativecommons.org/ns#"
   xmlns:rdf="http://www.w3.org/1999/02/22-rdf-syntax-ns#"
   xmlns:svg="http://www.w3.org/2000/svg"
   xmlns="http://www.w3.org/2000/svg"
   xmlns:sodipodi="http://sodipodi.sourceforge.net/DTD/sodipodi-0.dtd"
   xmlns:inkscape="http://www.inkscape.org/namespaces/inkscape"
   width="1082.5596"
   height="538.03619"
   id="svg2"
   version="1.1"
   inkscape:version="0.48.5 r10040"
   sodipodi:docname="New document 1">
  <defs
     id="defs4" />
  <sodipodi:namedview
     id="base"
     pagecolor="#ffffff"
     bordercolor="#666666"
     borderopacity="1.0"
     inkscape:pageopacity="0.0"
     inkscape:pageshadow="2"
     inkscape:zoom="1"
     inkscape:cx="511.85991"
     inkscape:cy="353.05899"
     inkscape:document-units="px"
     inkscape:current-layer="layer1"
     showgrid="false"
     showborder="true"
     inkscape:snap-bbox="true"
     inkscape:bbox-nodes="false"
     inkscape:bbox-paths="true"
     inkscape:snap-global="false"
     inkscape:snap-center="false"
     fit-margin-top="0"
     fit-margin-left="0"
     fit-margin-right="0"
     fit-margin-bottom="0"
     inkscape:window-width="1920"
     inkscape:window-height="1017"
     inkscape:window-x="-8"
     inkscape:window-y="-8"
     inkscape:window-maximized="1" />
  <metadata
     id="metadata7">
    <rdf:RDF>
      <cc:Work
         rdf:about="">
        <dc:format>image/svg+xml</dc:format>
        <dc:type
           rdf:resource="http://purl.org/dc/dcmitype/StillImage" />
        <dc:title></dc:title>
      </cc:Work>
    </rdf:RDF>
  </metadata>
  <g
     inkscape:label="Layer 1"
     inkscape:groupmode="layer"
     id="layer1"
     transform="translate(346.5625,-76.51752)">
    <path
       style="fill:#000000;fill-opacity:1;stroke:none"
       d="m -197.24769,125.73845 c -27.69812,0 -50.15189,22.45375 -50.15189,50.15186 0,1.78303 0.0976,3.52499 0.27911,5.25994 -1.99288,-0.30132 -4.04177,-0.45084 -6.11871,-0.45084 -22.38616,0 -40.53371,18.14756 -40.53371,40.53371 0,21.91736 17.4006,39.75263 39.13822,40.49077 l 0,0.043 1.39549,0 111.98298,0 4.05765,0 0,-0.21481 c 20.48001,-2.03657 36.47606,-19.30302 36.47606,-40.31904 0,-22.38614 -18.14755,-40.5337 -40.53371,-40.5337 -2.07697,0 -4.12583,0.14958 -6.11871,0.45085 0.18163,-1.73496 0.27911,-3.47692 0.27911,-5.25995 0,-27.69812 -22.45377,-50.15186 -50.15189,-50.15186 z"
       id="path3753"
       inkscape:connector-curvature="0" />
    <path
       style="fill:#000000;fill-opacity:1;stroke:none"
       d="m 548.99704,366.55371 c -25.58023,0 -47.01476,17.77593 -52.59375,41.65625 -4.285,-1.09416 -8.7804,-1.65625 -13.40625,-1.65625 -25.85918,0 -47.46097,18.16382 -52.75,42.4375 -26.63667,3.32251 -47.25,26.02574 -47.25,53.5625 0,28.84923 22.62049,52.39756 51.09375,53.90625 5.04692,24.59184 26.82147,43.09375 52.90625,43.09375 9.35441,0 18.17223,-2.37718 25.84375,-6.5625 9.85489,13.07775 25.51964,21.5625 43.15625,21.5625 15.89165,0 30.18107,-6.88671 40.0625,-17.8125 8.15166,4.93866 17.71066,7.8125 27.9375,7.8125 19.6959,0 36.91093,-10.56052 46.34375,-26.3125 3.75743,0.82758 7.65013,1.3125 11.65625,1.3125 29.82338,0 54,-24.17662 54,-54 0,-27.1141 -19.98892,-49.55171 -46.03125,-53.40625 4.45937,-7.85592 7.03125,-16.91498 7.03125,-26.59375 0,-29.82338 -24.17662,-54 -54,-54 -16.39817,0 -31.06518,7.30552 -40.96875,18.84375 -4.74434,-24.97733 -26.67309,-43.84375 -53.03125,-43.84375 z"
       id="path3772"
       inkscape:connector-curvature="0" />
    <path
       style="fill:#000000;fill-opacity:1;stroke:none"
       d="m 565.52186,76.51752 c -29.25439,0 -54.56263,16.70529 -67,41.09375 -6.24549,-2.52384 -13.06882,-3.9375 -20.21875,-3.9375 -29.82338,0 -54,24.17662 -54,54 0,3.02414 0.27214,5.98631 0.75,8.875 -15.32005,9.52924 -25.53125,26.50528 -25.53125,45.875 0,28.84923 22.62049,52.39756 51.09375,53.90625 5.04692,24.59184 26.82147,43.09375 52.90625,43.09375 9.35441,0 18.17223,-2.37718 25.84375,-6.5625 9.85489,13.07775 25.51964,21.5625 43.15625,21.5625 24.51466,0 45.18886,-16.37042 51.78125,-38.75 8.06114,4.78629 17.47618,7.53125 27.53125,7.53125 29.82338,0 54,-24.17662 54,-54 0,-12.38677 -4.17393,-23.7953 -11.1875,-32.90625 11.546,-9.9037 18.875,-24.59546 18.875,-41 0,-29.82338 -24.17662,-54 -54,-54 -8.27813,0 -16.11327,1.88959 -23.125,5.21875 -10.36504,-29.13865 -38.17962,-50 -70.875,-50 z"
       id="path3792"
       inkscape:connector-curvature="0" />
    <path
       style="fill:#000000;fill-opacity:1;stroke:none"
       d="m 161,116.375 c -25.58023,0 -47.01476,17.77593 -52.59375,41.65625 -4.285,-1.09416 -8.7804,-1.65625 -13.40625,-1.65625 -25.859181,0 -47.460967,18.16382 -52.75,42.4375 C 15.613327,202.13501 -5,224.83824 -5,252.375 c 0,1.00782 0.039253,2.00583 0.09375,3 l 349.0625,0 C 337.15287,237.82712 321.2246,224.81882 301.96875,221.96875 306.42812,214.11283 309,205.05377 309,195.375 c 0,-29.82338 -24.17662,-54 -54,-54 -16.39817,0 -31.06518,7.30552 -40.96875,18.84375 C 209.28691,135.24142 187.35816,116.375 161,116.375 z"
       id="path3814"
       inkscape:connector-curvature="0" />
    <path
       style="fill:#000000;fill-opacity:1;stroke:none"
       d="m 170.76256,297.3365 c -29.24448,0 -54.58935,16.68751 -67.03125,41.0625 -6.235346,-2.51431 -13.051806,-3.90625 -20.187496,-3.90625 -29.82338,0 -54,24.17662 -54,54 0,3.02675 0.27133,5.98395 0.75,8.875 -10.92827,6.7975 -19.24793,17.37353 -23.1249999,29.90625 l 301.6562459,0 c 6.24255,-8.80567 9.9375,-19.54239 9.9375,-31.15625 0,-29.82338 -24.17662,-54 -54,-54 -8.27813,0 -16.11327,1.88959 -23.125,5.21875 -10.36455,-29.13956 -38.17897,-50 -70.875,-50 z"
       id="path3857"
       inkscape:connector-curvature="0" />
    <path
       style="fill:#000000;fill-opacity:1;stroke:none"
       d="m -205.78125,352.6875 c -25.48628,0 -46.85693,17.65839 -52.53125,41.40625 -8.99996,-6.71283 -20.15901,-10.6875 -32.25,-10.6875 -29.82338,0 -54,24.17662 -54,54 0,15.1109 6.2156,28.76123 16.21875,38.5625 -11.17437,9.89335 -18.21875,24.33921 -18.21875,40.4375 0,29.82338 24.17662,54 54,54 9.35962,0 18.13797,-2.37284 25.8125,-6.5625 9.85342,13.09628 25.53626,21.5625 43.1875,21.5625 24.52613,0 45.19898,-16.35429 51.78125,-38.75 8.06175,4.7873 17.47504,7.53125 27.53125,7.53125 29.82338,0 54,-24.17662 54,-54 0,-7.6282 -1.61541,-14.85823 -4.46875,-21.4375 8.78679,-9.60453 14.15625,-22.39411 14.15625,-36.4375 0,-29.82338 -24.17662,-54 -54,-54 -6.80532,0 -13.31539,1.26493 -19.3125,3.5625 -6.43987,-22.61982 -27.22078,-39.1875 -51.90625,-39.1875 z"
       id="path3893"
       inkscape:connector-curvature="0" />
    <path
       style="fill:#000000;fill-opacity:1;stroke:none"
       d="m 167.21875,465.67377 c -25.48628,0 -46.85693,17.65839 -52.53125,41.40625 -8.99996,-6.71283 -20.15901,-10.6875 -32.25,-10.6875 -29.82338,0 -54,24.17662 -54,54 0,8.68781 2.07103,16.88795 5.71875,24.15625 l 254.75,0 c 2.28041,-5.97476 3.53125,-12.47468 3.53125,-19.25 0,-29.82338 -24.17662,-54 -54,-54 -6.80532,0 -13.31539,1.26493 -19.3125,3.5625 -6.43987,-22.61982 -27.22078,-39.1875 -51.90625,-39.1875 z"
       id="path3910"
       inkscape:connector-curvature="0" />
  </g>
</svg>
