<?xml version="1.0" encoding="UTF-8" standalone="no"?>
<!-- Created with Inkscape (http://www.inkscape.org/) -->

<svg
   xmlns:dc="http://purl.org/dc/elements/1.1/"
   xmlns:cc="http://creativecommons.org/ns#"
   xmlns:rdf="http://www.w3.org/1999/02/22-rdf-syntax-ns#"
   xmlns:svg="http://www.w3.org/2000/svg"
   xmlns="http://www.w3.org/2000/svg"
   xmlns:sodipodi="http://sodipodi.sourceforge.net/DTD/sodipodi-0.dtd"
   xmlns:inkscape="http://www.inkscape.org/namespaces/inkscape"
   width="304.99957"
   height="307.05435"
   id="svg2"
   version="1.1"
   inkscape:version="0.48.5 r10040"
   sodipodi:docname="Sun.svg">
  <defs
     id="defs4" />
  <sodipodi:namedview
     id="base"
     pagecolor="#ffffff"
     bordercolor="#666666"
     borderopacity="1.0"
     inkscape:pageopacity="0.0"
     inkscape:pageshadow="2"
     inkscape:zoom="1.4142136"
     inkscape:cx="-143.68238"
     inkscape:cy="251.85889"
     inkscape:document-units="px"
     inkscape:current-layer="layer1"
     showgrid="false"
     showborder="true"
     fit-margin-top="0"
     fit-margin-left="0"
     fit-margin-right="0"
     fit-margin-bottom="0"
     inkscape:window-width="1920"
     inkscape:window-height="1017"
     inkscape:window-x="-8"
     inkscape:window-y="-8"
     inkscape:window-maximized="1" />
  <metadata
     id="metadata7">
    <rdf:RDF>
      <cc:Work
         rdf:about="">
        <dc:format>image/svg+xml</dc:format>
        <dc:type
           rdf:resource="http://purl.org/dc/dcmitype/StillImage" />
        <dc:title />
      </cc:Work>
    </rdf:RDF>
  </metadata>
  <g
     inkscape:label="Layer 1"
     inkscape:groupmode="layer"
     id="layer1"
     transform="translate(150.5,-190.55102)">
    <path
       sodipodi:type="arc"
       style="fill:#ffcc00;fill-opacity:1;stroke:none"
       id="path3753"
       sodipodi:cx="-489"
       sodipodi:cy="429.36218"
       sodipodi:rx="111"
       sodipodi:ry="111"
       d="m -378,429.36218 c 0,61.30361 -49.69639,111 -111,111 -61.30361,0 -111,-49.69639 -111,-111 0,-61.3036 49.69639,-111 111,-111 61.30361,0 111,49.6964 111,111 z"
       transform="matrix(0.39747467,0,0,0.39747467,106.42033,82.44564)" />
    <g
       id="g3759"
       transform="matrix(0.30739663,0,0,0.30739663,49.15411,124.96421)">
      <path
         sodipodi:type="arc"
         style="fill:#ffcc00;fill-opacity:1;stroke:none"
         id="path3755"
         sodipodi:cx="-489"
         sodipodi:cy="429.36218"
         sodipodi:rx="111"
         sodipodi:ry="111"
         d="m -378,429.36218 c 0,61.30361 -49.69639,111 -111,111 -61.30361,0 -111,-49.69639 -111,-111 0,-61.3036 49.69639,-111 111,-111 61.30361,0 111,49.6964 111,111 z"
         transform="matrix(0.18018018,0,0,0.18018018,-357.89189,522.99962)" />
      <path
         transform="matrix(0.18018018,0,0,0.18018018,-357.89189,155.99962)"
         d="m -378,429.36218 c 0,61.30361 -49.69639,111 -111,111 -61.30361,0 -111,-49.69639 -111,-111 0,-61.3036 49.69639,-111 111,-111 61.30361,0 111,49.6964 111,111 z"
         sodipodi:ry="111"
         sodipodi:rx="111"
         sodipodi:cy="429.36218"
         sodipodi:cx="-489"
         id="path3757"
         style="fill:#ffcc00;fill-opacity:1;stroke:none"
         sodipodi:type="arc" />
    </g>
    <g
       id="g3769"
       transform="matrix(0.29692235,0.0795601,-0.0795601,0.29692235,77.64818,164.81435)">
      <path
         sodipodi:type="arc"
         style="fill:#ffcc00;fill-opacity:1;stroke:none"
         id="path3771"
         sodipodi:cx="-489"
         sodipodi:cy="429.36218"
         sodipodi:rx="111"
         sodipodi:ry="111"
         d="m -378,429.36218 c 0,61.30361 -49.69639,111 -111,111 -61.30361,0 -111,-49.69639 -111,-111 0,-61.3036 49.69639,-111 111,-111 61.30361,0 111,49.6964 111,111 z"
         transform="matrix(0.18018018,0,0,0.18018018,-357.89189,522.99962)" />
      <path
         transform="matrix(0.18018018,0,0,0.18018018,-357.89189,155.99962)"
         d="m -378,429.36218 c 0,61.30361 -49.69639,111 -111,111 -61.30361,0 -111,-49.69639 -111,-111 0,-61.3036 49.69639,-111 111,-111 61.30361,0 111,49.6964 111,111 z"
         sodipodi:ry="111"
         sodipodi:rx="111"
         sodipodi:cy="429.36218"
         sodipodi:cx="-489"
         id="path3773"
         style="fill:#ffcc00;fill-opacity:1;stroke:none"
         sodipodi:type="arc" />
    </g>
    <g
       id="g3775"
       transform="matrix(0.26621329,0.15369832,-0.15369832,0.26621329,94.85736,210.68143)">
      <path
         sodipodi:type="arc"
         style="fill:#ffcc00;fill-opacity:1;stroke:none"
         id="path3777"
         sodipodi:cx="-489"
         sodipodi:cy="429.36218"
         sodipodi:rx="111"
         sodipodi:ry="111"
         d="m -378,429.36218 c 0,61.30361 -49.69639,111 -111,111 -61.30361,0 -111,-49.69639 -111,-111 0,-61.3036 49.69639,-111 111,-111 61.30361,0 111,49.6964 111,111 z"
         transform="matrix(0.18018018,0,0,0.18018018,-357.89189,522.99962)" />
      <path
         transform="matrix(0.18018018,0,0,0.18018018,-357.89189,155.99962)"
         d="m -378,429.36218 c 0,61.30361 -49.69639,111 -111,111 -61.30361,0 -111,-49.69639 -111,-111 0,-61.3036 49.69639,-111 111,-111 61.30361,0 111,49.6964 111,111 z"
         sodipodi:ry="111"
         sodipodi:rx="111"
         sodipodi:cy="429.36218"
         sodipodi:cx="-489"
         id="path3779"
         style="fill:#ffcc00;fill-opacity:1;stroke:none"
         sodipodi:type="arc" />
    </g>
    <g
       id="g3781"
       transform="matrix(0.21736224,0.21736224,-0.21736224,0.21736224,99.60887,259.4397)">
      <path
         sodipodi:type="arc"
         style="fill:#ffcc00;fill-opacity:1;stroke:none"
         id="path3783"
         sodipodi:cx="-489"
         sodipodi:cy="429.36218"
         sodipodi:rx="111"
         sodipodi:ry="111"
         d="m -378,429.36218 c 0,61.30361 -49.69639,111 -111,111 -61.30361,0 -111,-49.69639 -111,-111 0,-61.3036 49.69639,-111 111,-111 61.30361,0 111,49.6964 111,111 z"
         transform="matrix(0.18018018,0,0,0.18018018,-357.89189,522.99962)" />
      <path
         transform="matrix(0.18018018,0,0,0.18018018,-357.89189,155.99962)"
         d="m -378,429.36218 c 0,61.30361 -49.69639,111 -111,111 -61.30361,0 -111,-49.69639 -111,-111 0,-61.3036 49.69639,-111 111,-111 61.30361,0 111,49.6964 111,111 z"
         sodipodi:ry="111"
         sodipodi:rx="111"
         sodipodi:cy="429.36218"
         sodipodi:cx="-489"
         id="path3785"
         style="fill:#ffcc00;fill-opacity:1;stroke:none"
         sodipodi:type="arc" />
    </g>
    <g
       id="g3787"
       transform="matrix(0.15369832,0.26621329,-0.26621329,0.15369832,91.57891,307.76635)">
      <path
         sodipodi:type="arc"
         style="fill:#ffcc00;fill-opacity:1;stroke:none"
         id="path3789"
         sodipodi:cx="-489"
         sodipodi:cy="429.36218"
         sodipodi:rx="111"
         sodipodi:ry="111"
         d="m -378,429.36218 c 0,61.30361 -49.69639,111 -111,111 -61.30361,0 -111,-49.69639 -111,-111 0,-61.3036 49.69639,-111 111,-111 61.30361,0 111,49.6964 111,111 z"
         transform="matrix(0.18018018,0,0,0.18018018,-357.89189,522.99962)" />
      <path
         transform="matrix(0.18018018,0,0,0.18018018,-357.89189,155.99962)"
         d="m -378,429.36218 c 0,61.30361 -49.69639,111 -111,111 -61.30361,0 -111,-49.69639 -111,-111 0,-61.3036 49.69639,-111 111,-111 61.30361,0 111,49.6964 111,111 z"
         sodipodi:ry="111"
         sodipodi:rx="111"
         sodipodi:cy="429.36218"
         sodipodi:cx="-489"
         id="path3791"
         style="fill:#ffcc00;fill-opacity:1;stroke:none"
         sodipodi:type="arc" />
    </g>
    <g
       id="g3793"
       transform="matrix(0.0795601,0.29692235,-0.29692235,0.0795601,71.31471,352.368)">
      <path
         sodipodi:type="arc"
         style="fill:#ffcc00;fill-opacity:1;stroke:none"
         id="path3795"
         sodipodi:cx="-489"
         sodipodi:cy="429.36218"
         sodipodi:rx="111"
         sodipodi:ry="111"
         d="m -378,429.36218 c 0,61.30361 -49.69639,111 -111,111 -61.30361,0 -111,-49.69639 -111,-111 0,-61.3036 49.69639,-111 111,-111 61.30361,0 111,49.6964 111,111 z"
         transform="matrix(0.18018018,0,0,0.18018018,-357.89189,522.99962)" />
      <path
         transform="matrix(0.18018018,0,0,0.18018018,-357.89189,155.99962)"
         d="m -378,429.36218 c 0,61.30361 -49.69639,111 -111,111 -61.30361,0 -111,-49.69639 -111,-111 0,-61.3036 49.69639,-111 111,-111 61.30361,0 111,49.6964 111,111 z"
         sodipodi:ry="111"
         sodipodi:rx="111"
         sodipodi:cy="429.36218"
         sodipodi:cx="-489"
         id="path3797"
         style="fill:#ffcc00;fill-opacity:1;stroke:none"
         sodipodi:type="arc" />
    </g>
    <g
       id="g3799"
       transform="matrix(0,0.30739663,-0.30739663,0,40.19724,390.20513)">
      <path
         sodipodi:type="arc"
         style="fill:#ffcc00;fill-opacity:1;stroke:none"
         id="path3801"
         sodipodi:cx="-489"
         sodipodi:cy="429.36218"
         sodipodi:rx="111"
         sodipodi:ry="111"
         d="m -378,429.36218 c 0,61.30361 -49.69639,111 -111,111 -61.30361,0 -111,-49.69639 -111,-111 0,-61.3036 49.69639,-111 111,-111 61.30361,0 111,49.6964 111,111 z"
         transform="matrix(0.18018018,0,0,0.18018018,-357.89189,522.99962)" />
      <path
         transform="matrix(0.18018018,0,0,0.18018018,-357.89189,155.99962)"
         d="m -378,429.36218 c 0,61.30361 -49.69639,111 -111,111 -61.30361,0 -111,-49.69639 -111,-111 0,-61.3036 49.69639,-111 111,-111 61.30361,0 111,49.6964 111,111 z"
         sodipodi:ry="111"
         sodipodi:rx="111"
         sodipodi:cy="429.36218"
         sodipodi:cx="-489"
         id="path3803"
         style="fill:#ffcc00;fill-opacity:1;stroke:none"
         sodipodi:type="arc" />
    </g>
    <g
       id="g3805"
       transform="matrix(-0.0795601,0.29692235,-0.29692235,-0.0795601,0.3471,418.6992)">
      <path
         sodipodi:type="arc"
         style="fill:#ffcc00;fill-opacity:1;stroke:none"
         id="path3807"
         sodipodi:cx="-489"
         sodipodi:cy="429.36218"
         sodipodi:rx="111"
         sodipodi:ry="111"
         d="m -378,429.36218 c 0,61.30361 -49.69639,111 -111,111 -61.30361,0 -111,-49.69639 -111,-111 0,-61.3036 49.69639,-111 111,-111 61.30361,0 111,49.6964 111,111 z"
         transform="matrix(0.18018018,0,0,0.18018018,-357.89189,522.99962)" />
      <path
         transform="matrix(0.18018018,0,0,0.18018018,-357.89189,155.99962)"
         d="m -378,429.36218 c 0,61.30361 -49.69639,111 -111,111 -61.30361,0 -111,-49.69639 -111,-111 0,-61.3036 49.69639,-111 111,-111 61.30361,0 111,49.6964 111,111 z"
         sodipodi:ry="111"
         sodipodi:rx="111"
         sodipodi:cy="429.36218"
         sodipodi:cx="-489"
         id="path3809"
         style="fill:#ffcc00;fill-opacity:1;stroke:none"
         sodipodi:type="arc" />
    </g>
    <g
       id="g3811"
       transform="matrix(-0.15369832,0.26621329,-0.26621329,-0.15369832,-45.51998,435.90838)">
      <path
         sodipodi:type="arc"
         style="fill:#ffcc00;fill-opacity:1;stroke:none"
         id="path3813"
         sodipodi:cx="-489"
         sodipodi:cy="429.36218"
         sodipodi:rx="111"
         sodipodi:ry="111"
         d="m -378,429.36218 c 0,61.30361 -49.69639,111 -111,111 -61.30361,0 -111,-49.69639 -111,-111 0,-61.3036 49.69639,-111 111,-111 61.30361,0 111,49.6964 111,111 z"
         transform="matrix(0.18018018,0,0,0.18018018,-357.89189,522.99962)" />
      <path
         transform="matrix(0.18018018,0,0,0.18018018,-357.89189,155.99962)"
         d="m -378,429.36218 c 0,61.30361 -49.69639,111 -111,111 -61.30361,0 -111,-49.69639 -111,-111 0,-61.3036 49.69639,-111 111,-111 61.30361,0 111,49.6964 111,111 z"
         sodipodi:ry="111"
         sodipodi:rx="111"
         sodipodi:cy="429.36218"
         sodipodi:cx="-489"
         id="path3815"
         style="fill:#ffcc00;fill-opacity:1;stroke:none"
         sodipodi:type="arc" />
    </g>
    <g
       id="g3817"
       transform="matrix(-0.21736224,0.21736224,-0.21736224,-0.21736224,-94.27825,440.6599)">
      <path
         sodipodi:type="arc"
         style="fill:#ffcc00;fill-opacity:1;stroke:none"
         id="path3819"
         sodipodi:cx="-489"
         sodipodi:cy="429.36218"
         sodipodi:rx="111"
         sodipodi:ry="111"
         d="m -378,429.36218 c 0,61.30361 -49.69639,111 -111,111 -61.30361,0 -111,-49.69639 -111,-111 0,-61.3036 49.69639,-111 111,-111 61.30361,0 111,49.6964 111,111 z"
         transform="matrix(0.18018018,0,0,0.18018018,-357.89189,522.99962)" />
      <path
         transform="matrix(0.18018018,0,0,0.18018018,-357.89189,155.99962)"
         d="m -378,429.36218 c 0,61.30361 -49.69639,111 -111,111 -61.30361,0 -111,-49.69639 -111,-111 0,-61.3036 49.69639,-111 111,-111 61.30361,0 111,49.6964 111,111 z"
         sodipodi:ry="111"
         sodipodi:rx="111"
         sodipodi:cy="429.36218"
         sodipodi:cx="-489"
         id="path3821"
         style="fill:#ffcc00;fill-opacity:1;stroke:none"
         sodipodi:type="arc" />
    </g>
    <g
       id="g3823"
       transform="matrix(-0.26621329,0.15369832,-0.15369832,-0.26621329,-142.6049,432.62993)">
      <path
         sodipodi:type="arc"
         style="fill:#ffcc00;fill-opacity:1;stroke:none"
         id="path3825"
         sodipodi:cx="-489"
         sodipodi:cy="429.36218"
         sodipodi:rx="111"
         sodipodi:ry="111"
         d="m -378,429.36218 c 0,61.30361 -49.69639,111 -111,111 -61.30361,0 -111,-49.69639 -111,-111 0,-61.3036 49.69639,-111 111,-111 61.30361,0 111,49.6964 111,111 z"
         transform="matrix(0.18018018,0,0,0.18018018,-357.89189,522.99962)" />
      <path
         transform="matrix(0.18018018,0,0,0.18018018,-357.89189,155.99962)"
         d="m -378,429.36218 c 0,61.30361 -49.69639,111 -111,111 -61.30361,0 -111,-49.69639 -111,-111 0,-61.3036 49.69639,-111 111,-111 61.30361,0 111,49.6964 111,111 z"
         sodipodi:ry="111"
         sodipodi:rx="111"
         sodipodi:cy="429.36218"
         sodipodi:cx="-489"
         id="path3827"
         style="fill:#ffcc00;fill-opacity:1;stroke:none"
         sodipodi:type="arc" />
    </g>
    <g
       transform="matrix(-0.29692235,0.0795601,-0.0795601,-0.29692235,-187.20655,412.36574)"
       id="g3763">
      <path
         transform="matrix(0.18018018,0,0,0.18018018,-357.89189,522.99962)"
         d="m -378,429.36218 c 0,61.30361 -49.69639,111 -111,111 -61.30361,0 -111,-49.69639 -111,-111 0,-61.3036 49.69639,-111 111,-111 61.30361,0 111,49.6964 111,111 z"
         sodipodi:ry="111"
         sodipodi:rx="111"
         sodipodi:cy="429.36218"
         sodipodi:cx="-489"
         id="path3765"
         style="fill:#ffcc00;fill-opacity:1;stroke:none"
         sodipodi:type="arc" />
      <path
         sodipodi:type="arc"
         style="fill:#ffcc00;fill-opacity:1;stroke:none"
         id="path3767"
         sodipodi:cx="-489"
         sodipodi:cy="429.36218"
         sodipodi:rx="111"
         sodipodi:ry="111"
         d="m -378,429.36218 c 0,61.30361 -49.69639,111 -111,111 -61.30361,0 -111,-49.69639 -111,-111 0,-61.3036 49.69639,-111 111,-111 61.30361,0 111,49.6964 111,111 z"
         transform="matrix(0.18018018,0,0,0.18018018,-357.89189,155.99962)" />
    </g>
    <rect
       style="fill:#ff9955;fill-opacity:1;stroke:none"
       id="rect3829"
       width="82.00444"
       height="82.00444"
       x="203.31377"
       y="66.822815"
       transform="matrix(0.70710678,0.70710678,-0.70710678,0.70710678,0,0)" />
    <rect
       transform="matrix(0,1,-1,0,0,0)"
       y="-137.5159"
       x="207.99908"
       height="82.00444"
       width="82.00444"
       id="rect3831"
       style="fill:#ff9955;fill-opacity:1;stroke:none" />
    <path
       style="fill:#ff9955;fill-opacity:1;stroke:none"
       d="m 16.261,314.89253 -10.618582,10.61858 -13.023349,-7.51118 -7.511187,13.01345 -14.527569,-3.88918 -3.889194,14.51767 -15.032267,0 0,15.04216 -14.517671,3.88919 3.889194,14.51767 -13.013454,7.5112 7.511183,13.01344 -10.628478,10.62847 10.638374,10.63839 -7.521079,13.01345 13.013454,7.51119 -3.889194,14.51765 14.517671,3.88919 0,15.0323 15.032273,0 3.889188,14.52753 14.527569,-3.88918 7.511187,13.01345 13.023349,-7.51117 10.618582,10.61857 10.61858,-10.61857 13.02336,7.51117 7.51118,-13.01345 14.52758,3.88918 3.88917,-14.52753 15.03229,0 0,-15.0323 14.51765,-3.88919 -3.88918,-14.51765 13.01344,-7.51119 L 96.984,416.88239 107.62238,406.244 96.9939,395.61553 l 7.51117,-13.01344 -13.01344,-7.5112 3.88918,-14.51767 -14.51765,-3.88919 0,-15.04216 -15.03229,0 L 61.9417,327.1242 47.41412,331.01338 39.90294,317.99993 26.87958,325.51111 16.261,314.89253 z"
       id="rect3849"
       inkscape:connector-curvature="0" />
    <path
       sodipodi:type="arc"
       style="fill:#ffcc00;fill-opacity:1;stroke:none"
       id="path3861"
       sodipodi:cx="-489"
       sodipodi:cy="429.36218"
       sodipodi:rx="111"
       sodipodi:ry="111"
       d="m -378,429.36218 a 111,111 0 1 1 -222,0 111,111 0 1 1 222,0 z"
       transform="matrix(0.42400154,-0.2447974,0.2447974,0.42400154,118.49123,104.49362)" />
    <path
       style="fill:#ffdc4f;fill-opacity:1;stroke:none"
       d="m -10.908968,359.18633 c -25.992823,15.00697 -34.899335,48.24654 -19.892375,74.23936 2.350745,4.07161 5.14328,7.71684 8.290733,10.92368 -6.484989,-23.31072 3.282843,-48.93952 25.2071869,-61.59754 21.9243421,-12.65803 48.9941471,-8.29743 65.9393311,8.97407 -1.203474,-4.32922 -2.954766,-8.57556 -5.305521,-12.64719 -15.00696,-25.99282 -48.246521,-34.89935 -74.239355,-19.89238 z"
       id="path3866"
       inkscape:connector-curvature="0" />
    <g
       id="g3810"
       transform="translate(-3.5163111e-6,-8.756047)">
      <path
         sodipodi:type="arc"
         style="fill:#ffcc00;fill-opacity:1;stroke:none"
         id="path3038"
         sodipodi:cx="-489"
         sodipodi:cy="429.36218"
         sodipodi:rx="111"
         sodipodi:ry="111"
         d="m -378,429.36218 c 0,61.30361 -49.69639,111 -111,111 -61.30361,0 -111,-49.69639 -111,-111 0,-61.3036 49.69639,-111 111,-111 61.30361,0 111,49.6964 111,111 z"
         transform="matrix(0.25852311,-0.14925838,0.14925838,0.25852311,158.84558,73.769957)" />
      <path
         style="fill:#ffdc4f;fill-opacity:1;stroke:none"
         d="m 80.550313,229.06173 c -15.848397,9.15008 -21.278899,29.41698 -12.128824,45.26537 1.433305,2.48255 3.135972,4.70513 5.055048,6.66041 -3.954042,-14.21306 2.00162,-29.8395 15.369374,-37.55738 13.367759,-7.71788 29.872819,-5.05913 40.204679,5.47169 -0.73379,-2.63962 -1.80159,-5.22871 -3.2349,-7.71127 -9.15008,-15.8484 -29.416973,-21.27891 -45.265377,-12.12882 z"
         id="path3040"
         inkscape:connector-curvature="0" />
    </g>
  </g>
</svg>
