<?xml version="1.0" encoding="UTF-8" standalone="no"?>
<!-- Created with Inkscape (http://www.inkscape.org/) -->

<svg
   xmlns:dc="http://purl.org/dc/elements/1.1/"
   xmlns:cc="http://creativecommons.org/ns#"
   xmlns:rdf="http://www.w3.org/1999/02/22-rdf-syntax-ns#"
   xmlns:svg="http://www.w3.org/2000/svg"
   xmlns="http://www.w3.org/2000/svg"
   xmlns:sodipodi="http://sodipodi.sourceforge.net/DTD/sodipodi-0.dtd"
   xmlns:inkscape="http://www.inkscape.org/namespaces/inkscape"
   width="1044.6937"
   height="633.13043"
   id="svg2"
   version="1.1"
   inkscape:version="0.48.5 r10040"
   sodipodi:docname="Tree.svg">
  <defs
     id="defs4" />
  <sodipodi:namedview
     id="base"
     pagecolor="#ffffff"
     bordercolor="#666666"
     borderopacity="1.0"
     inkscape:pageopacity="0.0"
     inkscape:pageshadow="2"
     inkscape:zoom="0.70710678"
     inkscape:cx="270.0218"
     inkscape:cy="258.40346"
     inkscape:document-units="px"
     inkscape:current-layer="layer1"
     showgrid="false"
     showborder="true"
     inkscape:window-width="1920"
     inkscape:window-height="1017"
     inkscape:window-x="-8"
     inkscape:window-y="-8"
     inkscape:window-maximized="1"
     fit-margin-top="0"
     fit-margin-left="0"
     fit-margin-right="0"
     fit-margin-bottom="0" />
  <metadata
     id="metadata7">
    <rdf:RDF>
      <cc:Work
         rdf:about="">
        <dc:format>image/svg+xml</dc:format>
        <dc:type
           rdf:resource="http://purl.org/dc/dcmitype/StillImage" />
        <dc:title />
      </cc:Work>
    </rdf:RDF>
  </metadata>
  <g
     inkscape:label="Layer 1"
     inkscape:groupmode="layer"
     id="layer1"
     transform="translate(-16.492477,-168.81386)">
    <g
       id="g4883"
       transform="matrix(1.0521506,0,0,1.0521506,-6825.1022,-19206.452)"
       inkscape:export-filename="C:\Users\Brayan\Desktop\City.png"
       inkscape:export-xdpi="459.41"
       inkscape:export-ydpi="459.41">
      <rect
         style="fill:#d89a70;fill-opacity:1;stroke:none"
         id="rect4881"
         width="19.79899"
         height="89.802559"
         x="7058.3311"
         y="18612.652" />
      <path
         inkscape:connector-curvature="0"
         id="path4854"
         d="m 7068.2304,18489.598 c -7.4224,0 -13.6089,5.188 -15.2177,12.122 -4.8605,-5.193 -12.8116,-6.575 -19.2363,-2.866 -6.4358,3.716 -9.2353,11.301 -7.1477,18.117 -6.8076,-2.071 -14.3729,0.687 -18.0834,7.115 -3.7081,6.422 -2.3565,14.375 2.8327,19.236 -6.9185,1.619 -12.0886,7.838 -12.0886,15.251 0,7.412 5.1701,13.598 12.0886,15.217 -5.1892,4.861 -6.5408,12.814 -2.8327,19.236 3.7105,6.427 11.2758,9.186 18.0834,7.115 -2.0876,6.816 0.7119,14.4 7.1477,18.116 6.4247,3.71 14.3758,2.328 19.2363,-2.865 1.6088,6.932 7.7953,12.122 15.2177,12.122 7.4231,0 13.6426,-5.188 15.2506,-12.122 4.8605,5.193 12.8117,6.575 19.2363,2.865 6.4269,-3.71 9.186,-11.275 7.1148,-18.083 6.815,2.088 14.4006,-0.712 18.1164,-7.148 3.7093,-6.424 2.3273,-14.376 -2.8657,-19.236 6.9299,-1.611 12.0886,-7.798 12.0886,-15.217 0,-7.421 -5.1587,-13.64 -12.0886,-15.251 5.193,-4.861 6.575,-12.812 2.8657,-19.236 -3.7161,-6.437 -11.3009,-9.204 -18.1164,-7.115 2.0889,-6.816 -0.6783,-14.4 -7.1148,-18.117 -6.4246,-3.709 -14.3758,-2.327 -19.2363,2.866 -1.608,-6.934 -7.8275,-12.122 -15.2506,-12.122 z"
         style="fill:#afe9af;fill-opacity:1;stroke:none" />
    </g>
    <g
       id="g5041"
       transform="matrix(1.3455693,0,0,1.3455693,-9496.307,-24696.956)"
       inkscape:export-filename="C:\Users\Brayan\Desktop\City.png"
       inkscape:export-xdpi="459.41"
       inkscape:export-ydpi="459.41">
      <rect
         style="fill:#d89a70;fill-opacity:1;stroke:none"
         id="rect5043"
         width="19.79899"
         height="89.802559"
         x="7309.4292"
         y="18614.773" />
      <g
         id="g5045"
         transform="matrix(0.72270329,0,0,0.72270329,2029.6255,5249.2292)">
        <path
           transform="matrix(0.72727272,0,0,0.72727272,2358.4275,4937.5413)"
           sodipodi:type="arc"
           style="fill:#afe9af;fill-opacity:1;stroke:none"
           id="path5047"
           sodipodi:cx="6875.1992"
           sodipodi:cy="18565.275"
           sodipodi:rx="70.003571"
           sodipodi:ry="70.003571"
           d="m 6945.2028,18565.275 c 0,38.662 -31.3417,70.004 -70.0036,70.004 -38.6619,0 -70.0036,-31.342 -70.0036,-70.004 0,-38.662 31.3417,-70.003 70.0036,-70.003 38.6619,0 70.0036,31.341 70.0036,70.003 z" />
        <path
           d="m 6945.2028,18565.275 c 0,38.662 -31.3417,70.004 -70.0036,70.004 -38.6619,0 -70.0036,-31.342 -70.0036,-70.004 0,-38.662 31.3417,-70.003 70.0036,-70.003 38.6619,0 70.0036,31.341 70.0036,70.003 z"
           sodipodi:ry="70.003571"
           sodipodi:rx="70.003571"
           sodipodi:cy="18565.275"
           sodipodi:cx="6875.1992"
           id="path5049"
           style="fill:#afe9af;fill-opacity:1;stroke:none"
           sodipodi:type="arc"
           transform="matrix(0.72727272,0,0,0.72727272,2279.9386,4937.5413)" />
      </g>
      <g
         id="g5051"
         transform="matrix(0,0.72270329,-0.72270329,0,20645.659,13285.858)">
        <path
           d="m 6945.2028,18565.275 c 0,38.662 -31.3417,70.004 -70.0036,70.004 -38.6619,0 -70.0036,-31.342 -70.0036,-70.004 0,-38.662 31.3417,-70.003 70.0036,-70.003 38.6619,0 70.0036,31.341 70.0036,70.003 z"
           sodipodi:ry="70.003571"
           sodipodi:rx="70.003571"
           sodipodi:cy="18565.275"
           sodipodi:cx="6875.1992"
           id="path5053"
           style="fill:#afe9af;fill-opacity:1;stroke:none"
           sodipodi:type="arc"
           transform="matrix(0.72727272,0,0,0.72727272,2358.4275,4937.5413)" />
        <path
           transform="matrix(0.72727272,0,0,0.72727272,2279.9386,4937.5413)"
           sodipodi:type="arc"
           style="fill:#afe9af;fill-opacity:1;stroke:none"
           id="path5055"
           sodipodi:cx="6875.1992"
           sodipodi:cy="18565.275"
           sodipodi:rx="70.003571"
           sodipodi:ry="70.003571"
           d="m 6945.2028,18565.275 c 0,38.662 -31.3417,70.004 -70.0036,70.004 -38.6619,0 -70.0036,-31.342 -70.0036,-70.004 0,-38.662 31.3417,-70.003 70.0036,-70.003 38.6619,0 70.0036,31.341 70.0036,70.003 z" />
      </g>
    </g>
    <g
       id="g3849"
       transform="translate(-3.5219277e-5,-37.409122)">
      <g
         inkscape:export-ydpi="459.41"
         inkscape:export-xdpi="459.41"
         inkscape:export-filename="C:\Users\Brayan\Desktop\City.png"
         transform="matrix(1.5707785,0,0,1.5707785,-10981.247,-28488.078)"
         id="g5061">
        <rect
           style="fill:#d89a70;fill-opacity:1;stroke:none"
           id="rect5057"
           width="19.79899"
           height="89.802559"
           x="7370.5093"
           y="18580.832" />
        <path
           sodipodi:nodetypes="sssss"
           inkscape:connector-curvature="0"
           id="path5059"
           d="m 7419.4089,18518.233 c 0,21.539 -17.4609,84.374 -39,84.374 -21.5391,0 -39,-62.835 -39,-84.374 0,-21.539 17.4609,-39 39,-39 21.5391,0 39,17.461 39,39 z"
           style="fill:#afe9af;fill-opacity:1;stroke:none" />
      </g>
    </g>
    <g
       id="g3867"
       transform="translate(-20.668611,-37.409151)">
      <rect
         y="727.40906"
         x="112.52245"
         height="96.808113"
         width="14.659375"
         id="rect3843"
         style="fill:#d89a70;fill-opacity:1;stroke:none"
         transform="matrix(-0.81945146,0.57314858,0.57314858,0.81945146,0,0)" />
      <rect
         transform="matrix(0.81945146,0.57314858,-0.57314858,0.81945146,0,0)"
         style="fill:#d89a70;fill-opacity:1;stroke:none"
         id="rect3841"
         width="14.659375"
         height="96.808113"
         x="743.81403"
         y="285.86517" />
      <rect
         y="667.79816"
         x="366.36536"
         height="171.55527"
         width="37.823212"
         id="rect3829"
         style="fill:#d89a70;fill-opacity:1;stroke:none" />
      <path
         transform="matrix(1.7001612,0,0,0.8323409,-11303.67,-14830.276)"
         sodipodi:type="arc"
         style="fill:#afe9af;fill-opacity:1;stroke:none"
         id="path5014"
         sodipodi:cx="6875.1992"
         sodipodi:cy="18565.275"
         sodipodi:rx="70.003571"
         sodipodi:ry="70.003571"
         d="m 6945.2028,18565.275 c 0,38.662 -31.3417,70.004 -70.0036,70.004 -38.6619,0 -70.0036,-31.342 -70.0036,-70.004 0,-38.662 31.3417,-70.003 70.0036,-70.003 38.6619,0 70.0036,31.341 70.0036,70.003 z" />
    </g>
    <g
       id="g3860"
       transform="translate(123.38665,0)">
      <rect
         style="fill:#d89a70;fill-opacity:1;stroke:none"
         id="rect3809"
         width="27.758554"
         height="125.90487"
         x="-39.65134"
         y="345.44247" />
      <path
         inkscape:transform-center-x="1.4321787e-005"
         transform="matrix(0.84417505,0,0,1.064618,-5946.816,-19436.485)"
         inkscape:transform-center-y="-17.629698"
         d="m 7094.425,18605.795 -160.85,0 80.425,-139.301 z"
         inkscape:randomized="0"
         inkscape:rounded="0"
         inkscape:flatsided="true"
         sodipodi:arg2="1.5707963"
         sodipodi:arg1="0.52359878"
         sodipodi:r2="46.433418"
         sodipodi:r1="92.866837"
         sodipodi:cy="18559.361"
         sodipodi:cx="7014"
         sodipodi:sides="3"
         id="path3811"
         style="fill:#afe9af;fill-opacity:1;stroke:none"
         sodipodi:type="star" />
      <path
         inkscape:transform-center-x="4.9605548e-005"
         sodipodi:type="star"
         style="fill:#afe9af;fill-opacity:1;stroke:none"
         id="path3825"
         sodipodi:sides="3"
         sodipodi:cx="7014"
         sodipodi:cy="18559.361"
         sodipodi:r1="92.866837"
         sodipodi:r2="46.433418"
         sodipodi:arg1="0.52359878"
         sodipodi:arg2="1.5707963"
         inkscape:flatsided="true"
         inkscape:rounded="0"
         inkscape:randomized="0"
         d="m 7094.425,18605.795 -160.85,0 80.425,-139.301 z"
         inkscape:transform-center-y="-9.8398081"
         transform="matrix(0.47115681,0,0,0.59419196,-3330.4661,-10780.81)" />
      <path
         transform="matrix(0.25977958,0,0,0.32761691,-1847.8662,-5881.122)"
         inkscape:transform-center-y="-5.4252868"
         d="m 7094.425,18605.795 -160.85,0 80.425,-139.301 z"
         inkscape:randomized="0"
         inkscape:rounded="0"
         inkscape:flatsided="true"
         sodipodi:arg2="1.5707963"
         sodipodi:arg1="0.52359878"
         sodipodi:r2="46.433418"
         sodipodi:r1="92.866837"
         sodipodi:cy="18559.361"
         sodipodi:cx="7014"
         sodipodi:sides="3"
         id="path3827"
         style="fill:#afe9af;fill-opacity:1;stroke:none"
         sodipodi:type="star"
         inkscape:transform-center-x="4.0782345e-005" />
      <path
         inkscape:transform-center-x="5.0811766e-005"
         transform="matrix(0.70133407,0,0,0.68846556,-4944.9294,-12488.841)"
         inkscape:transform-center-y="-11.401724"
         d="m 7094.425,18605.795 -160.85,0 80.425,-139.301 z"
         inkscape:randomized="0"
         inkscape:rounded="0"
         inkscape:flatsided="true"
         sodipodi:arg2="1.5707963"
         sodipodi:arg1="0.52359878"
         sodipodi:r2="46.433418"
         sodipodi:r1="92.866837"
         sodipodi:cy="18559.361"
         sodipodi:cx="7014"
         sodipodi:sides="3"
         id="path3845"
         style="fill:#afe9af;fill-opacity:1;stroke:none"
         sodipodi:type="star" />
    </g>
    <rect
       y="645.59167"
       x="79.143753"
       height="156.35263"
       width="36.941444"
       id="rect5008"
       style="fill:#d89a70;fill-opacity:1;stroke:none" />
    <g
       id="g3017">
      <rect
         y="477.78415"
         x="552.61383"
         height="48.439056"
         width="10.679479"
         id="rect5010"
         style="fill:#d89a70;fill-opacity:1;stroke:none"
         transform="matrix(0.78431123,0.62036755,-0.62036755,0.78431123,0,0)" />
      <path
         d="m 6945.2028,18565.275 c 0,38.662 -31.3417,70.004 -70.0036,70.004 -38.6619,0 -70.0036,-31.342 -70.0036,-70.004 0,-38.662 31.3417,-70.003 70.0036,-70.003 38.6619,0 70.0036,31.341 70.0036,70.003 z"
         sodipodi:ry="70.003571"
         sodipodi:rx="70.003571"
         sodipodi:cy="18565.275"
         sodipodi:cx="6875.1992"
         id="path5012"
         style="fill:#afe9af;fill-opacity:1;stroke:none"
         sodipodi:type="arc"
         transform="matrix(0.35398789,0,0,0.35398789,-2285.4248,-5866.1108)" />
    </g>
    <path
       d="m 6945.2028,18565.275 c 0,38.662 -31.3417,70.004 -70.0036,70.004 -38.6619,0 -70.0036,-31.342 -70.0036,-70.004 0,-38.662 31.3417,-70.003 70.0036,-70.003 38.6619,0 70.0036,31.341 70.0036,70.003 z"
       sodipodi:ry="70.003571"
       sodipodi:rx="70.003571"
       sodipodi:cy="18565.275"
       sodipodi:cx="6875.1992"
       id="path3847"
       style="fill:#afe9af;fill-opacity:1;stroke:none"
       sodipodi:type="arc"
       transform="matrix(1.1588269,0,0,1.1588269,-7869.5513,-20934.344)" />
    <g
       id="g3021"
       transform="matrix(-0.68241221,0,0,0.68241221,157.59012,210.16549)">
      <rect
         transform="matrix(0.78431123,0.62036755,-0.62036755,0.78431123,0,0)"
         style="fill:#d89a70;fill-opacity:1;stroke:none"
         id="rect3023"
         width="10.679479"
         height="48.439056"
         x="552.61383"
         y="477.78415" />
      <path
         transform="matrix(0.35398789,0,0,0.35398789,-2285.4248,-5866.1108)"
         sodipodi:type="arc"
         style="fill:#afe9af;fill-opacity:1;stroke:none"
         id="path3025"
         sodipodi:cx="6875.1992"
         sodipodi:cy="18565.275"
         sodipodi:rx="70.003571"
         sodipodi:ry="70.003571"
         d="m 6945.2028,18565.275 c 0,38.662 -31.3417,70.004 -70.0036,70.004 -38.6619,0 -70.0036,-31.342 -70.0036,-70.004 0,-38.662 31.3417,-70.003 70.0036,-70.003 38.6619,0 70.0036,31.341 70.0036,70.003 z" />
    </g>
    <g
       id="g4111"
       transform="matrix(2.0894859,0,0,2.0894859,1398.1581,-230.78059)">
      <g
         transform="translate(-0.31076877,0)"
         id="g4103">
        <path
           style="fill:#35c447;fill-opacity:1;stroke:none"
           d="m -205.7806,365.33379 c -16.31587,4.37183 -28.48772,16.47254 -33.66687,31.30105 l 78.48802,-21.0308 c -11.89961,-10.25288 -28.50484,-14.64219 -44.82115,-10.27025 z"
           id="path4093"
           inkscape:connector-curvature="0" />
        <path
           inkscape:connector-curvature="0"
           id="path4079"
           d="m -231.15164,363.2484 c -11.94404,11.94405 -16.43482,28.50949 -13.50584,43.94094 l 57.45722,-57.45722 c -15.43181,-2.92945 -32.00701,1.57191 -43.95138,13.51628 z"
           style="fill:#289335;fill-opacity:1;stroke:none" />
        <path
           style="fill:#8ec63f;fill-opacity:1;stroke:none"
           d="m -209.2983,384.628 c -16.89144,0 -31.78043,8.53808 -40.62101,21.52086 l 81.25678,0 C -177.50304,393.16549 -192.40642,384.628 -209.2983,384.628 z"
           id="path4065"
           inkscape:connector-curvature="0" />
        <path
           inkscape:connector-curvature="0"
           id="path4097"
           d="m -283.59816,365.33379 c 16.31587,4.37183 28.48772,16.47254 33.66687,31.30105 l -78.48802,-21.0308 c 11.89961,-10.25288 28.50484,-14.64219 44.82115,-10.27025 z"
           style="fill:#35c447;fill-opacity:1;stroke:none" />
        <path
           style="fill:#289335;fill-opacity:1;stroke:none"
           d="m -258.22712,363.2484 c 11.94404,11.94405 16.43482,28.50949 13.50584,43.94094 l -57.45722,-57.45722 c 15.43181,-2.92945 32.00701,1.57191 43.95138,13.51628 z"
           id="path4099"
           inkscape:connector-curvature="0" />
        <path
           inkscape:connector-curvature="0"
           id="path4101"
           d="m -280.08046,384.628 c 16.89144,0 31.78043,8.53808 40.62101,21.52086 l -81.25678,0 c 8.84051,-12.98337 23.74389,-21.52086 40.63577,-21.52086 z"
           style="fill:#8ec63f;fill-opacity:1;stroke:none" />
      </g>
      <rect
         y="406.14886"
         x="-254.7119"
         height="88.099442"
         width="19.4235"
         id="rect5057-1"
         style="fill:#d89a70;fill-opacity:1;stroke:none" />
    </g>
  </g>
</svg>
