<?xml version="1.0" encoding="UTF-8" standalone="no"?>
<!-- Created with Inkscape (http://www.inkscape.org/) -->

<svg
   xmlns:dc="http://purl.org/dc/elements/1.1/"
   xmlns:cc="http://creativecommons.org/ns#"
   xmlns:rdf="http://www.w3.org/1999/02/22-rdf-syntax-ns#"
   xmlns:svg="http://www.w3.org/2000/svg"
   xmlns="http://www.w3.org/2000/svg"
   xmlns:sodipodi="http://sodipodi.sourceforge.net/DTD/sodipodi-0.dtd"
   xmlns:inkscape="http://www.inkscape.org/namespaces/inkscape"
   width="509.45981"
   height="482.01743"
   id="svg4667"
   version="1.1"
   inkscape:version="0.48.5 r10040"
   sodipodi:docname="New document 4">
  <defs
     id="defs4669" />
  <sodipodi:namedview
     id="base"
     pagecolor="#ffffff"
     bordercolor="#666666"
     borderopacity="1.0"
     inkscape:pageopacity="0.0"
     inkscape:pageshadow="2"
     inkscape:zoom="1"
     inkscape:cx="115.40992"
     inkscape:cy="255.47171"
     inkscape:document-units="px"
     inkscape:current-layer="layer1"
     showgrid="false"
     showborder="true"
     fit-margin-top="0"
     fit-margin-left="0"
     fit-margin-right="0"
     fit-margin-bottom="0"
     inkscape:window-width="1920"
     inkscape:window-height="1017"
     inkscape:window-x="-8"
     inkscape:window-y="-8"
     inkscape:window-maximized="1" />
  <metadata
     id="metadata4672">
    <rdf:RDF>
      <cc:Work
         rdf:about="">
        <dc:format>image/svg+xml</dc:format>
        <dc:type
           rdf:resource="http://purl.org/dc/dcmitype/StillImage" />
        <dc:title></dc:title>
      </cc:Work>
    </rdf:RDF>
  </metadata>
  <g
     inkscape:label="Layer 1"
     inkscape:groupmode="layer"
     id="layer1"
     transform="translate(-201.2701,-420.35347)">
    <rect
       style="color:#000000;fill:#79bdd2;fill-opacity:1;fill-rule:nonzero;stroke:none;stroke-width:8;marker:none;visibility:visible;display:inline;overflow:visible;enable-background:accumulate"
       id="rect3822"
       width="156.51125"
       height="179.30841"
       x="219.85599"
       y="451.61365" />
    <path
       inkscape:connector-curvature="0"
       style="color:#000000;fill:#d6ebf1;fill-opacity:1;fill-rule:nonzero;stroke:none;stroke-width:8;marker:none;visibility:visible;display:inline;overflow:visible;enable-background:accumulate"
       d="m 219.85607,451.61646 0,111.86173 156.5112,0 0,-111.86173 -156.5112,0 z"
       id="path3824" />
    <path
       style="font-size:medium;font-style:normal;font-variant:normal;font-weight:normal;font-stretch:normal;text-indent:0;text-align:start;text-decoration:none;line-height:normal;letter-spacing:normal;word-spacing:normal;text-transform:none;direction:ltr;block-progression:tb;writing-mode:lr-tb;text-anchor:start;baseline-shift:baseline;color:#000000;fill:#333333;fill-opacity:1;fill-rule:nonzero;stroke:none;stroke-width:24;marker:none;visibility:visible;display:inline;overflow:visible;enable-background:accumulate;font-family:Sans;-inkscape-font-specification:Sans"
       d="m 219.84765,444.63855 a 6.9704062,6.9704062 0 0 0 -6.96971,6.96971 l 0,89.66241 0,89.64428 a 6.9704062,6.9704062 0 0 0 6.96971,6.96971 l 156.52804,0 a 6.9704062,6.9704062 0 0 0 6.96971,-6.96971 l 0,-89.64428 0,-89.66241 a 6.9704062,6.9704062 0 0 0 -6.96971,-6.96971 l -156.52804,0 z m 6.9697,13.93942 142.58863,0 0,82.6927 0,82.67457 -142.58863,0 0,-82.67457 0,-82.6927 z"
       id="path3826"
       inkscape:connector-curvature="0" />
    <path
       inkscape:connector-curvature="0"
       style="color:#000000;fill:#d6ebf1;fill-opacity:1;fill-rule:nonzero;stroke:none;stroke-width:8;marker:none;visibility:visible;display:inline;overflow:visible;enable-background:accumulate"
       d="m 624.48793,427.32318 c -30.5505,0 -58.20108,11.77969 -78.24584,30.85548 l 0,111.87836 0,67.42828 156.50987,0 0,-67.42828 0,-111.87836 c -20.04482,-19.07579 -47.71352,-30.85548 -78.26403,-30.85548 z"
       id="rect3830" />
    <path
       inkscape:connector-curvature="0"
       style="color:#000000;fill:#79bdd2;fill-opacity:1;fill-rule:nonzero;stroke:none;stroke-width:8;marker:none;visibility:visible;display:inline;overflow:visible;enable-background:accumulate"
       d="m 624.48793,427.32318 c -30.5505,0 -58.20113,11.77969 -78.24584,30.85548 l 0,111.87836 0,67.42828 78.24584,0 0,-210.16212 z"
       id="path3869" />
    <path
       style="font-size:medium;font-style:normal;font-variant:normal;font-weight:normal;font-stretch:normal;text-indent:0;text-align:start;text-decoration:none;line-height:normal;letter-spacing:normal;word-spacing:normal;text-transform:none;direction:ltr;block-progression:tb;writing-mode:lr-tb;text-anchor:start;baseline-shift:baseline;color:#000000;fill:#333333;fill-opacity:1;stroke:none;stroke-width:24;marker:none;visibility:visible;display:inline;overflow:visible;enable-background:accumulate;font-family:Sans;-inkscape-font-specification:Sans"
       d="m 624.48793,420.35347 c -32.34206,0 -61.7303,12.48482 -83.0557,32.77942 a 6.9704062,6.9704062 0 0 0 -2.15985,5.04577 l 0,111.87836 0,67.42828 a 6.9704062,6.9704062 0 0 0 6.96971,6.96971 l 78.24584,0 78.26403,0 a 6.9704062,6.9704062 0 0 0 6.96971,-6.96971 l 0,-67.42828 0,-111.87836 a 6.9704062,6.9704062 0 0 0 -2.15985,-5.04577 C 686.23474,432.83687 656.83,420.35347 624.48793,420.35347 z m 0,13.93942 c 27.7032,0 52.71865,10.34678 71.29432,27.06207 l 0,108.70206 0,60.45857 -71.29432,0 -71.27613,0 0,-60.45857 0,-108.70206 c 18.57555,-16.71647 43.57293,-27.06207 71.27613,-27.06207 z"
       id="path3872"
       inkscape:connector-curvature="0" />
    <rect
       y="679.29083"
       x="208.23981"
       height="179.30841"
       width="156.51125"
       id="rect3885"
       style="color:#000000;fill:#79bdd2;fill-opacity:1;fill-rule:nonzero;stroke:none;stroke-width:8;marker:none;visibility:visible;display:inline;overflow:visible;enable-background:accumulate" />
    <path
       id="path3887"
       d="m 208.23989,679.29362 0,85.57734 156.5112,0 0,-85.57734 -156.5112,0 z"
       style="color:#000000;fill:#d6ebf1;fill-opacity:1;fill-rule:nonzero;stroke:none;stroke-width:8;marker:none;visibility:visible;display:inline;overflow:visible;enable-background:accumulate"
       inkscape:connector-curvature="0" />
    <path
       style="color:#000000;fill:#333333;fill-opacity:1;fill-rule:nonzero;stroke:none;stroke-width:8;marker:none;visibility:visible;display:inline;overflow:visible;enable-background:accumulate"
       d="m 280.39484,679.28543 0,83.56391 -72.1474,0 0,12.19699 72.1474,0 0,83.5458 12.19699,0 0,-83.5458 72.16553,0 0,-12.19699 -72.16553,0 0,-83.56391 -12.19699,0 z"
       id="rect3891"
       inkscape:connector-curvature="0" />
    <rect
       style="color:#000000;fill:none;stroke:#333333;stroke-width:13.93941879;stroke-linecap:round;stroke-linejoin:round;stroke-miterlimit:4;stroke-opacity:1;stroke-dasharray:none;marker:none;visibility:visible;display:inline;overflow:visible;enable-background:accumulate"
       id="rect3908"
       width="156.51125"
       height="179.30841"
       x="208.23981"
       y="679.29083" />
    <path
       id="path3910"
       d="m 625.49616,685.23907 c -30.5505,0 -58.20108,11.77968 -78.24585,30.85549 l 0,111.87835 0,67.42829 156.50988,0 0,-67.42829 0,-111.87835 c -20.04483,-19.07581 -47.71353,-30.85549 -78.26403,-30.85549 z"
       style="color:#000000;fill:#d6ebf1;fill-opacity:1;fill-rule:nonzero;stroke:none;stroke-width:8;marker:none;visibility:visible;display:inline;overflow:visible;enable-background:accumulate"
       inkscape:connector-curvature="0" />
    <path
       id="path3912"
       d="m 625.49616,685.23907 c -30.5505,0 -58.20114,11.77968 -78.24585,30.85549 l 0,111.87835 0,67.42829 78.24585,0 0,-210.16213 z"
       style="color:#000000;fill:#79bdd2;fill-opacity:1;fill-rule:nonzero;stroke:none;stroke-width:8;marker:none;visibility:visible;display:inline;overflow:visible;enable-background:accumulate"
       inkscape:connector-curvature="0" />
    <path
       style="color:#000000;fill:#333333;fill-opacity:1;fill-rule:nonzero;stroke:none;stroke-width:8;marker:none;visibility:visible;display:inline;overflow:visible;enable-background:accumulate"
       d="m 625.49616,685.23907 c -2.61172,0 -5.20196,0.10286 -7.76832,0.27223 l 0,97.06772 -70.47753,0 0,15.51852 70.47753,0 0,97.30366 15.51846,0 0,-97.30366 70.51389,0 0,-15.51852 -70.51389,0 0,-97.06772 c -2.56067,-0.16861 -5.14457,-0.27223 -7.75014,-0.27223 z"
       id="path3920"
       inkscape:connector-curvature="0" />
    <path
       inkscape:connector-curvature="0"
       id="path3914"
       d="m 625.49616,678.26936 c -32.34206,0 -61.73031,12.48479 -83.0557,32.77942 a 6.9704062,6.9704062 0 0 0 -2.15986,5.04578 l 0,111.87835 0,67.42829 a 6.9704062,6.9704062 0 0 0 6.96971,6.96971 l 78.24585,0 78.26403,0 a 6.9704062,6.9704062 0 0 0 6.96971,-6.96971 l 0,-67.42829 0,-111.87835 a 6.9704062,6.9704062 0 0 0 -2.15986,-5.04578 c -21.32708,-20.29603 -50.73181,-32.77942 -83.07388,-32.77942 z m 0,13.93942 c 27.7032,0 52.71865,10.34677 71.29432,27.06205 l 0,108.70208 0,60.45858 -71.29432,0 -71.27614,0 0,-60.45858 0,-108.70208 c 18.57556,-16.71644 43.57294,-27.06205 71.27614,-27.06205 z"
       style="font-size:medium;font-style:normal;font-variant:normal;font-weight:normal;font-stretch:normal;text-indent:0;text-align:start;text-decoration:none;line-height:normal;letter-spacing:normal;word-spacing:normal;text-transform:none;direction:ltr;block-progression:tb;writing-mode:lr-tb;text-anchor:start;baseline-shift:baseline;color:#000000;fill:#333333;fill-opacity:1;stroke:none;stroke-width:24;marker:none;visibility:visible;display:inline;overflow:visible;enable-background:accumulate;font-family:Sans;-inkscape-font-specification:Sans" />
    <path
       style="color:#000000;fill:none;stroke:#ffffff;stroke-width:6.9697094;stroke-linecap:round;stroke-linejoin:round;stroke-miterlimit:4;stroke-opacity:0.64361704;stroke-dasharray:none;marker:none;visibility:visible;display:inline;overflow:visible;enable-background:accumulate"
       d="m 342.67767,479.57468 c 0,0 0,0 0,0 7.7804,0 14.08764,6.30724 14.08764,14.08764"
       id="path3923"
       inkscape:connector-curvature="0" />
    <path
       style="fill:none;stroke:#ffffff;stroke-width:6.9697094;stroke-linecap:round;stroke-linejoin:round;stroke-miterlimit:4;stroke-opacity:0.64361704;stroke-dasharray:none"
       d="m 252.47611,479.58071 0,52.85364"
       id="path3942"
       inkscape:connector-curvature="0" />
    <path
       inkscape:connector-curvature="0"
       id="path3934"
       d="m 266.73613,606.758 c 0,0 0,0 0,0 -7.7804,0 -14.08764,-6.30724 -14.08764,-14.08764"
       style="color:#000000;fill:none;stroke:#f6fbfc;stroke-width:6.9697094;stroke-linecap:round;stroke-linejoin:round;stroke-miterlimit:4;stroke-opacity:0.68617021;stroke-dasharray:none;marker:none;visibility:visible;display:inline;overflow:visible;enable-background:accumulate" />
    <path
       inkscape:connector-curvature="0"
       id="path3946"
       d="m 291.73229,606.80464 52.85363,0"
       style="fill:none;stroke:#f6fbfc;stroke-width:6.9697094;stroke-linecap:round;stroke-linejoin:round;stroke-miterlimit:4;stroke-opacity:0.68617021;stroke-dasharray:none" />
  </g>
</svg>
