<?xml version="1.0" encoding="UTF-8" standalone="no"?>
<!-- Created with Inkscape (http://www.inkscape.org/) -->

<svg
   xmlns:dc="http://purl.org/dc/elements/1.1/"
   xmlns:cc="http://creativecommons.org/ns#"
   xmlns:rdf="http://www.w3.org/1999/02/22-rdf-syntax-ns#"
   xmlns:svg="http://www.w3.org/2000/svg"
   xmlns="http://www.w3.org/2000/svg"
   xmlns:sodipodi="http://sodipodi.sourceforge.net/DTD/sodipodi-0.dtd"
   xmlns:inkscape="http://www.inkscape.org/namespaces/inkscape"
   width="744.09448819"
   height="1052.3622047"
   id="svg2"
   version="1.1"
   inkscape:version="0.48.5 r10040"
   sodipodi:docname="New document 1">
  <defs
     id="defs4" />
  <sodipodi:namedview
     id="base"
     pagecolor="#ffffff"
     bordercolor="#666666"
     borderopacity="1.0"
     inkscape:pageopacity="0.0"
     inkscape:pageshadow="2"
     inkscape:zoom="0.5"
     inkscape:cx="162.91426"
     inkscape:cy="454.70241"
     inkscape:document-units="px"
     inkscape:current-layer="layer1"
     showgrid="false"
     showborder="false"
     inkscape:snap-bbox="true"
     inkscape:snap-center="true"
     inkscape:snap-global="false"
     inkscape:bbox-nodes="true"
     inkscape:bbox-paths="true"
     inkscape:snap-bbox-midpoints="true"
     inkscape:snap-bbox-edge-midpoints="true"
     inkscape:object-paths="true"
     inkscape:snap-intersection-paths="true"
     inkscape:object-nodes="true"
     inkscape:snap-smooth-nodes="true"
     inkscape:window-width="1680"
     inkscape:window-height="987"
     inkscape:window-x="-8"
     inkscape:window-y="-8"
     inkscape:window-maximized="1" />
  <metadata
     id="metadata7">
    <rdf:RDF>
      <cc:Work
         rdf:about="">
        <dc:format>image/svg+xml</dc:format>
        <dc:type
           rdf:resource="http://purl.org/dc/dcmitype/StillImage" />
        <dc:title></dc:title>
      </cc:Work>
    </rdf:RDF>
  </metadata>
  <g
     inkscape:label="Layer 1"
     inkscape:groupmode="layer"
     id="layer1">
    <rect
       style="fill:#d5ffe6;fill-opacity:1;stroke:none"
       id="rect3797"
       width="1280"
       height="720"
       x="-439.66101"
       y="188.25098"
       rx="9.8994951"
       ry="0"
       inkscape:export-filename="C:\Users\brayan.bedritchuk\Desktop\android thumb.png"
       inkscape:export-xdpi="90"
       inkscape:export-ydpi="90" />
    <g
       id="g3799"
       transform="matrix(2.6105917,0,0,2.6105917,-8.2552865,-820.7012)"
       inkscape:export-filename="C:\Users\brayan.bedritchuk\Desktop\android thumb.png"
       inkscape:export-xdpi="90"
       inkscape:export-ydpi="90">
      <path
         inkscape:connector-curvature="0"
         id="path3753"
         d="m 78.532125,432.62245 c -30.531499,0.77352 -55.03468,25.78464 -55.03468,56.50255 l 113.005105,0 c 0,-31.20549 -25.29706,-56.50255 -56.50255,-56.50255 -0.487584,0 -0.983247,-0.0123 -1.467875,0 z"
         style="fill:#5fd38d;fill-opacity:1;stroke:none" />
      <path
         transform="matrix(0.41892534,0,0,0.41892534,38.299857,271.34066)"
         d="m 47.376154,448.84656 c 0,5.07681 -4.115573,9.19239 -9.192389,9.19239 -5.076816,0 -9.192388,-4.11558 -9.192388,-9.19239 0,-5.07682 4.115572,-9.19239 9.192388,-9.19239 5.076816,0 9.192389,4.11557 9.192389,9.19239 z"
         sodipodi:ry="9.1923885"
         sodipodi:rx="9.1923885"
         sodipodi:cy="448.84656"
         sodipodi:cx="38.183765"
         id="path3758"
         style="fill:#ffffff;fill-opacity:1;stroke:none"
         sodipodi:type="arc" />
      <path
         sodipodi:type="arc"
         style="fill:#ffffff;fill-opacity:1;stroke:none"
         id="path3762"
         sodipodi:cx="38.183765"
         sodipodi:cy="448.84656"
         sodipodi:rx="9.1923885"
         sodipodi:ry="9.1923885"
         d="m 47.376154,448.84656 c 0,5.07681 -4.115573,9.19239 -9.192389,9.19239 -5.076816,0 -9.192388,-4.11558 -9.192388,-9.19239 0,-5.07682 4.115572,-9.19239 9.192388,-9.19239 5.076816,0 9.192389,4.11557 9.192389,9.19239 z"
         transform="matrix(0.41892534,0,0,0.41892534,89.622556,271.00028)" />
      <rect
         transform="matrix(0.93359869,-0.35832037,0.35832037,0.93359869,0,0)"
         rx="7.7500005"
         ry="5.75"
         y="399.51776"
         x="-116.89847"
         height="35.601002"
         width="7.7176991"
         id="rect3768"
         style="fill:#5fd38d;fill-opacity:1;stroke:none" />
      <rect
         style="fill:#5fd38d;fill-opacity:1;stroke:none"
         id="rect3770"
         width="7.7176991"
         height="35.601002"
         x="-266.74106"
         y="342.00732"
         ry="5.75"
         rx="7.7500005"
         transform="matrix(-0.93359869,-0.35832037,-0.35832037,0.93359869,0,0)" />
      <path
         inkscape:connector-curvature="0"
         id="rect3774"
         d="m 23.5,496.26422 0,92.78125 c 0,3.1855 3.4565,5.75 7.75,5.75 l 97.5,0 c 4.2935,0 7.75,-2.5645 7.75,-5.75 l 0,-92.78125 -113,0 z"
         style="fill:#5fd38d;fill-opacity:1;stroke:none" />
      <rect
         ry="9.6390867"
         rx="9.8994951"
         y="502.65735"
         x="-3.8890872"
         height="71.27636"
         width="19.79899"
         id="rect3779"
         style="fill:#5fd38d;fill-opacity:1;stroke:none" />
      <rect
         style="fill:#5fd38d;fill-opacity:1;stroke:none"
         id="rect3783"
         width="19.79899"
         height="71.27636"
         x="143.89622"
         y="502.65735"
         rx="9.8994951"
         ry="9.6390867" />
      <rect
         ry="9.6390867"
         rx="9.8994951"
         y="564.17566"
         x="42.072849"
         height="71.27636"
         width="19.79899"
         id="rect3785"
         style="fill:#5fd38d;fill-opacity:1;stroke:none" />
      <rect
         style="fill:#5fd38d;fill-opacity:1;stroke:none"
         id="rect3787"
         width="19.79899"
         height="71.27636"
         x="100.76271"
         y="564.17566"
         rx="9.8994951"
         ry="9.6390867" />
    </g>
  </g>
</svg>
