<?xml version="1.0" encoding="UTF-8" standalone="no"?>
<!-- Created with Inkscape (http://www.inkscape.org/) -->

<svg
   xmlns:dc="http://purl.org/dc/elements/1.1/"
   xmlns:cc="http://creativecommons.org/ns#"
   xmlns:rdf="http://www.w3.org/1999/02/22-rdf-syntax-ns#"
   xmlns:svg="http://www.w3.org/2000/svg"
   xmlns="http://www.w3.org/2000/svg"
   xmlns:sodipodi="http://sodipodi.sourceforge.net/DTD/sodipodi-0.dtd"
   xmlns:inkscape="http://www.inkscape.org/namespaces/inkscape"
   width="3860.9075"
   height="3083.595"
   viewBox="0 0 3860.9075 3083.595"
   id="svg2"
   version="1.1"
   inkscape:version="0.91 r13725"
   inkscape:export-filename="C:\Users\brayan.bedritchuk\Desktop\path4214.png"
   inkscape:export-xdpi="15.892861"
   inkscape:export-ydpi="15.892861"
   sodipodi:docname="Sailboat.svg">
  <defs
     id="defs4">
    <inkscape:path-effect
       effect="skeletal"
       id="path-effect4210"
       is_visible="true"
       pattern="m -304,-715 c 0,-2.76 2.24,-5 5,-5 2.76,0 5,2.24 5,5 0,2.76 -2.24,5 -5,5 -2.76,0 -5,-2.24 -5,-5 z"
       copytype="single_stretched"
       prop_scale="1"
       scale_y_rel="false"
       spacing="0"
       normal_offset="0"
       tang_offset="0"
       prop_units="false"
       vertical_pattern="false"
       fuse_tolerance="0" />
  </defs>
  <sodipodi:namedview
     id="base"
     pagecolor="#ffffff"
     bordercolor="#666666"
     borderopacity="1.0"
     inkscape:pageopacity="1"
     inkscape:pageshadow="2"
     inkscape:zoom="0.088388348"
     inkscape:cx="-1339.3239"
     inkscape:cy="2350.6622"
     inkscape:document-units="px"
     inkscape:current-layer="layer1"
     showgrid="false"
     showborder="true"
     inkscape:object-paths="true"
     inkscape:snap-intersection-paths="true"
     inkscape:snap-smooth-nodes="true"
     inkscape:object-nodes="true"
     inkscape:snap-nodes="false"
     units="px"
     fit-margin-top="512"
     fit-margin-left="512"
     fit-margin-right="512"
     fit-margin-bottom="512"
     inkscape:window-width="1680"
     inkscape:window-height="987"
     inkscape:window-x="-8"
     inkscape:window-y="-8"
     inkscape:window-maximized="1" />
  <metadata
     id="metadata7">
    <rdf:RDF>
      <cc:Work
         rdf:about="">
        <dc:format>image/svg+xml</dc:format>
        <dc:type
           rdf:resource="http://purl.org/dc/dcmitype/StillImage" />
        <dc:title></dc:title>
      </cc:Work>
    </rdf:RDF>
  </metadata>
  <g
     inkscape:label="Layer 1"
     inkscape:groupmode="layer"
     id="layer1"
     transform="translate(3382.5921,2800.5071)">
    <rect
       style="opacity:1;fill:#e9ddaf;fill-opacity:1;stroke:none;stroke-width:15;stroke-miterlimit:4;stroke-dasharray:none;stroke-opacity:1"
       id="rect4178"
       width="136"
       height="1832.7351"
       x="-1707.2338"
       y="-2288.5071"
       rx="130.41901"
       ry="145.278" />
    <path
       style="opacity:1;fill:#483737;fill-opacity:1;stroke:none;stroke-width:15;stroke-miterlimit:4;stroke-dasharray:none;stroke-opacity:1"
       d="m -2807.6049,-576.32758 c -120.416,6.2026 -37.9493,153.26787 -8e-4,208.93562 45.2681,66.1698 105.897,151.66638 196.8208,136.76944 787.8088,0 1575.6174,1e-5 2363.42607,1e-5 90.58869,-27.00607 141.85707,-120.20428 186.088464,-197.82564 59.1562565,-73.40842 19.858295,-186.95029 -86.223884,-143.49604 -134.05454,23.98536 -270.99542,9.10488 -406.4965,13.22402 -706.25425,-0.51548 -1412.55765,1.03111 -2118.78125,-0.77341 -45.1191,-4.16073 -89.323,-16.69966 -134.8329,-16.834 z"
       id="rect4166"
       inkscape:connector-curvature="0" />
    <path
       style="opacity:1;fill:#80b3ff;fill-opacity:1;stroke:none;stroke-width:15;stroke-miterlimit:4;stroke-dasharray:none;stroke-opacity:1"
       inkscape:transform-center-x="-200.33973"
       inkscape:transform-center-y="3.1995028e-005"
       d="m -1707.2338,-784.80436 c 155.2623,-198.21222 135.9999,-345.81254 136,-574.49504 l 0,-185.8416 0,-185.8415 -10e-5,-185.8415 c 25.9649,-170.4388 -39.5232,-239.8494 -135.9999,-371.683 l 286.2548,99.0919 150.2548,99.0918 150.2547,99.0919 150.25475,99.0919 150.25484,99.0919 150.25469,99.0918 150.25479,99.0919 150.2548,99.0919 -150.25479,86.7496 -150.25479,86.7496 -150.25471,86.7496 -150.25483,86.7498 -150.25475,86.7496 -150.2548,86.74958 -150.2547,86.74965 z"
       id="path4185"
       inkscape:connector-curvature="0"
       sodipodi:nodetypes="cccccccccccccccccccccc" />
    <path
       style="opacity:1;fill:#ffffff;fill-opacity:1;stroke:none;stroke-width:15;stroke-miterlimit:4;stroke-dasharray:none;stroke-opacity:1"
       d="m -2530.4494,-511.3049 c -0.169,0 -0.3047,0.13702 -0.3047,0.30601 l 0,17.94014 a 96.469778,96.469778 0 0 0 -52.8379,21.87919 l -12.6808,-12.68088 c -0.1196,-0.1195 -0.3117,-0.1195 -0.4312,0 l -12.0537,12.05367 c -0.1195,0.1195 -0.1195,0.31171 0,0.43121 l 12.7213,12.72134 a 96.469778,96.469778 0 0 0 -21.8754,52.79611 l -17.9843,0 c -0.169,0 -0.3048,0.13576 -0.3048,0.30476 l 0,17.0461 c 0,0.169 0.1358,0.30602 0.3048,0.30602 l 17.9413,0 a 96.469778,96.469778 0 0 0 21.8779,52.83657 l -12.6808,12.68089 c -0.1195,0.1195 -0.1195,0.3117 0,0.4312 l 12.0537,12.05367 c 0.1195,0.1195 0.3116,0.1195 0.4312,0 l 12.7213,-12.72135 a 96.469778,96.469778 0 0 0 52.7974,21.8754 l 0,17.98439 c 0,0.16901 0.1357,0.30476 0.3047,0.30476 l 17.0461,0 c 0.1691,0 0.3048,-0.13575 0.3048,-0.30476 l 0,-17.94139 a 96.469778,96.469778 0 0 0 52.8378,-21.87793 l 12.6809,12.68088 c 0.1195,0.1195 0.3117,0.1195 0.4312,0 l 12.0537,-12.05367 c 0.1195,-0.1195 0.1195,-0.3117 0,-0.4312 l -12.7214,-12.72135 a 96.469778,96.469778 0 0 0 21.8742,-52.79611 l 17.9856,0 c 0.169,0 0.3048,-0.13702 0.3048,-0.30602 l 0,-17.0461 c 0,-0.169 -0.1358,-0.30476 -0.3048,-0.30476 l -17.9414,0 a 96.469778,96.469778 0 0 0 -21.8779,-52.83657 l 12.6809,-12.68088 c 0.1195,-0.1195 0.1195,-0.31171 0,-0.43121 l -12.0537,-12.05367 c -0.1195,-0.1195 -0.3117,-0.1195 -0.4312,0 l -12.7213,12.72135 a 96.469778,96.469778 0 0 0 -52.7974,-21.87666 l 0,-17.98314 c 0,-0.16899 -0.1357,-0.30601 -0.3048,-0.30601 l -17.0461,0 z m 17.3509,35.16958 a 79.636126,79.636126 0 0 1 40.8398,16.95379 l -40.8398,40.83981 0,-57.7936 z m -17.6556,0.0556 0,57.73796 -40.8853,-40.88534 a 79.636126,79.636126 0 0 1 40.8853,-16.85262 z m 71.0258,29.33749 a 79.636126,79.636126 0 0 1 16.8513,40.88408 l -57.7354,0 40.8841,-40.88408 z m -124.3505,0.0455 40.8386,40.83855 -57.7911,0 a 79.636126,79.636126 0 0 1 16.9525,-40.83855 z m -16.8956,58.49543 57.7354,0 -40.8841,40.88407 a 79.636126,79.636126 0 0 1 -16.8513,-40.88407 z m 100.3608,0 57.7923,0 a 79.636126,79.636126 0 0 1 -16.9525,40.83855 l -40.8398,-40.83855 z m -30.1405,12.48361 0,57.79234 a 79.636126,79.636126 0 0 1 -40.8398,-16.95253 l 40.8398,-40.83981 z m 17.6556,0 40.8853,40.88533 a 79.636126,79.636126 0 0 1 -40.8853,16.85136 l 0,-57.73669 z"
       id="rect4136"
       inkscape:connector-curvature="0" />
    <path
       inkscape:connector-curvature="0"
       id="path4194"
       d="m -2169.3535,-511.3049 c -0.169,0 -0.3047,0.13702 -0.3047,0.30601 l 0,17.94014 a 96.469778,96.469778 0 0 0 -52.8379,21.87919 l -12.6808,-12.68088 c -0.1196,-0.1195 -0.3117,-0.1195 -0.4312,0 l -12.0537,12.05367 c -0.1195,0.1195 -0.1195,0.31171 0,0.43121 l 12.7213,12.72134 a 96.469778,96.469778 0 0 0 -21.8754,52.79611 l -17.9843,0 c -0.169,0 -0.3048,0.13576 -0.3048,0.30476 l 0,17.0461 c 0,0.169 0.1358,0.30602 0.3048,0.30602 l 17.9413,0 a 96.469778,96.469778 0 0 0 21.8779,52.83657 l -12.6808,12.68089 c -0.1195,0.1195 -0.1195,0.3117 0,0.4312 l 12.0537,12.05367 c 0.1195,0.1195 0.3116,0.1195 0.4312,0 l 12.7213,-12.72135 a 96.469778,96.469778 0 0 0 52.7974,21.8754 l 0,17.98439 c 0,0.16901 0.1357,0.30476 0.3047,0.30476 l 17.0461,0 c 0.1691,0 0.3048,-0.13575 0.3048,-0.30476 l 0,-17.94139 a 96.469778,96.469778 0 0 0 52.8378,-21.87793 l 12.6809,12.68088 c 0.1195,0.1195 0.3117,0.1195 0.4312,0 l 12.0537,-12.05367 c 0.1195,-0.1195 0.1195,-0.3117 0,-0.4312 l -12.7214,-12.72135 a 96.469778,96.469778 0 0 0 21.8742,-52.79611 l 17.9856,0 c 0.169,0 0.3048,-0.13702 0.3048,-0.30602 l 0,-17.0461 c 0,-0.169 -0.1358,-0.30476 -0.3048,-0.30476 l -17.9414,0 a 96.469778,96.469778 0 0 0 -21.8779,-52.83657 l 12.6809,-12.68088 c 0.1195,-0.1195 0.1195,-0.31171 0,-0.43121 l -12.0537,-12.05367 c -0.1195,-0.1195 -0.3117,-0.1195 -0.4312,0 l -12.7213,12.72135 a 96.469778,96.469778 0 0 0 -52.7974,-21.87666 l 0,-17.98314 c 0,-0.16899 -0.1357,-0.30601 -0.3048,-0.30601 l -17.0461,0 z m 17.3509,35.16958 a 79.636126,79.636126 0 0 1 40.8398,16.95379 l -40.8398,40.83981 0,-57.7936 z m -17.6556,0.0556 0,57.73796 -40.8853,-40.88534 a 79.636126,79.636126 0 0 1 40.8853,-16.85262 z m 71.0258,29.33749 a 79.636126,79.636126 0 0 1 16.8513,40.88408 l -57.7354,0 40.8841,-40.88408 z m -124.3505,0.0455 40.8386,40.83855 -57.7911,0 a 79.636126,79.636126 0 0 1 16.9525,-40.83855 z m -16.8956,58.49543 57.7354,0 -40.8841,40.88407 a 79.636126,79.636126 0 0 1 -16.8513,-40.88407 z m 100.3608,0 57.7923,0 a 79.636126,79.636126 0 0 1 -16.9525,40.83855 l -40.8398,-40.83855 z m -30.1405,12.48361 0,57.79234 a 79.636126,79.636126 0 0 1 -40.8398,-16.95253 l 40.8398,-40.83981 z m 17.6556,0 40.8853,40.88533 a 79.636126,79.636126 0 0 1 -40.8853,16.85136 l 0,-57.73669 z"
       style="opacity:1;fill:#ffffff;fill-opacity:1;stroke:none;stroke-width:15;stroke-miterlimit:4;stroke-dasharray:none;stroke-opacity:1" />
    <path
       style="opacity:1;fill:#ffffff;fill-opacity:1;stroke:none;stroke-width:15;stroke-miterlimit:4;stroke-dasharray:none;stroke-opacity:1"
       d="m -1808.2575,-511.3049 c -0.169,0 -0.3047,0.13702 -0.3047,0.30601 l 0,17.94014 a 96.469778,96.469778 0 0 0 -52.8379,21.87919 l -12.6808,-12.68088 c -0.1196,-0.1195 -0.3117,-0.1195 -0.4312,0 l -12.0537,12.05367 c -0.1195,0.1195 -0.1195,0.31171 0,0.43121 l 12.7213,12.72134 a 96.469778,96.469778 0 0 0 -21.8754,52.79611 l -17.9843,0 c -0.169,0 -0.3048,0.13576 -0.3048,0.30476 l 0,17.0461 c 0,0.169 0.1358,0.30602 0.3048,0.30602 l 17.9413,0 a 96.469778,96.469778 0 0 0 21.8779,52.83657 l -12.6808,12.68089 c -0.1195,0.1195 -0.1195,0.3117 0,0.4312 l 12.0537,12.05367 c 0.1195,0.1195 0.3116,0.1195 0.4312,0 l 12.7213,-12.72135 a 96.469778,96.469778 0 0 0 52.7974,21.8754 l 0,17.98439 c 0,0.16901 0.1357,0.30476 0.3047,0.30476 l 17.0461,0 c 0.1691,0 0.3048,-0.13575 0.3048,-0.30476 l 0,-17.94139 a 96.469778,96.469778 0 0 0 52.8378,-21.87793 l 12.6809,12.68088 c 0.1195,0.1195 0.3117,0.1195 0.4312,0 l 12.0537,-12.05367 c 0.1195,-0.1195 0.1195,-0.3117 0,-0.4312 l -12.7214,-12.72135 a 96.469778,96.469778 0 0 0 21.8742,-52.79611 l 17.9856,0 c 0.169,0 0.3048,-0.13702 0.3048,-0.30602 l 0,-17.0461 c 0,-0.169 -0.1358,-0.30476 -0.3048,-0.30476 l -17.9414,0 a 96.469778,96.469778 0 0 0 -21.8779,-52.83657 l 12.6809,-12.68088 c 0.1195,-0.1195 0.1195,-0.31171 0,-0.43121 l -12.0537,-12.05367 c -0.1195,-0.1195 -0.3117,-0.1195 -0.4312,0 l -12.7213,12.72135 a 96.469778,96.469778 0 0 0 -52.7974,-21.87666 l 0,-17.98314 c 0,-0.16899 -0.1357,-0.30601 -0.3048,-0.30601 l -17.0461,0 z m 17.3509,35.16958 a 79.636126,79.636126 0 0 1 40.8398,16.95379 l -40.8398,40.83981 0,-57.7936 z m -17.6556,0.0556 0,57.73796 -40.8853,-40.88534 a 79.636126,79.636126 0 0 1 40.8853,-16.85262 z m 71.0258,29.33749 a 79.636126,79.636126 0 0 1 16.8513,40.88408 l -57.7354,0 40.8841,-40.88408 z m -124.3505,0.0455 40.8386,40.83855 -57.7911,0 a 79.636126,79.636126 0 0 1 16.9525,-40.83855 z m -16.8956,58.49543 57.7354,0 -40.8841,40.88407 a 79.636126,79.636126 0 0 1 -16.8513,-40.88407 z m 100.3608,0 57.7923,0 a 79.636126,79.636126 0 0 1 -16.9525,40.83855 l -40.8398,-40.83855 z m -30.1405,12.48361 0,57.79234 a 79.636126,79.636126 0 0 1 -40.8398,-16.95253 l 40.8398,-40.83981 z m 17.6556,0 40.8853,40.88533 a 79.636126,79.636126 0 0 1 -40.8853,16.85136 l 0,-57.73669 z"
       id="path4196"
       inkscape:connector-curvature="0" />
    <path
       inkscape:connector-curvature="0"
       id="path4198"
       d="m -1447.1616,-511.3049 c -0.169,0 -0.3047,0.13702 -0.3047,0.30601 l 0,17.94014 a 96.469778,96.469778 0 0 0 -52.8379,21.87919 l -12.6808,-12.68088 c -0.1196,-0.1195 -0.3117,-0.1195 -0.4312,0 l -12.0537,12.05367 c -0.1195,0.1195 -0.1195,0.31171 0,0.43121 l 12.7213,12.72134 a 96.469778,96.469778 0 0 0 -21.8754,52.79611 l -17.9843,0 c -0.169,0 -0.3048,0.13576 -0.3048,0.30476 l 0,17.0461 c 0,0.169 0.1358,0.30602 0.3048,0.30602 l 17.9413,0 a 96.469778,96.469778 0 0 0 21.8779,52.83657 l -12.6808,12.68089 c -0.1195,0.1195 -0.1195,0.3117 0,0.4312 l 12.0537,12.05367 c 0.1195,0.1195 0.3116,0.1195 0.4312,0 l 12.7213,-12.72135 a 96.469778,96.469778 0 0 0 52.7974,21.8754 l 0,17.98439 c 0,0.16901 0.1357,0.30476 0.3047,0.30476 l 17.0461,0 c 0.1691,0 0.3048,-0.13575 0.3048,-0.30476 l 0,-17.94139 a 96.469778,96.469778 0 0 0 52.8378,-21.87793 l 12.6809,12.68088 c 0.1195,0.1195 0.3117,0.1195 0.4312,0 l 12.0537,-12.05367 c 0.1195,-0.1195 0.1195,-0.3117 0,-0.4312 l -12.7214,-12.72135 a 96.469778,96.469778 0 0 0 21.8742,-52.79611 l 17.9856,0 c 0.169,0 0.3048,-0.13702 0.3048,-0.30602 l 0,-17.0461 c 0,-0.169 -0.1358,-0.30476 -0.3048,-0.30476 l -17.9414,0 a 96.469778,96.469778 0 0 0 -21.8779,-52.83657 l 12.6809,-12.68088 c 0.1195,-0.1195 0.1195,-0.31171 0,-0.43121 l -12.0537,-12.05367 c -0.1195,-0.1195 -0.3117,-0.1195 -0.4312,0 l -12.7213,12.72135 a 96.469778,96.469778 0 0 0 -52.7974,-21.87666 l 0,-17.98314 c 0,-0.16899 -0.1357,-0.30601 -0.3048,-0.30601 l -17.0461,0 z m 17.3509,35.16958 a 79.636126,79.636126 0 0 1 40.8398,16.95379 l -40.8398,40.83981 0,-57.7936 z m -17.6556,0.0556 0,57.73796 -40.8853,-40.88534 a 79.636126,79.636126 0 0 1 40.8853,-16.85262 z m 71.0258,29.33749 a 79.636126,79.636126 0 0 1 16.8513,40.88408 l -57.7354,0 40.8841,-40.88408 z m -124.3505,0.0455 40.8386,40.83855 -57.7911,0 a 79.636126,79.636126 0 0 1 16.9525,-40.83855 z m -16.8956,58.49543 57.7354,0 -40.8841,40.88407 a 79.636126,79.636126 0 0 1 -16.8513,-40.88407 z m 100.3608,0 57.7923,0 a 79.636126,79.636126 0 0 1 -16.9525,40.83855 l -40.8398,-40.83855 z m -30.1405,12.48361 0,57.79234 a 79.636126,79.636126 0 0 1 -40.8398,-16.95253 l 40.8398,-40.83981 z m 17.6556,0 40.8853,40.88533 a 79.636126,79.636126 0 0 1 -40.8853,16.85136 l 0,-57.73669 z"
       style="opacity:1;fill:#ffffff;fill-opacity:1;stroke:none;stroke-width:15;stroke-miterlimit:4;stroke-dasharray:none;stroke-opacity:1" />
    <path
       style="opacity:1;fill:#ffffff;fill-opacity:1;stroke:none;stroke-width:15;stroke-miterlimit:4;stroke-dasharray:none;stroke-opacity:1"
       d="m -1086.0656,-511.3049 c -0.169,0 -0.3047,0.13702 -0.3047,0.30601 l 0,17.94014 a 96.469778,96.469778 0 0 0 -52.8379,21.87919 l -12.6808,-12.68088 c -0.1196,-0.1195 -0.3117,-0.1195 -0.4312,0 l -12.0537,12.05367 c -0.1195,0.1195 -0.1195,0.31171 0,0.43121 l 12.7213,12.72134 a 96.469778,96.469778 0 0 0 -21.8754,52.79611 l -17.9843,0 c -0.169,0 -0.3048,0.13576 -0.3048,0.30476 l 0,17.0461 c 0,0.169 0.1358,0.30602 0.3048,0.30602 l 17.9413,0 a 96.469778,96.469778 0 0 0 21.8779,52.83657 l -12.6808,12.68089 c -0.1195,0.1195 -0.1195,0.3117 0,0.4312 l 12.0537,12.05367 c 0.1195,0.1195 0.3116,0.1195 0.4312,0 l 12.7213,-12.72135 a 96.469778,96.469778 0 0 0 52.7974,21.8754 l 0,17.98439 c 0,0.16901 0.1357,0.30476 0.3047,0.30476 l 17.0461,0 c 0.1691,0 0.3048,-0.13575 0.3048,-0.30476 l 0,-17.94139 a 96.469778,96.469778 0 0 0 52.8378,-21.87793 l 12.6809,12.68088 c 0.1195,0.1195 0.3117,0.1195 0.4312,0 l 12.05369,-12.05367 c 0.1195,-0.1195 0.1195,-0.3117 0,-0.4312 l -12.72139,-12.72135 a 96.469778,96.469778 0 0 0 21.87419,-52.79611 l 17.9856,0 c 0.169,0 0.3048,-0.13702 0.3048,-0.30602 l 0,-17.0461 c 0,-0.169 -0.1358,-0.30476 -0.3048,-0.30476 l -17.9414,0 a 96.469778,96.469778 0 0 0 -21.87789,-52.83657 l 12.68089,-12.68088 c 0.1195,-0.1195 0.1195,-0.31171 0,-0.43121 l -12.05369,-12.05367 c -0.1195,-0.1195 -0.3117,-0.1195 -0.4312,0 l -12.7213,12.72135 a 96.469778,96.469778 0 0 0 -52.7974,-21.87666 l 0,-17.98314 c 0,-0.16899 -0.1357,-0.30601 -0.3048,-0.30601 l -17.0461,0 z m 17.3509,35.16958 a 79.636126,79.636126 0 0 1 40.8398,16.95379 l -40.8398,40.83981 0,-57.7936 z m -17.6556,0.0556 0,57.73796 -40.8853,-40.88534 a 79.636126,79.636126 0 0 1 40.8853,-16.85262 z m 71.0258,29.33749 a 79.636126,79.636126 0 0 1 16.85129,40.88408 l -57.73539,0 40.8841,-40.88408 z m -124.3505,0.0455 40.8386,40.83855 -57.7911,0 a 79.636126,79.636126 0 0 1 16.9525,-40.83855 z m -16.8956,58.49543 57.7354,0 -40.8841,40.88407 a 79.636126,79.636126 0 0 1 -16.8513,-40.88407 z m 100.3608,0 57.79229,0 a 79.636126,79.636126 0 0 1 -16.95249,40.83855 l -40.8398,-40.83855 z m -30.1405,12.48361 0,57.79234 a 79.636126,79.636126 0 0 1 -40.8398,-16.95253 l 40.8398,-40.83981 z m 17.6556,0 40.8853,40.88533 a 79.636126,79.636126 0 0 1 -40.8853,16.85136 l 0,-57.73669 z"
       id="path4200"
       inkscape:connector-curvature="0" />
    <path
       inkscape:connector-curvature="0"
       id="path4202"
       d="m -724.96974,-511.3049 c -0.169,0 -0.3047,0.13702 -0.3047,0.30601 l 0,17.94014 a 96.469778,96.469778 0 0 0 -52.8379,21.87919 l -12.68075,-12.68088 c -0.1196,-0.1195 -0.3117,-0.1195 -0.4312,0 l -12.0537,12.05367 c -0.1195,0.1195 -0.1195,0.31171 0,0.43121 l 12.7213,12.72134 a 96.469778,96.469778 0 0 0 -21.8754,52.79611 l -17.9843,0 c -0.169,0 -0.3048,0.13576 -0.3048,0.30476 l 0,17.0461 c 0,0.169 0.1358,0.30602 0.3048,0.30602 l 17.9413,0 a 96.469778,96.469778 0 0 0 21.8779,52.83657 l -12.6808,12.68089 c -0.1195,0.1195 -0.1195,0.3117 0,0.4312 l 12.0537,12.05367 c 0.1195,0.1195 0.3116,0.1195 0.4312,0 l 12.72125,-12.72135 a 96.469778,96.469778 0 0 0 52.7974,21.8754 l 0,17.98439 c 0,0.16901 0.1357,0.30476 0.3047,0.30476 l 17.0461,0 c 0.1691,0 0.3048,-0.13575 0.3048,-0.30476 l 0,-17.94139 a 96.469778,96.469778 0 0 0 52.8378,-21.87793 l 12.6809,12.68088 c 0.1195,0.1195 0.3117,0.1195 0.4312,0 l 12.0537,-12.05367 c 0.1195,-0.1195 0.1195,-0.3117 0,-0.4312 l -12.7214,-12.72135 a 96.469778,96.469778 0 0 0 21.8742,-52.79611 l 17.9856,0 c 0.169,0 0.3048,-0.13702 0.3048,-0.30602 l 0,-17.0461 c 0,-0.169 -0.1358,-0.30476 -0.3048,-0.30476 l -17.9414,0 a 96.469778,96.469778 0 0 0 -21.8779,-52.83657 l 12.6809,-12.68088 c 0.1195,-0.1195 0.1195,-0.31171 0,-0.43121 l -12.0537,-12.05367 c -0.1195,-0.1195 -0.3117,-0.1195 -0.4312,0 l -12.7213,12.72135 a 96.469778,96.469778 0 0 0 -52.7974,-21.87666 l 0,-17.98314 c 0,-0.16899 -0.1357,-0.30601 -0.3048,-0.30601 l -17.0461,0 z m 17.3509,35.16958 a 79.636126,79.636126 0 0 1 40.8398,16.95379 l -40.8398,40.83981 0,-57.7936 z m -17.6556,0.0556 0,57.73796 -40.8853,-40.88534 a 79.636126,79.636126 0 0 1 40.8853,-16.85262 z m 71.0258,29.33749 a 79.636126,79.636126 0 0 1 16.8513,40.88408 l -57.7354,0 40.8841,-40.88408 z m -124.35045,0.0455 40.83855,40.83855 -57.79105,0 a 79.636126,79.636126 0 0 1 16.9525,-40.83855 z m -16.8956,58.49543 57.73535,0 -40.88405,40.88407 a 79.636126,79.636126 0 0 1 -16.8513,-40.88407 z m 100.36075,0 57.7923,0 a 79.636126,79.636126 0 0 1 -16.9525,40.83855 l -40.8398,-40.83855 z m -30.1405,12.48361 0,57.79234 a 79.636126,79.636126 0 0 1 -40.8398,-16.95253 l 40.8398,-40.83981 z m 17.6556,0 40.8853,40.88533 a 79.636126,79.636126 0 0 1 -40.8853,16.85136 l 0,-57.73669 z"
       style="opacity:1;fill:#ffffff;fill-opacity:1;stroke:none;stroke-width:15;stroke-miterlimit:4;stroke-dasharray:none;stroke-opacity:1" />
    <path
       style="opacity:1;fill:#ffffff;fill-opacity:1;stroke:none;stroke-width:15;stroke-miterlimit:4;stroke-dasharray:none;stroke-opacity:1"
       d="m -363.87392,-511.3049 c -0.169,0 -0.3047,0.13702 -0.3047,0.30601 l 0,17.94014 a 96.469778,96.469778 0 0 0 -52.8379,21.87919 l -12.68075,-12.68088 c -0.1196,-0.1195 -0.3117,-0.1195 -0.4312,0 l -12.0537,12.05367 c -0.1195,0.1195 -0.1195,0.31171 0,0.43121 l 12.7213,12.72134 a 96.469778,96.469778 0 0 0 -21.8754,52.79611 l -17.9843,0 c -0.169,0 -0.3048,0.13576 -0.3048,0.30476 l 0,17.0461 c 0,0.169 0.1358,0.30602 0.3048,0.30602 l 17.9413,0 a 96.469778,96.469778 0 0 0 21.8779,52.83657 l -12.6808,12.68089 c -0.1195,0.1195 -0.1195,0.3117 0,0.4312 l 12.0537,12.05367 c 0.1195,0.1195 0.3116,0.1195 0.4312,0 l 12.72125,-12.72135 a 96.469778,96.469778 0 0 0 52.7974,21.8754 l 0,17.98439 c 0,0.16901 0.1357,0.30476 0.3047,0.30476 l 17.0461,0 c 0.1691,0 0.3048,-0.13575 0.3048,-0.30476 l 0,-17.94139 a 96.469778,96.469778 0 0 0 52.8378,-21.87793 l 12.6809,12.68088 c 0.1195,0.1195 0.3117,0.1195 0.4312,0 l 12.0537,-12.05367 c 0.1195,-0.1195 0.1195,-0.3117 0,-0.4312 l -12.7214,-12.72135 a 96.469778,96.469778 0 0 0 21.8742,-52.79611 l 17.9856,0 c 0.169,0 0.3048,-0.13702 0.3048,-0.30602 l 0,-17.0461 c 0,-0.169 -0.1358,-0.30476 -0.3048,-0.30476 l -17.9414,0 a 96.469778,96.469778 0 0 0 -21.8779,-52.83657 l 12.6809,-12.68088 c 0.1195,-0.1195 0.1195,-0.31171 0,-0.43121 l -12.0537,-12.05367 c -0.1195,-0.1195 -0.3117,-0.1195 -0.4312,0 l -12.7213,12.72135 a 96.469778,96.469778 0 0 0 -52.7974,-21.87666 l 0,-17.98314 c 0,-0.16899 -0.1357,-0.30601 -0.3048,-0.30601 l -17.0461,0 z m 17.3509,35.16958 a 79.636126,79.636126 0 0 1 40.8398,16.95379 l -40.8398,40.83981 0,-57.7936 z m -17.6556,0.0556 0,57.73796 -40.8853,-40.88534 a 79.636126,79.636126 0 0 1 40.8853,-16.85262 z m 71.0258,29.33749 a 79.636126,79.636126 0 0 1 16.8513,40.88408 l -57.7354,0 40.8841,-40.88408 z m -124.35045,0.0455 40.83855,40.83855 -57.79105,0 a 79.636126,79.636126 0 0 1 16.9525,-40.83855 z m -16.8956,58.49543 57.73535,0 -40.88405,40.88407 a 79.636126,79.636126 0 0 1 -16.8513,-40.88407 z m 100.36075,0 57.7923,0 a 79.636126,79.636126 0 0 1 -16.9525,40.83855 l -40.8398,-40.83855 z m -30.1405,12.48361 0,57.79234 a 79.636126,79.636126 0 0 1 -40.8398,-16.95253 l 40.8398,-40.83981 z m 17.6556,0 40.8853,40.88533 a 79.636126,79.636126 0 0 1 -40.8853,16.85136 l 0,-57.73669 z"
       id="path4204"
       inkscape:connector-curvature="0" />
  </g>
</svg>
