<?xml version="1.0" encoding="UTF-8" standalone="no"?>
<!-- Created with Inkscape (http://www.inkscape.org/) -->

<svg
   xmlns:dc="http://purl.org/dc/elements/1.1/"
   xmlns:cc="http://creativecommons.org/ns#"
   xmlns:rdf="http://www.w3.org/1999/02/22-rdf-syntax-ns#"
   xmlns:svg="http://www.w3.org/2000/svg"
   xmlns="http://www.w3.org/2000/svg"
   xmlns:sodipodi="http://sodipodi.sourceforge.net/DTD/sodipodi-0.dtd"
   xmlns:inkscape="http://www.inkscape.org/namespaces/inkscape"
   width="588.91827"
   height="344.95468"
   viewBox="0 0 588.91828 344.95469"
   id="svg2"
   version="1.1"
   inkscape:version="0.91 r13725"
   sodipodi:docname="Material Computer.svg"
   inkscape:export-filename="C:\Users\brayan.bedritchuk\Desktop\rect4270.png"
   inkscape:export-xdpi="78.25"
   inkscape:export-ydpi="78.25">
  <defs
     id="defs4">
    <filter
       inkscape:collect="always"
       style="color-interpolation-filters:sRGB"
       id="filter4183"
       x="-0.068767123"
       width="1.1375341"
       y="-0.47062498"
       height="1.9412498">
      <feGaussianBlur
         inkscape:collect="always"
         stdDeviation="5.4430445"
         id="feGaussianBlur4185" />
    </filter>
  </defs>
  <sodipodi:namedview
     id="base"
     pagecolor="#ffffff"
     bordercolor="#666666"
     borderopacity="1.0"
     inkscape:pageopacity="1"
     inkscape:pageshadow="2"
     inkscape:zoom="1"
     inkscape:cx="135.86804"
     inkscape:cy="49.474029"
     inkscape:document-units="px"
     inkscape:current-layer="layer1"
     showgrid="false"
     showborder="true"
     inkscape:object-paths="true"
     inkscape:snap-intersection-paths="true"
     inkscape:object-nodes="true"
     inkscape:snap-smooth-nodes="true"
     inkscape:snap-nodes="false"
     inkscape:window-width="1680"
     inkscape:window-height="987"
     inkscape:window-x="-8"
     inkscape:window-y="-8"
     inkscape:window-maximized="1"
     units="px"
     fit-margin-top="32"
     fit-margin-left="32"
     fit-margin-right="32"
     fit-margin-bottom="32" />
  <metadata
     id="metadata7">
    <rdf:RDF>
      <cc:Work
         rdf:about="">
        <dc:format>image/svg+xml</dc:format>
        <dc:type
           rdf:resource="http://purl.org/dc/dcmitype/StillImage" />
        <dc:title></dc:title>
      </cc:Work>
    </rdf:RDF>
  </metadata>
  <g
     inkscape:label="Layer 1"
     inkscape:groupmode="layer"
     id="layer1"
     transform="translate(699.12435,-269.0351)">
    <g
       transform="matrix(-0.49147063,0,0,0.49147063,-774.50066,39.523743)"
       id="g4311">
      <rect
         style="opacity:1;fill:#8ddfff;fill-opacity:1;stroke:none;stroke-width:40;stroke-miterlimit:4;stroke-dasharray:none;stroke-opacity:1"
         id="rect4313"
         width="77.736542"
         height="21"
         x="-466.75232"
         y="780.7298"
         ry="10.5" />
      <rect
         ry="10.5"
         y="822.7298"
         x="-449.75232"
         height="21"
         width="94"
         id="rect4315"
         style="opacity:1;fill:#8ddfff;fill-opacity:1;stroke:none;stroke-width:40;stroke-miterlimit:4;stroke-dasharray:none;stroke-opacity:1" />
      <rect
         style="opacity:1;fill:#8ddfff;fill-opacity:1;stroke:none;stroke-width:40;stroke-miterlimit:4;stroke-dasharray:none;stroke-opacity:1"
         id="rect4317"
         width="149"
         height="63"
         x="-574.75232"
         y="780.7298"
         ry="7.7823529" />
      <rect
         ry="10.5"
         y="801.7298"
         x="-449.75232"
         height="21"
         width="94"
         id="rect4319"
         style="opacity:1;fill:#ffffff;fill-opacity:1;stroke:none;stroke-width:40;stroke-miterlimit:4;stroke-dasharray:none;stroke-opacity:1" />
      <rect
         style="opacity:1;fill:#8ddfff;fill-opacity:1;stroke:none;stroke-width:40;stroke-miterlimit:4;stroke-dasharray:none;stroke-opacity:1"
         id="rect4321"
         width="52.987808"
         height="21"
         x="-329.54419"
         y="822.7298"
         ry="10.5" />
      <rect
         style="opacity:1;fill:#8ddfff;fill-opacity:1;stroke:none;stroke-width:40;stroke-miterlimit:4;stroke-dasharray:none;stroke-opacity:1"
         id="rect4323"
         width="94"
         height="21"
         x="-511.97772"
         y="866.57043"
         ry="10.5" />
    </g>
    <g
       id="g4303"
       transform="translate(134.35029,-384.66609)">
      <rect
         ry="10.5"
         y="780.7298"
         x="-466.75232"
         height="21"
         width="77.736542"
         id="rect4291"
         style="opacity:1;fill:#8ddfff;fill-opacity:1;stroke:none;stroke-width:40;stroke-miterlimit:4;stroke-dasharray:none;stroke-opacity:1" />
      <rect
         style="opacity:1;fill:#8ddfff;fill-opacity:1;stroke:none;stroke-width:40;stroke-miterlimit:4;stroke-dasharray:none;stroke-opacity:1"
         id="rect4293"
         width="94"
         height="21"
         x="-449.75232"
         y="822.7298"
         ry="10.5" />
      <rect
         ry="7.7823529"
         y="780.7298"
         x="-574.75232"
         height="63"
         width="149"
         id="rect4295"
         style="opacity:1;fill:#8ddfff;fill-opacity:1;stroke:none;stroke-width:40;stroke-miterlimit:4;stroke-dasharray:none;stroke-opacity:1" />
      <rect
         style="opacity:1;fill:#ffffff;fill-opacity:1;stroke:none;stroke-width:40;stroke-miterlimit:4;stroke-dasharray:none;stroke-opacity:1"
         id="rect4297"
         width="94"
         height="21"
         x="-449.75232"
         y="801.7298"
         ry="10.5" />
      <rect
         ry="10.5"
         y="822.7298"
         x="-329.54419"
         height="21"
         width="52.987808"
         id="rect4299"
         style="opacity:1;fill:#8ddfff;fill-opacity:1;stroke:none;stroke-width:40;stroke-miterlimit:4;stroke-dasharray:none;stroke-opacity:1" />
      <rect
         ry="10.5"
         y="866.57043"
         x="-511.97772"
         height="21"
         width="94"
         id="rect4301"
         style="opacity:1;fill:#8ddfff;fill-opacity:1;stroke:none;stroke-width:40;stroke-miterlimit:4;stroke-dasharray:none;stroke-opacity:1" />
    </g>
    <path
       style="opacity:1;fill:#2f64ff;fill-opacity:1;stroke:none;stroke-width:40;stroke-miterlimit:4;stroke-dasharray:none;stroke-opacity:1"
       d="m -465.00827,531.58775 45.01655,0 c 3.98338,0 6.33562,3.29959 7.19021,7.19022 l 2.82843,12.87666 c 0.93599,4.26116 -3.51225,7.875 -7.875,7.875 l -49.30383,0 c -4.36275,0 -8.81099,-3.61384 -7.875,-7.875 l 2.82843,-12.87666 c 0.85459,-3.89063 3.20683,-7.19022 7.19021,-7.19022 z"
       id="rect4178"
       inkscape:connector-curvature="0"
       sodipodi:nodetypes="sssssssss" />
    <rect
       style="opacity:1;fill:#ffcb72;fill-opacity:1;stroke:none;stroke-width:40;stroke-miterlimit:4;stroke-dasharray:none;stroke-opacity:1"
       id="rect4149"
       width="219"
       height="159"
       x="-552"
       y="376.36221"
       rx="0"
       ry="12" />
    <path
       style="opacity:1;fill:#ffb430;fill-opacity:1;stroke:none;stroke-width:40;stroke-miterlimit:4;stroke-dasharray:none;stroke-opacity:1"
       d="m -383.51977,376.36133 -101.28519,159 138.56461,0 c 7.33515,0 13.24035,-5.352 13.24035,-12 l 0,-135 c 0,-6.648 -5.9052,-12 -13.24035,-12 l -37.27942,0 z"
       id="rect4151"
       inkscape:connector-curvature="0" />
    <path
       inkscape:connector-curvature="0"
       id="path4181"
       d="m -537.48221,508.31108 0,17.34835 c 0,5.76659 4.18391,10.40901 9.38095,10.40901 l 171.20252,0 c 5.19704,0 9.38095,-4.64242 9.38095,-10.40901 l 0,-17.34835 -189.96442,0 z"
       style="opacity:1;fill:#000000;fill-opacity:1;stroke:none;stroke-width:40;stroke-miterlimit:4;stroke-dasharray:none;stroke-opacity:1;filter:url(#filter4183)" />
    <path
       style="opacity:1;fill:#2f64ff;fill-opacity:1;stroke:none;stroke-width:40;stroke-miterlimit:4;stroke-dasharray:none;stroke-opacity:1"
       d="m -552,503.36133 0,20 c 0,6.648 4.82341,12 10.81481,12 l 197.37038,0 c 5.9914,0 10.81481,-5.352 10.81481,-12 l 0,-20 -219,0 z"
       id="rect4156"
       inkscape:connector-curvature="0" />
    <rect
       style="opacity:1;fill:#ffffff;fill-opacity:1;stroke:none;stroke-width:40;stroke-miterlimit:4;stroke-dasharray:none;stroke-opacity:1"
       id="rect4162"
       width="81"
       height="7.75"
       x="-539"
       y="389.36221"
       ry="3.875" />
    <rect
       ry="3.875"
       y="418.11786"
       x="-539"
       height="7.75"
       width="151.71068"
       id="rect4164"
       style="opacity:1;fill:#ffffff;fill-opacity:1;stroke:none;stroke-width:40;stroke-miterlimit:4;stroke-dasharray:none;stroke-opacity:1" />
    <rect
       style="opacity:1;fill:#ffffff;fill-opacity:1;stroke:none;stroke-width:40;stroke-miterlimit:4;stroke-dasharray:none;stroke-opacity:1"
       id="rect4166"
       width="170.09546"
       height="7.75"
       x="-539"
       y="446.87354"
       ry="3.875" />
    <rect
       ry="3.875"
       y="475.62921"
       x="-539"
       height="7.75"
       width="95.142143"
       id="rect4168"
       style="opacity:1;fill:#ffffff;fill-opacity:1;stroke:none;stroke-width:40;stroke-miterlimit:4;stroke-dasharray:none;stroke-opacity:1" />
    <g
       id="g4174"
       transform="translate(2.5,0.99914738)">
      <circle
         r="12"
         cy="518.36218"
         cx="-445"
         id="path4170"
         style="opacity:1;fill:#ffffff;fill-opacity:1;stroke:none;stroke-width:40;stroke-miterlimit:4;stroke-dasharray:none;stroke-opacity:1" />
      <circle
         style="opacity:1;fill:#ff5555;fill-opacity:1;stroke:none;stroke-width:40;stroke-miterlimit:4;stroke-dasharray:none;stroke-opacity:1"
         id="circle4172"
         cx="-445"
         cy="518.36218"
         r="6.7248735" />
    </g>
    <path
       style="opacity:1;fill:#ff00ff;fill-opacity:1;stroke:none;stroke-width:40;stroke-miterlimit:4;stroke-dasharray:none;stroke-opacity:1"
       d="m -311.12752,558.47387 a 5.9851953,5.9851953 0 0 0 -5.98531,5.98506 5.9851953,5.9851953 0 0 0 5.98531,5.98531 5.9851953,5.9851953 0 0 0 5.98506,-5.98531 5.9851953,5.9851953 0 0 0 -5.98506,-5.98506 z m 0,1.45081 a 4.5342389,4.5342389 0 0 1 4.53425,4.53425 4.5342389,4.5342389 0 0 1 -4.53425,4.53425 4.5342389,4.5342389 0 0 1 -4.53425,-4.53425 4.5342389,4.5342389 0 0 1 4.53425,-4.53425 z"
       id="path4194"
       inkscape:connector-curvature="0" />
    <path
       inkscape:connector-curvature="0"
       id="path4196"
       d="m -593.97023,517.43655 a 6.0103216,6.0103216 0 0 0 -6.01044,6.01019 6.0103216,6.0103216 0 0 0 6.01044,6.01044 6.0103216,6.0103216 0 0 0 6.01019,-6.01044 6.0103216,6.0103216 0 0 0 -6.01019,-6.01019 z m 0,1.4569 a 4.553274,4.553274 0 0 1 4.55329,4.55329 4.553274,4.553274 0 0 1 -4.55329,4.55329 4.553274,4.553274 0 0 1 -4.55329,-4.55329 4.553274,4.553274 0 0 1 4.55329,-4.55329 z"
       style="opacity:1;fill:#55ddff;fill-opacity:1;stroke:none;stroke-width:40;stroke-miterlimit:4;stroke-dasharray:none;stroke-opacity:1" />
    <g
       id="g4216"
       transform="matrix(0.06410313,0,0,0.06410313,-599.87563,370.93886)"
       style="fill:#6dc435;fill-opacity:1">
      <g
         id="g4230"
         transform="matrix(1.2810382,0,0,1.2810382,238.30567,-57.569179)"
         style="fill:#6dc435;fill-opacity:1">
        <rect
           style="opacity:1;fill:#6dc435;fill-opacity:1;stroke:none;stroke-width:40;stroke-miterlimit:4;stroke-dasharray:none;stroke-opacity:1"
           id="rect4198"
           width="32.526913"
           height="100.40916"
           x="-864.08447"
           y="47.314068"
           ry="0"
           inkscape:transform-center-y="-42.426407" />
        <rect
           style="opacity:1;fill:#6dc435;fill-opacity:1;stroke:none;stroke-width:40;stroke-miterlimit:4;stroke-dasharray:none;stroke-opacity:1"
           id="rect4202"
           width="32.526913"
           height="100.40916"
           x="-472.1308"
           y="579.79095"
           ry="0"
           inkscape:transform-center-y="-29.999989"
           transform="matrix(0.70710678,0.70710678,-0.70710678,0.70710678,0,0)"
           inkscape:transform-center-x="-30.000005" />
        <rect
           style="opacity:1;fill:#6dc435;fill-opacity:1;stroke:none;stroke-width:40;stroke-miterlimit:4;stroke-dasharray:none;stroke-opacity:1"
           id="rect4204"
           width="32.526913"
           height="100.40916"
           x="186.86351"
           y="690.9472"
           ry="0"
           transform="matrix(0,1,-1,0,0,0)"
           inkscape:transform-center-x="-42.426435" />
        <rect
           style="opacity:1;fill:#6dc435;fill-opacity:1;stroke:none;stroke-width:40;stroke-miterlimit:4;stroke-dasharray:none;stroke-opacity:1"
           id="rect4206"
           width="32.526913"
           height="100.40916"
           x="726.86914"
           y="292.5257"
           ry="0"
           inkscape:transform-center-y="-42.426407"
           transform="matrix(-0.70710678,0.70710678,-0.70710678,-0.70710678,0,0)" />
        <rect
           style="opacity:1;fill:#6dc435;fill-opacity:1;stroke:none;stroke-width:40;stroke-miterlimit:4;stroke-dasharray:none;stroke-opacity:1"
           id="rect4208"
           width="32.526913"
           height="100.40916"
           x="831.55756"
           y="-362.37521"
           ry="0"
           inkscape:transform-center-y="42.426422"
           transform="scale(-1,-1)" />
        <rect
           style="opacity:1;fill:#6dc435;fill-opacity:1;stroke:none;stroke-width:40;stroke-miterlimit:4;stroke-dasharray:none;stroke-opacity:1"
           id="rect4210"
           width="32.526913"
           height="100.40916"
           x="439.60388"
           y="-906.47424"
           ry="0"
           inkscape:transform-center-y="-42.426407"
           transform="matrix(-0.70710678,-0.70710678,0.70710678,-0.70710678,0,0)" />
        <rect
           style="opacity:1;fill:#6dc435;fill-opacity:1;stroke:none;stroke-width:40;stroke-miterlimit:4;stroke-dasharray:none;stroke-opacity:1"
           id="rect4212"
           width="32.526913"
           height="100.40916"
           x="-219.39043"
           y="-1004.9477"
           ry="0"
           transform="matrix(0,-1,1,0,0,0)"
           inkscape:transform-center-y="-42.426407" />
        <rect
           style="opacity:1;fill:#6dc435;fill-opacity:1;stroke:none;stroke-width:40;stroke-miterlimit:4;stroke-dasharray:none;stroke-opacity:1"
           id="rect4214"
           width="32.526913"
           height="100.40916"
           x="-759.39606"
           y="-619.20905"
           ry="0"
           inkscape:transform-center-y="-30.000029"
           transform="matrix(0.70710678,-0.70710678,0.70710678,0.70710678,0,0)"
           inkscape:transform-center-x="29.99999" />
      </g>
    </g>
    <rect
       y="828.43396"
       x="-105.56601"
       height="9.3969688"
       width="9.3969688"
       id="rect4228"
       style="opacity:1;fill:#660080;fill-opacity:1;stroke:none;stroke-width:40;stroke-miterlimit:4;stroke-dasharray:none;stroke-opacity:1"
       transform="matrix(0.70710678,0.70710678,-0.70710678,0.70710678,0,0)" />
    <rect
       transform="matrix(0.70710678,0.70710678,-0.70710678,0.70710678,0,0)"
       style="opacity:1;fill:#660080;fill-opacity:1;stroke:none;stroke-width:40;stroke-miterlimit:4;stroke-dasharray:none;stroke-opacity:1"
       id="rect4240"
       width="9.3969688"
       height="9.3969688"
       x="183.43399"
       y="577.43396" />
    <rect
       y="640.43396"
       x="-175.56601"
       height="9.3969688"
       width="9.3969688"
       id="rect4242"
       style="opacity:1;fill:#ffcb72;fill-opacity:1;stroke:none;stroke-width:40;stroke-miterlimit:4;stroke-dasharray:none;stroke-opacity:1"
       transform="matrix(0.70710678,0.70710678,-0.70710678,0.70710678,0,0)" />
    <g
       style="fill:#ff00ff;fill-opacity:1"
       transform="matrix(0.03344356,0,0,0.03344356,-234.34939,352.06498)"
       id="g4244">
      <g
         transform="matrix(1.2810382,0,0,1.2810382,238.30567,-57.569179)"
         id="g4246"
         style="fill:#ff00ff;fill-opacity:1">
        <rect
           inkscape:transform-center-y="-42.426407"
           ry="0"
           y="47.314068"
           x="-864.08447"
           height="100.40916"
           width="32.526913"
           id="rect4248"
           style="opacity:1;fill:#ff00ff;fill-opacity:1;stroke:none;stroke-width:40;stroke-miterlimit:4;stroke-dasharray:none;stroke-opacity:1" />
        <rect
           inkscape:transform-center-x="-30.000005"
           transform="matrix(0.70710678,0.70710678,-0.70710678,0.70710678,0,0)"
           inkscape:transform-center-y="-29.999989"
           ry="0"
           y="579.79095"
           x="-472.1308"
           height="100.40916"
           width="32.526913"
           id="rect4250"
           style="opacity:1;fill:#ff00ff;fill-opacity:1;stroke:none;stroke-width:40;stroke-miterlimit:4;stroke-dasharray:none;stroke-opacity:1" />
        <rect
           inkscape:transform-center-x="-42.426435"
           transform="matrix(0,1,-1,0,0,0)"
           ry="0"
           y="690.9472"
           x="186.86351"
           height="100.40916"
           width="32.526913"
           id="rect4252"
           style="opacity:1;fill:#ff00ff;fill-opacity:1;stroke:none;stroke-width:40;stroke-miterlimit:4;stroke-dasharray:none;stroke-opacity:1" />
        <rect
           transform="matrix(-0.70710678,0.70710678,-0.70710678,-0.70710678,0,0)"
           inkscape:transform-center-y="-42.426407"
           ry="0"
           y="292.5257"
           x="726.86914"
           height="100.40916"
           width="32.526913"
           id="rect4254"
           style="opacity:1;fill:#ff00ff;fill-opacity:1;stroke:none;stroke-width:40;stroke-miterlimit:4;stroke-dasharray:none;stroke-opacity:1" />
        <rect
           transform="scale(-1,-1)"
           inkscape:transform-center-y="42.426422"
           ry="0"
           y="-362.37521"
           x="831.55756"
           height="100.40916"
           width="32.526913"
           id="rect4256"
           style="opacity:1;fill:#ff00ff;fill-opacity:1;stroke:none;stroke-width:40;stroke-miterlimit:4;stroke-dasharray:none;stroke-opacity:1" />
        <rect
           transform="matrix(-0.70710678,-0.70710678,0.70710678,-0.70710678,0,0)"
           inkscape:transform-center-y="-42.426407"
           ry="0"
           y="-906.47424"
           x="439.60388"
           height="100.40916"
           width="32.526913"
           id="rect4258"
           style="opacity:1;fill:#ff00ff;fill-opacity:1;stroke:none;stroke-width:40;stroke-miterlimit:4;stroke-dasharray:none;stroke-opacity:1" />
        <rect
           inkscape:transform-center-y="-42.426407"
           transform="matrix(0,-1,1,0,0,0)"
           ry="0"
           y="-1004.9477"
           x="-219.39043"
           height="100.40916"
           width="32.526913"
           id="rect4260"
           style="opacity:1;fill:#ff00ff;fill-opacity:1;stroke:none;stroke-width:40;stroke-miterlimit:4;stroke-dasharray:none;stroke-opacity:1" />
        <rect
           inkscape:transform-center-x="29.99999"
           transform="matrix(0.70710678,-0.70710678,0.70710678,0.70710678,0,0)"
           inkscape:transform-center-y="-30.000029"
           ry="0"
           y="-619.20905"
           x="-759.39606"
           height="100.40916"
           width="32.526913"
           id="rect4262"
           style="opacity:1;fill:#ff00ff;fill-opacity:1;stroke:none;stroke-width:40;stroke-miterlimit:4;stroke-dasharray:none;stroke-opacity:1" />
      </g>
    </g>
    <rect
       style="opacity:1;fill:#ff5555;fill-opacity:1;stroke:none;stroke-width:40;stroke-miterlimit:4;stroke-dasharray:none;stroke-opacity:1"
       id="rect4264"
       width="1.8150939"
       height="6.1140003"
       x="-367.29544"
       y="301.0351" />
    <rect
       y="311.448"
       x="-367.29544"
       height="6.1140003"
       width="1.8150939"
       id="rect4266"
       style="opacity:1;fill:#ff5555;fill-opacity:1;stroke:none;stroke-width:40;stroke-miterlimit:4;stroke-dasharray:none;stroke-opacity:1" />
    <rect
       y="358.12445"
       x="308.39099"
       height="6.1140003"
       width="1.8150939"
       id="rect4268"
       style="opacity:1;fill:#ff5555;fill-opacity:1;stroke:none;stroke-width:40;stroke-miterlimit:4;stroke-dasharray:none;stroke-opacity:1"
       transform="matrix(0,1,-1,0,0,0)" />
    <rect
       style="opacity:1;fill:#ff5555;fill-opacity:1;stroke:none;stroke-width:40;stroke-miterlimit:4;stroke-dasharray:none;stroke-opacity:1"
       id="rect4270"
       width="1.8150939"
       height="6.1140003"
       x="308.39099"
       y="368.53735"
       transform="matrix(0,1,-1,0,0,0)" />
    <path
       style="opacity:1;fill:#2cd4ff;fill-opacity:1;stroke:none;stroke-width:40;stroke-miterlimit:4;stroke-dasharray:none;stroke-opacity:1"
       d="m -562.09632,567.76461 -1.82727,5.34877 -5.65171,0.0837 4.52227,3.39079 -1.66679,5.40084 4.62232,-3.25306 4.62144,3.25412 -1.66551,-5.40119 4.52304,-3.38981 -5.65162,-0.085 -1.82617,-5.34921 z m -2.6e-4,2.48375 1.24925,3.65961 3.86645,0.0581 -3.09435,2.31907 1.13946,3.69514 -3.16173,-2.22626 -3.16215,2.22557 1.14026,-3.69503 -3.09379,-2.31964 3.86641,-0.0574 1.25019,-3.65921 z"
       id="path4286"
       inkscape:connector-curvature="0" />
  </g>
</svg>
