<?xml version="1.0" encoding="UTF-8" standalone="no"?>
<!-- Created with Inkscape (http://www.inkscape.org/) -->

<svg
   xmlns:dc="http://purl.org/dc/elements/1.1/"
   xmlns:cc="http://creativecommons.org/ns#"
   xmlns:rdf="http://www.w3.org/1999/02/22-rdf-syntax-ns#"
   xmlns:svg="http://www.w3.org/2000/svg"
   xmlns="http://www.w3.org/2000/svg"
   xmlns:sodipodi="http://sodipodi.sourceforge.net/DTD/sodipodi-0.dtd"
   xmlns:inkscape="http://www.inkscape.org/namespaces/inkscape"
   width="606.54962"
   height="706.1485"
   id="svg2"
   version="1.1"
   inkscape:version="0.48.5 r10040"
   sodipodi:docname="Ice mountain.svg"
   inkscape:export-filename="C:\Users\brayan.bedritchuk\Desktop\Ice mountain.png"
   inkscape:export-xdpi="65.255394"
   inkscape:export-ydpi="65.255394">
  <defs
     id="defs4">
    <filter
       inkscape:collect="always"
       id="filter3829"
       x="-0.12"
       width="1.24"
       y="-0.12"
       height="1.24"
       color-interpolation-filters="sRGB">
      <feGaussianBlur
         inkscape:collect="always"
         stdDeviation="17.1"
         id="feGaussianBlur3831" />
    </filter>
  </defs>
  <sodipodi:namedview
     id="base"
     pagecolor="#ffffff"
     bordercolor="#666666"
     borderopacity="1.0"
     inkscape:pageopacity="0.0"
     inkscape:pageshadow="2"
     inkscape:zoom="0.35355339"
     inkscape:cx="640.88209"
     inkscape:cy="845.04912"
     inkscape:document-units="px"
     inkscape:current-layer="layer1"
     showgrid="false"
     showborder="true"
     inkscape:snap-bbox="true"
     inkscape:bbox-paths="true"
     inkscape:bbox-nodes="true"
     inkscape:snap-bbox-edge-midpoints="true"
     inkscape:snap-bbox-midpoints="true"
     inkscape:snap-global="false"
     inkscape:object-paths="true"
     inkscape:snap-intersection-paths="true"
     inkscape:object-nodes="true"
     inkscape:snap-smooth-nodes="false"
     inkscape:snap-midpoints="true"
     inkscape:snap-center="true"
     fit-margin-top="16"
     fit-margin-left="16"
     fit-margin-right="16"
     fit-margin-bottom="16"
     inkscape:window-width="1680"
     inkscape:window-height="987"
     inkscape:window-x="-8"
     inkscape:window-y="-8"
     inkscape:window-maximized="1" />
  <metadata
     id="metadata7">
    <rdf:RDF>
      <cc:Work
         rdf:about="">
        <dc:format>image/svg+xml</dc:format>
        <dc:type
           rdf:resource="http://purl.org/dc/dcmitype/StillImage" />
        <dc:title></dc:title>
      </cc:Work>
    </rdf:RDF>
  </metadata>
  <g
     inkscape:label="Layer 1"
     inkscape:groupmode="layer"
     id="layer1"
     transform="translate(2051.0248,-72.226461)">
    <path
       sodipodi:type="star"
       style="fill:#c9d8f0;fill-opacity:1"
       id="path3976"
       sodipodi:sides="3"
       sodipodi:cx="-1238.8511"
       sodipodi:cy="533.34583"
       sodipodi:r1="358.71158"
       sodipodi:r2="179.35577"
       sodipodi:arg1="0.52359878"
       sodipodi:arg2="1.5707963"
       inkscape:flatsided="false"
       inkscape:rounded="0"
       inkscape:randomized="0"
       d="m -928.19774,712.70162 -310.65336,-2e-5 -310.6533,10e-6 155.3267,-269.03367 155.3266,-269.03369 155.3267,269.03368 z"
       inkscape:transform-center-y="-62.321346"
       transform="matrix(0.69494642,0,0,0.69494642,-889.86127,219.26758)" />
    <path
       style="fill:#a1bce5;fill-opacity:1"
       d="m -1747.5938,347.3125 -6.7812,11.71875 -6.5312,11.34375 -53.875,0 c -8.9911,0 -16.2188,7.22774 -16.2188,16.21875 l 0,117.53125 c 0,8.99101 7.2277,16.25 16.2188,16.25 l 134.5624,0 c 8.9911,0 16.2188,-7.25899 16.2188,-16.25 l 0,-117.53125 c 0,-8.99101 -7.2277,-16.21875 -16.2188,-16.21875 l -54.0624,0 -6.5313,-11.34375 -6.7813,-11.71875 z"
       id="rect3969"
       inkscape:connector-curvature="0" />
    <path
       style="fill:#5f8dd3;fill-opacity:1"
       d="m -1750.6875,260.375 c -10.4614,0.22482 -20.521,5.77076 -26.1563,15.53125 l -254,439.9375 c -8.5869,14.87312 -3.5293,33.75675 11.3438,42.34375 4.8028,2.77289 10.0297,4.10045 15.1875,4.15625 0.2719,0.007 0.5389,0.0312 0.8125,0.0312 l 508,0 c 0.6526,0 1.2952,-0.0544 1.9375,-0.0937 5.9218,0.39568 12.0147,-0.89072 17.5625,-4.09375 14.8731,-8.587 19.9308,-27.47063 11.3438,-42.34375 l -254,-439.9375 c -6.1496,-10.65139 -17.5741,-16.29106 -29.0313,-15.46875 -0.042,-0.003 -0.083,0.003 -0.125,0 -0.9583,-0.0688 -1.9201,-0.083 -2.875,-0.0625 z m 2.9375,89.125 80.625,139.65625 c -0.3725,0.51217 -0.7098,1.06718 -1,1.65625 l -12.0938,24.5625 -11.8124,-23.9375 c -1.9071,-3.87102 -5.7108,-6.12466 -9.7188,-6.1875 -4.326,-0.28507 -8.5765,2.02937 -10.625,6.1875 l -11.9688,24.28125 -11.9687,-24.28125 c -1.8876,-3.83142 -5.6308,-6.08098 -9.5937,-6.1875 -4.3261,-0.28507 -8.5765,2.02937 -10.625,6.1875 l -11.7813,23.90625 -11.7813,-23.90625 c -1.8677,-3.79131 -5.583,-6.03779 -9.5,-6.1875 -0.021,-10e-4 -0.041,10e-4 -0.062,0 -0.3785,-0.0123 -0.7442,-0.0272 -1.125,0 -3.895,0.16996 -7.5792,2.41535 -9.4376,6.1875 l -13.1874,26.78125 -13.1876,-26.78125 c -0.4505,-0.91448 -1.0466,-1.7423 -1.6874,-2.46875 L -1747.75,349.5 z m -93.6875,162.28125 16.4687,33.46875 c 2.1946,4.45466 6.9279,6.76566 11.5626,6.0625 4.6346,0.70316 9.3679,-1.60784 11.5624,-6.0625 l 11.6876,-23.75 11.6874,23.75 c 1.9733,4.00539 5.9974,6.24936 10.1563,6.15625 4.1528,0.0865 8.1545,-2.1564 10.125,-6.15625 l 11.75,-23.875 11.7813,23.875 c 1.9997,4.05921 6.0941,6.3152 10.3124,6.15625 4.2184,0.15895 8.3128,-2.09704 10.3126,-6.15625 l 11.8437,-24 11.8125,24 c 2.7313,5.54417 9.3848,7.77693 14.9062,5 0.7937,-0.39913 1.5031,-0.8914 2.1563,-1.4375 0.054,-0.038 0.103,-0.086 0.1563,-0.125 0.145,-0.12577 0.2999,-0.24278 0.4374,-0.375 1.1968,-0.97683 2.2057,-2.20205 2.9376,-3.6875 l 15.9687,-32.40625 108.625,188.15625 -405.125,0 108.875,-188.59375 z"
       id="rect3889"
       inkscape:connector-curvature="0" />
    <path
       sodipodi:type="arc"
       style="fill:#ffe680;fill-opacity:1"
       id="path3923"
       sodipodi:cx="-1514"
       sodipodi:cy="148.36218"
       sodipodi:rx="88"
       sodipodi:ry="88"
       d="m -1426,148.36218 c 0,48.60106 -39.3989,88 -88,88 -48.6011,0 -88,-39.39894 -88,-88 0,-48.601055 39.3989,-87.999997 88,-87.999997 48.6011,0 88,39.398942 88,87.999997 z"
       transform="matrix(0.86706272,0,0,0.86706272,-257.49669,35.888663)" />
    <path
       style="opacity:0.34615383;fill:#ffffff;fill-opacity:1"
       d="m -1750.7812,260.375 c -10.428,0.25565 -20.4439,5.79974 -26.0626,15.53125 l -254,439.9375 c -8.5867,14.87312 -3.5293,33.75675 11.3438,42.34375 4.8028,2.77289 10.0297,4.10045 15.1875,4.15625 0.2719,0.007 0.5389,0.0312 0.8125,0.0312 l 252.7188,0 0,-502 z"
       id="path3978"
       inkscape:connector-curvature="0" />
    <path
       inkscape:connector-curvature="0"
       id="path4008"
       d="m -1907.8842,555.01459 c -0.2669,0.004 -0.532,0.111 -0.7331,0.31887 l -6.0109,6.2141 c -0.4021,0.41575 -0.3914,1.07435 0.024,1.47651 0.4158,0.40216 1.0744,0.39101 1.4766,-0.0248 l 5.315,-5.49451 5.3151,5.49451 c 0.4022,0.41575 1.0607,0.4269 1.4765,0.0248 0.4157,-0.40216 0.4264,-1.06076 0.024,-1.47651 l -6.0108,-6.2141 c -0.2192,-0.22661 -0.5143,-0.33233 -0.805,-0.31707 -0.024,-10e-4 -0.048,-0.002 -0.072,-0.002 z"
       style="fill:#5f8dd3;fill-opacity:1" />
    <path
       style="fill:#5f8dd3;fill-opacity:1"
       d="m -1895.7182,554.97701 c -0.2668,0.004 -0.5319,0.111 -0.7331,0.31887 l -6.0108,6.2141 c -0.4021,0.41575 -0.3914,1.07435 0.024,1.47651 0.4158,0.40216 1.0743,0.39101 1.4765,-0.0248 l 5.3151,-5.49451 5.3151,5.49451 c 0.4022,0.41574 1.0607,0.4269 1.4765,0.0248 0.4157,-0.40216 0.4264,-1.06076 0.024,-1.47651 l -6.0108,-6.2141 c -0.2192,-0.2266 -0.5144,-0.33233 -0.8051,-0.31707 -0.024,-10e-4 -0.048,-0.002 -0.072,-0.002 z"
       id="path4010"
       inkscape:connector-curvature="0" />
    <path
       style="fill:#5f8dd3;fill-opacity:1"
       d="m -1883.5185,554.89928 c -0.2669,0.004 -0.532,0.111 -0.7331,0.31887 l -6.0108,6.21411 c -0.4022,0.41574 -0.3915,1.07434 0.024,1.47651 0.4158,0.40215 1.0744,0.391 1.4765,-0.0248 l 5.3151,-5.49451 5.315,5.49451 c 0.4022,0.41575 1.0609,0.4269 1.4766,0.0248 0.4157,-0.40217 0.4264,-1.06077 0.024,-1.47651 l -6.0109,-6.21411 c -0.2192,-0.2266 -0.5143,-0.33232 -0.805,-0.31707 -0.024,-9.9e-4 -0.048,-0.002 -0.072,-0.002 z"
       id="path4012"
       inkscape:connector-curvature="0" />
    <path
       style="fill:#c9d8f0;fill-opacity:1"
       d="m -1559.2806,622.89684 c -0.2669,0.004 -0.532,0.111 -0.7331,0.31887 l -6.0109,6.2141 c -0.4021,0.41575 -0.3914,1.07435 0.024,1.47651 0.4158,0.40216 1.0744,0.39101 1.4766,-0.0248 l 5.315,-5.49451 5.3151,5.49451 c 0.4022,0.41575 1.0607,0.4269 1.4765,0.0248 0.4157,-0.40216 0.4264,-1.06076 0.024,-1.47651 l -6.0108,-6.2141 c -0.2192,-0.22661 -0.5143,-0.33233 -0.805,-0.31707 -0.024,-10e-4 -0.048,-0.002 -0.072,-0.002 z"
       id="path4062"
       inkscape:connector-curvature="0" />
    <path
       inkscape:connector-curvature="0"
       id="path4064"
       d="m -1547.1146,622.85926 c -0.2668,0.004 -0.5319,0.111 -0.7331,0.31887 l -6.0108,6.2141 c -0.4021,0.41575 -0.3914,1.07435 0.024,1.47651 0.4158,0.40216 1.0743,0.39101 1.4765,-0.0248 l 5.3151,-5.49451 5.3151,5.49451 c 0.4022,0.41574 1.0607,0.4269 1.4765,0.0248 0.4157,-0.40216 0.4264,-1.06076 0.024,-1.47651 l -6.0108,-6.2141 c -0.2192,-0.2266 -0.5144,-0.33233 -0.8051,-0.31707 -0.024,-10e-4 -0.048,-0.002 -0.072,-0.002 z"
       style="fill:#c9d8f0;fill-opacity:1" />
    <path
       inkscape:connector-curvature="0"
       id="path4066"
       d="m -1534.9149,622.78153 c -0.2669,0.004 -0.532,0.111 -0.7331,0.31887 l -6.0108,6.21411 c -0.4022,0.41574 -0.3915,1.07434 0.024,1.47651 0.4158,0.40215 1.0744,0.391 1.4765,-0.0248 l 5.3151,-5.49451 5.315,5.49451 c 0.4022,0.41575 1.0609,0.4269 1.4766,0.0248 0.4157,-0.40217 0.4264,-1.06077 0.024,-1.47651 l -6.0109,-6.21411 c -0.2192,-0.2266 -0.5143,-0.33232 -0.805,-0.31707 -0.024,-9.9e-4 -0.048,-0.002 -0.072,-0.002 z"
       style="fill:#c9d8f0;fill-opacity:1" />
    <path
       inkscape:connector-curvature="0"
       id="path4068"
       d="m -1669.5893,428.44248 c -0.2669,0.004 -0.532,0.111 -0.7331,0.31887 l -6.0109,6.2141 c -0.4021,0.41575 -0.3914,1.07435 0.024,1.47651 0.4158,0.40216 1.0744,0.39101 1.4766,-0.0248 l 5.315,-5.49451 5.3151,5.49451 c 0.4022,0.41575 1.0607,0.4269 1.4765,0.0248 0.4157,-0.40216 0.4264,-1.06076 0.024,-1.47651 l -6.0108,-6.2141 c -0.2192,-0.22661 -0.5143,-0.33233 -0.805,-0.31707 -0.024,-10e-4 -0.048,-0.002 -0.072,-0.002 z"
       style="fill:#c9d8f0;fill-opacity:1" />
    <path
       style="fill:#c9d8f0;fill-opacity:1"
       d="m -1657.4233,428.4049 c -0.2668,0.004 -0.5319,0.111 -0.7331,0.31887 l -6.0108,6.2141 c -0.4021,0.41575 -0.3914,1.07435 0.024,1.47651 0.4158,0.40216 1.0743,0.39101 1.4765,-0.0248 l 5.3151,-5.49451 5.3151,5.49451 c 0.4022,0.41574 1.0607,0.4269 1.4765,0.0248 0.4157,-0.40216 0.4264,-1.06076 0.024,-1.47651 l -6.0108,-6.2141 c -0.2192,-0.2266 -0.5144,-0.33233 -0.8051,-0.31707 -0.024,-10e-4 -0.048,-0.002 -0.072,-0.002 z"
       id="path4070"
       inkscape:connector-curvature="0" />
    <path
       style="fill:#c9d8f0;fill-opacity:1"
       d="m -1645.2236,428.32717 c -0.2669,0.004 -0.532,0.111 -0.7331,0.31887 l -6.0108,6.21411 c -0.4022,0.41574 -0.3915,1.07434 0.024,1.47651 0.4158,0.40215 1.0744,0.391 1.4765,-0.0248 l 5.3151,-5.49451 5.315,5.49451 c 0.4022,0.41575 1.0609,0.4269 1.4766,0.0248 0.4157,-0.40217 0.4264,-1.06077 0.024,-1.47651 l -6.0109,-6.21411 c -0.2192,-0.2266 -0.5143,-0.33232 -0.805,-0.31707 -0.024,-9.9e-4 -0.048,-0.002 -0.072,-0.002 z"
       id="path4072"
       inkscape:connector-curvature="0" />
  </g>
</svg>
