<?xml version="1.0" encoding="UTF-8" standalone="no"?>
<!-- Created with Inkscape (http://www.inkscape.org/) -->

<svg
   xmlns:dc="http://purl.org/dc/elements/1.1/"
   xmlns:cc="http://creativecommons.org/ns#"
   xmlns:rdf="http://www.w3.org/1999/02/22-rdf-syntax-ns#"
   xmlns:svg="http://www.w3.org/2000/svg"
   xmlns="http://www.w3.org/2000/svg"
   xmlns:xlink="http://www.w3.org/1999/xlink"
   xmlns:sodipodi="http://sodipodi.sourceforge.net/DTD/sodipodi-0.dtd"
   xmlns:inkscape="http://www.inkscape.org/namespaces/inkscape"
   width="510"
   height="510"
   id="svg2"
   version="1.1"
   inkscape:version="0.48.5 r10040"
   sodipodi:docname="App Icons.svg">
  <defs
     id="defs4">
    <linearGradient
       inkscape:collect="always"
       id="linearGradient3831">
      <stop
         style="stop-color:#ffffff;stop-opacity:1;"
         offset="0"
         id="stop3833" />
      <stop
         style="stop-color:#a8a8a8;stop-opacity:1"
         offset="1"
         id="stop3835" />
    </linearGradient>
    <linearGradient
       id="linearGradient3821">
      <stop
         style="stop-color:#30af95;stop-opacity:1"
         offset="0"
         id="stop3823" />
      <stop
         style="stop-color:#5fd3bc;stop-opacity:0;"
         offset="1"
         id="stop3825" />
    </linearGradient>
    <linearGradient
       inkscape:collect="always"
       id="linearGradient3847">
      <stop
         style="stop-color:#333333;stop-opacity:1;"
         offset="0"
         id="stop3849" />
      <stop
         style="stop-color:#333333;stop-opacity:0;"
         offset="1"
         id="stop3851" />
    </linearGradient>
    <linearGradient
       inkscape:collect="always"
       id="linearGradient3780">
      <stop
         style="stop-color:#ffffff;stop-opacity:1;"
         offset="0"
         id="stop3782" />
      <stop
         style="stop-color:#b8b8b8;stop-opacity:1"
         offset="1"
         id="stop3784" />
    </linearGradient>
    <linearGradient
       id="linearGradient3758">
      <stop
         style="stop-color:#c4eee6;stop-opacity:1"
         offset="0"
         id="stop3760" />
      <stop
         style="stop-color:#227b69;stop-opacity:1"
         offset="1"
         id="stop3762" />
    </linearGradient>
    <linearGradient
       inkscape:collect="always"
       xlink:href="#linearGradient3758"
       id="linearGradient3764"
       x1="-31"
       y1="377.36218"
       x2="166"
       y2="570.36218"
       gradientUnits="userSpaceOnUse" />
    <linearGradient
       inkscape:collect="always"
       xlink:href="#linearGradient3758"
       id="linearGradient3772"
       gradientUnits="userSpaceOnUse"
       x1="-31"
       y1="377.36218"
       x2="166"
       y2="570.36218"
       gradientTransform="translate(0,252)" />
    <linearGradient
       inkscape:collect="always"
       xlink:href="#linearGradient3758"
       id="linearGradient3778"
       gradientUnits="userSpaceOnUse"
       gradientTransform="translate(0,532)"
       x1="-31"
       y1="377.36218"
       x2="166"
       y2="570.36218" />
    <linearGradient
       inkscape:collect="always"
       xlink:href="#linearGradient3780"
       id="linearGradient3786"
       x1="-231.16704"
       y1="433.43494"
       x2="-167.5845"
       y2="516.06781"
       gradientUnits="userSpaceOnUse" />
    <linearGradient
       inkscape:collect="always"
       xlink:href="#linearGradient3758"
       id="linearGradient3792"
       gradientUnits="userSpaceOnUse"
       gradientTransform="translate(0,833.22749)"
       x1="-31"
       y1="377.36218"
       x2="166"
       y2="570.36218" />
    <linearGradient
       inkscape:collect="always"
       xlink:href="#linearGradient3780"
       id="linearGradient3794"
       gradientUnits="userSpaceOnUse"
       x1="-231.16704"
       y1="433.43494"
       x2="-167.5845"
       y2="516.06781" />
    <linearGradient
       inkscape:collect="always"
       xlink:href="#linearGradient3758"
       id="linearGradient3814"
       gradientUnits="userSpaceOnUse"
       gradientTransform="translate(0,1222.1362)"
       x1="-31"
       y1="377.36218"
       x2="166"
       y2="570.36218" />
    <linearGradient
       inkscape:collect="always"
       xlink:href="#linearGradient3780"
       id="linearGradient3816"
       gradientUnits="userSpaceOnUse"
       x1="-231.16704"
       y1="433.43494"
       x2="-167.5845"
       y2="516.06781" />
    <linearGradient
       inkscape:collect="always"
       xlink:href="#linearGradient3758"
       id="linearGradient3824"
       gradientUnits="userSpaceOnUse"
       gradientTransform="translate(0,1570.1362)"
       x1="-31"
       y1="377.36218"
       x2="166"
       y2="570.36218" />
    <linearGradient
       inkscape:collect="always"
       xlink:href="#linearGradient3780"
       id="linearGradient3826"
       gradientUnits="userSpaceOnUse"
       x1="-231.16704"
       y1="433.43494"
       x2="-167.5845"
       y2="516.06781" />
    <linearGradient
       inkscape:collect="always"
       xlink:href="#linearGradient3758"
       id="linearGradient3843"
       gradientUnits="userSpaceOnUse"
       gradientTransform="translate(0,1838.1362)"
       x1="-31"
       y1="377.36218"
       x2="166"
       y2="570.36218" />
    <linearGradient
       inkscape:collect="always"
       xlink:href="#linearGradient3780"
       id="linearGradient3845"
       gradientUnits="userSpaceOnUse"
       x1="-231.16704"
       y1="433.43494"
       x2="-167.5845"
       y2="516.06781" />
    <linearGradient
       inkscape:collect="always"
       xlink:href="#linearGradient3847"
       id="linearGradient3853"
       x1="28.03125"
       y1="2269.0625"
       x2="147.75175"
       y2="2388.783"
       gradientUnits="userSpaceOnUse" />
    <linearGradient
       inkscape:collect="always"
       xlink:href="#linearGradient3758"
       id="linearGradient3871"
       gradientUnits="userSpaceOnUse"
       gradientTransform="translate(0,2127.1362)"
       x1="-31"
       y1="377.36218"
       x2="166"
       y2="570.36218" />
    <linearGradient
       inkscape:collect="always"
       xlink:href="#linearGradient3847"
       id="linearGradient3873"
       gradientUnits="userSpaceOnUse"
       x1="28.03125"
       y1="2269.0625"
       x2="147.75175"
       y2="2388.783"
       gradientTransform="translate(0,289)" />
    <linearGradient
       inkscape:collect="always"
       xlink:href="#linearGradient3780"
       id="linearGradient3875"
       gradientUnits="userSpaceOnUse"
       x1="-231.16704"
       y1="433.43494"
       x2="-167.5845"
       y2="516.06781" />
    <linearGradient
       inkscape:collect="always"
       xlink:href="#linearGradient3758"
       id="linearGradient3975"
       gradientUnits="userSpaceOnUse"
       gradientTransform="translate(-414,3107.1362)"
       x1="-31"
       y1="377.36218"
       x2="166"
       y2="570.36218" />
    <linearGradient
       inkscape:collect="always"
       xlink:href="#linearGradient3847"
       id="linearGradient3977"
       gradientUnits="userSpaceOnUse"
       gradientTransform="translate(-414,1269)"
       x1="28.03125"
       y1="2269.0625"
       x2="147.75175"
       y2="2388.783" />
    <linearGradient
       inkscape:collect="always"
       xlink:href="#linearGradient3780"
       id="linearGradient3979"
       gradientUnits="userSpaceOnUse"
       x1="-231.16704"
       y1="433.43494"
       x2="-167.5845"
       y2="516.06781" />
    <linearGradient
       inkscape:collect="always"
       xlink:href="#linearGradient3831"
       id="linearGradient3837"
       x1="-677.54633"
       y1="-2793.1272"
       x2="-434.58813"
       y2="-2802.0303"
       gradientUnits="userSpaceOnUse" />
    <linearGradient
       inkscape:collect="always"
       xlink:href="#linearGradient3821"
       id="linearGradient3854"
       gradientUnits="userSpaceOnUse"
       gradientTransform="translate(1772.477,-3192.5345)"
       x1="-1023.6649"
       y1="481.6413"
       x2="-453.66492"
       y2="991.6413" />
    <linearGradient
       inkscape:collect="always"
       xlink:href="#linearGradient3821"
       id="linearGradient3918"
       gradientUnits="userSpaceOnUse"
       gradientTransform="translate(1772.477,-3192.5345)"
       x1="-1023.6649"
       y1="481.6413"
       x2="-453.66492"
       y2="991.6413" />
    <linearGradient
       inkscape:collect="always"
       xlink:href="#linearGradient3831"
       id="linearGradient3920"
       gradientUnits="userSpaceOnUse"
       x1="-677.54633"
       y1="-2793.1272"
       x2="-434.58813"
       y2="-2802.0303" />
    <linearGradient
       inkscape:collect="always"
       xlink:href="#linearGradient3821"
       id="linearGradient3931"
       gradientUnits="userSpaceOnUse"
       gradientTransform="translate(1772.477,-3192.5345)"
       x1="-1023.6649"
       y1="481.6413"
       x2="-453.66492"
       y2="991.6413" />
    <linearGradient
       inkscape:collect="always"
       xlink:href="#linearGradient3831"
       id="linearGradient3933"
       gradientUnits="userSpaceOnUse"
       x1="-677.54633"
       y1="-2793.1272"
       x2="-434.58813"
       y2="-2802.0303" />
    <linearGradient
       inkscape:collect="always"
       xlink:href="#linearGradient3821"
       id="linearGradient3982"
       gradientUnits="userSpaceOnUse"
       gradientTransform="matrix(-1,0,0,-1,-2672.8121,-97.3608)"
       x1="-1023.6649"
       y1="481.6413"
       x2="-453.66492"
       y2="991.6413" />
    <linearGradient
       inkscape:collect="always"
       xlink:href="#linearGradient3831"
       id="linearGradient3988"
       gradientUnits="userSpaceOnUse"
       x1="-677.54633"
       y1="-2793.1272"
       x2="-434.58813"
       y2="-2802.0303" />
    <linearGradient
       inkscape:collect="always"
       xlink:href="#linearGradient3821"
       id="linearGradient3990"
       gradientUnits="userSpaceOnUse"
       gradientTransform="matrix(-1,0,0,-1,-1552.477,5012.5345)"
       x1="-1023.6649"
       y1="481.6413"
       x2="-453.66492"
       y2="991.6413" />
  </defs>
  <sodipodi:namedview
     id="base"
     pagecolor="#ffffff"
     bordercolor="#666666"
     borderopacity="1.0"
     inkscape:pageopacity="0.0"
     inkscape:pageshadow="2"
     inkscape:zoom="0.25"
     inkscape:cx="403.66101"
     inkscape:cy="595.0778"
     inkscape:document-units="px"
     inkscape:current-layer="layer1"
     showgrid="false"
     showborder="true"
     inkscape:object-nodes="true"
     showguides="true"
     inkscape:guide-bbox="true"
     inkscape:snap-smooth-nodes="true"
     inkscape:window-width="1920"
     inkscape:window-height="1017"
     inkscape:window-x="-8"
     inkscape:window-y="-8"
     inkscape:window-maximized="1"
     fit-margin-top="0"
     fit-margin-left="0"
     fit-margin-right="0"
     fit-margin-bottom="0" />
  <metadata
     id="metadata7">
    <rdf:RDF>
      <cc:Work
         rdf:about="">
        <dc:format>image/svg+xml</dc:format>
        <dc:type
           rdf:resource="http://purl.org/dc/dcmitype/StillImage" />
        <dc:title />
      </cc:Work>
    </rdf:RDF>
  </metadata>
  <g
     inkscape:label="Layer 1"
     inkscape:groupmode="layer"
     id="layer1"
     transform="translate(143.6649,-4097.8953)">
    <path
       style="color:#000000;fill:url(#linearGradient3764);fill-opacity:1;fill-rule:nonzero;stroke:none;stroke-width:5;marker:none;visibility:visible;display:inline;overflow:visible;enable-background:accumulate"
       d="m -34,372.36218 200,0 0,200 -200,0 z"
       id="rect3755"
       inkscape:connector-curvature="0" />
    <path
       id="path3770"
       d="m -34,624.36218 200,0 0,200 -200,0 z"
       style="color:#000000;fill:url(#linearGradient3772);fill-opacity:1;fill-rule:nonzero;stroke:none;stroke-width:5;marker:none;visibility:visible;display:inline;overflow:visible;enable-background:accumulate"
       inkscape:connector-curvature="0" />
    <path
       sodipodi:type="star"
       style="color:#000000;fill:#ffffff;fill-opacity:1;fill-rule:nonzero;stroke:none;stroke-width:5;marker:none;visibility:visible;display:inline;overflow:visible;enable-background:accumulate"
       id="path3768"
       sodipodi:sides="5"
       sodipodi:cx="-210"
       sodipodi:cy="452.36218"
       sodipodi:r1="124.03629"
       sodipodi:r2="46.513607"
       sodipodi:arg1="-1.5707963"
       sodipodi:arg2="-0.9424778"
       inkscape:flatsided="false"
       inkscape:rounded="0"
       inkscape:randomized="0"
       d="m -210,328.32589 27.34001,86.40599 90.625516,-0.69902 -73.728456,52.70282 28.66963,85.97397 -72.9067,-53.83386 -72.90671,53.83386 28.66964,-85.97397 -73.72845,-52.70282 90.62551,0.69902 z"
       inkscape:transform-center-y="-5.016819"
       transform="matrix(0.4235604,0,0,0.4235604,154.94768,537.7763)" />
    <path
       inkscape:connector-curvature="0"
       style="color:#000000;fill:url(#linearGradient3778);fill-opacity:1;fill-rule:nonzero;stroke:none;stroke-width:5;marker:none;visibility:visible;display:inline;overflow:visible;enable-background:accumulate"
       d="m -34,904.36218 200,0 0,200.00002 -200,0 z"
       id="path3774" />
    <path
       transform="matrix(0.4235604,0,0,0.4235604,154.94768,817.7763)"
       inkscape:transform-center-y="-5.016819"
       d="m -210,328.32589 27.34001,86.40599 90.625516,-0.69902 -73.728456,52.70282 28.66963,85.97397 -72.9067,-53.83386 -72.90671,53.83386 28.66964,-85.97397 -73.72845,-52.70282 90.62551,0.69902 z"
       inkscape:randomized="0"
       inkscape:rounded="0"
       inkscape:flatsided="false"
       sodipodi:arg2="-0.9424778"
       sodipodi:arg1="-1.5707963"
       sodipodi:r2="46.513607"
       sodipodi:r1="124.03629"
       sodipodi:cy="452.36218"
       sodipodi:cx="-210"
       sodipodi:sides="5"
       id="path3776"
       style="color:#000000;fill:url(#linearGradient3786);fill-opacity:1;fill-rule:nonzero;stroke:none;stroke-width:5;marker:none;visibility:visible;display:inline;overflow:visible;enable-background:accumulate"
       sodipodi:type="star" />
    <path
       id="path3788"
       d="m -34,1205.5897 200,0 0,200 -200,0 z"
       style="color:#000000;fill:url(#linearGradient3792);fill-opacity:1;fill-rule:nonzero;stroke:none;stroke-width:5;marker:none;visibility:visible;display:inline;overflow:visible;enable-background:accumulate"
       inkscape:connector-curvature="0" />
    <path
       sodipodi:type="star"
       style="color:#000000;fill:url(#linearGradient3794);fill-opacity:1;fill-rule:nonzero;stroke:none;stroke-width:5;marker:none;visibility:visible;display:inline;overflow:visible;enable-background:accumulate"
       id="path3790"
       sodipodi:sides="5"
       sodipodi:cx="-210"
       sodipodi:cy="452.36218"
       sodipodi:r1="124.03629"
       sodipodi:r2="46.513607"
       sodipodi:arg1="-1.5707963"
       sodipodi:arg2="-0.9424778"
       inkscape:flatsided="false"
       inkscape:rounded="0"
       inkscape:randomized="0"
       d="m -210,328.32589 27.34001,86.40599 90.625516,-0.69902 -73.728456,52.70282 28.66963,85.97397 -72.9067,-53.83386 -72.90671,53.83386 28.66964,-85.97397 -73.72845,-52.70282 90.62551,0.69902 z"
       inkscape:transform-center-y="-5.719672"
       transform="matrix(0.48289977,0,0,0.48289977,167.40895,1092.1609)" />
    <path
       style="fill:none;stroke:#000000;stroke-width:1px;stroke-linecap:butt;stroke-linejoin:miter;stroke-opacity:1"
       d="M 262.64169,1431.7734 122.96552,1292.0973 110.8264,1295.5358 66,1250.7094 l -0.75,50.9028 -56.215526,-9.5149 41.115218,41.1152 -19.356325,25.8518 179.502363,179.5023 z"
       id="path3806"
       inkscape:connector-curvature="0" />
    <path
       inkscape:connector-curvature="0"
       style="color:#000000;fill:url(#linearGradient3814);fill-opacity:1;fill-rule:nonzero;stroke:none;stroke-width:5;marker:none;visibility:visible;display:inline;overflow:visible;enable-background:accumulate"
       d="m -34,1594.4984 200,0 0,200 -200,0 z"
       id="path3808" />
    <path
       inkscape:connector-curvature="0"
       id="path3812"
       d="M 262.64169,1820.6821 122.96552,1681.006 110.8264,1684.4445 66,1639.6181 l -0.75,50.9028 -56.215526,-9.5149 41.115218,41.1152 -19.356325,25.8518 179.502363,179.5023 z"
       style="fill:#333333;stroke:none" />
    <path
       transform="matrix(0.48289977,0,0,0.48289977,167.40895,1481.0696)"
       inkscape:transform-center-y="-5.719672"
       d="m -210,328.32589 27.34001,86.40599 90.625516,-0.69902 -73.728456,52.70282 28.66963,85.97397 -72.9067,-53.83386 -72.90671,53.83386 28.66964,-85.97397 -73.72845,-52.70282 90.62551,0.69902 z"
       inkscape:randomized="0"
       inkscape:rounded="0"
       inkscape:flatsided="false"
       sodipodi:arg2="-0.9424778"
       sodipodi:arg1="-1.5707963"
       sodipodi:r2="46.513607"
       sodipodi:r1="124.03629"
       sodipodi:cy="452.36218"
       sodipodi:cx="-210"
       sodipodi:sides="5"
       id="path3810"
       style="color:#000000;fill:url(#linearGradient3816);fill-opacity:1;fill-rule:nonzero;stroke:none;stroke-width:5;marker:none;visibility:visible;display:inline;overflow:visible;enable-background:accumulate"
       sodipodi:type="star" />
    <path
       id="path3818"
       d="m -34,1942.4984 200,0 0,200 -200,0 z"
       style="color:#000000;fill:url(#linearGradient3824);fill-opacity:1;fill-rule:nonzero;stroke:none;stroke-width:5;marker:none;visibility:visible;display:inline;overflow:visible;enable-background:accumulate"
       inkscape:connector-curvature="0" />
    <path
       style="fill:#333333;stroke:none"
       d="M 66,1987.625 65.25,2038.5312 9.03125,2029 l 41.125,41.125 -19.375,25.8438 46.53125,46.5312 88.6875,0 0,-70.4688 L 122.96875,2029 110.8125,2032.4375 66,1987.625 z"
       id="path3820"
       inkscape:connector-curvature="0" />
    <path
       sodipodi:type="star"
       style="color:#000000;fill:url(#linearGradient3826);fill-opacity:1;fill-rule:nonzero;stroke:none;stroke-width:5;marker:none;visibility:visible;display:inline;overflow:visible;enable-background:accumulate"
       id="path3822"
       sodipodi:sides="5"
       sodipodi:cx="-210"
       sodipodi:cy="452.36218"
       sodipodi:r1="124.03629"
       sodipodi:r2="46.513607"
       sodipodi:arg1="-1.5707963"
       sodipodi:arg2="-0.9424778"
       inkscape:flatsided="false"
       inkscape:rounded="0"
       inkscape:randomized="0"
       d="m -210,328.32589 27.34001,86.40599 90.625516,-0.69902 -73.728456,52.70282 28.66963,85.97397 -72.9067,-53.83386 -72.90671,53.83386 28.66964,-85.97397 -73.72845,-52.70282 90.62551,0.69902 z"
       inkscape:transform-center-y="-5.719672"
       transform="matrix(0.48289977,0,0,0.48289977,167.40895,1829.0696)" />
    <text
       xml:space="preserve"
       style="font-size:20.48226929px;font-style:normal;font-variant:normal;font-weight:normal;font-stretch:normal;line-height:125%;letter-spacing:0px;word-spacing:0px;fill:#000000;fill-opacity:1;stroke:none;font-family:Roboto;-inkscape-font-specification:Roboto"
       x="223.08578"
       y="1982.7239"
       id="text3831"
       sodipodi:linespacing="125%"><tspan
         sodipodi:role="line"
         id="tspan3833"
         x="223.08578"
         y="1982.7239">Duplicate the square, select the square and</tspan><tspan
         sodipodi:role="line"
         x="223.08578"
         y="2008.3267"
         id="tspan3835">the shadow, path, intersection</tspan></text>
    <path
       inkscape:connector-curvature="0"
       style="color:#000000;fill:url(#linearGradient3843);fill-opacity:1;fill-rule:nonzero;stroke:none;stroke-width:5;marker:none;visibility:visible;display:inline;overflow:visible;enable-background:accumulate"
       d="m -34,2210.4984 200,0 0,200 -200,0 z"
       id="path3837" />
    <path
       id="path3839"
       d="M 66,2255.625 65.25,2306.5312 9.03125,2297 l 41.125,41.125 -19.375,25.8438 46.53125,46.5312 88.6875,0 0,-70.4688 L 122.96875,2297 110.8125,2300.4375 66,2255.625 z"
       style="opacity:0.61946902;fill:url(#linearGradient3853);fill-opacity:1;stroke:none"
       inkscape:connector-curvature="0" />
    <path
       transform="matrix(0.48289977,0,0,0.48289977,167.40895,2097.0696)"
       inkscape:transform-center-y="-5.719672"
       d="m -210,328.32589 27.34001,86.40599 90.625516,-0.69902 -73.728456,52.70282 28.66963,85.97397 -72.9067,-53.83386 -72.90671,53.83386 28.66964,-85.97397 -73.72845,-52.70282 90.62551,0.69902 z"
       inkscape:randomized="0"
       inkscape:rounded="0"
       inkscape:flatsided="false"
       sodipodi:arg2="-0.9424778"
       sodipodi:arg1="-1.5707963"
       sodipodi:r2="46.513607"
       sodipodi:r1="124.03629"
       sodipodi:cy="452.36218"
       sodipodi:cx="-210"
       sodipodi:sides="5"
       id="path3841"
       style="color:#000000;fill:url(#linearGradient3845);fill-opacity:1;fill-rule:nonzero;stroke:none;stroke-width:5;marker:none;visibility:visible;display:inline;overflow:visible;enable-background:accumulate"
       sodipodi:type="star" />
    <text
       sodipodi:linespacing="125%"
       id="text3855"
       y="2235.7239"
       x="223.08578"
       style="font-size:20.48226929px;font-style:normal;font-variant:normal;font-weight:normal;font-stretch:normal;line-height:125%;letter-spacing:0px;word-spacing:0px;fill:#000000;fill-opacity:1;stroke:none;font-family:Roboto;-inkscape-font-specification:Roboto"
       xml:space="preserve"><tspan
         id="tspan3859"
         y="2235.7239"
         x="223.08578"
         sodipodi:role="line">Finished!</tspan></text>
    <path
       id="path3865"
       d="m -34,2499.4984 200,0 0,200 -200,0 z"
       style="color:#000000;fill:url(#linearGradient3871);fill-opacity:1;fill-rule:nonzero;stroke:none;stroke-width:5;marker:none;visibility:visible;display:inline;overflow:visible;enable-background:accumulate"
       inkscape:connector-curvature="0" />
    <path
       inkscape:connector-curvature="0"
       style="opacity:0.61946902;fill:url(#linearGradient3873);fill-opacity:1;stroke:none"
       d="M 66,2544.625 65.25,2595.5312 9.03125,2586 l 41.125,41.125 -19.375,25.8438 46.53125,46.5312 88.6875,0 0,-70.4688 L 122.96875,2586 110.8125,2589.4375 66,2544.625 z"
       id="path3867" />
    <path
       sodipodi:type="star"
       style="color:#000000;fill:url(#linearGradient3875);fill-opacity:1;fill-rule:nonzero;stroke:none;stroke-width:5;marker:none;visibility:visible;display:inline;overflow:visible;enable-background:accumulate"
       id="path3869"
       sodipodi:sides="5"
       sodipodi:cx="-210"
       sodipodi:cy="452.36218"
       sodipodi:r1="124.03629"
       sodipodi:r2="46.513607"
       sodipodi:arg1="-1.5707963"
       sodipodi:arg2="-0.9424778"
       inkscape:flatsided="false"
       inkscape:rounded="0"
       inkscape:randomized="0"
       d="m -210,328.32589 27.34001,86.40599 90.625516,-0.69902 -73.728456,52.70282 28.66963,85.97397 -72.9067,-53.83386 -72.90671,53.83386 28.66964,-85.97397 -73.72845,-52.70282 90.62551,0.69902 z"
       inkscape:transform-center-y="-5.719672"
       transform="matrix(0.48289977,0,0,0.48289977,167.40895,2386.0696)" />
    <path
       style="opacity:0.72123892;color:#000000;fill:#333333;fill-opacity:0.72156863;fill-rule:nonzero;stroke:none;stroke-width:5;marker:none;visibility:visible;display:inline;overflow:visible;enable-background:accumulate"
       d="m 229.15729,3074.0233 c 0,45.2874 -36.71265,82 -82,82 -45.28735,0 -82.000002,-36.7126 -82.000002,-82 0,-45.2873 36.712652,-82 82.000002,-82 45.28735,0 82,36.7127 82,82 z"
       id="path3877"
       inkscape:connector-curvature="0" />
    <path
       id="path3880"
       d="m 229.15729,2910.0233 c 0,45.2874 -36.71265,82 -82,82 -45.28735,0 -82.000002,-36.7126 -82.000002,-82 0,-45.2873 36.712652,-82 82.000002,-82 45.28735,0 82,36.7127 82,82 z"
       style="opacity:0.72123892;color:#000000;fill:#333333;fill-opacity:0.72156863;fill-rule:nonzero;stroke:none;stroke-width:5;marker:none;visibility:visible;display:inline;overflow:visible;enable-background:accumulate"
       inkscape:connector-curvature="0" />
    <path
       inkscape:connector-curvature="0"
       style="opacity:0.72123892;color:#000000;fill:#333333;fill-opacity:0.72156863;fill-rule:nonzero;stroke:none;stroke-width:5;marker:none;visibility:visible;display:inline;overflow:visible;enable-background:accumulate"
       d="m 229.15729,3238.0233 c 0,45.2874 -36.71265,82 -82,82 -45.28735,0 -82.000002,-36.7126 -82.000002,-82 0,-45.2873 36.712652,-82 82.000002,-82 45.28735,0 82,36.7127 82,82 z"
       id="path3882" />
    <path
       id="path3884"
       d="m 393.15729,3074.0233 c 0,45.2874 -36.71265,82 -82,82 -45.28735,0 -82,-36.7126 -82,-82 0,-45.2873 36.71265,-82 82,-82 45.28735,0 82,36.7127 82,82 z"
       style="opacity:0.72123892;color:#000000;fill:#333333;fill-opacity:0.72156863;fill-rule:nonzero;stroke:none;stroke-width:5;marker:none;visibility:visible;display:inline;overflow:visible;enable-background:accumulate"
       inkscape:connector-curvature="0" />
    <path
       inkscape:connector-curvature="0"
       style="opacity:0.72123892;color:#000000;fill:#333333;fill-opacity:0.72156863;fill-rule:nonzero;stroke:none;stroke-width:5;marker:none;visibility:visible;display:inline;overflow:visible;enable-background:accumulate"
       d="m 65.157288,3074.0233 c 0,45.2874 -36.71265,82 -82,82 -45.28735,0 -81.999999,-36.7126 -81.999999,-82 0,-45.2873 36.712649,-82 81.999999,-82 45.28735,0 82,36.7127 82,82 z"
       id="path3886" />
    <path
       inkscape:connector-curvature="0"
       style="opacity:0.72123892;color:#000000;fill:#333333;fill-opacity:0.72156863;fill-rule:nonzero;stroke:none;stroke-width:5;marker:none;visibility:visible;display:inline;overflow:visible;enable-background:accumulate"
       d="m 393.15729,2910.0233 c 0,45.2874 -36.71265,82 -82,82 -45.28735,0 -82,-36.7126 -82,-82 0,-45.2873 36.71265,-82 82,-82 45.28735,0 82,36.7127 82,82 z"
       id="path3888" />
    <path
       id="path3890"
       d="m 65.157288,2910.0233 c 0,45.2874 -36.71265,82 -82,82 -45.28735,0 -81.999999,-36.7126 -81.999999,-82 0,-45.2873 36.712649,-82 81.999999,-82 45.28735,0 82,36.7127 82,82 z"
       style="opacity:0.72123892;color:#000000;fill:#333333;fill-opacity:0.72156863;fill-rule:nonzero;stroke:none;stroke-width:5;marker:none;visibility:visible;display:inline;overflow:visible;enable-background:accumulate"
       inkscape:connector-curvature="0" />
    <path
       inkscape:connector-curvature="0"
       style="opacity:0.72123892;color:#000000;fill:#333333;fill-opacity:0.72156863;fill-rule:nonzero;stroke:none;stroke-width:5;marker:none;visibility:visible;display:inline;overflow:visible;enable-background:accumulate"
       d="m 65.157288,3238.0233 c 0,45.2874 -36.71265,82 -82,82 -45.28735,0 -81.999999,-36.7126 -81.999999,-82 0,-45.2873 36.712649,-82 81.999999,-82 45.28735,0 82,36.7127 82,82 z"
       id="path3892" />
    <path
       id="path3894"
       d="m 393.15729,3238.0233 c 0,45.2874 -36.71265,82 -82,82 -45.28735,0 -82,-36.7126 -82,-82 0,-45.2873 36.71265,-82 82,-82 45.28735,0 82,36.7127 82,82 z"
       style="opacity:0.72123892;color:#000000;fill:#333333;fill-opacity:0.72156863;fill-rule:nonzero;stroke:none;stroke-width:5;marker:none;visibility:visible;display:inline;overflow:visible;enable-background:accumulate"
       inkscape:connector-curvature="0" />
    <path
       style="fill:none;stroke:#000000;stroke-width:1px;stroke-linecap:butt;stroke-linejoin:miter;stroke-opacity:1"
       d="m -98.842711,2910.0233 0,328 81.999999,82 328.000002,0 82,-82 0,-328 -82,-82 -328.000002,0 -81.999999,82 z"
       id="path3896"
       inkscape:connector-curvature="0" />
    <text
       xml:space="preserve"
       style="font-size:40px;font-style:normal;font-variant:normal;font-weight:normal;font-stretch:normal;line-height:125%;letter-spacing:0px;word-spacing:0px;fill:#000000;fill-opacity:1;stroke:none;font-family:Roboto;-inkscape-font-specification:Roboto"
       x="470"
       y="2882.3623"
       id="text3920"
       sodipodi:linespacing="125%"><tspan
         sodipodi:role="line"
         id="tspan3922"
         x="470"
         y="2882.3623">Snap to smoth nodes</tspan></text>
    <g
       id="g3970"
       transform="matrix(2.55,0,0,2.55,998.7351,-4774.8297)">
      <path
         id="path3924"
         d="m -414.65625,3479.5 c -18.40949,0 -33.34375,14.9343 -33.34375,33.3438 l 0,133.3124 c 0,18.4096 14.93426,33.3438 33.34375,33.3438 l 133.3125,0 c 18.40949,0 33.34375,-14.9343 33.34375,-33.3438 l 0,-133.3124 c 0,-18.4095 -14.93426,-33.3438 -33.34375,-33.3438 l -133.3125,0 z"
         style="color:#000000;fill:url(#linearGradient3975);fill-opacity:1;fill-rule:nonzero;stroke:none;stroke-width:5;marker:none;visibility:visible;display:inline;overflow:visible;enable-background:accumulate"
         inkscape:connector-curvature="0" />
      <path
         id="path3926"
         d="m -348,3524.625 -0.75,50.9062 -56.21875,-9.5312 41.125,41.125 -19.375,25.8438 46.53125,46.5312 55.34375,0 c 18.40949,0 33.34375,-14.9343 33.34375,-33.3438 l 0,-37.125 L -291.03125,3566 -303.1875,3569.4375 -348,3524.625 z"
         style="opacity:0.61946902;fill:url(#linearGradient3977);fill-opacity:1;stroke:none"
         inkscape:connector-curvature="0" />
      <path
         sodipodi:type="star"
         style="color:#000000;fill:url(#linearGradient3979);fill-opacity:1;fill-rule:nonzero;stroke:none;stroke-width:5;marker:none;visibility:visible;display:inline;overflow:visible;enable-background:accumulate"
         id="path3928"
         sodipodi:sides="5"
         sodipodi:cx="-210"
         sodipodi:cy="452.36218"
         sodipodi:r1="124.03629"
         sodipodi:r2="46.513607"
         sodipodi:arg1="-1.5707963"
         sodipodi:arg2="-0.9424778"
         inkscape:flatsided="false"
         inkscape:rounded="0"
         inkscape:randomized="0"
         d="m -210,328.32589 27.34001,86.40599 90.625516,-0.69902 -73.728456,52.70282 28.66963,85.97397 -72.9067,-53.83386 -72.90671,53.83386 28.66964,-85.97397 -73.72845,-52.70282 90.62551,0.69902 z"
         inkscape:transform-center-y="-5.719672"
         transform="matrix(0.48289977,0,0,0.48289977,-246.59105,3366.0696)" />
    </g>
    <path
       style="opacity:0.72123892;color:#000000;fill:#333333;fill-opacity:0.72156863;fill-rule:nonzero;stroke:none;stroke-width:5;marker:none;visibility:visible;display:inline;overflow:visible;enable-background:accumulate"
       d="m 126.8125,14.21875 c -45.28735,0 -82,36.7127 -82,82 l 0,328 c 0,45.2874 36.71265,82 82,82 l 328,0 c 45.28735,0 82,-36.7126 82,-82 l 0,-328 c 0,-45.2873 -36.71265,-82 -82,-82 l -328,0 z"
       transform="translate(-143.6649,3475.6413)"
       id="path3887"
       inkscape:connector-curvature="0" />
    <text
       sodipodi:linespacing="125%"
       id="text3907"
       y="3544.2144"
       x="470"
       style="font-size:40px;font-style:normal;font-variant:normal;font-weight:normal;font-stretch:normal;line-height:125%;letter-spacing:0px;word-spacing:0px;fill:#000000;fill-opacity:1;stroke:none;font-family:Roboto;-inkscape-font-specification:Roboto"
       xml:space="preserve"><tspan
         y="3544.2144"
         x="470"
         id="tspan3909"
         sodipodi:role="line">Union</tspan></text>
    <path
       style="color:#000000;fill:url(#linearGradient3990);fill-opacity:1;fill-rule:nonzero;stroke:none;stroke-width:5;marker:none;visibility:visible;display:inline;overflow:visible;enable-background:accumulate"
       d="m -864.0711,4114.8953 c -47.91,0 -86.75,38.8394 -86.75,86.75 l 0,173.5 0,173.5 c 0,44.7317 33.8589,81.5603 77.3437,86.25 l 365.8125,0 c 40.3981,-4.3532 72.4871,-36.4461 76.8438,-76.8437 l 0,-365.8438 c -4.7002,-43.4743 -41.5269,-77.3125 -86.25,-77.3125 l -347,0 z"
       id="rect3924"
       inkscape:connector-curvature="0" />
    <path
       style="opacity:0.2964602;fill:#333333;stroke:#000000;stroke-width:1px;stroke-linecap:butt;stroke-linejoin:miter;stroke-opacity:1"
       d="m -690.8211,4242.3016 2.1562,122.3437 -141.5625,-21.0625 102.3125,102.3125 -49.0625,61.5938 127.4063,127.4062 141.9062,0 c 40.3981,-4.3532 72.4871,-36.4461 76.8438,-76.8437 l 0,-93.875 -120.5938,-120.5938 -139.4062,-101.2812 z"
       id="path3927"
       inkscape:connector-curvature="0" />
    <path
       inkscape:transform-center-y="-13.997732"
       transform="matrix(0.63538888,0,0,0.63538888,-275.2678,6155.272)"
       d="m -653.99999,-3010.7033 50.85148,160.7122 168.56037,-1.3001 -137.13242,98.0254 53.32454,159.9087 L -654,-2693.4863 l -135.60399,100.1292 53.32455,-159.9087 -137.13241,-98.0254 168.56036,1.3001 z"
       inkscape:randomized="0"
       inkscape:rounded="0"
       inkscape:flatsided="false"
       sodipodi:arg2="-0.9424778"
       sodipodi:arg1="-1.5707963"
       sodipodi:r2="86.513725"
       sodipodi:r1="230.70328"
       sodipodi:cy="-2780"
       sodipodi:cx="-654"
       sodipodi:sides="5"
       id="path3929"
       style="color:#000000;fill:url(#linearGradient3988);fill-opacity:1;fill-rule:nonzero;stroke:none;stroke-width:5;marker:none;visibility:visible;display:inline;overflow:visible;enable-background:accumulate"
       sodipodi:type="star" />
  </g>
</svg>
