<?xml version="1.0" encoding="UTF-8" standalone="no"?>
<!-- Created with Inkscape (http://www.inkscape.org/) -->

<svg
   xmlns:dc="http://purl.org/dc/elements/1.1/"
   xmlns:cc="http://creativecommons.org/ns#"
   xmlns:rdf="http://www.w3.org/1999/02/22-rdf-syntax-ns#"
   xmlns:svg="http://www.w3.org/2000/svg"
   xmlns="http://www.w3.org/2000/svg"
   xmlns:inkscape="http://www.inkscape.org/namespaces/inkscape"
   version="1.1"
   width="744.09448"
   height="1052.3622"
   viewBox="0 0 744.09449 1052.3622"
   id="svg2">
  <defs
     id="defs4">
    <inkscape:path-effect
       id="path-effect5843" />
    <inkscape:path-effect
       effect="spiro"
       id="path-effect5841" />
    <inkscape:path-effect
       id="path-effect5838" />
    <inkscape:path-effect
       effect="spiro"
       id="path-effect5836" />
    <inkscape:path-effect
       id="path-effect5712" />
    <inkscape:path-effect
       effect="spiro"
       id="path-effect5710" />
    <inkscape:path-effect
       id="path-effect5702" />
    <inkscape:path-effect
       effect="spiro"
       id="path-effect5700" />
    <inkscape:path-effect
       id="path-effect5662" />
    <inkscape:path-effect
       effect="spiro"
       id="path-effect5660" />
    <inkscape:path-effect
       id="path-effect4191" />
    <inkscape:path-effect
       effect="spiro"
       id="path-effect4189" />
  </defs>
  <metadata
     id="metadata7">
    <rdf:RDF>
      <cc:Work
         rdf:about="">
        <dc:format>image/svg+xml</dc:format>
        <dc:type
           rdf:resource="http://purl.org/dc/dcmitype/StillImage" />
        <dc:title></dc:title>
      </cc:Work>
    </rdf:RDF>
  </metadata>
  <g
     id="layer1">
    <rect
       width="1633.4222"
       height="763.87396"
       x="-984.47089"
       y="34.217323"
       id="rect5862"
       style="fill:#afc6e9;fill-opacity:1;stroke:none" />
    <path
       d="m -167.75977,93.769531 c -3.61567,0 -6.30592,0.972447 -9.40234,2.070313 -3.09641,1.097865 -6.34747,2.470241 -9.52344,3.828125 -6.35192,2.715771 -13.52254,5.236071 -13.78515,5.263671 -0.26255,0.0276 -7.80067,-0.94539 -14.57813,-2.28125 -3.38873,-0.66793 -6.85636,-1.33549 -10.11328,-1.76562 -3.25692,-0.43014 -6.08833,-0.82208 -9.625,-0.0703 -3.53662,0.75173 -5.96723,2.2609 -8.76758,3.97852 -2.80034,1.71762 -5.69356,3.7381 -8.51758,5.72656 -5.64803,3.97692 -12.13946,7.93207 -12.39062,8.01367 -0.25181,0.0818 -7.82538,0.69781 -14.73242,0.80078 -3.45353,0.0515 -6.98467,0.11837 -10.25977,0.375 -3.2751,0.25664 -6.12694,0.46312 -9.42969,1.9336 -3.30254,1.47039 -5.36389,3.45087 -7.74609,5.71289 -2.3822,2.26201 -4.79538,4.84118 -7.14453,7.37305 -4.6983,5.06373 -10.22345,10.27951 -10.45313,10.4121 -0.2295,0.13251 -7.51139,2.31069 -14.24609,3.84766 -3.36735,0.76849 -6.80493,1.56797 -9.95508,2.5 -3.15014,0.93203 -5.89751,1.72661 -8.82226,3.85156 -2.92491,2.12507 -4.53091,4.49316 -6.39063,7.20118 -1.85972,2.70801 -3.68189,5.73023 -5.45312,8.69531 -3.54246,5.93015 -7.86197,12.18233 -8.0586,12.35937 -0.19645,0.17689 -6.86664,3.81953 -13.13476,6.72266 -3.13406,1.45156 -6.33111,2.94918 -9.21875,4.51562 -2.88765,1.56645 -5.41083,2.91667 -7.83008,5.60352 -2.41928,2.68689 -3.49588,5.33545 -4.75195,8.37109 -1.25607,3.03565 -2.41127,6.37188 -3.52735,9.64063 -2.23216,6.5375 -5.15911,13.55181 -5.31445,13.76562 -0.15546,0.21397 -5.92165,5.16355 -11.44922,9.30664 -2.76379,2.07155 -5.57928,4.20134 -8.07812,6.33399 -2.49885,2.13265 -4.68643,3.97634 -6.49414,7.10742 -1.80766,3.13094 -2.31065,5.94548 -2.90821,9.17578 -0.59756,3.23031 -1.03313,6.73488 -1.44531,10.16406 -0.82436,6.85838 -2.22824,14.32646 -2.33594,14.56836 -0.10759,0.24166 -4.71837,6.28274 -9.26367,11.48438 -2.27265,2.60082 -4.58512,5.26946 -6.58594,7.875 -2.00081,2.60554 -3.75582,4.86231 -4.87304,8.30078 -1.1172,3.43839 -1.02462,6.29803 -0.9375,9.58203 0.0871,3.28401 0.38942,6.80022 0.69921,10.24024 0.6196,6.88003 0.79918,14.47934 0.74414,14.73828 -0.0551,0.25932 -3.30973,7.12702 -6.67382,13.16015 -1.68205,3.01657 -3.38755,6.10571 -4.80274,9.07032 -1.41519,2.96461 -2.66313,5.53944 -3.04101,9.13476 -0.3779,3.59545 0.30625,6.37039 1.07422,9.56445 0.76796,3.19407 1.7943,6.5727 2.8125,9.87305 2.0364,6.60071 3.79296,13.99491 3.79296,14.25977 0,0.16493 -0.57157,3.52582 -1.625,7.14648 -0.65494,2.25104 -1.47798,4.90954 -2.26757,7.47266 l -10.45899,1.73242 a 7.50075,7.50075 0 0 0 -5.93164,9.64453 l 28.56641,91.01758 -28.625,100.68555 a 7.50075,7.50075 0 0 0 8.43945,9.44921 l 83.57227,-13.83984 c 0.51699,0.80209 0.96475,1.60334 1.68945,2.4082 2.41925,2.68685 4.94243,4.03707 7.83008,5.60352 2.88764,1.56645 6.08469,3.06406 9.21875,4.51562 6.26812,2.90313 12.93832,6.54578 13.13476,6.72266 0.19662,0.17703 4.51613,6.42922 8.0586,12.35938 1.77123,2.96507 3.5934,5.9873 5.45312,8.69531 1.85972,2.70801 3.46572,5.0761 6.39063,7.20117 2.92475,2.12495 5.67212,2.91953 8.82226,3.85156 3.15015,0.93203 6.58774,1.73152 9.95508,2.5 6.73469,1.53697 14.01659,3.71515 14.24609,3.84766 0.22966,0.13259 5.75483,5.34837 10.45313,10.41211 2.34915,2.53187 4.76233,5.11104 7.14453,7.37304 2.3822,2.26203 4.44354,4.24251 7.74609,5.7129 3.30273,1.47045 6.1546,1.67695 9.42969,1.93359 3.27509,0.25664 6.80624,0.32351 10.25977,0.375 6.90704,0.10299 14.48058,0.71895 14.73242,0.80078 0.25116,0.0816 6.74259,4.03676 12.39062,8.01367 2.82402,1.98846 5.71724,4.00895 8.51758,5.72656 2.80035,1.71763 5.23096,3.22679 8.76758,3.97852 3.53667,0.75175 6.36808,0.35981 9.625,-0.0703 3.25692,-0.43013 6.72455,-1.0977 10.11328,-1.76563 6.77746,-1.33586 14.31556,-2.30884 14.57813,-2.28125 0.26261,0.0276 7.43322,2.54791 13.78515,5.26367 3.17597,1.35789 6.42702,2.73026 9.52344,3.82813 3.09642,1.09787 5.78667,2.07031 9.40234,2.07031 3.61567,0 6.30593,-0.97244 9.40235,-2.07031 3.09641,-1.09787 6.34747,-2.47023 9.52344,-3.82813 6.35193,-2.71576 13.52253,-5.23606 13.78515,-5.26367 0.26256,-0.0276 7.80067,0.94539 14.57813,2.28125 3.38873,0.66793 6.85636,1.3355 10.11328,1.76563 3.25692,0.43013 6.08833,0.82207 9.625,0.0703 3.536619,-0.75173 5.967228,-2.2609 8.767576,-3.97852 2.800349,-1.71761 5.693562,-3.7381 8.517578,-5.72656 5.648034,-3.97691 12.139467,-7.93206 12.390625,-8.01367 0.25183,-0.0818 7.825375,-0.6978 14.732422,-0.80078 3.453524,-0.0515 6.98467,-0.11836 10.259766,-0.375 3.275095,-0.25664 6.126948,-0.46312 9.429687,-1.93359 3.302546,-1.47039 5.363899,-3.45087 7.746094,-5.7129 2.382195,-2.26201 4.795384,-4.84118 7.144531,-7.37304 4.698295,-5.06373 10.223467,-10.27952 10.453125,-10.41211 0.229511,-0.13251 7.5113993,-2.31069 14.2460941,-3.84766 3.3673475,-0.76848 6.8049344,-1.56797 9.9550779,-2.5 3.150144,-0.93203 5.897515,-1.7266 8.822266,-3.85156 2.924913,-2.12507 4.530905,-4.49316 6.390625,-7.20117 1.85972,-2.70801 3.681895,-5.73024 5.453125,-8.69531 3.54246,-5.93016 7.861985,-12.18235 8.058594,-12.35938 0.196446,-0.17688 6.866648,-3.81953 13.134765,-6.72266 3.134059,-1.45156 6.331107,-2.94918 9.21875,-4.51562 2.887644,-1.56645 5.410831,-2.91667 7.830078,-5.60352 2.419281,-2.68688 3.495886,-5.33544 4.751953,-8.37109 1.256069,-3.03565 2.411266,-6.37189 3.527344,-9.64062 2.232156,-6.53751 5.159105,-13.55181 5.314453,-13.76563 0.155461,-0.21397 5.921646,-5.16355 11.449219,-9.30664 2.763787,-2.07155 5.579282,-4.20132 8.078122,-6.33399 2.49885,-2.13265 4.68642,-3.97634 6.49414,-7.10742 1.80766,-3.13094 2.31065,-5.94547 2.90821,-9.17578 0.59756,-3.23031 1.03313,-6.73487 1.44531,-10.16406 0.82436,-6.85837 2.22824,-14.32647 2.33594,-14.56836 0.10758,-0.24164 4.71836,-6.28273 9.26367,-11.48438 2.27265,-2.60081 4.58512,-5.26945 6.58594,-7.875 2.00081,-2.60553 3.75581,-4.8623 4.87304,-8.30078 1.1172,-3.43838 1.02462,-6.29802 0.9375,-9.58203 -0.0871,-3.284 -0.38942,-6.80021 -0.69922,-10.24023 -0.61959,-6.88004 -0.79917,-14.47936 -0.74414,-14.73828 0.0551,-0.25932 3.30974,-7.12702 6.67383,-13.16016 1.68205,-3.01657 3.38755,-6.1057 4.80274,-9.07031 1.41518,-2.96461 2.66313,-5.53944 3.04101,-9.13477 0.37789,-3.59545 -0.30625,-6.37038 -1.07422,-9.56445 -0.76796,-3.19407 -1.7943,-6.5727 -2.8125,-9.87305 -2.0364,-6.6007 -3.79297,-13.99491 -3.79297,-14.25976 0,-0.16494 0.57157,-3.52583 1.625,-7.14649 0.65495,-2.25104 1.47799,-4.90954 2.26758,-7.47265 l 10.45899,-1.73243 a 7.50075,7.50075 0 0 0 5.93164,-9.64453 l -28.56641,-91.01758 28.625,-100.68554 a 7.50075,7.50075 0 0 0 -8.43945,-9.44922 L 73.507812,202.8457 c -0.516994,-0.80209 -0.964736,-1.60332 -1.689453,-2.4082 -2.419245,-2.68684 -4.942435,-4.03707 -7.830078,-5.60352 -2.887643,-1.56644 -6.084691,-3.06406 -9.21875,-4.51562 -6.268118,-2.90313 -12.938314,-6.54577 -13.134765,-6.72266 -0.196622,-0.17704 -4.516133,-6.42922 -8.058594,-12.35937 -1.771231,-2.96508 -3.593405,-5.9873 -5.453125,-8.69531 -1.859721,-2.70802 -3.465713,-5.0761 -6.390625,-7.20118 -2.924752,-2.12496 -5.67212,-2.91953 -8.822266,-3.85156 -3.1501451,-0.93203 -6.5877302,-1.73151 -9.9550779,-2.5 -6.7346954,-1.53697 -14.0165811,-3.71514 -14.2460941,-3.84766 -0.22967,-0.13259 -5.754829,-5.34837 -10.453125,-10.4121 -2.349147,-2.53187 -4.762336,-5.11104 -7.144531,-7.37305 -2.382195,-2.26202 -4.443548,-4.2425 -7.746094,-5.71289 -3.302731,-1.47045 -6.154596,-1.67696 -9.429687,-1.9336 -3.275092,-0.25663 -6.806244,-0.3235 -10.259766,-0.375 -6.907043,-0.10298 -14.480594,-0.71895 -14.732422,-0.80078 -0.251158,-0.0816 -6.742591,-4.03675 -12.390625,-8.01367 -2.824016,-1.98846 -5.717231,-4.00894 -8.517578,-5.72656 -2.800347,-1.71762 -5.230964,-3.22678 -8.767576,-3.97852 -3.53667,-0.75174 -6.36808,-0.35979 -9.625,0.0703 -3.25692,0.43013 -6.72455,1.09769 -10.11328,1.76562 -6.77746,1.33586 -14.31556,2.30885 -14.57813,2.28125 -0.26262,-0.0276 -7.43322,-2.5479 -13.78515,-5.263671 -3.17597,-1.357884 -6.42703,-2.73026 -9.52344,-3.828125 -3.09642,-1.097866 -5.78668,-2.070313 -9.40235,-2.070313 z"
       id="path5859"
       style="font-size:medium;font-style:normal;font-variant:normal;font-weight:normal;font-stretch:normal;text-indent:0;text-align:start;text-decoration:none;line-height:normal;letter-spacing:normal;word-spacing:normal;text-transform:none;direction:ltr;block-progression:tb;writing-mode:lr-tb;text-anchor:start;baseline-shift:baseline;color:#000000;fill:#ffffff;fill-opacity:1;fill-rule:nonzero;stroke:none;visibility:visible;display:inline;overflow:visible;enable-background:accumulate;font-family:sans-serif" />
    <g
       id="g5798">
      <path
         d="m 104.93788,573.59637 c -3.38079,5.8557 -21.619085,16.6194 -25.593445,22.08964 -3.97436,5.47025 -8.57531,26.14206 -13.09969,31.1669 -4.52439,5.02484 -24.60203,11.76137 -29.62687,16.28576 -5.02484,4.52438 -13.82316,23.78788 -19.2934,27.76224 -5.470237,3.97436 -26.509736,6.38931 -32.365444,9.77011 -5.855708,3.38079 -18.466866,20.39406 -24.643885,23.14425 -6.177019,2.75018 -27.258851,0.738 -33.689504,2.82744 -6.430654,2.08945 -22.303485,16.10893 -28.917322,17.51474 -6.61383,1.40582 -26.81661,-4.94555 -33.54116,-4.23877 -6.72455,0.70677 -25.16534,11.11975 -31.92693,11.11975 -6.76159,0 -25.20237,-10.41298 -31.92691,-11.11975 -6.72456,-0.70678 -26.92735,5.64459 -33.54118,4.23877 -6.61383,-1.40581 -22.48665,-15.42529 -28.91731,-17.51474 -6.43065,-2.08944 -27.51249,-0.0773 -33.6895,-2.82745 -6.17703,-2.75018 -18.78819,-19.76345 -24.64389,-23.14424 -5.85571,-3.3808 -26.89521,-5.79575 -32.36546,-9.77011 -5.47023,-3.97436 -14.26855,-23.23786 -19.29338,-27.76224 -5.02484,-4.52439 -25.10249,-11.26092 -29.62687,-16.28576 -4.52439,-5.02484 -9.12534,-25.69665 -13.09969,-31.1669 -3.97436,-5.47024 -22.21266,-16.23394 -25.59346,-22.08965 -3.3808,-5.8557 -3.58328,-27.03238 -6.33346,-33.2094 -2.75019,-6.17702 -18.35204,-20.49746 -20.44149,-26.92811 -2.08945,-6.43066 2.11537,-27.18667 0.70955,-33.8005 -1.4058,-6.61383 -13.68933,-23.86515 -14.39611,-30.5897 -0.70678,-6.72454 7.72157,-26.15276 7.72157,-32.91435 0,-6.76159 -8.42834,-26.1898 -7.72157,-32.91435 0.70678,-6.72455 12.9903,-23.97586 14.39611,-30.58969 1.40582,-6.61384 -2.79899,-27.36985 -0.70955,-33.8005 2.08945,-6.43066 17.69129,-20.7511 20.44149,-26.92812 2.75018,-6.17702 2.95267,-27.35369 6.33346,-33.2094 3.38079,-5.85571 21.6191,-16.61941 25.59346,-22.08965 3.97435,-5.47024 8.57531,-26.14205 13.09969,-31.16689 4.52438,-5.02484 24.60203,-11.76138 29.62687,-16.28576 5.02483,-4.52439 13.82315,-23.78788 19.2934,-27.76225 5.47024,-3.97436 26.50974,-6.38931 32.36544,-9.7701 5.85571,-3.3808 18.46687,-20.39406 24.64389,-23.14425 6.17702,-2.75019 27.25885,-0.738 33.6895,-2.82745 6.43066,-2.08945 22.30349,-16.10893 28.91732,-17.51474 6.61383,-1.40581 26.81662,4.94556 33.54117,4.23878 6.72455,-0.70678 25.16533,-11.11975 31.92692,-11.11975 6.76159,0 25.20237,10.41297 31.92692,11.11975 6.72455,0.70678 26.92734,-5.64459 33.54117,-4.23878 6.613829,1.40582 22.486658,15.42529 28.917311,17.51474 6.430654,2.08945 27.512488,0.0773 33.689507,2.82745 6.177019,2.75019 18.788175,19.76345 24.643883,23.14425 5.855708,3.38079 26.895209,5.79574 32.365454,9.77011 5.47024,3.97436 14.26855,23.23785 19.29339,27.76224 5.02484,4.52438 25.10248,11.26092 29.62687,16.28576 4.52439,5.02484 9.12533,25.69665 13.09969,31.16689 3.97436,5.47024 22.212665,16.23394 25.593455,22.08965 3.3808,5.85571 3.58329,27.03238 6.33347,33.2094 2.75019,6.17702 18.35203,20.49746 20.44148,26.92812 2.08945,6.43065 -2.11537,27.18666 -0.70955,33.8005 1.40581,6.61383 13.68933,23.86514 14.39611,30.58969 0.70678,6.72455 -7.72157,26.15276 -7.72157,32.91435 0,6.76159 8.42834,26.18981 7.72157,32.91436 -0.70678,6.72455 -12.9903,23.97586 -14.39611,30.58969 -1.40582,6.61383 2.79899,27.36985 0.70955,33.8005 -2.08945,6.43065 -17.69129,20.75109 -20.44148,26.92811 -2.75018,6.17702 -2.95267,27.3537 -6.33347,33.20941 z"
         id="path5747"
         style="fill:#ff8080;fill-opacity:1;stroke:none" />
      <path
         d="m -167.75977,236.1543 a 180,180 0 0 0 -180,180 180,180 0 0 0 180,180 180,180 0 0 0 180.000004,-180 180,180 0 0 0 -180.000004,-180 z m 0,43 a 137,137 0 0 1 137.000004,137 137,137 0 0 1 -137.000004,137 137,137 0 0 1 -137,-137 137,137 0 0 1 137,-137 z"
         id="path5750"
         style="fill:#decd87;fill-opacity:1;stroke:none" />
      <path
         d="m -169.79297,230.17773 c -63.64881,0.43708 -125.8281,36.0067 -157.85638,91.12675 -29.10318,48.60347 -34.18215,110.64859 -13.01449,163.23576 23.03851,59.0826 78.12903,104.37699 140.79379,114.74943 57.79859,10.2646 120.001371,-8.51573 161.777428,-49.92917 C 1.8004919,510.72797 23.018617,453.73245 17.323926,398.40904 11.779307,338.33239 -24.86402,282.08501 -78.010897,253.34996 -105.96754,237.98027 -137.90015,229.97682 -169.79297,230.17773 z m 1.38672,54.98829 c 56.72048,-1.09211 111.40401,39.5252 126.425781,94.41796 14.184089,47.92989 -1.79718,103.90727 -40.645439,136.08239 -36.719022,31.48736 -90.922322,40.57915 -135.000902,21.56961 -43.05606,-17.60997 -75.63516,-59.62514 -80.27358,-106.30239 -5.42006,-47.72321 16.89996,-97.40216 57.33984,-123.5664 21.24538,-14.07788 46.59249,-22.02009 72.1543,-22.20117 z"
         id="path5755"
         style="fill:none;stroke:#bbbbbb;stroke-width:1;stroke-miterlimit:4;stroke-opacity:1;stroke-dasharray:3, 3;stroke-dashoffset:0" />
      <circle
         cx="-167.75977"
         cy="416.1543"
         r="123.5"
         id="path5763"
         style="fill:#6c5353;fill-opacity:1;stroke:none" />
      <path
         d="m -167.75977,315.6543 a 100.5,100.5 0 0 0 -13.5,1.02734 l 0,198.94727 a 100.5,100.5 0 0 0 13.5,1.02539 100.5,100.5 0 0 0 13.5,-1.02735 l 0,-198.94726 a 100.5,100.5 0 0 0 -13.5,-1.02539 z m 30,4.59765 0,191.70508 a 100.5,100.5 0 0 0 27,-13.16406 l 0,-165.39063 a 100.5,100.5 0 0 0 -27,-13.15039 z m -60,0.0996 a 100.5,100.5 0 0 0 -27,13.16406 l 0,165.39063 a 100.5,100.5 0 0 0 27,13.15039 l 0,-191.70508 z m 103.500004,27.38282 0,136.77734 a 100.5,100.5 0 0 0 27,-68.35742 100.5,100.5 0 0 0 -27,-68.41992 z m -147.000004,0.0625 a 100.5,100.5 0 0 0 -27,68.35742 100.5,100.5 0 0 0 27,68.41992 l 0,-136.77734 z"
         id="rect5769"
         style="opacity:0.14100001;fill:#ffffff;fill-opacity:1;stroke:none" />
      <path
         d="m -12.240234,223.19536 -3.802735,2.77822 -4.572265,3.33729 0,64.22461 -422.644536,69.99477 0,68 -50.56445,8.37405 29.23828,93.15781 -29.23828,102.84219 168.12695,-27.84374 2.41797,1.05267 8.375,-6.1155 0,-64.72461 422.64453,-69.99477 0,-67.5 50.56446,-8.37405 -29.23828,-93.15781 29.23828,-102.84219 -168.1269556,27.84375 -2.4179684,-1.05269 z"
         id="path5737"
         style="font-size:medium;font-style:normal;font-variant:normal;font-weight:normal;font-stretch:normal;text-indent:0;text-align:start;text-decoration:none;line-height:normal;letter-spacing:normal;word-spacing:normal;text-transform:none;direction:ltr;block-progression:tb;writing-mode:lr-tb;text-anchor:start;baseline-shift:baseline;color:#000000;fill:#decd87;fill-opacity:1;fill-rule:nonzero;stroke:none;visibility:visible;display:inline;overflow:visible;enable-background:accumulate;font-family:sans-serif" />
      <path
         d="m -12.240234,223.19536 -3.802735,2.77822 -4.572265,3.33729 0,64.22461 -422.644536,69.99477 0,68 -50.56445,8.37405 29.23828,93.15781 -29.23828,102.84219 168.12695,-27.84374 2.41797,1.05267 8.375,-6.1155 0,-64.72461 422.64453,-69.99477 0,-67.5 50.56446,-8.37405 -29.23828,-93.15781 29.23828,-102.84219 -168.1269556,27.84375 -2.4179684,-1.05269 z m -0.519532,9.03917 160.999996,-26.66344 -27,94.97151 27,86.02849 -48,7.94935 0,67.5 -423,70.05363 0,68 -161,26.66344 27,-94.97151 -27,-86.02849 48,-7.94935 0,-68 423.000004,-70.05363 0,-67.5 z m 0.853516,1.11646 -0.04492,32.98791 c -0.0241,18.14285 -0.01657,33.00765 0.01563,33.03452 0.03219,0.0269 24.749865,-4.05926 54.927735,-9.08106 l 54.86914,-9.13186 -54.884766,-23.9046 -54.882812,-23.90491 z m -366.60547,308.66522 -54.86914,9.13186 54.88477,23.90459 54.88281,23.90492 0.0449,-32.98789 c 0.0241,-18.14285 0.0166,-33.00766 -0.0156,-33.03453 -0.0322,-0.0269 -24.74987,4.05926 -54.92774,9.08106 z"
         id="path5723"
         style="font-size:medium;font-style:normal;font-variant:normal;font-weight:normal;font-stretch:normal;text-indent:0;text-align:start;text-decoration:none;line-height:normal;letter-spacing:normal;word-spacing:normal;text-transform:none;direction:ltr;block-progression:tb;writing-mode:lr-tb;text-anchor:start;baseline-shift:baseline;color:#000000;fill:#ff8080;fill-opacity:1;fill-rule:nonzero;stroke:none;visibility:visible;display:inline;overflow:visible;enable-background:accumulate;font-family:sans-serif" />
      <path
         d="m -338.91016,393.70579 c -15.91151,2.63513 -31.82422,16.10199 -31.82422,30.14155 0,19.92281 28.88086,20.62247 28.88086,45.75997 0,9.89455 -4.14393,19.80542 -14.70703,21.55479 -6.28437,1.04076 -13.23828,-1.68495 -13.23828,-10.64353 0,-9.226 4.81401,-14.56832 15.64453,-17.29794 -1.06968,-4.63642 -4.81311,-6.02321 -10.83008,-5.02673 -10.29566,1.70508 -19.65624,9.94046 -19.65624,22.50921 0,19.25425 18.85397,18.40491 29.55078,16.63339 21.52733,-3.56517 35.43359,-18.03461 35.43359,-36.88774 0,-29.81736 -30.08594,-26.03861 -30.08594,-47.03109 0,-7.35406 5.08149,-12.47437 12.43555,-13.69229 7.08663,-1.17363 9.76172,2.66249 9.76172,7.34234 0,4.41244 -2.40741,9.75738 -6.01758,12.49463 1.73823,1.71778 3.87821,2.16631 6.01758,1.81201 6.95292,-1.15148 11.09765,-7.72033 11.09765,-15.34181 0,-14.97553 -15.37626,-13.50038 -22.46289,-12.32676 z m 115.01954,-13.96652 c -5.88325,0.97434 -10.56446,6.56362 -10.56446,12.44686 0,5.88325 4.68121,9.78725 10.56446,8.8129 5.88325,-0.97433 10.69531,-6.4505 10.69531,-12.33376 0,-5.88324 -4.81207,-9.90033 -10.69531,-8.926 z m 49.00781,-6.51273 -19.78907,5.95307 -14.84179,71.98726 c -0.22162,1.08938 -0.38584,2.11087 -0.51563,3.09322 -3.83221,3.89433 -7.8262,7.5129 -11.1875,8.06957 -5.34841,0.88575 -6.68554,-1.03126 -6.68554,-3.97288 0,-1.20339 0.26773,-2.71806 0.53515,-4.23316 l 9.62696,-47.05722 -19.25391,3.18866 -9.62695,47.05723 c -0.46765,2.29879 -0.7186,4.34369 -0.77735,6.16585 -2.58031,2.28267 -5.11609,4.03478 -7.36718,4.40758 -5.34841,0.88576 -6.68555,-1.03125 -6.68555,-3.97287 0,-1.20339 0.26773,-2.71806 0.53515,-4.23316 l 9.62696,-47.05722 -19.25391,3.18866 -0.80273,3.60951 c -2.40678,-1.60706 -5.74995,-2.38954 -8.95899,-1.85808 -26.74203,4.42878 -35.03125,33.3464 -35.03125,56.34454 0,7.8889 3.74391,16.36044 16.58008,14.23462 8.15632,-1.35078 14.17228,-7.82983 18.18359,-13.97626 1.73823,6.66505 7.62134,8.89993 16.3125,7.46057 5.21747,-0.86407 11.60663,-6.37188 17.45899,-12.55937 1.83483,6.30869 7.65791,8.39973 16.08984,7.0033 6.14227,-1.01723 13.89925,-8.47057 20.50196,-15.89144 0.83074,8.43708 6.92012,11.35003 16.47265,9.76803 6.02671,-0.9981 13.61041,-8.19232 20.13086,-15.47257 1.31663,9.16946 9.73749,10.92837 21.875,8.91827 23.93411,-3.96377 35.43359,-35.41869 35.43359,-56.41118 0,-7.88889 -4.14428,-16.29609 -16.98046,-14.17027 -4.41243,0.73075 -8.42466,3.00106 -11.5,5.78344 l 6.41796,-31.4164 -19.78906,5.95308 -14.84179,71.98726 c -0.26513,1.23695 -0.46396,2.42933 -0.59766,3.54624 -3.66799,3.68461 -7.4482,7.01085 -10.6543,7.54182 -5.2147,0.86361 -6.68554,-0.89844 -6.68554,-3.84006 0,-1.06968 0.26683,-2.31589 0.66796,-4.38797 l 15.37696,-74.75167 z m 220.527341,-30.90467 -19.789062,5.95112 -4.009766,19.11524 -4.414062,0.73102 -1.06836,5.52654 4.41211,-0.7307 -8.556641,41.53036 c -0.359942,1.67935 -0.589327,3.32891 -0.707031,4.88662 -3.1476092,3.00986 -6.3057193,5.49938 -9.042969,5.9527 -5.3484046,0.88576 -6.6855469,-1.03125 -6.6855469,-3.97287 0,-1.20339 0.2677361,-2.71806 0.5351563,-4.23316 l 9.6269531,-47.05723 -19.2539065,3.18867 -0.802734,3.6095 c -2.406782,-1.60706 -5.747988,-2.38985 -8.957031,-1.8584 -13.535865,2.24169 -22.339504,10.76103 -27.738282,21.60745 -2.038232,1.65156 -4.250266,3.07694 -7.271484,3.57729 -1.871942,0.31001 -3.074692,0.10833 -3.876953,-0.56106 -0.26742,-9.71655 -3.477228,-19.07844 -16.179688,-16.97476 -18.451996,3.05586 -35.166014,19.99761 -35.166014,52.8903 0,15.9115 6.152,20.9089 20.458983,18.5395 13.371012,-2.21439 27.943883,-17.86539 30.484375,-45.16185 2.969251,-1.31084 5.819934,-2.93782 8.441406,-4.77495 -2.974192,8.80493 -4.185546,18.43339 -4.185546,27.20295 0,7.8889 3.743907,16.36043 16.580078,14.23462 8.156317,-1.35078 14.174243,-7.83016 18.185546,-13.97659 1.738232,6.66505 7.621344,8.89993 16.3125005,7.46058 5.6010766,-0.9276 12.5443462,-7.21166 18.7324215,-13.93825 1.05879,6.22759 5.138731,9.98491 13.078125,8.67006 4.546144,-0.7529 10.427992,-2.52871 14.171875,-14.64781 -1.069681,0.57829 -2.538638,0.82082 -3.474609,0.97583 -3.610173,0.59788 -4.681641,-1.22926 -4.681641,-4.03717 0,-1.47081 0.268791,-3.11968 0.669922,-4.79064 l 8.556641,-41.53035 8.023437,-1.32878 1.06836,-5.52654 -8.021485,1.32845 c 2.540492,-12.45464 4.544922,-21.87769 4.544922,-21.87769 z m -123.24414,48.08838 c 3.743883,-0.62003 5.214104,1.67717 5.615234,6.02317 -3.610173,1.93499 -5.882813,6.45604 -5.882813,10.33364 0,3.20904 1.737641,5.72981 5.615235,5.08764 -1.604522,13.23559 -6.150325,26.82324 -14.306641,28.17402 -5.214695,0.86361 -8.958984,-0.6558 -8.958984,-8.6784 0,-10.69681 5.349218,-38.85854 17.917969,-40.94007 z m -201.634771,34.46333 c 1.87194,-0.31001 4.41143,-0.19627 6.55079,1.32137 l -7.48633,36.67341 c -0.40113,1.67095 -0.66903,3.18581 -0.80274,4.54505 -2.5405,4.16462 -5.48326,7.59364 -8.55859,8.10295 -3.34275,0.5536 -7.75391,-0.18739 -7.75391,-8.21 0,-18.18458 8.02252,-40.77198 18.05078,-42.43278 z M -22,382.27263 c 1.871942,-0.31002 4.413372,-0.1966 6.552734,1.32104 l -7.488281,36.67373 c -0.40113,1.67096 -0.669024,3.18581 -0.802734,4.54506 -2.540492,4.16461 -5.481308,7.59331 -8.556641,8.10262 -3.342752,0.5536 -7.755859,-0.18707 -7.755859,-8.20968 0,-18.18458 8.022523,-40.77198 18.050781,-42.43277 z m -116.89258,19.49155 c 3.34275,-0.55359 7.6211,0.60979 7.6211,8.63239 0,9.62713 -6.68616,41.22059 -17.6504,43.03639 -4.0113,0.66432 -5.88281,0.0383 -5.88281,-3.973 0,-1.73823 0.40177,-4.21102 1.07031,-7.53077 l 7.6211,-37.09807 c 1.20339,-1.13527 5.8836,-2.8455 7.2207,-3.06694 z"
         id="path5796"
         style="font-size:medium;font-style:normal;font-variant:normal;font-weight:normal;font-stretch:normal;line-height:125%;letter-spacing:0px;word-spacing:0px;fill:#000080;fill-opacity:1;stroke:#ffffff;stroke-width:15;stroke-linecap:butt;stroke-linejoin:round;stroke-miterlimit:4;stroke-opacity:1;stroke-dasharray:none;font-family:'Lobster 1.3';-inkscape-font-specification:'Lobster 1.3, '" />
      <path
         d="m -338.91016,393.70579 c -15.91151,2.63513 -31.82422,16.10199 -31.82422,30.14155 0,19.92281 28.88086,20.62247 28.88086,45.75997 0,9.89455 -4.14393,19.80542 -14.70703,21.55479 -6.28437,1.04076 -13.23828,-1.68495 -13.23828,-10.64353 0,-9.226 4.81401,-14.56832 15.64453,-17.29794 -1.06968,-4.63642 -4.81311,-6.02321 -10.83008,-5.02673 -10.29566,1.70508 -19.65624,9.94046 -19.65624,22.50921 0,19.25425 18.85397,18.40491 29.55078,16.63339 21.52733,-3.56517 35.43359,-18.03461 35.43359,-36.88774 0,-29.81736 -30.08594,-26.03861 -30.08594,-47.03109 0,-7.35406 5.08149,-12.47437 12.43555,-13.69229 7.08663,-1.17363 9.76172,2.66249 9.76172,7.34234 0,4.41244 -2.40741,9.75738 -6.01758,12.49463 1.73823,1.71778 3.87821,2.16631 6.01758,1.81201 6.95292,-1.15148 11.09765,-7.72033 11.09765,-15.34181 0,-14.97553 -15.37626,-13.50038 -22.46289,-12.32676 z m 115.01954,-13.96652 c -5.88325,0.97434 -10.56446,6.56362 -10.56446,12.44686 0,5.88325 4.68121,9.78725 10.56446,8.8129 5.88325,-0.97433 10.69531,-6.4505 10.69531,-12.33376 0,-5.88324 -4.81207,-9.90033 -10.69531,-8.926 z m 49.00781,-6.51273 -19.78907,5.95307 -14.84179,71.98726 c -0.22162,1.08938 -0.38584,2.11087 -0.51563,3.09322 -3.83221,3.89433 -7.8262,7.5129 -11.1875,8.06957 -5.34841,0.88575 -6.68554,-1.03126 -6.68554,-3.97288 0,-1.20339 0.26773,-2.71806 0.53515,-4.23316 l 9.62696,-47.05722 -19.25391,3.18866 -9.62695,47.05723 c -0.46765,2.29879 -0.7186,4.34369 -0.77735,6.16585 -2.58031,2.28267 -5.11609,4.03478 -7.36718,4.40758 -5.34841,0.88576 -6.68555,-1.03125 -6.68555,-3.97287 0,-1.20339 0.26773,-2.71806 0.53515,-4.23316 l 9.62696,-47.05722 -19.25391,3.18866 -0.80273,3.60951 c -2.40678,-1.60706 -5.74995,-2.38954 -8.95899,-1.85808 -26.74203,4.42878 -35.03125,33.3464 -35.03125,56.34454 0,7.8889 3.74391,16.36044 16.58008,14.23462 8.15632,-1.35078 14.17228,-7.82983 18.18359,-13.97626 1.73823,6.66505 7.62134,8.89993 16.3125,7.46057 5.21747,-0.86407 11.60663,-6.37188 17.45899,-12.55937 1.83483,6.30869 7.65791,8.39973 16.08984,7.0033 6.14227,-1.01723 13.89925,-8.47057 20.50196,-15.89144 0.83074,8.43708 6.92012,11.35003 16.47265,9.76803 6.02671,-0.9981 13.61041,-8.19232 20.13086,-15.47257 1.31663,9.16946 9.73749,10.92837 21.875,8.91827 23.93411,-3.96377 35.43359,-35.41869 35.43359,-56.41118 0,-7.88889 -4.14428,-16.29609 -16.98046,-14.17027 -4.41243,0.73075 -8.42466,3.00106 -11.5,5.78344 l 6.41796,-31.4164 -19.78906,5.95308 -14.84179,71.98726 c -0.26513,1.23695 -0.46396,2.42933 -0.59766,3.54624 -3.66799,3.68461 -7.4482,7.01085 -10.6543,7.54182 -5.2147,0.86361 -6.68554,-0.89844 -6.68554,-3.84006 0,-1.06968 0.26683,-2.31589 0.66796,-4.38797 l 15.37696,-74.75167 z m 220.527341,-30.90467 -19.789062,5.95112 -4.009766,19.11524 -4.414062,0.73102 -1.06836,5.52654 4.41211,-0.7307 -8.556641,41.53036 c -0.359942,1.67935 -0.589327,3.32891 -0.707031,4.88662 -3.1476092,3.00986 -6.3057193,5.49938 -9.042969,5.9527 -5.3484046,0.88576 -6.6855469,-1.03125 -6.6855469,-3.97287 0,-1.20339 0.2677361,-2.71806 0.5351563,-4.23316 l 9.6269531,-47.05723 -19.2539065,3.18867 -0.802734,3.6095 c -2.406782,-1.60706 -5.747988,-2.38985 -8.957031,-1.8584 -13.535865,2.24169 -22.339504,10.76103 -27.738282,21.60745 -2.038232,1.65156 -4.250266,3.07694 -7.271484,3.57729 -1.871942,0.31001 -3.074692,0.10833 -3.876953,-0.56106 -0.26742,-9.71655 -3.477228,-19.07844 -16.179688,-16.97476 -18.451996,3.05586 -35.166014,19.99761 -35.166014,52.8903 0,15.9115 6.152,20.9089 20.458983,18.5395 13.371012,-2.21439 27.943883,-17.86539 30.484375,-45.16185 2.969251,-1.31084 5.819934,-2.93782 8.441406,-4.77495 -2.974192,8.80493 -4.185546,18.43339 -4.185546,27.20295 0,7.8889 3.743907,16.36043 16.580078,14.23462 8.156317,-1.35078 14.174243,-7.83016 18.185546,-13.97659 1.738232,6.66505 7.621344,8.89993 16.3125005,7.46058 5.6010766,-0.9276 12.5443462,-7.21166 18.7324215,-13.93825 1.05879,6.22759 5.138731,9.98491 13.078125,8.67006 4.546144,-0.7529 10.427992,-2.52871 14.171875,-14.64781 -1.069681,0.57829 -2.538638,0.82082 -3.474609,0.97583 -3.610173,0.59788 -4.681641,-1.22926 -4.681641,-4.03717 0,-1.47081 0.268791,-3.11968 0.669922,-4.79064 l 8.556641,-41.53035 8.023437,-1.32878 1.06836,-5.52654 -8.021485,1.32845 c 2.540492,-12.45464 4.544922,-21.87769 4.544922,-21.87769 z m -123.24414,48.08838 c 3.743883,-0.62003 5.214104,1.67717 5.615234,6.02317 -3.610173,1.93499 -5.882813,6.45604 -5.882813,10.33364 0,3.20904 1.737641,5.72981 5.615235,5.08764 -1.604522,13.23559 -6.150325,26.82324 -14.306641,28.17402 -5.214695,0.86361 -8.958984,-0.6558 -8.958984,-8.6784 0,-10.69681 5.349218,-38.85854 17.917969,-40.94007 z m -201.634771,34.46333 c 1.87194,-0.31001 4.41143,-0.19627 6.55079,1.32137 l -7.48633,36.67341 c -0.40113,1.67095 -0.66903,3.18581 -0.80274,4.54505 -2.5405,4.16462 -5.48326,7.59364 -8.55859,8.10295 -3.34275,0.5536 -7.75391,-0.18739 -7.75391,-8.21 0,-18.18458 8.02252,-40.77198 18.05078,-42.43278 z M -22,382.27263 c 1.871942,-0.31002 4.413372,-0.1966 6.552734,1.32104 l -7.488281,36.67373 c -0.40113,1.67096 -0.669024,3.18581 -0.802734,4.54506 -2.540492,4.16461 -5.481308,7.59331 -8.556641,8.10262 -3.342752,0.5536 -7.755859,-0.18707 -7.755859,-8.20968 0,-18.18458 8.022523,-40.77198 18.050781,-42.43277 z m -116.89258,19.49155 c 3.34275,-0.55359 7.6211,0.60979 7.6211,8.63239 0,9.62713 -6.68616,41.22059 -17.6504,43.03639 -4.0113,0.66432 -5.88281,0.0383 -5.88281,-3.973 0,-1.73823 0.40177,-4.21102 1.07031,-7.53077 l 7.6211,-37.09807 c 1.20339,-1.13527 5.8836,-2.8455 7.2207,-3.06694 z"
         id="path4141"
         style="font-size:medium;font-style:normal;font-variant:normal;font-weight:normal;font-stretch:normal;line-height:125%;letter-spacing:0px;word-spacing:0px;fill:#ff8080;fill-opacity:1;stroke:none;font-family:'Lobster 1.3';-inkscape-font-specification:'Lobster 1.3, '" />
      <path
         d="m -322.40039,599.94315 c 0,0 0,-67.84522 0,-67.84522 a 0.5034051,0.50341985 85.298122 0 0 -0.58568,-0.49664 l -112.85592,18.69023 a 0.50340307,0.5034124 0 0 0 -0.11879,0.95817 l 112.85596,49.15499 z m -0.30239,-0.46153 -111.29483,-48.47503 110.5904,-18.31503 c 0,6.66721 0,67.25159 0,67.25159 z"
         id="path4187"
         style="fill:#ff8080;fill-opacity:1;fill-rule:evenodd;stroke:none" />
      <path
         d="m -13.119105,232.36545 c 0,0 0,67.84522 0,67.84522 a 0.5034051,0.50341985 85.298119 0 0 0.585671,0.49664 L 100.32249,282.01707 a 0.50340307,0.5034124 0 0 0 0.11879,-0.95817 L -12.414679,231.90392 z m 0.302384,0.46153 111.294832,48.47502 -110.590406,18.31504 c 0,-22.4172 0,-44.83439 0,-67.25159 z"
         id="path5654"
         style="fill:#ff8080;fill-opacity:1;fill-rule:evenodd;stroke:none" />
    </g>
  </g>
</svg>
