<?xml version="1.0" encoding="UTF-8" standalone="no"?>
<!-- Created with Inkscape (http://www.inkscape.org/) -->

<svg
   xmlns:dc="http://purl.org/dc/elements/1.1/"
   xmlns:cc="http://creativecommons.org/ns#"
   xmlns:rdf="http://www.w3.org/1999/02/22-rdf-syntax-ns#"
   xmlns:svg="http://www.w3.org/2000/svg"
   xmlns="http://www.w3.org/2000/svg"
   xmlns:sodipodi="http://sodipodi.sourceforge.net/DTD/sodipodi-0.dtd"
   xmlns:inkscape="http://www.inkscape.org/namespaces/inkscape"
   width="379.28143"
   height="358.5184"
   viewBox="0 0 100.35154 94.857997"
   version="1.1"
   id="svg8"
   inkscape:version="0.92.1 r15371"
   sodipodi:docname="2018-10-30 Carved Pumpkin.svg">
  <defs
     id="defs2" />
  <sodipodi:namedview
     id="base"
     pagecolor="#ffffff"
     bordercolor="#666666"
     borderopacity="1.0"
     inkscape:pageopacity="0.0"
     inkscape:pageshadow="2"
     inkscape:zoom="1"
     inkscape:cx="163.74071"
     inkscape:cy="199.15998"
     inkscape:document-units="px"
     inkscape:current-layer="layer1"
     showgrid="false"
     units="px"
     showborder="true"
     inkscape:window-width="1920"
     inkscape:window-height="1017"
     inkscape:window-x="1358"
     inkscape:window-y="-8"
     inkscape:window-maximized="1"
     inkscape:snap-global="false"
     inkscape:pagecheckerboard="false"
     fit-margin-top="0"
     fit-margin-left="0"
     fit-margin-right="0"
     fit-margin-bottom="0" />
  <metadata
     id="metadata5">
    <rdf:RDF>
      <cc:Work
         rdf:about="">
        <dc:format>image/svg+xml</dc:format>
        <dc:type
           rdf:resource="http://purl.org/dc/dcmitype/StillImage" />
        <dc:title></dc:title>
      </cc:Work>
    </rdf:RDF>
  </metadata>
  <g
     inkscape:label="Layer 1"
     inkscape:groupmode="layer"
     id="layer1"
     transform="translate(292.3026,-215.31356)">
    <path
       inkscape:connector-curvature="0"
       style="opacity:1;vector-effect:none;fill:#1d5549;fill-opacity:1;stroke:none;stroke-width:2.33759379;stroke-linecap:round;stroke-linejoin:round;stroke-miterlimit:4;stroke-dasharray:none;stroke-dashoffset:0;stroke-opacity:1"
       d="m -246.29305,215.31356 a 28.111889,26.459764 0 0 1 1.33272,8.01771 28.111889,26.459764 0 0 1 -10.22235,20.39571 v 0.13074 h 26.11168 a 48.897649,46.023953 0 0 1 -5.1959,-20.52635 48.897649,46.023953 0 0 1 0.75815,-8.01771 z"
       id="rect4412" />
    <path
       inkscape:connector-curvature="0"
       style="opacity:1;vector-effect:none;fill:#0d2621;fill-opacity:1;stroke:none;stroke-width:2.33759379;stroke-linecap:round;stroke-linejoin:round;stroke-miterlimit:4;stroke-dasharray:none;stroke-dashoffset:0;stroke-opacity:1"
       d="m -246.29305,215.31356 a 28.111889,26.459764 0 0 1 1.33272,8.01771 28.111889,26.459764 0 0 1 -10.22235,20.39571 v 0.13074 h 19.62258 a 95.823034,90.191553 0 0 1 -5.138,-28.54406 z"
       id="path4420" />
    <ellipse
       ry="26.591322"
       rx="16.728384"
       cy="273.14725"
       cx="208.67944"
       id="ellipse4355"
       style="opacity:1;vector-effect:none;fill:#212178;fill-opacity:1;stroke:none;stroke-width:2.04338765;stroke-linecap:round;stroke-linejoin:round;stroke-miterlimit:4;stroke-dasharray:none;stroke-dashoffset:0;stroke-opacity:1"
       transform="scale(-1,1)" />
    <ellipse
       style="opacity:1;vector-effect:none;fill:#ff7e2a;fill-opacity:1;stroke:none;stroke-width:1.89759898;stroke-linecap:round;stroke-linejoin:round;stroke-miterlimit:4;stroke-dasharray:none;stroke-dashoffset:0;stroke-opacity:1"
       id="ellipse4357"
       cx="210.31184"
       cy="273.14725"
       rx="16.553591"
       ry="23.174427"
       transform="scale(-1,1)" />
    <ellipse
       ry="17.952587"
       rx="12.823607"
       cy="268.47934"
       cx="210.31184"
       id="ellipse4359"
       style="opacity:1;vector-effect:none;fill:#ffbe2a;fill-opacity:1;stroke:none;stroke-width:1.47001731;stroke-linecap:round;stroke-linejoin:round;stroke-miterlimit:4;stroke-dasharray:none;stroke-dashoffset:0;stroke-opacity:1"
       transform="scale(-1,1)" />
    <ellipse
       style="opacity:1;vector-effect:none;fill:#212178;fill-opacity:1;stroke:none;stroke-width:2.67072058;stroke-linecap:round;stroke-linejoin:round;stroke-miterlimit:4;stroke-dasharray:none;stroke-dashoffset:0;stroke-opacity:1"
       id="ellipse4361"
       cx="228.13652"
       cy="273.14725"
       rx="21.341679"
       ry="35.605793"
       transform="scale(-1,1)" />
    <ellipse
       ry="31.030571"
       rx="22.165268"
       cy="273.14725"
       cx="228.13652"
       id="ellipse4363"
       style="opacity:1;vector-effect:none;fill:#ff7e2a;fill-opacity:1;stroke:none;stroke-width:2.54088616;stroke-linecap:round;stroke-linejoin:round;stroke-miterlimit:4;stroke-dasharray:none;stroke-dashoffset:0;stroke-opacity:1"
       transform="scale(-1,1)" />
    <ellipse
       style="opacity:1;vector-effect:none;fill:#ffbe2a;fill-opacity:1;stroke:none;stroke-width:1.86146712;stroke-linecap:round;stroke-linejoin:round;stroke-miterlimit:4;stroke-dasharray:none;stroke-dashoffset:0;stroke-opacity:1"
       id="ellipse4365"
       cx="228.13652"
       cy="265.59164"
       rx="16.238396"
       ry="22.733166"
       transform="scale(-1,1)" />
    <ellipse
       style="opacity:1;vector-effect:none;fill:#212178;fill-opacity:1;stroke:none;stroke-width:2.04338765;stroke-linecap:round;stroke-linejoin:round;stroke-miterlimit:4;stroke-dasharray:none;stroke-dashoffset:0;stroke-opacity:1"
       id="ellipse4335"
       cx="-275.57422"
       cy="273.14725"
       rx="16.728384"
       ry="26.591322" />
    <ellipse
       ry="23.174427"
       rx="16.553591"
       cy="273.14725"
       cx="-273.9418"
       id="ellipse4337"
       style="opacity:1;vector-effect:none;fill:#ff7e2a;fill-opacity:1;stroke:none;stroke-width:1.89759898;stroke-linecap:round;stroke-linejoin:round;stroke-miterlimit:4;stroke-dasharray:none;stroke-dashoffset:0;stroke-opacity:1" />
    <ellipse
       style="opacity:1;vector-effect:none;fill:#ffbe2a;fill-opacity:1;stroke:none;stroke-width:1.47001731;stroke-linecap:round;stroke-linejoin:round;stroke-miterlimit:4;stroke-dasharray:none;stroke-dashoffset:0;stroke-opacity:1"
       id="ellipse4339"
       cx="-273.9418"
       cy="268.47934"
       rx="12.823607"
       ry="17.952587" />
    <ellipse
       ry="35.605793"
       rx="21.341679"
       cy="273.14725"
       cx="-256.11716"
       id="ellipse4327"
       style="opacity:1;vector-effect:none;fill:#212178;fill-opacity:1;stroke:none;stroke-width:2.67072058;stroke-linecap:round;stroke-linejoin:round;stroke-miterlimit:4;stroke-dasharray:none;stroke-dashoffset:0;stroke-opacity:1" />
    <ellipse
       style="opacity:1;vector-effect:none;fill:#ff7e2a;fill-opacity:1;stroke:none;stroke-width:2.54088616;stroke-linecap:round;stroke-linejoin:round;stroke-miterlimit:4;stroke-dasharray:none;stroke-dashoffset:0;stroke-opacity:1"
       id="ellipse4329"
       cx="-256.11716"
       cy="273.14725"
       rx="22.165268"
       ry="31.030571" />
    <ellipse
       ry="22.67515"
       rx="16.196955"
       cy="265.53366"
       cx="-256.11716"
       id="ellipse4331"
       style="opacity:1;vector-effect:none;fill:#ffbe2a;fill-opacity:1;stroke:none;stroke-width:1.85671663;stroke-linecap:round;stroke-linejoin:round;stroke-miterlimit:4;stroke-dasharray:none;stroke-dashoffset:0;stroke-opacity:1" />
    <ellipse
       style="opacity:1;vector-effect:none;fill:#212178;fill-opacity:1;stroke:none;stroke-width:2.77712035;stroke-linecap:round;stroke-linejoin:round;stroke-miterlimit:4;stroke-dasharray:none;stroke-dashoffset:0;stroke-opacity:1"
       id="path4316"
       cx="-242.12683"
       cy="273.14725"
       rx="22.191917"
       ry="37.024307" />
    <ellipse
       ry="32.266808"
       rx="23.048317"
       cy="273.14725"
       cx="-242.12683"
       id="ellipse4318"
       style="opacity:1;vector-effect:none;fill:#ff7e2a;fill-opacity:1;stroke:none;stroke-width:2.64211321;stroke-linecap:round;stroke-linejoin:round;stroke-miterlimit:4;stroke-dasharray:none;stroke-dashoffset:0;stroke-opacity:1" />
    <ellipse
       style="opacity:1;vector-effect:none;fill:#ffbe2a;fill-opacity:1;stroke:none;stroke-width:1.92920232;stroke-linecap:round;stroke-linejoin:round;stroke-miterlimit:4;stroke-dasharray:none;stroke-dashoffset:0;stroke-opacity:1"
       id="ellipse4320"
       cx="-242.12683"
       cy="265.21219"
       rx="16.829281"
       ry="23.560383" />
    <path
       inkscape:connector-curvature="0"
       style="opacity:1;vector-effect:none;fill:#ffffff;fill-opacity:1;stroke:none;stroke-width:4.06325912;stroke-linecap:round;stroke-linejoin:round;stroke-miterlimit:4;stroke-dasharray:none;stroke-dashoffset:0;stroke-opacity:1"
       d="m -262.22869,257.32119 a 24.033518,20.031763 0 0 0 -8.58402,1.32737 24.033518,20.031763 0 0 0 5.66761,10.00714 24.033518,20.031763 0 0 0 2.91641,0.16522 24.033518,20.031763 0 0 0 16.83249,-5.74042 24.033518,20.031763 0 0 0 -16.83249,-5.75929 z"
       id="path4429" />
    <path
       inkscape:connector-curvature="0"
       style="opacity:1;vector-effect:none;fill:#ffd576;fill-opacity:1;stroke:none;stroke-width:4.06325912;stroke-linecap:round;stroke-linejoin:round;stroke-miterlimit:4;stroke-dasharray:none;stroke-dashoffset:0;stroke-opacity:1"
       d="m -270.81098,258.64781 a 24.033518,20.031763 0 0 0 -0.002,0 24.033518,20.031763 0 0 0 5.66764,10.00717 24.033518,20.031763 0 0 0 2.91638,0.16522 24.033518,20.031763 0 0 0 16.83249,-5.74045 24.033518,20.031763 0 0 0 -0.92315,-0.68539 28.200622,23.505014 0 0 1 -15.73462,4.0146 28.200622,23.505014 0 0 1 -3.42144,-0.19425 28.200622,23.505014 0 0 1 -5.33557,-7.56769 z"
       id="path4437" />
    <path
       id="path4454"
       d="m -222.02496,257.32119 a 24.033518,20.031763 0 0 1 8.58402,1.32737 24.033518,20.031763 0 0 1 -5.66762,10.00714 24.033518,20.031763 0 0 1 -2.9164,0.16522 24.033518,20.031763 0 0 1 -16.8325,-5.74042 24.033518,20.031763 0 0 1 16.8325,-5.75929 z"
       style="opacity:1;vector-effect:none;fill:#ffffff;fill-opacity:1;stroke:none;stroke-width:4.06325912;stroke-linecap:round;stroke-linejoin:round;stroke-miterlimit:4;stroke-dasharray:none;stroke-dashoffset:0;stroke-opacity:1"
       inkscape:connector-curvature="0" />
    <path
       id="path4456"
       d="m -213.44268,258.64781 a 24.033518,20.031763 0 0 1 0.002,0 24.033518,20.031763 0 0 1 -5.66764,10.00717 24.033518,20.031763 0 0 1 -2.91639,0.16522 24.033518,20.031763 0 0 1 -16.83249,-5.74045 24.033518,20.031763 0 0 1 0.92315,-0.68539 28.200622,23.505014 0 0 0 15.73462,4.0146 28.200622,23.505014 0 0 0 3.42145,-0.19425 28.200622,23.505014 0 0 0 5.33556,-7.56769 z"
       style="opacity:1;vector-effect:none;fill:#ffd576;fill-opacity:1;stroke:none;stroke-width:4.06325912;stroke-linecap:round;stroke-linejoin:round;stroke-miterlimit:4;stroke-dasharray:none;stroke-dashoffset:0;stroke-opacity:1"
       inkscape:connector-curvature="0" />
    <path
       style="opacity:1;vector-effect:none;fill:#ffffff;fill-opacity:1;stroke:none;stroke-width:4.00333118;stroke-linecap:round;stroke-linejoin:round;stroke-miterlimit:4;stroke-dasharray:none;stroke-dashoffset:0;stroke-opacity:1"
       d="m -276.25053,275.56673 a 44.43698,44.43698 0 0 0 25.31949,15.08444 l 3.12446,-3.12449 3.9885,3.98847 a 44.43698,44.43698 0 0 0 1.67247,0.065 44.43698,44.43698 0 0 0 1.7327,-0.0876 l 3.9658,-3.96583 3.15729,3.15732 a 44.43698,44.43698 0 0 0 25.28667,-15.11726 h -18.21046 l -4.55377,4.55379 -4.5538,-4.55379 h -2.25188 l -4.55377,4.55379 -4.55379,-4.55379 h -2.25188 l -4.5538,4.55379 -4.55377,-4.55379 z"
       id="path4468"
       inkscape:connector-curvature="0" />
    <path
       style="opacity:1;vector-effect:none;fill:#ffd576;fill-opacity:1;stroke:none;stroke-width:4.00333118;stroke-linecap:round;stroke-linejoin:round;stroke-miterlimit:4;stroke-dasharray:none;stroke-dashoffset:0;stroke-opacity:1"
       d="m -276.25051,275.56635 a 44.43698,44.43698 0 0 0 25.31908,15.08503 l 3.12546,-3.1242 3.98824,3.98825 a 44.43698,44.43698 0 0 0 1.67169,0.0641 44.43698,44.43698 0 0 0 1.73324,-0.0872 l 3.96516,-3.96521 3.15752,3.15623 a 44.43698,44.43698 0 0 0 25.28703,-15.11706 h -3.17034 a 44.43698,44.43698 0 0 1 -22.11669,11.75315 l -3.15752,-3.15624 -3.96516,3.96522 a 44.43698,44.43698 0 0 1 -1.73324,0.0872 44.43698,44.43698 0 0 1 -1.67169,-0.0641 l -3.98824,-3.98826 -3.12546,3.12421 a 44.43698,44.43698 0 0 1 -22.19362,-11.72112 z"
       id="path4518"
       inkscape:connector-curvature="0" />
  </g>
</svg>
