<?xml version="1.0" encoding="UTF-8" standalone="no"?>
<!-- Created with Inkscape (http://www.inkscape.org/) -->

<svg
   xmlns:dc="http://purl.org/dc/elements/1.1/"
   xmlns:cc="http://creativecommons.org/ns#"
   xmlns:rdf="http://www.w3.org/1999/02/22-rdf-syntax-ns#"
   xmlns:svg="http://www.w3.org/2000/svg"
   xmlns="http://www.w3.org/2000/svg"
   xmlns:sodipodi="http://sodipodi.sourceforge.net/DTD/sodipodi-0.dtd"
   xmlns:inkscape="http://www.inkscape.org/namespaces/inkscape"
   width="213"
   height="499.36932"
   viewBox="0 0 56.356249 132.1248"
   version="1.1"
   id="svg8"
   inkscape:version="0.92.1 r15371"
   sodipodi:docname="2018-07-13 Elusive Money on a Hook.svg">
  <defs
     id="defs2" />
  <sodipodi:namedview
     id="base"
     pagecolor="#ffffff"
     bordercolor="#666666"
     borderopacity="1.0"
     inkscape:pageopacity="0.0"
     inkscape:pageshadow="2"
     inkscape:zoom="1"
     inkscape:cx="82.341473"
     inkscape:cy="251.28247"
     inkscape:document-units="px"
     inkscape:current-layer="layer1"
     showgrid="false"
     units="px"
     showborder="true"
     inkscape:window-width="1920"
     inkscape:window-height="1017"
     inkscape:window-x="-8"
     inkscape:window-y="-8"
     inkscape:window-maximized="1"
     inkscape:snap-global="false"
     fit-margin-top="0"
     fit-margin-left="0"
     fit-margin-right="0"
     fit-margin-bottom="0" />
  <metadata
     id="metadata5">
    <rdf:RDF>
      <cc:Work
         rdf:about="">
        <dc:format>image/svg+xml</dc:format>
        <dc:type
           rdf:resource="http://purl.org/dc/dcmitype/StillImage" />
        <dc:title></dc:title>
      </cc:Work>
    </rdf:RDF>
  </metadata>
  <g
     inkscape:label="Layer 1"
     inkscape:groupmode="layer"
     id="layer1"
     transform="translate(305.32917,2.4737627)">
    <path
       style="opacity:1;vector-effect:none;fill:#f2f2f2;fill-opacity:1;stroke:none;stroke-width:2.64583325;stroke-linecap:round;stroke-linejoin:round;stroke-miterlimit:4;stroke-dasharray:none;stroke-dashoffset:0;stroke-opacity:1"
       d="m -283.01447,116.06991 a 8.8399386,13.891333 0 0 1 0.0413,1.30173 8.8399386,13.891333 0 0 1 -3.57136,11.13369 h 18.78697 a 8.8399386,13.891333 0 0 1 -3.56929,-11.13369 8.8399386,13.891333 0 0 1 0.047,-1.30173 z"
       id="rect4340"
       inkscape:connector-curvature="0" />
    <path
       style="opacity:1;vector-effect:none;fill:#333333;fill-opacity:1;stroke:none;stroke-width:2.13270164;stroke-linecap:round;stroke-linejoin:round;stroke-miterlimit:4;stroke-dasharray:none;stroke-dashoffset:0;stroke-opacity:1"
       d="m -303.36857,82.201697 c -1.08609,0 -1.9606,0.874509 -1.9606,1.960605 V 113.9517 h 56.35625 V 84.162302 c 0,-1.086096 -0.8745,-1.960605 -1.9606,-1.960605 z"
       id="rect4320"
       inkscape:connector-curvature="0"
       sodipodi:nodetypes="ssccsss" />
    <path
       style="opacity:1;vector-effect:none;fill:#d1d1d1;fill-opacity:1;stroke:none;stroke-width:3.29866171;stroke-linecap:round;stroke-linejoin:round;stroke-miterlimit:4;stroke-dasharray:none;stroke-dashoffset:0;stroke-opacity:1"
       d="m -283.01425,116.06992 a 8.8399383,13.891333 0 0 1 0.0413,1.30173 8.8399383,13.891333 0 0 1 -0.42891,4.2323 h 12.50673 a 8.8399383,13.891333 0 0 1 -0.4315,-4.2323 8.8399383,13.891333 0 0 1 0.0465,-1.30173 z"
       id="path4354"
       inkscape:connector-curvature="0" />
    <path
       style="opacity:1;vector-effect:none;fill:#f2f2f2;fill-opacity:1;stroke:none;stroke-width:3.29866195;stroke-linecap:round;stroke-linejoin:round;stroke-miterlimit:4;stroke-dasharray:none;stroke-dashoffset:0;stroke-opacity:1"
       d="m -305.32917,113.9517 v 4.03851 c 0,1.08609 0.87452,1.96009 1.96061,1.96009 h 52.43504 c 1.0861,0 1.9606,-0.874 1.9606,-1.96009 v -4.03851 z"
       id="path4323"
       inkscape:connector-curvature="0"
       sodipodi:nodetypes="csssscc" />
    <path
       style="opacity:1;vector-effect:none;fill:#afdde9;fill-opacity:1;stroke:none;stroke-width:2.54203439;stroke-linecap:round;stroke-linejoin:round;stroke-miterlimit:4;stroke-dasharray:none;stroke-dashoffset:0;stroke-opacity:1"
       d="m -301.8979,85.566423 h 49.49369 v 24.695707 h -49.49369 z"
       id="rect4334"
       inkscape:connector-curvature="0"
       sodipodi:nodetypes="ccccc" />
    <rect
       style="opacity:1;vector-effect:none;fill:#d1d1d1;fill-opacity:1;stroke:none;stroke-width:3.01475334;stroke-linecap:round;stroke-linejoin:round;stroke-miterlimit:4;stroke-dasharray:none;stroke-dashoffset:0;stroke-opacity:1"
       id="rect4361"
       width="27.480909"
       height="1.3229166"
       x="-290.89148"
       y="128.32812"
       ry="0.66145831" />
    <g
       id="g4489"
       transform="translate(5.0000001e-6,4.8947899)">
      <path
         inkscape:connector-curvature="0"
         id="rect4363"
         d="m -276.92054,57.595203 c -0.90555,0 -1.63457,0.729022 -1.63457,1.634575 v 9.346417 4.337908 c 0,0.290239 -0.23366,0.523899 -0.52391,0.523899 -0.29024,0 -0.5239,-0.23366 -0.5239,-0.523899 v -4.337908 -7.041247 c 0,-0.905554 -0.72902,-1.634575 -1.63457,-1.634575 -0.90556,0 -1.63458,0.729021 -1.63458,1.634575 v 9.178767 3.981653 2.885472 l -1.50884,-1.508838 v -4.43622 c 0,-0.905554 -0.72902,-1.634575 -1.63457,-1.634575 -0.90555,0 -1.63458,0.729021 -1.63458,1.634575 v 4.059011 1.731332 l 3.26915,3.269151 1.85724,1.857231 c 0.38111,0.582052 1.03853,0.965373 1.78912,0.965373 h 1.7184 v 4.170258 h 8.50817 V 83.51788 h 1.7184 c 1.18419,0 2.13752,-0.953334 2.13752,-2.13752 v -6.684992 -3.981653 -6.873597 c 0,-0.905554 -0.72902,-1.634575 -1.63458,-1.634575 -0.90555,0 -1.63457,0.729021 -1.63457,1.634575 v 4.736077 4.337908 c 0,0.290239 -0.23366,0.523899 -0.5239,0.523899 -0.29024,0 -0.5239,-0.23366 -0.5239,-0.523899 v -4.337908 -5.825794 c 0,-0.905554 -0.72903,-1.634575 -1.63458,-1.634575 -0.90555,0 -1.63457,0.729021 -1.63457,1.634575 v 5.825794 4.337908 c 0,0.290239 -0.23366,0.523899 -0.5239,0.523899 -0.29025,0 -0.52391,-0.23366 -0.52391,-0.523899 v -4.337908 -9.346417 c 0,-0.905553 -0.72901,-1.634575 -1.63457,-1.634575 z"
         style="opacity:1;vector-effect:none;fill:#ffe7cb;fill-opacity:1;stroke:none;stroke-width:0.41912165;stroke-linecap:round;stroke-linejoin:round;stroke-miterlimit:4;stroke-dasharray:none;stroke-dashoffset:0;stroke-opacity:1" />
      <path
         id="path4443"
         d="m -268.28653,62.205511 c -0.90556,0 -1.63471,0.729158 -1.63471,1.634712 v 4.736013 4.337887 c 0,0.284807 -0.22531,0.513597 -0.50797,0.52212 v 1.259132 6.684908 c 0,1.184186 -0.95322,2.137646 -2.13741,2.137646 h -1.71841 v 4.170242 h 3.77715 v -4.170242 h 1.71841 c 1.18419,0 2.13741,-0.95346 2.13741,-2.137646 v -6.684908 -3.981733 -6.873419 c 0,-0.905554 -0.72892,-1.634712 -1.63447,-1.634712 z"
         style="opacity:1;vector-effect:none;fill:#ffc179;fill-opacity:1;stroke:none;stroke-width:0.41912165;stroke-linecap:round;stroke-linejoin:round;stroke-miterlimit:4;stroke-dasharray:none;stroke-dashoffset:0;stroke-opacity:1"
         inkscape:connector-curvature="0" />
      <rect
         y="85.903587"
         x="-280.52795"
         height="2.3932302"
         width="11.174372"
         id="rect4451"
         style="opacity:1;vector-effect:none;fill:#f9f9f9;fill-opacity:1;stroke:none;stroke-width:0.91632402;stroke-linecap:round;stroke-linejoin:round;stroke-miterlimit:4;stroke-dasharray:none;stroke-dashoffset:0;stroke-opacity:1" />
      <rect
         style="opacity:1;vector-effect:none;fill:#e1e1e1;fill-opacity:1;stroke:none;stroke-width:0.45293498;stroke-linecap:round;stroke-linejoin:round;stroke-miterlimit:4;stroke-dasharray:none;stroke-dashoffset:0;stroke-opacity:1"
         id="rect4459"
         width="2.7302144"
         height="2.3932302"
         x="-272.0838"
         y="85.903587" />
      <rect
         style="opacity:1;vector-effect:none;fill:#87aade;fill-opacity:1;stroke:none;stroke-width:2.82367468;stroke-linecap:round;stroke-linejoin:round;stroke-miterlimit:4;stroke-dasharray:none;stroke-dashoffset:0;stroke-opacity:1"
         id="rect4461"
         width="14.614475"
         height="17.376228"
         x="-282.24799"
         y="87.991112" />
      <rect
         y="87.991112"
         x="-271.19641"
         height="17.376228"
         width="3.5628996"
         id="rect4463"
         style="opacity:1;vector-effect:none;fill:#3f77ca;fill-opacity:1;stroke:none;stroke-width:1.39419913;stroke-linecap:round;stroke-linejoin:round;stroke-miterlimit:4;stroke-dasharray:none;stroke-dashoffset:0;stroke-opacity:1" />
    </g>
    <path
       style="color:#000000;font-style:normal;font-variant:normal;font-weight:normal;font-stretch:normal;font-size:medium;line-height:normal;font-family:sans-serif;font-variant-ligatures:normal;font-variant-position:normal;font-variant-caps:normal;font-variant-numeric:normal;font-variant-alternates:normal;font-feature-settings:normal;text-indent:0;text-align:start;text-decoration:none;text-decoration-line:none;text-decoration-style:solid;text-decoration-color:#000000;letter-spacing:normal;word-spacing:normal;text-transform:none;writing-mode:lr-tb;direction:ltr;text-orientation:mixed;dominant-baseline:auto;baseline-shift:baseline;text-anchor:start;white-space:normal;shape-padding:0;clip-rule:nonzero;display:inline;overflow:visible;visibility:visible;opacity:1;isolation:auto;mix-blend-mode:normal;color-interpolation:sRGB;color-interpolation-filters:linearRGB;solid-color:#000000;solid-opacity:1;vector-effect:none;fill:#c8d8f0;fill-opacity:1;fill-rule:nonzero;stroke:none;stroke-width:2.87222767;stroke-linecap:round;stroke-linejoin:round;stroke-miterlimit:4;stroke-dasharray:none;stroke-dashoffset:0;stroke-opacity:1;color-rendering:auto;image-rendering:auto;shape-rendering:auto;text-rendering:auto;enable-background:accumulate"
       d="m -270.59288,9.1407993 a 4.0211187,4.0211187 0 0 0 -4.02113,4.0211177 4.0211187,4.0211187 0 0 0 2.55934,3.741751 c 10e-5,1.650814 5.7e-4,14.957381 5.7e-4,18.769334 0,2.729907 -2.15288,4.882787 -4.88279,4.882787 -0.0378,0 -0.0755,-5.87e-4 -0.11302,-0.0014 a 1.4362574,1.4362574 0 1 0 -0.0642,2.871526 c 0.0589,0.0014 0.11798,0.002 0.17713,0.002 4.27144,0 7.755,-3.483577 7.755,-7.755016 0,-3.807593 -2.9e-4,-17.061491 -5.5e-4,-18.747597 a 4.0211187,4.0211187 0 0 0 2.61067,-3.763347 4.0211187,4.0211187 0 0 0 -4.02112,-4.0211187 z m 0,1.7233357 a 2.2977821,2.2977821 0 0 1 2.29778,2.297782 2.2977821,2.2977821 0 0 1 -2.29778,2.297782 2.2977821,2.2977821 0 0 1 -2.29779,-2.297782 2.2977821,2.2977821 0 0 1 2.29779,-2.297782 z"
       id="rect4491"
       inkscape:connector-curvature="0" />
    <path
       style="opacity:1;vector-effect:none;fill:#87cdde;fill-opacity:1;stroke:none;stroke-width:2.87222767;stroke-linecap:round;stroke-linejoin:round;stroke-miterlimit:4;stroke-dasharray:none;stroke-dashoffset:0;stroke-opacity:1"
       d="m -270.59283,-2.4737627 c 0.20886,0 0.37698,0.168133 0.37698,0.376979 V 11.259075 c 0,0.208847 -0.16812,0.37698 -0.37698,0.37698 -0.20884,0 -0.37697,-0.168133 -0.37697,-0.37698 V -2.0967837 c 0,-0.208846 0.16813,-0.376979 0.37697,-0.376979 z"
       id="rect4518"
       inkscape:connector-curvature="0" />
    <path
       style="opacity:1;vector-effect:none;fill:#87cdde;fill-opacity:1;stroke:none;stroke-width:2.87222767;stroke-linecap:round;stroke-linejoin:round;stroke-miterlimit:4;stroke-dasharray:none;stroke-dashoffset:0;stroke-opacity:1"
       d="m -269.50242,5.2805423 c -0.0371,-0.0014 -0.0751,0.0027 -0.11288,0.01275 l -2.1501,0.576128 c -0.20173,0.05405 -0.32067,0.259958 -0.26662,0.461689 0.0541,0.201729 0.2601,0.320519 0.46184,0.266466 l 2.15009,-0.575989 c 0.20174,-0.05405 0.32053,-0.260098 0.26648,-0.461828 -0.0439,-0.163907 -0.18807,-0.273028 -0.3488,-0.279229 z m 0,1.130939 c -0.0371,-0.0014 -0.0751,0.0027 -0.11288,0.01275 l -2.1501,0.576128 c -0.20173,0.05405 -0.32067,0.259958 -0.26662,0.461689 0.0541,0.20173 0.2601,0.320519 0.46184,0.266466 l 2.15009,-0.575989 c 0.20174,-0.05405 0.32053,-0.260098 0.26648,-0.461828 -0.0439,-0.163905 -0.18807,-0.273028 -0.3488,-0.279229 z m 0,1.13094 c -0.0371,-0.0014 -0.0751,0.0027 -0.11288,0.01275 l -2.1501,0.576129 c -0.20173,0.05405 -0.32067,0.259958 -0.26662,0.461688 0.0541,0.201731 0.2601,0.32052 0.46184,0.266466 l 2.15009,-0.576128 c 0.20174,-0.05405 0.32053,-0.259958 0.26648,-0.461688 -0.0439,-0.163906 -0.18807,-0.273028 -0.3488,-0.279229 z"
       id="path4521"
       inkscape:connector-curvature="0" />
    <g
       id="g4557"
       transform="matrix(0.32662129,-0.08751791,0.08751791,0.32662129,-251.48851,-4.7790737)">
      <path
         sodipodi:nodetypes="ccccc"
         inkscape:connector-curvature="0"
         id="rect4530"
         d="m -146.57916,94.064575 h 79.951842 v 36.777085 h -79.951842 z"
         style="opacity:1;vector-effect:none;fill:#87decd;fill-opacity:1;stroke:none;stroke-width:10.58333302;stroke-linecap:round;stroke-linejoin:round;stroke-miterlimit:4;stroke-dasharray:none;stroke-dashoffset:0;stroke-opacity:1" />
      <path
         id="rect4532"
         transform="scale(0.26458333)"
         d="m -499.51172,376.54492 c 0.004,0.0749 0.008,0.14973 0.0117,0.22461 -0.0222,19.79392 -15.71752,36.01425 -35.5,36.6875 v 23.10742 c 19.78929,0.67349 35.48726,16.90434 35.5,36.70508 -0.002,0.0749 -0.005,0.14975 -0.008,0.22461 h 193.19922 c -0.004,-0.0749 -0.008,-0.14973 -0.0117,-0.22461 0.0222,-19.79392 15.71752,-36.01425 35.5,-36.6875 v -23.10742 c -19.78929,-0.67349 -35.48725,-16.90434 -35.5,-36.70508 0.002,-0.0749 0.005,-0.14975 0.008,-0.22461 z m 96.60156,13.47461 a 35.000001,35.000001 0 0 1 35,35 35.000001,35.000001 0 0 1 -35,35 35.000001,35.000001 0 0 1 -35,-35 35.000001,35.000001 0 0 1 35,-35 z"
         style="opacity:1;vector-effect:none;fill:#6f918a;fill-opacity:1;stroke:none;stroke-width:31.44839668;stroke-linecap:round;stroke-linejoin:round;stroke-miterlimit:4;stroke-dasharray:none;stroke-dashoffset:0;stroke-opacity:1"
         inkscape:connector-curvature="0" />
    </g>
    <path
       style="color:#000000;font-style:normal;font-variant:normal;font-weight:normal;font-stretch:normal;font-size:medium;line-height:normal;font-family:sans-serif;font-variant-ligatures:normal;font-variant-position:normal;font-variant-caps:normal;font-variant-numeric:normal;font-variant-alternates:normal;font-feature-settings:normal;text-indent:0;text-align:start;text-decoration:none;text-decoration-line:none;text-decoration-style:solid;text-decoration-color:#000000;letter-spacing:normal;word-spacing:normal;text-transform:none;writing-mode:lr-tb;direction:ltr;text-orientation:mixed;dominant-baseline:auto;baseline-shift:baseline;text-anchor:start;white-space:normal;shape-padding:0;clip-rule:nonzero;display:inline;overflow:visible;visibility:visible;opacity:1;isolation:auto;mix-blend-mode:normal;color-interpolation:sRGB;color-interpolation-filters:linearRGB;solid-color:#000000;solid-opacity:1;vector-effect:none;fill:#c8d8f0;fill-opacity:1;fill-rule:nonzero;stroke:none;stroke-width:2.87222767;stroke-linecap:round;stroke-linejoin:round;stroke-miterlimit:4;stroke-dasharray:none;stroke-dashoffset:0;stroke-opacity:1;color-rendering:auto;image-rendering:auto;shape-rendering:auto;text-rendering:auto;enable-background:accumulate"
       d="m -283.27753,29.908212 a 1.4362574,1.4362574 0 0 0 -1.41452,1.456448 v 4.308342 c 0,4.212256 3.38475,7.659483 7.57789,7.753053 a 1.4362574,1.4362574 0 1 0 0.0642,-2.871526 c -2.67309,-0.05966 -4.76974,-2.189444 -4.76974,-4.881527 V 31.36466 a 1.4362574,1.4362574 0 0 0 -1.45772,-1.456448 z"
       id="path4502"
       inkscape:connector-curvature="0" />
    <path
       style="opacity:1;vector-effect:none;fill:#c8d8f0;fill-opacity:1;stroke:none;stroke-width:1.02969682;stroke-linecap:round;stroke-linejoin:round;stroke-miterlimit:4;stroke-dasharray:none;stroke-dashoffset:0;stroke-opacity:1"
       d="m -284.69219,27.264902 v 4.994029 h 4.99403 z"
       id="rect4508"
       inkscape:connector-curvature="0" />
  </g>
</svg>
