<?xml version="1.0" encoding="UTF-8" standalone="no"?>
<!-- Created with Inkscape (http://www.inkscape.org/) -->

<svg
   xmlns:dc="http://purl.org/dc/elements/1.1/"
   xmlns:cc="http://creativecommons.org/ns#"
   xmlns:rdf="http://www.w3.org/1999/02/22-rdf-syntax-ns#"
   xmlns:svg="http://www.w3.org/2000/svg"
   xmlns="http://www.w3.org/2000/svg"
   xmlns:sodipodi="http://sodipodi.sourceforge.net/DTD/sodipodi-0.dtd"
   xmlns:inkscape="http://www.inkscape.org/namespaces/inkscape"
   width="318.86957"
   height="402.35724"
   viewBox="0 0 84.367571 106.45702"
   version="1.1"
   id="svg8"
   inkscape:version="0.92.1 r15371"
   sodipodi:docname="2018-07-18 Beer Mug.svg">
  <defs
     id="defs2" />
  <sodipodi:namedview
     id="base"
     pagecolor="#ffffff"
     bordercolor="#666666"
     borderopacity="1.0"
     inkscape:pageopacity="0.0"
     inkscape:pageshadow="2"
     inkscape:zoom="1"
     inkscape:cx="137.37468"
     inkscape:cy="307.90523"
     inkscape:document-units="px"
     inkscape:current-layer="layer1"
     showgrid="false"
     units="px"
     showborder="true"
     inkscape:window-width="1920"
     inkscape:window-height="1017"
     inkscape:window-x="-8"
     inkscape:window-y="-8"
     inkscape:window-maximized="1"
     inkscape:snap-global="false"
     fit-margin-top="0"
     fit-margin-left="0"
     fit-margin-right="0"
     fit-margin-bottom="0" />
  <metadata
     id="metadata5">
    <rdf:RDF>
      <cc:Work
         rdf:about="">
        <dc:format>image/svg+xml</dc:format>
        <dc:type
           rdf:resource="http://purl.org/dc/dcmitype/StillImage" />
        <dc:title></dc:title>
      </cc:Work>
    </rdf:RDF>
  </metadata>
  <g
     inkscape:label="Layer 1"
     inkscape:groupmode="layer"
     id="layer1"
     transform="translate(-29.885512,-275.43953)">
    <g
       id="g4478"
       transform="matrix(0.53603274,0,0,0.53603274,33.437795,152.49121)">
      <path
         inkscape:connector-curvature="0"
         id="path4464"
         d="m 39.285156,229.36719 c -10.123482,0.008 -18.824667,6.56055 -22.02539,15.80859 -1.565019,-0.423 -3.166496,-0.72248 -4.816407,-0.72656 h -0.0059 -0.0039 c -10.4857058,1e-5 -19.060541,8.57485 -19.0605471,19.06055 v 0.002 0.004 c 0.00881,6.36818 3.3041757,12.13141 8.4785156,15.63086 v 110.33008 c -0.3509046,0.26109 -0.7107347,0.46706 -1.04101562,0.80664 -0.98797847,1.01586 -1.87304688,2.49287 -1.87304688,4.32422 v 20.1543 c 0,2.17091 1.23311731,3.83094 2.4707031,4.88672 1.1937462,1.0184 2.5902823,1.74232 4.1542969,2.38672 3.1484882,1.29722 7.237558,2.31227 12.208984,3.17578 9.948794,1.72802 23.403634,2.75781 38.320313,2.75781 14.916678,0 28.371518,-1.02979 38.320312,-2.75781 4.971427,-0.86351 9.060486,-1.87856 12.208976,-3.17578 1.56401,-0.6444 2.96055,-1.36832 4.1543,-2.38672 1.23758,-1.05578 2.4707,-2.71581 2.4707,-4.88672 v -18.20703 c 0.60477,0.0139 1.1978,0.043 1.8125,0.043 8.23773,0 15.76805,-1.16329 21.97266,-3.49414 3.07968,-1.15697 6.02089,-2.64717 8.5625,-4.91211 2.65988,-2.37029 5.17188,-6.08426 5.17187,-10.78907 v -83.72461 c 0,-4.70482 -2.51222,-8.41899 -5.17187,-10.78906 -2.54135,-2.26474 -5.48238,-3.75504 -8.5625,-4.91211 -6.20464,-2.33092 -13.73494,-3.49414 -21.97266,-3.49414 -1.55416,0 -3.00766,0.11888 -4.48437,0.21094 0.17399,-0.24171 0.3316,-0.41717 0.5039,-0.71289 l 0.008,-0.0137 v -0.002 l 0.002,-0.002 c 4.43669,-7.68944 1.77656,-17.61955 -5.91211,-22.05859 -2.67908,-1.54683 -5.747852,-2.29238 -8.837884,-2.14649 -2.797824,0.13216 -5.32932,1.19157 -7.625,2.62696 -3.022811,-7.57246 -10.37962,-12.96289 -18.998047,-12.96289 h -0.002 -0.002 c -3.448842,0.005 -6.704186,1.08421 -9.673829,2.70507 -3.939135,-7.66216 -11.842598,-12.74913 -20.740234,-12.75976 z m 0,3.96875 h 0.002 l 0.277344,1.94531 z m -0.04492,0.004 c -1.162686,0.004 -2.300192,0.11924 -3.410156,0.32032 1.109335,-0.20154 2.247542,-0.31644 3.410156,-0.32032 z m -4.585937,0.62696 c -0.702825,0.17383 -1.406525,0.34744 -2.078125,0.5957 0.672305,-0.24942 1.374309,-0.42114 2.078125,-0.5957 z m 10.007812,0.19336 c 0.198595,0.0577 0.399594,0.0924 0.595703,0.15625 -0.194413,-0.0631 -0.398861,-0.0992 -0.595703,-0.15625 z m -13.439453,1.00976 c -0.551731,0.2537 -1.105777,0.50208 -1.628906,0.80469 0.52332,-0.30377 1.076821,-0.55003 1.628906,-0.80469 z m 18.595703,1.35352 c 0.212351,0.13813 0.420248,0.26784 0.626953,0.41406 -0.204695,-0.14432 -0.416738,-0.27765 -0.626953,-0.41406 z m -21.605468,0.37109 c -0.442153,0.30893 -0.884214,0.61694 -1.298829,0.96094 0.414957,-0.34539 0.856189,-0.65077 1.298829,-0.96094 z m 11.072265,0.41016 c 6.62e-4,0 0.0013,0 0.002,0 6.62e-4,0 0.0013,0 0.002,0 7.136465,0.01 13.299413,4.84165 15.013672,11.76953 l 1.384766,1.43164 3.316406,0.93945 1.929688,-0.49023 c 2.346636,-2.29993 5.49555,-3.5896 8.78125,-3.5957 6.99167,0 12.561861,5.56478 12.576172,12.55273 -0.0028,0.0959 -0.005,0.19059 -0.0098,0.2832 l 1.496094,2.02735 3.148437,0.79492 -1.197265,1.04492 -0.06641,-0.0879 -0.02344,0.16406 -0.103516,0.0918 0.01758,-0.26953 -0.537109,3.93359 1.697266,2.23438 c 0.0564,0.008 0.09926,0.0143 0.109375,0.0156 l 2.230468,-1.69726 0.541016,-3.93165 -0.09961,-0.13085 0.0098,-0.1543 -0.07617,0.0664 -1.125,-1.47461 1.527344,-0.71875 c 0.0516,-0.10871 0.111773,-0.22364 0.173828,-0.33985 1.404009,-2.41413 3.918749,-3.94438 6.708985,-4.07617 1.571832,-0.0742 3.131342,0.30495 4.494135,1.0918 2.8851,1.6657 4.33551,4.72429 4.05078,7.79687 -0.008,-0.004 -0.002,-9.9e-4 -0.008,-0.004 l -0.0488,-0.0215 0.0391,0.21484 -0.125,-0.0273 c 0.016,-0.0349 0.0859,-0.1875 0.0859,-0.1875 l -0.0645,-0.0293 c -2e-5,0 -0.15365,-0.0222 -0.25195,-0.0371 l -0.0352,-0.0996 -0.01,-0.006 c -0.22924,-0.10628 -0.46755,-0.21214 -0.71484,-0.31641 l -0.0352,-0.0137 c 0,0 -0.002,0 -0.002,0 l -0.1543,0.0644 -0.0371,-0.0996 c 0.0705,0.0127 0.18764,0.0348 0.18946,0.0352 l -0.10547,-0.0391 c -1e-5,-1e-5 -0.0705,-0.009 -0.0898,-0.0117 l -0.008,-0.0234 c 0,0 -0.0115,0.0191 -0.0117,0.0195 -0.0134,-0.002 -0.0346,-0.003 -0.0527,-0.006 -0.058,-0.008 -0.0847,-0.0122 -0.16797,-0.0234 l 0.0332,-0.082 c -0.20113,-0.0804 -0.40962,-0.16061 -0.62304,-0.24023 0,0 -0.002,0 -0.002,0 l -0.2832,0.12695 c 3.4e-4,0.004 0.0142,0.15745 0.0176,0.19531 l -0.082,-0.16796 -0.0937,0.043 c -8.1e-4,-0.005 -0.0117,-0.0684 -0.0117,-0.0684 -3e-5,10e-6 0.044,-0.006 0.0879,-0.0117 l -0.0977,-0.20118 c 0.2239,0.0402 0.46069,0.0836 0.46289,0.084 -0.0154,-0.006 -0.0294,-0.0118 -0.0449,-0.0176 l -0.0977,-0.0332 c -2e-5,-10e-6 -0.16401,-0.0206 -0.32618,-0.041 l -0.0234,-0.0508 0.0117,-0.0332 c -0.0108,-0.004 -0.0224,-0.008 -0.0332,-0.0117 l -0.002,-0.002 c 0,0 -0.008,-0.002 -0.008,-0.002 -0.27188,-0.096 -0.55075,-0.19104 -0.83985,-0.28515 l -0.0234,-0.008 -0.25196,0.13086 -0.13476,-0.18359 -0.0664,-0.0899 c -0.22466,-0.0701 -0.45168,-0.13931 -0.68164,-0.20703 l -0.615231,0.33594 -0.384766,-0.57812 c 0.191697,0.038 0.437527,0.0879 0.4375,0.0879 l -0.173828,-0.0566 c -0.223285,-0.0619 -0.450655,-0.12414 -0.683593,-0.18555 l -0.148438,-0.0332 c -2.2e-5,-10e-6 -0.127488,-0.008 -0.253906,-0.0156 0.139657,0.0208 0.474643,0.0703 0.474609,0.0703 l -0.462891,0.25782 -0.203124,-0.33985 c -2e-4,-1e-5 -0.0018,10e-6 -0.002,0 l -0.05664,-0.0957 c 0.01798,0.002 0.08008,0.01 0.08008,0.01 l -0.08398,-0.0215 c -0.0016,-3.9e-4 -0.0023,3.9e-4 -0.0039,0 -2e-4,-5e-5 2.01e-4,-0.002 0,-0.002 0,0 -0.0057,1e-5 -0.0059,0 -0.07891,-0.0198 -0.145783,-0.0385 -0.1875,-0.0488 l -0.08789,-0.0195 c -2.1e-5,-1e-5 -0.08782,-0.006 -0.158203,-0.0117 -4.6e-5,3.9e-4 -0.0037,0.0317 -0.0039,0.0332 0.029,0.004 0.06614,0.009 0.11914,0.0156 -0.0589,-0.006 -0.07472,-0.008 -0.11914,-0.0117 -0.0054,0.0461 -0.05513,0.47676 -0.111328,0.95312 l -0.328125,0.18164 -0.972657,-1.52929 c -0.05177,-0.0115 -0.118875,-0.0277 -0.197265,-0.0449 l -2.087891,1.68164 -0.08203,-0.13086 -0.05273,0.24023 -0.185547,0.14844 0.04492,-0.42578 -0.84961,3.87695 1.302735,2.30469 c 2.5e-5,1e-5 0.239581,0.0394 0.427734,0.0703 l 0.857422,-0.54492 0.533203,0.9082 c 4.3e-5,10e-6 0.117146,0.0153 0.228516,0.0293 0.0031,-0.0128 0.07329,-0.29976 0.121093,-0.49414 l 0.292969,0.52539 c 0.02517,-0.002 0.02756,-0.004 0.05469,-0.006 2e-6,-0.0679 -1.8e-5,-0.66428 0,-1.22461 l -0.126954,-0.18359 0.126954,0.16992 c 7e-6,-0.22938 -3e-6,-0.42092 0,-0.50586 l 0.01758,-0.0117 c 0.01006,0.0993 0.03206,0.3242 0.0625,0.625 l 0.898437,1.20312 0.04883,-0.0273 0.169922,0.31836 h 0.002 c 0.03433,0.002 0.08897,0.005 0.0957,0.006 -0.04401,0.002 -0.08524,0.006 -0.08984,0.006 l 0.06055,0.0781 c -0.0053,-8.8e-4 -0.01704,-0.001 -0.02148,-0.002 l 0.01172,0.0195 c 1e-6,0 0.0219,0.004 0.02344,0.004 l 0.0059,0.006 c 0.193356,0.0569 0.380994,0.11194 0.560547,0.16797 l 0.191406,-0.0996 0.0039,-0.002 0.269531,-0.14257 0.265626,0.41992 c -0.191623,-0.038 -0.437527,-0.086 -0.4375,-0.0859 l 0.08984,0.0312 c 0.235017,0.0764 0.463628,0.15503 0.6875,0.23438 l 0.03516,0.0117 0.236333,-0.11523 0.0781,0.16016 0.0293,0.0625 c -0.022,-0.004 -0.0996,-0.0176 -0.0996,-0.0176 l 0.0469,0.0176 c 0.16765,0.0623 0.32907,0.12339 0.48438,0.18554 0,0 0.0368,-0.0909 0.041,-0.10156 0.003,-0.007 0.0213,-0.0523 0.0254,-0.0625 l 0.0234,0.0684 c 0.0497,0.007 0.088,0.0136 0.11719,0.0176 0.0665,-0.12462 0.26298,-0.49141 0.50195,-0.93945 l 0.0957,-0.0469 -0.41797,0.99023 c -0.0421,0.004 -0.0615,0.006 -0.0859,0.008 5e-4,6e-5 0.0137,0.002 0.0137,0.002 2e-5,0 0.037,-0.004 0.0723,-0.008 l -0.084,0.19726 c 0.1566,0.0661 0.30479,0.13226 0.44532,0.19727 -0.003,-0.002 -0.0205,-0.0111 -0.0371,-0.0195 l 0.4414,-0.1543 0.0644,0.23828 0.20118,-0.0644 c 0.0327,-0.0545 0.0789,-0.13028 0.13086,-0.2168 l 0.0352,0.0566 -0.0703,0.12891 0.0547,-0.0176 c 0.007,-0.0137 0.0305,-0.0581 0.0391,-0.0742 l 0.006,0.01 c 0.0149,-0.0263 0.0499,-0.0905 0.0684,-0.12305 -10e-4,-0.0113 -10e-4,-0.0134 -0.002,-0.0234 0.0105,-0.0198 0.0275,-0.0505 0.0391,-0.0723 7.8e-4,-3e-5 0.0165,4e-5 0.0176,0 0.009,-0.0166 0.0212,-0.0371 0.0312,-0.0547 l -0.008,0.041 -0.006,0.0137 c 3.1e-4,-1e-5 0.004,-0.002 0.004,-0.002 l -0.0352,0.19336 c 0.003,-3.4e-4 0.0682,-0.009 0.0762,-0.01 -0.012,0.009 -0.0199,0.0148 -0.0312,0.0234 -0.004,3.7e-4 -0.0476,0.006 -0.0488,0.006 l -0.004,0.0234 0.0234,-0.008 c -0.009,0.007 -0.017,0.0132 -0.0254,0.0195 l -0.006,0.0273 c -10e-4,-0.006 -0.003,-0.0149 -0.004,-0.0195 -0.0149,0.0114 -0.0337,0.0251 -0.0469,0.0352 l 0.0371,0.0605 -0.0352,0.19726 v 0.0547 l -0.19531,-0.0488 -0.008,0.0137 c 0.0523,0.0545 0.0892,0.0924 0.15234,0.15821 -6e-5,7e-5 -0.006,0.008 -0.006,0.008 l 0.0117,-0.002 c 0.018,0.0187 0.0346,0.0362 0.0449,0.0469 v 4.92774 l 0.66602,1.48437 2.21875,1.9707 1.55078,0.48633 c 2.59443,-0.30699 5.35331,-0.46679 8.23047,-0.46679 7.47578,0 14.16692,1.10244 19.18164,2.98632 2.53199,0.95119 4.51053,2.01647 6.07226,3.40821 1.44152,1.28457 2.51563,3.0691 2.51563,4.86328 v 83.72461 c 0,1.7941 -1.07445,3.57901 -2.51563,4.86328 -1.56145,1.39147 -3.53985,2.45488 -6.07226,3.40625 -5.01473,1.88388 -11.70588,2.98633 -19.18164,2.98633 -2.46356,0 -4.84109,-0.11885 -7.10547,-0.34571 l -2.06446,1.30469 -1.30078,3.625 0.71875,2.17774 v 18.35742 c -0.28929,0.2009 -0.79004,0.53936 -1.70898,0.91797 -2.20219,0.90734 -5.910352,1.88837 -10.544923,2.69335 -9.275219,1.61103 -22.414253,2.64258 -36.960938,2.64258 -14.546685,0 -27.687674,-1.03155 -36.962891,-2.64258 -4.634573,-0.80498 -8.34272,-1.78601 -10.5449215,-2.69335 -0.91894,-0.37861 -1.4196901,-0.71706 -1.7089844,-0.91797 v -18.19922 c 0.1791769,-0.13174 0.284793,-0.23577 0.7285157,-0.45899 l 0.7988281,-0.73047 1.0917969,-1.77343 0.2949218,-1.04102 V 277.05469 l -0.3007812,-1.05274 -0.7109375,-1.13672 c 0.00195,-10e-4 0.0038,-0.003 0.00586,-0.004 0.00179,0.001 0.052734,0.0312 0.052734,0.0312 0,0 0.4453125,-0.39453 0.4453125,-0.39453 0,0 0.039063,-0.0469 0.039063,-0.0469 0,0 0.054687,-0.0723 0.054687,-0.0723 0,0 0.011719,-0.0195 0.011719,-0.0195 3.17e-5,-5e-5 0.029524,-0.0429 0.044922,-0.0664 h 0.00586 c -0.010744,0.009 0.019922,-0.0156 0.058594,-0.0449 l 0.017578,-0.0117 0.00781,-0.0586 0.035156,0.0176 0.00586,0.004 c 0.020679,-0.0147 0.051866,-0.0365 0.087891,-0.0606 l 0.00781,-0.041 0.00977,-0.043 0.027344,0.006 0.056641,0.0137 c 4e-7,0 0.00193,-0.002 0.00195,-0.002 -3e-7,0 0.00193,-0.002 0.00195,-0.002 9.481e-4,-5.9e-4 0.00101,-10e-4 0.00195,-0.002 4.1e-5,-3e-5 0.0019,4e-5 0.00195,0 0.046212,-0.029 0.084413,-0.0512 0.1132812,-0.0684 l 0.00781,-0.0293 0.029297,-0.11914 L 10,273.875 h 0.002 l 0.05859,0.0156 -0.064453,0.0391 c 0.062247,-0.0351 0.116126,-0.0661 0.167968,-0.0937 l 0.01172,-0.041 0.02344,-0.0781 0.05078,0.0176 0.04883,0.0156 0.0078,0.0137 c 0.006,-0.003 0.0079,-0.005 0.01367,-0.008 0.0702,-0.0357 0.128864,-0.066 0.169922,-0.0859 l 0.05078,-0.14453 0.146484,0.0527 c 0.09313,-0.0432 0.161006,-0.0746 0.195312,-0.0898 l 0.06055,-0.1543 0.15625,0.0625 c 0.100329,-0.0427 0.177481,-0.0761 0.230469,-0.0976 l 0.06641,-0.0293 c 0,0 -0.04616,-0.10456 -0.05273,-0.11914 0.0048,-7.8e-4 0.01757,-0.003 0.02344,-0.004 l 0.166015,0.0723 c 0.125053,-0.0492 0.224998,-0.0899 0.302735,-0.11914 l 0.0078,-0.0156 c -0.04618,0.006 -0.198505,0.0232 -0.376953,0.0449 0.155931,-0.0256 0.265491,-0.0429 0.384765,-0.0625 l 0.002,-0.006 0.0078,0.004 c 0.03837,-0.006 0.130852,-0.0215 0.13086,-0.0215 h 0.002 c 0.147109,-0.054 0.270822,-0.10034 0.375,-0.13672 l 0.0098,-0.0215 c -0.07462,0.009 -0.176926,0.0209 -0.33789,0.041 0.142301,-0.0238 0.217819,-0.0352 0.345703,-0.0566 l 0.01367,-0.0293 0.03906,0.0195 c 0.03702,-0.006 0.128899,-0.0215 0.128906,-0.0215 l -0.04883,0.0195 c 0.158708,-0.0544 0.299022,-0.10402 0.429688,-0.14648 h 0.002 c 0.589268,-0.19162 1.238588,-0.38335 1.943359,-0.57227 l 0.01172,-0.0195 c -0.08368,0.0112 -0.188613,0.0245 -0.355469,0.0469 0.146928,-0.0262 0.226827,-0.0398 0.365235,-0.0645 l 0.01953,-0.0332 0.04297,0.0215 c 0.0393,-0.007 0.136712,-0.0234 0.136718,-0.0234 l -0.113281,0.0371 0.0039,0.002 c 10e-7,0 -0.01497,0.002 -0.01563,0.002 l -0.09375,0.0312 c 0.368153,-0.0987 0.784598,-0.20077 1.220704,-0.30664 l 0.08008,-0.13086 c 0.01529,0.002 0.03122,0.002 0.03125,0.002 3e-6,10e-6 0.02683,8e-5 0.03125,0 -0.02624,-0.001 -0.05368,-0.004 -0.0625,-0.004 l 0.267578,-0.43945 0.611328,0.33203 c 3.7e-5,-2e-5 -0.455444,0.0881 -0.556641,0.10742 0.048,-8.1e-4 0.117176,-0.002 0.117188,-0.002 l 0.207031,-0.0371 c 0.319414,-0.0734 0.625977,-0.14167 0.929688,-0.20704 l 0.298828,-0.46484 0.464843,0.30664 c 0.346765,-0.071 0.673875,-0.13895 0.998047,-0.20117 l 0.351563,-0.51758 0.517578,0.35742 c 0.362384,-0.0659 0.702694,-0.12795 1.039062,-0.18554 l 0.384766,-0.54297 0.542969,0.39062 c 0.389423,-0.0633 0.753416,-0.12282 1.113281,-0.17773 l 0.402344,-0.54688 0.546875,0.40821 c 0.417953,-0.0606 0.807106,-0.11795 1.189453,-0.16992 l 1.699219,-2.23438 -0.535157,-3.93164 -2.232421,-1.69922 c -0.451841,0.0614 -0.866869,0.12272 -1.259766,0.17969 l -0.427734,0.57226 -0.580079,-0.42578 c -0.42513,0.0649 -0.817298,0.13096 -1.189453,0.19141 l -0.414062,0.57226 -0.580078,-0.41015 c -0.399676,0.0684 -0.769733,0.13721 -1.121094,0.20117 l -0.382813,0.55273 -0.560547,-0.3789 c -0.38989,0.0748 -0.751059,0.14859 -1.09375,0.21875 l -0.332031,0.5039 -0.511719,-0.33007 c -0.368635,0.0793 -0.712359,0.15968 -1.037109,0.23437 l 0.07617,-0.0156 c -2e-5,0 0.122731,-0.008 0.246094,-0.0156 -0.155939,0.0242 -0.478485,0.0742 -0.478516,0.0742 l -0.234375,0.41016 -0.429687,-0.26172 c -0.460344,0.11178 -0.934358,0.22946 -1.404297,0.35547 -0.02805,0.008 -0.05212,0.0159 -0.08008,0.0234 -0.790723,0.21329 -1.548068,0.43326 -2.263672,0.66602 -0.202167,0.0658 -0.384598,0.12925 -0.5488282,0.18555 -2.29e-5,0 0.2508992,-0.0358 0.4707032,-0.0664 -0.233276,0.0433 -0.5878643,0.10936 -0.5878907,0.10937 l -0.023437,0.0508 -0.054687,-0.0274 c -0.1918862,0.067 -0.3580681,0.12896 -0.4960937,0.17969 l -0.099609,0.0391 c 0,0 0.041564,0.0971 0.046875,0.10938 l -0.1601562,-0.0723 c -0.1608237,0.0605 -0.3006089,0.1159 -0.4179688,0.16211 l -0.019531,0.0449 c -0.022029,0.002 -0.097651,0.01 -0.097656,0.01 l -0.1738281,0.0605 c -0.1363999,0.0556 -0.2515195,0.1061 -0.3417969,0.14453 l -0.09375,0.23047 -0.234375,-0.0899 c -0.1369016,0.0607 -0.2458164,0.11269 -0.3144531,0.14453 l -0.085937,0.23438 -0.2382813,-0.082 c -0.1319597,0.0641 -0.243725,0.12099 -0.328125,0.16406 l -0.1855468,0.10742 c 0,0 0.041238,0.0647 0.044922,0.0703 l -0.125,-0.0391 c -0.097155,0.0518 -0.1857449,0.10137 -0.2734375,0.15039 -7.3e-6,1e-5 -0.056835,0.0405 -0.076172,0.0547 l -0.050781,0.18945 -0.1523438,-0.0391 c -0.046655,0.0343 -0.057768,0.0438 -0.09375,0.0703 0.040114,-0.0312 0.044487,-0.0369 0.089844,-0.0723 l -0.048828,-0.0117 c -0.075329,0.0447 -0.1482922,0.088 -0.2207031,0.13281 -5e-7,0 -0.00382,0.004 -0.00391,0.004 -0.00587,0.005 -0.1734558,0.13531 -0.3027344,0.23633 0.1366704,-0.10092 0.3769897,-0.27737 0.3769531,-0.27735 l -0.023437,0.0859 c -7.864e-4,8.7e-4 -0.010368,0.0119 -0.013672,0.0156 1.135e-4,-8e-5 0.010988,-0.009 0.011719,-0.01 l -0.066406,0.24414 -0.2851563,-0.0586 -0.052734,-0.01 c -0.088191,0.0589 -0.1817511,0.12402 -0.2792969,0.19336 l -0.1074219,0.20898 -0.1503906,-0.0215 -0.00586,0.004 c -0.075573,0.0573 -0.1674053,0.13013 -0.2714844,0.21484 l -0.00391,0.041 -0.021484,0.21485 -0.2578125,-0.0156 c -0.018766,0.0166 -0.098085,0.0883 -0.1699219,0.1543 0,0 0.1862667,0.21329 0.28125,0.32227 l -0.6230468,0.0156 c -0.00473,0.005 -0.1145341,0.11525 -0.2304688,0.24805 l 0.037109,0.54687 -0.00977,-0.008 c -0.02742,-0.0415 -0.1308594,-0.19727 -0.1308594,-0.19727 0,0 -0.034036,0.0256 -0.0625,0.0469 l -0.091797,-0.0703 c 0.030212,-0.039 -0.047642,0.0648 -0.050781,0.0684 -1.1315364,-1.7545 -1.7811199,-3.81565 -1.7853252,-5.99351 v -0.002 c -1.2e-6,-6.6e-4 10e-7,-10e-4 0,-0.002 0.00226,-6.19302 4.9227573,-11.11486 11.115234,-11.11914 -0.0014,-1e-5 0.0063,0 0.0039,0 1.954347,0.006 3.871218,0.52664 5.560547,1.50976 l 1.882812,0.0606 2.96875,-1.47851 1.083984,-1.53907 c 0.941146,-7.80942 7.49226,-13.62482 15.357422,-13.63476 z m -13.652344,1.74219 c -0.356572,0.35442 -0.706523,0.71426 -1.035156,1.0957 0.32895,-0.38289 0.678142,-0.73992 1.035156,-1.0957 z m 28.529297,1.31054 c 0.137177,0.16431 0.258726,0.33294 0.390625,0.50196 -0.130689,-0.16715 -0.254756,-0.33944 -0.390625,-0.50196 z m -30.695312,1.24414 c -0.275443,0.38904 -0.534202,0.78927 -0.78125,1.19922 0.247251,-0.41114 0.505523,-0.80901 0.78125,-1.19922 z m 41.757812,2.49414 c -0.275536,0.0786 -0.551456,0.15345 -0.822265,0.2461 0.273349,-0.0945 0.54416,-0.16607 0.822265,-0.2461 z m 9.507813,0.1543 c 0.257307,0.0828 0.513999,0.1433 0.765625,0.23828 -0.249006,-0.0934 -0.511104,-0.15669 -0.765625,-0.23828 z m -52.951172,0.2207 c -0.205471,0.43207 -0.382565,0.87855 -0.556641,1.32813 0.174271,-0.45034 0.350947,-0.89526 0.556641,-1.32813 z m 35.457031,0.94532 c 0.01378,0.0335 0.04109,0.0581 0.05469,0.0918 l 2.976562,0.88281 c 0.02603,-0.0182 0.05786,-0.0249 0.08398,-0.043 -0.437043,0.30177 -0.835673,0.65919 -1.244141,1.0039 l -1.34375,-0.38086 c -0.165094,-0.52418 -0.321315,-1.0525 -0.527344,-1.55468 z m 22.431641,1.38476 c 0.183997,0.14029 0.349499,0.28783 0.527344,0.43555 -0.175894,-0.1454 -0.345459,-0.29739 -0.527344,-0.43555 z m -59.070313,0.83008 c -0.154094,0.5591 -0.264358,1.13555 -0.36914,1.71484 l -1.332031,0.66407 c -0.621941,-0.29914 -1.247938,-0.58426 -1.902344,-0.79493 0.269454,0.0877 0.549011,0.1322 0.814453,0.23438 l 2.636719,-1.3711 c 0.03865,-0.15469 0.110065,-0.29413 0.152343,-0.44726 z m -8.152343,0.78906 c 1.13351,0.004 2.251943,0.18511 3.355468,0.44922 -1.099548,-0.2556 -2.21712,-0.4455 -3.355468,-0.44922 z m -6.7871098,1.67578 c -4.91134486,2.49049 -8.3152687,7.53294 -8.3164062,13.41016 v 0.002 0.002 0.002 c 0.00219,1.38789 0.2143987,2.74087 0.578125,4.03906 -0.3672886,-1.29694 -0.5779722,-2.64945 -0.5800781,-4.03906 v -0.002 c 3.4e-6,-5.88016 3.40546962,-10.92378 8.3183593,-13.41407 z m 87.1621098,4.46485 c -0.27229,0.10303 -0.529391,0.23546 -0.792969,0.35742 0.266113,-0.12486 0.518113,-0.25205 0.792969,-0.35742 z m -7.210938,1.03125 c 0.02665,0.097 0.09422,0.17383 0.119141,0.27148 l 3.248047,0.98633 c 0.103187,-0.0926 0.241654,-0.13172 0.347656,-0.2207 -0.816626,0.68487 -1.536112,1.46695 -2.15625,2.35742 l -1.029297,-0.25977 c -0.07967,-1.07867 -0.252312,-2.12323 -0.529297,-3.13476 z m 21.16211,2.91406 c 0.47229,0.61995 0.68523,1.36419 1.02734,2.05469 -0.34023,-0.69015 -0.55671,-1.43495 -1.02734,-2.05469 z m -50.681641,1.84961 -1.982422,2.08398 -0.002,-0.0996 v 1.12891 l -0.501953,-0.46289 -2.802735,0.11523 c -0.01772,0.0192 -0.03482,0.0395 -0.05078,0.0566 l 0.03906,1.08399 -1.052735,-0.0645 c -0.03185,0.0282 -0.06564,0.0587 -0.101562,0.0898 l -0.07422,1.04687 -1.003906,-0.1582 c -0.06039,0.044 -0.119296,0.087 -0.175782,0.12695 l -0.164062,0.96094 -0.916016,-0.23828 c -0.08447,0.0495 -0.170018,0.0973 -0.257812,0.14649 l -0.25,0.88671 -0.833984,-0.30859 c -0.110814,0.0512 -0.224206,0.10227 -0.339844,0.15234 l -0.314453,0.79493 -0.744141,-0.35938 c -0.146578,0.0512 -0.295861,0.1007 -0.447266,0.14844 l -0.359375,0.68945 -0.642578,-0.39062 c -0.183844,0.0447 -0.368614,0.0868 -0.554687,0.125 L 42.169922,268.5 41.621094,268.08984 c -0.212758,0.0305 -0.428048,0.0562 -0.646485,0.0781 L 40.5,268.74805 39.949219,268.25781 c -0.233915,0.0137 -0.472166,0.0224 -0.710938,0.0254 l -1.958984,2.00782 0.05078,3.96875 2.007813,1.95898 c 0.360365,-0.004 0.717265,-0.0165 1.072265,-0.0371 l 0.63086,-0.70898 0.726562,0.59375 c 0.327811,-0.0329 0.652526,-0.0728 0.976563,-0.11914 l 0.597656,-0.79688 0.810547,0.53516 c 0.281071,-0.0576 0.56016,-0.11989 0.83789,-0.1875 l 0.56836,-0.9336 0.943359,0.49219 c 0.224894,-0.0709 0.450097,-0.14584 0.675781,-0.22461 l 0.517578,-1.07422 1.080079,0.42774 c 0.172939,-0.0749 0.344677,-0.15049 0.513671,-0.22852 l 0.439454,-1.19726 1.197265,0.33789 c 0.132002,-0.074 0.262222,-0.14936 0.390625,-0.22461 l 0.341797,-1.3125 1.304688,0.22461 c 0.08693,-0.0614 0.176968,-0.12545 0.267578,-0.19141 l 0.222656,-1.41211 1.388672,0.0977 c 0.05221,-0.0454 0.103748,-0.0901 0.154297,-0.13477 l 0.09375,-1.50976 1.474609,-0.0547 c 0.02459,-0.0265 0.04986,-0.0534 0.07617,-0.082 l -0.0078,-0.20313 c 0.603614,10e-4 1.206938,0.003 1.808594,0.008 l 0.332032,-0.32617 0.326171,0.33399 c 0.557019,0.006 1.108926,0.0128 1.65625,0.0215 l 0.38086,-0.36914 0.365234,0.38086 c 0.566028,0.0106 1.131089,0.0232 1.695313,0.0371 l 0.335937,-0.32031 0.320313,0.32812 c -0.113552,-0.007 -0.32624,-0.0195 -0.326172,-0.0195 l 0.28125,0.0273 c 0.702555,0.0188 1.3996,0.0404 2.09375,0.0645 l 0.412109,-0.38477 0.318359,0.39453 c 8.7e-5,2e-5 0.427649,0.0273 0.427735,0.0273 8.6e-5,-1e-5 -0.08603,0.002 -0.08594,0.002 l -0.07617,-0.002 c 0.373723,0.0144 0.741113,0.0295 1.101562,0.0449 l 0.08594,0.002 0.478515,-0.45703 0.386719,0.48242 c 8.6e-5,2e-5 0.425695,0.0274 0.425781,0.0274 8.6e-5,-1e-5 -0.08602,0.002 -0.08594,0.002 l -0.09375,-0.002 c 0.265241,0.0126 0.53032,0.0256 0.796875,0.0391 l 0.09961,0.002 c 8.6e-5,0 0.05851,-0.002 0.05859,-0.002 8.6e-5,0 -0.287196,-0.0117 -0.28711,-0.0117 l 0.742188,-0.62891 0.583984,0.69727 c 8.4e-5,10e-6 0.292882,0.0137 0.292969,0.0137 8.7e-5,0 -0.05672,0.002 -0.05664,0.002 l -0.107422,-0.004 c 0.135248,0.007 0.282805,0.016 0.445313,0.0254 l 0.113281,0.004 c 8.9e-5,0 0.08976,-0.002 0.08984,-0.002 8.5e-5,0 -0.418058,-0.0254 -0.417969,-0.0254 l 1.576172,-1.25781 1.128906,1.42969 c 9e-5,10e-6 0.415932,0.0254 0.416016,0.0254 8.4e-5,-1e-5 -0.08798,0.002 -0.08789,0.002 l -0.136718,-0.006 c 0.197799,0.0137 0.378792,0.0258 0.537109,0.0371 l -0.222656,-0.0293 c 6.6e-5,2e-5 0.264821,0.0198 0.371093,0.0273 l 0.623047,-0.58008 0.585938,0.68359 c 0.156661,0.0122 0.311646,0.0251 0.462891,0.0371 l 0.15625,0.006 c 8.4e-5,0 0.08585,-0.002 0.08594,-0.002 8.7e-5,-10e-6 -0.429772,-0.0293 -0.429687,-0.0293 l 2.322265,-1.79492 0.316406,-3.95703 -1.865234,-2.13867 c -0.146268,-0.0116 -0.292353,-0.0241 -0.435547,-0.0352 l -0.707031,0.64648 -0.619141,-0.74414 c -9e-5,-10e-6 -0.308509,-0.01 -0.308594,-0.01 -8.3e-5,0 0.195498,-2e-5 0.199219,0 -0.187217,-0.0132 -0.365951,-0.0241 -0.527343,-0.0352 l -0.01367,-0.002 c -8.2e-5,-1e-5 -0.206943,-0.002 -0.207032,-0.002 -8.8e-5,0 0.328206,0.0137 0.328125,0.0137 l 0.894532,1.01172 -0.978516,0.89453 -0.958984,-0.0332 -1.832032,-2.05859 c -0.153165,-0.009 -0.306837,-0.0185 -0.464843,-0.0273 l -0.695313,0.6582 -0.652344,-0.72852 c -1.1e-5,0 -0.01794,9e-5 -0.02344,0 -0.261133,-0.0132 -0.525625,-0.0263 -0.794922,-0.0391 l 1.076172,1.14063 -0.664063,0.62695 -1.751953,-1.82812 c -1.25e-4,0 0.05092,9.9e-4 0.08398,0.002 -0.370269,-0.0157 -0.735041,-0.0292 -1.095703,-0.043 l 1.86914,1.98242 -1.066406,-0.0215 -1.867188,-2.00196 c -0.712236,-0.0247 -1.431282,-0.0469 -2.15625,-0.0664 l 0.0625,0.004 c -1.72e-4,-10e-6 -0.115059,-0.004 -0.115234,-0.004 l 1.984375,1.98437 -0.666016,-0.01 -1.892578,-1.99024 c -0.576804,-0.0143 -1.158382,-0.0262 -1.74414,-0.0371 l -0.386719,0.37891 -0.38086,-0.39258 c -0.566635,-0.009 -1.133675,-0.0157 -1.701171,-0.0215 l -0.373047,0.30273 -0.304688,-0.31055 c -0.796499,-0.006 -1.599471,-0.01 -2.412109,-0.01 z m 11.150391,0.21289 c -0.01286,-4.9e-4 -0.02621,-0.001 -0.03906,-0.002 h -0.07617 c -1.72e-4,0 0.115407,0.002 0.115235,0.002 z m 2.351562,0.10156 c -0.0066,-3.1e-4 -0.01289,-0.002 -0.01953,-0.002 l -0.0957,-0.002 c -1.74e-4,0 0.115406,0.004 0.115234,0.004 z m 39.210938,1.94922 c 0.27082,0.96858 0.23348,1.9816 0.25976,2.99219 -0.024,-1.00802 0.008,-2.02581 -0.25976,-2.99219 z m -93.181641,1.25977 c -4.4e-5,-10e-6 0.107467,0.008 0.107422,0.008 -2.6e-5,0 -0.06377,-0.002 -0.125,-0.006 0.0012,-8e-5 0.01758,-0.002 0.01758,-0.002 z m 82.244141,0.30664 c -4.3e-5,0 -0.228477,0.0273 -0.228516,0.0273 -3.4e-5,1e-5 0.189616,-0.0196 0.248047,-0.0254 -0.0013,-1.2e-4 -0.01953,-0.002 -0.01953,-0.002 z m -84.511719,0.21875 c -1.9e-5,0 0.04819,0.003 0.0957,0.006 -0.01572,0.001 -0.111575,0.007 -0.222656,0.0137 0.04254,-0.007 0.126962,-0.0195 0.126953,-0.0195 z m -0.382813,0.0586 -0.03906,0.0644 -0.07813,-0.0469 c 0.03159,-0.005 0.06343,-0.009 0.117187,-0.0176 z m 86.355469,0.0625 c -4e-6,0 0.05412,0.0112 0.06641,0.0137 -0.11043,-0.002 -0.229325,-0.005 -0.263672,-0.006 0.08071,-0.003 0.197297,-0.008 0.197266,-0.008 z m -88.632813,0.7168 c -4.3e-5,0 0.194105,0.0208 0.185547,0.0195 -0.007,-10e-4 -0.142941,-0.0128 -0.199218,-0.0176 4.9e-4,-7e-5 0.01367,-0.002 0.01367,-0.002 z m 91.169916,0.10937 c 0,0 0,0.0116 0,0.0117 -0.007,-9.5e-4 -0.0502,-0.008 -0.0508,-0.008 0.0161,-10e-4 0.0508,-0.004 0.0508,-0.004 z m -92.7753842,0.44922 c -1.58e-5,0 0.069257,0.006 0.1289062,0.0117 -0.035908,0.004 -0.1668238,0.018 -0.3339844,0.0352 0.073773,-0.0168 0.2050883,-0.0469 0.2050782,-0.0469 z m 94.2148442,0.10742 c -2e-5,0 0.13266,0.0245 0.22461,0.041 -0.12676,-0.0171 -0.25774,-0.0358 -0.26758,-0.0371 0.0122,-0.001 0.043,-0.004 0.043,-0.004 z m -94.7148442,0.008 -0.085938,0.19336 L 8.2167969,266 c -1.76e-5,10e-6 0.1904919,-0.0424 0.3730469,-0.084 z m 95.0585942,0.0547 c 0.0809,0.0145 0.089,0.0158 0.16406,0.0293 0.024,0.004 0.0313,0.004 0.0527,0.008 -0.003,0.006 -0.0744,0.1375 -0.0937,0.17383 l -0.0644,0.0273 -0.18555,0.0762 z m 1.75,0.67969 c 0.0191,0.0109 0.0489,0.0274 0.0488,0.0273 0,0 -0.026,0.0426 -0.0273,0.0449 z m -0.14453,0.0977 c -6.9e-4,0.006 -0.005,0.0116 -0.006,0.0176 h -0.004 z m -0.0137,0.0234 0.002,0.01 c -0.0109,0.092 -0.0699,0.17952 -0.084,0.27148 L 105.12695,267 Z m 3.93555,0.41993 c -0.10499,0.99026 -0.53152,1.93178 -0.88867,2.89257 0.35666,-0.95735 0.7818,-1.90579 0.88867,-2.89257 z m -2.28906,0.33203 c 0.0772,0.0463 0.15231,0.089 0.20508,0.12109 l -0.14844,0.22266 -0.43945,0.41601 c 0.18703,-0.3726 0.38216,-0.75841 0.38281,-0.75976 z m -2.03125,0.0195 0.002,0.12891 c -0.0361,0.0608 -0.0407,0.0686 -0.0742,0.125 -0.007,-3e-4 -0.0447,-0.002 -0.0547,-0.002 z m -99.5800774,0.0234 c -0.040813,0.0319 -0.1047648,0.0819 -0.1074218,0.084 0.00279,-0.003 0.013677,-0.0156 0.013672,-0.0156 -8e-6,0 0.065166,-0.0473 0.09375,-0.0684 z m 99.3867174,0.36328 c 0.009,0.001 0.0314,0.003 0.0391,0.004 -0.0249,0.0419 -0.0439,0.0728 -0.0645,0.10743 l -0.0137,-0.0371 z m 3.05664,0.17969 c -4e-5,-4e-5 0.0377,0.0355 0.0644,0.0605 -0.0323,-0.0283 -0.0423,-0.0373 -0.0644,-0.0566 z m -109.1347636,1.02148 c 0.2830128,0.69315 0.53487929,1.40129 0.9160156,2.04297 -0.38525294,-0.64172 -0.6299382,-1.34929 -0.9160156,-2.04297 z m 3.9414062,1.33008 0.00195,0.004 c -0.00313,0.004 -0.00296,0.006 -0.00586,0.01 0.00201,-0.006 0.00219,-0.008 0.00391,-0.0137 z m 94.5664064,0.37695 c 0.05667,0.56001 0.117159,1.15235 0.117187,1.15234 5e-5,0 -0.199263,0.01 -0.199218,0.01 0,0 0,-0.05 0,-0.0527 -0.023,0.002 -0.04952,0.006 -0.05273,0.006 l 0.06445,0.11329 c 3.3e-5,10e-6 0.302339,0.0456 0.455078,0.0684 -0.116865,-0.007 -0.234395,-0.0137 -0.234374,-0.0137 l -0.148438,-0.0332 c 0.198695,0.0524 0.391886,0.10488 0.583984,0.1582 l 0.16211,0.0371 c 2e-5,1e-5 0.124375,0.008 0.248047,0.0156 -0.155056,-0.0242 -0.484407,-0.0762 -0.484375,-0.0762 l 0.138672,-0.0742 c -0.01023,8.7e-4 -0.02736,0.002 -0.02734,0.002 2e-6,0 -0.02281,-0.002 -0.02539,-0.002 0.02715,-0.002 0.03099,-0.002 0.05664,-0.004 l 0.1875,-0.0996 z m -94.888672,0.36523 c 6.532e-4,2.4e-4 0.020384,0.005 0.021484,0.006 -0.014402,0.0269 -0.023775,0.0476 -0.044922,0.0879 0.00111,-0.005 0.014616,-0.0562 0.023437,-0.0938 z m 92.537109,0.31836 c 0.03972,0.009 0.08153,0.0182 0.140625,0.0312 l 0.0293,-0.0195 c -0.07687,-0.006 -0.167335,-0.0115 -0.169922,-0.0117 z m 0.267578,0.0195 c 0.03737,0.006 0.121086,0.0195 0.121094,0.0195 2e-5,0 0.04847,-0.003 0.0957,-0.006 -0.0146,-0.001 -0.108716,-0.006 -0.216797,-0.0137 z m 12.714846,0.22265 c -0.0386,0.07 -0.0341,0.14925 -0.0742,0.21875 l -0.004,0.006 c -0.0292,0.05 -0.0968,0.12886 -0.13086,0.18164 l -0.0625,-0.0488 0.084,-0.0918 z m -11.371096,0.13477 c 0.08567,0.0213 0.153989,0.038 0.173829,0.043 l 0.0098,0.002 c 0,0 0.0057,-0.021 0.0059,-0.0215 -0.0459,-0.003 -0.126975,-0.01 -0.126954,-0.01 z m 0.277344,0.0293 c 0.110172,0.0139 0.226528,0.0293 0.226563,0.0293 2.1e-5,0 0.04379,-0.004 0.07031,-0.006 -0.02676,-0.002 -0.154125,-0.0127 -0.296875,-0.0234 z M 1.9667969,272.1543 3.3125,274.06445 c -0.052777,-0.0164 -0.1152344,-0.0352 -0.1152344,-0.0352 2.79e-5,2e-5 -1.0215071,-0.94145 -1.0214844,-0.94141 4.56e-5,9e-5 -0.1953372,-0.62127 -0.1953124,-0.62109 4.11e-5,2.9e-4 -0.01093,-0.20343 -0.013672,-0.3125 z m 12.1191411,0.0293 c 0.0073,10e-4 0.146422,0.0127 0.203124,0.0176 -5.02e-4,7e-5 -0.01367,0.002 -0.01367,0.002 4.3e-5,1e-5 -0.19826,-0.0208 -0.189453,-0.0195 z m 91.656252,0.0254 -0.002,0.0195 c -0.0204,0.0141 -0.048,0.0321 -0.0723,0.0488 v 0.0254 c -0.0489,0.0328 -0.0804,0.0553 -0.14063,0.0957 l -0.0176,-0.0117 c -0.005,0.003 -0.007,0.004 -0.0117,0.008 l 0.002,0.0215 c -0.0102,0.007 -0.013,0.009 -0.0234,0.0156 -0.0427,0.0201 -0.0519,0.0233 -0.0977,0.0449 -4.4e-4,3e-4 4.3e-4,0.002 0,0.002 -0.008,0.004 -0.01,0.002 -0.0176,0.006 l 0.002,0.004 c -0.008,0.006 -0.009,0.006 -0.0176,0.0117 0.003,-0.004 0.005,-0.008 0.008,-0.0117 -0.0317,0.0149 -0.0339,0.0159 -0.0664,0.0312 l -0.008,-0.008 c 0.0393,-0.0255 0.042,-0.026 0.0801,-0.0508 l 0.002,0.0176 c 0.003,-0.004 0.007,-0.008 0.01,-0.0117 l -0.006,-0.01 c 0.0124,-0.008 0.0132,-0.01 0.0254,-0.0176 0.0154,-0.0209 0.0327,-0.0451 0.0469,-0.0645 2.1e-4,-2.8e-4 0.002,2.8e-4 0.002,0 0.0114,-0.009 0.0143,-0.0111 0.0254,-0.0195 0.0136,-0.0103 0.0182,-0.0135 0.0312,-0.0234 v 0.004 c 0.074,-0.0518 0.11845,-0.0843 0.17383,-0.12305 l -0.002,0.0449 c 0.0247,-0.0165 0.0537,-0.0349 0.0742,-0.0488 z m -103.4199244,0.0957 0.3144532,0.50781 c -0.00369,0.003 -0.054688,0.043 -0.054688,0.043 0,0 -0.140625,-0.20117 -0.140625,-0.20117 5.5e-6,1e-5 -0.06074,-0.17809 -0.1191406,-0.34961 z m 103.0351544,0.13086 0.002,0.0117 -0.006,-0.008 c 0.002,-0.002 0.002,-0.002 0.004,-0.004 z m -6.658201,0.0312 c 0.117397,0.0146 0.240367,0.0301 0.25,0.0312 -0.0121,0.001 -0.04298,0.004 -0.04297,0.004 1.2e-5,0 -0.123664,-0.0213 -0.20703,-0.0352 z m 1.039062,0.33008 c 0.106525,0.002 0.201058,0.005 0.244141,0.006 -0.08234,0.003 -0.187529,0.006 -0.1875,0.006 4e-6,0 -0.04754,-0.01 -0.05664,-0.0117 z m -98.8554685,0.17773 c 0.3508119,0.42761 0.6650219,0.88133 1.0625,1.26953 -0.4005771,-0.38824 -0.7088276,-0.84197 -1.0625,-1.26953 z m 10.4511715,0.1582 0.02539,0.01 c -0.0069,8.3e-4 -0.01331,0.001 -0.01953,0.002 -6.94e-4,-0.002 -0.0051,-0.01 -0.0059,-0.0117 z m -0.318359,0.01 c 0.01787,0.002 0.148507,0.0127 0.203125,0.0176 -6.96e-4,8e-5 -0.01563,0.002 -0.01563,0.002 4.1e-5,0 -0.166758,-0.0174 -0.1875,-0.0195 z m 89.812495,0.0176 0.0488,0.13867 c 0,0 0.0545,-0.10412 0.0625,-0.11914 -0.0139,-0.002 -0.0746,-0.0129 -0.11133,-0.0195 z m 5.93165,0.0762 -0.39649,1.17187 v -0.26172 l 0.13867,-0.37109 -0.002,-0.002 0.004,-0.004 0.0117,-0.0351 -0.008,-0.008 0.0195,-0.0234 0.0488,-0.1289 -0.01,-0.008 0.0215,-0.0293 0.0469,-0.12695 c 0.0449,-0.0568 0.0814,-0.11645 0.125,-0.17383 z m -4.34961,0.008 c 0,0 0.004,0 0.004,0 l -0.004,0.006 c -3e-5,-3e-4 0,-0.006 0,-0.006 z m -0.28907,0.0742 c 0.006,0.0313 0.0332,0.18359 0.0332,0.18359 4e-5,-1e-5 -0.16802,0.0234 -0.16797,0.0234 0,0 -0.0117,-0.13209 -0.0137,-0.1543 z m 0.30079,0.0508 -0.0586,0.11328 0.0117,0.0195 0.0606,-0.0215 c -9.5e-4,-0.004 -0.005,-0.0214 -0.006,-0.0234 -7e-5,-3.3e-4 6e-5,-0.004 0,-0.004 -2.5e-4,-10e-4 -0.004,-0.0156 -0.004,-0.0156 0,0 0.002,0 0.002,0 -0.001,-0.0128 -0.003,-0.0357 -0.006,-0.0684 z m -0.1836,0.2793 c -0.0106,0.008 -0.0746,0.0578 -0.0781,0.0605 l -0.0234,0.041 c 0.002,0.003 0.0222,0.0239 0.0293,0.0312 0.004,-0.008 0.0633,-0.11598 0.0723,-0.13281 z m -0.54687,0.0195 c 0,0 0.04,0.0198 0.0703,0.0351 l 0.0293,-0.01 z m 0.78906,0.002 0.0449,0.0723 c -0.002,7.2e-4 -0.0243,0.0113 -0.0254,0.0117 -0.006,-0.0242 -0.0108,-0.046 -0.0195,-0.084 z m -92.298829,0.041 c -0.0298,0.0329 -0.06057,0.0684 -0.06055,0.0684 0,0 -0.0019,-10e-6 -0.002,0 2.4e-5,-3e-5 0.03239,-0.0351 0.0625,-0.0684 z m 91.798829,0.0293 0.0234,0.084 c 0,0 0.0378,-0.0631 0.041,-0.0684 z m 0.55273,0.0156 0.004,0.008 c -0.007,0.008 -0.0211,0.0247 -0.0273,0.0312 l -0.002,-0.002 c -0.001,-0.004 -0.004,-0.0205 -0.006,-0.0274 1.4e-4,-4e-5 0.0301,-0.009 0.0312,-0.01 z m -92.955075,0.01 0.078125,0.0215 c -0.0023,0.0115 -0.00876,0.0399 -0.00977,0.0449 l -0.056641,0.0215 -0.017578,-0.0508 z m 92.544925,0.01 -0.0488,0.0898 c 0.0226,0.013 0.0232,0.0125 0.0254,0.0137 0.006,0.004 0.0117,0.006 0.0117,0.006 0,0 0.0498,-0.0941 0.0527,-0.0996 z m 0.42383,0.002 0.004,0.008 -0.0273,0.01 c 7.5e-4,-5.6e-4 0.0223,-0.0168 0.0234,-0.0176 z m 0.006,0.32227 c 0.01,0.01 0.011,0.0113 0.0215,0.0215 -6e-5,8e-5 -0.002,0.002 -0.002,0.002 -0.0103,-0.0105 -0.01,-0.0112 -0.0195,-0.0215 z m 0.0273,0.0312 h 0.004 c 0.0207,0.0203 0.0225,0.021 0.043,0.041 v 0.006 c -0.0207,-0.0212 -0.0233,-0.0227 -0.0469,-0.0469 z m -0.0156,0.004 c -2.2e-4,3e-4 -0.0117,0.0156 -0.0117,0.0156 -0.0142,-0.0104 -0.01,-0.006 -0.01,-0.006 -5.2e-4,-3.7e-4 -0.003,-0.003 -0.004,-0.004 -3.4e-4,-2.5e-4 -0.002,-0.002 -0.002,-0.002 z m 0.0664,0.043 c 0.0212,0.0207 0.0269,0.0254 0.0449,0.043 -3e-5,5e-5 -0.002,0.006 -0.002,0.006 -0.0122,-0.0125 -0.0254,-0.0249 -0.0449,-0.0449 z m -0.004,0.006 0.002,0.0137 c 0.028,0.0245 0.001,0.002 0.0176,0.0156 -0.009,-0.006 -0.0146,-0.009 -0.0273,-0.0176 z m 3.40625,0.0937 c 3e-5,0 0.004,0.002 0.004,0.002 0.006,-0.009 -0.12505,0.16607 -0.125,0.16601 0,0 -0.01,-0.008 -0.01,-0.008 l 0.0664,-0.0859 z m -96.6093719,0.0137 c 2.6e-6,0 0.00195,-1e-5 0.00195,0 3.1e-6,0 0.00195,0.002 0.00195,0.002 4.78e-5,-7e-5 -0.00979,0.0137 -0.00977,0.0137 l -0.00195,-0.006 c 0.0015,-0.002 0.00248,-0.002 0.00391,-0.004 3.071e-4,-5e-4 0.00349,-0.005 0.00391,-0.006 z M 9.234405,274.3976 c 0.00589,0.005 0.068353,0.0586 0.068359,0.0586 6.68e-5,-8e-5 -0.1465394,0.15044 -0.1464844,0.15039 0,0 -0.099841,-0.1082 -0.1191406,-0.12891 z m -1.8632812,0.21485 0.027344,0.0117 -0.03125,0.0801 -0.025391,0.0117 z m 95.8554662,0.0527 c 0.0309,0.0183 0.0321,0.0199 0.0645,0.0391 -3e-4,5.2e-4 -0.0117,0.0215 -0.0117,0.0215 0,0 -0.0331,-0.0219 -0.0664,-0.043 9.3e-4,-10e-4 0.0125,-0.016 0.0137,-0.0176 z m 1.75782,0.008 0.0195,0.004 0.008,0.0254 z m 0.0391,0.008 h 0.004 l 0.0234,0.0605 -0.008,-0.008 z m 0.0488,0.008 0.0547,0.01 0.0176,0.0488 -0.0293,0.0625 -0.0273,-0.0293 z m -0.32813,0.0664 0.14258,0.0332 0.0664,0.24805 0.0606,-0.0117 -0.008,0.0156 -0.19141,0.0352 0.082,-0.0176 -0.0527,0.01 -0.002,-0.008 0.0215,-0.004 0.0312,-0.008 -0.0332,0.004 -0.041,-0.0605 z m 0.25391,0.0605 0.0605,0.0156 0.0195,0.0566 -0.0488,0.10156 z m 0.082,0.0215 h 0.006 l 0.008,0.0195 -0.004,0.006 z m 0.082,0.0195 0.0234,0.006 0.01,0.0293 z m 0.0781,0.0234 0.0195,0.0566 0.0176,-0.006 0.002,0.008 -0.0156,0.01 0.0176,-0.006 0.004,-0.002 h 0.002 v 0.002 l -0.006,0.002 0.006,0.0156 -0.0176,0.006 h -0.002 l -0.0371,0.0117 v 0.002 h -0.004 l -0.004,0.002 -0.0391,0.01 h -0.002 l -0.0117,0.008 h -0.002 l -0.0195,0.004 0.002,0.004 0.01,-0.004 -0.0234,0.0137 -0.0644,0.0117 0.0449,-0.0176 -0.0312,0.008 -0.0352,0.008 0.004,-0.004 -0.0176,0.004 -0.002,-0.008 h 0.002 0.002 l 0.043,-0.0156 0.0293,-0.0234 0.004,0.0117 0.0117,-0.006 -0.004,-0.0156 0.006,-0.004 -0.0117,-0.0293 -0.006,-0.0332 0.0215,0.0586 0.0684,-0.0527 0.0156,0.043 0.0273,-0.01 -0.0352,-0.0371 z m -98.1699175,0.12304 0.015625,0.004 -0.00195,0.008 -0.00391,-0.002 -0.011719,-0.006 z m 98.0722675,0.002 -0.0117,0.002 h -0.006 l -0.004,0.002 0.002,0.006 0.0215,-0.006 z m -98.0371112,0.0137 0.03125,0.006 v -0.004 l 0.052734,0.0137 h 0.00391 l 0.048828,0.008 -0.00391,0.01 -0.1308593,-0.0312 z m -3.203125,0.74023 c 0.4309275,0.30024 0.8389798,0.62436 1.3046874,0.88086 l 0.6152344,0.98438 v 113.39062 l -0.5957031,0.96875 c -0.5858475,0.33855 -1.1718072,0.66061 -1.5683594,1.06836 -0.00186,0.002 -0.00401,0.002 -0.00586,0.004 0.00187,-0.002 0.00203,-0.004 0.00391,-0.006 2.904e-4,-3e-4 0.00166,3e-4 0.00195,0 0.2866291,-0.29446 0.6998253,-0.60218 1.2246094,-0.92774 l 0.9375,-1.6875 V 278.19336 l -0.9824219,-1.71289 c -0.3456785,-0.2022 -0.6096947,-0.49618 -0.9355468,-0.72266 z m 102.4609362,1.02539 2.1543,1.97657 c 2.13502,-0.18521 4.30166,-0.3086 6.54101,-0.3086 3.63802,0 7.06217,0.29839 10.30274,0.76758 -3.24009,-0.46906 -6.66341,-0.76562 -10.30078,-0.76563 -2.69688,0 -5.26463,0.18091 -7.75391,0.44141 l -0.94336,-0.83789 z m 22.23828,3.11328 c 2.46536,0.50617 4.94398,1.00933 7.03516,1.79493 8.4e-4,3.1e-4 10e-4,0.002 0.002,0.002 -2.09189,-0.78586 -4.57091,-1.29061 -7.03711,-1.79688 z m -13.54297,5.16993 c -3.27853,0 -6.40311,0.23843 -9.25976,0.64843 l -1.21875,0.66407 -1.70117,1.96484 -0.48438,1.29883 v 91.79492 l 0.48438,1.30078 1.70117,1.96289 1.21875,0.66602 c 2.85654,0.41042 5.98072,0.64843 9.25976,0.64843 7.20787,0 13.64866,-1.09101 18.25196,-2.82031 2.30754,-0.86687 4.0077,-1.80624 5.24218,-2.90625 0.15709,-0.13995 0.29641,-0.26992 0.39063,-0.35937 0.0236,-0.0224 0.043,-0.0394 0.0703,-0.0664 0.0137,-0.0135 0.0257,-0.0248 0.0664,-0.0684 0.0204,-0.0218 0.13241,-0.15767 0.13281,-0.1582 1e-4,-1.3e-4 0.10541,-0.1542 0.10547,-0.1543 3e-5,-4e-5 0.0937,-0.16988 0.0937,-0.16992 0,0 -0.0374,-0.0187 -0.0391,-0.0195 l 0.63867,-1.44727 0.16992,-0.80273 v -83.00586 l -0.16797,-0.80078 -0.64258,-1.45508 c 0.002,-7.7e-4 0.0371,-0.0195 0.0371,-0.0195 -3e-5,-8e-5 -0.14835,-0.25184 -0.14843,-0.25195 -8e-5,-1.2e-4 -0.0559,-0.0785 -0.0742,-0.10157 -0.0732,-0.0923 -0.0912,-0.10552 -0.10938,-0.125 -0.0364,-0.0389 -0.0471,-0.0491 -0.0605,-0.0625 -0.0269,-0.0267 -0.0467,-0.0458 -0.0703,-0.0684 -0.0946,-0.0902 -0.23422,-0.22023 -0.39258,-0.36132 -1.23474,-1.10032 -2.93458,-2.03938 -5.24218,-2.90625 -4.60412,-1.72965 -11.0447,-2.81836 -18.25196,-2.81836 z m -6.99609,4.45703 -1.69922,1.90234 v -1.04297 l 0.6836,-0.78711 c 0.31646,-0.0418 0.69212,-0.0351 1.01562,-0.0723 z m 30.23828,1.25195 c -3e-5,-10e-6 0.20903,0.0879 0.20899,0.0879 -1e-4,-4e-5 0.18373,0.1036 0.18359,0.10352 -2.8e-4,-1.8e-4 0.10509,0.0719 0.12891,0.0898 0.0435,0.0327 0.0567,0.0429 0.0684,0.0527 l -1.60937,1.15429 c -0.38284,-0.41552 -0.99414,-1.08008 -0.99414,-1.08008 0,0 0.38086,-0.27539 0.38086,-0.27539 0,0 1.63285,-0.1328 1.63281,-0.13281 z m 1.02734,1.02539 -1.60156,1.15039 c 0.13331,0.43284 0.48828,1.58789 0.48828,1.58789 0,0 -0.32031,0.0703 -0.32031,0.0703 0,0 -0.15423,-1.15475 -0.2168,-1.62305 l -0.22851,0.16406 c 0.0721,-0.20105 0.18164,-0.50781 0.18164,-0.50781 0,0 1.5516,-0.76953 1.69726,-0.8418 z m -24.26953,1.20313 c 6.36389,0 12.19705,1.08439 15.46094,2.31054 h 0.002 c 0.88974,0.33424 1.25787,0.60041 1.72266,0.87696 v 78.69726 c -0.46481,0.27655 -0.83292,0.54273 -1.72266,0.87695 h -0.002 c -3.26478,1.22649 -9.09762,2.3125 -15.46094,2.3125 -1.65175,0 -3.18476,-0.15053 -4.72656,-0.2871 v -84.50196 c 1.54183,-0.13641 3.07462,-0.28515 4.72656,-0.28515 z m 20.37891,0.49414 c 0.0975,0.0761 0.38373,0.17793 0.46484,0.25 l 0.31055,0.70703 v 0.54297 z m 0.77539,82.58398 v 0.54102 l -0.31445,0.71093 c -0.0806,0.0715 -0.36422,0.17252 -0.46094,0.24805 z m 1.58984,2.10742 1.44727,1.04297 c -0.26824,-0.13189 -1.61719,-0.79492 -1.61719,-0.79492 0,0 0.12631,-0.18421 0.16992,-0.24805 z m 0.18165,1.14258 0.89648,0.64649 c -0.009,0.008 -0.0151,0.0128 -0.0391,0.0312 -0.018,0.0139 -0.0406,0.0307 -0.0899,0.0645 -0.0246,0.0168 -0.10754,0.0704 -0.10742,0.0703 1.2e-4,-7e-5 -0.28523,0.1387 -0.28515,0.13867 1e-5,0 -0.18772,-0.4758 -0.375,-0.95117 z m -31.6211,0.32422 1.69922,1.90039 c -0.32416,-0.0373 -0.70047,-0.0304 -1.01758,-0.0723 l -0.68164,-0.78711 z m 2.76563,12.68359 c 1.93262,0.15175 3.88071,0.28901 5.92968,0.28907 -1.25828,0 -2.49782,-0.0316 -3.71875,-0.0899 l -2.07812,2.03321 c 0.0158,0.61032 0.0156,0.60605 0.0156,0.0351 v 0.002 h -3.96875 c 0,0.0425 -0.0487,0.1902 0.0254,-0.27344 0.009,-0.058 0.0214,-0.13017 0.0508,-0.23242 0.0294,-0.10226 0.17211,-0.41449 0.17187,-0.41407 -2.4e-4,4.3e-4 0.55694,-0.63303 0.55664,-0.63281 -3e-4,2.2e-4 1.09607,-0.38478 1.0957,-0.38476 -2.2e-4,0 0.2693,0.0503 0.51758,0.0957 l 0.59766,1.8164 0.44726,-1.24609 c 0.12427,0.14121 0.10809,0.13246 0.084,0.0996 -0.0169,-0.023 -0.0517,-0.0669 -0.082,-0.10547 z m -103.3359012,0.5648 c 0,0 1.0703124,1.61523 1.0703124,1.61523 7e-7,0 -0.00424,0.0654 -0.00586,0.0879 H 2.9082031 c 0,-0.003 0.00193,-0.005 0.00195,-0.008 0.00213,-0.47369 0.2870123,-0.99261 0.6953126,-1.44726 6.629e-4,-7.4e-4 0.00129,-10e-4 0.00195,-0.002 0,0 0.087891,-0.0703 0.087891,-0.0703 0,0 2.0976563,-0.17578 2.0976563,-0.17578 z m -2.3261719,0.38281 c -0.097205,0.11806 -0.2137213,0.24513 -0.2734375,0.34375 0.00594,-0.01 0.013706,-0.0235 0.013672,-0.0234 -8.66e-5,1.3e-4 0.1836402,-0.24615 0.1835938,-0.2461 0,0 0.041541,-0.0403 0.076172,-0.0742 z M 2.90625,394.82422 c 6.7e-6,10e-6 0.00194,0.002 0.00195,0.002 v 19.9375 h 1.9277344 c -0.08851,0.0886 -1.0212441,1.02117 -1.2226563,1.22266 -0.3084995,-0.40327 -0.7040361,-0.80114 -0.7050781,-1.22071 -1.2e-6,-5e-4 8e-7,-10e-4 0,-0.002 -1.2e-6,-7.9e-4 -0.00195,-10e-4 -0.00195,-0.002 z m 2.1230469,19.93945 h 1.8359375 c -0.00352,0.0961 -0.00782,0.19541 -0.00781,0.19531 1.04e-5,-8e-5 -0.1113482,0.44928 -0.1113281,0.44922 0,0 -1.476514,-0.55429 -1.7167969,-0.64453 z m 100.2929731,0 h 1.55664 c -0.5187,0.0652 -1.55079,0.19525 -1.55079,0.19531 2e-5,10e-5 -0.002,-0.0992 -0.006,-0.19531 z m 2.00976,0 h 1.94336 c -8.2e-4,0.53807 -0.41133,1.06302 -0.9043,1.56641 -0.0433,-0.0652 -0.97486,-1.46964 -1.03906,-1.56641 z m 1.55664,1.12891 c -0.0261,0.0347 -0.0567,0.0763 -0.0566,0.0762 8e-5,-9e-5 -0.13288,0.14655 -0.13281,0.14648 2e-5,-10e-6 -0.0494,0.0394 -0.0801,0.0645 0.0832,-0.0945 0.20909,-0.20036 0.26953,-0.28711 z m -105.5878888,0.004 c 0.04393,0.0628 0.1376903,0.14206 0.1933594,0.20899 -8.62e-5,9e-5 -0.00781,0.008 -0.00781,0.008 6.46e-5,7e-5 -0.1328896,-0.14462 -0.1328125,-0.14453 7.6e-5,9e-5 -0.028728,-0.0404 -0.052734,-0.0723 z m 0.6777344,0.72657 c 0.00259,0.002 0.00326,0.004 0.00586,0.006 h -0.00195 c -0.00223,-0.002 -0.00169,-0.004 -0.00391,-0.006 z"
         style="color:#000000;font-style:normal;font-variant:normal;font-weight:normal;font-stretch:normal;font-size:medium;line-height:normal;font-family:sans-serif;font-variant-ligatures:normal;font-variant-position:normal;font-variant-caps:normal;font-variant-numeric:normal;font-variant-alternates:normal;font-feature-settings:normal;text-indent:0;text-align:start;text-decoration:none;text-decoration-line:none;text-decoration-style:solid;text-decoration-color:#000000;letter-spacing:normal;word-spacing:normal;text-transform:none;writing-mode:lr-tb;direction:ltr;text-orientation:mixed;dominant-baseline:auto;baseline-shift:baseline;text-anchor:start;white-space:normal;shape-padding:0;clip-rule:nonzero;display:inline;overflow:visible;visibility:visible;opacity:1;isolation:auto;mix-blend-mode:normal;color-interpolation:sRGB;color-interpolation-filters:linearRGB;solid-color:#000000;solid-opacity:1;vector-effect:none;fill:#6c5d53;fill-opacity:1;fill-rule:nonzero;stroke:none;stroke-width:3.96875;stroke-linecap:butt;stroke-linejoin:bevel;stroke-miterlimit:4;stroke-dasharray:none;stroke-dashoffset:0;stroke-opacity:1;color-rendering:auto;image-rendering:auto;shape-rendering:auto;text-rendering:auto;enable-background:accumulate" />
      <path
         inkscape:connector-curvature="0"
         id="path4445"
         d="m 39.287008,231.35228 c -9.921108,0.008 -18.412509,6.83332 -20.764108,16.24449 -1.937173,-0.74568 -3.994054,-1.15807 -6.0849,-1.16324 h -0.0046 c -9.4072861,1e-5 -17.0759551,7.66868 -17.0759606,17.07596 v 0.003 c 0.00842,6.08341 3.2821117,11.64135 8.4790689,14.68128 v 112.24067 c -0.5942071,0.36862 -1.145459,0.76102 -1.6030029,1.23145 -0.7263448,0.74684 -1.3110311,1.77189 -1.3110311,2.94246 v 20.15434 c 0,1.40616 0.8128677,2.55691 1.7730184,3.37601 0.9601507,0.81912 2.1618365,1.45925 3.622001,2.06086 2.9203293,1.20322 6.9023093,2.20665 11.7930783,3.05615 9.78154,1.69897 23.156384,2.72902 37.981144,2.72902 14.82476,0 28.199603,-1.03005 37.981143,-2.72902 4.89077,-0.8495 8.872751,-1.85293 11.793081,-3.05615 1.46016,-0.60161 2.66185,-1.24174 3.622,-2.06086 0.96015,-0.8191 1.77302,-1.96985 1.77302,-3.37601 v -20.15434 c 0,-0.0312 -0.0142,-0.0564 -0.015,-0.0873 1.25031,0.0597 2.52082,0.0925 3.81269,0.0925 8.04932,0 15.36524,-1.14637 21.2757,-3.36672 2.94335,-1.10575 5.64226,-2.48941 7.93905,-4.53618 2.35636,-2.09981 4.50774,-5.31614 4.50774,-9.30796 V 293.6781 c 0,-3.99179 -2.15152,-7.20775 -4.50774,-9.30743 -2.29666,-2.04669 -4.99549,-3.43091 -7.93905,-4.53668 -5.91047,-2.22041 -13.22638,-3.36672 -21.2757,-3.36672 -2.31238,0 -4.53739,0.12764 -6.71174,0.31626 V 274.409 c 0.3548,-0.46527 0.72217,-0.92234 1.017,-1.42835 l 0.004,-0.007 c 3.89995,-6.75492 1.56972,-15.4508 -5.18521,-19.35075 -2.34993,-1.35678 -5.040485,-2.01003 -7.75095,-1.88206 -3.303117,0.15602 -6.381726,1.48051 -8.778277,3.63131 -2.044068,-8.0095 -9.304645,-13.96555 -17.937922,-13.96556 h -0.0026 c -3.812341,0.005 -7.495087,1.20145 -10.580748,3.35793 -3.23051,-7.9926 -11.026661,-13.40304 -19.841683,-13.4121 z m -5.16e-4,3.96875 h 10e-4 c 8.036528,0.009 15.011725,5.47434 16.942117,13.27568 l 3.31556,0.94051 c 2.717048,-2.66297 6.36607,-4.15613 10.17044,-4.16202 8.061222,0 14.554038,6.48863 14.561902,14.54795 -0.0033,0.12502 -0.008,0.25027 -0.01447,0.37517 l 3.774445,0.95395 c 0.07598,-0.16008 0.157112,-0.31798 0.241329,-0.47388 1.738768,-3.00028 4.875422,-4.90943 8.340061,-5.07307 1.951344,-0.0921 3.887724,0.37817 5.579504,1.35496 4.80395,2.77355 6.4682,8.78929 3.8623,13.64051 l -1.94458,2.15593 c 7.3e-4,6.6e-4 3.1e-4,-1.3e-4 10e-4,5.3e-4 0.0376,0.0339 0.0523,0.0477 0.0439,0.0398 -1.6e-4,-1.6e-4 0.001,6.6e-4 0.001,5e-4 l 1.66036,-1.75752 c -0.26703,0.43892 -0.56235,0.8594 -0.89245,1.25317 l -0.66456,0.60926 c 0.006,0.007 -0.004,-0.004 0.002,0.002 0.0494,0.0541 0.066,0.0723 0.0145,0.0145 -0.004,-0.005 0.007,0.007 0.002,0.002 l 0.56741,-0.50538 -0.12299,0.33123 -0.36949,0.26614 c -0.005,-0.007 0.005,0.007 5.2e-4,5.1e-4 -0.0823,-0.11417 -0.0719,-0.10044 0.005,0.0103 0.005,0.007 -0.005,-0.007 5.1e-4,5.1e-4 l 0.35089,-0.24183 -0.0475,0.12763 -0.1664,0.092 h 0.002 l 0.0434,-0.007 0.002,-5.1e-4 0.10749,-0.0538 -0.0129,0.0346 -0.016,0.006 0.006,-0.001 0.009,-10e-4 -0.002,0.004 -0.0331,0.007 -0.007,0.002 -0.0873,0.0336 0.0217,-0.007 -0.0119,0.005 0.11783,-0.0393 -0.26149,0.70485 v 5.15834 l 2.21744,1.97043 c 2.677,-0.31676 5.51199,-0.48162 8.46305,-0.48162 7.6684,0 14.56475,1.11654 19.88044,3.11349 2.66952,1.00285 4.88677,2.17408 6.69365,3.78428 1.74734,1.5571 3.17965,3.80418 3.17965,6.34431 v 83.72459 c 0,2.54013 -1.43245,4.78787 -3.17965,6.34484 -1.80675,1.61007 -4.02393,2.7808 -6.69365,3.78375 -5.3157,1.99695 -12.21205,3.11352 -19.88044,3.11352 -2.52759,0 -4.96919,-0.12235 -7.30188,-0.35605 l -1.3007,3.62458 c 0.85798,0.57332 0.83613,0.85878 0.83613,0.69503 v 20.15434 c 0,-0.12679 0.0718,-0.0292 -0.38034,0.35656 -0.45215,0.38573 -1.33399,0.90699 -2.55799,1.41128 -2.44799,1.00862 -6.237671,1.99459 -10.960049,2.81483 -9.444763,1.64047 -22.662343,2.67062 -37.302117,2.67062 -14.639774,0 -27.857354,-1.03015 -37.302115,-2.67062 -4.722381,-0.82024 -8.512055,-1.80621 -10.9600548,-2.81483 -1.2240001,-0.50429 -2.1058325,-1.02555 -2.5579834,-1.41128 -0.4521507,-0.38574 -0.3803386,-0.48335 -0.3803386,-0.35656 V 394.609 c 0,0.10726 -0.071349,0.0905 0.1875854,-0.17568 0.2589344,-0.26625 0.8162869,-0.67284 1.6340089,-1.08419 l 1.0924397,-1.77249 V 277.05441 l -1.1146607,-1.78387 c -4.5028581,-2.19488 -7.35648985,-6.7519 -7.36440817,-11.76105 v -0.002 c -5e-7,-3.4e-4 4.8e-7,-6.8e-4 0,-0.001 0.001405,-7.25964 5.84319217,-13.1021 13.10255867,-13.10463 6.91e-4,1e-5 0.0014,0 0.0021,0 2.304524,0.006 4.566435,0.61955 6.558256,1.77871 l 2.967777,-1.47795 c 1.058966,-8.78707 8.479441,-15.37302 17.329693,-15.38201 z m 16.805174,27.01851 v 3.96874 c 0.792416,0 1.5797,0.004 2.365229,0.0103 l 0.03204,-3.96876 c -0.793609,-0.006 -1.591693,-0.0103 -2.39727,-0.0103 z m 3.070098,0.0176 -0.04134,3.96874 c 0.559234,0.006 1.11506,0.0129 1.667081,0.0217 l 0.06408,-3.96876 c -0.561628,-0.009 -1.124934,-0.0159 -1.689817,-0.0217 z m 2.452563,0.0351 -0.07441,3.9677 c 0.571468,0.0107 1.140198,0.0237 1.706872,0.0377 l 0.09818,-3.96771 c -0.573169,-0.0142 -1.149416,-0.0269 -1.730642,-0.0377 z m 2.35386,0.0527 -0.106971,3.96773 c 1.75e-4,0 3.44e-4,-3e-5 5.19e-4,0 0.708231,0.019 1.411179,0.0409 2.109949,0.0651 l 0.137459,-3.96669 c -0.707761,-0.0245 -1.421265,-0.0468 -2.14044,-0.0661 -1.72e-4,-10e-6 -3.41e-4,0 -5.16e-4,0 z m 3.157948,0.1049 -0.152445,3.96564 c 1.72e-4,3e-5 3.41e-4,0 5.16e-4,0 0.374528,0.0144 0.745717,0.0289 1.111043,0.0445 1.7e-4,0 3.47e-4,0 5.16e-4,0 l 0.168982,-3.96565 c -1.72e-4,0 -3.44e-4,10e-6 -5.16e-4,0 -0.376865,-0.016 -0.753449,-0.0301 -1.12758,-0.0444 -1.72e-4,0 -3.44e-4,10e-6 -5.16e-4,0 z m 2.352828,0.10025 -0.187587,3.96461 c 1.72e-4,3e-5 3.47e-4,0 5.16e-4,0 0.267267,0.0127 0.53431,0.0258 0.802537,0.0393 1.72e-4,0 3.44e-4,-2e-5 5.16e-4,0 l 0.199988,-3.96359 c -1.69e-4,-10e-6 -3.47e-4,1e-5 -5.16e-4,0 -0.269446,-0.0136 -0.540803,-0.0273 -0.814938,-0.0403 -1.74e-4,0 -3.44e-4,1e-5 -5.16e-4,0 z m 2.169377,0.11111 -0.22066,3.96254 c 1.67e-4,2e-5 3.5e-4,0 5.16e-4,0 0.146397,0.008 0.295733,0.0174 0.451655,0.0264 1.77e-4,0 3.38e-4,-3e-5 5.16e-4,0 l 0.227893,-3.96257 c -1.69e-4,-1e-5 -3.49e-4,10e-6 -5.18e-4,0 -0.148291,-0.009 -0.299776,-0.0175 -0.458886,-0.0264 -1.8e-4,-10e-6 -3.38e-4,1e-5 -5.16e-4,0 z m 3.208073,0.2005 -0.27337,3.95944 c 1.8e-4,3e-5 3.39e-4,0 5.16e-4,0 0.189196,0.0131 0.371737,0.0245 0.542605,0.0367 1.61e-4,3e-5 3.54e-4,0 5.16e-4,0 l 0.28267,-3.95841 c -1.8e-4,-2e-5 -3.39e-4,10e-6 -5.16e-4,0 -0.191243,-0.0136 -0.376859,-0.0257 -0.551905,-0.0377 -1.64e-4,-10e-6 -3.54e-4,2e-5 -5.16e-4,0 z m 1.945616,0.14211 v 5.2e-4 l -0.306959,3.95635 c 0.158369,0.0123 0.314082,0.0246 0.466122,0.0367 1.69e-4,0 3.49e-4,-3e-5 5.19e-4,0 l 0.315743,-3.95636 c -1.75e-4,-1e-5 -3.44e-4,10e-6 -5.19e-4,0 -0.01152,-9.2e-4 -0.0226,-0.002 -0.0341,-0.003 -0.148703,-0.0118 -0.296121,-0.0234 -0.440801,-0.0346 z m -51.980805,1.10588 c -0.434293,0.059 -0.841861,0.12029 -1.241785,0.17828 l 0.569474,3.92742 c 0.41242,-0.0598 0.807049,-0.1188 1.206645,-0.17312 z m 62.698497,0.0207 -0.537435,3.93258 c 0.04367,0.006 0.07884,0.0104 0.104904,0.0139 l 0.541568,-3.93153 c -0.04496,-0.006 -0.08153,-0.0112 -0.109037,-0.015 z m -35.258311,0.23616 c -0.01898,0.0206 -0.03829,0.0415 -0.05736,0.062 l 2.907316,2.70165 c 0.02341,-0.0252 0.04648,-0.0501 0.06976,-0.0754 z m -29.675192,0.0656 c -0.4088,0.0624 -0.793401,0.12633 -1.170471,0.18758 l 0.636653,3.91708 c 0.385783,-0.0627 0.756098,-0.12399 1.132231,-0.18138 z m -2.148189,0.34778 c -0.383973,0.0657 -0.745976,0.1324 -1.100191,0.19688 l 0.711067,3.90467 c 0.359546,-0.0654 0.706282,-0.12928 1.05885,-0.18965 z m -2.0252,0.36743 c -0.373751,0.0717 -0.726006,0.14409 -1.069702,0.21445 l 0.795817,3.88813 c 0.345825,-0.0708 0.68124,-0.13973 1.02216,-0.20516 z m -1.892907,0.38497 c -0.351794,0.0757 -0.685588,0.15232 -1.009758,0.22688 -1.58e-4,3e-5 -3.59e-4,-5e-5 -5.16e-4,0 l 0.889351,3.86747 c 1.65e-4,-6e-5 3.51e-4,2e-5 5.17e-4,0 0.321133,-0.0738 0.635786,-0.14566 0.955497,-0.21447 z m 34.534326,0.0512 c -0.03852,0.0341 -0.07745,0.0681 -0.116274,0.10181 l 2.602426,2.9962 c 0.04764,-0.0414 0.09484,-0.0828 0.14211,-0.12454 z m 44.92594,0.0155 -0.851112,3.87676 c 1.48e-4,5e-5 3.68e-4,-3e-5 5.16e-4,0 0.05401,0.0119 0.113919,0.0256 0.180351,0.0403 l 0.86093,-3.87469 c -0.05616,-0.0125 -0.119507,-0.0268 -0.190685,-0.0424 z m -81.268425,0.34674 c -0.454041,0.11025 -0.9118,0.22376 -1.357023,0.34314 -1.59e-4,5e-5 -3.57e-4,-3e-5 -5.17e-4,0 l 1.027845,3.83336 c 1.51e-4,-5e-5 3.65e-4,6e-5 5.16e-4,0 0.394305,-0.10567 0.82346,-0.21203 1.265556,-0.31935 z m 83.075032,0.0749 -0.957049,3.85196 c 4.08e-4,1.1e-4 6.28e-4,-8e-5 0.001,0 0.07347,0.0183 0.134662,0.0328 0.1788,0.0439 1.22e-4,3e-5 3.97e-4,-5e-5 5.16e-4,0 l 0.967901,-3.84887 c -2.01e-4,-5e-5 -3.17e-4,6e-5 -5.18e-4,0 -0.07671,-0.0193 -0.141057,-0.035 -0.189651,-0.047 -2.51e-4,-5e-5 -7.86e-4,8e-5 -0.001,0 z m 0.824756,0.21085 -1.012341,3.83749 c 1.64e-4,5e-5 3.52e-4,-3e-5 5.16e-4,0 0.207307,0.0547 0.40907,0.10943 0.608748,0.16486 1.59e-4,3e-5 3.6e-4,-5e-5 5.16e-4,0 l 1.061953,-3.82408 c -1.59e-4,-2e-5 -3.6e-4,6e-5 -5.18e-4,0 -0.216295,-0.06 -0.434671,-0.1193 -0.658358,-0.17827 -1.64e-4,-3e-5 -3.52e-4,5e-5 -5.16e-4,0 z m -85.257844,0.0574 c -0.792614,0.21249 -1.541794,0.43246 -2.244308,0.66096 -0.184717,0.0601 -0.356146,0.11871 -0.519348,0.17465 -1.46e-4,5e-5 -3.71e-4,-6e-5 -5.16e-4,0 l 1.286226,3.7548 c 1.6e-4,-5e-5 3.56e-4,6e-5 5.17e-4,0 0.15937,-0.0546 0.310346,-0.10623 0.460436,-0.15501 0.626995,-0.20389 1.30996,-0.40519 2.04432,-0.60204 z m 86.623134,0.32298 -1.121894,3.80701 c 1.61e-4,5e-5 3.54e-4,-6e-5 5.16e-4,0 v 5e-4 c 0.202043,0.0595 0.399356,0.11911 0.590663,0.1788 l 1.182354,-3.78838 v -5.3e-4 c -0.21383,-0.0667 -0.43113,-0.13247 -0.651639,-0.1974 z m -50.250161,0.0682 c -0.06587,0.048 -0.1319,0.0956 -0.198437,0.14263 l 2.290299,3.24115 c 0.08165,-0.0577 0.163076,-0.11584 0.243911,-0.17468 z m 51.35345,0.27233 -1.228344,3.77344 c 1.58e-4,2e-5 3.57e-4,-6e-5 5.15e-4,0 0.253619,0.0825 0.498609,0.16634 0.736389,0.25061 1.5e-4,5e-5 3.7e-4,-5e-5 5.2e-4,0 l 1.32653,-3.74034 c -1.5e-4,-5e-5 -3.7e-4,6e-5 -5.1e-4,0 -0.26907,-0.0954 -0.54727,-0.19018 -0.83458,-0.28371 -1.6e-4,-5e-5 -3.6e-4,5e-5 -5.2e-4,0 z m -90.67353,0.23463 c -0.170177,0.0594 -0.323943,0.11639 -0.4656047,0.16846 -1.392e-4,6e-5 -3.779e-4,-5e-5 -5.17e-4,0 l 1.3689087,3.72483 c 1.64e-4,-5e-5 3.53e-4,6e-5 5.17e-4,0 0.14512,-0.0533 0.277705,-0.10226 0.405143,-0.14676 z m 91.91687,0.19791 -1.38131,3.72071 c 1.5e-4,5e-5 3.6e-4,-6e-5 5.1e-4,0 0.1831,0.068 0.35991,0.13626 0.53072,0.20462 2e-4,8e-5 3.2e-4,4.5e-4 5.2e-4,5.3e-4 l 1.47433,-3.68503 c -1.5e-4,-8e-5 -3.7e-4,5e-5 -5.2e-4,0 -6e-5,-3e-5 6e-5,-5.1e-4 0,-5.3e-4 -0.20115,-0.0804 -0.40898,-0.16061 -0.62373,-0.2403 -1.6e-4,-5e-5 -3.7e-4,6e-5 -5.2e-4,0 z m -92.5809122,0.0429 c -0.1438207,0.0541 -0.272397,0.10472 -0.3896405,0.15089 l 1.4541747,3.69279 c 0.120724,-0.0475 0.228511,-0.0904 0.331763,-0.12917 z m 38.5640532,0.20878 c -0.0966,0.0566 -0.193778,0.11216 -0.291454,0.1669 l 1.940967,3.46234 c 0.119862,-0.0672 0.239051,-0.13568 0.3576,-0.20516 z m -39.2234446,0.0491 c -0.117797,0.048 -0.2216407,0.0924 -0.3141927,0.13179 l 1.5533933,3.65247 c 0.09684,-0.0412 0.180687,-0.0772 0.258899,-0.10903 1.33e-4,-6e-5 3.84e-4,5e-5 5.17e-4,0 l -1.4980999,-3.67523 c -1.648e-4,8e-5 -3.519e-4,-5e-5 -5.167e-4,0 z m 94.2702136,0.10594 -1.54254,3.65662 c 1.5e-4,8e-5 3.7e-4,-5e-5 5.2e-4,0 0.18301,0.0773 0.3572,0.1546 0.52296,0.23151 3.4e-4,1.6e-4 7e-4,3.8e-4 10e-4,5.3e-4 l 1.67018,-3.60029 c -3.4e-4,-1.6e-4 -7e-4,-3.7e-4 -0.001,-5.3e-4 -0.2088,-0.0968 -0.42513,-0.19277 -0.6506,-0.28784 -1.5e-4,-5e-5 -3.7e-4,6e-5 -5.2e-4,0 z m -94.8841295,0.15502 c -0.1131882,0.0502 -0.2073101,0.0946 -0.2852539,0.13076 l 1.6681151,3.60082 c 0.091007,-0.0422 0.1643393,-0.0764 0.2263423,-0.10388 z m -0.5767091,0.26771 c -0.1089668,0.0529 -0.2059422,0.10258 -0.2924887,0.14674 -1.22e-4,8e-5 -3.945e-4,-6e-5 -5.167e-4,0 l 1.8040244,3.53467 c 1.537e-4,-8e-5 3.627e-4,8e-5 5.167e-4,0 0.082152,-0.0419 0.1545423,-0.0785 0.2206583,-0.11057 z m 96.4809286,0.0393 -1.75131,3.56153 c 0,0 5.1e-4,0 5.1e-4,0 -3e-5,0 0.015,0.008 0.0455,0.0228 6.8e-4,3.1e-4 3.4e-4,1.6e-4 10e-4,5e-4 l 1.7663,-3.55378 c -9e-5,-5e-5 -9.4e-4,-4.7e-4 -10e-4,-5.3e-4 -0.004,-0.002 -0.0247,-0.0129 -0.0605,-0.0305 -2.4e-4,-1e-4 -2.8e-4,1.1e-4 -5.2e-4,0 z m -57.580977,0.19844 c -0.126928,0.0586 -0.254627,0.11549 -0.382923,0.17105 l 1.577165,3.64215 c 0.157438,-0.0682 0.313981,-0.1384 0.469739,-0.21032 z m -39.4270511,0.0305 c -0.105119,0.056 -0.2035683,0.11023 -0.2966228,0.1628 -1.937e-4,1e-4 -3.23e-4,3.9e-4 -5.167e-4,5e-4 l 1.9518188,3.45562 c 2.111e-4,-1.3e-4 3.056e-4,-4e-4 5.167e-4,-5.3e-4 0.071771,-0.0405 0.1408523,-0.0787 0.2103231,-0.11576 z m 97.5552881,0.0538 -1.89498,3.48711 c 3e-4,1.8e-4 2.3e-4,-1.6e-4 5.2e-4,0 0.0271,0.0148 0.0398,0.0218 0.0377,0.0207 -2e-5,-3e-5 5.4e-4,0 5.2e-4,0 l 1.90841,-3.47991 c -2.5e-4,-1.3e-4 -2.7e-4,1.3e-4 -5.2e-4,0 -0.0316,-0.0173 -0.0487,-0.0265 -0.0512,-0.0279 -2e-5,-2e-5 -5e-4,0 -5.1e-4,0 z m -98.0829046,0.24339 c -0.086008,0.051 -0.1675119,0.10057 -0.2444295,0.14883 -1.918e-4,1.1e-4 -3.249e-4,4e-4 -5.167e-4,5e-4 l 2.1099486,3.36156 c 2.08e-4,-1.3e-4 3.091e-4,-3.7e-4 5.168e-4,-5e-4 0.054018,-0.0339 0.1065712,-0.0665 0.1591635,-0.0977 z m -0.4904094,0.30798 c -0.076075,0.0508 -0.1533459,0.10361 -0.2315104,0.15917 v 5.3e-4 l 2.2996014,3.2339 v 5.3e-4 c 0.040368,-0.0287 0.085954,-0.06 0.135392,-0.093 z m 38.868944,0.0238 c -0.167286,0.0584 -0.335894,0.11415 -0.504878,0.16743 l 1.193726,3.78479 c 0.207367,-0.0654 0.413284,-0.13351 0.618566,-0.20516 z m 60.73686,0.0532 -2.24844,3.27059 c -0.001,-9.5e-4 0.003,0.002 0.003,0.002 -0.0137,-0.009 -0.004,-0.002 0.0165,0.0119 0.003,0.002 -10e-4,-0.001 0.003,0.002 l 2.26912,-3.25612 c 2.7e-4,1.8e-4 -0.003,-0.002 -0.003,-0.002 0.009,0.006 -0.006,-0.005 -0.0372,-0.0264 -0.002,-10e-4 -3.6e-4,-2e-5 -0.003,-0.002 z M 5.9024821,269.50344 c -1.728e-4,1.3e-4 -3.44e-4,4e-4 -5.167e-4,5.3e-4 -0.06612,0.0501 -0.1390063,0.10626 -0.2185914,0.17103 l 2.5052734,3.07787 c 0.025123,-0.0204 0.063369,-0.05 0.1105877,-0.0858 2.444e-4,-1.9e-4 2.714e-4,-3.2e-4 5.167e-4,-5.1e-4 z m 100.4749979,0.0734 -2.44274,3.12798 c 0.008,0.007 0.0228,0.018 0.0382,0.0305 0.004,0.003 0.005,0.004 0.01,0.008 5.7e-4,4.7e-4 4.5e-4,5.8e-4 0.001,0.001 l 2.49597,-3.08613 c -3e-4,-2.4e-4 -7.2e-4,-7.9e-4 -0.001,-10e-4 -0.0245,-0.0198 -0.0581,-0.0465 -0.0997,-0.0791 -6.1e-4,-4.8e-4 -9.4e-4,-5.6e-4 -0.002,-10e-4 z m -62.795645,0.13645 c -0.207489,0.0505 -0.415565,0.0971 -0.624768,0.14004 l 0.796851,3.88813 c 0.25672,-0.0526 0.512775,-0.11009 0.767395,-0.17208 z m -38.1191195,0.15036 c -0.039491,0.0349 -0.1001025,0.0875 -0.1803506,0.16383 -1.262e-4,1.1e-4 -3.905e-4,-1.3e-4 -5.167e-4,0 l 2.7341999,2.87631 c 2.9e-6,0 5.13e-4,0 5.167e-4,0 9.366e-4,-9e-4 0.026781,-0.0245 0.073381,-0.0656 z m 36.4401535,0.19018 c -0.24252,0.0347 -0.48591,0.0639 -0.729673,0.0884 l 0.395843,3.94909 c 0.29913,-0.03 0.597429,-0.0665 0.895035,-0.10903 z M 5.0720418,270.2383 c -0.03242,0.034 -0.089884,0.0922 -0.1700154,0.18399 l 2.9899982,2.60964 c -0.010775,0.0124 0.00811,-0.009 0.05116,-0.0537 z m 34.9921792,5.3e-4 c -0.266583,0.0156 -0.533453,0.0246 -0.800468,0.0279 l 0.04961,3.96875 c 0.327665,-0.004 0.655232,-0.0161 0.982369,-0.0351 z m -35.3477131,0.41135 c -2.22e-5,2e-5 2.25e-5,4.7e-4 0,5e-4 -0.013719,0.0177 -0.066382,0.0794 -0.1519287,0.20206 -3.866e-4,5.6e-4 -1.289e-4,4.8e-4 -5.168e-4,0.001 l 3.2561321,2.26859 c -7.191e-4,0.001 0.00119,-0.002 5.167e-4,-10e-4 -0.027347,0.0392 -0.017593,0.0254 0.029456,-0.0351 4.164e-4,-5.3e-4 -4.22e-4,2e-5 0,-5.1e-4 z m -0.3193602,0.46561 c 0.00431,-0.007 -0.042141,0.0586 -0.1255739,0.21857 l 3.385323,1.76475 0.073897,0.0129 h 0.00103 z m -0.2671673,0.52864 c 0.02508,-0.06 -0.01396,0.004 -0.088883,0.21963 -1.514e-4,4.2e-4 1.513e-4,8e-5 0,5e-4 l 3.4835081,1.21182 0.0031,5.3e-4 0.05271,0.009 z m -0.1943034,0.5979 c 0.025546,-0.10961 -0.0025,-0.0466 -0.045992,0.20463 l 3.5858275,0.62063 z m 100.784033,0.8232 -0.0708,0.015 -0.006,0.002 0.0233,-0.008 0.004,-10e-4 z m -97.1692667,0.0196 0.162781,0.0563 -0.098185,-0.0413 -0.060462,-0.014 z m 96.9666867,0.0238 -0.003,5e-4 -0.0444,0.01 -0.003,5.3e-4 -0.0785,0.0434 c -0.002,-0.003 0.002,0.003 5.1e-4,5.3e-4 -0.0179,-0.0326 -0.0212,-0.0393 0.002,0.007 4.4e-4,8.7e-4 6e-5,-9e-4 5.2e-4,0 6e-5,1.9e-4 4.6e-4,-6.6e-4 5.1e-4,-5e-4 4e-5,10e-5 2.8e-4,9e-4 -0.002,-0.005 l 0.032,-0.0103 0.004,-0.002 0.005,-0.002 z m -0.12505,0.062 c 10e-4,0.003 -0.002,-0.003 0,5.3e-4 h 5.1e-4 c 1.4e-4,3.7e-4 -1.1e-4,-8.2e-4 0,-5.3e-4 4e-5,1.1e-4 -5.5e-4,-8e-5 -5.1e-4,0 z m -96.6974594,-0.0522 0.091984,0.048 0.0031,0.002 0.00103,5.1e-4 c -0.042817,0.0821 -0.038867,0.0708 0.011886,-0.014 0.00105,-0.002 -0.00109,0.001 0,-5.3e-4 l -0.028939,-0.017 -0.00103,-5.3e-4 z m 0.093534,0.0537 c -0.04721,0.1352 -0.050209,0.13039 0.00362,0.002 z M 115.05861,287.05065 c -3.18231,0 -6.21638,0.23148 -8.97827,0.62788 l -1.70222,1.96421 v 91.79542 l 1.70222,1.96424 c 2.76186,0.39682 5.79569,0.62889 8.97827,0.62889 7.00298,0 13.27395,-1.08461 17.555,-2.69285 2.15742,-0.81048 3.6536,-1.67098 4.61832,-2.53061 0.27622,-0.24609 0.53968,-0.49985 0.31626,-0.2966 l 0.64906,-1.46814 v -83.00578 l -0.64544,-1.46452 c 0.2135,0.19524 -0.0441,-0.055 -0.31936,-0.30025 -0.96471,-0.85968 -2.46122,-1.72005 -4.61884,-2.53058 -4.28147,-1.60843 -10.55232,-2.69131 -17.555,-2.69131 z m 0,3.96875 c 6.58119,0 12.54728,1.08101 16.15974,2.43811 1.49838,0.56287 2.51209,1.18782 3.01015,1.54149 v 81.0824 c -0.49806,0.35365 -1.51177,0.97862 -3.01015,1.54149 -3.61288,1.35726 -9.57884,2.43965 -16.15974,2.43965 -2.36107,0 -4.59205,-0.16714 -6.71174,-0.40669 v -88.23026 c 2.11971,-0.23919 4.35048,-0.40619 6.71174,-0.40619 z"
         style="color:#000000;font-style:normal;font-variant:normal;font-weight:normal;font-stretch:normal;font-size:medium;line-height:normal;font-family:sans-serif;font-variant-ligatures:normal;font-variant-position:normal;font-variant-caps:normal;font-variant-numeric:normal;font-variant-alternates:normal;font-feature-settings:normal;text-indent:0;text-align:start;text-decoration:none;text-decoration-line:none;text-decoration-style:solid;text-decoration-color:#000000;letter-spacing:normal;word-spacing:normal;text-transform:none;writing-mode:lr-tb;direction:ltr;text-orientation:mixed;dominant-baseline:auto;baseline-shift:baseline;text-anchor:start;white-space:normal;shape-padding:0;clip-rule:nonzero;display:inline;overflow:visible;visibility:visible;opacity:1;isolation:auto;mix-blend-mode:normal;color-interpolation:sRGB;color-interpolation-filters:linearRGB;solid-color:#000000;solid-opacity:1;vector-effect:none;fill:#ffffff;fill-opacity:1;fill-rule:nonzero;stroke:none;stroke-width:3.96875;stroke-linecap:butt;stroke-linejoin:bevel;stroke-miterlimit:4;stroke-dasharray:none;stroke-dashoffset:0;stroke-opacity:1;color-rendering:auto;image-rendering:auto;shape-rendering:auto;text-rendering:auto;enable-background:accumulate" />
      <path
         id="path4339"
         transform="scale(0.26458333)"
         d="m 212,999.01953 c -1.47206,0 -2.92481,0.0138 -4.38867,0.0195 a 73.539106,73.539106 0 0 1 -59.11914,29.94147 73.539106,73.539106 0 0 1 -53.369143,-23.0039 C 50.583294,1012.0054 22,1021.4081 22,1032.0195 v 447.9512 c -7.131787,3.5875 -11.013672,7.442 -11.013672,11.4609 v 76.1739 c 0,19.3419 89.651652,34.914 201.013672,34.914 111.36202,0 201.01367,-15.5721 201.01367,-34.914 v -76.1739 c 0,-3.0654 -2.25874,-6.0342 -6.49219,-8.8632 9.07475,0.9092 18.55085,1.3828 28.34571,1.3828 29.70278,0 56.5606,-4.2764 77.77539,-12.2461 10.60739,-3.9849 19.89762,-8.8122 27.65234,-15.7227 7.75476,-6.9105 14.52735,-17.2363 14.52735,-29.5801 v -316.4394 c 0,-12.3438 -6.77259,-22.6676 -14.52735,-29.5781 -7.75472,-6.9106 -17.04495,-11.7398 -27.65234,-15.7246 -21.21479,-7.9698 -48.07261,-12.2461 -77.77539,-12.2461 -11.43305,0 -22.43803,0.639 -32.86719,1.873 v -22.2676 c 0,-18.282 -84.74001,-32.99997 -190,-32.99997 z m 222.86719,93.39647 c 25.67032,0 48.79524,4.0893 63.71289,9.6934 7.45882,2.802 12.76943,6.0626 15.10351,8.1426 0.9159,0.8161 1.02266,0.966 1.13672,1.0703 v 313.7226 c -0.11301,0.1028 -0.21837,0.2521 -1.13672,1.0703 -2.33408,2.08 -7.64469,5.3406 -15.10351,8.1426 -14.91765,5.6041 -38.04257,9.6992 -63.71289,9.6992 -11.66318,0 -22.78753,-0.8525 -32.86719,-2.3008 v -346.9433 c 10.0796,-1.4466 21.20409,-2.2969 32.86719,-2.2969 z"
         style="opacity:1;vector-effect:none;fill:#6c5d53;fill-opacity:1;stroke:none;stroke-width:17.98550797;stroke-linecap:butt;stroke-linejoin:bevel;stroke-miterlimit:4;stroke-dasharray:none;stroke-dashoffset:0;stroke-opacity:1"
         inkscape:connector-curvature="0" />
      <path
         inkscape:connector-curvature="0"
         id="path4333"
         d="m 27.121343,278.08224 c -3.602651,0 -6.855671,0.44879 -9.39891,1.26918 -1.271619,0.41021 -2.372386,0.89924 -3.308326,1.61541 -0.935929,0.71618 -1.845882,1.84904 -1.845882,3.33415 v 116.67971 c 0,1.48511 0.909963,2.61747 1.845882,3.33365 0.935932,0.71617 2.036707,1.2052 3.308326,1.61541 2.543239,0.82039 5.796259,1.26968 9.39891,1.26968 3.602649,0 6.853073,-0.44929 9.396325,-1.26968 1.271619,-0.41021 2.372395,-0.89924 3.308324,-1.61541 0.882131,-0.67501 1.68334,-1.74805 1.779219,-3.10939 0.0957,1.36158 0.899049,2.4343 1.781289,3.10939 0.935929,0.71617 2.035154,1.2052 3.306773,1.61541 2.543252,0.82039 5.795743,1.26968 9.398394,1.26968 3.602649,0 6.855143,-0.44929 9.398392,-1.26968 1.271619,-0.41021 2.372913,-0.89924 3.308842,-1.61541 0.8817,-0.67466 1.682639,-1.74697 1.77922,-3.10732 0.0966,1.36035 0.89753,2.43266 1.779219,3.10732 0.935929,0.71617 2.037223,1.2052 3.308842,1.61541 2.543239,0.82039 5.795743,1.26968 9.398392,1.26968 3.602651,0 6.855153,-0.44929 9.398394,-1.26968 1.27163,-0.41021 2.370844,-0.89924 3.306773,-1.61541 0.935932,-0.71618 1.845365,-1.84854 1.845365,-3.33365 V 284.30098 c 0,-1.48511 -0.909433,-2.61797 -1.845365,-3.33415 -0.935929,-0.71617 -2.035143,-1.2052 -3.306773,-1.61541 -2.543241,-0.82039 -5.795743,-1.26918 -9.398394,-1.26918 -3.602649,0 -6.855153,0.44879 -9.398392,1.26918 -1.271619,0.41021 -2.372902,0.89924 -3.308842,1.61541 -0.881689,0.67466 -1.682639,1.74694 -1.779219,3.1073 -0.0966,-1.36036 -0.89752,-2.43264 -1.77922,-3.1073 -0.935929,-0.71617 -2.037223,-1.2052 -3.308842,-1.61541 -2.543249,-0.82039 -5.795743,-1.26918 -9.398392,-1.26918 -3.602651,0 -6.855142,0.44879 -9.398394,1.26918 -1.271619,0.41021 -2.370844,0.89924 -3.306773,1.61541 -0.88224,0.67509 -1.685589,1.74779 -1.781289,3.10936 -0.0959,-1.36131 -0.897088,-2.43435 -1.779219,-3.10936 -0.935929,-0.71617 -2.036705,-1.2052 -3.308324,-1.61541 -2.543252,-0.82039 -5.793676,-1.26918 -9.396325,-1.26918 z"
         style="color:#000000;font-style:normal;font-variant:normal;font-weight:normal;font-stretch:normal;font-size:medium;line-height:normal;font-family:sans-serif;font-variant-ligatures:normal;font-variant-position:normal;font-variant-caps:normal;font-variant-numeric:normal;font-variant-alternates:normal;font-feature-settings:normal;text-indent:0;text-align:start;text-decoration:none;text-decoration-line:none;text-decoration-style:solid;text-decoration-color:#000000;letter-spacing:normal;word-spacing:normal;text-transform:none;writing-mode:lr-tb;direction:ltr;text-orientation:mixed;dominant-baseline:auto;baseline-shift:baseline;text-anchor:start;white-space:normal;shape-padding:0;clip-rule:nonzero;display:inline;overflow:visible;visibility:visible;opacity:1;isolation:auto;mix-blend-mode:normal;color-interpolation:sRGB;color-interpolation-filters:linearRGB;solid-color:#000000;solid-opacity:1;vector-effect:none;fill:#ffffff;fill-opacity:1;fill-rule:nonzero;stroke:none;stroke-width:4.4979167;stroke-linecap:butt;stroke-linejoin:bevel;stroke-miterlimit:4;stroke-dasharray:none;stroke-dashoffset:0;stroke-opacity:1;color-rendering:auto;image-rendering:auto;shape-rendering:auto;text-rendering:auto;enable-background:accumulate" />
      <path
         transform="scale(0.26458333)"
         id="rect4316"
         d="m 102.5,1059.5195 c -25.760999,0 -46.5,6.69 -46.5,15 v 441 c 0,8.31 20.739001,15 46.5,15 25.761,0 46.5,-6.69 46.5,-15 v -441 c 0,-8.31 -20.739,-15 -46.5,-15 z m 109.5,0 c -25.761,0 -46.5,6.69 -46.5,15 v 441 c 0,8.31 20.739,15 46.5,15 25.761,0 46.5,-6.69 46.5,-15 v -441 c 0,-8.31 -20.739,-15 -46.5,-15 z m 109.5,0 c -25.761,0 -46.5,6.69 -46.5,15 v 441 c 0,8.31 20.739,15 46.5,15 25.761,0 46.5,-6.69 46.5,-15 v -441 c 0,-8.31 -20.739,-15 -46.5,-15 z"
         style="opacity:1;vector-effect:none;fill:#6c5d53;fill-opacity:1;stroke:none;stroke-width:0.99999994;stroke-linecap:round;stroke-linejoin:round;stroke-miterlimit:4;stroke-dasharray:none;stroke-dashoffset:0;stroke-opacity:1"
         inkscape:connector-curvature="0" />
      <circle
         r="19.457222"
         cy="252.79387"
         cx="39.28862"
         id="path4344"
         style="opacity:1;vector-effect:none;fill:#ffffff;fill-opacity:1;stroke:none;stroke-width:4.4979167;stroke-linecap:butt;stroke-linejoin:bevel;stroke-miterlimit:4;stroke-dasharray:none;stroke-dashoffset:0;stroke-opacity:1" />
      <path
         transform="scale(0.26458333)"
         id="circle4346"
         d="M 46.992188,938.90234 A 57.039105,57.039105 0 0 0 -10.046875,995.94141 57.039105,57.039105 0 0 0 22,1047.1348 v -15.1153 c 0,-11.2438 32.081426,-21.133 81.24805,-27.0859 a 57.039105,57.039105 0 0 0 0.7832,-8.99219 57.039105,57.039105 0 0 0 -57.039062,-57.03907 z"
         style="opacity:1;vector-effect:none;fill:#ffffff;fill-opacity:1;stroke:none;stroke-width:13.18570328;stroke-linecap:butt;stroke-linejoin:bevel;stroke-miterlimit:4;stroke-dasharray:none;stroke-dashoffset:0;stroke-opacity:1"
         inkscape:connector-curvature="0" />
      <path
         id="circle4348"
         transform="scale(0.26458333)"
         d="m 263.49219,919.90234 a 62.539103,62.539103 0 0 0 -62.53907,62.53907 62.539103,62.539103 0 0 0 2.25391,16.61718 c 2.91573,-0.0229 5.8436,-0.0391 8.79297,-0.0391 40.95544,0 78.77087,2.23591 109.73047,6.03521 a 62.539103,62.539103 0 0 0 4.30078,-22.61333 62.539103,62.539103 0 0 0 -62.53906,-62.53907 z"
         style="opacity:1;vector-effect:none;fill:#ffffff;fill-opacity:1;stroke:none;stroke-width:14.4571352;stroke-linecap:butt;stroke-linejoin:bevel;stroke-miterlimit:4;stroke-dasharray:none;stroke-dashoffset:0;stroke-opacity:1"
         inkscape:connector-curvature="0" />
      <path
         id="circle4350"
         transform="scale(0.26458333)"
         d="m 364.82031,958.95312 a 46.039105,46.039105 0 0 0 -37.69922,22.96876 46.039105,46.039105 0 0 0 -6.11132,23.04292 C 370.02906,1010.9211 402,1020.7956 402,1032.0195 v 2.7715 a 46.039105,46.039105 0 0 0 4.86328,-6.8301 46.039105,46.039105 0 0 0 -16.85156,-62.89059 46.039105,46.039105 0 0 0 -25.19141,-6.11719 z"
         style="opacity:1;vector-effect:none;fill:#ffffff;fill-opacity:1;stroke:none;stroke-width:10.64283848;stroke-linecap:butt;stroke-linejoin:bevel;stroke-miterlimit:4;stroke-dasharray:none;stroke-dashoffset:0;stroke-opacity:1"
         inkscape:connector-curvature="0" />
      <path
         id="circle4352"
         transform="scale(0.26458333)"
         d="m 150.97266,889.39062 c -2.04716,-0.008 -4.10958,0.0748 -6.1836,0.25586 -37.33854,0.72981 -63.59893,32.80185 -67.556638,66.79297 -8.248227,-6.16037 -18.936249,-9.85989 -29.341797,-10.00195 -1.421257,-0.0194 -2.850118,0.027 -4.279297,0.14258 -44.10555,0.61403 -62.305973,63.64532 -27.195312,88.43942 -19.8497955,-28.6448 -1.086201,-77.39968 37.68164,-77.93942 7.634311,-0.61768 15.79291,0.75616 22.742188,3.6543 -0.146944,2.43226 -0.180837,4.86833 -0.0918,7.29687 5.828288,-32.69276 31.784386,-62.34378 67.955076,-63.05078 37.66643,-3.29235 71.62024,24.96684 78.49219,60.54297 0.14119,-2.83564 0.0957,-5.64816 -0.11328,-8.42969 8.835,-10.47572 21.42902,-17.58369 36.65625,-17.83398 27.94723,-2.34819 54.73383,19.26772 57.9668,47.17968 0.28192,1.43524 0.49345,2.85849 0.64453,4.26953 0.69906,-5.04326 0.60053,-10.33163 -0.4707,-15.78515 -3.04067,-26.25176 -26.84972,-46.95027 -52.91602,-47.49414 -1.73775,-0.0363 -3.48595,0.0168 -5.23828,0.16406 -16.07523,0.26425 -29.21487,8.15138 -38.12109,19.57227 0.23265,1.03488 0.43245,2.07903 0.61718,3.12695 -0.18551,-1.04807 -0.38449,-2.09189 -0.61718,-3.12695 -7.21431,-32.09089 -36.81098,-57.62765 -70.63086,-57.7754 z m 71.41211,61.88086 c 0.13372,0.82858 0.25382,1.6604 0.35742,2.4961 -0.10419,-0.83557 -0.22306,-1.66766 -0.35742,-2.4961 z m 145.57812,14.73633 c -13.54479,-0.18295 -26.31799,8.04768 -33.59375,19.50586 11.60571,-11.25124 28.99791,-16.36631 44.94141,-7.38672 12.97527,6.23464 21.90212,19.82075 22.46289,34.20705 0.4148,3.9127 0.20977,7.6148 -0.50196,11.082 3.3103,-5.7613 4.96691,-12.6053 4.15235,-20.289 -0.50298,-12.90415 -8.03973,-25.13571 -19.20899,-31.52934 -0.74464,-0.42622 -1.50531,-0.82641 -2.28125,-1.19922 -5.25334,-2.95873 -10.67056,-4.31904 -15.9707,-4.39063 z"
         style="opacity:1;vector-effect:none;fill:#6c5d53;fill-opacity:1;stroke:none;stroke-width:18.89875221;stroke-linecap:butt;stroke-linejoin:bevel;stroke-miterlimit:4;stroke-dasharray:none;stroke-dashoffset:0;stroke-opacity:1"
         inkscape:connector-curvature="0" />
    </g>
  </g>
</svg>
