<?xml version="1.0" encoding="UTF-8" standalone="no"?>
<!-- Created with Inkscape (http://www.inkscape.org/) -->

<svg
   xmlns:dc="http://purl.org/dc/elements/1.1/"
   xmlns:cc="http://creativecommons.org/ns#"
   xmlns:rdf="http://www.w3.org/1999/02/22-rdf-syntax-ns#"
   xmlns:svg="http://www.w3.org/2000/svg"
   xmlns="http://www.w3.org/2000/svg"
   xmlns:sodipodi="http://sodipodi.sourceforge.net/DTD/sodipodi-0.dtd"
   xmlns:inkscape="http://www.inkscape.org/namespaces/inkscape"
   width="210mm"
   height="297mm"
   viewBox="0 0 744.09448819 1052.3622047"
   id="svg5697"
   version="1.1"
   inkscape:version="0.91 r13725"
   sodipodi:docname="BASG.svg">
  <defs
     id="defs5699" />
  <sodipodi:namedview
     id="base"
     pagecolor="#ffffff"
     bordercolor="#666666"
     borderopacity="1.0"
     inkscape:pageopacity="0.0"
     inkscape:pageshadow="2"
     inkscape:zoom="0.061871843"
     inkscape:cx="-1961.2865"
     inkscape:cy="1961.6533"
     inkscape:document-units="px"
     inkscape:current-layer="layer1"
     showgrid="false"
     inkscape:window-width="1680"
     inkscape:window-height="987"
     inkscape:window-x="-8"
     inkscape:window-y="-8"
     inkscape:window-maximized="1" />
  <metadata
     id="metadata5702">
    <rdf:RDF>
      <cc:Work
         rdf:about="">
        <dc:format>image/svg+xml</dc:format>
        <dc:type
           rdf:resource="http://purl.org/dc/dcmitype/StillImage" />
        <dc:title></dc:title>
      </cc:Work>
    </rdf:RDF>
  </metadata>
  <g
     inkscape:label="Layer 1"
     inkscape:groupmode="layer"
     id="layer1">
    <g
       transform="translate(-425.9233,-5715.1464)"
       id="g5512"
       inkscape:export-xdpi="8"
       inkscape:export-ydpi="8">
      <rect
         inkscape:export-ydpi="8"
         inkscape:export-xdpi="8"
         ry="225.53923"
         y="2523.1445"
         x="-3345.6252"
         height="8145.8711"
         width="8097.3828"
         id="rect5366"
         style="opacity:1;fill:#ffffff;fill-opacity:1;stroke:none;stroke-opacity:1" />
      <g
         inkscape:export-ydpi="8.1099997"
         inkscape:export-xdpi="8.1099997"
         transform="matrix(0.58177271,0,0,0.58177271,-1644.7106,-490.85505)"
         id="g5001">
        <g
           id="g4997">
          <path
             inkscape:connector-curvature="0"
             id="path4995"
             d="m -1737.1426,6000.9336 0,948.5723 948.57033,0 0,-948.5723 -948.57033,0 z"
             style="opacity:1;fill:#87aade;fill-opacity:1;stroke:none;stroke-opacity:1" />
          <path
             inkscape:connector-curvature="0"
             id="path4993"
             d="m -1451.4277,6286.6484 377.1425,0 0,377.1426 -377.1425,0 0,-377.1426 z"
             style="opacity:1;fill:#ffffff;fill-opacity:1;stroke:none;stroke-opacity:1" />
        </g>
        <path
           inkscape:connector-curvature="0"
           style="opacity:1;fill:#87aade;fill-opacity:1;stroke:none;stroke-opacity:1"
           d="m -422.85742,6286.6484 0,377.1426 377.142576,0 0,-377.1426 -377.142576,0 z"
           id="rect4979" />
        <text
           xml:space="preserve"
           style="font-style:normal;font-weight:normal;font-size:1291.45727539px;line-height:125%;font-family:sans-serif;letter-spacing:0px;word-spacing:0px;fill:#000000;fill-opacity:1;stroke:none;stroke-width:1px;stroke-linecap:butt;stroke-linejoin:miter;stroke-opacity:1"
           x="218.52763"
           y="6900.1318"
           id="text4985"
           sodipodi:linespacing="125%"
           transform="scale(0.9929318,1.0071185)"><tspan
             sodipodi:role="line"
             id="tspan4987"
             x="218.52763"
             y="6900.1318"
             style="font-style:normal;font-variant:normal;font-weight:bold;font-stretch:normal;font-family:sans-serif;-inkscape-font-specification:'sans-serif Bold'">BASF</tspan></text>
      </g>
      <g
         inkscape:export-ydpi="8.1099997"
         inkscape:export-xdpi="8.1099997"
         transform="translate(390.36548,97.28924)"
         id="g5049">
        <rect
           ry="148.12186"
           y="3805.2058"
           x="-3045.6982"
           height="1201.433"
           width="3374.53"
           id="rect5011"
           style="opacity:1;fill:#5fd38d;fill-opacity:1;stroke:none;stroke-opacity:1" />
        <g
           id="g5043"
           transform="translate(-6.4168476e-5,-8.0810848)">
          <path
             id="path5024"
             d="m -2730.8691,4181.875 0,463.6934 463.6933,0 0,-463.6934 -463.6933,0 z m 139.666,139.666 184.3613,0 0,184.3613 -184.3613,0 0,-184.3613 z"
             style="opacity:1;fill:#ffffff;fill-opacity:1;stroke:none;stroke-opacity:1"
             inkscape:connector-curvature="0" />
          <path
             inkscape:connector-curvature="0"
             style="opacity:1;fill:#ffffff;fill-opacity:1;stroke:none;stroke-opacity:1"
             d="m -2088.4031,4321.5418 0,184.3599 184.3599,0 0,-184.3599 -184.3599,0 z"
             id="path5028" />
          <text
             xml:space="preserve"
             style="font-style:normal;font-weight:normal;font-size:631.30731201px;line-height:125%;font-family:sans-serif;letter-spacing:0px;word-spacing:0px;fill:#ffffff;fill-opacity:1;stroke:none;stroke-width:1px;stroke-linecap:butt;stroke-linejoin:miter;stroke-opacity:1"
             x="-1788.2676"
             y="4612.6089"
             id="text5030"
             sodipodi:linespacing="125%"
             transform="scale(0.99293181,1.0071185)"><tspan
               sodipodi:role="line"
               id="tspan5032"
               x="-1788.2676"
               y="4612.6089"
               style="font-style:normal;font-variant:normal;font-weight:bold;font-stretch:normal;font-family:sans-serif;-inkscape-font-specification:'sans-serif Bold';fill:#ffffff">BASF</tspan></text>
        </g>
      </g>
      <g
         inkscape:export-ydpi="8.1099997"
         inkscape:export-xdpi="8.1099997"
         transform="matrix(1.4418496,0,0,1.4418496,-4835.5678,2990.307)"
         id="g5326">
        <rect
           style="opacity:1;fill:#5fd38d;fill-opacity:1;stroke:none;stroke-opacity:1"
           id="rect5059"
           width="4780.6626"
           height="2446.0127"
           x="1512.1099"
           y="2714.0371"
           ry="301.56314" />
        <text
           xml:space="preserve"
           style="font-style:normal;font-weight:normal;font-size:497.10183716px;line-height:125%;font-family:sans-serif;letter-spacing:0px;word-spacing:0px;fill:#ffffff;fill-opacity:1;stroke:none;stroke-width:1px;stroke-linecap:butt;stroke-linejoin:miter;stroke-opacity:1"
           x="1840.0503"
           y="4297.4961"
           id="text5077"
           sodipodi:linespacing="125%"><tspan
             sodipodi:role="line"
             id="tspan5079"
             x="1840.0503"
             y="4297.4961"
             style="font-style:normal;font-variant:normal;font-weight:normal;font-stretch:normal;font-family:Roboto;-inkscape-font-specification:Roboto;fill:#ffffff">Else Elly de Souza</tspan></text>
        <text
           sodipodi:linespacing="125%"
           id="text5095"
           y="4794.2466"
           x="1845.9214"
           style="font-style:normal;font-weight:normal;font-size:309.90353394px;line-height:125%;font-family:sans-serif;letter-spacing:0px;word-spacing:0px;fill:#ffffff;fill-opacity:1;stroke:none;stroke-width:1px;stroke-linecap:butt;stroke-linejoin:miter;stroke-opacity:1"
           xml:space="preserve"><tspan
             style="font-style:normal;font-variant:normal;font-weight:normal;font-stretch:normal;font-family:Roboto;-inkscape-font-specification:Roboto;fill:#ffffff"
             y="4794.2466"
             x="1845.9214"
             id="tspan5097"
             sodipodi:role="line">Environmental Engineer</tspan></text>
        <g
           id="g5282"
           transform="matrix(0.57380262,0,0,0.57380262,784.66644,1158.3833)">
          <g
             id="g5061"
             transform="matrix(1.2739847,0,0,1.2739847,5392.2829,-2144.0322)">
            <path
               id="path5063"
               d="m -2730.8691,4181.875 0,463.6934 463.6933,0 0,-463.6934 -463.6933,0 z m 139.666,139.666 184.3613,0 0,184.3613 -184.3613,0 0,-184.3613 z"
               style="opacity:1;fill:#ffffff;fill-opacity:1;stroke:none;stroke-opacity:1"
               inkscape:connector-curvature="0" />
            <path
               inkscape:connector-curvature="0"
               style="opacity:1;fill:#ffffff;fill-opacity:1;stroke:none;stroke-opacity:1"
               d="m -2088.4031,4321.5418 0,184.3599 184.3599,0 0,-184.3599 -184.3599,0 z"
               id="path5065" />
            <text
               xml:space="preserve"
               style="font-style:normal;font-weight:normal;font-size:631.30731201px;line-height:125%;font-family:sans-serif;letter-spacing:0px;word-spacing:0px;fill:#ffffff;fill-opacity:1;stroke:none;stroke-width:1px;stroke-linecap:butt;stroke-linejoin:miter;stroke-opacity:1"
               x="-1788.2676"
               y="4612.6089"
               id="text5067"
               sodipodi:linespacing="125%"
               transform="scale(0.99293181,1.0071185)"><tspan
                 sodipodi:role="line"
                 id="tspan5069"
                 x="-1788.2676"
                 y="4612.6089"
                 style="font-style:normal;font-variant:normal;font-weight:bold;font-stretch:normal;font-family:sans-serif;-inkscape-font-specification:'sans-serif Bold';fill:#ffffff">BASF</tspan></text>
          </g>
          <text
             xml:space="preserve"
             style="font-style:normal;font-weight:normal;font-size:355.25531006px;line-height:125%;font-family:sans-serif;letter-spacing:0px;word-spacing:0px;fill:#ffffff;fill-opacity:1;stroke:none;stroke-width:1px;stroke-linecap:butt;stroke-linejoin:miter;stroke-opacity:1"
             x="1933.3787"
             y="4206.3276"
             id="text5087"
             sodipodi:linespacing="125%"
             transform="scale(0.99293181,1.0071185)"><tspan
               sodipodi:role="line"
               id="tspan5089"
               x="1933.3787"
               y="4206.3276"
               style="font-style:normal;font-variant:normal;font-weight:normal;font-stretch:normal;font-family:sans-serif;-inkscape-font-specification:sans-serif;fill:#ffffff">We create chemistry</tspan></text>
          <g
             style="fill:#ffffff"
             transform="matrix(0.97562753,0,0,0.97562753,5691.8719,3851.1835)"
             id="g5154">
            <g
               style="fill:#ffffff"
               transform="translate(0,-540.36)"
               id="g5100">
              <g
                 style="fill:#ffffff"
                 id="g5102">
                <g
                   style="fill:#ffffff"
                   id="g5104">
                  <path
                     style="fill:#ffffff"
                     inkscape:connector-curvature="0"
                     d="m 207.476,912.46 -44.803,-79.7 -0.1,-69.3 9.901,0 c 5.5,0 10.001,-4.5 10.001,-10 0,-5.5 -4.5,-10 -10.001,-10 l -90.806,0 c -5.5,0 -10.001,4.5 -10.001,10 0,5.5 4.5,10 10.001,10 l 9.901,0 0,69.3 -90.306,160.8 c -1.7,3.1 -1.7,6.9 0.1,9.9 1.8,3.1 5.1,4.9 8.601,4.9 l 234.315,0 c 3.6,0 6.8,-1.9 8.601,-4.9 1.8,-3.1 1.8,-6.9 0.1,-10 l -45.504,-81 z m -97.206,-72.3 c 0.8,-1.5 1.3,-3.2 1.3,-4.9 l 0,-71.9 31.002,0 0.1,71.9 c 0,1.7 0.4,3.4 1.3,4.9 l 37.602,67 -109.007,0 37.703,-67 z m -83.206,148.3 0,-0.1 34.302,-61.1 131.408,0 34.302,61.2 -200.012,0 z"
                     id="path5106" />
                  <path
                     style="fill:#ffffff"
                     inkscape:connector-curvature="0"
                     d="m 487.693,744.06 0,0 c -1.1,-16.7 -11.801,-31.3 -27.402,-37.4 l -150.509,-72.5 4.4,-8.7 c 2.5,-4.9 0.5,-10.9 -4.5,-13.4 -4.9,-2.5 -10.901,-0.5 -13.401,4.4 l -51.103,101.8 c -2.5,4.9 -0.5,10.9 4.5,13.4 1.4,0.7 3,1.1 4.5,1.1 3.7,0 7.2,-2 8.901,-5.5 l 6.4,-12.8 59.204,28.8 c 0,0 0,0 0.1,0 l 94.006,45.8 c 6.5,3.5 13.601,5.2 20.701,5.2 9.001,0 17.901,-2.8 25.502,-8.3 13.601,-9.6 20.601,-25.3 18.701,-41.9 z m -209.213,-47.4 22.401,-44.6 101.206,48.8 -68.104,22.8 -55.503,-27 z m 178.911,73.1 0,0 c -7.5,5.4 -17.201,6 -25.302,1.6 -0.1,-0.1 -0.2,-0.1 -0.3,-0.2 l -72.104,-35.1 68.204,-22.8 24.202,11.6 c 0.3,0.1 0.5,0.2 0.8,0.4 8.5,3.2 14.401,11.2 14.901,20.3 0,0.2 0,0.4 0.1,0.6 1,9.5 -2.8,18.1 -10.501,23.6 z"
                     id="path5108" />
                  <path
                     style="fill:#ffffff"
                     inkscape:connector-curvature="0"
                     d="m 213.676,701.86 c 16.601,0 30.002,-13.3 30.002,-29.6 0,-16.8 -13.501,-30.4 -30.002,-30.4 -16.501,0 -30.002,13.7 -30.002,30.4 0,16.3 13.501,29.6 30.002,29.6 z m 0,-40 c 5.6,0 10.001,4.6 10.001,10.4 0,5.2 -4.6,9.6 -10.001,9.6 -5.401,0 -10.001,-4.4 -10.001,-9.6 0,-5.8 4.401,-10.4 10.001,-10.4 z"
                     id="path5110" />
                  <path
                     style="fill:#ffffff"
                     inkscape:connector-curvature="0"
                     d="m 122.17,722.56 c 16.501,0 30.002,-13.7 30.002,-30.4 0,-16.3 -13.501,-29.6 -30.002,-29.6 -16.501,0 -30.002,13.3 -30.002,29.6 0,16.8 13.501,30.4 30.002,30.4 z m 0,-40 c 5.4,0 10.001,4.4 10.001,9.6 0,5.8 -4.4,10.4 -10.001,10.4 -5.6,0 -10.001,-4.6 -10.001,-10.4 0.001,-5.2 4.601,-9.6 10.001,-9.6 z"
                     id="path5112" />
                  <path
                     style="fill:#ffffff"
                     inkscape:connector-curvature="0"
                     d="m 234.277,620.36 c 16.401,0 29.702,-13.5 29.602,-30 0,-16.6 -13.301,-30 -29.602,-30 -16.801,0 -30.402,13.5 -30.402,30 0,16.6 13.601,30 30.402,30 z m 0,-40 c 5.2,0 9.701,4.6 9.601,10 0,5.4 -4.4,10 -9.601,10 -5.8,0 -10.401,-4.4 -10.401,-10 0,-5.6 4.601,-10 10.401,-10 z"
                     id="path5114" />
                  <path
                     style="fill:#ffffff"
                     inkscape:connector-curvature="0"
                     d="m 142.772,640.56 c 16.001,0 29.602,-13.5 29.602,-29.6 0,-16.8 -13.301,-30.4 -29.602,-30.4 -16.801,0 -30.402,13.7 -30.402,30.4 0,16.3 13.601,29.6 30.402,29.6 z m 0,-39.9 c 5.2,0 9.601,4.7 9.601,10.4 0,5 -4.6,9.6 -9.601,9.6 -5.6,0 -10.401,-4.4 -10.401,-9.6 0,-5.8 4.6,-10.4 10.401,-10.4 z"
                     id="path5116" />
                </g>
              </g>
            </g>
            <g
               style="fill:#ffffff"
               id="g5118" />
            <g
               style="fill:#ffffff"
               id="g5120" />
            <g
               style="fill:#ffffff"
               id="g5122" />
            <g
               style="fill:#ffffff"
               id="g5124" />
            <g
               style="fill:#ffffff"
               id="g5126" />
            <g
               style="fill:#ffffff"
               id="g5128" />
            <g
               style="fill:#ffffff"
               id="g5130" />
            <g
               style="fill:#ffffff"
               id="g5132" />
            <g
               style="fill:#ffffff"
               id="g5134" />
            <g
               style="fill:#ffffff"
               id="g5136" />
            <g
               style="fill:#ffffff"
               id="g5138" />
            <g
               style="fill:#ffffff"
               id="g5140" />
            <g
               style="fill:#ffffff"
               id="g5142" />
            <g
               style="fill:#ffffff"
               id="g5144" />
            <g
               style="fill:#ffffff"
               id="g5146" />
          </g>
        </g>
      </g>
      <g
         transform="translate(222.67603,182.85714)"
         inkscape:export-ydpi="8"
         inkscape:export-xdpi="8"
         id="g5478">
        <rect
           style="opacity:1;fill:#5fd38d;fill-opacity:1;stroke:none;stroke-opacity:1"
           id="rect5182"
           width="4198.8145"
           height="1201.433"
           x="-2878.0088"
           y="5195.4902"
           ry="148.12186"
           inkscape:export-xdpi="8.1099997"
           inkscape:export-ydpi="8.1099997" />
        <g
           id="g5250"
           transform="translate(-3742.6284,1509.5637)"
           inkscape:export-xdpi="7.4899998"
           inkscape:export-ydpi="7.4899998">
          <g
             id="g5184"
             transform="translate(3830.4983,-88.89333)">
            <path
               id="path5186"
               d="m -2730.8691,4181.875 0,463.6934 463.6933,0 0,-463.6934 -463.6933,0 z m 139.666,139.666 184.3613,0 0,184.3613 -184.3613,0 0,-184.3613 z"
               style="opacity:1;fill:#ffffff;fill-opacity:1;stroke:none;stroke-opacity:1"
               inkscape:connector-curvature="0" />
            <path
               inkscape:connector-curvature="0"
               style="opacity:1;fill:#ffffff;fill-opacity:1;stroke:none;stroke-opacity:1"
               d="m -2088.4031,4321.5418 0,184.3599 184.3599,0 0,-184.3599 -184.3599,0 z"
               id="path5188" />
            <text
               xml:space="preserve"
               style="font-style:normal;font-weight:normal;font-size:631.30731201px;line-height:125%;font-family:sans-serif;letter-spacing:0px;word-spacing:0px;fill:#ffffff;fill-opacity:1;stroke:none;stroke-width:1px;stroke-linecap:butt;stroke-linejoin:miter;stroke-opacity:1"
               x="-1788.2676"
               y="4612.6089"
               id="text5190"
               sodipodi:linespacing="125%"
               transform="scale(0.99293181,1.0071185)"><tspan
                 sodipodi:role="line"
                 id="tspan5192"
                 x="-1788.2676"
                 y="4612.6089"
                 style="font-style:normal;font-variant:normal;font-weight:bold;font-stretch:normal;font-family:sans-serif;-inkscape-font-specification:'sans-serif Bold';fill:#ffffff">BASF</tspan></text>
          </g>
          <g
             id="g5200"
             transform="matrix(1.6316529,0,0,1.6316529,4032.1778,3888.5197)"
             style="fill:#ffffff">
            <g
               id="g5202"
               transform="translate(0,-540.36)"
               style="fill:#ffffff">
              <g
                 id="g5204"
                 style="fill:#ffffff">
                <g
                   id="g5206"
                   style="fill:#ffffff">
                  <path
                     id="path5208"
                     d="m 207.476,912.46 -44.803,-79.7 -0.1,-69.3 9.901,0 c 5.5,0 10.001,-4.5 10.001,-10 0,-5.5 -4.5,-10 -10.001,-10 l -90.806,0 c -5.5,0 -10.001,4.5 -10.001,10 0,5.5 4.5,10 10.001,10 l 9.901,0 0,69.3 -90.306,160.8 c -1.7,3.1 -1.7,6.9 0.1,9.9 1.8,3.1 5.1,4.9 8.601,4.9 l 234.315,0 c 3.6,0 6.8,-1.9 8.601,-4.9 1.8,-3.1 1.8,-6.9 0.1,-10 l -45.504,-81 z m -97.206,-72.3 c 0.8,-1.5 1.3,-3.2 1.3,-4.9 l 0,-71.9 31.002,0 0.1,71.9 c 0,1.7 0.4,3.4 1.3,4.9 l 37.602,67 -109.007,0 37.703,-67 z m -83.206,148.3 0,-0.1 34.302,-61.1 131.408,0 34.302,61.2 -200.012,0 z"
                     inkscape:connector-curvature="0"
                     style="fill:#ffffff" />
                  <path
                     id="path5210"
                     d="m 487.693,744.06 0,0 c -1.1,-16.7 -11.801,-31.3 -27.402,-37.4 l -150.509,-72.5 4.4,-8.7 c 2.5,-4.9 0.5,-10.9 -4.5,-13.4 -4.9,-2.5 -10.901,-0.5 -13.401,4.4 l -51.103,101.8 c -2.5,4.9 -0.5,10.9 4.5,13.4 1.4,0.7 3,1.1 4.5,1.1 3.7,0 7.2,-2 8.901,-5.5 l 6.4,-12.8 59.204,28.8 c 0,0 0,0 0.1,0 l 94.006,45.8 c 6.5,3.5 13.601,5.2 20.701,5.2 9.001,0 17.901,-2.8 25.502,-8.3 13.601,-9.6 20.601,-25.3 18.701,-41.9 z m -209.213,-47.4 22.401,-44.6 101.206,48.8 -68.104,22.8 -55.503,-27 z m 178.911,73.1 0,0 c -7.5,5.4 -17.201,6 -25.302,1.6 -0.1,-0.1 -0.2,-0.1 -0.3,-0.2 l -72.104,-35.1 68.204,-22.8 24.202,11.6 c 0.3,0.1 0.5,0.2 0.8,0.4 8.5,3.2 14.401,11.2 14.901,20.3 0,0.2 0,0.4 0.1,0.6 1,9.5 -2.8,18.1 -10.501,23.6 z"
                     inkscape:connector-curvature="0"
                     style="fill:#ffffff" />
                  <path
                     id="path5212"
                     d="m 213.676,701.86 c 16.601,0 30.002,-13.3 30.002,-29.6 0,-16.8 -13.501,-30.4 -30.002,-30.4 -16.501,0 -30.002,13.7 -30.002,30.4 0,16.3 13.501,29.6 30.002,29.6 z m 0,-40 c 5.6,0 10.001,4.6 10.001,10.4 0,5.2 -4.6,9.6 -10.001,9.6 -5.401,0 -10.001,-4.4 -10.001,-9.6 0,-5.8 4.401,-10.4 10.001,-10.4 z"
                     inkscape:connector-curvature="0"
                     style="fill:#ffffff" />
                  <path
                     id="path5214"
                     d="m 122.17,722.56 c 16.501,0 30.002,-13.7 30.002,-30.4 0,-16.3 -13.501,-29.6 -30.002,-29.6 -16.501,0 -30.002,13.3 -30.002,29.6 0,16.8 13.501,30.4 30.002,30.4 z m 0,-40 c 5.4,0 10.001,4.4 10.001,9.6 0,5.8 -4.4,10.4 -10.001,10.4 -5.6,0 -10.001,-4.6 -10.001,-10.4 0.001,-5.2 4.601,-9.6 10.001,-9.6 z"
                     inkscape:connector-curvature="0"
                     style="fill:#ffffff" />
                  <path
                     id="path5216"
                     d="m 234.277,620.36 c 16.401,0 29.702,-13.5 29.602,-30 0,-16.6 -13.301,-30 -29.602,-30 -16.801,0 -30.402,13.5 -30.402,30 0,16.6 13.601,30 30.402,30 z m 0,-40 c 5.2,0 9.701,4.6 9.601,10 0,5.4 -4.4,10 -9.601,10 -5.8,0 -10.401,-4.4 -10.401,-10 0,-5.6 4.601,-10 10.401,-10 z"
                     inkscape:connector-curvature="0"
                     style="fill:#ffffff" />
                  <path
                     id="path5218"
                     d="m 142.772,640.56 c 16.001,0 29.602,-13.5 29.602,-29.6 0,-16.8 -13.301,-30.4 -29.602,-30.4 -16.801,0 -30.402,13.7 -30.402,30.4 0,16.3 13.601,29.6 30.402,29.6 z m 0,-39.9 c 5.2,0 9.601,4.7 9.601,10.4 0,5 -4.6,9.6 -9.601,9.6 -5.6,0 -10.401,-4.4 -10.401,-9.6 0,-5.8 4.6,-10.4 10.401,-10.4 z"
                     inkscape:connector-curvature="0"
                     style="fill:#ffffff" />
                </g>
              </g>
            </g>
            <g
               id="g5220"
               style="fill:#ffffff" />
            <g
               id="g5222"
               style="fill:#ffffff" />
            <g
               id="g5224"
               style="fill:#ffffff" />
            <g
               id="g5226"
               style="fill:#ffffff" />
            <g
               id="g5228"
               style="fill:#ffffff" />
            <g
               id="g5230"
               style="fill:#ffffff" />
            <g
               id="g5232"
               style="fill:#ffffff" />
            <g
               id="g5234"
               style="fill:#ffffff" />
            <g
               id="g5236"
               style="fill:#ffffff" />
            <g
               id="g5238"
               style="fill:#ffffff" />
            <g
               id="g5240"
               style="fill:#ffffff" />
            <g
               id="g5242"
               style="fill:#ffffff" />
            <g
               id="g5244"
               style="fill:#ffffff" />
            <g
               id="g5246"
               style="fill:#ffffff" />
            <g
               id="g5248"
               style="fill:#ffffff" />
          </g>
        </g>
      </g>
    </g>
  </g>
</svg>
