<?xml version="1.0" encoding="UTF-8" standalone="no"?>
<!-- Created with Inkscape (http://www.inkscape.org/) -->

<svg
   xmlns:dc="http://purl.org/dc/elements/1.1/"
   xmlns:cc="http://creativecommons.org/ns#"
   xmlns:rdf="http://www.w3.org/1999/02/22-rdf-syntax-ns#"
   xmlns:svg="http://www.w3.org/2000/svg"
   xmlns="http://www.w3.org/2000/svg"
   xmlns:sodipodi="http://sodipodi.sourceforge.net/DTD/sodipodi-0.dtd"
   xmlns:inkscape="http://www.inkscape.org/namespaces/inkscape"
   width="791.41217"
   height="650.34991"
   id="svg5065"
   version="1.1"
   inkscape:version="0.48.5 r10040"
   sodipodi:docname="City.svg">
  <defs
     id="defs5067" />
  <sodipodi:namedview
     id="base"
     pagecolor="#ffffff"
     bordercolor="#666666"
     borderopacity="1.0"
     inkscape:pageopacity="0.0"
     inkscape:pageshadow="2"
     inkscape:zoom="1"
     inkscape:cx="515.7061"
     inkscape:cy="345.17493"
     inkscape:document-units="px"
     inkscape:current-layer="layer1"
     showgrid="false"
     showborder="true"
     inkscape:window-width="1920"
     inkscape:window-height="1017"
     inkscape:window-x="-8"
     inkscape:window-y="-8"
     inkscape:window-maximized="1"
     fit-margin-top="0"
     fit-margin-left="0"
     fit-margin-right="0"
     fit-margin-bottom="0" />
  <metadata
     id="metadata5070">
    <rdf:RDF>
      <cc:Work
         rdf:about="">
        <dc:format>image/svg+xml</dc:format>
        <dc:type
           rdf:resource="http://purl.org/dc/dcmitype/StillImage" />
        <dc:title />
      </cc:Work>
    </rdf:RDF>
  </metadata>
  <g
     inkscape:label="Layer 1"
     inkscape:groupmode="layer"
     id="layer1"
     transform="translate(140.7061,-227.18719)">
    <rect
       style="fill:#ffefe4;fill-opacity:1;stroke:none"
       id="rect3923"
       width="791.41217"
       height="650.34991"
       x="-140.7061"
       y="227.18719"
       inkscape:export-filename="C:\Users\Brayan\Desktop\City.png"
       inkscape:export-xdpi="459.41"
       inkscape:export-ydpi="459.41" />
    <rect
       style="fill:#ffb380;fill-opacity:1;stroke:none"
       id="rect3973"
       width="136.91068"
       height="322.20325"
       x="205.99487"
       y="482.89685"
       ry="18.014559"
       rx="14.308187"
       inkscape:export-filename="C:\Users\Brayan\Desktop\City.png"
       inkscape:export-xdpi="459.41"
       inkscape:export-ydpi="459.41" />
    <path
       style="fill:#ffffff;fill-opacity:1;stroke:none"
       d="m 1.0820761,291.15767 c -26.2755611,0 -47.5771531,21.30349 -47.5771531,47.57779 0,2.19663 0.148335,4.35538 0.435852,6.4731 -4.101315,-1.5591 -8.550114,-2.41439 -13.198693,-2.41439 -20.50784,0 -37.134958,16.62618 -37.134958,37.13434 0,20.505 16.627118,37.13119 37.134958,37.13119 1.10936,0 2.206726,-0.0632 3.291468,-0.1578 l 56.07424679,0 c 1.08474261,0.0947 2.18526481,0.1578 3.29493921,0.1578 1.1093599,0 2.2067257,-0.0632 3.2914671,-0.1578 l 51.4329279,0 c 1.084742,0.0947 2.18558,0.1578 3.294939,0.1578 20.507524,0 37.131824,-16.62619 37.131824,-37.13119 0,-20.50816 -16.6243,-37.13434 -37.131824,-37.13434 -4.648893,0 -9.100533,0.85529 -13.201848,2.41439 0.287201,-2.11772 0.435852,-4.27647 0.435852,-6.4731 0,-26.2743 -21.298435,-47.57779 -47.5739979,-47.57779 z"
       id="path3775"
       inkscape:connector-curvature="0"
       inkscape:export-filename="C:\Users\Brayan\Desktop\City.png"
       inkscape:export-xdpi="459.41"
       inkscape:export-ydpi="459.41" />
    <path
       style="fill:#666666;fill-opacity:1;stroke:none"
       d="m 238.30033,508.01454 c -6.91874,0 -12.48888,2.92568 -12.48888,6.55832 l 0,23.50327 25.22049,0 0,-23.50327 c 0,-3.63264 -5.57016,-6.55832 -12.4889,-6.55832 l -0.24302,0 z"
       id="rect3975"
       inkscape:connector-curvature="0"
       inkscape:export-filename="C:\Users\Brayan\Desktop\City.png"
       inkscape:export-xdpi="459.41"
       inkscape:export-ydpi="459.41" />
    <path
       inkscape:connector-curvature="0"
       id="path3980"
       d="m 238.30033,563.47303 c -6.91874,0 -12.48888,2.92569 -12.48888,6.55832 l 0,23.50327 25.22049,0 0,-23.50327 c 0,-3.63263 -5.57016,-6.55832 -12.4889,-6.55832 l -0.24302,0 z"
       style="fill:#666666;fill-opacity:1;stroke:none"
       inkscape:export-filename="C:\Users\Brayan\Desktop\City.png"
       inkscape:export-xdpi="459.41"
       inkscape:export-ydpi="459.41" />
    <path
       style="fill:#666666;fill-opacity:1;stroke:none"
       d="m 238.30033,618.93153 c -6.91874,0 -12.48888,2.92568 -12.48888,6.55832 l 0,23.50643 25.22049,0 0,-23.50643 c 0,-3.63264 -5.57016,-6.55832 -12.4889,-6.55832 l -0.24302,0 z"
       id="path3982"
       inkscape:connector-curvature="0"
       inkscape:export-filename="C:\Users\Brayan\Desktop\City.png"
       inkscape:export-xdpi="459.41"
       inkscape:export-ydpi="459.41" />
    <path
       inkscape:connector-curvature="0"
       id="path3984"
       d="m 238.30033,674.39003 c -6.91874,0 -12.48888,2.92568 -12.48888,6.55832 l 0,23.50643 25.22049,0 0,-23.50643 c 0,-3.63264 -5.57016,-6.55832 -12.4889,-6.55832 l -0.24302,0 z"
       style="fill:#666666;fill-opacity:1;stroke:none"
       inkscape:export-filename="C:\Users\Brayan\Desktop\City.png"
       inkscape:export-xdpi="459.41"
       inkscape:export-ydpi="459.41" />
    <path
       style="fill:#666666;fill-opacity:1;stroke:none"
       d="m 238.30033,729.85169 c -6.91874,0 -12.48888,2.92252 -12.48888,6.55831 l 0,23.50326 25.22049,0 0,-23.50326 c 0,-3.63579 -5.57016,-6.55831 -12.4889,-6.55831 l -0.24302,0 z"
       id="path3986"
       inkscape:connector-curvature="0"
       inkscape:export-filename="C:\Users\Brayan\Desktop\City.png"
       inkscape:export-xdpi="459.41"
       inkscape:export-ydpi="459.41" />
    <path
       inkscape:connector-curvature="0"
       id="path3988"
       d="m 307.20086,508.01454 c -6.91874,0 -12.48889,2.92568 -12.48889,6.55832 l 0,23.50327 25.22049,0 0,-23.50327 c 0,-3.63264 -5.57016,-6.55832 -12.48921,-6.55832 l -0.24301,0 z"
       style="fill:#666666;fill-opacity:1;stroke:none"
       inkscape:export-filename="C:\Users\Brayan\Desktop\City.png"
       inkscape:export-xdpi="459.41"
       inkscape:export-ydpi="459.41" />
    <path
       style="fill:#666666;fill-opacity:1;stroke:none"
       d="m 307.20086,563.47303 c -6.91874,0 -12.48889,2.92569 -12.48889,6.55832 l 0,23.50327 25.22049,0 0,-23.50327 c 0,-3.63263 -5.57016,-6.55832 -12.48921,-6.55832 l -0.24301,0 z"
       id="path3990"
       inkscape:connector-curvature="0"
       inkscape:export-filename="C:\Users\Brayan\Desktop\City.png"
       inkscape:export-xdpi="459.41"
       inkscape:export-ydpi="459.41" />
    <path
       inkscape:connector-curvature="0"
       id="path3992"
       d="m 307.20086,618.93153 c -6.91874,0 -12.48889,2.92568 -12.48889,6.55832 l 0,23.50643 25.22049,0 0,-23.50643 c 0,-3.63264 -5.57016,-6.55832 -12.48921,-6.55832 l -0.24301,0 z"
       style="fill:#666666;fill-opacity:1;stroke:none"
       inkscape:export-filename="C:\Users\Brayan\Desktop\City.png"
       inkscape:export-xdpi="459.41"
       inkscape:export-ydpi="459.41" />
    <path
       style="fill:#666666;fill-opacity:1;stroke:none"
       d="m 307.20086,674.39003 c -6.91874,0 -12.48889,2.92568 -12.48889,6.55832 l 0,23.50643 25.22049,0 0,-23.50643 c 0,-3.63264 -5.57016,-6.55832 -12.48921,-6.55832 l -0.24301,0 z"
       id="path3994"
       inkscape:connector-curvature="0"
       inkscape:export-filename="C:\Users\Brayan\Desktop\City.png"
       inkscape:export-xdpi="459.41"
       inkscape:export-ydpi="459.41" />
    <path
       inkscape:connector-curvature="0"
       id="path3996"
       d="m 307.20086,729.85169 c -6.91874,0 -12.48889,2.92252 -12.48889,6.55831 l 0,23.50326 25.22049,0 0,-23.50326 c 0,-3.63579 -5.57016,-6.55831 -12.48921,-6.55831 l -0.24301,0 z"
       style="fill:#666666;fill-opacity:1;stroke:none"
       inkscape:export-filename="C:\Users\Brayan\Desktop\City.png"
       inkscape:export-xdpi="459.41"
       inkscape:export-ydpi="459.41" />
    <path
       style="fill:#ffffff;fill-opacity:0.25531915;stroke:none"
       d="m 274.45093,482.89851 0,322.2034 54.14715,0 c 7.92679,0 14.30806,-8.03537 14.30806,-18.0117 l 0,-286.17684 c 0,-9.97949 -6.38127,-18.01486 -14.30806,-18.01486 l -54.14715,0 z"
       id="rect3998"
       inkscape:connector-curvature="0"
       inkscape:export-filename="C:\Users\Brayan\Desktop\City.png"
       inkscape:export-xdpi="459.41"
       inkscape:export-ydpi="459.41" />
    <path
       style="fill:#aaccff;fill-opacity:1;stroke:none"
       d="m 425.54789,433.56596 0,26.93076 -11.25898,0 0,38.81337 -19.30159,0 0,69.51565 -20.10544,0 0,213.12007 136.91072,0 0,-213.12007 -20.10544,0 0,-69.51565 -19.30159,0 0,-38.81337 -11.25897,0 0,-26.93076 -35.57871,0 z"
       id="rect4003"
       inkscape:connector-curvature="0"
       inkscape:export-filename="C:\Users\Brayan\Desktop\City.png"
       inkscape:export-xdpi="459.41"
       inkscape:export-ydpi="459.41" />
    <g
       id="g4566"
       style="fill:#ffffff"
       transform="matrix(0.01608442,0,0,0.01608442,38.202534,569.94298)"
       inkscape:export-filename="C:\Users\Brayan\Desktop\City.png"
       inkscape:export-xdpi="459.41"
       inkscape:export-ydpi="459.41">
      <rect
         style="fill:#ffffff;fill-opacity:1;stroke:none"
         id="rect4013"
         width="835.26617"
         height="835.26617"
         x="21323.332"
         y="321.98926" />
      <rect
         y="1548.5874"
         x="21323.332"
         height="835.26617"
         width="835.26617"
         id="rect4017"
         style="fill:#ffffff;fill-opacity:1;stroke:none" />
      <rect
         y="2775.1855"
         x="21323.332"
         height="835.26617"
         width="835.26617"
         id="rect4021"
         style="fill:#ffffff;fill-opacity:1;stroke:none" />
      <rect
         style="fill:#ffffff;fill-opacity:1;stroke:none"
         id="rect4025"
         width="835.26617"
         height="835.26617"
         x="21323.332"
         y="4001.7837" />
      <rect
         style="fill:#ffffff;fill-opacity:1;stroke:none"
         id="rect4029"
         width="835.26617"
         height="835.26617"
         x="21323.332"
         y="5228.3818" />
      <rect
         y="6454.98"
         x="21323.332"
         height="835.26617"
         width="835.26617"
         id="rect4033"
         style="fill:#ffffff;fill-opacity:1;stroke:none" />
      <rect
         style="fill:#ffffff;fill-opacity:1;stroke:none"
         id="rect4037"
         width="835.26617"
         height="835.26617"
         x="21323.332"
         y="7681.5781" />
      <rect
         y="8908.1768"
         x="21323.332"
         height="835.26617"
         width="835.26617"
         id="rect4041"
         style="fill:#ffffff;fill-opacity:1;stroke:none" />
      <rect
         y="10134.774"
         x="21323.332"
         height="835.26617"
         width="835.26617"
         id="rect4045"
         style="fill:#ffffff;fill-opacity:1;stroke:none" />
      <rect
         style="fill:#ffffff;fill-opacity:1;stroke:none"
         id="rect4049"
         width="835.26617"
         height="835.26617"
         x="21323.332"
         y="11361.373" />
    </g>
    <g
       id="g4578"
       transform="matrix(0.01608442,0,0,0.01608442,38.202534,569.94298)"
       style="fill:#ffffff"
       inkscape:export-filename="C:\Users\Brayan\Desktop\City.png"
       inkscape:export-xdpi="459.41"
       inkscape:export-ydpi="459.41">
      <g
         id="g4544"
         style="fill:#ffffff">
        <rect
           style="fill:#ffffff;fill-opacity:1;stroke:none"
           id="rect4053"
           width="835.26617"
           height="835.26617"
           x="-29052.668"
           y="321.98926"
           transform="scale(-1,1)" />
        <rect
           y="1548.5874"
           x="-29052.668"
           height="835.26617"
           width="835.26617"
           id="rect4057"
           style="fill:#ffffff;fill-opacity:1;stroke:none"
           transform="scale(-1,1)" />
        <rect
           y="2775.1855"
           x="-29052.668"
           height="835.26617"
           width="835.26617"
           id="rect4061"
           style="fill:#ffffff;fill-opacity:1;stroke:none"
           transform="scale(-1,1)" />
        <rect
           style="fill:#ffffff;fill-opacity:1;stroke:none"
           id="rect4065"
           width="835.26617"
           height="835.26617"
           x="-29052.668"
           y="4001.7837"
           transform="scale(-1,1)" />
        <rect
           style="fill:#ffffff;fill-opacity:1;stroke:none"
           id="rect4069"
           width="835.26617"
           height="835.26617"
           x="-29052.668"
           y="5228.3818"
           transform="scale(-1,1)" />
        <rect
           y="6454.98"
           x="-29052.668"
           height="835.26617"
           width="835.26617"
           id="rect4073"
           style="fill:#ffffff;fill-opacity:1;stroke:none"
           transform="scale(-1,1)" />
        <rect
           style="fill:#ffffff;fill-opacity:1;stroke:none"
           id="rect4077"
           width="835.26617"
           height="835.26617"
           x="-29052.668"
           y="7681.5781"
           transform="scale(-1,1)" />
        <rect
           y="8908.1768"
           x="-29052.668"
           height="835.26617"
           width="835.26617"
           id="rect4081"
           style="fill:#ffffff;fill-opacity:1;stroke:none"
           transform="scale(-1,1)" />
        <rect
           y="10134.774"
           x="-29052.668"
           height="835.26617"
           width="835.26617"
           id="rect4085"
           style="fill:#ffffff;fill-opacity:1;stroke:none"
           transform="scale(-1,1)" />
        <rect
           style="fill:#ffffff;fill-opacity:1;stroke:none"
           id="rect4089"
           width="835.26617"
           height="835.26617"
           x="-29052.668"
           y="11361.373"
           transform="scale(-1,1)" />
      </g>
    </g>
    <rect
       style="fill:#ffffff;fill-opacity:1;stroke:none"
       id="rect4252"
       width="13.434779"
       height="13.434779"
       x="436.61929"
       y="441.47339"
       inkscape:export-filename="C:\Users\Brayan\Desktop\City.png"
       inkscape:export-xdpi="459.41"
       inkscape:export-ydpi="459.41" />
    <rect
       style="fill:#ffffff;fill-opacity:1;stroke:none"
       id="rect4256"
       width="13.434779"
       height="13.434779"
       x="420.5831"
       y="466.78979"
       inkscape:export-filename="C:\Users\Brayan\Desktop\City.png"
       inkscape:export-xdpi="459.41"
       inkscape:export-ydpi="459.41" />
    <rect
       y="486.52142"
       x="420.5831"
       height="13.434779"
       width="13.434779"
       id="rect4260"
       style="fill:#ffffff;fill-opacity:1;stroke:none"
       inkscape:export-filename="C:\Users\Brayan\Desktop\City.png"
       inkscape:export-xdpi="459.41"
       inkscape:export-ydpi="459.41" />
    <rect
       y="466.78979"
       x="-466.09189"
       height="13.434779"
       width="13.434779"
       id="rect4264"
       style="fill:#ffffff;fill-opacity:1;stroke:none"
       transform="scale(-1,1)"
       inkscape:export-filename="C:\Users\Brayan\Desktop\City.png"
       inkscape:export-xdpi="459.41"
       inkscape:export-ydpi="459.41" />
    <rect
       style="fill:#ffffff;fill-opacity:1;stroke:none"
       id="rect4268"
       width="13.434779"
       height="13.434779"
       x="-466.09189"
       y="486.52142"
       transform="scale(-1,1)"
       inkscape:export-filename="C:\Users\Brayan\Desktop\City.png"
       inkscape:export-xdpi="459.41"
       inkscape:export-ydpi="459.41" />
    <g
       id="g4312"
       style="fill:#ffffff"
       transform="matrix(0.01608442,0,0,0.01608442,38.202534,569.94298)"
       inkscape:export-filename="C:\Users\Brayan\Desktop\City.png"
       inkscape:export-xdpi="459.41"
       inkscape:export-ydpi="459.41">
      <rect
         y="-4000.051"
         x="22573.332"
         height="835.26617"
         width="835.26617"
         id="rect4272"
         style="fill:#ffffff;fill-opacity:1;stroke:none" />
      <rect
         style="fill:#ffffff;fill-opacity:1;stroke:none"
         id="rect4276"
         width="835.26617"
         height="835.26617"
         x="22573.332"
         y="-2773.4529" />
      <rect
         style="fill:#ffffff;fill-opacity:1;stroke:none"
         id="rect4280"
         width="835.26617"
         height="835.26617"
         x="22573.332"
         y="-1546.8547" />
    </g>
    <g
       id="g4317"
       transform="matrix(0.01608442,0,0,0.01608442,38.202534,569.94298)"
       style="fill:#ffffff"
       inkscape:export-filename="C:\Users\Brayan\Desktop\City.png"
       inkscape:export-xdpi="459.41"
       inkscape:export-ydpi="459.41">
      <rect
         transform="scale(-1,1)"
         style="fill:#ffffff;fill-opacity:1;stroke:none"
         id="rect4288"
         width="835.26617"
         height="835.26617"
         x="-27802.668"
         y="-4000.051" />
      <rect
         transform="scale(-1,1)"
         y="-2773.4529"
         x="-27802.668"
         height="835.26617"
         width="835.26617"
         id="rect4292"
         style="fill:#ffffff;fill-opacity:1;stroke:none" />
      <rect
         transform="scale(-1,1)"
         y="-1546.8547"
         x="-27802.668"
         height="835.26617"
         width="835.26617"
         id="rect4296"
         style="fill:#ffffff;fill-opacity:1;stroke:none" />
    </g>
    <g
       id="g4322"
       transform="matrix(0.01608442,0,0,0.01608442,14.644034,569.94298)"
       style="fill:#ffffff"
       inkscape:export-filename="C:\Users\Brayan\Desktop\City.png"
       inkscape:export-xdpi="459.41"
       inkscape:export-ydpi="459.41">
      <rect
         y="-4000.051"
         x="-27802.668"
         height="835.26617"
         width="835.26617"
         id="rect4324"
         style="fill:#ffffff;fill-opacity:1;stroke:none"
         transform="scale(-1,1)" />
      <rect
         style="fill:#ffffff;fill-opacity:1;stroke:none"
         id="rect4326"
         width="835.26617"
         height="835.26617"
         x="-27802.668"
         y="-2773.4529"
         transform="scale(-1,1)" />
      <rect
         style="fill:#ffffff;fill-opacity:1;stroke:none"
         id="rect4328"
         width="835.26617"
         height="835.26617"
         x="-27802.668"
         y="-1546.8547"
         transform="scale(-1,1)" />
    </g>
    <g
       transform="matrix(0.01608442,0,0,0.01608442,-8.9147814,569.94298)"
       id="g4330"
       style="fill:#ffffff"
       inkscape:export-filename="C:\Users\Brayan\Desktop\City.png"
       inkscape:export-xdpi="459.41"
       inkscape:export-ydpi="459.41">
      <rect
         transform="scale(-1,1)"
         style="fill:#ffffff;fill-opacity:1;stroke:none"
         id="rect4332"
         width="835.26617"
         height="835.26617"
         x="-27802.668"
         y="-4000.051" />
      <rect
         transform="scale(-1,1)"
         y="-2773.4529"
         x="-27802.668"
         height="835.26617"
         width="835.26617"
         id="rect4334"
         style="fill:#ffffff;fill-opacity:1;stroke:none" />
      <rect
         transform="scale(-1,1)"
         y="-1546.8547"
         x="-27802.668"
         height="835.26617"
         width="835.26617"
         id="rect4336"
         style="fill:#ffffff;fill-opacity:1;stroke:none" />
    </g>
    <g
       id="g4591"
       transform="matrix(0.01608442,0,0,0.01608442,10.480859,569.94298)"
       style="fill:#ffffff"
       inkscape:export-filename="C:\Users\Brayan\Desktop\City.png"
       inkscape:export-xdpi="459.41"
       inkscape:export-ydpi="459.41">
      <g
         id="g4593"
         style="fill:#ffffff">
        <rect
           transform="scale(-1,1)"
           y="321.98926"
           x="-29052.668"
           height="835.26617"
           width="835.26617"
           id="rect4595"
           style="fill:#ffffff;fill-opacity:1;stroke:none" />
        <rect
           transform="scale(-1,1)"
           style="fill:#ffffff;fill-opacity:1;stroke:none"
           id="rect4597"
           width="835.26617"
           height="835.26617"
           x="-29052.668"
           y="1548.5874" />
        <rect
           transform="scale(-1,1)"
           style="fill:#ffffff;fill-opacity:1;stroke:none"
           id="rect4599"
           width="835.26617"
           height="835.26617"
           x="-29052.668"
           y="2775.1855" />
        <rect
           transform="scale(-1,1)"
           y="4001.7837"
           x="-29052.668"
           height="835.26617"
           width="835.26617"
           id="rect4601"
           style="fill:#ffffff;fill-opacity:1;stroke:none" />
        <rect
           transform="scale(-1,1)"
           y="5228.3818"
           x="-29052.668"
           height="835.26617"
           width="835.26617"
           id="rect4603"
           style="fill:#ffffff;fill-opacity:1;stroke:none" />
        <rect
           transform="scale(-1,1)"
           style="fill:#ffffff;fill-opacity:1;stroke:none"
           id="rect4605"
           width="835.26617"
           height="835.26617"
           x="-29052.668"
           y="6454.98" />
        <rect
           transform="scale(-1,1)"
           y="7681.5781"
           x="-29052.668"
           height="835.26617"
           width="835.26617"
           id="rect4607"
           style="fill:#ffffff;fill-opacity:1;stroke:none" />
        <rect
           transform="scale(-1,1)"
           style="fill:#ffffff;fill-opacity:1;stroke:none"
           id="rect4609"
           width="835.26617"
           height="835.26617"
           x="-29052.668"
           y="8908.1768" />
        <rect
           transform="scale(-1,1)"
           style="fill:#ffffff;fill-opacity:1;stroke:none"
           id="rect4611"
           width="835.26617"
           height="835.26617"
           x="-29052.668"
           y="10134.774" />
        <rect
           transform="scale(-1,1)"
           y="11361.373"
           x="-29052.668"
           height="835.26617"
           width="835.26617"
           id="rect4613"
           style="fill:#ffffff;fill-opacity:1;stroke:none" />
      </g>
    </g>
    <g
       transform="matrix(0.01608442,0,0,0.01608442,-17.241131,569.94298)"
       id="g4615"
       style="fill:#ffffff"
       inkscape:export-filename="C:\Users\Brayan\Desktop\City.png"
       inkscape:export-xdpi="459.41"
       inkscape:export-ydpi="459.41">
      <g
         id="g4617"
         style="fill:#ffffff">
        <rect
           style="fill:#ffffff;fill-opacity:1;stroke:none"
           id="rect4619"
           width="835.26617"
           height="835.26617"
           x="-29052.668"
           y="321.98926"
           transform="scale(-1,1)" />
        <rect
           y="1548.5874"
           x="-29052.668"
           height="835.26617"
           width="835.26617"
           id="rect4621"
           style="fill:#ffffff;fill-opacity:1;stroke:none"
           transform="scale(-1,1)" />
        <rect
           y="2775.1855"
           x="-29052.668"
           height="835.26617"
           width="835.26617"
           id="rect4623"
           style="fill:#ffffff;fill-opacity:1;stroke:none"
           transform="scale(-1,1)" />
        <rect
           style="fill:#ffffff;fill-opacity:1;stroke:none"
           id="rect4625"
           width="835.26617"
           height="835.26617"
           x="-29052.668"
           y="4001.7837"
           transform="scale(-1,1)" />
        <rect
           style="fill:#ffffff;fill-opacity:1;stroke:none"
           id="rect4627"
           width="835.26617"
           height="835.26617"
           x="-29052.668"
           y="5228.3818"
           transform="scale(-1,1)" />
        <rect
           y="6454.98"
           x="-29052.668"
           height="835.26617"
           width="835.26617"
           id="rect4629"
           style="fill:#ffffff;fill-opacity:1;stroke:none"
           transform="scale(-1,1)" />
        <rect
           style="fill:#ffffff;fill-opacity:1;stroke:none"
           id="rect4631"
           width="835.26617"
           height="835.26617"
           x="-29052.668"
           y="7681.5781"
           transform="scale(-1,1)" />
        <rect
           y="8908.1768"
           x="-29052.668"
           height="835.26617"
           width="835.26617"
           id="rect4633"
           style="fill:#ffffff;fill-opacity:1;stroke:none"
           transform="scale(-1,1)" />
        <rect
           y="10134.774"
           x="-29052.668"
           height="835.26617"
           width="835.26617"
           id="rect4635"
           style="fill:#ffffff;fill-opacity:1;stroke:none"
           transform="scale(-1,1)" />
        <rect
           style="fill:#ffffff;fill-opacity:1;stroke:none"
           id="rect4637"
           width="835.26617"
           height="835.26617"
           x="-29052.668"
           y="11361.373"
           transform="scale(-1,1)" />
      </g>
    </g>
    <g
       id="g4639"
       transform="matrix(0.01608442,0,0,0.01608442,-44.962805,569.94298)"
       style="fill:#ffffff"
       inkscape:export-filename="C:\Users\Brayan\Desktop\City.png"
       inkscape:export-xdpi="459.41"
       inkscape:export-ydpi="459.41">
      <g
         id="g4641"
         style="fill:#ffffff">
        <rect
           transform="scale(-1,1)"
           y="321.98926"
           x="-29052.668"
           height="835.26617"
           width="835.26617"
           id="rect4643"
           style="fill:#ffffff;fill-opacity:1;stroke:none" />
        <rect
           transform="scale(-1,1)"
           style="fill:#ffffff;fill-opacity:1;stroke:none"
           id="rect4645"
           width="835.26617"
           height="835.26617"
           x="-29052.668"
           y="1548.5874" />
        <rect
           transform="scale(-1,1)"
           style="fill:#ffffff;fill-opacity:1;stroke:none"
           id="rect4647"
           width="835.26617"
           height="835.26617"
           x="-29052.668"
           y="2775.1855" />
        <rect
           transform="scale(-1,1)"
           y="4001.7837"
           x="-29052.668"
           height="835.26617"
           width="835.26617"
           id="rect4649"
           style="fill:#ffffff;fill-opacity:1;stroke:none" />
        <rect
           transform="scale(-1,1)"
           y="5228.3818"
           x="-29052.668"
           height="835.26617"
           width="835.26617"
           id="rect4651"
           style="fill:#ffffff;fill-opacity:1;stroke:none" />
        <rect
           transform="scale(-1,1)"
           style="fill:#ffffff;fill-opacity:1;stroke:none"
           id="rect4653"
           width="835.26617"
           height="835.26617"
           x="-29052.668"
           y="6454.98" />
        <rect
           transform="scale(-1,1)"
           y="7681.5781"
           x="-29052.668"
           height="835.26617"
           width="835.26617"
           id="rect4655"
           style="fill:#ffffff;fill-opacity:1;stroke:none" />
        <rect
           transform="scale(-1,1)"
           style="fill:#ffffff;fill-opacity:1;stroke:none"
           id="rect4657"
           width="835.26617"
           height="835.26617"
           x="-29052.668"
           y="8908.1768" />
        <rect
           transform="scale(-1,1)"
           style="fill:#ffffff;fill-opacity:1;stroke:none"
           id="rect4659"
           width="835.26617"
           height="835.26617"
           x="-29052.668"
           y="10134.774" />
        <rect
           transform="scale(-1,1)"
           y="11361.373"
           x="-29052.668"
           height="835.26617"
           width="835.26617"
           id="rect4661"
           style="fill:#ffffff;fill-opacity:1;stroke:none" />
      </g>
    </g>
    <path
       inkscape:connector-curvature="0"
       id="path4688"
       d="m 285.77586,261.76833 c -13.70176,0 -24.80988,11.10937 -24.80988,24.80988 0,1.14566 0.0757,2.27237 0.22724,3.377 -2.13856,-0.81426 -4.45827,-1.25927 -6.88244,-1.25927 -10.69404,0 -19.3644,8.66973 -19.3644,19.3625 0,10.69592 8.67036,19.36566 19.3644,19.36566 0.57851,0 1.15071,0 1.71659,-0.0632 l 29.24037,0 c 0.56557,0.0632 1.13934,0.0632 1.71785,0.0632 0.57882,0 1.15102,0 1.71659,-0.0632 l 26.8203,0 c 0.56588,0.0632 1.13966,0.0632 1.71817,0.0632 10.69403,0 19.36281,-8.66974 19.36281,-19.36566 0,-10.69277 -8.66878,-19.3625 -19.36281,-19.3625 -2.42419,0 -4.74579,0.44501 -6.88435,1.25927 0.1515,-1.10463 0.22724,-2.23134 0.22724,-3.377 0,-13.70051 -11.10621,-24.80988 -24.80768,-24.80988 z"
       style="fill:#ffffff;fill-opacity:1;stroke:none"
       inkscape:export-filename="C:\Users\Brayan\Desktop\City.png"
       inkscape:export-xdpi="459.41"
       inkscape:export-ydpi="459.41" />
    <path
       inkscape:connector-curvature="0"
       id="path4690"
       d="m 454.07688,305.62826 c -17.60362,0 -31.87538,14.27176 -31.87538,31.87633 0,1.47389 0.0978,2.91936 0.29036,4.3396 -2.74767,-1.04782 -5.72796,-1.61591 -8.84269,-1.61591 -13.73964,0 -24.87931,11.13462 -24.87931,24.87617 0,13.73837 11.13967,24.87615 24.87931,24.87615 0.74326,0 1.47863,-0.0316 2.20515,-0.0947 l 37.5683,0 c 0.72685,0.0632 1.46411,0.0947 2.20737,0.0947 0.74357,0 1.47862,-0.0316 2.20546,-0.0947 l 34.45862,0 c 0.72684,0.0632 1.46411,0.0947 2.20736,0.0947 13.73964,0 24.87743,-11.13778 24.87743,-24.87615 0,-13.74155 -11.13779,-24.87617 -24.87743,-24.87617 -3.11442,0 -6.0969,0.56809 -8.8449,1.61591 0.19252,-1.42024 0.29352,-2.86571 0.29352,-4.3396 0,-17.60457 -14.26955,-31.87633 -31.87348,-31.87633 z"
       style="fill:#ffffff;fill-opacity:1;stroke:none"
       inkscape:export-filename="C:\Users\Brayan\Desktop\City.png"
       inkscape:export-xdpi="459.41"
       inkscape:export-ydpi="459.41" />
    <path
       inkscape:connector-curvature="0"
       style="fill:#ffffff;fill-opacity:0.25490196;stroke:none"
       d="m 443.32919,433.6133 0,348.35144 68.447,0 0,-213.1327 -20.11996,0 0,-69.53142 -19.23216,0 0,-38.75972 -11.34197,0 0,-26.9276 -17.75291,0 z"
       id="path4837"
       inkscape:export-filename="C:\Users\Brayan\Desktop\City.png"
       inkscape:export-xdpi="459.41"
       inkscape:export-ydpi="459.41" />
    <g
       id="g4883"
       transform="matrix(0.3317139,0,0,0.3317139,-1833.448,-5421.762)"
       inkscape:export-filename="C:\Users\Brayan\Desktop\City.png"
       inkscape:export-xdpi="459.41"
       inkscape:export-ydpi="459.41">
      <rect
         style="fill:#d89a70;fill-opacity:1;stroke:none"
         id="rect4881"
         width="19.79899"
         height="89.802559"
         x="7058.3311"
         y="18612.652" />
      <path
         inkscape:connector-curvature="0"
         id="path4854"
         d="m 7068.2304,18489.598 c -7.4224,0 -13.6089,5.188 -15.2177,12.122 -4.8605,-5.193 -12.8116,-6.575 -19.2363,-2.866 -6.4358,3.716 -9.2353,11.301 -7.1477,18.117 -6.8076,-2.071 -14.3729,0.687 -18.0834,7.115 -3.7081,6.422 -2.3565,14.375 2.8327,19.236 -6.9185,1.619 -12.0886,7.838 -12.0886,15.251 0,7.412 5.1701,13.598 12.0886,15.217 -5.1892,4.861 -6.5408,12.814 -2.8327,19.236 3.7105,6.427 11.2758,9.186 18.0834,7.115 -2.0876,6.816 0.7119,14.4 7.1477,18.116 6.4247,3.71 14.3758,2.328 19.2363,-2.865 1.6088,6.932 7.7953,12.122 15.2177,12.122 7.4231,0 13.6426,-5.188 15.2506,-12.122 4.8605,5.193 12.8117,6.575 19.2363,2.865 6.4269,-3.71 9.186,-11.275 7.1148,-18.083 6.815,2.088 14.4006,-0.712 18.1164,-7.148 3.7093,-6.424 2.3273,-14.376 -2.8657,-19.236 6.9299,-1.611 12.0886,-7.798 12.0886,-15.217 0,-7.421 -5.1587,-13.64 -12.0886,-15.251 5.193,-4.861 6.575,-12.812 2.8657,-19.236 -3.7161,-6.437 -11.3009,-9.204 -18.1164,-7.115 2.0889,-6.816 -0.6783,-14.4 -7.1148,-18.117 -6.4246,-3.709 -14.3758,-2.327 -19.2363,2.866 -1.608,-6.934 -7.8275,-12.122 -15.2506,-12.122 z"
         style="fill:#afe9af;fill-opacity:1;stroke:none" />
    </g>
    <g
       id="g5006"
       transform="matrix(0.35062928,0,0,0.35062928,-2491.9194,-5774.6739)"
       inkscape:export-filename="C:\Users\Brayan\Desktop\City.png"
       inkscape:export-xdpi="459.41"
       inkscape:export-ydpi="459.41">
      <rect
         style="fill:#d89a70;fill-opacity:1;stroke:none"
         id="rect5008"
         width="19.79899"
         height="187.3833"
         x="7615.1006"
         y="18517.193" />
      <rect
         y="9838.8779"
         x="17548.785"
         height="58.052559"
         width="12.79899"
         id="rect5010"
         style="fill:#d89a70;fill-opacity:1;stroke:none"
         transform="matrix(0.78431123,0.62036755,-0.62036755,0.78431123,0,0)" />
      <path
         d="m 6945.2028,18565.275 c 0,38.662 -31.3417,70.004 -70.0036,70.004 -38.6619,0 -70.0036,-31.342 -70.0036,-70.004 0,-38.662 31.3417,-70.003 70.0036,-70.003 38.6619,0 70.0036,31.341 70.0036,70.003 z"
         sodipodi:ry="70.003571"
         sodipodi:rx="70.003571"
         sodipodi:cy="18565.275"
         sodipodi:cx="6875.1992"
         id="path5012"
         style="fill:#afe9af;fill-opacity:1;stroke:none"
         sodipodi:type="arc"
         transform="matrix(0.42424242,0,0,0.42424242,4756.7717,10713.14)" />
      <path
         transform="matrix(1.030303,0,0,1.030303,541.4617,-643.19418)"
         sodipodi:type="arc"
         style="fill:#afe9af;fill-opacity:1;stroke:none"
         id="path5014"
         sodipodi:cx="6875.1992"
         sodipodi:cy="18565.275"
         sodipodi:rx="70.003571"
         sodipodi:ry="70.003571"
         d="m 6945.2028,18565.275 c 0,38.662 -31.3417,70.004 -70.0036,70.004 -38.6619,0 -70.0036,-31.342 -70.0036,-70.004 0,-38.662 31.3417,-70.003 70.0036,-70.003 38.6619,0 70.0036,31.341 70.0036,70.003 z" />
    </g>
    <g
       id="g5020"
       transform="matrix(0.69051131,0,0,0.69051131,-4766.7088,-12130.807)"
       inkscape:export-filename="C:\Users\Brayan\Desktop\City.png"
       inkscape:export-xdpi="459.41"
       inkscape:export-ydpi="459.41">
      <rect
         y="18612.652"
         x="7018.1006"
         height="89.802559"
         width="19.79899"
         id="rect5022"
         style="fill:#d89a70;fill-opacity:1;stroke:none" />
      <path
         sodipodi:type="star"
         style="fill:#afe9af;fill-opacity:1;stroke:none"
         id="path5024"
         sodipodi:sides="3"
         sodipodi:cx="7014"
         sodipodi:cy="18559.361"
         sodipodi:r1="92.866837"
         sodipodi:r2="46.433418"
         sodipodi:arg1="0.52359878"
         sodipodi:arg2="1.5707963"
         inkscape:flatsided="true"
         inkscape:rounded="0"
         inkscape:randomized="0"
         d="m 7094.425,18605.795 -160.85,0 80.425,-139.301 z"
         inkscape:transform-center-y="-23.21671"
         transform="matrix(0.60211397,0,0,1,2804.7726,25.5)"
         inkscape:transform-center-x="1.4321787e-005" />
    </g>
    <g
       id="g5041"
       transform="matrix(0.42422065,0,0,0.42422065,-2739.0635,-7152.3121)"
       inkscape:export-filename="C:\Users\Brayan\Desktop\City.png"
       inkscape:export-xdpi="459.41"
       inkscape:export-ydpi="459.41">
      <rect
         style="fill:#d89a70;fill-opacity:1;stroke:none"
         id="rect5043"
         width="19.79899"
         height="89.802559"
         x="7309.4292"
         y="18614.773" />
      <g
         id="g5045"
         transform="matrix(0.72270329,0,0,0.72270329,2029.6255,5249.2292)">
        <path
           transform="matrix(0.72727272,0,0,0.72727272,2358.4275,4937.5413)"
           sodipodi:type="arc"
           style="fill:#afe9af;fill-opacity:1;stroke:none"
           id="path5047"
           sodipodi:cx="6875.1992"
           sodipodi:cy="18565.275"
           sodipodi:rx="70.003571"
           sodipodi:ry="70.003571"
           d="m 6945.2028,18565.275 c 0,38.662 -31.3417,70.004 -70.0036,70.004 -38.6619,0 -70.0036,-31.342 -70.0036,-70.004 0,-38.662 31.3417,-70.003 70.0036,-70.003 38.6619,0 70.0036,31.341 70.0036,70.003 z" />
        <path
           d="m 6945.2028,18565.275 c 0,38.662 -31.3417,70.004 -70.0036,70.004 -38.6619,0 -70.0036,-31.342 -70.0036,-70.004 0,-38.662 31.3417,-70.003 70.0036,-70.003 38.6619,0 70.0036,31.341 70.0036,70.003 z"
           sodipodi:ry="70.003571"
           sodipodi:rx="70.003571"
           sodipodi:cy="18565.275"
           sodipodi:cx="6875.1992"
           id="path5049"
           style="fill:#afe9af;fill-opacity:1;stroke:none"
           sodipodi:type="arc"
           transform="matrix(0.72727272,0,0,0.72727272,2279.9386,4937.5413)" />
      </g>
      <g
         id="g5051"
         transform="matrix(0,0.72270329,-0.72270329,0,20645.659,13285.858)">
        <path
           d="m 6945.2028,18565.275 c 0,38.662 -31.3417,70.004 -70.0036,70.004 -38.6619,0 -70.0036,-31.342 -70.0036,-70.004 0,-38.662 31.3417,-70.003 70.0036,-70.003 38.6619,0 70.0036,31.341 70.0036,70.003 z"
           sodipodi:ry="70.003571"
           sodipodi:rx="70.003571"
           sodipodi:cy="18565.275"
           sodipodi:cx="6875.1992"
           id="path5053"
           style="fill:#afe9af;fill-opacity:1;stroke:none"
           sodipodi:type="arc"
           transform="matrix(0.72727272,0,0,0.72727272,2358.4275,4937.5413)" />
        <path
           transform="matrix(0.72727272,0,0,0.72727272,2279.9386,4937.5413)"
           sodipodi:type="arc"
           style="fill:#afe9af;fill-opacity:1;stroke:none"
           id="path5055"
           sodipodi:cx="6875.1992"
           sodipodi:cy="18565.275"
           sodipodi:rx="70.003571"
           sodipodi:ry="70.003571"
           d="m 6945.2028,18565.275 c 0,38.662 -31.3417,70.004 -70.0036,70.004 -38.6619,0 -70.0036,-31.342 -70.0036,-70.004 0,-38.662 31.3417,-70.003 70.0036,-70.003 38.6619,0 70.0036,31.341 70.0036,70.003 z" />
      </g>
    </g>
    <g
       id="g5061"
       transform="matrix(0.49522286,0,0,0.49522286,-3079.9534,-8462.5333)"
       inkscape:export-filename="C:\Users\Brayan\Desktop\City.png"
       inkscape:export-xdpi="459.41"
       inkscape:export-ydpi="459.41">
      <rect
         y="18580.832"
         x="7370.5093"
         height="89.802559"
         width="19.79899"
         id="rect5057"
         style="fill:#d89a70;fill-opacity:1;stroke:none" />
      <path
         style="fill:#afe9af;fill-opacity:1;stroke:none"
         d="m 7419.4089,18518.233 c 0,21.539 -17.4609,84.374 -39,84.374 -21.5391,0 -39,-62.835 -39,-84.374 0,-21.539 17.4609,-39 39,-39 21.5391,0 39,17.461 39,39 z"
         id="path5059"
         inkscape:connector-curvature="0"
         sodipodi:nodetypes="sssss" />
    </g>
    <path
       style="fill:#dbe3e2;fill-opacity:1;stroke:none"
       d="m 14.011556,781.94581 c -7.6986053,0 -13.89681608,6.19852 -13.89681608,13.89618 0,7.70082 6.19821078,13.89934 13.89681608,13.89934 l 68.476981,0 89.021743,0 c 7.69892,0 13.89713,6.19538 13.89713,13.89619 0,7.69766 -6.19821,13.89618 -13.89713,13.89618 l -14.92632,0 -74.095423,0 -150.314243,0 c -7.698922,0 -13.897132,6.19853 -13.897132,13.89619 0,7.69765 6.19821,13.89619 13.897132,13.89619 l 150.314243,0 74.095423,0 178.59359,0 210.79784,0 13.61213,0 c 7.69893,0 13.89682,-6.19854 13.89682,-13.89619 0,-7.69766 -6.19789,-13.89619 -13.89682,-13.89619 l -13.61213,0 -97.0489,0 c -7.69893,0 -13.89681,-6.19852 -13.89681,-13.89618 0,-7.70081 6.19788,-13.89619 13.89681,-13.89619 l 97.0489,0 60.44982,0 c 7.69892,0 13.89713,-6.19852 13.89713,-13.89934 0,-7.69766 -6.19821,-13.89618 -13.89713,-13.89618 l -60.44982,0 -163.96016,0 -143.5937,0 -155.932993,0 -68.476981,0 z"
       id="rect3934"
       inkscape:connector-curvature="0"
       inkscape:export-filename="C:\Users\Brayan\Desktop\City.png"
       inkscape:export-xdpi="459.41"
       inkscape:export-ydpi="459.41" />
  </g>
</svg>
