<?xml version="1.0" encoding="UTF-8" standalone="no"?>
<!-- Created with Inkscape (http://www.inkscape.org/) -->

<svg
   xmlns:dc="http://purl.org/dc/elements/1.1/"
   xmlns:cc="http://creativecommons.org/ns#"
   xmlns:rdf="http://www.w3.org/1999/02/22-rdf-syntax-ns#"
   xmlns:svg="http://www.w3.org/2000/svg"
   xmlns="http://www.w3.org/2000/svg"
   xmlns:sodipodi="http://sodipodi.sourceforge.net/DTD/sodipodi-0.dtd"
   xmlns:inkscape="http://www.inkscape.org/namespaces/inkscape"
   width="210mm"
   height="297mm"
   viewBox="0 0 744.09448819 1052.3622047"
   id="svg2"
   version="1.1"
   inkscape:version="0.91 r13725"
   inkscape:export-filename="C:\Users\Brayan\Desktop\g4422.png"
   inkscape:export-xdpi="93.550003"
   inkscape:export-ydpi="93.550003"
   sodipodi:docname="Landscape.svg">
  <defs
     id="defs4">
    <inkscape:path-effect
       effect="skeletal"
       id="path-effect4148"
       is_visible="true"
       pattern="M 0,5 C 0,2.24 2.24,0 5,0 7.76,0 10,2.24 10,5 10,7.76 7.76,10 5,10 2.24,10 0,7.76 0,5 Z"
       copytype="single_stretched"
       prop_scale="1"
       scale_y_rel="false"
       spacing="0"
       normal_offset="0"
       tang_offset="0"
       prop_units="false"
       vertical_pattern="false"
       fuse_tolerance="0" />
  </defs>
  <sodipodi:namedview
     id="base"
     pagecolor="#ffffff"
     bordercolor="#666666"
     borderopacity="1.0"
     inkscape:pageopacity="0.0"
     inkscape:pageshadow="2"
     inkscape:zoom="0.4471581"
     inkscape:cx="-66.71984"
     inkscape:cy="1042.374"
     inkscape:document-units="px"
     inkscape:current-layer="layer1"
     showgrid="false"
     showborder="false"
     inkscape:window-width="1920"
     inkscape:window-height="1017"
     inkscape:window-x="-8"
     inkscape:window-y="-8"
     inkscape:window-maximized="1"
     inkscape:snap-smooth-nodes="true"
     inkscape:object-nodes="true"
     inkscape:snap-intersection-paths="true"
     inkscape:object-paths="true"
     inkscape:snap-nodes="false" />
  <metadata
     id="metadata7">
    <rdf:RDF>
      <cc:Work
         rdf:about="">
        <dc:format>image/svg+xml</dc:format>
        <dc:type
           rdf:resource="http://purl.org/dc/dcmitype/StillImage" />
        <dc:title></dc:title>
      </cc:Work>
    </rdf:RDF>
  </metadata>
  <g
     inkscape:label="Layer 1"
     inkscape:groupmode="layer"
     id="layer1">
    <rect
       style="opacity:1;fill:#2196f3;fill-opacity:1;stroke:none;stroke-width:2.70000005;stroke-miterlimit:4;stroke-dasharray:none;stroke-opacity:0.73124999"
       id="rect4182"
       width="985.17175"
       height="619.88336"
       x="169.20288"
       y="48.214443"
       inkscape:export-xdpi="93.550003"
       inkscape:export-ydpi="93.550003" />
    <g
       id="g4202"
       transform="translate(180.43112,-173.755)"
       inkscape:export-xdpi="93.550003"
       inkscape:export-ydpi="93.550003">
      <g
         transform="matrix(0.2928932,0,0,0.2928932,875.56355,159.25994)"
         id="g4196">
        <rect
           style="opacity:1;fill:#ffcc00;fill-opacity:1;stroke:none;stroke-width:2.70000005;stroke-miterlimit:4;stroke-dasharray:none;stroke-opacity:1"
           id="rect4188"
           width="322.59235"
           height="322.59235"
           x="-186.59753"
           y="388.20148" />
        <rect
           y="245.1481"
           x="209.36658"
           height="322.59235"
           width="322.59235"
           id="rect4190"
           style="opacity:1;fill:#ffcc00;fill-opacity:1;stroke:none;stroke-width:2.70000005;stroke-miterlimit:4;stroke-dasharray:none;stroke-opacity:1"
           transform="matrix(0.70710678,0.70710678,-0.70710678,0.70710678,0,0)" />
        <rect
           transform="matrix(-0.25881905,0.96592583,-0.96592583,-0.25881905,0,0)"
           style="opacity:1;fill:#ffcc00;fill-opacity:1;stroke:none;stroke-width:2.70000005;stroke-miterlimit:4;stroke-dasharray:none;stroke-opacity:1"
           id="rect4192"
           width="322.59235"
           height="322.59235"
           x="376.02628"
           y="-279.07739" />
        <rect
           y="-624.52441"
           x="135.36427"
           height="322.59235"
           width="322.59235"
           id="rect4194"
           style="opacity:1;fill:#ffcc00;fill-opacity:1;stroke:none;stroke-width:2.70000005;stroke-miterlimit:4;stroke-dasharray:none;stroke-opacity:1"
           transform="matrix(-0.86602541,0.5,-0.5,-0.86602541,0,0)" />
      </g>
      <path
         sodipodi:nodetypes="csssssssssssssssc"
         inkscape:connector-curvature="0"
         id="path4164"
         d="m 907.48873,320.2041 c 0,5.41284 -1.0936,10.57127 -3.0723,15.26579 -1.9786,4.69454 -4.8424,8.92517 -8.3827,12.48242 -3.5404,3.55725 -7.7573,6.44112 -12.4423,8.44213 -4.6851,2.001 -9.8383,3.11914 -15.251,3.14493 -5.4128,0.0258 -10.5764,-1.0432 -15.2803,-2.99946 -4.7039,-1.95627 -8.9481,-4.79983 -12.5222,-8.32318 -3.5741,-3.52335 -6.4781,-7.72651 -8.5013,-12.40197 -2.0233,-4.67545 -3.166,-9.82323 -3.2176,-15.23582 -0.052,-5.41259 0.9928,-10.58121 2.9266,-15.29438 1.9339,-4.71318 4.7572,-8.97091 8.2635,-12.56173 3.5062,-3.59083 7.6955,-6.51476 12.3612,-8.56031 4.6658,-2.04556 9.8081,-3.21276 15.2204,-3.29013 5.4122,-0.0773 10.5858,0.94236 15.3081,2.85372 4.7224,1.91135 8.9935,4.71433 12.601,8.20347 3.6074,3.48913 6.5514,7.66441 8.6191,12.32039 2.0677,4.65596 3.2594,9.79261 3.3626,15.20447"
         style="opacity:1;fill:#ffffff;fill-opacity:1;stroke:none;stroke-width:2.70000005;stroke-miterlimit:4;stroke-dasharray:none;stroke-opacity:1" />
    </g>
    <path
       style="opacity:1;fill:#ffffff;fill-opacity:1;stroke:none;stroke-width:2.70000005;stroke-miterlimit:4;stroke-dasharray:none;stroke-opacity:1"
       d="m 260.75622,110.86209 a 7.7151956,7.7151956 0 0 1 4.3077,1.39918 7.7151956,7.7151956 0 0 1 4.19052,-1.17535 7.7151956,7.7151956 0 0 1 4.74519,1.7187 7.7151956,7.7151956 0 0 1 3.97607,-1.04802 7.7151956,7.7151956 0 0 1 7.57129,7.0006 7.7151956,7.7151956 0 0 1 4.95339,7.27247 7.7151956,7.7151956 0 0 1 -4.72136,7.03615 7.7151956,7.7151956 0 0 1 -7.2795,5.078 7.7151956,7.7151956 0 0 1 -1.7152,-0.21094 7.7151956,7.7151956 0 0 1 -5.6643,2.4476 7.7151956,7.7151956 0 0 1 -4.09873,-1.20427 7.7151956,7.7151956 0 0 1 -5.07018,1.87496 7.7151956,7.7151956 0 0 1 -5.12565,-1.9937 7.7151956,7.7151956 0 0 1 -3.59601,0.87536 7.7151956,7.7151956 0 0 1 -6.61115,-3.81591 7.7151956,7.7151956 0 0 1 -0.32109,0.0145 7.7151956,7.7151956 0 0 1 -7.67832,-7.71505 l 0.001,-0.14726 a 7.7151956,7.7151956 0 0 1 0.71952,-3.08664 7.7151956,7.7151956 0 0 1 -0.94451,-3.69873 l 0.002,-0.14687 a 7.7151956,7.7151956 0 0 1 7.82402,-7.56739 7.7151956,7.7151956 0 0 1 1.30934,0.13282 7.7151956,7.7151956 0 0 1 6.07015,-2.81634 7.7151956,7.7151956 0 0 1 3.25461,0.78045 7.7151956,7.7151956 0 0 1 3.90146,-1.00428 z"
       id="path4210"
       inkscape:connector-curvature="0"
       inkscape:export-xdpi="93.550003"
       inkscape:export-ydpi="93.550003" />
    <path
       inkscape:connector-curvature="0"
       id="path4239"
       d="m 291.83515,215.75005 a 17.543885,17.543885 0 0 1 9.79547,3.18166 17.543885,17.543885 0 0 1 9.529,-2.6727 17.543885,17.543885 0 0 1 10.79028,3.90826 17.543885,17.543885 0 0 1 9.04134,-2.38314 17.543885,17.543885 0 0 1 17.21663,15.91893 17.543885,17.543885 0 0 1 11.26373,16.53717 17.543885,17.543885 0 0 1 -10.73609,15.99975 17.543885,17.543885 0 0 1 -16.55316,11.54708 17.543885,17.543885 0 0 1 -3.90025,-0.47968 17.543885,17.543885 0 0 1 -12.88029,5.56569 17.543885,17.543885 0 0 1 -9.32023,-2.73841 17.543885,17.543885 0 0 1 -11.52929,4.26352 17.543885,17.543885 0 0 1 -11.65543,-4.53355 17.543885,17.543885 0 0 1 -8.1771,1.99052 17.543885,17.543885 0 0 1 -15.03337,-8.67714 17.543885,17.543885 0 0 1 -0.73011,0.0329 17.543885,17.543885 0 0 1 -17.46003,-17.54354 l 0.002,-0.33486 a 17.543885,17.543885 0 0 1 1.63613,-7.01885 17.543885,17.543885 0 0 1 -2.14775,-8.41069 l 0.003,-0.33396 a 17.543885,17.543885 0 0 1 17.79134,-17.20777 17.543885,17.543885 0 0 1 2.97735,0.30199 17.543885,17.543885 0 0 1 13.80316,-6.40418 17.543885,17.543885 0 0 1 7.40077,1.77468 17.543885,17.543885 0 0 1 8.87169,-2.28364 z"
       style="opacity:1;fill:#ffffff;fill-opacity:1;stroke:none;stroke-width:2.70000005;stroke-miterlimit:4;stroke-dasharray:none;stroke-opacity:1"
       inkscape:export-xdpi="93.550003"
       inkscape:export-ydpi="93.550003" />
    <path
       style="opacity:1;fill:#ffffff;fill-opacity:1;stroke:none;stroke-width:2.70000005;stroke-miterlimit:4;stroke-dasharray:none;stroke-opacity:1"
       d="m 535.58311,152.23503 a 15.144883,15.144883 0 0 0 -8.456,2.74658 15.144883,15.144883 0 0 0 -8.22597,-2.30722 15.144883,15.144883 0 0 0 -9.31478,3.37381 15.144883,15.144883 0 0 0 -7.805,-2.05726 15.144883,15.144883 0 0 0 -14.86239,13.74214 15.144883,15.144883 0 0 0 -9.72348,14.27582 15.144883,15.144883 0 0 0 9.26801,13.81191 15.144883,15.144883 0 0 0 14.28961,9.96809 15.144883,15.144883 0 0 0 3.36692,-0.41407 15.144883,15.144883 0 0 0 11.119,4.80462 15.144883,15.144883 0 0 0 8.04577,-2.36397 15.144883,15.144883 0 0 0 9.95274,3.68052 15.144883,15.144883 0 0 0 10.06162,-3.91362 15.144883,15.144883 0 0 0 7.05894,1.71834 15.144883,15.144883 0 0 0 12.97766,-7.49062 15.144883,15.144883 0 0 0 0.63029,0.0284 15.144883,15.144883 0 0 0 15.07249,-15.14458 l -0.002,-0.28907 a 15.144883,15.144883 0 0 0 -1.4124,-6.05906 15.144883,15.144883 0 0 0 1.85406,-7.26059 l -0.003,-0.28831 a 15.144883,15.144883 0 0 0 -15.3585,-14.85473 15.144883,15.144883 0 0 0 -2.57023,0.26071 15.144883,15.144883 0 0 0 -11.91568,-5.52845 15.144883,15.144883 0 0 0 -6.38877,1.53201 15.144883,15.144883 0 0 0 -7.65855,-1.97138 z"
       id="path4241"
       inkscape:connector-curvature="0"
       inkscape:export-xdpi="93.550003"
       inkscape:export-ydpi="93.550003" />
    <path
       inkscape:connector-curvature="0"
       id="path4243"
       d="m 680.97091,247.40404 a 10.509047,10.509047 0 0 1 5.86762,1.90586 10.509047,10.509047 0 0 1 5.70801,-1.60098 10.509047,10.509047 0 0 1 6.46353,2.34109 10.509047,10.509047 0 0 1 5.4159,-1.42754 10.509047,10.509047 0 0 1 10.31302,9.53568 10.509047,10.509047 0 0 1 6.74713,9.90601 10.509047,10.509047 0 0 1 -6.43108,9.58409 10.509047,10.509047 0 0 1 -9.91557,6.91687 10.509047,10.509047 0 0 1 -2.33631,-0.28733 10.509047,10.509047 0 0 1 -7.71548,3.33393 10.509047,10.509047 0 0 1 -5.58297,-1.64036 10.509047,10.509047 0 0 1 -6.90621,2.55392 10.509047,10.509047 0 0 1 -6.98177,-2.71567 10.509047,10.509047 0 0 1 -4.8982,1.19236 10.509047,10.509047 0 0 1 -9.00521,-5.19774 10.509047,10.509047 0 0 1 -0.43736,0.0197 10.509047,10.509047 0 0 1 -10.45881,-10.50883 l 10e-4,-0.20059 a 10.509047,10.509047 0 0 1 0.98006,-4.20439 10.509047,10.509047 0 0 1 -1.28653,-5.03813 l 0.002,-0.20005 a 10.509047,10.509047 0 0 1 10.65728,-10.30771 10.509047,10.509047 0 0 1 1.78348,0.1809 10.509047,10.509047 0 0 1 8.2683,-3.83619 10.509047,10.509047 0 0 1 4.43317,1.06306 10.509047,10.509047 0 0 1 5.31428,-1.36794 z"
       style="opacity:1;fill:#ffffff;fill-opacity:1;stroke:none;stroke-width:2.70000005;stroke-miterlimit:4;stroke-dasharray:none;stroke-opacity:1"
       inkscape:export-xdpi="93.550003"
       inkscape:export-ydpi="93.550003" />
    <path
       style="opacity:1;fill:#ffffff;fill-opacity:1;stroke:none;stroke-width:2.70000005;stroke-miterlimit:4;stroke-dasharray:none;stroke-opacity:1"
       d="m 849.65848,134.06043 a 7.8599972,7.8599972 0 0 0 -4.38855,1.42544 7.8599972,7.8599972 0 0 0 -4.26918,-1.19742 7.8599972,7.8599972 0 0 0 -4.83425,1.75096 7.8599972,7.8599972 0 0 0 -4.05069,-1.06769 7.8599972,7.8599972 0 0 0 -7.71339,7.13199 7.8599972,7.8599972 0 0 0 -5.04636,7.40897 7.8599972,7.8599972 0 0 0 4.80998,7.1682 7.8599972,7.8599972 0 0 0 7.41612,5.17331 7.8599972,7.8599972 0 0 0 1.74739,-0.2149 7.8599972,7.8599972 0 0 0 5.77062,2.49354 7.8599972,7.8599972 0 0 0 4.17565,-1.22687 7.8599972,7.8599972 0 0 0 5.16534,1.91014 7.8599972,7.8599972 0 0 0 5.22185,-2.03112 7.8599972,7.8599972 0 0 0 3.6635,0.8918 7.8599972,7.8599972 0 0 0 6.73523,-3.88754 7.8599972,7.8599972 0 0 0 0.32712,0.0147 7.8599972,7.8599972 0 0 0 7.82242,-7.85984 l -0.001,-0.15002 a 7.8599972,7.8599972 0 0 0 -0.73301,-3.14457 7.8599972,7.8599972 0 0 0 0.96223,-3.76816 l -0.002,-0.14962 a 7.8599972,7.8599972 0 0 0 -7.97086,-7.70942 7.8599972,7.8599972 0 0 0 -1.33391,0.13531 7.8599972,7.8599972 0 0 0 -6.18409,-2.86919 7.8599972,7.8599972 0 0 0 -3.31569,0.79509 7.8599972,7.8599972 0 0 0 -3.97468,-1.02312 z"
       id="path4245"
       inkscape:connector-curvature="0"
       inkscape:export-xdpi="93.550003"
       inkscape:export-ydpi="93.550003" />
    <path
       inkscape:connector-curvature="0"
       id="path4247"
       d="m 943.6675,245.0437 a 19.716998,19.716998 0 0 0 -11.0088,3.57575 19.716998,19.716998 0 0 0 -10.70932,-3.00375 19.716998,19.716998 0 0 0 -12.12684,4.39234 19.716998,19.716998 0 0 0 -10.16126,-2.67833 19.716998,19.716998 0 0 0 -19.34922,17.89078 19.716998,19.716998 0 0 0 -12.65892,18.58557 19.716998,19.716998 0 0 0 12.06594,17.98161 19.716998,19.716998 0 0 0 18.60353,12.97737 19.716998,19.716998 0 0 0 4.38336,-0.53907 19.716998,19.716998 0 0 0 14.47574,6.25509 19.716998,19.716998 0 0 0 10.47472,-3.07763 19.716998,19.716998 0 0 0 12.95739,4.79164 19.716998,19.716998 0 0 0 13.09914,-5.09511 19.716998,19.716998 0 0 0 9.18998,2.23709 19.716998,19.716998 0 0 0 16.8955,-9.75197 19.716998,19.716998 0 0 0 0.82057,0.037 19.716998,19.716998 0 0 0 19.62279,-19.7166 l -0,-0.37634 a 19.716998,19.716998 0 0 0 -1.83883,-7.88824 19.716998,19.716998 0 0 0 2.41383,-9.4525 l -0,-0.37535 a 19.716998,19.716998 0 0 0 -19.99506,-19.33925 19.716998,19.716998 0 0 0 -3.34616,0.33941 19.716998,19.716998 0 0 0 -15.51292,-7.19744 19.716998,19.716998 0 0 0 -8.31749,1.99451 19.716998,19.716998 0 0 0 -9.9706,-2.56652 z"
       style="opacity:1;fill:#ffffff;fill-opacity:1;stroke:none;stroke-width:2.70000005;stroke-miterlimit:4;stroke-dasharray:none;stroke-opacity:1"
       inkscape:export-xdpi="93.550003"
       inkscape:export-ydpi="93.550003" />
    <path
       style="opacity:1;fill:#ffffff;fill-opacity:1;stroke:none;stroke-width:2.70000005;stroke-miterlimit:4;stroke-dasharray:none;stroke-opacity:1"
       d="m 659.7434,71.726593 a 15.144883,15.144883 0 0 1 8.456,2.74658 15.144883,15.144883 0 0 1 8.22597,-2.30722 15.144883,15.144883 0 0 1 9.31478,3.37381 15.144883,15.144883 0 0 1 7.805,-2.05726 15.144883,15.144883 0 0 1 14.86239,13.74214 15.144883,15.144883 0 0 1 9.72348,14.275817 15.144883,15.144883 0 0 1 -9.26801,13.81191 15.144883,15.144883 0 0 1 -14.28961,9.96809 15.144883,15.144883 0 0 1 -3.36692,-0.41407 15.144883,15.144883 0 0 1 -11.119,4.80462 15.144883,15.144883 0 0 1 -8.04577,-2.36397 15.144883,15.144883 0 0 1 -9.95274,3.68052 15.144883,15.144883 0 0 1 -10.06162,-3.91362 15.144883,15.144883 0 0 1 -7.05894,1.71834 15.144883,15.144883 0 0 1 -12.97766,-7.49062 15.144883,15.144883 0 0 1 -0.63029,0.0284 15.144883,15.144883 0 0 1 -15.07249,-15.14458 l 0.002,-0.28907 a 15.144883,15.144883 0 0 1 1.4124,-6.059057 15.144883,15.144883 0 0 1 -1.85406,-7.26059 l 0.003,-0.28831 a 15.144883,15.144883 0 0 1 15.3585,-14.85473 15.144883,15.144883 0 0 1 2.57023,0.26071 15.144883,15.144883 0 0 1 11.91568,-5.52845 15.144883,15.144883 0 0 1 6.38877,1.53201 15.144883,15.144883 0 0 1 7.65855,-1.97138 z"
       id="path4249"
       inkscape:connector-curvature="0"
       inkscape:export-xdpi="93.550003"
       inkscape:export-ydpi="93.550003" />
    <path
       inkscape:connector-curvature="0"
       id="path4251"
       d="m 453.18478,86.262378 a 8.8582249,8.8582249 0 0 0 -4.9459,1.606472 8.8582249,8.8582249 0 0 0 -4.81136,-1.349491 8.8582249,8.8582249 0 0 0 -5.44821,1.973338 8.8582249,8.8582249 0 0 0 -4.56513,-1.203289 8.8582249,8.8582249 0 0 0 -8.693,8.037762 8.8582249,8.8582249 0 0 0 -5.68725,8.34991 8.8582249,8.8582249 0 0 0 5.42085,8.07857 8.8582249,8.8582249 0 0 0 8.35798,5.83033 8.8582249,8.8582249 0 0 0 1.9693,-0.24219 8.8582249,8.8582249 0 0 0 6.50349,2.81021 8.8582249,8.8582249 0 0 0 4.70597,-1.38268 8.8582249,8.8582249 0 0 0 5.82134,2.15273 8.8582249,8.8582249 0 0 0 5.88503,-2.28907 8.8582249,8.8582249 0 0 0 4.12877,1.00506 8.8582249,8.8582249 0 0 0 7.59062,-4.38126 8.8582249,8.8582249 0 0 0 0.36865,0.0166 8.8582249,8.8582249 0 0 0 8.81589,-8.85805 l -0.001,-0.16907 a 8.8582249,8.8582249 0 0 0 -0.82612,-3.54394 8.8582249,8.8582249 0 0 0 1.08444,-4.246711 l -0.002,-0.168632 a 8.8582249,8.8582249 0 0 0 -8.98317,-8.688515 8.8582249,8.8582249 0 0 0 -1.50333,0.152489 8.8582249,8.8582249 0 0 0 -6.96946,-3.233584 8.8582249,8.8582249 0 0 0 -3.73679,0.896071 8.8582249,8.8582249 0 0 0 -4.47948,-1.153058 z"
       style="opacity:1;fill:#ffffff;fill-opacity:1;stroke:none;stroke-width:2.70000005;stroke-miterlimit:4;stroke-dasharray:none;stroke-opacity:1"
       inkscape:export-xdpi="93.550003"
       inkscape:export-ydpi="93.550003" />
    <g
       id="g4428"
       transform="matrix(-0.35134879,0,0,0.35134879,270.30569,462.8505)"
       inkscape:export-xdpi="93.550003"
       inkscape:export-ydpi="93.550003">
      <path
         style="opacity:1;fill:#6c5353;fill-opacity:1;stroke:none;stroke-opacity:1"
         d="m 19.602379,407.33255 -5.594954,0.58169 -2.17049,0.58149 -2.1706735,0.58169 -2.1706852,0.5815 3.7390587,16.09424 2.454804,12.24168 1.347424,11.03897 -0.87206,-1.51068 -6.3671282,-13.79474 -5.938863,-13.36685 -9.3633389,-10.37045 -1.945965,1.12345 -1.9461259,1.12365 -1.946149,1.12364 -1.946126,1.12347 7.2231059,12.51085 7.22292216,12.5107 6.79503654,14.6509 1.4179739,1.92192 6.3274215,62.41154 -6.6586388,65.67843 18.7652578,0 18.765281,0 -6.658651,-65.67843 6.428987,-63.41317 6.308683,-17.42029 3.599075,-21.53427 -3.083407,-0.82629 -3.083407,-0.82609 -5.311387,19.82214 -12.398509,16.97065 -4.574781,-16.0235 -4.166968,-15.66615 -2.026723,-12.24169 z"
         id="path4430"
         inkscape:connector-curvature="0" />
      <path
         inkscape:connector-curvature="0"
         style="opacity:1;fill:#8dd35f;fill-opacity:1;stroke:none;stroke-opacity:1"
         d="m 16.118941,282.10932 a 24.213245,24.213245 0 0 0 -20.8485055,11.9516 24.213245,24.213245 0 0 0 -12.4446645,-3.47681 24.213245,24.213245 0 0 0 -24.213284,24.21328 24.213245,24.213245 0 0 0 0.665734,5.5117 24.213245,24.213245 0 0 0 -1.271058,-0.0638 24.213245,24.213245 0 0 0 -24.213272,24.21328 24.213245,24.213245 0 0 0 10.804488,20.14529 24.213245,24.213245 0 0 0 -4.75123,14.35854 24.213245,24.213245 0 0 0 21.184631,23.99998 24.213245,24.213245 0 0 0 23.609973,18.97841 24.213245,24.213245 0 0 0 20.3918112,-11.20662 24.213245,24.213245 0 0 0 9.8747298,2.12673 24.213245,24.213245 0 0 0 11.00409,-2.6721 24.213245,24.213245 0 0 0 21.078422,12.35732 24.213245,24.213245 0 0 0 22.395061,-15.0393 24.213245,24.213245 0 0 0 11.503445,2.93277 24.213245,24.213245 0 0 0 24.213288,-24.21327 24.213245,24.213245 0 0 0 -4.50583,-14.01547 24.213245,24.213245 0 0 0 8.13778,-18.06706 24.213245,24.213245 0 0 0 -15.021119,-22.38809 24.213245,24.213245 0 0 0 0.493285,-4.85182 24.213245,24.213245 0 0 0 -21.253561,-24.0103 24.213245,24.213245 0 0 0 -22.935708,-16.54679 24.213245,24.213245 0 0 0 -14.819941,5.08084 24.213245,24.213245 0 0 0 -19.078565,-9.31834 z"
         id="path4432" />
    </g>
    <g
       transform="matrix(0.51422883,0,0,0.51422883,540.34344,367.70093)"
       id="g4416"
       inkscape:export-xdpi="93.550003"
       inkscape:export-ydpi="93.550003">
      <path
         inkscape:connector-curvature="0"
         id="path4418"
         d="m 19.602379,407.33255 -5.594954,0.58169 -2.17049,0.58149 -2.1706735,0.58169 -2.1706852,0.5815 3.7390587,16.09424 2.454804,12.24168 1.347424,11.03897 -0.87206,-1.51068 -6.3671282,-13.79474 -5.938863,-13.36685 -9.3633389,-10.37045 -1.945965,1.12345 -1.9461259,1.12365 -1.946149,1.12364 -1.946126,1.12347 7.2231059,12.51085 7.22292216,12.5107 6.79503654,14.6509 1.4179739,1.92192 6.3274215,62.41154 -6.6586388,65.67843 18.7652578,0 18.765281,0 -6.658651,-65.67843 6.428987,-63.41317 6.308683,-17.42029 3.599075,-21.53427 -3.083407,-0.82629 -3.083407,-0.82609 -5.311387,19.82214 -12.398509,16.97065 -4.574781,-16.0235 -4.166968,-15.66615 -2.026723,-12.24169 z"
         style="opacity:1;fill:#6c5353;fill-opacity:1;stroke:none;stroke-opacity:1" />
      <path
         id="path4420"
         d="m 16.118941,282.10932 a 24.213245,24.213245 0 0 0 -20.8485055,11.9516 24.213245,24.213245 0 0 0 -12.4446645,-3.47681 24.213245,24.213245 0 0 0 -24.213284,24.21328 24.213245,24.213245 0 0 0 0.665734,5.5117 24.213245,24.213245 0 0 0 -1.271058,-0.0638 24.213245,24.213245 0 0 0 -24.213272,24.21328 24.213245,24.213245 0 0 0 10.804488,20.14529 24.213245,24.213245 0 0 0 -4.75123,14.35854 24.213245,24.213245 0 0 0 21.184631,23.99998 24.213245,24.213245 0 0 0 23.609973,18.97841 24.213245,24.213245 0 0 0 20.3918112,-11.20662 24.213245,24.213245 0 0 0 9.8747298,2.12673 24.213245,24.213245 0 0 0 11.00409,-2.6721 24.213245,24.213245 0 0 0 21.078422,12.35732 24.213245,24.213245 0 0 0 22.395061,-15.0393 24.213245,24.213245 0 0 0 11.503445,2.93277 24.213245,24.213245 0 0 0 24.213288,-24.21327 24.213245,24.213245 0 0 0 -4.50583,-14.01547 24.213245,24.213245 0 0 0 8.13778,-18.06706 24.213245,24.213245 0 0 0 -15.021119,-22.38809 24.213245,24.213245 0 0 0 0.493285,-4.85182 24.213245,24.213245 0 0 0 -21.253561,-24.0103 24.213245,24.213245 0 0 0 -22.935708,-16.54679 24.213245,24.213245 0 0 0 -14.819941,5.08084 24.213245,24.213245 0 0 0 -19.078565,-9.31834 z"
         style="opacity:1;fill:#8dd35f;fill-opacity:1;stroke:none;stroke-opacity:1"
         inkscape:connector-curvature="0" />
    </g>
    <g
       id="g4538"
       transform="matrix(-0.61893208,0,0,0.61893208,919.72233,308.1178)"
       inkscape:export-xdpi="93.550003"
       inkscape:export-ydpi="93.550003">
      <path
         style="opacity:1;fill:#6c5353;fill-opacity:1;stroke:none;stroke-opacity:1"
         d="m 19.602379,394.68624 -5.594954,0.58169 -2.17049,0.58149 -2.1706735,0.58169 -2.1706852,0.5815 3.7390587,16.09424 2.454804,12.24168 1.347424,11.03897 -0.87206,-1.51068 -6.3671282,-13.79474 -5.938863,-13.36685 -9.3633389,-10.37045 -1.945965,1.12345 -1.9461259,1.12365 -1.946149,1.12364 -1.946126,1.12347 7.2231059,12.51085 7.22292216,12.5107 6.79503654,14.6509 1.4179739,1.92192 6.3274215,62.41154 -6.6586388,65.67843 18.7652578,0 18.765281,0 -6.658651,-65.67843 6.428987,-63.41317 6.308683,-17.42029 3.599075,-21.53427 -3.083407,-0.82629 -3.083407,-0.82609 -5.311387,19.82214 -12.398509,16.97065 -4.574781,-16.0235 -4.166968,-15.66615 -2.026723,-12.24169 z"
         id="path4540"
         inkscape:connector-curvature="0" />
      <path
         inkscape:connector-curvature="0"
         style="opacity:1;fill:#8dd35f;fill-opacity:1;stroke:none;stroke-opacity:1"
         d="m 16.118941,282.10932 a 24.213245,24.213245 0 0 0 -20.8485055,11.9516 24.213245,24.213245 0 0 0 -12.4446645,-3.47681 24.213245,24.213245 0 0 0 -24.213284,24.21328 24.213245,24.213245 0 0 0 0.665734,5.5117 24.213245,24.213245 0 0 0 -1.271058,-0.0638 24.213245,24.213245 0 0 0 -24.213272,24.21328 24.213245,24.213245 0 0 0 10.804488,20.14529 24.213245,24.213245 0 0 0 -4.75123,14.35854 24.213245,24.213245 0 0 0 21.184631,23.99998 24.213245,24.213245 0 0 0 23.609973,18.97841 24.213245,24.213245 0 0 0 20.3918112,-11.20662 24.213245,24.213245 0 0 0 9.8747298,2.12673 24.213245,24.213245 0 0 0 11.00409,-2.6721 24.213245,24.213245 0 0 0 21.078422,12.35732 24.213245,24.213245 0 0 0 22.395061,-15.0393 24.213245,24.213245 0 0 0 11.503445,2.93277 24.213245,24.213245 0 0 0 24.213288,-24.21327 24.213245,24.213245 0 0 0 -4.50583,-14.01547 24.213245,24.213245 0 0 0 8.13778,-18.06706 24.213245,24.213245 0 0 0 -15.021119,-22.38809 24.213245,24.213245 0 0 0 0.493285,-4.85182 24.213245,24.213245 0 0 0 -21.253561,-24.0103 24.213245,24.213245 0 0 0 -22.935708,-16.54679 24.213245,24.213245 0 0 0 -14.819941,5.08084 24.213245,24.213245 0 0 0 -19.078565,-9.31834 z"
         id="path4542" />
    </g>
    <path
       style="opacity:1;fill:#8dd35f;fill-opacity:1;stroke:none;stroke-width:2.70000005;stroke-miterlimit:4;stroke-dasharray:none;stroke-opacity:1"
       d="m 214.15862,653.29166 -7.21061,10.08136 -5.88141,-5.7087 -6.12752,6.44207 -3.41374,-3.59987 -10.27355,5.78754 -8.48831,-5.24697 -3.56063,7.05069 14.96662,0 14.55443,0 13.09203,0 8.94489,0 12.04839,0 2.91878,0 11.6362,0 13.09148,0 8.94544,0 8.59628,0 14.55444,0 4.84434,0 13.86434,0 14.55498,0 3.73988,0 9.3516,0 8.94544,0 12.98953,0 1.9771,0 12.57733,0 3.57872,0 1.26563,0 13.70099,0 14.55442,0 3.90431,0 9.18772,0 12.42607,0 11.486,0 -11.40599,-7.05069 -2.07848,4.11614 -8.08489,-11.87157 -7.21063,10.08136 -5.8814,-5.7087 -5.67148,5.96251 -2.20126,-1.36088 -1.66851,-1.75943 -4.01339,2.26112 -6.45311,-9.47598 -6.38952,8.93325 -1.90584,-1.17782 -0.43138,0.85433 -4.36528,-4.2371 -6.12752,6.44207 -3.41374,-3.59987 -9.23924,5.20485 -7.54552,-4.66428 -0.47029,0.93156 -1.50681,-0.93156 -1.23657,2.44906 -6.94971,-10.20449 -7.21062,10.08136 -5.88141,-5.7087 -5.73177,6.02624 -1.90913,-1.18052 -1.90035,-2.00352 -4.13124,2.32755 -6.49915,-9.54241 -6.33909,8.86304 -1.79238,-1.10761 -0.4851,0.96018 -4.47491,-4.34295 -6.12752,6.44207 -3.41374,-3.59987 -6.94093,3.90984 -5.45058,-3.36927 -1.51558,3.00097 -2.28404,-1.41165 -6.36377,-9.34475 -7.21061,10.08136 -5.88141,-5.7087 -6.12752,6.44207 -3.41374,-3.59987 -8.74647,4.92727 -7.09661,-4.3867 -0.69447,1.37493 -2.2243,-1.37493 -0.8359,1.65521 -6.40871,-9.41064 z"
       id="path4253"
       inkscape:connector-curvature="0"
       inkscape:export-xdpi="93.550003"
       inkscape:export-ydpi="93.550003" />
    <g
       id="g4576">
      <path
         inkscape:export-ydpi="93.550003"
         inkscape:export-xdpi="93.550003"
         style="opacity:1;fill:#6c5353;fill-opacity:1;stroke:none;stroke-opacity:1"
         d="m 446.61788,444.70137 -6.96191,0.72381 -2.70078,0.72356 -2.70102,0.7238 -2.70102,0.72358 4.65258,20.02638 3.05456,15.23257 1.67663,13.73601 -1.08512,-1.87977 -7.92275,-17.16507 -7.38984,-16.63264 -11.65099,-12.90416 -2.42141,1.39793 -2.4216,1.39818 -2.42163,1.39817 -2.42161,1.39796 8.98786,15.5675 8.98763,15.56732 8.4552,18.2304 1.76441,2.39149 7.87334,77.65993 -8.28548,81.72499 23.34999,0 23.35001,0 -8.28549,-81.72499 7.99972,-78.90628 7.85002,-21.67642 4.4784,-26.79552 -3.83674,-1.02817 -3.83675,-1.02792 -6.60907,24.66509 -15.42771,21.11692 -5.69249,-19.93837 -5.18504,-19.4937 -2.5219,-15.23258 z"
         id="path4412"
         inkscape:connector-curvature="0" />
      <path
         inkscape:export-ydpi="93.550003"
         inkscape:export-xdpi="93.550003"
         inkscape:connector-curvature="0"
         style="opacity:1;fill:#9cd874;fill-opacity:1;stroke:none;stroke-opacity:1"
         d="m 442.28337,288.88359 a 30.129027,30.129027 0 0 0 -25.94221,14.87161 30.129027,30.129027 0 0 0 -15.48515,-4.32626 30.129027,30.129027 0 0 0 -30.12907,30.12907 30.129027,30.129027 0 0 0 0.82838,6.85832 30.129027,30.129027 0 0 0 -1.5816,-0.0794 30.129027,30.129027 0 0 0 -30.12906,30.12907 30.129027,30.129027 0 0 0 13.44424,25.06719 30.129027,30.129027 0 0 0 -5.91205,17.86662 30.129027,30.129027 0 0 0 26.36046,29.86366 30.129027,30.129027 0 0 0 29.37836,23.61521 30.129027,30.129027 0 0 0 25.37395,-13.94462 30.129027,30.129027 0 0 0 12.28732,2.64633 30.129027,30.129027 0 0 0 13.69261,-3.32494 30.129027,30.129027 0 0 0 26.2283,15.37646 30.129027,30.129027 0 0 0 27.86663,-18.7137 30.129027,30.129027 0 0 0 14.31397,3.6493 30.129027,30.129027 0 0 0 30.12908,-30.12906 30.129027,30.129027 0 0 0 -5.6067,-17.43973 30.129027,30.129027 0 0 0 10.12601,-22.48121 30.129027,30.129027 0 0 0 -18.69108,-27.85795 30.129027,30.129027 0 0 0 0.6138,-6.03721 30.129027,30.129027 0 0 0 -26.44623,-29.8765 30.129027,30.129027 0 0 0 -28.53937,-20.58951 30.129027,30.129027 0 0 0 -18.44075,6.3222 30.129027,30.129027 0 0 0 -23.73984,-11.595 z"
         id="path4414" />
    </g>
    <g
       transform="matrix(-1,0,0,1,1071.5269,83.928165)"
       id="g4422"
       inkscape:export-xdpi="93.550003"
       inkscape:export-ydpi="93.550003">
      <path
         inkscape:connector-curvature="0"
         id="path4424"
         d="m 19.602379,407.33255 -5.594954,0.58169 -2.17049,0.58149 -2.1706735,0.58169 -2.1706852,0.5815 3.7390587,16.09424 2.454804,12.24168 1.347424,11.03897 -0.87206,-1.51068 -6.3671282,-13.79474 -5.938863,-13.36685 -9.3633389,-10.37045 -1.945965,1.12345 -1.9461259,1.12365 -1.946149,1.12364 -1.946126,1.12347 7.2231059,12.51085 7.22292216,12.5107 6.79503654,14.6509 1.4179739,1.92192 6.3274215,62.41154 -6.6586388,65.67843 18.7652578,0 18.765281,0 -6.658651,-65.67843 6.428987,-63.41317 6.308683,-17.42029 3.599075,-21.53427 -3.083407,-0.82629 -3.083407,-0.82609 -5.311387,19.82214 -12.398509,16.97065 -4.574781,-16.0235 -4.166968,-15.66615 -2.026723,-12.24169 z"
         style="opacity:1;fill:#6c5353;fill-opacity:1;stroke:none;stroke-opacity:1" />
      <path
         id="path4426"
         d="m 16.118941,282.10932 a 24.213245,24.213245 0 0 0 -20.8485055,11.9516 24.213245,24.213245 0 0 0 -12.4446645,-3.47681 24.213245,24.213245 0 0 0 -24.213284,24.21328 24.213245,24.213245 0 0 0 0.665734,5.5117 24.213245,24.213245 0 0 0 -1.271058,-0.0638 24.213245,24.213245 0 0 0 -24.213272,24.21328 24.213245,24.213245 0 0 0 10.804488,20.14529 24.213245,24.213245 0 0 0 -4.75123,14.35854 24.213245,24.213245 0 0 0 21.184631,23.99998 24.213245,24.213245 0 0 0 23.609973,18.97841 24.213245,24.213245 0 0 0 20.3918112,-11.20662 24.213245,24.213245 0 0 0 9.8747298,2.12673 24.213245,24.213245 0 0 0 11.00409,-2.6721 24.213245,24.213245 0 0 0 21.078422,12.35732 24.213245,24.213245 0 0 0 22.395061,-15.0393 24.213245,24.213245 0 0 0 11.503445,2.93277 24.213245,24.213245 0 0 0 24.213288,-24.21327 24.213245,24.213245 0 0 0 -4.50583,-14.01547 24.213245,24.213245 0 0 0 8.13778,-18.06706 24.213245,24.213245 0 0 0 -15.021119,-22.38809 24.213245,24.213245 0 0 0 0.493285,-4.85182 24.213245,24.213245 0 0 0 -21.253561,-24.0103 24.213245,24.213245 0 0 0 -22.935708,-16.54679 24.213245,24.213245 0 0 0 -14.819941,5.08084 24.213245,24.213245 0 0 0 -19.078565,-9.31834 z"
         style="opacity:1;fill:#8dd35f;fill-opacity:1;stroke:none;stroke-opacity:1"
         inkscape:connector-curvature="0" />
    </g>
    <g
       transform="matrix(0.87435612,0,0,0.87435612,738.70893,155.74418)"
       id="g4532"
       inkscape:export-xdpi="93.550003"
       inkscape:export-ydpi="93.550003">
      <path
         inkscape:connector-curvature="0"
         id="path4534"
         d="m 19.602379,407.33255 -5.594954,0.58169 -2.17049,0.58149 -2.1706735,0.58169 -2.1706852,0.5815 3.7390587,16.09424 2.454804,12.24168 1.347424,11.03897 -0.87206,-1.51068 -6.3671282,-13.79474 -5.938863,-13.36685 -9.3633389,-10.37045 -1.945965,1.12345 -1.9461259,1.12365 -1.946149,1.12364 -1.946126,1.12347 7.2231059,12.51085 7.22292216,12.5107 6.79503654,14.6509 1.4179739,1.92192 6.3274215,62.41154 -6.6586388,65.67843 18.7652578,0 18.765281,0 -6.658651,-65.67843 6.428987,-63.41317 6.308683,-17.42029 3.599075,-21.53427 -3.083407,-0.82629 -3.083407,-0.82609 -5.311387,19.82214 -12.398509,16.97065 -4.574781,-16.0235 -4.166968,-15.66615 -2.026723,-12.24169 z"
         style="opacity:1;fill:#6c5353;fill-opacity:1;stroke:none;stroke-opacity:1" />
      <path
         id="path4536"
         d="m 16.118941,282.10932 a 24.213245,24.213245 0 0 0 -20.8485055,11.9516 24.213245,24.213245 0 0 0 -12.4446645,-3.47681 24.213245,24.213245 0 0 0 -24.213284,24.21328 24.213245,24.213245 0 0 0 0.665734,5.5117 24.213245,24.213245 0 0 0 -1.271058,-0.0638 24.213245,24.213245 0 0 0 -24.213272,24.21328 24.213245,24.213245 0 0 0 10.804488,20.14529 24.213245,24.213245 0 0 0 -4.75123,14.35854 24.213245,24.213245 0 0 0 21.184631,23.99998 24.213245,24.213245 0 0 0 23.609973,18.97841 24.213245,24.213245 0 0 0 20.3918112,-11.20662 24.213245,24.213245 0 0 0 9.8747298,2.12673 24.213245,24.213245 0 0 0 11.00409,-2.6721 24.213245,24.213245 0 0 0 21.078422,12.35732 24.213245,24.213245 0 0 0 22.395061,-15.0393 24.213245,24.213245 0 0 0 11.503445,2.93277 24.213245,24.213245 0 0 0 24.213288,-24.21327 24.213245,24.213245 0 0 0 -4.50583,-14.01547 24.213245,24.213245 0 0 0 8.13778,-18.06706 24.213245,24.213245 0 0 0 -15.021119,-22.38809 24.213245,24.213245 0 0 0 0.493285,-4.85182 24.213245,24.213245 0 0 0 -21.253561,-24.0103 24.213245,24.213245 0 0 0 -22.935708,-16.54679 24.213245,24.213245 0 0 0 -14.819941,5.08084 24.213245,24.213245 0 0 0 -19.078565,-9.31834 z"
         style="opacity:1;fill:#8dd35f;fill-opacity:1;stroke:none;stroke-opacity:1"
         inkscape:connector-curvature="0" />
    </g>
    <path
       inkscape:connector-curvature="0"
       id="path4544"
       d="m 453.4519,653.29166 -7.21061,10.08136 -5.88141,-5.7087 -6.12752,6.44207 -3.41374,-3.59987 -10.27355,5.78754 -8.48831,-5.24697 -3.56063,7.05069 14.96662,0 14.55443,0 13.09203,0 8.94489,0 12.04839,0 2.91878,0 11.6362,0 13.09148,0 8.94544,0 8.59628,0 14.55444,0 4.84434,0 13.86434,0 14.55498,0 3.73988,0 9.3516,0 8.94544,0 12.98953,0 1.9771,0 12.57733,0 3.57872,0 1.26563,0 13.70099,0 14.55442,0 3.90431,0 9.18772,0 12.42607,0 11.486,0 -11.40599,-7.05069 -2.07848,4.11614 -8.08489,-11.87157 -7.21063,10.08136 -5.8814,-5.7087 -5.67148,5.96251 -2.20126,-1.36088 -1.66851,-1.75943 -4.01339,2.26112 -6.45311,-9.47598 -6.38952,8.93325 -1.90584,-1.17782 -0.43138,0.85433 -4.36528,-4.2371 -6.12752,6.44207 -3.41374,-3.59987 -9.23924,5.20485 -7.54552,-4.66428 -0.47029,0.93156 -1.50681,-0.93156 -1.23657,2.44906 -6.94971,-10.20449 -7.21062,10.08136 -5.88141,-5.7087 -5.73177,6.02624 -1.90913,-1.18052 -1.90035,-2.00352 -4.13124,2.32755 -6.49915,-9.54241 -6.33909,8.86304 -1.79238,-1.10761 -0.4851,0.96018 -4.47491,-4.34295 -6.12752,6.44207 -3.41374,-3.59987 -6.94093,3.90984 -5.45058,-3.36927 -1.51558,3.00097 -2.28404,-1.41165 -6.36377,-9.34475 -7.21061,10.08136 -5.88141,-5.7087 -6.12752,6.44207 -3.41374,-3.59987 -8.74647,4.92727 -7.09661,-4.3867 -0.69447,1.37493 -2.2243,-1.37493 -0.8359,1.65521 -6.40871,-9.41064 z"
       style="opacity:1;fill:#8dd35f;fill-opacity:1;stroke:none;stroke-width:2.70000005;stroke-miterlimit:4;stroke-dasharray:none;stroke-opacity:1"
       inkscape:export-xdpi="93.550003"
       inkscape:export-ydpi="93.550003" />
    <path
       style="opacity:1;fill:#8dd35f;fill-opacity:1;stroke:none;stroke-width:2.70000005;stroke-miterlimit:4;stroke-dasharray:none;stroke-opacity:1"
       d="m 714.78266,653.29166 -7.21061,10.08136 -5.88141,-5.7087 -6.12752,6.44207 -3.41374,-3.59987 -10.27355,5.78754 -8.48831,-5.24697 -3.56063,7.05069 14.96662,0 14.55443,0 13.09203,0 8.94489,0 12.04839,0 2.91878,0 11.6362,0 13.09148,0 8.94544,0 8.59628,0 14.55444,0 4.84434,0 13.86434,0 14.55498,0 3.73988,0 9.3516,0 8.94544,0 12.98953,0 1.9771,0 12.57733,0 3.57872,0 1.26563,0 13.70099,0 14.55442,0 3.90431,0 9.18772,0 12.42607,0 11.486,0 -11.40599,-7.05069 -2.07848,4.11614 -8.08489,-11.87157 -7.21063,10.08136 -5.8814,-5.7087 -5.67148,5.96251 -2.20126,-1.36088 -1.66851,-1.75943 -4.01339,2.26112 -6.45311,-9.47598 -6.38952,8.93325 -1.90584,-1.17782 -0.43138,0.85433 -4.36528,-4.2371 -6.12752,6.44207 -3.41374,-3.59987 -9.23924,5.20485 -7.54552,-4.66428 -0.47029,0.93156 -1.50681,-0.93156 -1.23657,2.44906 -6.94971,-10.20449 -7.21062,10.08136 -5.88141,-5.7087 -5.73177,6.02624 -1.90913,-1.18052 -1.90035,-2.00352 -4.13124,2.32755 -6.49915,-9.54241 -6.33909,8.86304 -1.79238,-1.10761 -0.4851,0.96018 -4.47491,-4.34295 -6.12752,6.44207 -3.41374,-3.59987 -6.94093,3.90984 -5.45058,-3.36927 -1.51558,3.00097 -2.28404,-1.41165 -6.36377,-9.34475 -7.21061,10.08136 -5.88141,-5.7087 -6.12752,6.44207 -3.41374,-3.59987 -8.74647,4.92727 -7.09661,-4.3867 -0.69447,1.37493 -2.2243,-1.37493 -0.8359,1.65521 -6.40871,-9.41064 z"
       id="path4546"
       inkscape:connector-curvature="0"
       inkscape:export-xdpi="93.550003"
       inkscape:export-ydpi="93.550003" />
    <path
       inkscape:connector-curvature="0"
       id="path4548"
       d="m 922.72822,653.29166 -7.21061,10.08136 -5.88141,-5.7087 -6.12752,6.44207 -3.41374,-3.59987 -10.27355,5.78754 -8.48831,-5.24697 -3.56063,7.05069 14.96662,0 14.55443,0 13.09203,0 8.94489,0 12.04839,0 2.91878,0 11.6362,0 13.09148,0 8.94544,0 8.59628,0 14.55441,0 4.8444,0 13.8643,0 14.555,0 3.7399,0 9.3516,0 8.9454,0 12.9895,0 1.9771,0 12.5774,0 3.5787,0 1.2656,0 13.701,0 14.5544,0 3.9043,0 9.1878,0 12.426,0 11.486,0 -11.406,-7.05069 -2.0784,4.11614 -8.0849,-11.87157 -7.2107,10.08136 -5.8814,-5.7087 -5.6714,5.96251 -2.2013,-1.36088 -1.6685,-1.75943 -4.0134,2.26112 -6.4531,-9.47598 -6.3895,8.93325 -1.9059,-1.17782 -0.4313,0.85433 -4.3653,-4.2371 -6.1275,6.44207 -3.4138,-3.59987 -9.2392,5.20485 -7.5455,-4.66428 -0.4703,0.93156 -1.5068,-0.93156 -1.2366,2.44906 -6.9497,-10.20449 -7.2106,10.08136 -5.8815,-5.7087 -5.7317,6.02624 -1.9092,-1.18052 -1.9003,-2.00352 -4.1312,2.32755 -6.4992,-9.54241 -6.3391,8.86304 -1.7924,-1.10761 -0.4851,0.96018 -4.4749,-4.34295 -6.1275,6.44207 -3.41374,-3.59987 -6.94093,3.90984 -5.45058,-3.36927 -1.51558,3.00097 -2.28404,-1.41165 -6.36377,-9.34475 -7.21061,10.08136 -5.88141,-5.7087 -6.12752,6.44207 -3.41374,-3.59987 -8.74647,4.92727 -7.09661,-4.3867 -0.69447,1.37493 -2.2243,-1.37493 -0.8359,1.65521 -6.40871,-9.41064 z"
       style="opacity:1;fill:#8dd35f;fill-opacity:1;stroke:none;stroke-width:2.70000005;stroke-miterlimit:4;stroke-dasharray:none;stroke-opacity:1"
       inkscape:export-xdpi="93.550003"
       inkscape:export-ydpi="93.550003" />
  </g>
</svg>
