<?xml version="1.0" encoding="UTF-8" standalone="no"?>
<!-- Created with Inkscape (http://www.inkscape.org/) -->

<svg
   xmlns:dc="http://purl.org/dc/elements/1.1/"
   xmlns:cc="http://creativecommons.org/ns#"
   xmlns:rdf="http://www.w3.org/1999/02/22-rdf-syntax-ns#"
   xmlns:svg="http://www.w3.org/2000/svg"
   xmlns="http://www.w3.org/2000/svg"
   xmlns:sodipodi="http://sodipodi.sourceforge.net/DTD/sodipodi-0.dtd"
   xmlns:inkscape="http://www.inkscape.org/namespaces/inkscape"
   width="452.37964"
   height="279.28406"
   viewBox="0 0 452.37964 279.28406"
   id="svg7374"
   version="1.1"
   inkscape:version="0.91 r13725"
   sodipodi:docname="UI-UX Designer.svg"
   inkscape:export-filename="C:\Users\brayan.bedritchuk\Desktop\g6645.png"
   inkscape:export-xdpi="101.86"
   inkscape:export-ydpi="101.86">
  <defs
     id="defs7376" />
  <sodipodi:namedview
     id="base"
     pagecolor="#ffffff"
     bordercolor="#666666"
     borderopacity="1.0"
     inkscape:pageopacity="1"
     inkscape:pageshadow="2"
     inkscape:zoom="0.70710678"
     inkscape:cx="130.02349"
     inkscape:cy="239.46547"
     inkscape:document-units="px"
     inkscape:current-layer="layer1"
     showgrid="false"
     inkscape:window-width="1680"
     inkscape:window-height="987"
     inkscape:window-x="-8"
     inkscape:window-y="-8"
     inkscape:window-maximized="1"
     units="px"
     fit-margin-top="32"
     fit-margin-left="32"
     fit-margin-right="32"
     fit-margin-bottom="32" />
  <metadata
     id="metadata7379">
    <rdf:RDF>
      <cc:Work
         rdf:about="">
        <dc:format>image/svg+xml</dc:format>
        <dc:type
           rdf:resource="http://purl.org/dc/dcmitype/StillImage" />
        <dc:title />
      </cc:Work>
    </rdf:RDF>
  </metadata>
  <g
     inkscape:label="Layer 1"
     inkscape:groupmode="layer"
     id="layer1"
     transform="translate(989.90402,-525.29161)">
    <rect
       style="opacity:1;fill:#ffe4d3;fill-opacity:1;stroke:none;stroke-width:1;stroke-miterlimit:4;stroke-dasharray:none;stroke-opacity:1"
       id="rect4737"
       width="900"
       height="650"
       x="-1247.9041"
       y="308.57565"
       inkscape:export-filename="C:\Users\brayan.bedritchuk\Desktop\g6645.png"
       inkscape:export-xdpi="90"
       inkscape:export-ydpi="90" />
    <g
       id="g6645"
       transform="matrix(0.20940869,0,0,0.20893511,198.54604,339.3024)"
       inkscape:export-filename="C:\Users\brayan.bedritchuk\Desktop\g6645.png"
       inkscape:export-xdpi="90"
       inkscape:export-ydpi="90">
      <g
         transform="translate(0,-128)"
         id="g5971">
        <text
           sodipodi:linespacing="125%"
           id="text5832"
           y="2418.6599"
           x="-5988.9834"
           style="font-style:normal;font-weight:normal;font-size:424.77667236px;line-height:125%;font-family:sans-serif;letter-spacing:0px;word-spacing:0px;fill:#77adff;fill-opacity:1;stroke:none;stroke-width:1px;stroke-linecap:butt;stroke-linejoin:miter;stroke-opacity:1"
           xml:space="preserve"><tspan
             style="font-style:normal;font-variant:normal;font-weight:normal;font-stretch:normal;font-family:'Roboto Condensed';-inkscape-font-specification:'Roboto Condensed, ';fill:#77adff;fill-opacity:1"
             y="2418.6599"
             x="-5988.9834"
             id="tspan5834"
             sodipodi:role="line">UI</tspan></text>
        <text
           xml:space="preserve"
           style="font-style:normal;font-weight:normal;font-size:424.77667236px;line-height:125%;font-family:sans-serif;letter-spacing:0px;word-spacing:0px;fill:#ff7f2a;fill-opacity:1;stroke:none;stroke-width:1px;stroke-linecap:butt;stroke-linejoin:miter;stroke-opacity:1"
           x="-5649.5723"
           y="2418.6599"
           id="text5836"
           sodipodi:linespacing="125%"><tspan
             sodipodi:role="line"
             id="tspan5838"
             x="-5649.5723"
             y="2418.6599"
             style="font-style:normal;font-variant:normal;font-weight:normal;font-stretch:normal;font-family:'Roboto Condensed';-inkscape-font-specification:'Roboto Condensed, ';fill:#ff7f2a;fill-opacity:1">/</tspan></text>
        <text
           sodipodi:linespacing="125%"
           id="text5840"
           y="2418.6599"
           x="-5513.8076"
           style="font-style:normal;font-weight:normal;font-size:424.77667236px;line-height:125%;font-family:sans-serif;letter-spacing:0px;word-spacing:0px;fill:#1e77ff;fill-opacity:1;stroke:none;stroke-width:1px;stroke-linecap:butt;stroke-linejoin:miter;stroke-opacity:1"
           xml:space="preserve"><tspan
             style="font-style:normal;font-variant:normal;font-weight:normal;font-stretch:normal;font-family:'Roboto Condensed';-inkscape-font-specification:'Roboto Condensed, ';fill:#1e77ff;fill-opacity:1"
             y="2418.6599"
             x="-5513.8076"
             id="tspan5842"
             sodipodi:role="line">UX</tspan></text>
        <text
           xml:space="preserve"
           style="font-style:normal;font-weight:normal;font-size:424.77667236px;line-height:125%;font-family:sans-serif;letter-spacing:0px;word-spacing:0px;fill:#ff7f2a;fill-opacity:1;stroke:none;stroke-width:1px;stroke-linecap:butt;stroke-linejoin:miter;stroke-opacity:1"
           x="-5021.3774"
           y="2418.6599"
           id="text5844"
           sodipodi:linespacing="125%"><tspan
             sodipodi:role="line"
             id="tspan5846"
             x="-5021.3774"
             y="2418.6599"
             style="font-style:normal;font-variant:normal;font-weight:normal;font-stretch:normal;font-family:'Roboto Condensed';-inkscape-font-specification:'Roboto Condensed, ';fill:#ff7f2a;fill-opacity:1">Designer</tspan></text>
      </g>
      <g
         transform="translate(41.601052,0)"
         id="g6631">
        <path
           inkscape:connector-curvature="0"
           id="path4313-8"
           d="m -4610.4866,911.8594 0,926.873 -1172.0618,0 -299.6672,0 -38.7336,0 c -23.876,0 -43.0976,-24.8032 -43.0976,-55.6125 0,-30.8086 19.2216,-55.6118 43.0976,-55.6118 l 33.1497,0 5.5839,0 458.9178,0 c 19.8979,0 35.9186,-20.672 35.9186,-46.3471 0,-25.6735 -16.0207,-46.3395 -35.9186,-46.3395 l -458.9178,0 -5.5839,0 -404.3622,0 c -23.8759,0 -43.0976,-24.8024 -43.0976,-55.6117 0,-30.8094 19.2217,-55.6194 43.0976,-55.6194 l 385.2066,0 24.7395,0 328.0276,0 c 19.8979,0 35.9179,-20.6651 35.9179,-46.3395 0,-25.6743 -16.02,-46.347 -35.9179,-46.347 l -328.0276,0 -24.7395,0 -119.2335,0 c -23.8768,0 -43.0976,-24.8025 -43.0976,-55.6118 0,-30.8093 19.2208,-55.6118 43.0976,-55.6118 l 138.3891,0 5.5839,0 458.9178,0 c 19.8979,0 35.9186,-20.6659 35.9186,-46.3402 0,-25.6743 -16.0207,-46.3463 -35.9186,-46.3463 l -458.9178,0 -5.5839,0 -404.3622,0 c -23.8759,0 -43.0976,-24.8025 -43.0976,-55.6125 0,-30.8094 19.2217,-55.6118 43.0976,-55.6118 l 385.2066,0 24.7395,0 328.0276,0 c 19.8979,0 35.9179,-20.672 35.9179,-46.3463 0,-25.6751 -16.02,-46.3403 -35.9179,-46.3403 l -328.0276,0 -24.7395,0 -119.2335,0 c -23.8768,0 -43.0976,-24.80239 -43.0976,-55.61173 0,-30.80934 19.2208,-55.61177 43.0976,-55.61177 l 143.973,0 1471.729,0 z"
           style="opacity:1;fill:#ffa468;fill-opacity:1;stroke:#000000;stroke-width:31.37545013;stroke-miterlimit:4;stroke-dasharray:none;stroke-opacity:1" />
        <path
           style="opacity:1;fill:#ffa468;fill-opacity:1;stroke:#000000;stroke-width:31.37545013;stroke-miterlimit:4;stroke-dasharray:none;stroke-opacity:1"
           d="m -4989.5134,1527.9877 0,-926.87295 1172.0603,0 299.668,0 38.7343,0 c 23.876,0 43.0976,24.80244 43.0976,55.61178 0,30.80933 -19.2216,55.61177 -43.0976,55.61177 l -33.1513,0 -5.583,0 -458.9187,0 c -19.8963,0 -35.917,20.67274 -35.917,46.34706 0,25.67432 16.0207,46.33948 35.917,46.33948 l 458.9187,0 5.583,0 404.363,0 c 23.8767,0 43.0984,24.80319 43.0984,55.61177 0,30.80934 -19.2217,55.61936 -43.0984,55.61936 l -385.2058,0 -24.7402,0 -328.0269,0 c -19.8979,0 -35.9179,20.66515 -35.9179,46.33947 0,25.67433 16.02,46.34706 35.9179,46.34706 l 328.0269,0 24.7402,0 119.2335,0 c 23.876,0 43.0976,24.8024 43.0976,55.6118 0,30.8093 -19.2216,55.6118 -43.0976,55.6118 l -138.3907,0 -5.583,0 -458.9187,0 c -19.8963,0 -35.917,20.6659 -35.917,46.3402 0,25.6743 16.0207,46.347 35.917,46.347 l 458.9187,0 5.583,0 404.363,0 c 23.8767,0 43.0984,24.8025 43.0984,55.6118 0,30.8094 -19.2217,55.6118 -43.0984,55.6118 l -385.2058,0 -24.7402,0 -328.0269,0 c -19.8979,0 -35.9179,20.6727 -35.9179,46.3471 0,25.6743 16.02,46.3394 35.9179,46.3394 l 328.0269,0 24.7402,0 119.2335,0 c 23.876,0 43.0976,24.8032 43.0976,55.6126 0,30.8085 -19.2216,55.6117 -43.0976,55.6117 l -143.9737,0 -1471.7283,0 z"
           id="rect4232"
           inkscape:connector-curvature="0" />
        <circle
           r="699.00964"
           cy="1172.3622"
           cx="-4798.0229"
           id="circle4305"
           style="opacity:1;fill:#5599ff;fill-opacity:1;stroke:#000000;stroke-width:70.96544647;stroke-miterlimit:4;stroke-dasharray:none;stroke-opacity:1" />
        <g
           id="g5935"
           style="fill:#77adff;fill-opacity:1">
          <g
             id="g5928"
             style="fill:#77adff;fill-opacity:1">
            <g
               id="g5922"
               style="fill:#77adff;fill-opacity:1">
              <g
                 id="g5917"
                 style="fill:#77adff;fill-opacity:1">
                <g
                   id="g5913"
                   style="fill:#77adff;fill-opacity:1">
                  <g
                     id="g5910"
                     style="fill:#77adff;fill-opacity:1">
                    <circle
                       style="opacity:1;fill:#77adff;fill-opacity:1;stroke:none;stroke-width:10;stroke-miterlimit:4;stroke-dasharray:none;stroke-opacity:1"
                       id="path4174"
                       cx="-4798.0244"
                       cy="1172.3622"
                       r="699.00964" />
                  </g>
                </g>
              </g>
            </g>
          </g>
        </g>
        <path
           inkscape:connector-curvature="0"
           style="opacity:1;fill:#b5d2ff;fill-opacity:1;stroke:none;stroke-width:1;stroke-miterlimit:4;stroke-dasharray:none;stroke-opacity:1"
           d="m -4798.1758,473.35352 a 699.00952,699.00952 0 0 0 -699.0097,699.00978 699.00952,699.00952 0 0 0 252.875,537.8086 699.00952,699.00952 0 0 1 -143.9395,-424 699.00952,699.00952 0 0 1 699.0098,-699.00784 699.00952,699.00952 0 0 1 446.1347,161.19922 699.00952,699.00952 0 0 0 -555.0703,-275.00976 z"
           id="path6566" />
        <path
           inkscape:connector-curvature="0"
           style="opacity:1;fill:#ffffff;fill-opacity:1;stroke:none;stroke-width:10;stroke-miterlimit:4;stroke-dasharray:none;stroke-opacity:1"
           d="m -4446.0859,571.58789 a 67.691465,86.306852 0 0 0 -54.2852,34.92188 67.691465,86.306852 0 0 0 -5.8574,-0.70118 67.691465,86.306852 0 0 0 -46.5215,-23.75781 67.691465,86.306852 0 0 0 -67.6914,86.30664 67.691465,86.306852 0 0 0 0.6055,10.70313 67.691465,86.306852 0 0 0 -0.9883,1.35351 67.691465,86.306852 0 0 0 -52.4043,61.17383 l 425.4297,0 a 699.00964,699.00964 0 0 0 -194.0176,-169.73828 67.691465,86.306852 0 0 0 -4.2695,-0.26172 z m -576.3809,373.22461 a 59.727685,76.153005 0 0 0 -48.2715,31.44141 59.727685,76.153005 0 0 0 -11.457,-1.44141 59.727685,76.153005 0 0 0 -47.8985,30.8145 59.727685,76.153005 0 0 0 -5.1679,-0.6211 59.727685,76.153005 0 0 0 -41.0488,-20.96293 59.727685,76.153005 0 0 0 -59.7286,76.15433 59.727685,76.153005 0 0 0 0.5371,9.4433 59.727685,76.153005 0 0 0 -0.873,1.1953 59.727685,76.153005 0 0 0 -46.2383,53.9746 l 473.6856,0 a 59.727685,76.153005 0 0 0 1.8418,-18.4609 59.727685,76.153005 0 0 0 -59.7266,-76.1523 59.727685,76.153005 0 0 0 -22.9258,5.9082 59.727685,76.153005 0 0 0 -58.5215,-61.293 59.727685,76.153005 0 0 0 -23.416,6.18945 59.727685,76.153005 0 0 0 -50.791,-36.18945 z m 694.9844,232 a 67.691465,86.306852 0 0 0 -54.709,35.6328 67.691465,86.306852 0 0 0 -12.9824,-1.6328 67.691465,86.306852 0 0 0 -54.2871,34.9219 67.691465,86.306852 0 0 0 -5.8555,-0.7012 67.691465,86.306852 0 0 0 -46.5234,-23.7578 67.691465,86.306852 0 0 0 -67.6914,86.3066 67.691465,86.306852 0 0 0 0.6074,10.7032 67.691465,86.306852 0 0 0 -0.9883,1.3535 67.691465,86.306852 0 0 0 -52.4043,61.1718 l 491.3965,0 a 699.00964,699.00964 0 0 0 20.9668,-89.4023 67.691465,86.306852 0 0 0 -41.1211,-17.8262 67.691465,86.306852 0 0 0 -25.9824,6.6953 67.691465,86.306852 0 0 0 -66.3243,-69.4648 67.691465,86.306852 0 0 0 -26.539,7.0137 67.691465,86.306852 0 0 0 -57.5625,-41.0137 z m -827.959,308 a 46.454719,59.229927 0 0 0 -37.5449,24.4531 46.454719,59.229927 0 0 0 -8.9102,-1.1191 46.454719,59.229927 0 0 0 -37.2539,23.9648 46.454719,59.229927 0 0 0 -4.0195,-0.4804 46.454719,59.229927 0 0 0 -31.9278,-16.3047 46.454719,59.229927 0 0 0 -46.4531,59.2304 46.454719,59.229927 0 0 0 0.416,7.3457 46.454719,59.229927 0 0 0 -0.6797,0.9278 46.454719,59.229927 0 0 0 -26.7031,19.9336 699.00964,699.00964 0 0 0 18.6973,22.0468 l 340.4648,0 a 46.454719,59.229927 0 0 0 1.4336,-14.3574 46.454719,59.229927 0 0 0 -46.4551,-59.2304 46.454719,59.229927 0 0 0 -17.83,4.5957 46.454719,59.229927 0 0 0 -45.5176,-47.6719 46.454719,59.229927 0 0 0 -18.2129,4.8125 46.454719,59.229927 0 0 0 -39.5039,-28.1465 z m 392,332 a 46.454719,59.229927 0 0 0 -37.5449,24.4531 46.454719,59.229927 0 0 0 -8.9102,-1.1191 46.454719,59.229927 0 0 0 -37.2539,23.9648 46.454719,59.229927 0 0 0 -4.0195,-0.4804 46.454719,59.229927 0 0 0 -31.9278,-16.3047 46.454719,59.229927 0 0 0 -29.7382,13.748 699.00964,699.00964 0 0 0 114.8125,10.2969 699.00964,699.00964 0 0 0 126.5078,-11.8984 46.454719,59.229927 0 0 0 -34.209,-19.3262 46.454719,59.229927 0 0 0 -18.2129,4.8125 46.454719,59.229927 0 0 0 -39.5039,-28.1465 z"
           id="circle6244" />
      </g>
    </g>
  </g>
</svg>
