<?xml version="1.0" encoding="UTF-8" standalone="no"?>
<!-- Created with Inkscape (http://www.inkscape.org/) -->

<svg
   xmlns:dc="http://purl.org/dc/elements/1.1/"
   xmlns:cc="http://creativecommons.org/ns#"
   xmlns:rdf="http://www.w3.org/1999/02/22-rdf-syntax-ns#"
   xmlns:svg="http://www.w3.org/2000/svg"
   xmlns="http://www.w3.org/2000/svg"
   xmlns:sodipodi="http://sodipodi.sourceforge.net/DTD/sodipodi-0.dtd"
   xmlns:inkscape="http://www.inkscape.org/namespaces/inkscape"
   width="720"
   height="1280"
   id="svg2"
   version="1.1"
   inkscape:version="0.48.5 r10040"
   sodipodi:docname="New document 1">
  <defs
     id="defs4" />
  <sodipodi:namedview
     id="base"
     pagecolor="#ffffff"
     bordercolor="#666666"
     borderopacity="1.0"
     inkscape:pageopacity="0.0"
     inkscape:pageshadow="2"
     inkscape:zoom="0.5"
     inkscape:cx="829.55329"
     inkscape:cy="649.37155"
     inkscape:document-units="px"
     inkscape:current-layer="layer1"
     showgrid="false"
     inkscape:snap-bbox="true"
     inkscape:bbox-nodes="true"
     fit-margin-top="0"
     fit-margin-left="0"
     fit-margin-right="0"
     fit-margin-bottom="0"
     inkscape:window-width="1920"
     inkscape:window-height="1017"
     inkscape:window-x="-8"
     inkscape:window-y="-8"
     inkscape:window-maximized="1" />
  <metadata
     id="metadata7">
    <rdf:RDF>
      <cc:Work
         rdf:about="">
        <dc:format>image/svg+xml</dc:format>
        <dc:type
           rdf:resource="http://purl.org/dc/dcmitype/StillImage" />
        <dc:title></dc:title>
      </cc:Work>
    </rdf:RDF>
  </metadata>
  <g
     inkscape:label="Layer 1"
     inkscape:groupmode="layer"
     id="layer1"
     transform="translate(868.85828,-20.933611)">
    <rect
       style="fill:#87b7ff;fill-opacity:1;stroke:none"
       id="rect4934"
       width="720"
       height="1280"
       x="-868.85828"
       y="20.933611"
       inkscape:export-filename="C:\Users\Brayan\Desktop\wallpaper_sailboat_blue.png"
       inkscape:export-xdpi="90"
       inkscape:export-ydpi="90" />
    <g
       id="g4985"
       transform="translate(-310.67034,204.06176)"
       inkscape:export-filename="C:\Users\Brayan\Desktop\wallpaper_sailboat_blue.png"
       inkscape:export-xdpi="90"
       inkscape:export-ydpi="90">
      <g
         transform="translate(-516.18795,70.710678)"
         id="g4974">
        <path
           sodipodi:type="arc"
           style="fill:#ffffff;fill-opacity:1;stroke:none"
           id="path3802"
           sodipodi:cx="-508"
           sodipodi:cy="-743.63782"
           sodipodi:rx="380"
           sodipodi:ry="380"
           d="m -128,-743.63782 c 0,209.86821 -170.1318,380 -380,380 -209.8682,0 -380,-170.13179 -380,-380 0,-209.8682 170.1318,-379.99998 380,-379.99998 209.8682,0 380,170.13178 380,379.99998 z"
           transform="matrix(0.47586207,0,0,0.47586207,559.73793,720.23121)"
           inkscape:export-filename="C:\Users\Brayan\Desktop\Sailboat.png"
           inkscape:export-xdpi="83.480003"
           inkscape:export-ydpi="83.480003" />
        <path
           style="fill:#aaccff;fill-opacity:1;fill-rule:evenodd;stroke:none"
           d="m 348.70037,228.59511 c -0.0682,-0.0118 -0.11463,-0.16768 -0.11188,-0.46199 0.003,-0.29434 0.0563,-0.7284 0.22624,-1.26971 0.16991,-0.54132 0.45836,-1.19161 0.94022,-1.86745 0.48186,-0.67583 1.15933,-1.37878 2.08409,-1.9488 0.84158,-0.51476 1.87245,-0.90339 3.03082,-1.0445 1.15838,-0.14109 2.44518,-0.0341 3.70972,0.44856 0.71145,0.27968 1.39274,0.65956 2.03113,1.12092 0.63839,0.46136 1.23385,1.00424 1.77488,1.59848 0,0 0,0 0,0 0.99024,1.07759 1.83496,2.29485 2.66969,3.48988 0.78841,1.11523 1.57456,2.22427 2.52052,3.13295 0.90256,0.85696 1.93899,1.58909 3.07056,1.87252 0.11296,0.0319 0.22812,0.0589 0.34495,0.0822 0.77616,0.15498 1.6132,0.13043 2.44221,0.0115 0.98717,-0.14518 1.97251,-0.46026 2.96099,-0.81084 1.05438,-0.38649 2.12846,-0.82116 3.23107,-1.17437 1.10261,-0.35321 2.23368,-0.62466 3.39164,-0.72306 1.79424,-0.1289 3.49024,0.23196 4.93028,0.87053 1.44003,0.63857 2.62486,1.55402 3.511,2.56536 0,0 0,0 0,0 0.9513,1.09239 1.54296,2.26534 1.89492,3.33227 0.35196,1.06693 0.46648,2.03024 0.47101,2.80726 0.005,0.77703 -0.0986,1.37082 -0.20922,1.76118 -0.11063,0.39034 -0.22672,0.5798 -0.30781,0.56752 -0.0811,-0.0123 -0.12411,-0.22493 -0.16934,-0.60786 -0.0452,-0.38293 -0.0953,-0.93842 -0.23527,-1.63015 -0.13999,-0.69175 -0.37221,-1.52274 -0.78947,-2.40975 -0.41725,-0.88703 -1.02122,-1.83262 -1.88227,-2.66428 0,0 0,0 0,0 -0.79641,-0.77489 -1.82599,-1.45386 -3.03198,-1.90623 -1.20599,-0.45235 -2.58885,-0.67811 -3.98463,-0.51695 -0.91929,0.0905 -1.86172,0.35844 -2.85307,0.71744 -0.99134,0.359 -2.03175,0.80882 -3.15143,1.22359 -1.04423,0.39859 -2.17413,0.76606 -3.40549,0.96813 -1.03972,0.17361 -2.15457,0.19641 -3.27678,-0.0216 -0.16892,-0.0328 -0.33743,-0.071 -0.50527,-0.11476 -1.66031,-0.46512 -3.04107,-1.41172 -4.11709,-2.50431 -1.12808,-1.13491 -1.9834,-2.3704 -2.74929,-3.5315 -0.82352,-1.23357 -1.56189,-2.39037 -2.38504,-3.34835 0,0 10e-6,-1e-5 10e-6,-1e-5 -0.4519,-0.52036 -0.92317,-0.99463 -1.41329,-1.39401 -0.49013,-0.39938 -0.99915,-0.72388 -1.52557,-0.95603 -0.91024,-0.41658 -1.89748,-0.56768 -2.81298,-0.52952 -0.91552,0.0382 -1.76017,0.26559 -2.46992,0.606 -0.78321,0.37154 -1.4155,0.8803 -1.90704,1.38939 -0.49152,0.50909 -0.84425,1.02023 -1.10378,1.4565 -0.25954,0.43628 -0.42813,0.79934 -0.55517,1.04643 -0.12702,0.24709 -0.21463,0.37915 -0.28286,0.36736 z"
           id="path4039"
           inkscape:connector-curvature="0"
           inkscape:export-filename="C:\Users\Brayan\Desktop\Sailboat.png"
           inkscape:export-xdpi="83.480003"
           inkscape:export-ydpi="83.480003" />
        <path
           inkscape:connector-curvature="0"
           id="path4094"
           d="m 359.95037,254.84511 c -0.0682,-0.0118 -0.11463,-0.16768 -0.11188,-0.46199 0.003,-0.29434 0.0563,-0.7284 0.22624,-1.26971 0.16991,-0.54132 0.45836,-1.19161 0.94022,-1.86745 0.48186,-0.67583 1.15933,-1.37878 2.08409,-1.9488 0.84158,-0.51476 1.87245,-0.90339 3.03082,-1.0445 1.15838,-0.14109 2.44518,-0.0341 3.70972,0.44856 0.71145,0.27968 1.39274,0.65956 2.03113,1.12092 0.63839,0.46136 1.23385,1.00424 1.77488,1.59848 0,0 0,0 0,0 0.99024,1.07759 1.83496,2.29485 2.66969,3.48988 0.78841,1.11523 1.57456,2.22427 2.52052,3.13295 0.90256,0.85696 1.93899,1.58909 3.07056,1.87252 0.11296,0.0319 0.22812,0.0589 0.34495,0.0822 0.77616,0.15498 1.6132,0.13043 2.44221,0.0115 0.98717,-0.14518 1.97251,-0.46026 2.96099,-0.81084 1.05438,-0.38649 2.12846,-0.82116 3.23107,-1.17437 1.10261,-0.35321 2.23368,-0.62466 3.39164,-0.72306 1.79424,-0.1289 3.49024,0.23196 4.93028,0.87053 1.44003,0.63857 2.62486,1.55402 3.511,2.56536 0,0 0,0 0,0 0.9513,1.09239 1.54296,2.26534 1.89492,3.33227 0.35196,1.06693 0.46648,2.03024 0.47101,2.80726 0.005,0.77703 -0.0986,1.37082 -0.20922,1.76118 -0.11063,0.39034 -0.22672,0.5798 -0.30781,0.56752 -0.0811,-0.0123 -0.12411,-0.22493 -0.16934,-0.60786 -0.0452,-0.38293 -0.0953,-0.93842 -0.23527,-1.63015 -0.13999,-0.69175 -0.37221,-1.52274 -0.78947,-2.40975 -0.41725,-0.88703 -1.02122,-1.83262 -1.88227,-2.66428 0,0 0,0 0,0 -0.79641,-0.77489 -1.82599,-1.45386 -3.03198,-1.90623 -1.20599,-0.45235 -2.58885,-0.67811 -3.98463,-0.51695 -0.91929,0.0905 -1.86172,0.35844 -2.85307,0.71744 -0.99134,0.359 -2.03175,0.80882 -3.15143,1.22359 -1.04423,0.39859 -2.17413,0.76606 -3.40549,0.96813 -1.03972,0.17361 -2.15457,0.19641 -3.27678,-0.0216 -0.16892,-0.0328 -0.33743,-0.071 -0.50527,-0.11476 -1.66031,-0.46512 -3.04107,-1.41172 -4.11709,-2.50431 -1.12808,-1.13491 -1.9834,-2.3704 -2.74929,-3.5315 -0.82352,-1.23357 -1.56189,-2.39037 -2.38504,-3.34835 0,0 10e-6,-1e-5 10e-6,-1e-5 -0.4519,-0.52036 -0.92317,-0.99463 -1.41329,-1.39401 -0.49013,-0.39938 -0.99915,-0.72388 -1.52557,-0.95603 -0.91024,-0.41658 -1.89748,-0.56768 -2.81298,-0.52952 -0.91552,0.0382 -1.76017,0.26559 -2.46992,0.606 -0.78321,0.37154 -1.4155,0.8803 -1.90704,1.38939 -0.49152,0.50909 -0.84425,1.02023 -1.10378,1.4565 -0.25954,0.43628 -0.42813,0.79934 -0.55517,1.04643 -0.12702,0.24709 -0.21463,0.37915 -0.28286,0.36736 z"
           style="fill:#aaccff;fill-opacity:1;fill-rule:evenodd;stroke:none"
           inkscape:export-filename="C:\Users\Brayan\Desktop\Sailboat.png"
           inkscape:export-xdpi="83.480003"
           inkscape:export-ydpi="83.480003" />
        <rect
           style="fill:#ffffff;fill-opacity:1;stroke:none"
           id="rect4096"
           width="10.142046"
           height="39.666668"
           x="457.02264"
           y="-401.19122"
           ry="5.071023"
           transform="matrix(0,1,-1,0,0,0)"
           inkscape:export-filename="C:\Users\Brayan\Desktop\Sailboat.png"
           inkscape:export-xdpi="83.480003"
           inkscape:export-ydpi="83.480003" />
        <path
           style="fill:#87b7ff;fill-opacity:1;stroke:none"
           d="m 292.32516,301.29325 -38.75272,67.1134 -38.74283,67.1134 77.49554,0 0,-134.2268 z"
           id="path2985"
           inkscape:connector-curvature="0"
           inkscape:export-filename="C:\Users\brayan.bedritchuk\Desktop\salboat logo2.png"
           inkscape:export-xdpi="83.480003"
           inkscape:export-ydpi="83.480003" />
        <path
           inkscape:connector-curvature="0"
           id="path2992"
           d="m 304.37096,233.21659 58.40715,101.15173 58.39228,101.15173 -116.79943,0 0,-202.30346 z"
           style="fill:#87b7ff;fill-opacity:1;stroke:none"
           inkscape:export-filename="C:\Users\brayan.bedritchuk\Desktop\salboat logo2.png"
           inkscape:export-xdpi="83.480003"
           inkscape:export-ydpi="83.480003" />
        <path
           style="fill:#e9c6af;fill-opacity:1;stroke:none"
           d="m 185.38806,445.30058 25.80263,42.45408 213.61862,0 25.80263,-42.45408 -265.22388,0 z"
           id="rect4614"
           inkscape:connector-curvature="0"
           inkscape:export-filename="C:\Users\Brayan\Desktop\Sailboat.png"
           inkscape:export-xdpi="83.480003"
           inkscape:export-ydpi="83.480003" />
      </g>
    </g>
  </g>
</svg>
