<?xml version="1.0" encoding="UTF-8" standalone="no"?>
<!-- Created with Inkscape (http://www.inkscape.org/) -->

<svg
   xmlns:dc="http://purl.org/dc/elements/1.1/"
   xmlns:cc="http://creativecommons.org/ns#"
   xmlns:rdf="http://www.w3.org/1999/02/22-rdf-syntax-ns#"
   xmlns:svg="http://www.w3.org/2000/svg"
   xmlns="http://www.w3.org/2000/svg"
   xmlns:sodipodi="http://sodipodi.sourceforge.net/DTD/sodipodi-0.dtd"
   xmlns:inkscape="http://www.inkscape.org/namespaces/inkscape"
   width="210mm"
   height="297mm"
   viewBox="0 0 744.09448819 1052.3622047"
   id="svg4342"
   version="1.1"
   inkscape:version="0.91 r13725"
   sodipodi:docname="Starry Sky.svg"
   inkscape:export-filename="C:\Users\brayan.bedritchuk\Desktop\g4279.png"
   inkscape:export-xdpi="92.860001"
   inkscape:export-ydpi="92.860001">
  <defs
     id="defs4344" />
  <sodipodi:namedview
     id="base"
     pagecolor="#ffffff"
     bordercolor="#666666"
     borderopacity="1.0"
     inkscape:pageopacity="0.0"
     inkscape:pageshadow="2"
     inkscape:zoom="1"
     inkscape:cx="-87.857143"
     inkscape:cy="520"
     inkscape:document-units="px"
     inkscape:current-layer="layer1"
     showgrid="false"
     inkscape:window-width="1680"
     inkscape:window-height="987"
     inkscape:window-x="-8"
     inkscape:window-y="-8"
     inkscape:window-maximized="1"
     showborder="false" />
  <metadata
     id="metadata4347">
    <rdf:RDF>
      <cc:Work
         rdf:about="">
        <dc:format>image/svg+xml</dc:format>
        <dc:type
           rdf:resource="http://purl.org/dc/dcmitype/StillImage" />
        <dc:title></dc:title>
      </cc:Work>
    </rdf:RDF>
  </metadata>
  <g
     inkscape:label="Layer 1"
     inkscape:groupmode="layer"
     id="layer1">
    <g
       transform="matrix(0.37997625,0,0,0.37997625,-101.4108,-151.44762)"
       id="g4279">
      <rect
         ry="0"
         y="1226.3622"
         x="-394.01602"
         height="909.64258"
         width="1306.016"
         id="rect4237"
         style="opacity:1;fill:#2c5aa0;fill-opacity:1;stroke:none;stroke-width:6;stroke-miterlimit:4;stroke-dasharray:none;stroke-opacity:1" />
      <path
         inkscape:connector-curvature="0"
         id="path4218"
         d="m 666.86583,1313.3946 a 154.14928,154.14928 0 0 1 109.0008,188.795 154.14928,154.14928 0 0 1 -188.7944,108.9988 154.14928,154.14928 0 0 1 -39.20722,-16.6463 154.14928,154.14928 0 0 0 146.86385,-114.0933 154.14928,154.14928 0 0 0 -69.79356,-172.1486 154.14928,154.14928 0 0 1 41.93053,5.0944 z"
         style="opacity:1;fill:#ffffff;fill-opacity:1;stroke:none;stroke-width:6;stroke-miterlimit:4;stroke-dasharray:none;stroke-opacity:1" />
      <path
         inkscape:transform-center-y="-1.5210879"
         inkscape:transform-center-x="1.5210879"
         d="m 160.24972,1414.6119 -19.78855,-6.7105 -16.74637,12.4971 0.26706,-20.8937 -17.06031,-12.065 19.95359,-6.2025 6.20252,-19.9536 12.06494,17.0603 20.89368,-0.267 -12.49705,16.7464 z"
         inkscape:randomized="0"
         inkscape:rounded="0"
         inkscape:flatsided="false"
         sodipodi:arg2="1.4137167"
         sodipodi:arg1="0.78539816"
         sodipodi:r2="15.732926"
         sodipodi:r1="31.465851"
         sodipodi:cy="1392.3622"
         sodipodi:cx="138"
         sodipodi:sides="5"
         id="path4229"
         style="opacity:1;fill:#ffcc00;fill-opacity:1;stroke:none;stroke-width:6;stroke-miterlimit:4;stroke-dasharray:none;stroke-opacity:1"
         sodipodi:type="star" />
      <path
         transform="matrix(0.16349744,0.09439529,-0.09439529,0.16349744,-71.065443,1367.1622)"
         sodipodi:type="star"
         style="opacity:1;fill:#ffcc00;fill-opacity:1;stroke:none;stroke-width:6;stroke-miterlimit:4;stroke-dasharray:none;stroke-opacity:1"
         id="path4231"
         sodipodi:sides="5"
         sodipodi:cx="-266"
         sodipodi:cy="1604.3622"
         sodipodi:r1="130.23056"
         sodipodi:r2="65.11528"
         sodipodi:arg1="0.78539816"
         sodipodi:arg2="1.4137167"
         inkscape:flatsided="false"
         inkscape:rounded="0"
         inkscape:randomized="0"
         d="m -173.91309,1696.4491 -81.90064,-27.7733 -69.30971,51.7227 1.1053,-86.4746 -70.60907,-49.9343 82.58375,-25.6709 25.67091,-82.5837 49.93427,70.609 86.47456,-1.1053 -51.72268,69.3098 z"
         inkscape:transform-center-x="-1.9664041"
         inkscape:transform-center-y="0.39760644" />
      <path
         inkscape:transform-center-y="5.1009157e-005"
         inkscape:transform-center-x="-2.5047954"
         d="m -173.91309,1696.4491 -81.90064,-27.7733 -69.30971,51.7227 1.1053,-86.4746 -70.60907,-49.9343 82.58375,-25.6709 25.67091,-82.5837 49.93427,70.609 86.47456,-1.1053 -51.72268,69.3098 z"
         inkscape:randomized="0"
         inkscape:rounded="0"
         inkscape:flatsided="false"
         sodipodi:arg2="1.4137167"
         sodipodi:arg1="0.78539816"
         sodipodi:r2="65.11528"
         sodipodi:r1="130.23056"
         sodipodi:cy="1604.3622"
         sodipodi:cx="-266"
         sodipodi:sides="5"
         id="path4233"
         style="opacity:1;fill:#ffcc00;fill-opacity:1;stroke:none;stroke-width:6;stroke-miterlimit:4;stroke-dasharray:none;stroke-opacity:1"
         sodipodi:type="star"
         transform="matrix(0.14242286,-0.14242286,0.14242286,0.14242286,109.38658,1491.9799)" />
      <path
         inkscape:transform-center-y="-2.0189248"
         transform="matrix(0.09691753,-0.16786608,0.16786608,0.09691753,348.46203,1632.219)"
         sodipodi:type="star"
         style="opacity:1;fill:#ffcc00;fill-opacity:1;stroke:none;stroke-width:6;stroke-miterlimit:4;stroke-dasharray:none;stroke-opacity:1"
         id="path4235"
         sodipodi:sides="5"
         sodipodi:cx="-266"
         sodipodi:cy="1604.3622"
         sodipodi:r1="130.23056"
         sodipodi:r2="65.11528"
         sodipodi:arg1="0.78539816"
         sodipodi:arg2="1.4137167"
         inkscape:flatsided="false"
         inkscape:rounded="0"
         inkscape:randomized="0"
         d="m -173.91309,1696.4491 -81.90064,-27.7733 -69.30971,51.7227 1.1053,-86.4746 -70.60907,-49.9343 82.58375,-25.6709 25.67091,-82.5837 49.93427,70.609 86.47456,-1.1053 -51.72268,69.3098 z"
         inkscape:transform-center-x="-0.40825889" />
      <path
         inkscape:transform-center-y="0.39760644"
         inkscape:transform-center-x="-1.9664041"
         d="m -173.91309,1696.4491 -81.90064,-27.7733 -69.30971,51.7227 1.1053,-86.4746 -70.60907,-49.9343 82.58375,-25.6709 25.67091,-82.5837 49.93427,70.609 86.47456,-1.1053 -51.72268,69.3098 z"
         inkscape:randomized="0"
         inkscape:rounded="0"
         inkscape:flatsided="false"
         sodipodi:arg2="1.4137167"
         sodipodi:arg1="0.78539816"
         sodipodi:r2="65.11528"
         sodipodi:r1="130.23056"
         sodipodi:cy="1604.3622"
         sodipodi:cx="-266"
         sodipodi:sides="5"
         id="path4239"
         style="opacity:1;fill:#ffcc00;fill-opacity:1;stroke:none;stroke-width:6;stroke-miterlimit:4;stroke-dasharray:none;stroke-opacity:1"
         sodipodi:type="star"
         transform="matrix(0.16349744,0.09439529,-0.09439529,0.16349744,463.50728,1307.7652)" />
      <path
         transform="matrix(0.16349744,0.09439529,-0.09439529,0.16349744,565.33066,1157.8586)"
         sodipodi:type="star"
         style="opacity:1;fill:#ffcc00;fill-opacity:1;stroke:none;stroke-width:6;stroke-miterlimit:4;stroke-dasharray:none;stroke-opacity:1"
         id="path4241"
         sodipodi:sides="5"
         sodipodi:cx="-266"
         sodipodi:cy="1604.3622"
         sodipodi:r1="130.23056"
         sodipodi:r2="65.11528"
         sodipodi:arg1="0.78539816"
         sodipodi:arg2="1.4137167"
         inkscape:flatsided="false"
         inkscape:rounded="0"
         inkscape:randomized="0"
         d="m -173.91309,1696.4491 -81.90064,-27.7733 -69.30971,51.7227 1.1053,-86.4746 -70.60907,-49.9343 82.58375,-25.6709 25.67091,-82.5837 49.93427,70.609 86.47456,-1.1053 -51.72268,69.3098 z"
         inkscape:transform-center-x="-1.9664041"
         inkscape:transform-center-y="0.39760644" />
      <path
         inkscape:transform-center-y="0.39760644"
         inkscape:transform-center-x="-1.9664041"
         d="m -173.91309,1696.4491 -81.90064,-27.7733 -69.30971,51.7227 1.1053,-86.4746 -70.60907,-49.9343 82.58375,-25.6709 25.67091,-82.5837 49.93427,70.609 86.47456,-1.1053 -51.72268,69.3098 z"
         inkscape:randomized="0"
         inkscape:rounded="0"
         inkscape:flatsided="false"
         sodipodi:arg2="1.4137167"
         sodipodi:arg1="0.78539816"
         sodipodi:r2="65.11528"
         sodipodi:r1="130.23056"
         sodipodi:cy="1604.3622"
         sodipodi:cx="-266"
         sodipodi:sides="5"
         id="path4243"
         style="opacity:1;fill:#ffcc00;fill-opacity:1;stroke:none;stroke-width:6;stroke-miterlimit:4;stroke-dasharray:none;stroke-opacity:1"
         sodipodi:type="star"
         transform="matrix(0.16349744,0.09439529,-0.09439529,0.16349744,619.07078,1423.7307)" />
      <path
         transform="matrix(0.16349744,0.09439529,-0.09439529,0.16349744,339.05649,1409.5886)"
         sodipodi:type="star"
         style="opacity:1;fill:#ffcc00;fill-opacity:1;stroke:none;stroke-width:6;stroke-miterlimit:4;stroke-dasharray:none;stroke-opacity:1"
         id="path4245"
         sodipodi:sides="5"
         sodipodi:cx="-266"
         sodipodi:cy="1604.3622"
         sodipodi:r1="130.23056"
         sodipodi:r2="65.11528"
         sodipodi:arg1="0.78539816"
         sodipodi:arg2="1.4137167"
         inkscape:flatsided="false"
         inkscape:rounded="0"
         inkscape:randomized="0"
         d="m -173.91309,1696.4491 -81.90064,-27.7733 -69.30971,51.7227 1.1053,-86.4746 -70.60907,-49.9343 82.58375,-25.6709 25.67091,-82.5837 49.93427,70.609 86.47456,-1.1053 -51.72268,69.3098 z"
         inkscape:transform-center-x="-1.9664041"
         inkscape:transform-center-y="0.39760644" />
      <path
         inkscape:transform-center-y="0.39760644"
         inkscape:transform-center-x="-1.9664041"
         d="m -173.91309,1696.4491 -81.90064,-27.7733 -69.30971,51.7227 1.1053,-86.4746 -70.60907,-49.9343 82.58375,-25.6709 25.67091,-82.5837 49.93427,70.609 86.47456,-1.1053 -51.72268,69.3098 z"
         inkscape:randomized="0"
         inkscape:rounded="0"
         inkscape:flatsided="false"
         sodipodi:arg2="1.4137167"
         sodipodi:arg1="0.78539816"
         sodipodi:r2="65.11528"
         sodipodi:r1="130.23056"
         sodipodi:cy="1604.3622"
         sodipodi:cx="-266"
         sodipodi:sides="5"
         id="path4247"
         style="opacity:1;fill:#ffcc00;fill-opacity:1;stroke:none;stroke-width:6;stroke-miterlimit:4;stroke-dasharray:none;stroke-opacity:1"
         sodipodi:type="star"
         transform="matrix(0.16349744,0.09439529,-0.09439529,0.16349744,240.06154,1285.1378)" />
      <path
         transform="matrix(0.16349744,0.09439529,-0.09439529,0.16349744,330.57121,1528.3825)"
         sodipodi:type="star"
         style="opacity:1;fill:#ffcc00;fill-opacity:1;stroke:none;stroke-width:6;stroke-miterlimit:4;stroke-dasharray:none;stroke-opacity:1"
         id="path4249"
         sodipodi:sides="5"
         sodipodi:cx="-266"
         sodipodi:cy="1604.3622"
         sodipodi:r1="130.23056"
         sodipodi:r2="65.11528"
         sodipodi:arg1="0.78539816"
         sodipodi:arg2="1.4137167"
         inkscape:flatsided="false"
         inkscape:rounded="0"
         inkscape:randomized="0"
         d="m -173.91309,1696.4491 -81.90064,-27.7733 -69.30971,51.7227 1.1053,-86.4746 -70.60907,-49.9343 82.58375,-25.6709 25.67091,-82.5837 49.93427,70.609 86.47456,-1.1053 -51.72268,69.3098 z"
         inkscape:transform-center-x="-1.9664041"
         inkscape:transform-center-y="0.39760644" />
      <path
         inkscape:transform-center-y="0.39760644"
         inkscape:transform-center-x="-1.9664041"
         d="m -173.91309,1696.4491 -81.90064,-27.7733 -69.30971,51.7227 1.1053,-86.4746 -70.60907,-49.9343 82.58375,-25.6709 25.67091,-82.5837 49.93427,70.609 86.47456,-1.1053 -51.72268,69.3098 z"
         inkscape:randomized="0"
         inkscape:rounded="0"
         inkscape:flatsided="false"
         sodipodi:arg2="1.4137167"
         sodipodi:arg1="0.78539816"
         sodipodi:r2="65.11528"
         sodipodi:r1="130.23056"
         sodipodi:cy="1604.3622"
         sodipodi:cx="-266"
         sodipodi:sides="5"
         id="path4251"
         style="opacity:1;fill:#ffcc00;fill-opacity:1;stroke:none;stroke-width:6;stroke-miterlimit:4;stroke-dasharray:none;stroke-opacity:1"
         sodipodi:type="star"
         transform="matrix(0.16349744,0.09439529,-0.09439529,0.16349744,641.69819,1641.5196)" />
      <path
         inkscape:transform-center-x="-0.40825889"
         d="m -173.91309,1696.4491 -81.90064,-27.7733 -69.30971,51.7227 1.1053,-86.4746 -70.60907,-49.9343 82.58375,-25.6709 25.67091,-82.5837 49.93427,70.609 86.47456,-1.1053 -51.72268,69.3098 z"
         inkscape:randomized="0"
         inkscape:rounded="0"
         inkscape:flatsided="false"
         sodipodi:arg2="1.4137167"
         sodipodi:arg1="0.78539816"
         sodipodi:r2="65.11528"
         sodipodi:r1="130.23056"
         sodipodi:cy="1604.3622"
         sodipodi:cx="-266"
         sodipodi:sides="5"
         id="path4253"
         style="opacity:1;fill:#ffcc00;fill-opacity:1;stroke:none;stroke-width:6;stroke-miterlimit:4;stroke-dasharray:none;stroke-opacity:1"
         sodipodi:type="star"
         transform="matrix(0.09691753,-0.16786608,0.16786608,0.09691753,487.05496,1547.3662)"
         inkscape:transform-center-y="-2.0189248" />
      <path
         inkscape:transform-center-y="-2.0189248"
         transform="matrix(0.09691753,-0.16786608,0.16786608,0.09691753,3.3939221,1456.8565)"
         sodipodi:type="star"
         style="opacity:1;fill:#ffcc00;fill-opacity:1;stroke:none;stroke-width:6;stroke-miterlimit:4;stroke-dasharray:none;stroke-opacity:1"
         id="path4255"
         sodipodi:sides="5"
         sodipodi:cx="-266"
         sodipodi:cy="1604.3622"
         sodipodi:r1="130.23056"
         sodipodi:r2="65.11528"
         sodipodi:arg1="0.78539816"
         sodipodi:arg2="1.4137167"
         inkscape:flatsided="false"
         inkscape:rounded="0"
         inkscape:randomized="0"
         d="m -173.91309,1696.4491 -81.90064,-27.7733 -69.30971,51.7227 1.1053,-86.4746 -70.60907,-49.9343 82.58375,-25.6709 25.67091,-82.5837 49.93427,70.609 86.47456,-1.1053 -51.72268,69.3098 z"
         inkscape:transform-center-x="-0.40825889" />
      <path
         inkscape:transform-center-x="-0.40825889"
         d="m -173.91309,1696.4491 -81.90064,-27.7733 -69.30971,51.7227 1.1053,-86.4746 -70.60907,-49.9343 82.58375,-25.6709 25.67091,-82.5837 49.93427,70.609 86.47456,-1.1053 -51.72268,69.3098 z"
         inkscape:randomized="0"
         inkscape:rounded="0"
         inkscape:flatsided="false"
         sodipodi:arg2="1.4137167"
         sodipodi:arg1="0.78539816"
         sodipodi:r2="65.11528"
         sodipodi:r1="130.23056"
         sodipodi:cy="1604.3622"
         sodipodi:cx="-266"
         sodipodi:sides="5"
         id="path4257"
         style="opacity:1;fill:#ffcc00;fill-opacity:1;stroke:none;stroke-width:6;stroke-miterlimit:4;stroke-dasharray:none;stroke-opacity:1"
         sodipodi:type="star"
         transform="matrix(0.09691753,-0.16786608,0.16786608,0.09691753,-316.21834,1524.7388)"
         inkscape:transform-center-y="-2.0189248" />
      <path
         inkscape:transform-center-y="0.39760644"
         inkscape:transform-center-x="-1.9664041"
         d="m -173.91309,1696.4491 -81.90064,-27.7733 -69.30971,51.7227 1.1053,-86.4746 -70.60907,-49.9343 82.58375,-25.6709 25.67091,-82.5837 49.93427,70.609 86.47456,-1.1053 -51.72268,69.3098 z"
         inkscape:randomized="0"
         inkscape:rounded="0"
         inkscape:flatsided="false"
         sodipodi:arg2="1.4137167"
         sodipodi:arg1="0.78539816"
         sodipodi:r2="65.11528"
         sodipodi:r1="130.23056"
         sodipodi:cy="1604.3622"
         sodipodi:cx="-266"
         sodipodi:sides="5"
         id="path4259"
         style="opacity:1;fill:#ffcc00;fill-opacity:1;stroke:none;stroke-width:6;stroke-miterlimit:4;stroke-dasharray:none;stroke-opacity:1"
         sodipodi:type="star"
         transform="matrix(0.16349744,0.09439529,-0.09439529,0.16349744,84.498049,1205.9419)" />
      <path
         transform="matrix(0.16349744,0.09439529,-0.09439529,0.16349744,440.87987,1050.3784)"
         sodipodi:type="star"
         style="opacity:1;fill:#ffcc00;fill-opacity:1;stroke:none;stroke-width:6;stroke-miterlimit:4;stroke-dasharray:none;stroke-opacity:1"
         id="path4261"
         sodipodi:sides="5"
         sodipodi:cx="-266"
         sodipodi:cy="1604.3622"
         sodipodi:r1="130.23056"
         sodipodi:r2="65.11528"
         sodipodi:arg1="0.78539816"
         sodipodi:arg2="1.4137167"
         inkscape:flatsided="false"
         inkscape:rounded="0"
         inkscape:randomized="0"
         d="m -173.91309,1696.4491 -81.90064,-27.7733 -69.30971,51.7227 1.1053,-86.4746 -70.60907,-49.9343 82.58375,-25.6709 25.67091,-82.5837 49.93427,70.609 86.47456,-1.1053 -51.72268,69.3098 z"
         inkscape:transform-center-x="-1.9664041"
         inkscape:transform-center-y="0.39760644" />
      <path
         inkscape:transform-center-y="0.39760644"
         inkscape:transform-center-x="-1.9664041"
         d="m -173.91309,1696.4491 -81.90064,-27.7733 -69.30971,51.7227 1.1053,-86.4746 -70.60907,-49.9343 82.58375,-25.6709 25.67091,-82.5837 49.93427,70.609 86.47456,-1.1053 -51.72268,69.3098 z"
         inkscape:randomized="0"
         inkscape:rounded="0"
         inkscape:flatsided="false"
         sodipodi:arg2="1.4137167"
         sodipodi:arg1="0.78539816"
         sodipodi:r2="65.11528"
         sodipodi:r1="130.23056"
         sodipodi:cy="1604.3622"
         sodipodi:cx="-266"
         sodipodi:sides="5"
         id="path4263"
         style="opacity:1;fill:#ffcc00;fill-opacity:1;stroke:none;stroke-width:6;stroke-miterlimit:4;stroke-dasharray:none;stroke-opacity:1"
         sodipodi:type="star"
         transform="matrix(0.16349744,0.09439529,-0.09439529,0.16349744,191.97828,1075.8342)" />
      <path
         transform="matrix(0.16349744,0.09439529,-0.09439529,0.16349744,248.54682,1681.1176)"
         sodipodi:type="star"
         style="opacity:1;fill:#ffcc00;fill-opacity:1;stroke:none;stroke-width:6;stroke-miterlimit:4;stroke-dasharray:none;stroke-opacity:1"
         id="path4265"
         sodipodi:sides="5"
         sodipodi:cx="-266"
         sodipodi:cy="1604.3622"
         sodipodi:r1="130.23056"
         sodipodi:r2="65.11528"
         sodipodi:arg1="0.78539816"
         sodipodi:arg2="1.4137167"
         inkscape:flatsided="false"
         inkscape:rounded="0"
         inkscape:randomized="0"
         d="m -173.91309,1696.4491 -81.90064,-27.7733 -69.30971,51.7227 1.1053,-86.4746 -70.60907,-49.9343 82.58375,-25.6709 25.67091,-82.5837 49.93427,70.609 86.47456,-1.1053 -51.72268,69.3098 z"
         inkscape:transform-center-x="-1.9664041"
         inkscape:transform-center-y="0.39760644" />
      <path
         inkscape:transform-center-y="0.39760644"
         inkscape:transform-center-x="-1.9664041"
         d="m -173.91309,1696.4491 -81.90064,-27.7733 -69.30971,51.7227 1.1053,-86.4746 -70.60907,-49.9343 82.58375,-25.6709 25.67091,-82.5837 49.93427,70.609 86.47456,-1.1053 -51.72268,69.3098 z"
         inkscape:randomized="0"
         inkscape:rounded="0"
         inkscape:flatsided="false"
         sodipodi:arg2="1.4137167"
         sodipodi:arg1="0.78539816"
         sodipodi:r2="65.11528"
         sodipodi:r1="130.23056"
         sodipodi:cy="1604.3622"
         sodipodi:cx="-266"
         sodipodi:sides="5"
         id="path4267"
         style="opacity:1;fill:#ffcc00;fill-opacity:1;stroke:none;stroke-width:6;stroke-miterlimit:4;stroke-dasharray:none;stroke-opacity:1"
         sodipodi:type="star"
         transform="matrix(0.16349744,0.09439529,-0.09439529,0.16349744,497.44841,1774.4557)" />
      <path
         transform="matrix(0.16349744,0.09439529,-0.09439529,0.16349744,802.91854,1791.4263)"
         sodipodi:type="star"
         style="opacity:1;fill:#ffcc00;fill-opacity:1;stroke:none;stroke-width:6;stroke-miterlimit:4;stroke-dasharray:none;stroke-opacity:1"
         id="path4269"
         sodipodi:sides="5"
         sodipodi:cx="-266"
         sodipodi:cy="1604.3622"
         sodipodi:r1="130.23056"
         sodipodi:r2="65.11528"
         sodipodi:arg1="0.78539816"
         sodipodi:arg2="1.4137167"
         inkscape:flatsided="false"
         inkscape:rounded="0"
         inkscape:randomized="0"
         d="m -173.91309,1696.4491 -81.90064,-27.7733 -69.30971,51.7227 1.1053,-86.4746 -70.60907,-49.9343 82.58375,-25.6709 25.67091,-82.5837 49.93427,70.609 86.47456,-1.1053 -51.72268,69.3098 z"
         inkscape:transform-center-x="-1.9664041"
         inkscape:transform-center-y="0.39760644" />
      <path
         inkscape:transform-center-y="0.39760644"
         inkscape:transform-center-x="-1.9664041"
         d="m -173.91309,1696.4491 -81.90064,-27.7733 -69.30971,51.7227 1.1053,-86.4746 -70.60907,-49.9343 82.58375,-25.6709 25.67091,-82.5837 49.93427,70.609 86.47456,-1.1053 -51.72268,69.3098 z"
         inkscape:randomized="0"
         inkscape:rounded="0"
         inkscape:flatsided="false"
         sodipodi:arg2="1.4137167"
         sodipodi:arg1="0.78539816"
         sodipodi:r2="65.11528"
         sodipodi:r1="130.23056"
         sodipodi:cy="1604.3622"
         sodipodi:cx="-266"
         sodipodi:sides="5"
         id="path4271"
         style="opacity:1;fill:#ffcc00;fill-opacity:1;stroke:none;stroke-width:6;stroke-miterlimit:4;stroke-dasharray:none;stroke-opacity:1"
         sodipodi:type="star"
         transform="matrix(0.16349744,0.09439529,-0.09439529,0.16349744,952.82518,1672.6324)" />
      <path
         sodipodi:type="star"
         style="opacity:1;fill:#ffcc00;fill-opacity:1;stroke:none;stroke-width:6;stroke-miterlimit:4;stroke-dasharray:none;stroke-opacity:1"
         id="path4273"
         sodipodi:sides="5"
         sodipodi:cx="-246.66609"
         sodipodi:cy="1816.6263"
         sodipodi:r1="31.465851"
         sodipodi:r2="15.732926"
         sodipodi:arg1="0.78539816"
         sodipodi:arg2="1.4137167"
         inkscape:flatsided="false"
         inkscape:rounded="0"
         inkscape:randomized="0"
         d="m -224.41638,1838.8761 -19.78854,-6.7105 -16.74637,12.497 0.26706,-20.8937 -17.06032,-12.0649 19.9536,-6.2025 6.20251,-19.9536 12.06495,17.0603 20.89368,-0.2671 -12.49705,16.7464 z"
         inkscape:transform-center-x="1.5210879"
         inkscape:transform-center-y="-1.5210879" />
      <path
         inkscape:transform-center-y="-1.5210879"
         inkscape:transform-center-x="1.5210879"
         d="m -97.137155,2019.8955 -19.788545,-6.7105 -16.74637,12.497 0.26706,-20.8936 -17.06032,-12.065 19.9536,-6.2025 6.20252,-19.9536 12.06494,17.0603 20.893677,-0.267 -12.497047,16.7463 z"
         inkscape:randomized="0"
         inkscape:rounded="0"
         inkscape:flatsided="false"
         sodipodi:arg2="1.4137167"
         sodipodi:arg1="0.78539816"
         sodipodi:r2="15.732926"
         sodipodi:r1="31.465851"
         sodipodi:cy="1997.6458"
         sodipodi:cx="-119.38687"
         sodipodi:sides="5"
         id="path4275"
         style="opacity:1;fill:#ffcc00;fill-opacity:1;stroke:none;stroke-width:6;stroke-miterlimit:4;stroke-dasharray:none;stroke-opacity:1"
         sodipodi:type="star" />
      <path
         inkscape:transform-center-y="0.39760644"
         inkscape:transform-center-x="-1.9664041"
         d="m -173.91309,1696.4491 -81.90064,-27.7733 -69.30971,51.7227 1.1053,-86.4746 -70.60907,-49.9343 82.58375,-25.6709 25.67091,-82.5837 49.93427,70.609 86.47456,-1.1053 -51.72268,69.3098 z"
         inkscape:randomized="0"
         inkscape:rounded="0"
         inkscape:flatsided="false"
         sodipodi:arg2="1.4137167"
         sodipodi:arg1="0.78539816"
         sodipodi:r2="65.11528"
         sodipodi:r1="130.23056"
         sodipodi:cy="1604.3622"
         sodipodi:cx="-266"
         sodipodi:sides="5"
         id="path4277"
         style="opacity:1;fill:#ffcc00;fill-opacity:1;stroke:none;stroke-width:6;stroke-miterlimit:4;stroke-dasharray:none;stroke-opacity:1"
         sodipodi:type="star"
         transform="matrix(0.16349744,0.09439529,-0.09439529,0.16349744,293.80166,1814.0536)" />
    </g>
  </g>
</svg>
