<?xml version="1.0" encoding="UTF-8" standalone="no"?>
<!-- Created with Inkscape (http://www.inkscape.org/) -->

<svg
   xmlns:dc="http://purl.org/dc/elements/1.1/"
   xmlns:cc="http://creativecommons.org/ns#"
   xmlns:rdf="http://www.w3.org/1999/02/22-rdf-syntax-ns#"
   xmlns:svg="http://www.w3.org/2000/svg"
   xmlns="http://www.w3.org/2000/svg"
   xmlns:sodipodi="http://sodipodi.sourceforge.net/DTD/sodipodi-0.dtd"
   xmlns:inkscape="http://www.inkscape.org/namespaces/inkscape"
   width="378.51367"
   height="380.00006"
   viewBox="0 0 378.51368 380.00007"
   id="svg2"
   version="1.1"
   inkscape:version="0.91 r13725"
   sodipodi:docname="Farm Logo.svg"
   inkscape:export-filename="C:\Users\brayan.bedritchuk\Desktop\g4245.png"
   inkscape:export-xdpi="121.74"
   inkscape:export-ydpi="121.74">
  <defs
     id="defs4" />
  <sodipodi:namedview
     id="base"
     pagecolor="#ffffff"
     bordercolor="#666666"
     borderopacity="1.0"
     inkscape:pageopacity="1"
     inkscape:pageshadow="2"
     inkscape:zoom="0.1767767"
     inkscape:cx="88.420105"
     inkscape:cy="125.82432"
     inkscape:document-units="px"
     inkscape:current-layer="layer1"
     showgrid="false"
     showborder="true"
     inkscape:window-width="1680"
     inkscape:window-height="987"
     inkscape:window-x="-8"
     inkscape:window-y="-8"
     inkscape:window-maximized="1"
     units="px"
     fit-margin-top="16"
     fit-margin-left="16"
     fit-margin-right="16"
     fit-margin-bottom="16" />
  <metadata
     id="metadata7">
    <rdf:RDF>
      <cc:Work
         rdf:about="">
        <dc:format>image/svg+xml</dc:format>
        <dc:type
           rdf:resource="http://purl.org/dc/dcmitype/StillImage" />
        <dc:title></dc:title>
      </cc:Work>
    </rdf:RDF>
  </metadata>
  <g
     inkscape:label="Layer 1"
     inkscape:groupmode="layer"
     id="layer1"
     transform="translate(387.58789,-258.86128)">
    <g
       id="g4245">
      <path
         id="path4229"
         d="m -198.33203,274.86133 a 174,174 0 0 0 -32.80859,3.25781 l 31.41796,218.48633 c 0.87809,0.32555 1.79183,0.40466 2.77149,0.0644 l 31.43555,-218.60547 a 174,174 0 0 0 -32.81641,-3.20312 z m 82.41601,20.81445 -80.27539,200.53125 c 2.32601,-1.51296 4.69539,-2.94958 7.10352,-4.31445 L -66.333984,335.80273 a 174,174 0 0 0 -49.582036,-40.12695 z m -164.79101,0.0957 a 174,174 0 0 0 -49.70899,39.92383 l 122.70313,156.02344 c 0.0944,0.052 0.19085,0.10013 0.28516,0.15234 2.54426,0.59272 4.67079,3.20787 6.98828,4.41016 l -80.26758,-200.50977 z m -76.17383,81.78125 a 174,174 0 0 0 -14.70703,56.47461 l 97.44727,39.01172 c 19.12901,0.9081 38.08324,5.42857 55.55273,13.27344 L -356.88086,377.55273 Z m 317.046876,0.041 -138.162106,108.6543 c 17.33437,-7.87588 36.21652,-12.24064 55.29492,-13.14063 l 97.626951,-39.08203 A 174,174 0 0 0 -39.833984,377.59375 Z M -369.88867,477.70117 a 174,174 0 0 0 4.71094,19.87891 c 9.31207,-6.03379 19.28412,-11.04026 29.67382,-14.9336 l -34.38476,-4.94531 z m 342.95117,0.0215 -34.083984,4.90039 c 6.618047,2.47368 13.060046,5.40724 19.25,8.82226 2.918394,2.44197 7.115717,3.58775 10.166015,5.90821 a 174,174 0 0 0 4.667969,-19.63086 z"
         style="opacity:1;fill:#ffcc00;fill-opacity:1;stroke:none;stroke-width:15;stroke-miterlimit:4;stroke-dasharray:none;stroke-opacity:1"
         inkscape:connector-curvature="0" />
      <path
         id="path4136"
         d="m -281.5,476.86133 c -20.68847,0 -40.4079,4.20355 -58.34961,11.80078 -8.45413,3.57981 -16.50772,7.92123 -24.08789,12.92383 a 174,174 0 0 0 5.27539,14.44726 c 7.65158,-5.33278 15.87675,-9.89926 24.57617,-13.57422 16.15521,-6.82457 33.92412,-10.59765 52.58594,-10.59765 18.66182,0 36.43074,3.77308 52.58594,10.59765 16.15521,6.82456 30.69671,16.70061 42.90625,28.91016 12.20954,12.20955 22.08559,26.75104 28.91015,42.90625 5.35472,12.67576 8.8216,26.3478 10.07032,40.66211 a 174,174 0 0 0 38.59179,-17.29883 c -2.16536,-0.50261 -4.41567,-0.77734 -6.72656,-0.77734 -3.41846,0 -6.70881,0.58369 -9.77734,1.65429 -3.06853,1.07061 -5.91523,2.62812 -8.44727,4.57813 -0.14804,-0.9272 -0.3056,-1.85182 -0.4707,-2.77344 -0.1651,-0.92163 -0.33775,-1.84026 -0.51953,-2.75586 2.75335,-1.80262 5.77782,-3.22799 9.0039,-4.20312 3.22607,-0.97512 6.65375,-1.5 10.21094,-1.5 4.39461,0 8.58984,0.80362 12.45508,2.26367 a 174,174 0 0 0 13.597655,-9.89844 c -2.112595,-1.29773 -4.324328,-2.44658 -6.626953,-3.42383 -5.977822,-2.53702 -12.544432,-3.9414 -19.425782,-3.9414 -4.14683,0 -8.17703,0.51302 -12.0332,1.47656 -3.85617,0.96354 -7.53832,2.37759 -10.98828,4.17969 -0.25332,-0.81787 -0.51476,-1.63245 -0.78321,-2.44336 -0.26845,-0.81091 -0.5439,-1.61814 -0.82422,-2.42383 3.70195,-1.8493 7.64231,-3.29631 11.76563,-4.28125 4.12331,-0.98494 8.42959,-1.50781 12.86328,-1.50781 7.61613,0 14.86113,1.53425 21.445313,4.31055 3.009557,1.26901 5.87265,2.80782 8.578125,4.56835 a 174,174 0 0 0 11.16211,-10.41601 c -4.315906,-3.15395 -8.99395,-5.83755 -13.97461,-7.94922 -8.370689,-3.54897 -17.568158,-5.51367 -27.210938,-5.51367 -5.41493,0 -10.68798,0.61912 -15.75391,1.79101 -5.06593,1.17189 -9.92473,2.89655 -14.50781,5.10547 -0.35632,-0.76586 -0.71806,-1.52781 -1.08594,-2.28711 -0.36787,-0.7593 -0.74187,-1.51595 -1.12304,-2.26758 4.90913,-2.35325 10.11561,-4.1884 15.55078,-5.43554 5.43517,-1.24714 11.09903,-1.90625 16.91992,-1.90625 10.37755,0 20.253407,2.09262 29.230469,5.88086 5.522617,2.3305 10.701865,5.30717 15.451172,8.82812 a 174,174 0 0 0 9.638672,-11.41015 c -5.91618,-4.49372 -12.398956,-8.27714 -19.326172,-11.21289 -10.76308,-4.56139 -22.589941,-7.08594 -34.994141,-7.08594 -7.15845,0 -14.12307,0.84226 -20.80273,2.43164 -6.67967,1.58939 -13.07438,3.92591 -19.08985,6.91406 -0.45884,-0.71715 -0.92571,-1.42906 -1.39843,-2.13672 -0.47274,-0.70765 -0.95132,-1.41105 -1.4336,-2.11133 6.41845,-3.22913 13.25593,-5.75357 20.41016,-7.4707 7.15422,-1.71713 14.62518,-2.62695 22.31445,-2.62695 13.13898,0 25.645688,2.65293 37.015626,7.45312 7.310967,3.08657 14.148499,7.06482 20.384765,11.79297 a 174,174 0 0 0 8.234375,-12.4707 c -7.022443,-5.2376 -14.687282,-9.6588 -22.855468,-13.11914 -13.155957,-5.57334 -27.61367,-8.65625 -42.779298,-8.65625 -9.38799,0 -18.50501,1.18283 -27.20898,3.40625 -8.70397,2.22342 -16.99488,5.48743 -24.73438,9.65039 -0.56037,-0.66035 -1.12556,-1.31836 -1.69531,-1.9707 -0.56974,-0.65234 -1.14405,-1.29902 -1.72656,-1.93946 8.20817,-4.50831 17.02792,-8.04554 26.30664,-10.45508 9.27872,-2.40955 19.0164,-3.6914 29.05859,-3.6914 15.900398,0 31.037966,3.21131 44.800782,9.02344 8.392613,3.54425 16.270978,8.06129 23.501953,13.40039 a 174,174 0 0 0 6.783203,-13.50391 c -7.610856,-5.40152 -15.824531,-10.00805 -24.521484,-13.69141 -15.548834,-6.58528 -32.637406,-10.22851 -50.564454,-10.22851 -12.11603,0 -23.84819,1.66546 -34.98047,4.77929 -11.13228,3.11384 -21.66469,7.67607 -31.38281,13.4668 -0.66352,-0.59414 -1.33211,-1.18278 -2.00586,-1.76562 -0.67375,-0.58285 -1.35267,-1.15991 -2.03711,-1.73047 10.24521,-6.26502 21.39352,-11.20297 33.20703,-14.57422 11.81351,-3.37124 24.29222,-5.17578 37.19922,-5.17578 18.661823,0 36.430733,3.77308 52.585938,10.59765 8.743888,3.69375 17.008631,8.28828 24.69336,13.65625 a 174,174 0 0 0 5.277343,-14.45117 c -7.614762,-5.03578 -15.708687,-9.40342 -24.207031,-13.00195 -17.941715,-7.59723 -37.661137,-11.80078 -58.34961,-11.80078 -15.37541,0 -30.2136,2.32253 -44.18555,6.63476 -13.97195,4.31223 -27.07766,10.61416 -38.98437,18.57227 -11.90658,-7.95783 -25.01086,-14.25997 -38.98242,-18.57227 -13.97157,-4.3123 -28.81043,-6.63476 -44.18555,-6.63476 z m 0,20 c -17.92705,0 -35.01562,3.64323 -50.56445,10.22851 -8.68266,3.67731 -16.88405,8.27405 -24.48438,13.66407 a 174,174 0 0 0 6.83789,13.46484 c 7.20605,-5.30975 15.05279,-9.80461 23.41016,-13.33398 13.76282,-5.81213 28.90039,-9.02344 44.80078,-9.02344 15.9004,0 31.03797,3.21131 44.80078,9.02344 13.76282,5.81213 26.15088,14.2251 36.55078,24.625 10.3999,10.3999 18.81286,22.78797 24.625,36.55078 4.95382,11.73037 8.01136,24.46159 8.8086,37.81054 a 174,174 0 0 0 14.80664,-3.32421 c -1.11664,-14.17212 -4.51037,-27.71244 -9.82032,-40.25 -6.58528,-15.54885 -16.11261,-29.55794 -27.88086,-41.32618 -11.76823,-11.76824 -25.77733,-21.29557 -41.32617,-27.88086 -15.54883,-6.58528 -32.6374,-10.22851 -50.56445,-10.22851 z m 0,20 c -15.16562,0 -29.62334,3.08291 -42.7793,8.65625 -8.17948,3.46512 -15.85439,7.89352 -22.88476,13.14062 a 174,174 0 0 0 8.29101,12.42774 c 6.22882,-4.71892 13.05729,-8.6895 20.35743,-11.77149 11.36993,-4.80019 23.87665,-7.45312 37.01562,-7.45312 13.13898,0 25.64569,2.65293 37.01562,7.45312 11.36994,4.80019 21.6031,11.74764 30.19336,20.33789 8.59026,8.59025 15.5377,18.82342 20.3379,30.19336 4.25944,10.0891 6.82302,21.07471 7.34765,32.60157 a 174,174 0 0 0 14.92969,-1.76368 c -0.71839,-12.9153 -3.66918,-25.24443 -8.48047,-36.60156 -5.57334,-13.15596 -13.6371,-25.01016 -23.5957,-34.96875 -9.9586,-9.95859 -21.8128,-18.02236 -34.96875,-23.5957 -13.15596,-5.57334 -27.61368,-8.65625 -42.7793,-8.65625 z m 0,20 c -12.4042,0 -24.23106,2.52455 -34.99414,7.08594 -6.96313,2.95097 -13.47707,6.75875 -19.41797,11.2832 a 174,174 0 0 0 9.69336,11.36523 c 4.75914,-3.53265 9.95167,-6.51711 15.48828,-8.85351 8.97706,-3.78825 18.85293,-5.88086 29.23047,-5.88086 10.37755,0 20.25341,2.09262 29.23047,5.88086 8.97707,3.78825 17.05533,9.27212 23.83594,16.05273 6.78061,6.78061 12.26449,14.85888 16.05273,23.83594 3.24663,7.69357 5.23621,16.05044 5.74219,24.81445 a 174,174 0 0 0 8.30664,0.41602 174,174 0 0 0 6.73047,-0.23828 c -0.50644,-10.86034 -2.94556,-21.22585 -6.98438,-30.75586 -4.5614,-10.76308 -11.15964,-20.46238 -19.30859,-28.61133 -8.14895,-8.14895 -17.84825,-14.74719 -28.61133,-19.30859 -10.76308,-4.56139 -22.58994,-7.08594 -34.99414,-7.08594 z m 0,20 c -9.64278,0 -18.84025,1.96471 -27.21094,5.51367 -5.02629,2.13102 -9.74519,4.84342 -14.09375,8.03516 a 174,174 0 0 0 11.16602,10.40429 c 2.739,-1.7921 5.6412,-3.3556 8.69336,-4.64257 6.58418,-2.7763 13.82919,-4.31055 21.44531,-4.31055 7.61613,0 14.86113,1.53425 21.44531,4.31055 6.58419,2.77629 12.50755,6.79465 17.47852,11.76562 4.97097,4.97097 8.98932,10.89433 11.76562,17.47852 1.96596,4.6624 3.29378,9.66041 3.91016,14.88281 a 174,174 0 0 0 15.22656,1.89453 c -0.52708,-7.94249 -2.36877,-15.53533 -5.33984,-22.54297 -3.54896,-8.37069 -8.68218,-15.9146 -15.02149,-22.25391 -6.33931,-6.33931 -13.88321,-11.47252 -22.2539,-15.02148 -8.37069,-3.54897 -17.56816,-5.51367 -27.21094,-5.51367 z m 0,20 c -6.88135,0 -13.44797,1.40438 -19.42578,3.9414 -2.27627,0.96606 -4.46396,2.09949 -6.55469,3.37891 a 174,174 0 0 0 13.57422,9.92578 c 3.85181,-1.4484 8.03006,-2.24609 12.40625,-2.24609 4.8547,0 9.46885,0.97392 13.66016,2.73828 4.1913,1.76436 7.95977,4.31914 11.12109,7.48047 3.16133,3.16132 5.71611,6.92979 7.48047,11.12109 0.30783,0.73126 0.58306,1.47832 0.8418,2.23438 a 174,174 0 0 0 16.35156,4.08593 c -0.62624,-4.21975 -1.77858,-8.27376 -3.39649,-12.08593 -2.53702,-5.97782 -6.20666,-11.36683 -10.73632,-15.89649 -4.52966,-4.52967 -9.91868,-8.19932 -15.89649,-10.73633 -5.97781,-2.53702 -12.54443,-3.9414 -19.42578,-3.9414 z m 0,20 c -2.29069,0 -4.52197,0.26955 -6.66992,0.76367 a 174,174 0 0 0 33.36133,15.61914 c -1.4413,-2.79973 -3.30283,-5.35362 -5.51172,-7.5625 -2.72002,-2.72001 -5.95413,-4.92414 -9.53907,-6.44922 -3.58494,-1.52507 -7.52069,-2.37109 -11.64062,-2.37109 z"
         style="color:#000000;font-style:normal;font-variant:normal;font-weight:normal;font-stretch:normal;font-size:medium;line-height:normal;font-family:sans-serif;text-indent:0;text-align:start;text-decoration:none;text-decoration-line:none;text-decoration-style:solid;text-decoration-color:#000000;letter-spacing:normal;word-spacing:normal;text-transform:none;direction:ltr;block-progression:tb;writing-mode:lr-tb;baseline-shift:baseline;text-anchor:start;white-space:normal;clip-rule:nonzero;display:inline;overflow:visible;visibility:visible;opacity:1;isolation:auto;mix-blend-mode:normal;color-interpolation:sRGB;color-interpolation-filters:linearRGB;solid-color:#000000;solid-opacity:1;fill:#44aa00;fill-opacity:1;fill-rule:nonzero;stroke:none;stroke-width:15;stroke-linecap:butt;stroke-linejoin:miter;stroke-miterlimit:4;stroke-dasharray:none;stroke-dashoffset:0;stroke-opacity:1;color-rendering:auto;image-rendering:auto;shape-rendering:auto;text-rendering:auto;enable-background:accumulate"
         inkscape:connector-curvature="0" />
    </g>
  </g>
</svg>
