<?xml version="1.0" encoding="UTF-8" standalone="no"?>
<!-- Created with Inkscape (http://www.inkscape.org/) -->

<svg
   xmlns:dc="http://purl.org/dc/elements/1.1/"
   xmlns:cc="http://creativecommons.org/ns#"
   xmlns:rdf="http://www.w3.org/1999/02/22-rdf-syntax-ns#"
   xmlns:svg="http://www.w3.org/2000/svg"
   xmlns="http://www.w3.org/2000/svg"
   xmlns:sodipodi="http://sodipodi.sourceforge.net/DTD/sodipodi-0.dtd"
   xmlns:inkscape="http://www.inkscape.org/namespaces/inkscape"
   width="661.85199"
   height="661.85199"
   id="svg2"
   version="1.1"
   inkscape:version="0.48.5 r10040"
   sodipodi:docname="New document 1">
  <defs
     id="defs4" />
  <sodipodi:namedview
     id="base"
     pagecolor="#ffffff"
     bordercolor="#666666"
     borderopacity="1.0"
     inkscape:pageopacity="0.0"
     inkscape:pageshadow="2"
     inkscape:zoom="0.35355339"
     inkscape:cx="1604.1267"
     inkscape:cy="489.54678"
     inkscape:document-units="px"
     inkscape:current-layer="layer1"
     showgrid="false"
     showborder="true"
     inkscape:snap-center="true"
     fit-margin-top="0"
     fit-margin-left="0"
     fit-margin-right="0"
     fit-margin-bottom="0"
     inkscape:window-width="1920"
     inkscape:window-height="1017"
     inkscape:window-x="-8"
     inkscape:window-y="-8"
     inkscape:window-maximized="1" />
  <metadata
     id="metadata7">
    <rdf:RDF>
      <cc:Work
         rdf:about="">
        <dc:format>image/svg+xml</dc:format>
        <dc:type
           rdf:resource="http://purl.org/dc/dcmitype/StillImage" />
        <dc:title></dc:title>
      </cc:Work>
    </rdf:RDF>
  </metadata>
  <g
     inkscape:label="Layer 1"
     inkscape:groupmode="layer"
     id="layer1"
     transform="translate(2621.2723,81.66196)">
    <path
       sodipodi:type="arc"
       style="fill:#37c871;fill-opacity:1;stroke:none"
       id="path3840"
       sodipodi:cx="-2299.5112"
       sodipodi:cy="339.59854"
       sodipodi:rx="528.91589"
       sodipodi:ry="528.91589"
       d="m -1770.5953,339.59854 c 0,292.11218 -236.8037,528.91589 -528.9159,528.91589 -292.1122,0 -528.9159,-236.80371 -528.9159,-528.91589 0,-292.112181 236.8037,-528.91589 528.9159,-528.91589 292.1122,0 528.9159,236.803709 528.9159,528.91589 z"
       transform="matrix(0.62566846,0,0,0.62566846,-851.61465,36.787936)" />
    <g
       id="g3816"
       transform="matrix(1.6477314,0,0,1.6477314,-2265.6303,-499.4028)">
      <rect
         ry="18.02146"
         y="355.36218"
         x="-85"
         height="247"
         width="181"
         id="rect3759"
         style="fill:#ededed;fill-opacity:1;stroke:none" />
      <rect
         ry="17"
         y="362.36218"
         x="-73"
         height="233"
         width="157"
         id="rect3753"
         style="fill:#ffdd55;fill-opacity:1;stroke:none" />
      <path
         transform="translate(204,-167)"
         d="m -226,518.36218 c 0,14.91169 -12.08831,27 -27,27 -14.91169,0 -27,-12.08831 -27,-27 0,-14.91169 12.08831,-27 27,-27 14.91169,0 27,12.08831 27,27 z"
         sodipodi:ry="27"
         sodipodi:rx="27"
         sodipodi:cy="518.36218"
         sodipodi:cx="-253"
         id="path3769"
         style="fill:#ffffff;fill-opacity:1;stroke:none"
         sodipodi:type="arc" />
      <path
         sodipodi:type="arc"
         style="fill:#ffffff;fill-opacity:1;stroke:none"
         id="path3771"
         sodipodi:cx="-253"
         sodipodi:cy="518.36218"
         sodipodi:rx="27"
         sodipodi:ry="27"
         d="m -226,518.36218 c 0,14.91169 -12.08831,27 -27,27 -14.91169,0 -27,-12.08831 -27,-27 0,-14.91169 12.08831,-27 27,-27 14.91169,0 27,12.08831 27,27 z"
         transform="translate(234,-140)" />
      <path
         transform="translate(240,-185)"
         d="m -226,518.36218 c 0,14.91169 -12.08831,27 -27,27 -14.91169,0 -27,-12.08831 -27,-27 0,-14.91169 12.08831,-27 27,-27 14.91169,0 27,12.08831 27,27 z"
         sodipodi:ry="27"
         sodipodi:rx="27"
         sodipodi:cy="518.36218"
         sodipodi:cx="-253"
         id="path3773"
         style="fill:#ffffff;fill-opacity:1;stroke:none"
         sodipodi:type="arc" />
      <path
         sodipodi:type="arc"
         style="fill:#ffffff;fill-opacity:1;stroke:none"
         id="path3775"
         sodipodi:cx="-253"
         sodipodi:cy="518.36218"
         sodipodi:rx="27"
         sodipodi:ry="27"
         d="m -226,518.36218 c 0,14.91169 -12.08831,27 -27,27 -14.91169,0 -27,-12.08831 -27,-27 0,-14.91169 12.08831,-27 27,-27 14.91169,0 27,12.08831 27,27 z"
         transform="translate(275.5,-146)" />
      <path
         transform="translate(273,-177.5)"
         d="m -226,518.36218 c 0,14.91169 -12.08831,27 -27,27 -14.91169,0 -27,-12.08831 -27,-27 0,-14.91169 12.08831,-27 27,-27 14.91169,0 27,12.08831 27,27 z"
         sodipodi:ry="27"
         sodipodi:rx="27"
         sodipodi:cy="518.36218"
         sodipodi:cx="-253"
         id="path3777"
         style="fill:#ffffff;fill-opacity:1;stroke:none"
         sodipodi:type="arc" />
      <path
         sodipodi:type="arc"
         style="fill:#ffffff;fill-opacity:1;stroke:none"
         id="path3779"
         sodipodi:cx="-253"
         sodipodi:cy="518.36218"
         sodipodi:rx="27"
         sodipodi:ry="27"
         d="m -226,518.36218 c 0,14.91169 -12.08831,27 -27,27 -14.91169,0 -27,-12.08831 -27,-27 0,-14.91169 12.08831,-27 27,-27 14.91169,0 27,12.08831 27,27 z"
         transform="translate(311.5,-165)" />
      <path
         transform="translate(299.47918,-184.09188)"
         d="m -226,518.36218 c 0,14.91169 -12.08831,27 -27,27 -14.91169,0 -27,-12.08831 -27,-27 0,-14.91169 12.08831,-27 27,-27 14.91169,0 27,12.08831 27,27 z"
         sodipodi:ry="27"
         sodipodi:rx="27"
         sodipodi:cy="518.36218"
         sodipodi:cx="-253"
         id="path3781"
         style="fill:#ffffff;fill-opacity:1;stroke:none"
         sodipodi:type="arc" />
      <path
         inkscape:connector-curvature="0"
         id="path3806"
         d="m -84.5,526.86218 -33.94215,0 c -11.94305,0 -21.55785,-9.6148 -21.55785,-21.55785 l 0,-67.8843 c 0,-11.94305 9.6148,-21.55785 21.55785,-21.55785 l 0,0 33.94215,0"
         style="fill:none;stroke:#ededed;stroke-width:12;stroke-linecap:round;stroke-linejoin:round;stroke-miterlimit:4;stroke-opacity:1;stroke-dasharray:none" />
      <rect
         ry="10.577672"
         y="443.89771"
         x="-45.320312"
         height="100.79899"
         width="21.155344"
         id="rect3797"
         style="fill:#ffeda5;fill-opacity:1;stroke:none" />
      <path
         transform="translate(342,-168)"
         d="m -226,518.36218 c 0,14.91169 -12.08831,27 -27,27 -14.91169,0 -27,-12.08831 -27,-27 0,-14.91169 12.08831,-27 27,-27 14.91169,0 27,12.08831 27,27 z"
         sodipodi:ry="27"
         sodipodi:rx="27"
         sodipodi:cy="518.36218"
         sodipodi:cx="-253"
         id="path3799"
         style="fill:#ffffff;fill-opacity:1;stroke:none"
         sodipodi:type="arc" />
      <path
         sodipodi:type="arc"
         style="fill:#ffffff;fill-opacity:1;stroke:none"
         id="path3801"
         sodipodi:cx="-253"
         sodipodi:cy="518.36218"
         sodipodi:rx="27"
         sodipodi:ry="27"
         d="m -226,518.36218 c 0,14.91169 -12.08831,27 -27,27 -14.91169,0 -27,-12.08831 -27,-27 0,-14.91169 12.08831,-27 27,-27 14.91169,0 27,12.08831 27,27 z"
         transform="translate(172,-160)" />
      <path
         sodipodi:type="arc"
         style="fill:#ffffff;fill-opacity:1;stroke:none"
         id="path3814"
         sodipodi:cx="-253"
         sodipodi:cy="518.36218"
         sodipodi:rx="27"
         sodipodi:ry="27"
         d="m -226,518.36218 c 0,14.91169 -12.08831,27 -27,27 -14.91169,0 -27,-12.08831 -27,-27 0,-14.91169 12.08831,-27 27,-27 14.91169,0 27,12.08831 27,27 z"
         transform="translate(196.92893,-183.97056)" />
    </g>
  </g>
</svg>
