<?xml version="1.0" encoding="UTF-8" standalone="no"?>
<!-- Created with Inkscape (http://www.inkscape.org/) -->

<svg
   xmlns:dc="http://purl.org/dc/elements/1.1/"
   xmlns:cc="http://creativecommons.org/ns#"
   xmlns:rdf="http://www.w3.org/1999/02/22-rdf-syntax-ns#"
   xmlns:svg="http://www.w3.org/2000/svg"
   xmlns="http://www.w3.org/2000/svg"
   xmlns:xlink="http://www.w3.org/1999/xlink"
   xmlns:sodipodi="http://sodipodi.sourceforge.net/DTD/sodipodi-0.dtd"
   xmlns:inkscape="http://www.inkscape.org/namespaces/inkscape"
   width="506.78934"
   height="360.80115"
   id="svg2"
   version="1.1"
   inkscape:version="0.48.5 r10040"
   sodipodi:docname="New document 1">
  <defs
     id="defs4" />
  <sodipodi:namedview
     id="base"
     pagecolor="#ffffff"
     bordercolor="#666666"
     borderopacity="1.0"
     inkscape:pageopacity="0.0"
     inkscape:pageshadow="2"
     inkscape:zoom="1"
     inkscape:cx="162.96402"
     inkscape:cy="172.84055"
     inkscape:document-units="px"
     inkscape:current-layer="layer1"
     showgrid="false"
     showborder="true"
     inkscape:snap-center="true"
     inkscape:snap-bbox="true"
     inkscape:bbox-nodes="true"
     fit-margin-top="0"
     fit-margin-left="0"
     fit-margin-right="0"
     fit-margin-bottom="0"
     inkscape:window-width="1920"
     inkscape:window-height="1017"
     inkscape:window-x="-8"
     inkscape:window-y="-8"
     inkscape:window-maximized="1" />
  <metadata
     id="metadata7">
    <rdf:RDF>
      <cc:Work
         rdf:about="">
        <dc:format>image/svg+xml</dc:format>
        <dc:type
           rdf:resource="http://purl.org/dc/dcmitype/StillImage" />
        <dc:title></dc:title>
      </cc:Work>
    </rdf:RDF>
  </metadata>
  <g
     inkscape:label="Layer 1"
     inkscape:groupmode="layer"
     id="layer1"
     transform="translate(799.39467,-41.211691)">
    <g
       id="g3806"
       transform="matrix(0.57932729,0,0,0.57932729,-229.6873,93.226229)">
      <path
         d="m -860.21875,-89.78125 c -26.75362,-0.242858 -52.94926,13.682482 -67.1875,38.34375 -8.58003,14.861041 -11.42348,31.498917 -9.5,47.4375 -14.76367,6.3223807 -27.73827,17.117817 -36.3125,31.96875 -21.02089,36.40925 -8.29622,83.70897 28.09375,104.71875 28.96134,16.72083 64.76974,12.15531 88.8125,-8.78125 75.02178,27.93304 158.02013,66.80787 219.46875,97.78125 -61.44027,30.95355 -144.43888,69.78714 -219.46875,97.71875 -24.04766,-20.92852 -59.86271,-25.46415 -88.8125,-8.75 0.3156,-0.18224 -0.27949,0.11985 -1.71875,1 -35.17308,21.51299 -47.06969,67.90593 -26.375,103.75 8.57471,14.85192 21.55351,25.65598 36.3125,31.96875 -1.91587,15.92875 0.92534,32.55446 9.5,47.40625 21.03075,36.42632 68.36983,49.08465 104.78125,28.0625 28.94963,-16.71407 42.89878,-50.00391 36.8125,-81.28125 79.83033,-65.99333 183.80332,-135.6076 239.8125,-170.40625 56.00918,34.79865 159.98217,104.41292 239.8125,170.40625 -6.08628,31.27734 7.86287,64.56718 36.8125,81.28125 36.41142,21.02215 83.7505,8.36382 104.78125,-28.0625 8.57464,-14.85176 11.41587,-31.47748 9.5,-47.40625 14.75899,-6.31278 27.73781,-17.11685 36.3125,-31.96875 20.694691,-35.84407 8.79808,-82.23701 -26.375,-103.75 -1.43926,-0.88015 -2.03435,-1.18224 -1.71875,-1 -28.94979,-16.71415 -64.76483,-12.17851 -88.8125,8.75 -75.02987,-27.93161 -158.02848,-66.7652 -219.46875,-97.71875 61.44862,-30.97338 144.44697,-69.84821 219.46875,-97.78125 24.04277,20.93655 59.85117,25.50209 88.8125,8.78125 36.39,-21.00977 49.114629,-68.309514 28.09375,-104.71875 C -127.35544,13.117824 -140.33007,2.3223929 -155.09375,-4 c 1.92347,-15.938584 -0.91998,-32.576467 -9.5,-47.4375 -20.69982,-35.853126 -66.84836,-48.73381 -103.0625,-29.03125 -0.81518,0.443582 -1.3796,0.772942 -1.71875,0.96875 -28.9499,16.714231 -42.89765,50.004506 -36.8125,81.28125 -79.82811,65.993659 -183.80181,135.6318 -239.8125,170.4375 -56.01069,-34.8057 -159.98439,-104.443841 -239.8125,-170.4375 6.08515,-31.276744 -7.8626,-64.567019 -36.8125,-81.28125 -0.33915,-0.195808 -0.90357,-0.525168 -1.71875,-0.96875 -11.30333,-6.149652 -23.69806,-9.201962 -35.875,-9.3125 z"
         inkscape:href="#rect3779"
         id="path3803"
         style="fill:#000000;fill-opacity:1;stroke:none"
         xlink:href="#rect3779"
         inkscape:original="M -860.4375 -64.28125 C -878.29502 -64.443353 -895.7478 -55.253992 -905.3125 -38.6875 C -915.34615 -21.308716 -913.99227 -0.48396436 -903.625 15.1875 C -922.3792 14.046245 -941.09194 23.341053 -951.125 40.71875 C -965.25808 65.197967 -956.85419 96.46067 -932.375 110.59375 C -908.58961 124.32624 -878.37811 116.80027 -863.71875 93.90625 C -763.72878 129.50847 -644.66238 187.83281 -580.9375 221.6875 C -644.65629 255.53488 -763.71837 313.80033 -863.71875 349.40625 C -878.37884 326.51455 -908.59056 319.01806 -932.375 332.75 C -932.75743 332.97083 -933.15663 333.17716 -933.53125 333.40625 C -957.13141 347.84087 -965.03732 378.55953 -951.125 402.65625 C -941.09142 420.03503 -922.38052 429.29889 -903.625 428.15625 C -913.99059 443.8274 -915.34549 464.65355 -905.3125 482.03125 C -891.17942 506.51046 -859.8542 514.88308 -835.375 500.75 C -811.58963 487.01752 -803.00295 457.07994 -815.5 432.9375 C -726.27774 356.99982 -601.36917 274.69001 -546 241.15625 C -490.63083 274.69001 -365.72226 356.99982 -276.5 432.9375 C -288.99705 457.07994 -280.41037 487.01752 -256.625 500.75 C -232.1458 514.88308 -200.82058 506.51046 -186.6875 482.03125 C -176.65451 464.65355 -178.00934 443.8274 -188.375 428.15625 C -169.61942 429.29889 -150.90858 420.03503 -140.875 402.65625 C -126.96268 378.55953 -134.86859 347.84087 -158.46875 333.40625 C -158.84337 333.17716 -159.24257 332.97083 -159.625 332.75 C -183.40944 319.01806 -213.62114 326.51455 -228.28125 349.40625 C -328.28163 313.80033 -447.34371 255.53488 -511.0625 221.6875 C -447.33762 187.83281 -328.27122 129.50847 -228.28125 93.90625 C -213.62186 116.80027 -183.41036 124.32624 -159.625 110.59375 C -135.14578 96.46067 -126.74192 65.197967 -140.875 40.71875 C -150.90802 23.341053 -169.62068 14.046245 -188.375 15.1875 C -178.00772 -0.48396436 -176.65386 -21.308716 -186.6875 -38.6875 C -200.59975 -62.784219 -231.16793 -71.283529 -255.46875 -58.0625 C -255.85451 -57.852589 -256.24253 -57.627067 -256.625 -57.40625 C -280.40933 -43.674361 -288.99475 -13.735642 -276.5 10.40625 C -365.71693 86.339371 -490.62562 168.67797 -546 202.21875 C -601.37438 168.67797 -726.28307 86.339371 -815.5 10.40625 C -803.00525 -13.735642 -811.59067 -43.674361 -835.375 -57.40625 C -835.75747 -57.627067 -836.14549 -57.852589 -836.53125 -58.0625 C -844.12526 -62.194072 -852.32045 -64.207566 -860.4375 -64.28125 z "
         inkscape:radius="25.495098"
         sodipodi:type="inkscape:offset" />
      <path
         inkscape:connector-curvature="0"
         id="rect3779"
         d="m -860.43153,-64.275999 c -17.85752,-0.162103 -35.30198,9.035785 -44.86668,25.602277 -10.03365,17.378784 -8.70304,38.20046864 1.66423,53.871933 -18.7542,-1.141255 -37.45537,8.133388 -47.48843,25.511085 -14.13308,24.479217 -5.73914,55.765924 18.74005,69.899004 23.78539,13.73249 54.00854,6.2058 68.6679,-16.688216 99.98997,35.602216 219.06288,93.905916 282.78776,127.760606 -63.71879,33.84738 -182.78738,92.13189 -282.78776,127.73781 -14.66009,-22.8917 -44.88346,-30.39736 -68.6679,-16.66542 -0.38243,0.22083 -0.76529,0.43206 -1.13991,0.66115 -23.60016,14.43462 -31.51246,45.14114 -17.60014,69.23786 10.03358,17.37878 28.73291,26.65372 47.48843,25.51108 -10.36559,15.67115 -11.69722,36.49424 -1.66423,53.87194 14.13308,24.47921 45.4426,32.85032 69.9218,18.71724 23.78537,-13.73248 32.377,-43.68193 19.87995,-67.82437 C -726.2742,356.9903 -601.36917,274.68404 -546,241.15028 c 55.36917,33.53376 180.2742,115.84002 269.49646,191.7777 -12.49705,24.14244 -3.90542,54.09189 19.87995,67.82437 24.4792,14.13308 55.78872,5.76197 69.9218,-18.71724 10.03299,-17.3777 8.7014,-38.20079 -1.66426,-53.87194 18.75558,1.14264 37.45488,-8.1323 47.48846,-25.51108 13.91232,-24.09672 6.00002,-54.80324 -17.60014,-69.23786 -0.37462,-0.22909 -0.75748,-0.44032 -1.13991,-0.66115 -23.78444,-13.73194 -54.00779,-6.22628 -68.6679,16.66542 -100.00038,-35.60592 -219.06897,-93.89043 -282.78776,-127.73781 63.72488,-33.85469 182.79779,-92.15839 282.78776,-127.760606 14.65939,22.894016 44.88254,30.420706 68.6679,16.688216 24.47922,-14.13308 32.87313,-45.419787 18.74005,-69.899004 -10.03302,-17.377697 -28.73414,-26.65234 -47.48846,-25.511085 10.36728,-15.67146436 11.6979,-36.493149 1.66426,-53.871933 -13.91225,-24.096719 -44.48108,-32.599422 -68.7819,-19.378393 -0.38576,0.209911 -0.75743,0.41753 -1.1399,0.638347 -23.78433,13.731889 -32.3747,43.682484 -19.87995,67.824376 C -365.72047,86.343729 -490.62562,168.67033 -546,202.21111 -601.37438,168.67033 -726.27953,86.343729 -815.49646,10.410608 c 12.49475,-24.141892 3.90438,-54.092487 -19.87995,-67.824376 -0.38247,-0.220817 -0.75414,-0.428436 -1.1399,-0.638347 -7.59401,-4.131572 -15.79817,-6.1502 -23.91522,-6.223884 z"
         style="fill:#ffffff;fill-opacity:1;stroke:none" />
      <path
         id="path3801"
         d="m -546,42.75 c -88.44405,0 -160.625,72.18094 -160.625,160.625 0,19.55966 3.72087,38.28223 10.15625,55.65625 -3.7497,18.9163 0.27818,37.76375 7.90625,54.5625 7.59857,16.73379 21.21308,34.7203 42.65625,43.375 l 7.96875,14.875 c 5.00657,9.33785 11.18262,12.48257 17.15625,15.53125 5.97363,3.04868 12.45613,5.29425 19.875,7.1875 14.83774,3.7865 33.32893,6.03125 54.90625,6.03125 21.57732,0 40.06851,-2.24475 54.90625,-6.03125 7.41887,-1.89325 13.90137,-4.13882 19.875,-7.1875 5.97363,-3.04868 12.14968,-6.1934 17.15625,-15.53125 l 7.96875,-14.875 c 21.44316,-8.6547 35.05767,-26.64121 42.65625,-43.375 7.62806,-16.79874 11.65596,-35.64619 7.90625,-54.5625 6.43538,-17.37402 10.15625,-36.09659 10.15625,-55.65625 0,-88.44406 -72.18094,-160.625 -160.625,-160.625 z"
         style="fill:#000000;fill-opacity:1;stroke:none"
         inkscape:connector-curvature="0" />
      <path
         inkscape:connector-curvature="0"
         id="path3753"
         d="m -546,65.375 c -76.21529,0 -138,61.7847 -138,138 0,19.32041 3.98694,37.68064 11.15625,54.375 -0.29265,0.82188 -0.58642,1.65627 -0.8125,2.5 -3.65063,13.62436 -0.9988,29.27524 5.6875,44 6.6863,14.72475 18.31217,28.91905 35.875,33.625 0.62046,0.16625 1.22446,0.29882 1.84375,0.4375 l 12.25,22.84375 c 4.38298,8.17478 32.112,16.8125 72,16.8125 39.888,0 67.61702,-8.63772 72,-16.8125 l 12.25,-22.84375 c 0.61928,-0.13868 1.22333,-0.27126 1.84375,-0.4375 17.56284,-4.70595 29.18869,-18.90023 35.875,-33.625 6.68629,-14.72475 9.33813,-30.37566 5.6875,-44 -0.22542,-0.84127 -0.51952,-1.68014 -0.8125,-2.5 C -411.98694,241.05564 -408,222.69541 -408,203.375 c 0,-76.2153 -61.7847,-138 -138,-138 z"
         style="fill:#ffffff;fill-opacity:1;stroke:none" />
      <path
         inkscape:connector-curvature="0"
         id="path3755"
         d="m -646.03669,250.93224 c -8.18049,0.21169 -14.00974,3.44471 -16.39036,12.32929 -5.07865,18.9538 7.40086,56.45017 33.33583,63.39943 25.93495,6.94925 55.516,-19.29038 60.59465,-38.24418 5.07865,-18.95379 -16.25341,-23.43571 -42.18837,-30.38497 -13.77795,-3.6918 -26.08053,-7.33949 -35.35175,-7.09957 z m 198.43727,0 c -9.05682,0.1914 -20.74816,3.62495 -33.71564,7.09957 -25.93497,6.94926 -47.2378,11.43118 -42.15916,30.38497 5.07867,18.9538 34.63049,45.19343 60.56544,38.24418 25.93497,-6.94926 38.41448,-44.44563 33.33583,-63.39943 -2.53933,-9.47689 -8.96965,-12.52068 -18.02647,-12.32929 z"
         style="fill:#000000;fill-opacity:1;stroke:none" />
      <path
         inkscape:connector-curvature="0"
         id="path3769"
         d="m -546,304.64094 c -14.05212,9.61104 -25,27.82379 -25,42.27344 0,14.44935 10.9483,20.02056 25,13.40625 14.0517,6.61431 25,1.0431 25,-13.40625 0,-14.44965 -10.94788,-32.6624 -25,-42.27344 z"
         style="fill:#000000;fill-opacity:1;stroke:none" />
    </g>
  </g>
</svg>
