<?xml version="1.0" encoding="UTF-8" standalone="no"?>
<!-- Created with Inkscape (http://www.inkscape.org/) -->

<svg
   xmlns:dc="http://purl.org/dc/elements/1.1/"
   xmlns:cc="http://creativecommons.org/ns#"
   xmlns:rdf="http://www.w3.org/1999/02/22-rdf-syntax-ns#"
   xmlns:svg="http://www.w3.org/2000/svg"
   xmlns="http://www.w3.org/2000/svg"
   xmlns:sodipodi="http://sodipodi.sourceforge.net/DTD/sodipodi-0.dtd"
   xmlns:inkscape="http://www.inkscape.org/namespaces/inkscape"
   width="450.13388"
   height="610.37903"
   viewBox="0 0 450.13389 610.37904"
   id="svg2"
   version="1.1"
   inkscape:version="0.91 r13725"
   inkscape:export-filename="C:\Users\brayan.bedritchuk\Desktop\path4218.png"
   inkscape:export-xdpi="102.37"
   inkscape:export-ydpi="102.37"
   sodipodi:docname="Cup of Coffe.svg">
  <defs
     id="defs4">
    <inkscape:path-effect
       fuse_tolerance="0"
       vertical_pattern="false"
       prop_units="false"
       tang_offset="0"
       normal_offset="0"
       spacing="0"
       scale_y_rel="false"
       prop_scale="1"
       copytype="single_stretched"
       pattern="m 98.994949,587.65598 c 0,-2.76 2.240001,-5 5.000001,-5 2.76,0 5,2.24 5,5 0,2.76 -2.24,5 -5,5 -2.76,0 -5.000001,-2.24 -5.000001,-5 z"
       is_visible="true"
       id="path-effect4206"
       effect="skeletal" />
    <inkscape:path-effect
       effect="skeletal"
       id="path-effect4202"
       is_visible="true"
       pattern="m 5.656854,587.65598 c 0,-2.76 2.24,-5 5,-5 2.76,0 5,2.24 5,5 0,2.76 -2.24,5 -5,5 -2.76,0 -5,-2.24 -5,-5 z"
       copytype="single_stretched"
       prop_scale="1"
       scale_y_rel="false"
       spacing="0"
       normal_offset="0"
       tang_offset="0"
       prop_units="false"
       vertical_pattern="false"
       fuse_tolerance="0" />
    <inkscape:path-effect
       effect="skeletal"
       id="path-effect4175"
       is_visible="true"
       pattern="M 0,5 C 0,2.24 2.24,0 5,0 7.76,0 10,2.24 10,5 10,7.76 7.76,10 5,10 2.24,10 0,7.76 0,5 Z"
       copytype="single_stretched"
       prop_scale="1"
       scale_y_rel="false"
       spacing="0"
       normal_offset="0"
       tang_offset="0"
       prop_units="false"
       vertical_pattern="false"
       fuse_tolerance="0" />
    <inkscape:path-effect
       effect="skeletal"
       id="path-effect4171"
       is_visible="true"
       pattern="M 0,5 C 0,2.24 2.24,0 5,0 7.76,0 10,2.24 10,5 10,7.76 7.76,10 5,10 2.24,10 0,7.76 0,5 Z"
       copytype="single_stretched"
       prop_scale="1"
       scale_y_rel="false"
       spacing="0"
       normal_offset="0"
       tang_offset="0"
       prop_units="false"
       vertical_pattern="false"
       fuse_tolerance="0" />
    <inkscape:path-effect
       effect="skeletal"
       id="path-effect4167"
       is_visible="true"
       pattern="M 0,5 C 0,2.24 2.24,0 5,0 7.76,0 10,2.24 10,5 10,7.76 7.76,10 5,10 2.24,10 0,7.76 0,5 Z"
       copytype="single_stretched"
       prop_scale="1"
       scale_y_rel="false"
       spacing="0"
       normal_offset="0"
       tang_offset="0"
       prop_units="false"
       vertical_pattern="false"
       fuse_tolerance="0" />
    <inkscape:path-effect
       effect="spiro"
       id="path-effect4165"
       is_visible="true" />
    <inkscape:path-effect
       effect="spiro"
       id="path-effect4161"
       is_visible="true" />
  </defs>
  <sodipodi:namedview
     id="base"
     pagecolor="#ffffff"
     bordercolor="#666666"
     borderopacity="1.0"
     inkscape:pageopacity="1"
     inkscape:pageshadow="2"
     inkscape:zoom="1"
     inkscape:cx="338.80442"
     inkscape:cy="266.54013"
     inkscape:document-units="px"
     inkscape:current-layer="layer1"
     showgrid="false"
     showborder="true"
     units="px"
     fit-margin-top="32"
     fit-margin-left="32"
     fit-margin-right="32"
     fit-margin-bottom="32"
     inkscape:window-width="1680"
     inkscape:window-height="987"
     inkscape:window-x="-8"
     inkscape:window-y="-8"
     inkscape:window-maximized="1" />
  <metadata
     id="metadata7">
    <rdf:RDF>
      <cc:Work
         rdf:about="">
        <dc:format>image/svg+xml</dc:format>
        <dc:type
           rdf:resource="http://purl.org/dc/dcmitype/StillImage" />
        <dc:title></dc:title>
      </cc:Work>
    </rdf:RDF>
  </metadata>
  <g
     inkscape:label="Layer 1"
     inkscape:groupmode="layer"
     id="layer1"
     transform="translate(859.45052,416.82735)">
    <path
       sodipodi:nodetypes="sssssssss"
       inkscape:connector-curvature="0"
       id="path4177"
       d="m -814.31665,-181.21306 288,0 c 7.202,0 14.19391,5.89765 13,13 l -54,321.23567 c -0.78327,4.6595 -3.80378,8.52866 -8.52866,8.52866 l -188.94268,0 c -4.72488,0 -7.74539,-3.86916 -8.52866,-8.52866 l -54,-321.23567 c -1.19391,-7.10235 5.798,-13 13,-13 z"
       style="opacity:1;fill:#552200;fill-opacity:1;stroke:none;stroke-width:40;stroke-miterlimit:4;stroke-dasharray:none;stroke-opacity:1" />
    <path
       inkscape:connector-curvature="0"
       id="path4179"
       d="m -573.74522,-102.21391 c -3.08657,0 -5.57143,2.48486 -5.57143,5.57143 l 0,8.57143 119.42746,0 c 2.45392,0 4.42968,1.97576 4.42968,4.42968 l 0,100.85576 c 0,2.45391 -1.97576,4.42884 -4.42968,4.42884 l -119.42746,0 0,8.57143 c 0,3.08657 2.48486,5.57143 5.57143,5.57143 l 126.85714,0 c 3.08657,0 5.57143,-2.48486 5.57143,-5.57143 l 0,-126.85714 c 0,-3.08657 -2.48486,-5.57143 -5.57143,-5.57143 l -126.85714,0 z"
       style="opacity:1;fill:#552200;fill-opacity:1;stroke:none;stroke-width:40;stroke-miterlimit:4;stroke-dasharray:none;stroke-opacity:1" />
    <path
       id="path4181"
       d="m -814.31665,-181.21391 c -7.202,0 -14.19391,5.89765 -13,13 l 54,321.23633 c 0.78327,4.6595 3.80442,8.52929 8.5293,8.52929 l 27.125,0 148.36914,-342.76562 -225.02344,0 z"
       style="opacity:1;fill:#5f2600;fill-opacity:1;stroke:none;stroke-width:40;stroke-miterlimit:4;stroke-dasharray:none;stroke-opacity:1"
       inkscape:connector-curvature="0" />
    <path
       inkscape:connector-curvature="0"
       id="rect4183"
       d="m -760.31665,-151.04641 c 8.864,0 16,12.27393 16,27.52001 l 0,59.62665 c 0,15.24608 -7.136,27.52 -16,27.52 -8.864,0 -16,-12.27392 -16,-27.52 l 0,-59.62665 c 0,-15.24608 7.136,-27.52001 16,-27.52001 z"
       style="opacity:1;fill:#c8c8c8;fill-opacity:1;stroke:none;stroke-width:40;stroke-miterlimit:4;stroke-dasharray:none;stroke-opacity:1" />
    <path
       inkscape:connector-curvature="0"
       id="path4200"
       d="m -715.85929,-384.61536 c 0.0118,0.0266 0.0181,0.0557 0.0188,0.0871 7.3e-4,0.0307 -0.004,0.0637 -0.0135,0.099 0,0 0,0 0,0 -0.0194,0.0701 -0.0593,0.1493 -0.11951,0.23733 l 0,0 0,0 c -0.11895,0.17416 -0.31727,0.38379 -0.59139,0.62772 l 0,0 c -0.53595,0.47693 -1.36736,1.09035 -2.46305,1.83327 l 0,0 c -2.09273,1.41897 -5.14574,3.3081 -9.00246,5.69906 l 0,0 c -6.16576,3.82411 -16.34072,10.05281 -25.88686,17.29666 l 0,0 c -3.95958,3.00753 -8.15682,6.42262 -11.98524,10.24699 0,10e-6 -10e-6,10e-6 -10e-6,10e-6 l 0,0 c -3.03803,3.06429 -6.01308,6.40584 -8.00274,10.08972 l 0,0 c -0.80369,1.48471 -1.46918,2.98581 -1.83286,4.46835 l 0,0 c -0.32018,1.31111 -0.46963,2.62364 -0.33055,3.81848 l 0,0 c 0.11153,1.177 0.50026,2.38703 1.09639,3.50824 l 0,0 0,0 0,0 c 0.68152,1.3211 1.7606,2.58149 3.04872,3.80941 4.75276,4.45533 9.99007,8.51065 15.67851,12.74302 3.23023,2.4034 6.20148,4.56821 9.40305,6.97501 10.21755,7.63861 19.30558,14.92195 27.27439,23.60849 4.25251,4.64116 7.88889,9.45894 10.83529,14.50269 0,0 0,0 0,0 3.28411,5.62398 5.51983,11.34001 6.81545,16.8922 1.65678,7.15793 1.6861,13.82202 1.02516,19.32008 -1.75303,14.46965 -7.12122,21.16064 -7.53597,21.0089 -1.53294,-0.56083 1.83674,-8.00848 1.8348,-21.36855 0.003,-5.02766 -0.58689,-10.94952 -2.49323,-17.03082 -1.47363,-4.73612 -3.7428,-9.57208 -6.87492,-14.37271 0,0 0,0 0,0 -2.81936,-4.32396 -6.26759,-8.48098 -10.30989,-12.6168 -7.62246,-7.80978 -16.31117,-14.40859 -26.51171,-21.9564 -2.9994,-2.2067 -6.31202,-4.60226 -9.44076,-6.93433 -5.79845,-4.322 -11.32471,-8.68926 -16.47693,-13.61754 -1.91008,-1.80195 -3.61489,-3.96161 -4.9226,-6.47541 0,0 0,-2e-5 0,-2e-5 -1.14231,-2.23022 -1.83864,-4.67106 -2.03871,-7.18576 l 0,0 c -0.17415,-2.51646 0.12968,-4.92918 0.77431,-7.13678 l 0,0 c 0.7124,-2.44189 1.74006,-4.64425 2.91571,-6.60015 l 0,0 c 2.86946,-4.762 6.50681,-8.61648 10.04055,-11.79515 l 0,0 c 0,0 0,0 0,0 4.45531,-4.04474 9.12636,-7.44563 13.47792,-10.31519 10.73133,-7.08334 21.18157,-12.11515 28.21921,-15.12457 l 0,0 c 4.23012,-1.81031 7.661,-3.06464 10.10046,-3.79237 l 0,0 c 1.28417,-0.38309 2.29429,-0.62042 3.01402,-0.71474 l 0,0 c 0.367,-0.0481 0.65693,-0.0589 0.86769,-0.0321 l 0,0 0,0 c 0.10627,0.0135 0.19221,0.0365 0.25756,0.0691 0,0 0,0 0,0 0.0328,0.0163 0.0605,0.0351 0.0828,0.0562 0.0229,0.0216 0.0403,0.0458 0.0521,0.0724 z"
       style="fill:#5f2600;fill-opacity:1;fill-rule:evenodd;stroke:none;stroke-width:1px;stroke-linecap:butt;stroke-linejoin:miter;stroke-opacity:1" />
    <path
       inkscape:connector-curvature="0"
       id="path4204"
       d="m -622.52119,-384.61536 c 0.0118,0.0266 0.0181,0.0557 0.0188,0.0871 7.3e-4,0.0307 -0.004,0.0637 -0.0135,0.099 0,0 0,0 0,0 -0.0194,0.0701 -0.0593,0.1493 -0.11951,0.23733 l 0,0 0,0 c -0.11895,0.17416 -0.31727,0.38379 -0.59139,0.62772 l 0,0 c -0.53595,0.47693 -1.36736,1.09035 -2.46305,1.83327 l 0,0 c -2.09273,1.41897 -5.14574,3.3081 -9.00246,5.69906 l 0,0 c -6.16576,3.82411 -16.34072,10.05281 -25.88686,17.29666 l 0,0 c -3.95958,3.00753 -8.15682,6.42262 -11.98524,10.24699 l 0,10e-6 -10e-6,0 0,0 c -3.03803,3.06429 -6.01308,6.40584 -8.00274,10.08972 l 0,0 c -0.80369,1.48471 -1.46918,2.98581 -1.83286,4.46835 l 0,0 c -0.32018,1.31111 -0.46963,2.62364 -0.33055,3.81848 l 0,0 c 0.11153,1.177 0.50026,2.38703 1.09639,3.50824 l 0,0 0,0 0,0 c 0.68152,1.3211 1.7606,2.58149 3.04872,3.80941 4.75276,4.45533 9.99008,8.51065 15.67851,12.74303 3.23023,2.40339 6.20148,4.56821 9.40305,6.975 10.21755,7.63861 19.30558,14.92195 27.27438,23.60849 4.25252,4.64116 7.8889,9.45894 10.83529,14.50269 0,0 10e-6,0 10e-6,0 3.28411,5.62398 5.51983,11.34001 6.81545,16.8922 1.65678,7.15793 1.6861,13.82202 1.02515,19.32008 -1.75302,14.46965 -7.12121,21.16064 -7.53596,21.0089 -1.53294,-0.56083 1.83674,-8.00848 1.8348,-21.36855 0.003,-5.02766 -0.5869,-10.94952 -2.49323,-17.03082 -1.47363,-4.73612 -3.74281,-9.57208 -6.87492,-14.37271 0,0 0,0 0,0 -2.81936,-4.32396 -6.26759,-8.48098 -10.30989,-12.6168 -7.62246,-7.80978 -16.31117,-14.40859 -26.51171,-21.9564 -2.9994,-2.2067 -6.31201,-4.60226 -9.44075,-6.93433 -5.79846,-4.322 -11.32471,-8.68926 -16.47694,-13.61754 -1.91008,-1.80195 -3.61489,-3.96161 -4.9226,-6.47541 0,0 0,-2e-5 0,-2e-5 -1.14231,-2.23022 -1.83864,-4.67106 -2.03871,-7.18576 l 0,0 c -0.17415,-2.51646 0.12968,-4.92918 0.77431,-7.13678 l 0,0 c 0.7124,-2.44189 1.74006,-4.64425 2.91571,-6.60015 l 0,0 c 2.86946,-4.762 6.50681,-8.61648 10.04055,-11.79515 0,0 0,0 0,0 4.45531,-4.04474 9.12636,-7.44563 13.47792,-10.31519 l 0,0 c 10.73133,-7.08334 21.18157,-12.11515 28.21921,-15.12457 l 0,0 c 4.23012,-1.81031 7.661,-3.06464 10.10046,-3.79237 l 0,0 c 1.28417,-0.38309 2.29429,-0.62042 3.01402,-0.71474 l 0,0 c 0.367,-0.0481 0.65693,-0.0589 0.86769,-0.0321 l 0,0 0,0 c 0.10627,0.0135 0.19221,0.0365 0.25756,0.0691 0,0 0,0 0,0 0.0328,0.0163 0.0605,0.0351 0.0828,0.0562 0.0229,0.0216 0.0403,0.0458 0.0521,0.0724 z"
       style="fill:#5f2600;fill-opacity:1;fill-rule:evenodd;stroke:none;stroke-width:1px;stroke-linecap:butt;stroke-linejoin:miter;stroke-opacity:1" />
  </g>
</svg>
