<?xml version="1.0" encoding="UTF-8" standalone="no"?>
<!-- Created with Inkscape (http://www.inkscape.org/) -->

<svg
   xmlns:dc="http://purl.org/dc/elements/1.1/"
   xmlns:cc="http://creativecommons.org/ns#"
   xmlns:rdf="http://www.w3.org/1999/02/22-rdf-syntax-ns#"
   xmlns:svg="http://www.w3.org/2000/svg"
   xmlns="http://www.w3.org/2000/svg"
   xmlns:sodipodi="http://sodipodi.sourceforge.net/DTD/sodipodi-0.dtd"
   xmlns:inkscape="http://www.inkscape.org/namespaces/inkscape"
   width="720"
   height="1280"
   id="svg2"
   version="1.1"
   inkscape:version="0.48.5 r10040"
   sodipodi:docname="New document 1">
  <defs
     id="defs4" />
  <sodipodi:namedview
     id="base"
     pagecolor="#ffffff"
     bordercolor="#666666"
     borderopacity="1.0"
     inkscape:pageopacity="0.0"
     inkscape:pageshadow="2"
     inkscape:zoom="0.25"
     inkscape:cx="561.55762"
     inkscape:cy="799.0679"
     inkscape:document-units="px"
     inkscape:current-layer="layer1"
     showgrid="false"
     showborder="true"
     inkscape:snap-bbox="true"
     inkscape:object-nodes="true"
     fit-margin-top="0"
     fit-margin-left="0"
     fit-margin-right="0"
     fit-margin-bottom="0"
     inkscape:window-width="1920"
     inkscape:window-height="1017"
     inkscape:window-x="-8"
     inkscape:window-y="-8"
     inkscape:window-maximized="1" />
  <metadata
     id="metadata7">
    <rdf:RDF>
      <cc:Work
         rdf:about="">
        <dc:format>image/svg+xml</dc:format>
        <dc:type
           rdf:resource="http://purl.org/dc/dcmitype/StillImage" />
        <dc:title></dc:title>
      </cc:Work>
    </rdf:RDF>
  </metadata>
  <g
     inkscape:label="Layer 1"
     inkscape:groupmode="layer"
     id="layer1"
     transform="translate(866,617.63782)">
    <rect
       style="fill:#87decd;fill-opacity:1;stroke:none"
       id="rect2985"
       width="720"
       height="1280"
       x="-866"
       y="-617.63782"
       inkscape:export-filename="C:\Users\Brayan\Desktop\sailboat.png"
       inkscape:export-xdpi="90"
       inkscape:export-ydpi="90" />
    <g
       id="g3802"
       transform="matrix(0.63972785,0,0,0.63972785,-715.83074,4.701724)"
       inkscape:export-filename="C:\Users\Brayan\Desktop\sailboat.png"
       inkscape:export-xdpi="90"
       inkscape:export-ydpi="90">
      <path
         inkscape:export-ydpi="83.480003"
         inkscape:export-xdpi="83.480003"
         inkscape:export-filename="C:\Users\Brayan\Desktop\Sailboat.png"
         transform="matrix(0.64046057,0,0,0.64046057,653.35397,428.845)"
         d="m -128,-743.63782 c 0,209.86821 -170.1318,380 -380,380 -209.8682,0 -380,-170.13179 -380,-380 0,-209.8682 170.1318,-379.99998 380,-379.99998 209.8682,0 380,170.13178 380,379.99998 z"
         sodipodi:ry="380"
         sodipodi:rx="380"
         sodipodi:cy="-743.63782"
         sodipodi:cx="-508"
         id="path3802"
         style="fill:#ffffff;fill-opacity:1;stroke:none"
         sodipodi:type="arc" />
      <path
         inkscape:export-ydpi="83.480003"
         inkscape:export-xdpi="83.480003"
         inkscape:export-filename="C:\Users\Brayan\Desktop\Sailboat.png"
         inkscape:connector-curvature="0"
         id="path4039"
         d="m 369.31948,-232.84576 c -0.0918,-0.0159 -0.15428,-0.22568 -0.15057,-0.62179 0.004,-0.39615 0.0758,-0.98036 0.30449,-1.7089 0.22868,-0.72856 0.61691,-1.60379 1.26544,-2.5134 0.64853,-0.90959 1.56034,-1.85569 2.80497,-2.62288 1.13267,-0.69281 2.52012,-1.21587 4.07916,-1.40579 1.55906,-0.18989 3.29096,-0.0459 4.9929,0.60372 0.95753,0.37642 1.87448,0.8877 2.73369,1.50864 0.8592,0.62094 1.66063,1.3516 2.3888,2.15139 0,0 0,0 0,0 1.33276,1.45032 2.46966,3.08863 3.59312,4.69702 1.06112,1.50098 2.1192,2.99363 3.39236,4.21662 1.21475,1.15338 2.60968,2.13875 4.13265,2.52021 0.15203,0.0429 0.30703,0.0793 0.46427,0.11064 1.04463,0.20858 2.1712,0.17554 3.28696,0.0155 1.32862,-0.19539 2.65479,-0.61946 3.98518,-1.0913 1.41909,-0.52018 2.86468,-1.1052 4.34868,-1.58058 1.484,-0.47538 3.0063,-0.84073 4.56479,-0.97316 2.41486,-0.17349 4.6975,0.31219 6.63565,1.17164 1.93813,0.85945 3.53278,2.09155 4.72543,3.4527 0,0 0,0 0,0 1.28036,1.47025 2.07667,3.04892 2.55037,4.48489 0.4737,1.43598 0.62783,2.73249 0.63393,3.77828 0.007,1.0458 -0.13271,1.84498 -0.28159,2.37036 -0.1489,0.52536 -0.30514,0.78035 -0.41428,0.76383 -0.10915,-0.0166 -0.16704,-0.30274 -0.22791,-0.81812 -0.0608,-0.51538 -0.12827,-1.26301 -0.31665,-2.19401 -0.18841,-0.93102 -0.50096,-2.04945 -1.06255,-3.24327 -0.56157,-1.19385 -1.37445,-2.46652 -2.53333,-3.58584 0,0 0,0 0,0 -1.07189,-1.04293 -2.4576,-1.95675 -4.08073,-2.56559 -1.62314,-0.60882 -3.48432,-0.91267 -5.3629,-0.69576 -1.23727,0.1218 -2.50568,0.48242 -3.83993,0.9656 -1.33424,0.48317 -2.73452,1.08859 -4.2415,1.64682 -1.40542,0.53646 -2.92615,1.03104 -4.58343,1.303 -1.39935,0.23366 -2.89983,0.26435 -4.4102,-0.0291 -0.22735,-0.0441 -0.45415,-0.0956 -0.68004,-0.15445 -2.23461,-0.62601 -4.09297,-1.90003 -5.54118,-3.37054 -1.51827,-1.52747 -2.66944,-3.19031 -3.70025,-4.75303 -1.10837,-1.66026 -2.10214,-3.21719 -3.21002,-4.50653 0,0 2e-5,-2e-5 2e-5,-2e-5 -0.60821,-0.70035 -1.24249,-1.33867 -1.90214,-1.87619 -0.65967,-0.53752 -1.34476,-0.97427 -2.05326,-1.28672 -1.22509,-0.56067 -2.55381,-0.76403 -3.78598,-0.71267 -1.23219,0.0514 -2.369,0.35745 -3.32425,0.81561 -1.05412,0.50005 -1.90512,1.18479 -2.56668,1.86997 -0.66153,0.68518 -1.13627,1.37312 -1.48557,1.9603 -0.34932,0.58719 -0.57622,1.07583 -0.7472,1.40839 -0.17096,0.33256 -0.28887,0.51029 -0.3807,0.49443 z"
         style="fill:#aaccff;fill-opacity:1;fill-rule:evenodd;stroke:none" />
      <path
         inkscape:export-ydpi="83.480003"
         inkscape:export-xdpi="83.480003"
         inkscape:export-filename="C:\Users\Brayan\Desktop\Sailboat.png"
         style="fill:#aaccff;fill-opacity:1;fill-rule:evenodd;stroke:none"
         d="m 384.46081,-197.51601 c -0.0918,-0.0159 -0.15428,-0.22568 -0.15058,-0.62179 0.004,-0.39615 0.0758,-0.98035 0.30449,-1.7089 0.22869,-0.72856 0.61691,-1.60378 1.26544,-2.51339 0.64854,-0.90959 1.56034,-1.85569 2.80497,-2.62288 1.13268,-0.69281 2.52012,-1.21587 4.07917,-1.40579 1.55905,-0.18989 3.29095,-0.0459 4.99289,0.60372 0.95754,0.37642 1.87448,0.8877 2.73369,1.50864 0.85921,0.62094 1.66063,1.3516 2.3888,2.15139 0,0 0,0 0,0 1.33276,1.45032 2.46967,3.08862 3.59313,4.69701 1.06111,1.50098 2.11919,2.99363 3.39235,4.21662 1.21475,1.15338 2.60968,2.13875 4.13265,2.52022 0.15204,0.0429 0.30703,0.0793 0.46427,0.11063 1.04463,0.20859 2.1712,0.17555 3.28696,0.0155 1.32863,-0.1954 2.65479,-0.61946 3.98518,-1.09131 1.41909,-0.52017 2.86469,-1.10519 4.34869,-1.58058 1.48399,-0.47538 3.0063,-0.84072 4.56479,-0.97316 2.41486,-0.17349 4.6975,0.31219 6.63564,1.17164 1.93813,0.85945 3.53279,2.09155 4.72544,3.45271 0,0 0,0 0,0 1.28035,1.47024 2.07666,3.04891 2.55036,4.48489 0.4737,1.43597 0.62784,2.73249 0.63393,3.77827 0.007,1.04581 -0.1327,1.84498 -0.28159,2.37037 -0.14889,0.52536 -0.30514,0.78035 -0.41428,0.76382 -0.10915,-0.0166 -0.16703,-0.30273 -0.22791,-0.81812 -0.0608,-0.51538 -0.12826,-1.26301 -0.31665,-2.19401 -0.18841,-0.93102 -0.50095,-2.04945 -1.06254,-3.24327 -0.56158,-1.19385 -1.37446,-2.46651 -2.53334,-3.58584 0,0 0,0 0,0 -1.07189,-1.04292 -2.45759,-1.95674 -4.08073,-2.56559 -1.62314,-0.60881 -3.48432,-0.91266 -5.36289,-0.69576 -1.23727,0.12181 -2.50568,0.48243 -3.83994,0.9656 -1.33424,0.48318 -2.73452,1.08859 -4.24149,1.64683 -1.40543,0.53646 -2.92615,1.03103 -4.58344,1.303 -1.39935,0.23366 -2.89982,0.26435 -4.4102,-0.0291 -0.22735,-0.0442 -0.45415,-0.0956 -0.68004,-0.15446 -2.2346,-0.626 -4.09296,-1.90003 -5.54117,-3.37054 -1.51828,-1.52747 -2.66945,-3.19031 -3.70026,-4.75303 -1.10837,-1.66025 -2.10214,-3.21719 -3.21001,-4.50653 0,0 10e-6,-1e-5 10e-6,-1e-5 -0.60821,-0.70035 -1.24249,-1.33867 -1.90214,-1.87619 -0.65966,-0.53752 -1.34475,-0.97427 -2.05326,-1.28672 -1.22509,-0.56067 -2.55381,-0.76404 -3.78598,-0.71268 -1.23219,0.0514 -2.369,0.35746 -3.32425,0.81562 -1.05412,0.50005 -1.90511,1.18479 -2.56668,1.86997 -0.66153,0.68518 -1.13627,1.37312 -1.48557,1.9603 -0.34931,0.58718 -0.57622,1.07582 -0.7472,1.40838 -0.17095,0.33256 -0.28887,0.5103 -0.3807,0.49443 z"
         id="path4094"
         inkscape:connector-curvature="0" />
      <rect
         inkscape:export-ydpi="83.480003"
         inkscape:export-xdpi="83.480003"
         inkscape:export-filename="C:\Users\Brayan\Desktop\Sailboat.png"
         transform="matrix(0,1,-1,0,0,0)"
         ry="6.8250666"
         y="-439.96664"
         x="74.593803"
         height="53.387184"
         width="13.650133"
         id="rect4096"
         style="fill:#ffffff;fill-opacity:1;stroke:none" />
      <path
         inkscape:export-ydpi="83.480003"
         inkscape:export-xdpi="83.480003"
         inkscape:export-filename="C:\Users\brayan.bedritchuk\Desktop\salboat logo2.png"
         inkscape:connector-curvature="0"
         id="path2985"
         d="m 293.44435,-135.00167 -52.15711,90.327618 -52.1438,90.327615 104.3009,0 0,-180.655233 z"
         style="fill:#87b7ff;fill-opacity:1;stroke:none" />
      <path
         inkscape:export-ydpi="83.480003"
         inkscape:export-xdpi="83.480003"
         inkscape:export-filename="C:\Users\brayan.bedritchuk\Desktop\salboat logo2.png"
         style="fill:#aaccff;fill-opacity:1;stroke:none"
         d="m 309.65674,-226.62573 78.60991,136.139647 78.5899,136.139646 -157.19981,0 0,-272.279293 z"
         id="path2992"
         inkscape:connector-curvature="0" />
      <path
         inkscape:export-ydpi="83.480003"
         inkscape:export-xdpi="83.480003"
         inkscape:export-filename="C:\Users\Brayan\Desktop\Sailboat.png"
         inkscape:connector-curvature="0"
         id="rect4614"
         d="m 149.51819,58.817133 34.72764,57.138747 287.50833,0 34.72764,-57.138747 -356.96361,0 z"
         style="fill:#e9c6af;fill-opacity:1;stroke:none" />
    </g>
  </g>
</svg>
