<?xml version="1.0" encoding="UTF-8" standalone="no"?>
<!-- Created with Inkscape (http://www.inkscape.org/) -->

<svg
   xmlns:dc="http://purl.org/dc/elements/1.1/"
   xmlns:cc="http://creativecommons.org/ns#"
   xmlns:rdf="http://www.w3.org/1999/02/22-rdf-syntax-ns#"
   xmlns:svg="http://www.w3.org/2000/svg"
   xmlns="http://www.w3.org/2000/svg"
   xmlns:sodipodi="http://sodipodi.sourceforge.net/DTD/sodipodi-0.dtd"
   xmlns:inkscape="http://www.inkscape.org/namespaces/inkscape"
   width="793.70081"
   height="1122.5197"
   viewBox="0 0 210 297"
   version="1.1"
   id="svg8"
   inkscape:version="0.92.4 (5da689c313, 2019-01-14)"
   sodipodi:docname="2020-04-01-iphone-swimming-pool.svg">
  <defs
     id="defs2">
    <inkscape:path-effect
       effect="skeletal"
       id="path-effect834"
       is_visible="true"
       pattern="M 0,5 C 0,2.24 2.24,0 5,0 7.76,0 10,2.24 10,5 10,7.76 7.76,10 5,10 2.24,10 0,7.76 0,5 Z"
       copytype="single_stretched"
       prop_scale="0.26458333"
       scale_y_rel="false"
       spacing="0"
       normal_offset="0"
       tang_offset="0"
       prop_units="false"
       vertical_pattern="false"
       fuse_tolerance="0" />
  </defs>
  <sodipodi:namedview
     id="base"
     pagecolor="#fffdc2"
     bordercolor="#666666"
     borderopacity="1.0"
     inkscape:pageopacity="1"
     inkscape:pageshadow="2"
     inkscape:zoom="0.5"
     inkscape:cx="-180.02625"
     inkscape:cy="826.81572"
     inkscape:document-units="px"
     inkscape:current-layer="layer1"
     showgrid="false"
     units="px"
     showborder="false"
     inkscape:window-width="1920"
     inkscape:window-height="1017"
     inkscape:window-x="1358"
     inkscape:window-y="44"
     inkscape:window-maximized="1"
     inkscape:snap-global="false"
     inkscape:pagecheckerboard="true"
     inkscape:object-paths="false"
     inkscape:snap-smooth-nodes="true" />
  <metadata
     id="metadata5">
    <rdf:RDF>
      <cc:Work
         rdf:about="">
        <dc:format>image/svg+xml</dc:format>
        <dc:type
           rdf:resource="http://purl.org/dc/dcmitype/StillImage" />
        <dc:title></dc:title>
      </cc:Work>
    </rdf:RDF>
  </metadata>
  <g
     inkscape:label="Layer 1"
     inkscape:groupmode="layer"
     id="layer1">
    <path
       style="opacity:1;vector-effect:none;fill:#e4e4e4;fill-opacity:1;stroke:none;stroke-width:15.30357075;stroke-linecap:round;stroke-linejoin:round;stroke-miterlimit:4;stroke-dasharray:none;stroke-dashoffset:0;stroke-opacity:1"
       d="M -544.17188 139.71875 C -552.01836 139.82976 -559.47122 141.48393 -565.11133 144.74023 L -883.28711 328.43945 L -906.55469 311.67773 L -906.55469 348.57617 C -906.59889 349.15725 -906.59885 349.74245 -906.55469 350.33008 L -906.55469 350.45898 L -906.54297 350.45898 C -906.08035 355.83321 -901.94745 361.3968 -894.28906 365.81836 L -302.0293 707.75977 C -287.14327 716.35418 -264.78033 717.28088 -251.88867 709.83789 L 80.888672 517.70898 C 86.514092 514.46114 89.37631 510.17166 89.582031 505.6543 C 89.582034 505.65424 89.583982 505.65435 89.583984 505.6543 L 89.583984 505.64453 C 89.606925 505.13104 89.586636 504.61388 89.541016 504.0957 L 88.679688 472.86719 L 58.751953 478.05664 L -514.9707 146.81836 C -523.34408 141.984 -534.08352 139.57602 -544.17188 139.71875 z "
       transform="scale(0.26458333)"
       id="path830" />
    <path
       style="opacity:1;vector-effect:none;fill:#ffffff;fill-opacity:1;stroke:none;stroke-width:4.04906988;stroke-linecap:round;stroke-linejoin:round;stroke-miterlimit:4;stroke-dasharray:none;stroke-dashoffset:0;stroke-opacity:1"
       d="m -237.56656,79.401577 88.04773,-50.83438 c 3.41092,-1.969295 9.32768,-1.724036 13.26627,0.54991 L 20.449486,119.58908 c 3.93859,2.27394 4.363395,5.68998 0.952476,7.65928 l -88.047734,50.83438 c -3.410919,1.96929 -9.327674,1.72403 -13.266268,-0.54991 L -236.61408,87.060857 c -3.93859,-2.273945 -4.3634,-5.689985 -0.95248,-7.65928 z"
       id="rect820"
       inkscape:connector-curvature="0"
       sodipodi:nodetypes="sssssssss" />
    <path
       id="path818"
       d="M -225.45329,87.683704 -135.17376,35.560789 0.55744753,113.92523 -89.722088,166.04815 Z"
       style="opacity:1;vector-effect:none;fill:#e2f8fd;fill-opacity:1;stroke:none;stroke-width:6.76880264;stroke-linecap:round;stroke-linejoin:round;stroke-miterlimit:4;stroke-dasharray:none;stroke-dashoffset:0;stroke-opacity:1"
       inkscape:connector-curvature="0" />
    <path
       style="opacity:1;vector-effect:none;fill:#00ccff;fill-opacity:1;stroke:none;stroke-width:6.11710262;stroke-linecap:round;stroke-linejoin:round;stroke-miterlimit:4;stroke-dasharray:none;stroke-dashoffset:0;stroke-opacity:1"
       d="m -214.63514,88.770191 81.34324,-46.963541 123.031199,71.0321 -81.343246,46.96354 z"
       id="rect815"
       inkscape:connector-curvature="0" />
    <ellipse
       style="opacity:1;vector-effect:none;fill:#e4e4e4;fill-opacity:1;stroke:none;stroke-width:2.41561675;stroke-linecap:round;stroke-linejoin:round;stroke-miterlimit:4;stroke-dasharray:none;stroke-dashoffset:0;stroke-opacity:1"
       id="path823"
       cx="-165.72632"
       cy="126.59108"
       rx="5.9946256"
       ry="6.9219975"
       transform="matrix(0.8660254,-0.5,0.8660254,0.5,0,0)" />
    <path
       style="opacity:1;vector-effect:none;fill:#e4e4e4;fill-opacity:1;stroke:none;stroke-width:3.96875;stroke-linecap:round;stroke-linejoin:round;stroke-miterlimit:4;stroke-dasharray:none;stroke-dashoffset:0;stroke-opacity:1"
       d="m -198.19659,62.476094 19.36198,-11.178645 c 0.79337,-0.458055 2.16962,-0.401009 3.08574,0.127914 0.91612,0.528918 1.01493,1.323495 0.22154,1.781555 l -19.36198,11.178645 c -0.79338,0.45806 -2.16962,0.401013 -3.08574,-0.12791 -0.91612,-0.528923 -1.01493,-1.323499 -0.22154,-1.781559 z"
       id="rect825"
       inkscape:connector-curvature="0" />
    <path
       style="fill:#008dc1;stroke:none;stroke-width:0.99999994px;stroke-linecap:butt;stroke-linejoin:miter;stroke-opacity:1;fill-opacity:1"
       d="M -503.78125 158.00977 L -811.21875 335.50977 L -785.95898 350.09375 L -497.01172 183.26953 L -503.78125 158.00977 z "
       transform="scale(0.26458333)"
       id="path843" />
    <path
       style="fill:#79dbff;stroke:none;stroke-width:0.99999994px;stroke-linecap:butt;stroke-linejoin:miter;stroke-opacity:1;fill-opacity:1"
       d="M -503.78125 158.00977 L -497.01172 183.26953 L -57.273438 437.15234 L -38.78125 426.47656 L -503.78125 158.00977 z "
       transform="scale(0.26458333)"
       id="path848" />
    <path
       inkscape:connector-curvature="0"
       id="path853"
       d="m -183.83923,106.55022 60.98223,-35.208118 92.235294,53.252078 -60.982241,35.20811 z"
       style="opacity:1;vector-effect:none;fill:#67e1ff;fill-opacity:1;stroke:none;stroke-width:4.58593225;stroke-linecap:round;stroke-linejoin:round;stroke-miterlimit:4;stroke-dasharray:none;stroke-dashoffset:0;stroke-opacity:1" />
    <path
       style="color:#000000;font-style:normal;font-variant:normal;font-weight:normal;font-stretch:normal;font-size:medium;line-height:normal;font-family:sans-serif;font-variant-ligatures:normal;font-variant-position:normal;font-variant-caps:normal;font-variant-numeric:normal;font-variant-alternates:normal;font-feature-settings:normal;text-indent:0;text-align:start;text-decoration:none;text-decoration-line:none;text-decoration-style:solid;text-decoration-color:#000000;letter-spacing:normal;word-spacing:normal;text-transform:none;writing-mode:lr-tb;direction:ltr;text-orientation:mixed;dominant-baseline:auto;baseline-shift:baseline;text-anchor:start;white-space:normal;shape-padding:0;clip-rule:nonzero;display:inline;overflow:visible;visibility:visible;opacity:1;isolation:auto;mix-blend-mode:normal;color-interpolation:sRGB;color-interpolation-filters:linearRGB;solid-color:#000000;solid-opacity:1;vector-effect:none;fill:#999999;fill-opacity:1;fill-rule:nonzero;stroke:none;stroke-width:1.5688796;stroke-linecap:round;stroke-linejoin:round;stroke-miterlimit:4;stroke-dasharray:none;stroke-dashoffset:0;stroke-opacity:1;color-rendering:auto;image-rendering:auto;shape-rendering:auto;text-rendering:auto;enable-background:accumulate"
       d="m -105.20044,49.241612 c -2.54487,0 -4.61936,2.071896 -4.61936,4.616773 v 4.223514 a 0.78451823,0.78451823 0 0 0 0,0.24443 v 5.064289 a 0.78451823,0.78451823 0 0 0 0,0.243914 v 5.064808 a 0.78451823,0.78451823 0 0 0 0,0.243911 v 2.120284 a 0.78451823,0.78451823 0 1 0 1.56838,0 v -0.877983 l 6.29522,3.634404 v 1.782837 a 0.78451823,0.78451823 0 1 0 1.56838,0 v -2.109949 a 0.78451823,0.78451823 0 0 0 0,-0.243912 v -5.064291 a 0.78451823,0.78451823 0 0 0 0,-0.243912 v -5.064807 a 0.78451823,0.78451823 0 0 0 0,-0.243912 v -4.232301 c 0,-1.702851 1.346061,-3.050977 3.048911,-3.050977 1.702832,0 3.050461,1.348124 3.050461,3.050977 v 4.247803 a 0.78451823,0.78451823 0 1 0 1.568379,0 v -4.247803 c 0,-2.544874 -2.073979,-4.619355 -4.61884,-4.619355 -1.263126,0 -2.409561,0.511976 -3.244251,1.337902 v -1.259871 c 0,-2.544874 -2.07241,-4.616773 -4.61728,-4.616773 z m 0,1.568381 c 1.70285,0 3.04891,1.345539 3.04891,3.048392 v 4.248319 a 0.78451823,0.78451823 0 0 0 0.19533,0.54002 v 2.744017 l -6.29522,-3.634404 v -3.897952 c 0,-1.702853 1.34813,-3.048392 3.05098,-3.048392 z m -3.05098,8.758121 6.29522,3.634404 v 3.496426 l -6.29522,-3.634404 z m 0,5.308719 6.29522,3.634404 v 3.496426 l -6.29522,-3.634404 z"
       id="path869"
       inkscape:connector-curvature="0" />
    <path
       style="color:#000000;font-style:normal;font-variant:normal;font-weight:normal;font-stretch:normal;font-size:medium;line-height:normal;font-family:sans-serif;font-variant-ligatures:normal;font-variant-position:normal;font-variant-caps:normal;font-variant-numeric:normal;font-variant-alternates:normal;font-feature-settings:normal;text-indent:0;text-align:start;text-decoration:none;text-decoration-line:none;text-decoration-style:solid;text-decoration-color:#000000;letter-spacing:normal;word-spacing:normal;text-transform:none;writing-mode:lr-tb;direction:ltr;text-orientation:mixed;dominant-baseline:auto;baseline-shift:baseline;text-anchor:start;white-space:normal;shape-padding:0;clip-rule:nonzero;display:inline;overflow:visible;visibility:visible;opacity:1;isolation:auto;mix-blend-mode:normal;color-interpolation:sRGB;color-interpolation-filters:linearRGB;solid-color:#000000;solid-opacity:1;vector-effect:none;fill:#008dc1;fill-opacity:1;fill-rule:nonzero;stroke:none;stroke-width:5.9296236;stroke-linecap:round;stroke-linejoin:round;stroke-miterlimit:4;stroke-dasharray:none;stroke-dashoffset:0;stroke-opacity:1;color-rendering:auto;image-rendering:auto;shape-rendering:auto;text-rendering:auto;enable-background:accumulate"
       d="M -415.06641 230.58008 L -415.06641 239.58594 A 2.9651083 2.9651083 0 0 0 -415.06641 240.50781 L -415.06641 259.65039 A 2.9651083 2.9651083 0 0 0 -415.06641 260.57227 L -415.06641 268.58594 A 2.9651083 2.9651083 0 1 0 -409.13867 268.58594 L -409.13867 265.26758 L -385.3457 279.00391 L -385.3457 285.74219 A 2.9651083 2.9651083 0 1 0 -379.41797 285.74219 L -379.41797 277.76758 A 2.9651083 2.9651083 0 0 0 -379.41797 276.8457 L -379.41797 257.70508 A 2.9651083 2.9651083 0 0 0 -379.41797 256.7832 L -379.41797 251.16211 L -385.3457 247.74023 L -385.3457 252.08984 L -409.13867 238.35352 L -409.13867 234.00391 L -415.06641 230.58008 z M -409.13867 245.20312 L -385.3457 258.93945 L -385.3457 272.1543 L -409.13867 258.41797 L -409.13867 245.20312 z "
       id="path904"
       transform="scale(0.26458333)" />
    <path
       style="opacity:1;vector-effect:none;fill:#ff76e2;fill-opacity:1;stroke:none;stroke-width:0.47207755;stroke-linecap:round;stroke-linejoin:round;stroke-miterlimit:4;stroke-dasharray:none;stroke-dashoffset:0;stroke-opacity:1"
       d="m -97.2011,88.905863 v 3.12658 c -1.2e-4,2.5902 4.90103,4.68999 10.94693,4.68999 6.04589,0 10.94704,-2.09979 10.94694,-4.68999 v -3.12658 c -6.99277,3.52355 -14.27052,3.75686 -21.89387,0 z m 4.36429,3.12658 h 13.16125 c -1.8032,0.6991 -4.14667,1.08745 -6.57861,1.09018 -2.43333,-0.002 -4.77842,-0.39068 -6.58264,-1.09018 z"
       id="circle916"
       inkscape:connector-curvature="0"
       sodipodi:nodetypes="ccsccccccc" />
    <path
       style="opacity:1;vector-effect:none;fill:#ffd5f6;fill-opacity:1;stroke:none;stroke-width:0.47207755;stroke-linecap:round;stroke-linejoin:round;stroke-miterlimit:4;stroke-dasharray:none;stroke-dashoffset:0;stroke-opacity:1"
       d="m -86.25417,84.215873 a 10.946944,4.6899106 0 0 0 -10.94693,4.68999 10.946944,4.6899106 0 0 0 10.94693,4.68975 10.946944,4.6899106 0 0 0 10.94694,-4.68975 10.946944,4.6899106 0 0 0 -10.94694,-4.68999 z m 0,2.44929 a 5.2302064,2.240735 0 0 1 5.2302,2.2407 5.2302064,2.240735 0 0 1 -5.2302,2.2407 5.2302064,2.240735 0 0 1 -5.23021,-2.2407 5.2302064,2.240735 0 0 1 5.23021,-2.2407 z"
       id="path912"
       inkscape:connector-curvature="0" />
    <path
       style="opacity:1;vector-effect:none;fill:#ff76e2;fill-opacity:1;stroke:none;stroke-width:0.22554816;stroke-linecap:round;stroke-linejoin:round;stroke-miterlimit:4;stroke-dasharray:none;stroke-dashoffset:0;stroke-opacity:1"
       d="m -86.25417,86.665063 a 5.2302065,2.2407352 0 0 0 -5.23021,2.24073 5.2302065,2.2407352 0 0 0 0.21119,0.62604 5.2302065,2.2407352 0 0 1 5.01902,-1.61613 5.2302065,2.2407352 0 0 1 5.01903,1.6147 5.2302065,2.2407352 0 0 0 0.21117,-0.62461 5.2302065,2.2407352 0 0 0 -5.2302,-2.24073 z"
       id="circle918"
       inkscape:connector-curvature="0" />
    <path
       style="color:#000000;font-style:normal;font-variant:normal;font-weight:normal;font-stretch:normal;font-size:medium;line-height:normal;font-family:sans-serif;font-variant-ligatures:normal;font-variant-position:normal;font-variant-caps:normal;font-variant-numeric:normal;font-variant-alternates:normal;font-feature-settings:normal;text-indent:0;text-align:start;text-decoration:none;text-decoration-line:none;text-decoration-style:solid;text-decoration-color:#000000;letter-spacing:normal;word-spacing:normal;text-transform:none;writing-mode:lr-tb;direction:ltr;text-orientation:mixed;dominant-baseline:auto;baseline-shift:baseline;text-anchor:start;white-space:normal;shape-padding:0;clip-rule:nonzero;display:inline;overflow:visible;visibility:visible;opacity:1;isolation:auto;mix-blend-mode:normal;color-interpolation:sRGB;color-interpolation-filters:linearRGB;solid-color:#000000;solid-opacity:1;vector-effect:none;fill:#fff0fc;fill-opacity:1;fill-rule:nonzero;stroke:none;stroke-width:0.60816354;stroke-linecap:round;stroke-linejoin:round;stroke-miterlimit:4;stroke-dasharray:none;stroke-dashoffset:0;stroke-opacity:1;color-rendering:auto;image-rendering:auto;shape-rendering:auto;text-rendering:auto;enable-background:accumulate"
       d="m -78.60888,87.890993 a 0.30411219,0.30411219 0 0 0 -0.27607,0.44424 c 0.0958,0.19077 0.14236,0.37839 0.14236,0.57063 -4e-5,0.36641 -0.17005,0.72854 -0.52668,1.08971 -0.3566,0.36117 -0.89671,0.70631 -1.57815,0.99824 -1.36287,0.58387 -3.28375,0.95619 -5.40672,0.95619 -2.12296,0 -4.04383,-0.37232 -5.40672,-0.95619 -0.68141,-0.29193 -1.22154,-0.63707 -1.57812,-0.99824 -0.3566,-0.36117 -0.52664,-0.7233 -0.52668,-1.08971 0,-0.19223 0.0466,-0.37986 0.14235,-0.57063 a 0.3041704,0.3041704 0 1 0 -0.54377,-0.27272 c -0.133,0.26504 -0.20671,0.55049 -0.20669,0.84335 4e-5,0.5582 0.26758,1.07686 0.702,1.51685 0.43441,0.43999 1.03861,0.81635 1.77151,1.13033 1.46581,0.62795 3.45282,1.00513 5.64618,1.00513 2.19338,0 4.18039,-0.37718 5.64618,-1.00513 0.73292,-0.31398 1.33709,-0.69034 1.77153,-1.13033 0.4344,-0.43999 0.70194,-0.95865 0.70199,-1.51685 0,-0.29285 -0.0737,-0.57831 -0.20668,-0.84335 a 0.30411219,0.30411219 0 0 0 -0.26773,-0.17152 z"
       id="path939"
       inkscape:connector-curvature="0" />
    <path
       sodipodi:nodetypes="ccsccccccc"
       inkscape:connector-curvature="0"
       id="path949"
       d="m -164.14068,89.699613 v 3.12658 c -1.2e-4,2.5902 4.90103,4.68999 10.94693,4.68999 6.04589,0 10.94704,-2.09979 10.94694,-4.68999 v -3.12658 c -6.99277,3.52355 -14.27052,3.75686 -21.89387,0 z m 4.36429,3.12658 h 13.16125 c -1.8032,0.6991 -4.14667,1.08745 -6.57861,1.09018 -2.43333,-0.002 -4.77842,-0.39068 -6.58264,-1.09018 z"
       style="opacity:1;vector-effect:none;fill:#254c88;fill-opacity:1;stroke:none;stroke-width:0.47207755;stroke-linecap:round;stroke-linejoin:round;stroke-miterlimit:4;stroke-dasharray:none;stroke-dashoffset:0;stroke-opacity:1" />
    <path
       inkscape:connector-curvature="0"
       id="path951"
       d="m -153.19375,85.009623 a 10.946944,4.6899106 0 0 0 -10.94693,4.68999 10.946944,4.6899106 0 0 0 10.94693,4.68975 10.946944,4.6899106 0 0 0 10.94694,-4.68975 10.946944,4.6899106 0 0 0 -10.94694,-4.68999 z m 0,2.44929 a 5.2302064,2.240735 0 0 1 5.2302,2.2407 5.2302064,2.240735 0 0 1 -5.2302,2.2407 5.2302064,2.240735 0 0 1 -5.23021,-2.2407 5.2302064,2.240735 0 0 1 5.23021,-2.2407 z"
       style="opacity:1;vector-effect:none;fill:#5f8dd3;fill-opacity:1;stroke:none;stroke-width:0.47207755;stroke-linecap:round;stroke-linejoin:round;stroke-miterlimit:4;stroke-dasharray:none;stroke-dashoffset:0;stroke-opacity:1" />
    <path
       inkscape:connector-curvature="0"
       id="path953"
       d="m -153.19375,87.458813 a 5.2302065,2.2407352 0 0 0 -5.23021,2.24073 5.2302065,2.2407352 0 0 0 0.21119,0.62604 5.2302065,2.2407352 0 0 1 5.01902,-1.61613 5.2302065,2.2407352 0 0 1 5.01903,1.6147 5.2302065,2.2407352 0 0 0 0.21117,-0.62461 5.2302065,2.2407352 0 0 0 -5.2302,-2.24073 z"
       style="opacity:1;vector-effect:none;fill:#254c88;fill-opacity:1;stroke:none;stroke-width:0.22554816;stroke-linecap:round;stroke-linejoin:round;stroke-miterlimit:4;stroke-dasharray:none;stroke-dashoffset:0;stroke-opacity:1" />
    <path
       inkscape:connector-curvature="0"
       id="path955"
       d="m -145.54846,88.684743 a 0.30411219,0.30411219 0 0 0 -0.27607,0.44424 c 0.0958,0.19077 0.14236,0.37839 0.14236,0.57063 -4e-5,0.36641 -0.17005,0.72854 -0.52668,1.08971 -0.3566,0.36117 -0.89671,0.70631 -1.57815,0.99824 -1.36287,0.58387 -3.28375,0.95619 -5.40672,0.95619 -2.12296,0 -4.04383,-0.37232 -5.40672,-0.95619 -0.68141,-0.29193 -1.22154,-0.63707 -1.57812,-0.99824 -0.3566,-0.36117 -0.52664,-0.7233 -0.52668,-1.08971 0,-0.19223 0.0466,-0.37986 0.14235,-0.57063 a 0.3041704,0.3041704 0 1 0 -0.54377,-0.27272 c -0.133,0.26504 -0.20671,0.55049 -0.20669,0.84335 4e-5,0.5582 0.26758,1.07686 0.702,1.51685 0.43441,0.43999 1.03861,0.81635 1.77151,1.13033 1.46581,0.62795 3.45282,1.00513 5.64618,1.00513 2.19338,0 4.18039,-0.37718 5.64618,-1.00513 0.73292,-0.31398 1.33709,-0.69034 1.77153,-1.13033 0.4344,-0.43999 0.70194,-0.95865 0.70199,-1.51685 0,-0.29285 -0.0737,-0.57831 -0.20668,-0.84335 a 0.30411219,0.30411219 0 0 0 -0.26773,-0.17152 z"
       style="color:#000000;font-style:normal;font-variant:normal;font-weight:normal;font-stretch:normal;font-size:medium;line-height:normal;font-family:sans-serif;font-variant-ligatures:normal;font-variant-position:normal;font-variant-caps:normal;font-variant-numeric:normal;font-variant-alternates:normal;font-feature-settings:normal;text-indent:0;text-align:start;text-decoration:none;text-decoration-line:none;text-decoration-style:solid;text-decoration-color:#000000;letter-spacing:normal;word-spacing:normal;text-transform:none;writing-mode:lr-tb;direction:ltr;text-orientation:mixed;dominant-baseline:auto;baseline-shift:baseline;text-anchor:start;white-space:normal;shape-padding:0;clip-rule:nonzero;display:inline;overflow:visible;visibility:visible;opacity:1;isolation:auto;mix-blend-mode:normal;color-interpolation:sRGB;color-interpolation-filters:linearRGB;solid-color:#000000;solid-opacity:1;vector-effect:none;fill:#8caddf;fill-opacity:1;fill-rule:nonzero;stroke:none;stroke-width:0.60816354;stroke-linecap:round;stroke-linejoin:round;stroke-miterlimit:4;stroke-dasharray:none;stroke-dashoffset:0;stroke-opacity:1;color-rendering:auto;image-rendering:auto;shape-rendering:auto;text-rendering:auto;enable-background:accumulate" />
    <g
       id="g1130"
       transform="matrix(1.5824859,0,0,1.5824859,272.053,-95.070515)">
      <path
         inkscape:connector-curvature="0"
         id="path1125"
         d="m -244.44261,126.75541 c -4.76587,0 -8.62996,3.86476 -8.62996,8.63063 0,4.59961 3.59943,8.35898 8.13485,8.61569 6e-4,6e-5 0.001,2.6e-4 0.002,3.5e-4 v -3.5e-4 c 0.16339,0.009 0.32775,0.0144 0.49344,0.0144 4.76587,0 8.63079,-3.86425 8.63079,-8.63012 0,-4.60018 -3.60094,-8.36027 -8.13719,-8.6162 v -1.7e-4 c -2.5e-4,-2e-5 -4.3e-4,1e-5 -6.8e-4,0 -0.16317,-0.009 -0.32748,-0.0143 -0.49294,-0.0143 z"
         style="color:#000000;font-style:normal;font-variant:normal;font-weight:normal;font-stretch:normal;font-size:medium;line-height:normal;font-family:sans-serif;font-variant-ligatures:normal;font-variant-position:normal;font-variant-caps:normal;font-variant-numeric:normal;font-variant-alternates:normal;font-feature-settings:normal;text-indent:0;text-align:start;text-decoration:none;text-decoration-line:none;text-decoration-style:solid;text-decoration-color:#000000;letter-spacing:normal;word-spacing:normal;text-transform:none;writing-mode:lr-tb;direction:ltr;text-orientation:mixed;dominant-baseline:auto;baseline-shift:baseline;text-anchor:start;white-space:normal;shape-padding:0;clip-rule:nonzero;display:inline;overflow:visible;visibility:visible;opacity:1;isolation:auto;mix-blend-mode:normal;color-interpolation:sRGB;color-interpolation-filters:linearRGB;solid-color:#000000;solid-opacity:1;vector-effect:none;fill:#ffffff;fill-opacity:1;fill-rule:nonzero;stroke:none;stroke-width:0.08587351;stroke-linecap:butt;stroke-linejoin:miter;stroke-miterlimit:4;stroke-dasharray:none;stroke-dashoffset:0;stroke-opacity:1;color-rendering:auto;image-rendering:auto;shape-rendering:auto;text-rendering:auto;enable-background:accumulate" />
      <path
         inkscape:connector-curvature="0"
         id="path1123"
         d="m -244.44261,126.84162 c -1.26275,0 -2.46121,0.27412 -3.53977,0.76565 0.008,-2.5e-4 0.0164,-0.001 0.0248,-0.002 0.25112,-0.002 0.53262,0.0807 0.83424,0.23565 0.35079,0.1802 0.73154,0.46019 1.13078,0.82419 0.45213,-0.22658 0.98287,-0.35708 1.54992,-0.35708 0.0564,0 0.11229,0.002 0.16789,0.004 0.0145,-0.12462 0.0291,-0.25666 0.0431,-0.36681 0.0469,-0.36916 0.0909,-0.65525 0.13132,-0.85035 0.0202,-0.0975 0.0394,-0.17235 0.0585,-0.22508 0.003,-0.007 0.005,-0.0127 0.008,-0.019 -0.13541,-0.006 -0.27158,-0.01 -0.40857,-0.01 z m 4.01509,1.28743 c -0.32243,0.01 -0.68906,0.10102 -1.09053,0.27088 -0.30263,0.12804 -0.62439,0.3009 -0.96037,0.51624 0.43934,0.31653 0.76495,0.73738 0.91811,1.21682 0.007,1e-4 0.0138,9e-5 0.0206,1.7e-4 1.40034,0.0216 2.61052,0.29094 3.5354,0.76263 0.63177,0.3222 1.13074,0.73963 1.46422,1.23628 -0.63496,-1.5406 -1.70706,-2.8545 -3.0621,-3.78766 l -1.7e-4,1.7e-4 c -0.22453,-0.15433 -0.50276,-0.22548 -0.82519,-0.21553 z m -7.73415,1.71362 c -0.10008,-5.4e-4 -0.19892,7e-4 -0.29653,0.004 -1.75025,0.0536 -3.09904,0.64837 -3.64728,1.7599 l -0.001,-6.7e-4 c -0.56322,1.13978 -0.88021,2.4229 -0.88021,3.78045 0,0.58267 0.0587,1.15164 0.16974,1.70154 5e-5,-0.59861 0.18181,-1.22369 0.52715,-1.8436 0.50525,-0.90698 1.35947,-1.80456 2.51029,-2.60271 0.73862,-0.51227 1.56356,-0.95811 2.43566,-1.32651 -0.0507,-0.17905 -0.0783,-0.3655 -0.0783,-0.55751 0,-0.30454 0.0677,-0.59547 0.19087,-0.86393 -0.31886,-0.0317 -0.62979,-0.049 -0.93002,-0.0506 z m 6.46114,1.87563 c -0.23464,0.45194 -0.63006,0.83297 -1.12608,1.09656 0.25438,0.43571 0.50408,0.89004 0.74569,1.36207 1.08208,2.11401 1.80168,4.16106 2.09032,5.7656 0.14431,0.80227 0.18175,1.49366 0.10063,2.03011 -0.0523,0.34559 -0.15467,0.62833 -0.31096,0.8324 1.47199,-0.84332 2.6686,-2.11224 3.42287,-3.63889 l -10e-4,-6.7e-4 c 0.54823,-1.11153 0.1993,-2.54365 -0.82352,-3.96494 -0.90068,-1.25159 -2.32256,-2.48988 -4.09761,-3.48224 z m -4.61989,0.94075 c -1.13309,1.47981 -2.11774,3.14201 -2.77429,4.72824 -0.51806,1.25167 -0.79267,2.36034 -0.82217,3.23167 -0.0295,0.87133 0.1856,1.49988 0.63466,1.80854 l -3.3e-4,5e-4 c 0.21087,0.1452 0.42845,0.28123 0.65243,0.4074 l 5.1e-4,-8.4e-4 c 1.09502,0.61555 2.34287,0.96335 3.61071,1.04423 -0.0119,-0.0537 -0.022,-0.12459 -0.0304,-0.2177 -0.0179,-0.19844 -0.0287,-0.48764 -0.0332,-0.85974 -0.009,-0.74421 0.009,-1.81918 0.0538,-3.14763 0.0676,-1.98209 0.18908,-4.30419 0.33494,-6.45628 -0.61323,-0.0421 -1.17464,-0.2366 -1.62673,-0.53839 z"
         style="color:#000000;font-style:normal;font-variant:normal;font-weight:normal;font-stretch:normal;font-size:medium;line-height:normal;font-family:sans-serif;font-variant-ligatures:normal;font-variant-position:normal;font-variant-caps:normal;font-variant-numeric:normal;font-variant-alternates:normal;font-feature-settings:normal;text-indent:0;text-align:start;text-decoration:none;text-decoration-line:none;text-decoration-style:solid;text-decoration-color:#000000;letter-spacing:normal;word-spacing:normal;text-transform:none;writing-mode:lr-tb;direction:ltr;text-orientation:mixed;dominant-baseline:auto;baseline-shift:baseline;text-anchor:start;white-space:normal;shape-padding:0;clip-rule:nonzero;display:inline;overflow:visible;visibility:visible;opacity:1;isolation:auto;mix-blend-mode:normal;color-interpolation:sRGB;color-interpolation-filters:linearRGB;solid-color:#000000;solid-opacity:1;vector-effect:none;fill:#ff8080;fill-opacity:1;fill-rule:nonzero;stroke:none;stroke-width:0.08587351;stroke-linecap:butt;stroke-linejoin:miter;stroke-miterlimit:4;stroke-dasharray:none;stroke-dashoffset:0;stroke-opacity:1;color-rendering:auto;image-rendering:auto;shape-rendering:auto;text-rendering:auto;enable-background:accumulate" />
    </g>
  </g>
</svg>
