<?xml version="1.0" encoding="UTF-8" standalone="no"?>
<!-- Created with Inkscape (http://www.inkscape.org/) -->

<svg
   xmlns:dc="http://purl.org/dc/elements/1.1/"
   xmlns:cc="http://creativecommons.org/ns#"
   xmlns:rdf="http://www.w3.org/1999/02/22-rdf-syntax-ns#"
   xmlns:svg="http://www.w3.org/2000/svg"
   xmlns="http://www.w3.org/2000/svg"
   xmlns:sodipodi="http://sodipodi.sourceforge.net/DTD/sodipodi-0.dtd"
   xmlns:inkscape="http://www.inkscape.org/namespaces/inkscape"
   width="1754.1282"
   height="982.84955"
   viewBox="0 0 464.11307 260.04562"
   version="1.1"
   id="svg8"
   inkscape:version="0.92.4 (5da689c313, 2019-01-14)"
   sodipodi:docname="2020-01-13-repeat-object-around-shape.svg">
  <defs
     id="defs2">
    <inkscape:path-effect
       effect="skeletal"
       id="path-effect992"
       is_visible="true"
       pattern="m -49.045272,320.78205 a 9.1428734,9.1428734 0 0 1 7.156426,4.5293 9.1428734,9.1428734 0 0 1 0.354908,8.45546 9.1428734,9.1428734 0 0 1 -7.156381,-4.52864 9.1428734,9.1428734 0 0 1 -0.354953,-8.45612 z"
       copytype="repeated_stretched"
       prop_scale="1"
       scale_y_rel="false"
       spacing="2"
       normal_offset="0"
       tang_offset="0"
       prop_units="false"
       vertical_pattern="false"
       fuse_tolerance="0" />
    <inkscape:path-effect
       effect="skeletal"
       id="path-effect971"
       is_visible="true"
       pattern="m -49.045272,320.78205 a 9.1428734,9.1428734 0 0 1 7.156426,4.5293 9.1428734,9.1428734 0 0 1 0.354908,8.45546 9.1428734,9.1428734 0 0 1 -7.156381,-4.52864 9.1428734,9.1428734 0 0 1 -0.354953,-8.45612 z"
       copytype="repeated_stretched"
       prop_scale="1"
       scale_y_rel="false"
       spacing="2"
       normal_offset="0"
       tang_offset="0"
       prop_units="false"
       vertical_pattern="false"
       fuse_tolerance="0" />
    <inkscape:path-effect
       effect="skeletal"
       id="path-effect947"
       is_visible="true"
       pattern="#path851"
       copytype="repeated_stretched"
       prop_scale="1"
       scale_y_rel="false"
       spacing="0"
       normal_offset="0"
       tang_offset="0"
       prop_units="false"
       vertical_pattern="false"
       fuse_tolerance="0" />
    <inkscape:path-effect
       effect="skeletal"
       id="path-effect827"
       is_visible="true"
       pattern="#path851"
       copytype="repeated_stretched"
       prop_scale="1"
       scale_y_rel="false"
       spacing="0"
       normal_offset="0"
       tang_offset="0"
       prop_units="false"
       vertical_pattern="false"
       fuse_tolerance="0" />
  </defs>
  <sodipodi:namedview
     id="base"
     pagecolor="#ffffff"
     bordercolor="#666666"
     borderopacity="1.0"
     inkscape:pageopacity="0.0"
     inkscape:pageshadow="2"
     inkscape:zoom="0.35355339"
     inkscape:cx="742.2723"
     inkscape:cy="508.18868"
     inkscape:document-units="px"
     inkscape:current-layer="layer1"
     showgrid="false"
     units="px"
     showborder="true"
     inkscape:window-width="1920"
     inkscape:window-height="1017"
     inkscape:window-x="1358"
     inkscape:window-y="-8"
     inkscape:window-maximized="1"
     inkscape:object-paths="true"
     inkscape:snap-intersection-paths="true"
     inkscape:snap-smooth-nodes="true"
     inkscape:snap-global="false"
     fit-margin-top="0"
     fit-margin-left="0"
     fit-margin-right="0"
     fit-margin-bottom="0" />
  <metadata
     id="metadata5">
    <rdf:RDF>
      <cc:Work
         rdf:about="">
        <dc:format>image/svg+xml</dc:format>
        <dc:type
           rdf:resource="http://purl.org/dc/dcmitype/StillImage" />
        <dc:title></dc:title>
      </cc:Work>
    </rdf:RDF>
  </metadata>
  <g
     inkscape:label="Layer 1"
     inkscape:groupmode="layer"
     id="layer1"
     transform="translate(8.2451973,-71.756257)">
    <path
       id="path851"
       style="fill:none;stroke:#333333;stroke-width:2.64583325;stroke-linecap:butt;stroke-linejoin:miter;stroke-miterlimit:4;stroke-dasharray:none;stroke-opacity:1"
       d="M -8.2451973,100.72809 H 21.662789 M 5.4255714,128.02443 v -6.92228 h 8.9802556 v 14.21874 H -1.122532 v -20.39266 h 21.702285 v 27.12786 H -6.9222807 V 107.81886 H 20.953931 m -29.1991283,41.328 H 21.662789"
       inkscape:connector-curvature="0" />
    <path
       style="opacity:1;vector-effect:none;fill:#333333;fill-opacity:1;stroke:none;stroke-width:1.32291663;stroke-linecap:round;stroke-linejoin:round;stroke-miterlimit:4;stroke-dasharray:none;stroke-dashoffset:0;stroke-opacity:1"
       d="m 170.25938,121.05207 c -0.58193,16.23636 -5.99361,31.0407 -14.87595,43.05392 m -14.46815,-30.15053 6.50442,2.11344 c -1.02367,3.15703 -2.34647,6.20924 -3.93159,9.11985 l -12.37252,-6.76871 c 2.07462,-3.73061 3.53243,-7.71704 4.18322,-11.76907 l 19.89074,3.38334 c -1.57336,8.94528 -5.1925,17.293 -10.33813,24.52385 l -21.9375,-15.72605 c 3.81896,-5.21289 6.18936,-11.21649 6.05444,-16.95403 l 34.11924,1.09353 c -0.75374,13.43481 -5.38177,25.84264 -12.7836,36.12298 m -28.46338,-38.04252 c 0.58193,4.48855 -1.5491,9.66187 -5.03399,14.16086 m 38.5768,28.89306 c -8.88234,12.01323 -21.23534,21.23533 -35.69991,26.30723 m 4.64679,-33.06262 4.26736,5.41421 c -2.60801,2.05081 -5.39261,3.87427 -8.31701,5.4336 l -6.65758,-12.42877 c 3.74495,-2.03951 7.23947,-4.70121 10.29333,-7.7949 l 14.47166,14.27838 c -6.22574,6.31205 -13.78163,11.3109 -22.14839,14.47728 l -9.56505,-25.0559 c 5.71974,-2.24337 11.14015,-6.42667 15.20446,-11.49313 l 26.76267,21.12676 c -7.80032,9.96438 -18.29423,17.72106 -30.38124,22.16956 m -1.45389,-48.26476 c -3.4849,4.49899 -8.32366,8.32366 -13.15721,10.11491 m 16.0341,45.08538 c -7.23227,2.53595 -14.99244,4.03435 -23.110607,4.32531 -8.118194,-0.29096 -15.878381,-1.78937 -23.110673,-4.32533 m 24.346647,-22.98143 0.214511,6.89919 c -0.482427,0.0183 -0.965957,0.0296 -1.450484,0.0335 -2.906347,-0.0237 -5.776842,-0.30834 -8.588318,-0.83069 l 2.540047,-13.83134 c 2.005966,0.35204 4.029778,0.50753 6.048272,0.4433 2.053699,0.0654 4.112905,-0.0967 6.153215,-0.4619 l 3.70336,19.82422 c -3.21364,0.61576 -6.507298,0.96734 -9.856577,1.03033 -5.932316,-0.11158 -11.690139,-1.12851 -17.137885,-2.9152 l 8.39267,-25.45525 c 2.905295,0.97405 5.865562,1.43344 8.745217,1.2426 2.829845,0.18754 5.737535,-0.25286 8.594405,-1.19252 l 10.42534,32.17922 c -6.02107,1.93658 -12.40387,3.06298 -19.019747,3.25052 -6.913932,-0.19599 -13.57332,-1.41734 -19.831307,-3.51718 m 26.907814,-38.80274 c -2.41677,0.89562 -4.832231,1.28289 -7.076505,0.99193 -2.244281,0.29096 -4.659753,-0.0963 -7.076529,-0.99194 M 73.46224,190.4132 C 58.997678,185.34128 46.644688,176.11916 37.76236,164.10593 m 33.054985,-5.25228 -3.990803,5.61286 c -2.705936,-1.91786 -5.245793,-4.07358 -7.582781,-6.43037 l 10.064961,-9.98126 c 3.061466,3.0862 6.561945,5.73878 10.311214,7.76752 l -9.499519,17.84984 c -7.875215,-4.1461 -14.795046,-9.98017 -20.24021,-16.98292 l 21.28047,-16.64075 c 4.04057,5.08178 9.446461,9.28963 15.1609,11.56677 L 74.088815,183.17889 C 62.072534,178.58516 51.673592,170.7075 43.992483,160.64639 M 89.496386,145.32783 C 84.662841,143.53657 79.824078,139.7119 76.339188,135.21291 M 37.76236,164.10593 C 28.880045,152.09272 23.468381,137.28841 22.886448,121.05207 l 4.9e-5,-3e-5 m 30.173385,15.22909 -6.383675,2.4679 c -1.191633,-3.09411 -2.094657,-6.30355 -2.672277,-9.59152 l 13.860154,-2.40146 c 0.664723,4.05088 2.134834,8.03452 4.220107,11.76069 l -17.719952,9.75614 c -4.255776,-7.81227 -6.840544,-16.59689 -7.235023,-25.83456 l 27.052358,-0.71035 c -0.178711,5.73282 2.157119,11.74092 5.950717,16.96753 L 42.356696,158.41209 C 35.077614,148.03854 30.596575,135.56175 30.014072,122.08223 m 46.325116,13.13068 c -3.484885,-4.49899 -5.615902,-9.67229 -5.03397,-14.16084 l 1.7e-5,-3e-5 m -48.418784,-5e-5 c 0.58195,-16.23636 5.993645,-31.040691 14.875997,-43.053904 m 14.468118,30.150544 -6.504413,-2.11345 c 1.023672,-3.15702 2.346469,-6.209232 3.931599,-9.119839 l 12.372514,6.768729 c -2.074627,3.7306 -3.532446,7.71703 -4.183235,11.76906 l -19.890742,-3.38336 c 1.573372,-8.94528 5.192517,-17.292991 10.338154,-24.523844 L 70.231931,103.272 c -3.818959,5.21289 -6.18937,11.21649 -6.054462,16.95403 l -34.119231,-1.09357 c 0.75375,-13.43481 5.381792,-25.842631 12.78363,-36.12297 m 28.463347,38.04256 c -0.581924,-4.48856 1.549108,-9.66188 5.034007,-14.16087 M 37.762448,77.998086 C 46.6448,65.984874 58.997808,56.762779 73.462384,51.69089 m -4.646825,33.062615 -4.26735,-5.414214 c 2.608008,-2.050804 5.392609,-3.874264 8.31701,-5.433588 l 6.657568,12.428776 c -3.744954,2.039504 -7.239475,4.701208 -10.293339,7.794889 L 54.757809,79.850975 C 60.983552,73.538932 68.539445,68.540086 76.906207,65.373718 l 9.565031,25.055908 c -5.719744,2.243365 -11.14016,6.426662 -15.204477,11.493114 L 44.50411,80.795955 C 52.304442,70.831588 62.798361,63.074913 74.885372,58.626423 m 1.45385,48.264757 c 3.4849,-4.49898 8.323667,-8.323645 13.157212,-10.114887 M 73.462384,51.69089 c 7.232251,-2.535931 14.992388,-4.034321 23.110529,-4.325286 8.118227,0.290968 15.878437,1.789384 23.110747,4.325362 m -24.346667,22.9814 -0.214503,-6.899192 c 0.482407,-0.01835 0.965917,-0.02956 1.450424,-0.03351 2.906367,0.02373 5.776886,0.30835 8.588376,0.830704 l -2.54006,13.831339 c -2.00598,-0.352048 -4.029808,-0.507538 -6.048315,-0.443303 -2.053686,-0.06535 -4.112878,0.09674 -6.153177,0.461889 L 86.716404,62.596071 c 3.213617,-0.615752 6.507254,-0.967328 9.856509,-1.030327 5.932337,0.111586 11.690187,1.128522 17.137947,2.915221 l -8.39269,25.455245 c -2.90531,-0.974054 -5.865589,-1.433451 -8.745255,-1.242606 -2.829834,-0.187542 -5.737516,0.252848 -8.594376,1.192503 L 77.553242,57.706879 c 6.021043,-1.936572 12.403822,-3.062963 19.019671,-3.250505 6.913957,0.195992 13.573367,1.417348 19.831377,3.517211 M 89.496434,96.776293 c 2.41676,-0.895617 4.832215,-1.282884 7.076481,-0.991919 2.244289,-0.290969 4.659775,0.09631 7.076555,0.991945 m 16.03419,-45.085353 c 14.46456,5.071929 26.81754,14.294058 35.69986,26.307299 m -33.05499,5.252252 3.99081,-5.612853 c 2.70593,1.917863 5.24578,4.073584 7.58277,6.430371 l -10.06497,9.981252 c -3.06146,-3.086204 -6.56194,-5.738786 -10.31121,-7.767525 l 9.49954,-17.849837 c 7.87521,4.146112 14.79503,9.980184 20.24019,16.982937 L 121.98518,102.0556 c -4.04057,-5.081791 -9.44646,-9.289646 -15.16089,-11.566793 l 12.23279,-31.563532 c 12.01628,4.593737 22.41521,12.471411 30.09631,22.532529 m -45.50392,15.318515 c 4.83355,1.791263 9.67231,5.615941 13.15719,10.114931 m 38.57686,-28.892985 c 8.88231,12.01324 14.29397,26.817595 14.87587,43.053965 m -30.17342,-15.22918 6.38368,-2.46789 c 1.19163,3.09411 2.09465,6.30355 2.67226,9.59153 l -13.86015,2.40144 c -0.66472,-4.05088 -2.13483,-8.03452 -4.2201,-11.76069 l 17.71996,-9.75613 c 4.25577,7.81228 6.84053,16.5969 7.235,25.83457 l -27.05236,0.71032 c 0.17872,-5.73282 -2.1571,-11.74092 -5.9507,-16.96753 l 27.77562,-19.716562 c 7.27907,10.373555 11.76009,22.850342 12.34258,36.329872 m -46.3251,-13.13073 c 3.48489,4.499 5.6159,9.67231 5.03395,14.16086"
       id="path824"
       inkscape:path-effect="#path-effect827"
       inkscape:original-d="M 146.05,121.05207 A 49.477081,49.477081 0 0 1 96.572914,170.52915 49.477081,49.477081 0 0 1 47.095833,121.05207 49.477081,49.477081 0 0 1 96.572914,71.574989 49.477081,49.477081 0 0 1 146.05,121.05207 Z"
       inkscape:connector-curvature="0"
       transform="translate(12.270042,24.390653)" />
    <path
       style="fill:none;stroke:#333333;stroke-width:1.32291663;stroke-linecap:butt;stroke-linejoin:miter;stroke-miterlimit:4;stroke-dasharray:none;stroke-opacity:1"
       d="m 93.808587,225.83984 c 9.008703,-9.10384 20.112733,-16.85515 33.044483,-22.17247 m -3.59119,32.90434 -4.00988,-5.64629 c 2.6059,-1.84699 5.32434,-3.54365 8.14808,-5.06068 l 6.72324,12.5007 c -3.93163,2.12228 -7.68476,4.74788 -11.22193,7.72543 l -13.14808,-15.62815 c 6.30332,-5.30073 13.41042,-9.8195 21.21904,-13.14309 l 10.53953,24.95944 c -6.31532,2.6098 -12.32,6.93701 -17.80596,12.14073 L 99.93867,229.74925 c 8.05283,-7.84046 17.69657,-14.51858 28.71453,-19.15867 m -0.74095,49.61956 c 5.37962,-5.17286 11.13232,-9.4194 16.99047,-11.65814 m -18.04965,-44.88463 c 0.67504,-0.27757 1.35506,-0.54851 2.04003,-0.81265 0,0 0,0 0,0 12.3471,-4.491 25.01256,-6.25158 37.19536,-5.72319 0.20028,0.009 0.40033,0.0182 0.60016,0.028 m -16.94445,28.23499 -1.17877,-6.81733 c 3.15859,-0.54848 6.34703,-0.89332 9.53857,-1.04927 l 0.69222,14.21499 c -4.56182,0.21965 -9.04572,0.87945 -13.31331,2.05564 l -5.4054,-19.63578 c 8.1577,-2.24379 16.54548,-3.12972 24.78556,-2.86598 l -0.79468,27.12175 c -7.32939,-0.16684 -14.48787,0.74763 -20.72645,3.15617 -0.0552,0.0197 -0.11042,0.0395 -0.16559,0.0594 l -12.09216,-32.02532 c 0.0959,-0.0371 0.19188,-0.074 0.28796,-0.11079 11.22468,-4.10698 22.8707,-5.7278 34.15781,-5.29248 M 144.90272,248.552 c 0.3058,-0.11686 0.61189,-0.22826 0.91822,-0.33402 5.35591,-2.1151 11.78426,-2.86814 18.48405,-2.70053 l 0,0 c 0.11539,0.003 0.23095,0.006 0.34668,0.009 m 2.03695,-48.36736 c 12.16155,0.59417 23.47168,2.80871 33.81585,5.76405 0.56233,0.15762 1.12275,0.31679 1.6813,0.47744 m -23.26047,22.53052 1.20203,-6.81732 c 3.08958,0.54259 6.15058,1.19697 9.17936,1.93524 l -3.36912,13.82861 c -4.79362,-1.16621 -9.55362,-2.0985 -14.26121,-2.65261 l 2.36404,-20.23527 c 7.82106,0.90827 15.39137,2.56985 22.6628,4.61529 0.15668,0.0437 0.31326,0.0876 0.46974,0.13157 l -7.32077,26.12008 c -0.13699,-0.0381 -0.27395,-0.0761 -0.41089,-0.11383 -8.10025,-2.19563 -15.9328,-3.86716 -23.39839,-4.25243 l 1.93987,-34.16244 c 10.82308,0.65322 21.06403,2.71632 30.62356,5.42714 0.29421,0.0823 0.58798,0.16502 0.88131,0.24825 m -34.83596,35.52307 c 7.04331,0.21463 14.71199,1.85728 22.89147,4.04839 0.44367,0.12189 0.88808,0.24605 1.33327,0.37241 m 13.30936,-46.54667 c 10.53076,3.02881 20.39293,6.5811 29.74291,10.08184 0.27852,0.1035 0.55666,0.20697 0.83441,0.31039 m -24.98751,19.99465 2.24464,-6.54849 c 2.90936,0.99668 5.79977,2.02784 8.67585,3.07649 l -4.8716,13.36221 c -4.86857,-1.77459 -9.70083,-3.47536 -14.52068,-5.01445 l 6.19609,-19.42336 c 7.26321,2.31489 14.32897,4.88528 21.2625,7.47132 l -9.46105,25.42508 c -8.64546,-3.20418 -17.02966,-6.25442 -25.28533,-8.66261 l 9.61347,-32.85212 c 9.70659,2.84814 18.93639,6.18351 27.82538,9.50613 0.0491,0.0183 0.0983,0.0365 0.14738,0.0548 m -40.72582,29.76479 c 8.39353,2.38231 17.06137,5.54454 26.15992,8.91166 0.26875,0.10023 0.53782,0.20067 0.80723,0.30131 m 16.91953,-45.36741 c 9.64103,3.58977 18.82572,7.12371 27.73857,10.06678 m -24.24804,20.375 2.39944,-6.49344 c 2.84292,1.05072 5.68463,2.0855 8.53011,3.08986 l -4.7316,13.40671 c -5.07286,-1.78984 -10.06698,-3.64738 -15.00817,-5.49772 l 7.15227,-19.09951 c 6.87037,2.57278 13.65518,5.09443 20.4249,7.36055 l -8.61921,25.72053 c -9.27558,-3.11374 -18.17172,-6.49866 -26.83189,-9.73874 l 11.9876,-32.07175 c 8.91947,3.33069 17.558,6.62969 26.06497,9.46378 m -41.77848,28.78536 c 9.35097,3.49319 19.09764,7.22436 29.42448,10.65848 M 260.50166,223.86 c 0.10259,0.0339 0.20515,0.0677 0.30766,0.10139 8.83299,2.86782 17.231,5.27835 25.23797,6.48053 m -20.66226,23.41142 1.80261,-6.68516 c 2.87987,0.77772 5.76842,1.48476 8.66687,2.10006 l -2.94861,13.90112 c -5.50322,-1.16495 -10.8788,-2.59844 -16.13311,-4.19164 l 5.92111,-19.52732 c 6.75154,2.04723 13.46533,3.76644 20.15878,4.86051 l -4.41885,26.75685 c -10.40581,-1.74308 -20.25763,-4.45574 -29.59084,-7.53334 l 10.63876,-32.54869 c 8.50045,2.75109 16.773,5.08272 24.8545,6.36525 m -39.06821,32.46813 c 0.11887,0.0395 0.23781,0.079 0.35683,0.11847 10.19232,3.41563 21.15967,6.44479 32.94599,8.33642 m 7.47643,-47.83208 c 0.15171,0.0228 0.30327,0.0451 0.45469,0.067 l 10e-6,0 c 7.71391,1.07571 15.03111,1.38372 21.44353,0.15568 0.10447,-0.0173 0.20893,-0.0351 0.31339,-0.0532 m -12.18327,28.11239 0.16306,-6.92225 c 2.91819,0.0712 5.82728,1.5e-4 8.71198,-0.23618 l 1.16186,14.15297 c -5.91314,0.48771 -11.79153,0.40992 -17.55608,-0.11379 l 1.85027,-20.33207 c 6.6341,0.6049 13.18882,0.5383 19.44833,-0.5262 l 4.41921,26.75802 c -11.34738,1.8075 -22.5243,1.58624 -33.09151,4.9e-4 l 4.91245,-33.89275 c 7.99133,1.1034 15.77334,1.35759 22.88859,0.0708 M 278.57086,278.274 c 0.22331,0.0358 0.44691,0.0713 0.67081,0.10629 l 0,0 c 11.63003,1.85804 24.13096,2.11015 36.99473,-0.012 0.21535,-0.0383 0.43049,-0.0772 0.64542,-0.11685 m -8.62291,-47.64004 c 6.52269,-1.13395 13.02656,-3.87417 18.80896,-7.71519 m -0.034,30.62623 -2.51299,-6.4476 c 2.68783,-1.04848 5.31448,-2.2634 7.86091,-3.63107 l 6.72793,12.52927 c -5.26903,2.82796 -10.84163,5.1106 -16.61946,6.77717 l -5.64973,-19.5807 c 6.08406,-1.75619 11.94578,-4.46757 17.31671,-7.94101 l 14.74889,22.77069 c -9.56071,6.20428 -20.29097,10.65466 -31.64443,12.95807 l -6.74123,-33.55603 c 7.00858,-1.38512 13.8714,-4.28862 20.0195,-8.3012 m -13.65813,49.15141 c 13.42071,-2.47583 26.0176,-7.67693 37.08803,-15.0978"
       id="path873"
       inkscape:connector-curvature="0"
       sodipodi:nodetypes="cc"
       inkscape:path-effect="#path-effect947"
       inkscape:original-d="m 110.86042,243.02499 c 68.55057,-68.01878 155.22222,49.74167 229.65833,0"
       transform="translate(-45.24375,38.89375)" />
    <g
       id="g1011"
       transform="translate(357.1875,-73.025)">
      <path
         d="m 97.805089,358.56142 c 0.444092,-3.49841 -0.978059,-6.70746 -3.526799,-8.39619 -2.551517,-1.68351 -5.732493,-1.59618 -8.426222,-0.55384 0.227114,2.51461 1.591674,5.11777 3.814276,6.99837 2.232054,1.8814 5.21321,2.88015 8.138745,1.95166 z m -3.99039,12.25206 c 1.223964,-3.26366 0.598301,-6.68281 -1.427264,-8.92938 -2.029499,-2.24229 -5.071999,-2.97458 -7.932367,-2.63805 -0.463488,2.50668 0.189773,5.36814 1.905212,7.73846 1.720159,2.36742 4.402119,4.02657 7.454419,3.82897 z m -6.60505,10.98799 c 1.899606,-2.91047 2.039325,-6.37971 0.571632,-9.03599 -1.472253,-2.65256 -4.26162,-4.08645 -7.147339,-4.40494 -1.059987,2.37701 -1.06666,5.34339 0.09681,8.052 1.167992,2.70503 3.446184,4.90631 6.478899,5.38893 z m -8.805419,9.30963 c 2.473129,-2.43928 3.342905,-5.79771 2.469892,-8.71602 -0.878201,-2.91536 -3.302936,-4.93076 -6.071138,-5.8545 -1.557484,2.12523 -2.182526,5.04387 -1.610938,7.93898 0.577007,2.89378 2.343951,5.51985 5.212184,6.63154 z m -10.591494,7.21697 c 2.945879,-1.84893 4.507695,-4.93796 4.267515,-7.96946 -0.245926,-3.0304 -2.197363,-5.5078 -4.703764,-6.98675 -1.952928,1.75329 -3.160874,4.46765 -3.218025,7.3994 -0.05166,2.93427 1.094289,5.86658 3.654274,7.55681 z m -11.963274,4.71002 c 3.317856,-1.13755 5.533691,-3.80234 5.9645,-6.79631 0.425328,-2.99659 -0.945657,-5.81869 -3.045218,-7.80169 -2.245315,1.2644 -4.002706,3.61151 -4.724451,6.43326 -0.717636,2.82787 -0.303189,5.94515 1.805169,8.16474 z M 42.9287,404.82686 c 3.587337,-0.30358 6.422621,-2.3924 7.560848,-5.19658 1.135247,-2.81227 0.452495,-5.86503 -1.095499,-8.2993 -2.436668,0.66248 -4.706003,2.47154 -6.130218,5.04056 -0.143906,0.26074 -0.278092,0.5283 -0.401332,0.8017 -1.071244,2.38236 -1.27721,5.11484 0,7.53274 0.02166,0.0404 0.04373,0.0807 0.0662,0.12088 z m -12.928218,-1.75579 c 3.450927,0.64895 6.727296,-0.57139 8.569481,-2.99247 1.837247,-2.42425 1.965652,-5.58148 1.104643,-8.33006 -2.523864,0.046 -5.206328,1.22725 -7.223379,3.32757 -2.016741,2.10793 -3.19184,5.02394 -2.450745,7.99496 z m -11.97488,-4.6829 c 3.186413,1.40256 6.633193,0.97133 8.996029,-0.9181 2.358707,-1.89355 3.277602,-4.8834 3.109521,-7.76341 -2.485751,-0.62165 -5.387673,-0.13776 -7.856837,1.44367 -2.465774,1.58583 -4.271465,4.17677 -4.248713,7.23784 z M 7.4183666,391.19418 c 2.8037624,2.05249 6.2603264,2.37818 8.9959914,1.05563 2.732077,-1.32725 4.322616,-4.03578 4.79708,-6.90558 -2.325463,-1.1938 -5.294321,-1.35865 -8.063736,-0.33957 -2.766165,1.02383 -5.0846633,3.18439 -5.7293354,6.18952 z m -8.8252964,-9.29079 c 2.30292756,2.60074 5.6087395,3.64715 8.5693688,2.92874 2.958004,-0.72376 5.100047,-3.04027 6.167319,-5.75659 -2.043408,-1.66599 -4.9258651,-2.43993 -7.8440743,-2.02215 -2.91776,0.42334 -5.63159207,2.04538 -6.8926135,4.85 z M -8.035994,370.93011 c 1.6825029,3.04835 4.6798398,4.77717 7.71616012,4.7012 3.03596308,-0.0818 5.61041948,-1.89812 7.22023918,-4.31642 -1.6418858,-2.03567 -4.2800055,-3.38415 -7.1978526,-3.60407 -2.9213829,-0.21466 -5.9114254,0.75876 -7.7385467,3.21929 z m -4.018539,-12.24149 c 0.940585,3.39494 3.4755317,5.76867 6.4363663,6.37302 2.9646786,0.59924 5.85501069,-0.60988 7.9558399,-2.58507 -1.1243653,-2.30246 -3.3532721,-4.1917 -6.1250706,-5.08534 -2.7785014,-0.89003 -5.9226962,-0.67559 -8.2671356,1.29739 z m -0.91078,-13.06292 c -0.0045,1.11234 0.174516,2.20965 0.52808,3.23261 0.801289,2.16916 2.290654,3.79577 4.118967,4.67912 2.7425108,1.31858 5.8354598,0.82511 8.37412128,-0.56257 -0.29282945,-1.46176 -0.96995108,-2.86203 -1.99409618,-4.11655 -0.7422314,-0.88285 -1.6425638,-1.68736 -2.6553655,-2.33859 -2.4725498,-1.5833 -5.5647796,-2.20641 -8.3717066,-0.89402 z m 2.527721,-12.72873 c -0.847195,3.39595 0.173083,6.72983 2.4644365,8.71611 2.2948313,1.98159 5.421053,2.31857 8.21568765,1.63562 0.12960265,-2.52568 -0.8721777,-5.27752 -2.84714815,-7.42174 -1.9812225,-2.14287 -4.8256786,-3.48678 -7.832976,-2.92999 z m 5.3495253,-11.67181 c -1.5746795,3.1018 -1.3358794,6.56614 0.4152219,9.03602 1.7553683,2.46588 4.68544618,3.56393 7.5762439,3.56116 0.7738493,-2.45716 0.4562917,-5.39005 -0.9884144,-7.94855 -1.4490137,-2.55484 -3.9423424,-4.49972 -7.0030514,-4.64863 z m 7.7570373,-10.20058 c -2.19902625,2.68967 -2.70841565,6.12352 -1.5333557,8.92933 1.1799238,2.80238 3.8007092,4.54205 6.6456275,5.16939 1.3213508,-2.2663 1.6419354,-5.22806 0.76966,-8.04881 -0.8772647,-2.818 -2.9134305,-5.24638 -5.8819318,-6.04991 z m 9.7502554,-8.31507 c -2.722067,2.1591 -3.9426933,5.40244 -3.3812959,8.39606 0.5669031,2.9914 2.7684369,5.25263 5.4238379,6.4603 1.768081,-1.95411 2.688781,-4.79052 2.427075,-7.72251 -0.267331,-2.93249 -1.737586,-5.72664 -4.469617,-7.13385 z m 11.329181,-6.01526 c -3.144531,1.50848 -5.037985,4.4045 -5.1286,7.4362 -0.08482,3.03219 1.589756,5.69642 3.910877,7.43389 2.11197,-1.52323 3.598895,-4.07481 3.98383,-6.96965 0.379974,-2.89933 -0.413998,-5.93948 -2.766107,-7.90044 z m 12.493811,-3.30117 c -3.465589,0.73594 -5.995116,3.1316 -6.775265,6.04976 -0.775538,2.92334 0.264956,5.87483 2.106742,8.09016 2.353328,-0.97733 4.371969,-3.07722 5.439927,-5.79022 1.064828,-2.72008 1.057156,-5.88336 -0.771404,-8.3497 z m 13.111552,-0.0179 c -2.446872,-0.16086 -4.787719,0.57826 -6.491271,2.02106 -0.697213,0.60228 -1.265171,1.29883 -1.697425,2.06075 -1.504175,2.66325 -1.207037,5.78945 0.01143,8.42911 0.568651,-0.0729 1.131599,-0.20261 1.685991,-0.3887 1.892039,-0.69774 3.720698,-2.05222 5.058498,-3.85789 1.736912,-2.35359 2.551705,-5.39349 1.432773,-8.26433 z m 12.503336,3.27203 c -3.333511,-1.03886 -6.715015,-0.21683 -8.836082,1.94269 -2.116594,2.16325 -2.654901,5.25122 -2.146761,8.08312 2.519978,0.29945 5.33144,-0.52638 7.593433,-2.37302 2.25978,-1.85196 3.765023,-4.61841 3.38941,-7.65279 z m 11.342834,5.99025 c -3.009813,-1.74035 -6.481642,-1.69189 -9.049333,-0.0814 -2.563831,1.61495 -3.833559,4.47818 -3.992978,7.37089 2.420915,0.91999 5.375297,0.7659 8.013608,-0.53945 2.63459,-1.30973 4.711336,-3.69882 5.028703,-6.75007 z m 9.76804,8.29419 c -2.568181,-2.33924 -5.969302,-3.03 -8.836001,-2.00478 -2.863483,1.03024 -4.744773,3.55641 -5.521874,6.36747 2.199542,1.4426 5.144592,1.91655 8.007224,1.19346 2.86053,-0.72832 5.391448,-2.63329 6.350651,-5.55615 z m 7.778951,10.18383 c -2.007777,-2.83712 -5.178829,-4.22955 -8.196081,-3.82756 -3.015546,0.40762 -5.388554,2.48746 -6.733452,5.07289 1.857386,1.86373 4.637798,2.92909 7.574279,2.8257 2.937987,-0.10899 5.804978,-1.42055 7.355254,-4.07103 z m 5.375569,11.65918 c -1.326836,-3.23437 -4.111991,-5.29015 -7.129577,-5.5497 -3.019077,-0.25386 -5.765838,1.27226 -7.627709,3.48713 1.397368,2.18184 3.851995,3.8051 6.714773,4.3573 2.86815,0.54763 5.950737,-0.06 8.042513,-2.29473 z m 2.557894,12.72024 c -0.523593,-3.52974 -2.770553,-6.21308 -5.636487,-7.17121 -2.872548,-0.95423 -5.878158,-0.0892 -8.204648,1.6102 0.823357,2.39803 2.783313,4.54345 5.428708,5.78823 2.652618,1.24208 5.827121,1.44785 8.412427,-0.22722 z"
         style="opacity:1;vector-effect:none;fill:#333333;fill-opacity:1;stroke:none;stroke-width:1.32291663;stroke-linecap:round;stroke-linejoin:round;stroke-miterlimit:4;stroke-dasharray:none;stroke-dashoffset:0;stroke-opacity:1"
         id="path968"
         inkscape:connector-curvature="0" />
      <path
         id="path989"
         d="m 88.213315,350.15949 c -0.405271,3.74955 -2.681011,6.57216 -5.561498,7.54539 -2.891719,0.97079 -5.874934,0.008 -8.191386,-1.67291 0.814923,-2.28526 2.7237,-4.41225 5.311404,-5.75232 2.600493,-1.34048 5.786031,-1.76773 8.44148,-0.12016 z m -2.62974,13.28967 c -1.478181,3.34383 -4.444355,5.33036 -7.496951,5.40809 -3.055422,0.0719 -5.664461,-1.7021 -7.37898,-4.02067 1.509332,-2.01008 4.033639,-3.47372 6.904475,-3.92983 2.879346,-0.4519 5.965914,0.18364 7.971456,2.54241 z m -6.303854,11.75831 c -2.346395,2.76763 -5.750664,3.85736 -8.722571,3.09975 -2.970232,-0.76328 -5.014786,-3.17217 -6.041795,-5.88732 2.013828,-1.56237 4.871811,-2.3061 7.787756,-1.9363 2.917071,0.37555 5.698761,1.89218 6.97661,4.72387 z m -9.285789,9.53475 c -3.014342,2.02284 -6.595511,2.15134 -9.238359,0.62041 -2.639709,-1.53592 -3.92235,-4.40083 -4.179831,-7.27288 2.317813,-0.94235 5.248817,-0.90913 7.961246,0.22829 2.70961,1.14228 4.98863,3.35744 5.456944,6.42418 z m -11.575549,6.61903 c -3.485029,1.10654 -6.975886,0.21517 -9.044313,-2.02996 -2.064661,-2.24978 -2.386344,-5.38429 -1.793088,-8.17735 2.415151,-0.15902 5.170792,0.72618 7.424945,2.56395 2.254987,1.84554 3.837497,4.58219 3.412456,7.64336 z m -13.173131,3.01112 c -0.809878,0.003 -1.613535,-0.0885 -2.387754,-0.27228 -2.72382,-0.72963 -4.715382,-2.46907 -5.641763,-4.61858 -1.205191,-2.81138 -0.47362,-5.85946 1.010811,-8.31249 1.672979,0.44046 3.260908,1.40968 4.630952,2.82972 0.565564,0.6013 1.090966,1.27127 1.544609,1.99222 1.555042,2.48162 2.243521,5.57016 0.843145,8.38141 z m -13.540891,-1.5272 c -3.461434,-1.22929 -5.662275,-4.04624 -5.958435,-7.07964 -0.290684,-3.03801 1.297088,-5.75808 3.478835,-7.63128 2.094795,1.35304 3.730091,3.75088 4.401487,6.57276 0.668189,2.83206 0.28155,5.96302 -1.921887,8.13816 z m -12.206032,-5.45023 c -2.927462,-2.1483 -4.247476,-5.46717 -3.692862,-8.48272 0.560458,-3.01463 2.827194,-5.21861 5.465763,-6.42528 1.690638,1.90616 2.619321,4.70585 2.450714,7.63348 -0.17432,2.93049 -1.487906,5.80721 -4.223615,7.27452 z M 9.3428052,378.78973 c -2.2249363,-2.8659 -2.5995923,-6.42779 -1.2562702,-9.17596 1.3484474,-2.74523 4.116483,-4.23707 6.971597,-4.69451 1.113152,2.26104 1.280228,5.19738 0.328883,7.98441 -0.956402,2.78462 -3.013814,5.20753 -6.0442098,5.88606 z M 1.9299657,367.72172 c -1.35197549,-3.38585 -0.7205021,-6.92433 1.3513426,-9.15937 2.0765709,-2.23146 5.161669,-2.81181 7.9963347,-2.43896 0.369363,2.41028 -0.294212,5.23286 -1.9640034,7.62556 -1.6758886,2.3918 -4.2983423,4.16664 -7.3836739,3.97277 z m -3.9779773,-12.83863 c -0.1723597,-2.10414 0.3064514,-4.15603 1.33554884,-5.79291 0.75121385,-1.15055 1.72233756,-2.0298 2.82096246,-2.6165 2.7151699,-1.44327 5.8168357,-0.95434 8.4007943,0.31864 -0.13226,0.78107 -0.373762,1.54793 -0.722836,2.29786 -0.7866452,1.55142 -2.0348957,3.0815 -3.5924642,4.25825 -2.3290345,1.75273 -5.34523503,2.68381 -8.2420054,1.53466 z m 0.362055,-13.65531 c 0.96752234,-3.56833 3.6196213,-5.9798 6.6179663,-6.4981 3.0049701,-0.51345 5.8243093,0.87707 7.8507753,2.90694 -1.185085,2.16876 -3.4384356,3.9721 -6.1966742,4.86245 -2.7697984,0.88832 -5.93211705,0.7619 -8.2720674,-1.27129 z m 4.553343,-12.6105 c 1.9376219,-3.07678 5.1549067,-4.62299 8.1984986,-4.27528 3.043669,0.35367 5.394789,2.46718 6.775976,5.01414 -1.786079,1.80803 -4.510945,2.91831 -7.434845,2.95444 -2.9286288,0.0307 -5.8879366,-1.0684 -7.5396296,-3.6933 z M 10.74875,317.88425 c 2.705137,-2.4164 6.231045,-3.03338 9.069197,-1.88145 2.835502,1.15723 4.524041,3.81689 5.176399,6.64025 -2.191388,1.27352 -5.117462,1.63666 -7.963226,0.87537 -2.84418,-0.76662 -5.398871,-2.6551 -6.28237,-5.63417 z m 10.517207,-8.16339 c 3.274323,-1.58644 6.843782,-1.2117 9.230063,0.68341 2.382856,1.89991 3.209674,4.92351 3.052041,7.78526 -2.392461,0.57021 -5.266535,0.12213 -7.781816,-1.37476 -2.513186,-1.50208 -4.468185,-3.99964 -4.500288,-7.09391 z m 12.460872,-4.90158 c 3.645984,-0.58246 6.992313,0.83761 8.681097,3.4193 0.167348,0.25692 0.317127,0.52264 0.449572,0.79586 1.163453,2.40781 0.901028,5.13486 0,7.53306 -0.01538,0.0402 -0.03093,0.0803 -0.04667,0.12025 -2.386647,-0.28891 -4.960818,-1.63821 -6.890615,-3.79594 -1.935364,-2.17215 -3.096165,-5.1056 -2.193386,-8.07253 z m 13.628245,-0.80977 c 3.664414,0.69286 6.283054,3.16456 7.027075,6.11193 0.740179,2.95623 -0.44199,5.86324 -2.304976,8.03748 -2.232153,-1.00566 -4.199572,-3.09611 -5.312716,-5.77624 -1.11238,-2.69259 -1.257313,-5.87313 0.590617,-8.37317 z m 12.97171,3.6132 c 3.215582,1.71428 4.983933,4.81395 4.847011,7.86992 -0.142895,3.05728 -2.092144,5.54338 -4.532449,7.09387 -1.914509,-1.65375 -3.20311,-4.28694 -3.44747,-7.19185 -0.239394,-2.91156 0.633652,-5.94086 3.132908,-7.77194 z m 11.267286,7.11426 c 2.597279,2.53199 3.452645,6.00532 2.495928,8.91807 -0.962198,2.91051 -3.502102,4.78327 -6.278827,5.62549 -1.423297,-2.10895 -1.978566,-5.00898 -1.411167,-7.89768 0.572996,-2.88831 2.281239,-5.56262 5.194066,-6.64588 z m 8.870686,9.92315 c 1.810028,3.15048 1.688662,6.73418 -0.02618,9.25639 -1.719717,2.51892 -4.669875,3.57986 -7.54411,3.63232 -0.761294,-2.36164 -0.523161,-5.27185 0.796194,-7.89371 1.324197,-2.61913 3.686037,-4.74217 6.774092,-4.995 z m 5.781908,12.03985 c 0.850055,3.57178 -0.304239,6.99851 -2.7193,8.88488 -2.419584,1.88235 -5.591331,1.93335 -8.328297,1.11438 0.06051,-2.4072 1.174095,-5.08018 3.17461,-7.17995 2.010983,-2.10282 4.851276,-3.48069 7.872987,-2.81931 z"
         style="opacity:1;vector-effect:none;fill:#333333;fill-opacity:1;stroke:none;stroke-width:1.01285803;stroke-linecap:round;stroke-linejoin:round;stroke-miterlimit:4;stroke-dasharray:none;stroke-dashoffset:0;stroke-opacity:1"
         transform="matrix(0.85416484,0,0,0.85416484,6.2501305,50.909621)"
         inkscape:connector-curvature="0" />
    </g>
  </g>
</svg>
