<?xml version="1.0" encoding="UTF-8" standalone="no"?>
<!-- Created with Inkscape (http://www.inkscape.org/) -->

<svg
   xmlns:dc="http://purl.org/dc/elements/1.1/"
   xmlns:cc="http://creativecommons.org/ns#"
   xmlns:rdf="http://www.w3.org/1999/02/22-rdf-syntax-ns#"
   xmlns:svg="http://www.w3.org/2000/svg"
   xmlns="http://www.w3.org/2000/svg"
   xmlns:xlink="http://www.w3.org/1999/xlink"
   xmlns:sodipodi="http://sodipodi.sourceforge.net/DTD/sodipodi-0.dtd"
   xmlns:inkscape="http://www.inkscape.org/namespaces/inkscape"
   width="300"
   height="432.54297"
   viewBox="0 0 79.374998 114.44366"
   version="1.1"
   id="svg8"
   inkscape:version="0.92.4 (5da689c313, 2019-01-14)"
   sodipodi:docname="2020-04-02-simple-letter-logos.svg">
  <defs
     id="defs2">
    <linearGradient
       inkscape:collect="always"
       id="linearGradient866">
      <stop
         style="stop-color:#ffaaaa;stop-opacity:1;"
         offset="0"
         id="stop862" />
      <stop
         style="stop-color:#ffeeaa;stop-opacity:1"
         offset="1"
         id="stop864" />
    </linearGradient>
    <inkscape:path-effect
       effect="skeletal"
       id="path-effect827"
       is_visible="true"
       pattern="M 0,5 C 0,2.24 2.24,0 5,0 7.76,0 10,2.24 10,5 10,7.76 7.76,10 5,10 2.24,10 0,7.76 0,5 Z"
       copytype="single_stretched"
       prop_scale="0.26458333"
       scale_y_rel="false"
       spacing="0"
       normal_offset="0"
       tang_offset="0"
       prop_units="false"
       vertical_pattern="false"
       fuse_tolerance="0" />
    <linearGradient
       inkscape:collect="always"
       xlink:href="#linearGradient866"
       id="linearGradient868"
       x1="-392.5"
       y1="197.24805"
       x2="-130"
       y2="197.24805"
       gradientUnits="userSpaceOnUse" />
    <linearGradient
       inkscape:collect="always"
       xlink:href="#linearGradient866"
       id="linearGradient876"
       x1="-205"
       y1="263.51953"
       x2="-430"
       y2="263.51953"
       gradientUnits="userSpaceOnUse" />
  </defs>
  <sodipodi:namedview
     id="base"
     pagecolor="#ffffff"
     bordercolor="#666666"
     borderopacity="1.0"
     inkscape:pageopacity="0.0"
     inkscape:pageshadow="2"
     inkscape:zoom="1"
     inkscape:cx="55.192983"
     inkscape:cy="153.21"
     inkscape:document-units="px"
     inkscape:current-layer="layer1"
     showgrid="false"
     units="px"
     showborder="true"
     inkscape:object-paths="true"
     inkscape:snap-intersection-paths="true"
     inkscape:snap-smooth-nodes="true"
     inkscape:window-width="1920"
     inkscape:window-height="1017"
     inkscape:window-x="1358"
     inkscape:window-y="44"
     inkscape:window-maximized="1"
     fit-margin-top="0"
     fit-margin-left="0"
     fit-margin-right="0"
     fit-margin-bottom="0" />
  <metadata
     id="metadata5">
    <rdf:RDF>
      <cc:Work
         rdf:about="">
        <dc:format>image/svg+xml</dc:format>
        <dc:type
           rdf:resource="http://purl.org/dc/dcmitype/StillImage" />
        <dc:title></dc:title>
      </cc:Work>
    </rdf:RDF>
  </metadata>
  <g
     inkscape:label="Layer 1"
     inkscape:groupmode="layer"
     id="layer1"
     transform="translate(113.77083,5.0332846)">
    <path
       style="opacity:1;vector-effect:none;fill:url(#linearGradient876);fill-opacity:1;stroke:none;stroke-width:14.56310558;stroke-linecap:round;stroke-linejoin:round;stroke-miterlimit:4;stroke-dasharray:none;stroke-dashoffset:0;stroke-opacity:1"
       d="m -280,113.51953 a 149.99999,149.99999 0 0 0 -150,150 149.99999,149.99999 0 0 0 150,150 149.99999,149.99999 0 0 0 150,-150 149.99999,149.99999 0 0 0 -150,-150 z m 0,75 a 74.999996,74.999996 0 0 1 75,75 74.999996,74.999996 0 0 1 -75,75 74.999996,74.999996 0 0 1 -75,-75 74.999996,74.999996 0 0 1 75,-75 z"
       transform="scale(0.26458333)"
       id="path815"
       inkscape:connector-curvature="0" />
    <path
       style="opacity:1;vector-effect:none;fill:url(#linearGradient868);fill-opacity:1;stroke:none;stroke-width:10.92233086;stroke-linecap:round;stroke-linejoin:round;stroke-miterlimit:4;stroke-dasharray:none;stroke-dashoffset:0;stroke-opacity:1"
       d="m -131,-19.023438 c -41.55,2e-6 -75,33.450007 -75,75 V 251.3418 l 0.006,0.002 c 0.33802,1.64126 0.55223,3.56114 0.69922,5.63281 0.14698,2.07168 0.226,4.2954 0.29492,6.54297 a 74.99999,74.99999 0 0 1 -75,75 74.99999,74.99999 0 0 1 -75,-75 74.99999,74.99999 0 0 1 69.69531,-74.8125 112.5,112.5 0 0 0 -107.19531,112.3125 112.5,112.5 0 0 0 112.5,112.5 112.5,112.5 0 0 0 11.23047,-0.5625 A 149.99999,149.99999 0 0 0 -130,263.51953 l -0.99023,-17.20703 -0.01,-0.002 z"
       transform="scale(0.26458333)"
       id="path844"
       inkscape:connector-curvature="0" />
  </g>
</svg>
