<?xml version="1.0" encoding="UTF-8" standalone="no"?>
<!-- Created with Inkscape (http://www.inkscape.org/) -->

<svg
   xmlns:dc="http://purl.org/dc/elements/1.1/"
   xmlns:cc="http://creativecommons.org/ns#"
   xmlns:rdf="http://www.w3.org/1999/02/22-rdf-syntax-ns#"
   xmlns:svg="http://www.w3.org/2000/svg"
   xmlns="http://www.w3.org/2000/svg"
   xmlns:sodipodi="http://sodipodi.sourceforge.net/DTD/sodipodi-0.dtd"
   xmlns:inkscape="http://www.inkscape.org/namespaces/inkscape"
   width="493.99997"
   height="411"
   viewBox="0 0 130.70416 108.74375"
   version="1.1"
   id="svg8"
   inkscape:version="0.92.4 (5da689c313, 2019-01-14)"
   sodipodi:docname="2020-04-09-vector-rounded-banner.svg">
  <defs
     id="defs2" />
  <sodipodi:namedview
     id="base"
     pagecolor="#ffffff"
     bordercolor="#666666"
     borderopacity="1.0"
     inkscape:pageopacity="0.0"
     inkscape:pageshadow="2"
     inkscape:zoom="0.5"
     inkscape:cx="119.44668"
     inkscape:cy="365.64934"
     inkscape:document-units="px"
     inkscape:current-layer="layer1"
     showgrid="false"
     units="px"
     showborder="true"
     inkscape:window-width="1920"
     inkscape:window-height="1017"
     inkscape:window-x="1358"
     inkscape:window-y="44"
     inkscape:window-maximized="1"
     inkscape:snap-global="false"
     fit-margin-top="0"
     fit-margin-left="0"
     fit-margin-right="0"
     fit-margin-bottom="0" />
  <metadata
     id="metadata5">
    <rdf:RDF>
      <cc:Work
         rdf:about="">
        <dc:format>image/svg+xml</dc:format>
        <dc:type
           rdf:resource="http://purl.org/dc/dcmitype/StillImage" />
        <dc:title></dc:title>
      </cc:Work>
    </rdf:RDF>
  </metadata>
  <g
     inkscape:label="Layer 1"
     inkscape:groupmode="layer"
     id="layer1"
     transform="translate(-25.929167,-31.887491)">
    <rect
       style="opacity:1;vector-effect:none;fill:#f2f2f2;fill-opacity:1;stroke:none;stroke-width:6.61458302;stroke-linecap:round;stroke-linejoin:round;stroke-miterlimit:4;stroke-dasharray:none;stroke-dashoffset:0;stroke-opacity:1"
       id="rect891"
       width="130.70416"
       height="108.74375"
       x="25.929167"
       y="31.887491" />
    <path
       style="color:#000000;font-style:normal;font-variant:normal;font-weight:normal;font-stretch:normal;font-size:medium;line-height:normal;font-family:sans-serif;font-variant-ligatures:normal;font-variant-position:normal;font-variant-caps:normal;font-variant-numeric:normal;font-variant-alternates:normal;font-feature-settings:normal;text-indent:0;text-align:start;text-decoration:none;text-decoration-line:none;text-decoration-style:solid;text-decoration-color:#000000;letter-spacing:normal;word-spacing:normal;text-transform:none;writing-mode:lr-tb;direction:ltr;text-orientation:mixed;dominant-baseline:auto;baseline-shift:baseline;text-anchor:start;white-space:normal;shape-padding:0;clip-rule:nonzero;display:inline;overflow:visible;visibility:visible;opacity:1;isolation:auto;mix-blend-mode:normal;color-interpolation:sRGB;color-interpolation-filters:linearRGB;solid-color:#000000;solid-opacity:1;vector-effect:none;fill:#ffffff;fill-opacity:1;fill-rule:nonzero;stroke:#000000;stroke-width:1.32291663;stroke-linecap:round;stroke-linejoin:round;stroke-miterlimit:4;stroke-dasharray:none;stroke-dashoffset:0;stroke-opacity:1;color-rendering:auto;image-rendering:auto;shape-rendering:auto;text-rendering:auto;enable-background:accumulate"
       d="m 256.25304,91.566639 c -1.42639,3.48868 -3.56027,6.76196 -6.40304,9.604731 -2.84289,2.84289 -6.11638,4.97715 -9.6051,6.40341 l 7.91619,7.91619 c 3.29726,-1.77968 6.39347,-4.05634 9.17282,-6.83569 2.77918,-2.77918 5.05605,-5.87503 6.83568,-9.172081 z m -53.96485,-10e-6 -7.91655,7.91656 c 1.77962,3.297071 4.05649,6.392921 6.83567,9.172101 2.77935,2.77933 5.87556,5.056 9.17283,6.83567 l 7.91619,-7.91619 c -3.48873,-1.42626 -6.76222,-3.5605 -9.60511,-6.40339 -2.84288,-2.842901 -4.97677,-6.116031 -6.40303,-9.604751 z"
       id="path817"
       inkscape:connector-curvature="0" />
    <path
       style="opacity:1;fill:#000000;fill-opacity:1;stroke:#000000;stroke-width:1.32291663;stroke-linecap:round;stroke-linejoin:round;stroke-miterlimit:4;stroke-dasharray:none;stroke-opacity:1"
       d="m 202.28819,91.566629 -6.17485,6.17485 5.66593,0.28689 z"
       id="path842"
       inkscape:connector-curvature="0" />
    <path
       inkscape:connector-curvature="0"
       id="path844"
       d="m 218.29569,107.57466 -6.17484,6.17484 -0.2869,-5.66592 z"
       style="opacity:1;fill:#000000;fill-opacity:1;stroke:#000000;stroke-width:1.32291663;stroke-linecap:round;stroke-linejoin:round;stroke-miterlimit:4;stroke-dasharray:none;stroke-opacity:1" />
    <path
       style="opacity:1;fill:#000000;fill-opacity:1;stroke:#000000;stroke-width:1.32291663;stroke-linecap:round;stroke-linejoin:round;stroke-miterlimit:4;stroke-dasharray:none;stroke-opacity:1"
       d="m 256.25304,91.567169 6.17483,6.17483 -5.66592,0.28689 z"
       id="path846"
       inkscape:connector-curvature="0" />
    <path
       inkscape:connector-curvature="0"
       id="path848"
       d="m 240.24554,107.57466 6.17483,6.17483 0.2869,-5.6659 z"
       style="opacity:1;fill:#000000;fill-opacity:1;stroke:#000000;stroke-width:1.32291663;stroke-linecap:round;stroke-linejoin:round;stroke-miterlimit:4;stroke-dasharray:none;stroke-opacity:1" />
    <path
       style="color:#000000;font-style:normal;font-variant:normal;font-weight:normal;font-stretch:normal;font-size:medium;line-height:normal;font-family:sans-serif;font-variant-ligatures:normal;font-variant-position:normal;font-variant-caps:normal;font-variant-numeric:normal;font-variant-alternates:normal;font-feature-settings:normal;text-indent:0;text-align:start;text-decoration:none;text-decoration-line:none;text-decoration-style:solid;text-decoration-color:#000000;letter-spacing:normal;word-spacing:normal;text-transform:none;writing-mode:lr-tb;direction:ltr;text-orientation:mixed;dominant-baseline:auto;baseline-shift:baseline;text-anchor:start;white-space:normal;shape-padding:0;clip-rule:nonzero;display:inline;overflow:visible;visibility:visible;opacity:1;isolation:auto;mix-blend-mode:normal;color-interpolation:sRGB;color-interpolation-filters:linearRGB;solid-color:#000000;solid-opacity:1;vector-effect:none;fill:#ffffff;fill-opacity:1;fill-rule:nonzero;stroke:#000000;stroke-width:1.32291663;stroke-linecap:round;stroke-linejoin:round;stroke-miterlimit:4;stroke-dasharray:none;stroke-dashoffset:0;stroke-opacity:1;color-rendering:auto;image-rendering:auto;shape-rendering:auto;text-rendering:auto;enable-background:accumulate"
       d="m 204.50003,45.28793 c -2.01169,1.411632 -3.92927,3.013562 -5.72471,4.809009 -15.08572,15.085717 -16.62052,38.717412 -4.61006,55.545451 l 7.61401,-7.614011 c -8.03677,-12.597387 -6.54472,-29.422598 4.48034,-40.447659 1.81359,-1.813583 3.78443,-3.368026 5.86735,-4.665866 z m 49.54116,0 -7.62537,7.625374 c 2.08292,1.297736 4.05375,2.852282 5.86734,4.665866 11.02521,11.025213 12.51622,27.851997 4.4788,40.449729 l 7.61348,7.613481 c 12.01079,-16.828022 10.4763,-40.459607 -4.60953,-55.545442 -1.79545,-1.795446 -3.71303,-3.397374 -5.72472,-4.809008 z m -42.20724,62.79565 -7.61349,7.61401 c 14.91833,10.64773 35.18196,10.64773 50.1003,0 l -7.61348,-7.61401 c -10.62264,6.77706 -24.25071,6.77705 -34.87333,0 z"
       id="circle819"
       inkscape:connector-curvature="0" />
    <path
       style="color:#000000;font-style:normal;font-variant:normal;font-weight:normal;font-stretch:normal;font-size:medium;line-height:normal;font-family:sans-serif;font-variant-ligatures:normal;font-variant-position:normal;font-variant-caps:normal;font-variant-numeric:normal;font-variant-alternates:normal;font-feature-settings:normal;text-indent:0;text-align:start;text-decoration:none;text-decoration-line:none;text-decoration-style:solid;text-decoration-color:#000000;letter-spacing:normal;word-spacing:normal;text-transform:none;writing-mode:lr-tb;direction:ltr;text-orientation:mixed;dominant-baseline:auto;baseline-shift:baseline;text-anchor:start;white-space:normal;shape-padding:0;clip-rule:nonzero;display:inline;overflow:visible;visibility:visible;opacity:1;isolation:auto;mix-blend-mode:normal;color-interpolation:sRGB;color-interpolation-filters:linearRGB;solid-color:#000000;solid-opacity:1;vector-effect:none;fill:#000000;fill-opacity:1;fill-rule:nonzero;stroke:none;stroke-width:6.61458206;stroke-linecap:round;stroke-linejoin:round;stroke-miterlimit:4;stroke-dasharray:none;stroke-dashoffset:0;stroke-opacity:1;color-rendering:auto;image-rendering:auto;shape-rendering:auto;text-rendering:auto;enable-background:accumulate"
       d="m 201.73311,49.938692 0.93033,0.930328 c 1.30842,-1.177055 2.69206,-2.272038 4.14811,-3.269666 l -0.94494,-0.944944 c -1.44895,1.005987 -2.82761,2.105404 -4.1335,3.284282 z m 1.8592,1.859193 0.93288,0.932886 c 1.31435,-1.173087 2.70997,-2.256744 4.18209,-3.235683 l -0.95079,-0.950791 c -1.46376,0.988655 -2.85297,2.07837 -4.16418,3.253588 z m 1.86321,1.863214 0.92814,0.928136 c 1.32117,-1.168655 2.73239,-2.237601 4.22301,-3.19476 l -0.94969,-0.949694 c -1.48104,0.968502 -2.8838,2.045385 -4.20146,3.216318 z m -13.14298,44.86985 c 0.96594,1.967991 2.08273,3.849061 3.33837,5.625821 l 0.94531,-0.94531 c -1.2476,-1.78764 -2.35161,-3.682551 -3.29708,-5.667111 z m 1.97722,-1.97722 c 0.92329,2.00266 2.01227,3.913121 3.2514,5.712791 l 0.9464,-0.94641 c -1.22995,-1.812871 -2.30135,-3.741401 -3.20024,-5.763941 z m 1.99951,-1.99951 c 0.87255,2.04355 1.92647,3.99072 3.14653,5.817661 l 0.94969,-0.949701 c -1.20959,-1.84277 -2.24243,-3.81103 -3.08623,-5.87794 z m 51.64524,-43.159742 c 1.26182,0.810279 2.46528,1.702515 3.60694,2.665647 l 0.93362,-0.933615 c -1.13819,-0.965588 -2.33678,-1.86227 -3.5905,-2.682092 z m 1.89939,-1.899389 c 1.246,0.828569 2.43888,1.730863 3.57296,2.699631 l 0.93361,-0.933617 c -1.13046,-0.971488 -2.31734,-1.879669 -3.55614,-2.71644 z m 1.8961,-1.896099 c 1.23232,0.844294 2.4129,1.75837 3.54044,2.732151 l 0.93325,-0.933251 c -1.12515,-0.975414 -2.30294,-1.892166 -3.52911,-2.743479 z M 205.72812,114.1894 c 1.56378,1.09522 3.20807,2.08299 4.91984,2.95615 l 0.98112,-0.98112 c -1.72589,-0.8561 -3.38181,-1.83298 -4.95529,-2.9207 z m 1.89061,-1.89062 c 1.58408,1.07991 3.25421,2.04276 4.99549,2.88051 l 0.99172,-0.99172 c -1.75805,-0.81789 -3.44402,-1.76467 -5.0397,-2.83629 z m 1.89757,-1.89756 c 1.60818,1.06239 3.31018,1.99363 5.0861,2.78989 l 0.99793,-0.99793 c -1.79515,-0.77235 -3.51274,-1.68927 -5.13434,-2.74165 z m 51.72563,-16.859171 c -0.84388,2.06759 -1.87753,4.03645 -3.08733,5.87977 l 0.95079,0.950791 c 1.22045,-1.827421 2.27521,-3.774991 3.14798,-5.819111 z m -18.29925,18.650761 0.99793,0.99793 c 1.77542,-0.79609 3.47684,-1.72702 5.08465,-2.78916 l -0.95006,-0.95005 c -1.62116,1.05217 -3.33786,1.96903 -5.13252,2.74128 z m 20.31264,-16.637371 c -0.89897,2.02321 -1.97105,3.95242 -3.20133,5.765771 l 0.94494,0.94494 c 1.23938,-1.80026 2.32878,-3.711581 3.25213,-5.714971 z m -18.31824,18.631771 0.99171,0.99171 c 1.74068,-0.83756 3.40977,-1.80018 4.9933,-2.87977 l -0.94677,-0.9475 c -1.59534,1.07137 -3.28059,2.01781 -5.03824,2.83556 z M 265.2435,97.543619 c -0.94571,1.98515 -2.05052,3.880441 -3.29853,5.668571 l 0.94495,0.94495 c 1.25595,-1.7772 2.37365,-3.65873 3.33982,-5.627281 z m -18.32957,18.620441 0.98112,0.98112 c 1.71117,-0.87292 3.35436,-1.86058 4.91765,-2.95542 l -0.9453,-0.9453 c -1.573,1.08732 -3.22816,2.06376 -4.95347,2.9196 z"
       id="circle854"
       inkscape:connector-curvature="0" />
    <g
       id="g921"
       transform="translate(-3.110089,-0.93880879)">
      <g
         transform="translate(0.1984375,2.7119792)"
         style="fill:#333333"
         id="g944">
        <path
           inkscape:connector-curvature="0"
           style="color:#000000;font-style:normal;font-variant:normal;font-weight:normal;font-stretch:normal;font-size:medium;line-height:normal;font-family:sans-serif;font-variant-ligatures:normal;font-variant-position:normal;font-variant-caps:normal;font-variant-numeric:normal;font-variant-alternates:normal;font-feature-settings:normal;text-indent:0;text-align:start;text-decoration:none;text-decoration-line:none;text-decoration-style:solid;text-decoration-color:#000000;letter-spacing:normal;word-spacing:normal;text-transform:none;writing-mode:lr-tb;direction:ltr;text-orientation:mixed;dominant-baseline:auto;baseline-shift:baseline;text-anchor:start;white-space:normal;shape-padding:0;clip-rule:nonzero;display:inline;overflow:visible;visibility:visible;opacity:1;isolation:auto;mix-blend-mode:normal;color-interpolation:sRGB;color-interpolation-filters:linearRGB;solid-color:#000000;solid-opacity:1;vector-effect:none;fill:#333333;fill-opacity:1;fill-rule:nonzero;stroke:none;stroke-width:5;stroke-linecap:round;stroke-linejoin:round;stroke-miterlimit:4;stroke-dasharray:none;stroke-dashoffset:0;stroke-opacity:1;color-rendering:auto;image-rendering:auto;shape-rendering:auto;text-rendering:auto;enable-background:accumulate"
           d="m 253.98047,343.58203 a 2.5002499,2.5002499 0 0 0 -1.72656,0.73242 l -7.28907,7.28907 c 0.69618,1.63601 1.43109,3.2584 2.20313,4.86914 l 6.23828,-6.23828 c 5.47361,12.24631 12.96775,23.83486 23.04492,33.9121 10.07722,10.07725 21.67334,17.57892 33.91992,23.05274 l -6.23242,6.23242 c 1.61098,0.77176 3.23482,1.50534 4.8711,2.20117 l 7.28125,-7.28125 a 2.5002499,2.5002499 0 0 0 -0.81836,-4.08203 c -12.88418,-5.2673 -24.97573,-13.15148 -35.48438,-23.66015 -10.50861,-10.50868 -18.38502,-22.59235 -23.65234,-35.47657 a 2.5002499,2.5002499 0 0 0 -2.35547,-1.55078 z m 203.9707,0 a 2.5002499,2.5002499 0 0 0 -2.28125,1.55078 c -5.26783,12.88415 -13.1442,24.96843 -23.65234,35.47657 -10.50868,10.50867 -22.60027,18.39285 -35.48438,23.66015 a 2.5002499,2.5002499 0 0 0 -0.82031,4.08203 l 7.28125,7.28125 c 1.63684,-0.69604 3.26153,-1.42915 4.87305,-2.20117 l -6.23242,-6.23242 c 12.24842,-5.47393 23.8394,-12.97417 33.91796,-23.05274 10.07672,-10.07669 17.57295,-21.6661 23.04688,-33.9121 l 6.24609,6.24609 c 0.77179,-1.61012 1.50715,-3.23375 2.20313,-4.86914 l -7.29688,-7.29688 a 2.5002499,2.5002499 0 0 0 -1.80078,-0.73242 z m -221.98437,46.58399 -3.62891,3.6289 c 4.70611,6.52785 9.96899,12.77367 15.83399,18.63867 5.86512,5.86509 12.10938,11.12626 18.63671,15.83008 l 3.63282,-3.63281 c -6.5735,-4.63852 -12.85674,-9.85483 -18.73438,-15.73242 -5.87823,-5.87823 -11.09895,-12.15973 -15.74023,-18.73242 z m 240.07422,0 c -4.63913,6.57261 -9.85815,12.85426 -15.73633,18.73242 -5.87816,5.87816 -12.1615,11.09439 -18.73633,15.73242 l 3.62891,3.63086 c 6.527,-4.70364 12.77185,-9.96328 18.63671,-15.82813 5.86527,-5.86528 11.12967,-12.11047 15.83594,-18.63867 z"
           transform="scale(0.26458333)"
           id="path877" />
        <path
           inkscape:connector-curvature="0"
           style="color:#000000;font-style:normal;font-variant:normal;font-weight:normal;font-stretch:normal;font-size:medium;line-height:normal;font-family:sans-serif;font-variant-ligatures:normal;font-variant-position:normal;font-variant-caps:normal;font-variant-numeric:normal;font-variant-alternates:normal;font-feature-settings:normal;text-indent:0;text-align:start;text-decoration:none;text-decoration-line:none;text-decoration-style:solid;text-decoration-color:#000000;letter-spacing:normal;word-spacing:normal;text-transform:none;writing-mode:lr-tb;direction:ltr;text-orientation:mixed;dominant-baseline:auto;baseline-shift:baseline;text-anchor:start;white-space:normal;shape-padding:0;clip-rule:nonzero;display:inline;overflow:visible;visibility:visible;opacity:1;isolation:auto;mix-blend-mode:normal;color-interpolation:sRGB;color-interpolation-filters:linearRGB;solid-color:#000000;solid-opacity:1;vector-effect:none;fill:#333333;fill-opacity:1;fill-rule:nonzero;stroke:none;stroke-width:5;stroke-linecap:round;stroke-linejoin:round;stroke-miterlimit:4;stroke-dasharray:none;stroke-dashoffset:0;stroke-opacity:1;color-rendering:auto;image-rendering:auto;shape-rendering:auto;text-rendering:auto;enable-background:accumulate"
           d="m 253.89258,343.58203 a 2.5002499,2.5002499 0 0 0 -1.63867,0.73242 l -7.28907,7.28907 c 2.56801,6.03476 5.646,11.90775 9.2461,17.55078 a 2.5002499,2.5002499 0 0 1 0.38476,1.52734 l 1.91797,-24.4043 a 2.5002499,2.5002499 0 0 0 -2.62109,-2.69531 z m 204.05859,0 a 2.5002499,2.5002499 0 0 0 -2.45898,2.69531 l 1.92578,24.41993 a 2.5002499,2.5002499 0 0 0 0.0117,0.0957 2.5002499,2.5002499 0 0 1 0.37304,-1.63281 c 3.59974,-5.64218 6.6802,-11.51484 9.24805,-17.54883 l -7.29883,-7.29688 a 2.5002499,2.5002499 0 0 0 -1.80078,-0.73242 z m -0.51172,27.2793 a 2.5002499,2.5002499 0 0 0 0.0312,0.17969 2.5002499,2.5002499 0 0 1 -0.0312,-0.17969 z m 0.0488,0.25195 a 2.5002499,2.5002499 0 0 0 0.0527,0.17774 2.5002499,2.5002499 0 0 1 -0.0527,-0.17774 z m -203.00586,0.14453 a 2.5002499,2.5002499 0 0 1 -0.0312,0.0899 2.5002499,2.5002499 0 0 0 0.0312,-0.0899 z m 203.07422,0.084 a 2.5002499,2.5002499 0 0 0 0.0703,0.17187 2.5002499,2.5002499 0 0 1 -0.0703,-0.17187 z m -203.16602,0.16015 a 2.5002499,2.5002499 0 0 1 -0.0312,0.0684 2.5002499,2.5002499 0 0 0 0.0312,-0.0684 z m 203.2754,0.0937 a 2.5002499,2.5002499 0 0 0 0.0586,0.11524 2.5002499,2.5002499 0 0 1 -0.0586,-0.11524 z m -203.38086,0.1211 a 2.5002499,2.5002499 0 0 1 -0.0547,0.0898 2.5002499,2.5002499 0 0 0 0.0547,-0.0898 z m 203.49804,0.0957 a 2.5002499,2.5002499 0 0 0 0.0879,0.13281 2.5002499,2.5002499 0 0 1 -0.0879,-0.13281 z m -203.62109,0.10352 a 2.5002499,2.5002499 0 0 1 -0.0859,0.11523 2.5002499,2.5002499 0 0 0 0.0859,-0.11523 z m 203.75586,0.0937 a 2.5002499,2.5002499 0 0 0 0.11719,0.14257 2.5002499,2.5002499 0 0 1 -0.11719,-0.14257 z m -203.90625,0.10156 a 2.5002499,2.5002499 0 0 1 -0.0977,0.10937 2.5002499,2.5002499 0 0 0 0.0977,-0.10937 z m 204.07226,0.0957 a 2.5002499,2.5002499 0 0 0 0.0586,0.0625 2.5002499,2.5002499 0 0 1 -0.0586,-0.0625 z m -143.67382,31.87695 a 2.5002499,2.5002499 0 0 0 -0.082,0.008 l -24.42578,1.91992 a 2.5002499,2.5002499 0 0 0 -0.0469,0.006 2.5002499,2.5002499 0 0 1 0.16406,-0.0137 2.5002499,2.5002499 0 0 1 1.42578,0.39062 c 5.64574,3.60188 11.52619,6.6685 17.56446,9.23633 l 7.28125,-7.2793 a 2.5002499,2.5002499 0 0 0 -1.88086,-4.26758 z m 83.02343,0 a 2.5002499,2.5002499 0 0 0 -1.7207,4.26758 l 7.2832,7.2793 c 6.03828,-2.56783 11.91872,-5.63444 17.56446,-9.23633 a 2.5002499,2.5002499 0 0 1 1.31054,-0.39258 2.5002499,2.5002499 0 0 1 0.21485,0.008 l -24.40821,-1.91797 a 2.5002499,2.5002499 0 0 0 -0.24414,-0.008 z m 24.72657,1.9336 a 2.5002499,2.5002499 0 0 1 0.0976,0.0117 2.5002499,2.5002499 0 0 0 -0.0976,-0.0117 z m -132.47266,0.0234 a 2.5002499,2.5002499 0 0 0 -0.0664,0.0117 2.5002499,2.5002499 0 0 1 0.0664,-0.0117 z m 132.74805,0.0195 a 2.5002499,2.5002499 0 0 1 0.0488,0.0117 2.5002499,2.5002499 0 0 0 -0.0488,-0.0117 z m -132.99024,0.0332 a 2.5002499,2.5002499 0 0 0 -0.0762,0.0234 2.5002499,2.5002499 0 0 1 0.0762,-0.0234 z m -0.21289,0.0684 a 2.5002499,2.5002499 0 0 0 -0.12109,0.0488 2.5002499,2.5002499 0 0 1 0.12109,-0.0488 z m -0.24414,0.10547 a 2.5002499,2.5002499 0 0 0 -0.0801,0.043 2.5002499,2.5002499 0 0 1 0.0801,-0.043 z m -0.21094,0.11914 a 2.5002499,2.5002499 0 0 0 -0.0976,0.0644 2.5002499,2.5002499 0 0 1 0.0976,-0.0644 z m -0.19726,0.13672 a 2.5002499,2.5002499 0 0 0 -0.10938,0.0898 2.5002499,2.5002499 0 0 1 0.10938,-0.0898 z"
           transform="scale(0.26458333)"
           id="path918" />
        <path
           style="color:#000000;font-style:normal;font-variant:normal;font-weight:normal;font-stretch:normal;font-size:medium;line-height:normal;font-family:sans-serif;font-variant-ligatures:normal;font-variant-position:normal;font-variant-caps:normal;font-variant-numeric:normal;font-variant-alternates:normal;font-feature-settings:normal;text-indent:0;text-align:start;text-decoration:none;text-decoration-line:none;text-decoration-style:solid;text-decoration-color:#000000;letter-spacing:normal;word-spacing:normal;text-transform:none;writing-mode:lr-tb;direction:ltr;text-orientation:mixed;dominant-baseline:auto;baseline-shift:baseline;text-anchor:start;white-space:normal;shape-padding:0;clip-rule:nonzero;display:inline;overflow:visible;visibility:visible;opacity:1;isolation:auto;mix-blend-mode:normal;color-interpolation:sRGB;color-interpolation-filters:linearRGB;solid-color:#000000;solid-opacity:1;vector-effect:none;fill:#333333;fill-opacity:1;fill-rule:nonzero;stroke:none;stroke-width:1.32291663;stroke-linecap:round;stroke-linejoin:round;stroke-miterlimit:4;stroke-dasharray:none;stroke-dashoffset:0;stroke-opacity:1;color-rendering:auto;image-rendering:auto;shape-rendering:auto;text-rendering:auto;enable-background:accumulate"
           d="m 69.412109,44.626953 a 0.66152446,0.66152446 0 0 0 -0.36914,0.119141 c -2.04251,1.433259 -3.98965,3.059955 -5.8125,4.882812 -15.314086,15.314083 -16.877687,39.310371 -4.681641,56.398434 a 0.66152446,0.66152446 0 0 0 1.00586,0.082 l 7.615234,-7.613286 a 0.66152446,0.66152446 0 0 0 0.08984,-0.824219 C 59.386592,85.33092 60.840206,68.85706 71.648438,58.048828 c 1.777794,-1.777787 3.709331,-3.300752 5.75,-4.572266 a 0.66152446,0.66152446 0 0 0 0.11914,-1.029296 l -7.626953,-7.626954 a 0.66152446,0.66152446 0 0 0 -0.478516,-0.193359 z m 49.558591,0 a 0.66152446,0.66152446 0 0 0 -0.47461,0.193359 l -7.62695,7.625 a 0.66152446,0.66152446 0 0 0 0.11914,1.029297 c 2.04064,1.271393 3.9722,2.794468 5.75,4.572266 10.80835,10.80835 12.26249,27.285646 4.38867,39.626953 a 0.66152446,0.66152446 0 0 0 0.0899,0.822266 l 7.61328,7.613286 a 0.66152446,0.66152446 0 0 0 1.00586,-0.082 c 12.19637,-17.08804 10.63451,-41.084232 -4.67969,-56.398434 -1.82286,-1.822855 -3.76999,-3.449552 -5.8125,-4.882812 a 0.66152446,0.66152446 0 0 0 -0.37305,-0.119141 z m -49.587888,1.556641 6.677735,6.677734 c -1.876098,1.232798 -3.693665,2.599922 -5.345703,4.251953 -11.106476,11.106477 -12.692298,27.988686 -4.822266,40.789063 l -6.669922,6.667966 C 47.901943,88.049128 49.503123,65.22539 64.164062,50.564453 c 1.636217,-1.636223 3.398512,-3.06863 5.21875,-4.380859 z m 49.621098,0 c 1.8202,1.312215 3.58059,2.744663 5.21679,4.380859 14.66105,14.661053 16.26245,37.484688 4.94141,54.005857 l -6.66797,-6.667966 c 7.87069,-12.800739 6.28635,-29.684356 -4.82031,-40.791016 -1.65207,-1.652063 -3.47149,-3.01918 -5.34766,-4.251953 z M 76.734375,107.42188 a 0.66152446,0.66152446 0 0 0 -0.445313,0.19335 l -7.615234,7.61524 a 0.66152446,0.66152446 0 0 0 0.08398,1.00586 c 15.148862,10.81227 35.720272,10.81227 50.869142,0 a 0.66152446,0.66152446 0 0 0 0.084,-1.00586 l -7.61328,-7.61524 a 0.66152446,0.66152446 0 0 0 -0.82422,-0.0898 c -10.40638,6.63909 -23.755753,6.63908 -34.162116,0 a 0.66152446,0.66152446 0 0 0 -0.376953,-0.10351 z m 0.142578,1.47656 c 10.615016,6.52814 24.018037,6.52875 34.632817,0 l 6.66796,6.66992 c -14.40156,9.86995 -33.569455,9.87059 -47.970699,0 z"
           id="path887"
           inkscape:connector-curvature="0" />
        <path
           inkscape:connector-curvature="0"
           id="path889"
           d="m 66.655091,49.938692 0.93033,0.930328 c 1.30842,-1.177055 2.69206,-2.272038 4.14811,-3.269666 l -0.94494,-0.944944 c -1.44895,1.005987 -2.82761,2.105404 -4.1335,3.284282 z m 1.8592,1.859193 0.93288,0.932886 c 1.31435,-1.173087 2.70997,-2.256744 4.18209,-3.235683 l -0.95079,-0.950791 c -1.46376,0.988655 -2.85297,2.07837 -4.16418,3.253588 z m 1.86321,1.863214 0.92814,0.928136 c 1.32117,-1.168655 2.73239,-2.237601 4.22301,-3.19476 l -0.94969,-0.949694 c -1.48104,0.968502 -2.8838,2.045385 -4.20146,3.216318 z m -13.14298,44.86985 c 0.96594,1.967991 2.08273,3.849061 3.33837,5.625821 l 0.94531,-0.94531 c -1.2476,-1.78764 -2.35161,-3.682551 -3.29708,-5.667111 z m 1.97722,-1.97722 c 0.92329,2.00266 2.01227,3.913121 3.2514,5.712791 l 0.9464,-0.94641 c -1.22995,-1.812871 -2.30135,-3.741401 -3.20024,-5.763941 z m 1.99951,-1.99951 c 0.87255,2.04355 1.92647,3.99072 3.14653,5.817661 l 0.94969,-0.949701 c -1.20959,-1.84277 -2.24243,-3.81103 -3.08623,-5.87794 z M 112.85649,51.394477 c 1.26182,0.810279 2.46528,1.702515 3.60694,2.665647 l 0.93362,-0.933615 c -1.13819,-0.965588 -2.33678,-1.86227 -3.5905,-2.682092 z m 1.89939,-1.899389 c 1.246,0.828569 2.43888,1.730863 3.57296,2.699631 l 0.93361,-0.933617 c -1.13046,-0.971488 -2.31734,-1.879669 -3.55614,-2.71644 z m 1.8961,-1.896099 c 1.23232,0.844294 2.4129,1.75837 3.54044,2.732151 l 0.93325,-0.933251 c -1.12515,-0.975414 -2.30294,-1.892166 -3.52911,-2.743479 z M 70.650101,114.1894 c 1.56378,1.09522 3.20807,2.08299 4.91984,2.95615 l 0.98112,-0.98112 c -1.72589,-0.8561 -3.38181,-1.83298 -4.95529,-2.9207 z m 1.89061,-1.89062 c 1.58408,1.07991 3.25421,2.04276 4.99549,2.88051 l 0.99172,-0.99172 c -1.75805,-0.81789 -3.44402,-1.76467 -5.0397,-2.83629 z m 1.89757,-1.89756 c 1.60818,1.06239 3.31018,1.99363 5.0861,2.78989 l 0.99793,-0.99793 c -1.79515,-0.77235 -3.51274,-1.68927 -5.13434,-2.74165 z M 126.16391,93.542049 c -0.84388,2.06759 -1.87753,4.03645 -3.08733,5.87977 l 0.95079,0.950791 c 1.22045,-1.827421 2.27521,-3.774991 3.14798,-5.819111 z m -18.29925,18.650761 0.99793,0.99793 c 1.77542,-0.79609 3.47684,-1.72702 5.08465,-2.78916 l -0.95006,-0.95005 c -1.62116,1.05217 -3.33786,1.96903 -5.13252,2.74128 z M 128.1773,95.555439 c -0.89897,2.02321 -1.97105,3.95242 -3.20133,5.765771 l 0.94494,0.94494 c 1.23938,-1.80026 2.32878,-3.711581 3.25213,-5.714971 z m -18.31824,18.631771 0.99171,0.99171 c 1.74068,-0.83756 3.40977,-1.80018 4.9933,-2.87977 l -0.94677,-0.9475 c -1.59534,1.07137 -3.28059,2.01781 -5.03824,2.83556 z m 20.30642,-16.643591 c -0.94571,1.98515 -2.05052,3.880441 -3.29853,5.668571 l 0.94495,0.94495 c 1.25595,-1.7772 2.37365,-3.65873 3.33982,-5.627281 z m -18.32957,18.620441 0.98112,0.98112 c 1.71117,-0.87292 3.35436,-1.86058 4.91765,-2.95542 l -0.9453,-0.9453 c -1.573,1.08732 -3.22816,2.06376 -4.95347,2.9196 z"
           style="color:#000000;font-style:normal;font-variant:normal;font-weight:normal;font-stretch:normal;font-size:medium;line-height:normal;font-family:sans-serif;font-variant-ligatures:normal;font-variant-position:normal;font-variant-caps:normal;font-variant-numeric:normal;font-variant-alternates:normal;font-feature-settings:normal;text-indent:0;text-align:start;text-decoration:none;text-decoration-line:none;text-decoration-style:solid;text-decoration-color:#000000;letter-spacing:normal;word-spacing:normal;text-transform:none;writing-mode:lr-tb;direction:ltr;text-orientation:mixed;dominant-baseline:auto;baseline-shift:baseline;text-anchor:start;white-space:normal;shape-padding:0;clip-rule:nonzero;display:inline;overflow:visible;visibility:visible;opacity:1;isolation:auto;mix-blend-mode:normal;color-interpolation:sRGB;color-interpolation-filters:linearRGB;solid-color:#000000;solid-opacity:1;vector-effect:none;fill:#333333;fill-opacity:1;fill-rule:nonzero;stroke:none;stroke-width:6.61458206;stroke-linecap:round;stroke-linejoin:round;stroke-miterlimit:4;stroke-dasharray:none;stroke-dashoffset:0;stroke-opacity:1;color-rendering:auto;image-rendering:auto;shape-rendering:auto;text-rendering:auto;enable-background:accumulate" />
      </g>
      <g
         id="text948"
         style="font-style:normal;font-variant:normal;font-weight:800;font-stretch:normal;font-size:7.06962872px;line-height:1.25;font-family:Montserrat;-inkscape-font-specification:'Montserrat, Ultra-Bold';font-variant-ligatures:normal;font-variant-caps:normal;font-variant-numeric:normal;font-feature-settings:normal;text-align:start;letter-spacing:0px;word-spacing:0px;writing-mode:lr-tb;text-anchor:start;fill:#333333;fill-opacity:1;stroke:none;stroke-width:0.26458332"
         aria-label="2020">
        <path
           id="path882"
           style="letter-spacing:0.85195839px;fill:#333333"
           d="m 88.830442,120.79017 -0.214956,1.08892 -3.780002,-0.74619 0.169775,-0.86004 2.152616,-1.34054 q 0.312849,-0.19767 0.437243,-0.35326 0.125763,-0.16253 0.161361,-0.34286 0.04655,-0.23582 -0.08696,-0.39909 -0.133509,-0.16327 -0.438683,-0.22351 -0.270496,-0.0534 -0.524021,0.0263 -0.245221,0.0741 -0.436054,0.27423 l -0.90729,-0.77 q 0.377469,-0.4155 0.944114,-0.58468 0.566644,-0.16918 1.267159,-0.0309 0.554862,0.10953 0.942347,0.37338 0.394421,0.26521 0.563149,0.65162 0.177033,0.38084 0.08941,0.82473 -0.07804,0.39534 -0.321263,0.71483 -0.234916,0.31393 -0.808047,0.66198 l -1.082559,0.66544 z"
           inkscape:connector-curvature="0" />
        <path
           id="path884"
           style="letter-spacing:0.85195839px;fill:#333333"
           d="m 92.035564,122.28564 q -0.635092,-0.0387 -1.110588,-0.37214 -0.475496,-0.33349 -0.722549,-0.9293 -0.239567,-0.60244 -0.191045,-1.39984 0.04852,-0.79739 0.358938,-1.35928 0.317903,-0.56852 0.830327,-0.8419 0.512424,-0.27337 1.147516,-0.23473 0.628035,0.0382 1.103532,0.37171 0.475496,0.33349 0.715063,0.93593 0.247053,0.59582 0.198531,1.39321 -0.04852,0.79739 -0.366424,1.36591 -0.310417,0.5619 -0.822841,0.83527 -0.512424,0.27338 -1.14046,0.23516 z m 0.06956,-1.14317 q 0.352829,0.0215 0.578081,-0.30479 0.232737,-0.33289 0.277824,-1.07383 0.04509,-0.74094 -0.146,-1.09254 -0.183601,-0.35822 -0.53643,-0.37969 -0.359885,-0.0219 -0.592623,0.31099 -0.225251,0.32626 -0.270338,1.0672 -0.04509,0.74094 0.138514,1.09917 0.191087,0.3516 0.550972,0.37349 z"
           inkscape:connector-curvature="0" />
        <path
           id="path886"
           style="letter-spacing:0.85195839px;fill:#333333"
           d="m 99.232752,120.89609 0.0827,1.10685 -3.842239,0.28707 -0.06531,-0.8742 1.718045,-1.86525 q 0.248937,-0.27381 0.327418,-0.45691 0.07796,-0.19015 0.06426,-0.37345 -0.01791,-0.2397 -0.190067,-0.36153 -0.172157,-0.12184 -0.482356,-0.0987 -0.27495,0.0205 -0.498118,0.16482 -0.216645,0.13671 -0.347312,0.38042 l -1.079539,-0.50067 q 0.253231,-0.50099 0.754387,-0.81492 0.501156,-0.31393 1.213204,-0.36713 0.563998,-0.0421 1.007742,0.10903 0.450794,0.15064 0.716303,0.47818 0.272032,0.31997 0.305743,0.77117 0.03002,0.40184 -0.119362,0.77456 -0.142863,0.36514 -0.60265,0.85321 l -0.866336,0.92963 z"
           inkscape:connector-curvature="0" />
        <path
           id="path888"
           style="letter-spacing:0.85195839px;fill:#333333"
           d="m 102.71972,121.47962 q -0.62221,0.13298 -1.16969,-0.0609 -0.54748,-0.19385 -0.94518,-0.70165 -0.39226,-0.5162 -0.55923,-1.29743 -0.166958,-0.78122 -0.0185,-1.40575 0.1539,-0.63293 0.57431,-1.03364 0.42042,-0.4007 1.04263,-0.53368 0.6153,-0.1315 1.16278,0.0623 0.54748,0.19385 0.93974,0.71005 0.3977,0.5078 0.56467,1.28903 0.16696,0.78122 0.013,1.41415 -0.14846,0.62453 -0.56888,1.02524 -0.42041,0.40071 -1.03571,0.53221 z m -0.23936,-1.11999 q 0.34568,-0.0739 0.47524,-0.44857 0.13501,-0.38309 -0.0201,-1.10901 -0.15514,-0.72592 -0.43347,-1.01344 -0.27289,-0.29591 -0.61857,-0.22204 -0.35259,0.0754 -0.48759,0.45845 -0.12957,0.37469 0.0256,1.10061 0.15514,0.72592 0.42803,1.02183 0.27833,0.28752 0.63092,0.21217 z"
           inkscape:connector-curvature="0" />
      </g>
      <g
         id="text829"
         style="font-style:normal;font-variant:normal;font-weight:800;font-stretch:normal;font-size:7.06962872px;line-height:1.25;font-family:Montserrat;-inkscape-font-specification:'Montserrat, Ultra-Bold';font-variant-ligatures:normal;font-variant-caps:normal;font-variant-numeric:normal;font-feature-settings:normal;text-align:start;letter-spacing:0px;word-spacing:0px;writing-mode:lr-tb;text-anchor:start;fill:#333333;fill-opacity:1;stroke:none;stroke-width:0.26458332"
         aria-label="SAILBOAT">
        <path
           id="path834"
           style="font-style:normal;font-variant:normal;font-weight:800;font-stretch:normal;font-size:7.06962872px;font-family:Montserrat;-inkscape-font-specification:'Montserrat, Ultra-Bold';font-variant-ligatures:normal;font-variant-caps:normal;font-variant-numeric:normal;font-feature-settings:normal;text-align:start;writing-mode:lr-tb;text-anchor:start;fill:#333333;stroke-width:0.26458332"
           d="m 61.112379,92.363608 q 0.172325,0.57568 0.192286,1.160071 0.01996,0.58439 -0.115716,0.993983 l -1.120593,-0.144233 q 0.114669,-0.381165 0.117655,-0.839592 0.003,-0.458428 -0.118655,-0.86479 -0.231118,-0.772088 -0.617162,-0.656529 -0.203181,0.06082 -0.231097,0.312702 -0.03672,0.247137 8.91e-4,0.767209 0.04502,0.569509 0.02379,0.966981 -0.028,0.399501 -0.242192,0.744039 -0.214187,0.344539 -0.708594,0.492535 -0.433453,0.129751 -0.849818,-0.0039 -0.423138,-0.131623 -0.766206,-0.538119 -0.345095,-0.413269 -0.549857,-1.097312 -0.139887,-0.467317 -0.167356,-0.953525 -0.03424,-0.484182 0.06554,-0.89041 l 1.119256,0.115115 q -0.162991,0.786747 0.02758,1.423381 0.119614,0.39959 0.296261,0.545961 0.169874,0.148398 0.35951,0.09163 0.189636,-0.05677 0.219578,-0.301875 0.02994,-0.24511 -0.01241,-0.756382 -0.04705,-0.576281 -0.01702,-0.969008 0.02123,-0.397473 0.235419,-0.742012 0.205387,-0.349284 0.699795,-0.49728 0.42668,-0.127723 0.843045,0.0059 0.416365,0.13365 0.768233,0.544891 0.345096,0.413269 0.54783,1.090539 z"
           inkscape:connector-curvature="0" />
        <path
           id="path836"
           style="font-style:normal;font-variant:normal;font-weight:800;font-stretch:normal;font-size:7.06962872px;font-family:Montserrat;-inkscape-font-specification:'Montserrat, Ultra-Bold';font-variant-ligatures:normal;font-variant-caps:normal;font-variant-numeric:normal;font-feature-settings:normal;text-align:start;writing-mode:lr-tb;text-anchor:start;fill:#333333;stroke-width:0.26458332"
           d="m 58.805091,86.522409 0.303822,2.070437 1.007735,0.245116 0.207338,1.412933 -5.213469,-1.44287 -0.200153,-1.36397 4.578112,-2.886861 0.211443,1.440912 z m -0.961696,0.555552 -1.474439,0.859444 1.659195,0.399606 z"
           inkscape:connector-curvature="0" />
        <path
           id="path838"
           style="font-style:normal;font-variant:normal;font-weight:800;font-stretch:normal;font-size:7.06962872px;font-family:Montserrat;-inkscape-font-specification:'Montserrat, Ultra-Bold';font-variant-ligatures:normal;font-variant-caps:normal;font-variant-numeric:normal;font-feature-settings:normal;text-align:start;writing-mode:lr-tb;text-anchor:start;fill:#333333;stroke-width:0.26458332"
           d="m 54.631588,84.306378 -0.04307,-1.399124 4.946397,-0.152267 0.04307,1.399124 z"
           inkscape:connector-curvature="0" />
        <path
           id="path840"
           style="font-style:normal;font-variant:normal;font-weight:800;font-stretch:normal;font-size:7.06962872px;font-family:Montserrat;-inkscape-font-specification:'Montserrat, Ultra-Bold';font-variant-ligatures:normal;font-variant-caps:normal;font-variant-numeric:normal;font-feature-settings:normal;text-align:start;writing-mode:lr-tb;text-anchor:start;fill:#333333;stroke-width:0.26458332"
           d="m 54.568097,81.422841 0.09256,-1.396723 3.830407,0.253828 0.15613,-2.356089 1.107503,0.07339 -0.248686,3.752812 z"
           inkscape:connector-curvature="0" />
        <path
           id="path843"
           style="font-style:normal;font-variant:normal;font-weight:800;font-stretch:normal;font-size:7.06962872px;font-family:Montserrat;-inkscape-font-specification:'Montserrat, Ultra-Bold';font-variant-ligatures:normal;font-variant-caps:normal;font-variant-numeric:normal;font-feature-settings:normal;text-align:start;writing-mode:lr-tb;text-anchor:start;fill:#333333;stroke-width:0.26458332"
           d="m 58.07565,73.196065 q 0.232238,-0.384751 0.592878,-0.554823 0.35372,-0.17152 0.789654,-0.08025 0.636602,0.133287 0.875373,0.717775 0.23877,0.584488 0.03594,1.55323 l -0.547635,2.615605 -4.843713,-1.01414 0.51866,-2.477213 q 0.194136,-0.927225 0.641529,-1.339157 0.440474,-0.413382 1.021719,-0.291685 0.34598,0.07244 0.586544,0.303379 0.235094,0.222572 0.329049,0.567276 z m -1.82404,2.088335 0.934144,0.195584 0.197033,-0.941064 q 0.144877,-0.691959 -0.325655,-0.790475 -0.463612,-0.09707 -0.60849,0.594891 z m 3.105205,-0.54886 q 0.150673,-0.719638 -0.340618,-0.8225 -0.491291,-0.102863 -0.641963,0.616774 l -0.240496,1.148652 0.982581,0.205725 z"
           inkscape:connector-curvature="0" />
        <path
           id="path845"
           style="font-style:normal;font-variant:normal;font-weight:800;font-stretch:normal;font-size:7.06962872px;font-family:Montserrat;-inkscape-font-specification:'Montserrat, Ultra-Bold';font-variant-ligatures:normal;font-variant-caps:normal;font-variant-numeric:normal;font-feature-settings:normal;text-align:start;writing-mode:lr-tb;text-anchor:start;fill:#333333;stroke-width:0.26458332"
           d="m 61.991302,69.836106 q -0.282828,0.731989 -0.819541,1.199143 -0.534166,0.460559 -1.211457,0.585394 -0.674743,0.118241 -1.36057,-0.146752 -0.685827,-0.264992 -1.10577,-0.806201 -0.417395,-0.547803 -0.503112,-1.247874 -0.08317,-0.706666 0.199659,-1.438655 0.282829,-0.731989 0.816994,-1.192548 0.536713,-0.467154 1.211456,-0.585394 0.677291,-0.124835 1.363118,0.140157 0.685828,0.264992 1.103223,0.812795 0.419942,0.541209 0.503111,1.247875 0.08572,0.700072 -0.197111,1.43206 z m -1.081497,-0.417872 q 0.135044,-0.349508 0.07975,-0.696771 -0.0553,-0.347264 -0.28835,-0.626786 -0.239647,-0.28207 -0.628722,-0.432403 -0.389075,-0.150332 -0.749527,-0.100129 -0.367047,0.04765 -0.641473,0.267517 -0.274427,0.219863 -0.409471,0.569371 -0.135044,0.349508 -0.07975,0.696772 0.0553,0.347263 0.294945,0.629333 0.233052,0.279523 0.622127,0.429855 0.389076,0.150332 0.756122,0.102678 0.360453,-0.0502 0.634879,-0.270066 0.274426,-0.219863 0.40947,-0.569371 z"
           inkscape:connector-curvature="0" />
        <path
           id="path847"
           style="font-style:normal;font-variant:normal;font-weight:800;font-stretch:normal;font-size:7.06962872px;font-family:Montserrat;-inkscape-font-specification:'Montserrat, Ultra-Bold';font-variant-ligatures:normal;font-variant-caps:normal;font-variant-numeric:normal;font-feature-settings:normal;text-align:start;writing-mode:lr-tb;text-anchor:start;fill:#333333;stroke-width:0.26458332"
           d="m 64.070064,63.301736 -1.055536,1.806892 0.634064,0.820716 -0.720332,1.233082 -3.171163,-4.382449 0.69537,-1.190351 5.378517,0.603846 -0.734596,1.257499 z m -1.098066,-0.166583 -1.688318,-0.249391 1.046438,1.348177 z"
           inkscape:connector-curvature="0" />
        <path
           id="path849"
           style="font-style:normal;font-variant:normal;font-weight:800;font-stretch:normal;font-size:7.06962872px;font-family:Montserrat;-inkscape-font-specification:'Montserrat, Ultra-Bold';font-variant-ligatures:normal;font-variant-caps:normal;font-variant-numeric:normal;font-feature-settings:normal;text-align:start;writing-mode:lr-tb;text-anchor:start;fill:#333333;stroke-width:0.26458332"
           d="m 63.628653,58.912919 -0.942466,1.192505 -0.870805,-0.68822 2.748494,-3.477675 0.870806,0.688219 -0.938083,1.186958 3.011767,2.380275 -0.867946,1.098213 z"
           inkscape:connector-curvature="0" />
      </g>
      <g
         id="text857"
         style="font-style:normal;font-variant:normal;font-weight:800;font-stretch:normal;font-size:7.06962872px;line-height:1.25;font-family:Montserrat;-inkscape-font-specification:'Montserrat, Ultra-Bold';font-variant-ligatures:normal;font-variant-caps:normal;font-variant-numeric:normal;font-feature-settings:normal;text-align:start;letter-spacing:0px;word-spacing:0px;writing-mode:lr-tb;text-anchor:start;fill:#333333;fill-opacity:1;stroke:none;stroke-width:0.26458332"
         aria-label="SOFTWARE">
        <path
           id="path862"
           style="font-style:normal;font-variant:normal;font-weight:800;font-stretch:normal;font-size:7.06962872px;font-family:Montserrat;-inkscape-font-specification:'Montserrat, Ultra-Bold';font-variant-ligatures:normal;font-variant-caps:normal;font-variant-numeric:normal;font-feature-settings:normal;text-align:start;writing-mode:lr-tb;text-anchor:start;fill:#333333;stroke-width:0.26458332"
           d="m 119.34281,58.201508 q -0.41791,-0.431802 -0.70456,-0.941452 -0.28665,-0.50965 -0.35468,-0.935733 l 1.06127,-0.387624 q 0.0736,0.391176 0.2819,0.799553 0.20831,0.408377 0.50331,0.713178 0.56049,0.579122 0.85006,0.298875 0.1524,-0.147498 0.0613,-0.383971 -0.0811,-0.23631 -0.35385,-0.680737 -0.30205,-0.484904 -0.46611,-0.847561 -0.15898,-0.367573 -0.12737,-0.772028 0.0316,-0.404455 0.40245,-0.763367 0.32512,-0.314663 0.75628,-0.38761 0.43625,-0.07786 0.92789,0.12516 0.49657,0.208103 0.99314,0.721185 0.33925,0.350521 0.58738,0.769548 0.25322,0.41411 0.35156,0.82069 l -1.04667,0.41286 q -0.21734,-0.773499 -0.67951,-1.25102 -0.29008,-0.299721 -0.51426,-0.348383 -0.21911,-0.05358 -0.36135,0.08409 -0.14224,0.137665 -0.056,0.369058 0.0862,0.231394 0.35909,0.665824 0.30697,0.489984 0.46103,0.852477 0.16406,0.362657 0.13245,0.767112 -0.0216,0.404618 -0.39245,0.763531 -0.32005,0.309746 -0.75121,0.382693 -0.43116,0.07295 -0.9328,-0.13024 -0.49657,-0.208103 -0.98823,-0.716105 z"
           inkscape:connector-curvature="0" />
        <path
           id="path864"
           style="font-style:normal;font-variant:normal;font-weight:800;font-stretch:normal;font-size:7.06962872px;font-family:Montserrat;-inkscape-font-specification:'Montserrat, Ultra-Bold';font-variant-ligatures:normal;font-variant-caps:normal;font-variant-numeric:normal;font-feature-settings:normal;text-align:start;writing-mode:lr-tb;text-anchor:start;fill:#333333;stroke-width:0.26458332"
           d="m 122.73862,62.279479 q -0.4545,-0.639711 -0.54805,-1.345078 -0.0894,-0.699604 0.18007,-1.333375 0.27361,-0.628008 0.87298,-1.053845 0.59937,-0.425836 1.28244,-0.477527 0.68717,-0.04593 1.31836,0.268784 0.63528,0.320477 1.08978,0.960188 0.4545,0.639712 0.54395,1.339316 0.0936,0.705367 -0.18006,1.333375 -0.26952,0.633771 -0.86889,1.059607 -0.59937,0.425837 -1.28653,0.471765 -0.68308,0.05169 -1.31836,-0.268785 -0.63119,-0.314713 -1.08569,-0.954425 z m 0.94516,-0.67151 q 0.21701,0.305447 0.53716,0.450899 0.32014,0.145452 0.68185,0.105275 0.36747,-0.04427 0.7075,-0.285852 0.34002,-0.24158 0.497,-0.569915 0.16274,-0.33243 0.13075,-0.68261 -0.032,-0.350181 -0.249,-0.655629 -0.21701,-0.305447 -0.53716,-0.450899 -0.32014,-0.145452 -0.68761,-0.10118 -0.36171,0.04018 -0.70174,0.281757 -0.34002,0.24158 -0.50276,0.574009 -0.15698,0.328336 -0.12499,0.678516 0.032,0.350181 0.249,0.655629 z"
           inkscape:connector-curvature="0" />
        <path
           id="path866"
           style="font-style:normal;font-variant:normal;font-weight:800;font-stretch:normal;font-size:7.06962872px;font-family:Montserrat;-inkscape-font-specification:'Montserrat, Ultra-Bold';font-variant-ligatures:normal;font-variant-caps:normal;font-variant-numeric:normal;font-feature-settings:normal;text-align:start;writing-mode:lr-tb;text-anchor:start;fill:#333333;stroke-width:0.26458332"
           d="m 128.81606,64.653509 -0.97309,0.488275 0.97972,1.9525 -0.96677,0.485104 -0.97972,-1.9525 -1.5165,0.760947 -0.62779,-1.251116 4.42314,-2.21943 1.74067,3.469004 -0.96677,0.485104 z"
           inkscape:connector-curvature="0" />
        <path
           id="path868"
           style="font-style:normal;font-variant:normal;font-weight:800;font-stretch:normal;font-size:7.06962872px;font-family:Montserrat;-inkscape-font-specification:'Montserrat, Ultra-Bold';font-variant-ligatures:normal;font-variant-caps:normal;font-variant-numeric:normal;font-feature-settings:normal;text-align:start;writing-mode:lr-tb;text-anchor:start;fill:#333333;stroke-width:0.26458332"
           d="m 130.69608,68.996089 -0.50122,-1.434951 1.04785,-0.36601 1.4617,4.184718 -1.04784,0.36601 -0.4989,-1.428277 -3.62408,1.265882 -0.46159,-1.32149 z"
           inkscape:connector-curvature="0" />
        <path
           id="path870"
           style="font-style:normal;font-variant:normal;font-weight:800;font-stretch:normal;font-size:7.06962872px;font-family:Montserrat;-inkscape-font-specification:'Montserrat, Ultra-Bold';font-variant-ligatures:normal;font-variant-caps:normal;font-variant-numeric:normal;font-feature-settings:normal;text-align:start;writing-mode:lr-tb;text-anchor:start;fill:#333333;stroke-width:0.26458332"
           d="m 134.34801,80.273419 -5.1393,-0.808117 -0.23526,-1.480182 2.82563,-1.408322 -3.12969,-0.504744 -0.23526,-1.480182 4.63549,-2.361706 0.22638,1.424326 -2.96448,1.480499 3.28519,0.537296 0.20197,1.270723 -2.99241,1.484938 3.312,0.525875 z"
           inkscape:connector-curvature="0" />
        <path
           id="path872"
           style="font-style:normal;font-variant:normal;font-weight:800;font-stretch:normal;font-size:7.06962872px;font-family:Montserrat;-inkscape-font-specification:'Montserrat, Ultra-Bold';font-variant-ligatures:normal;font-variant-caps:normal;font-variant-numeric:normal;font-feature-settings:normal;text-align:start;writing-mode:lr-tb;text-anchor:start;fill:#333333;stroke-width:0.26458332"
           d="m 130.13194,84.758977 0.0776,-2.09117 -0.94639,-0.424218 0.053,-1.427083 4.86432,2.366535 -0.0511,1.377629 -5.02661,2.006555 0.054,-1.455341 z m 1.04666,-0.371479 1.6061,-0.577102 -1.55891,-0.694555 z"
           inkscape:connector-curvature="0" />
        <path
           id="path874"
           style="font-style:normal;font-variant:normal;font-weight:800;font-stretch:normal;font-size:7.06962872px;font-family:Montserrat;-inkscape-font-specification:'Montserrat, Ultra-Bold';font-variant-ligatures:normal;font-variant-caps:normal;font-variant-numeric:normal;font-feature-settings:normal;text-align:start;writing-mode:lr-tb;text-anchor:start;fill:#333333;stroke-width:0.26458332"
           d="m 129.87897,89.331525 0.14526,-0.749575 -1.29094,-0.250169 0.26631,-1.37422 4.85836,0.941495 -0.4304,2.220962 q -0.12778,0.659348 -0.44402,1.102144 -0.30931,0.444141 -0.76991,0.628526 -0.45366,0.185729 -1.00196,0.07947 -0.52747,-0.102219 -0.87466,-0.428742 -0.3416,-0.318238 -0.47492,-0.819351 l -1.73001,0.752118 0.28514,-1.471387 z m 1.6017,1.210537 q 0.34009,0.0659 0.56918,-0.112937 0.22908,-0.178841 0.31113,-0.602212 l 0.14795,-0.763456 -1.42281,-0.275723 -0.14795,0.763456 q -0.082,0.423371 0.0567,0.673496 0.1457,0.251471 0.48578,0.317376 z"
           inkscape:connector-curvature="0" />
        <path
           id="path876"
           style="font-style:normal;font-variant:normal;font-weight:800;font-stretch:normal;font-size:7.06962872px;font-family:Montserrat;-inkscape-font-specification:'Montserrat, Ultra-Bold';font-variant-ligatures:normal;font-variant-caps:normal;font-variant-numeric:normal;font-feature-settings:normal;text-align:start;writing-mode:lr-tb;text-anchor:start;fill:#333333;stroke-width:0.26458332"
           d="m 127.63166,96.188438 -1.02148,-0.355746 1.30673,-3.752098 4.67343,1.627595 -1.2765,3.665306 -1.02148,-0.355746 0.82077,-2.356745 -0.7878,-0.274366 -0.72312,2.076339 -0.9881,-0.34412 0.72312,-2.076339 -0.85457,-0.297617 z"
           inkscape:connector-curvature="0" />
      </g>
    </g>
  </g>
</svg>
