<?xml version="1.0" encoding="UTF-8" standalone="no"?>
<!-- Created with Inkscape (http://www.inkscape.org/) -->

<svg
   xmlns:dc="http://purl.org/dc/elements/1.1/"
   xmlns:cc="http://creativecommons.org/ns#"
   xmlns:rdf="http://www.w3.org/1999/02/22-rdf-syntax-ns#"
   xmlns:svg="http://www.w3.org/2000/svg"
   xmlns="http://www.w3.org/2000/svg"
   xmlns:sodipodi="http://sodipodi.sourceforge.net/DTD/sodipodi-0.dtd"
   xmlns:inkscape="http://www.inkscape.org/namespaces/inkscape"
   width="500"
   height="336.36697"
   viewBox="0 0 500 336.36698"
   id="svg2"
   version="1.1"
   inkscape:version="0.91 r13725"
   inkscape:export-filename="C:\Users\Brayan\Desktop\g4163.png"
   inkscape:export-xdpi="92.160004"
   inkscape:export-ydpi="92.160004"
   sodipodi:docname="Blackboard.svg">
  <defs
     id="defs4" />
  <sodipodi:namedview
     id="base"
     pagecolor="#ffffff"
     bordercolor="#666666"
     borderopacity="1.0"
     inkscape:pageopacity="1"
     inkscape:pageshadow="2"
     inkscape:zoom="1"
     inkscape:cx="165.4285"
     inkscape:cy="148.65261"
     inkscape:document-units="px"
     inkscape:current-layer="layer1"
     showgrid="false"
     showborder="true"
     inkscape:window-width="1366"
     inkscape:window-height="705"
     inkscape:window-x="-8"
     inkscape:window-y="-8"
     inkscape:window-maximized="1"
     units="px"
     fit-margin-top="32"
     fit-margin-left="32"
     fit-margin-right="32"
     fit-margin-bottom="32" />
  <metadata
     id="metadata7">
    <rdf:RDF>
      <cc:Work
         rdf:about="">
        <dc:format>image/svg+xml</dc:format>
        <dc:type
           rdf:resource="http://purl.org/dc/dcmitype/StillImage" />
        <dc:title></dc:title>
      </cc:Work>
    </rdf:RDF>
  </metadata>
  <g
     inkscape:label="Layer 1"
     inkscape:groupmode="layer"
     id="layer1"
     transform="translate(273,-355.36221)">
    <g
       id="g4163">
      <rect
         ry="25"
         y="387.36221"
         x="-241"
         height="272"
         width="436"
         id="rect4136"
         style="opacity:1;fill:#c8ab37;fill-opacity:1;stroke:none;stroke-width:6;stroke-miterlimit:4;stroke-dasharray:none;stroke-opacity:0.73125" />
      <rect
         style="opacity:1;fill:#008000;fill-opacity:1;stroke:none;stroke-width:6;stroke-miterlimit:4;stroke-dasharray:none;stroke-opacity:0.73125"
         id="rect4140"
         width="419.11765"
         height="261.4679"
         x="-232.55882"
         y="392.62827"
         ry="24.031975" />
      <rect
         style="opacity:1;fill:#916f6f;fill-opacity:1;stroke:none;stroke-width:6;stroke-miterlimit:4;stroke-dasharray:none;stroke-opacity:0.73125"
         id="rect4138"
         width="51.294117"
         height="32"
         x="-161.64706"
         y="627.36218"
         ry="2.9411764" />
      <path
         id="rect4148"
         d="m -71.103516,606.12305 c -1.279737,0.0599 -2.377473,1.00889 -2.582031,2.32617 l -3.052734,19.66211 -1.63086,-1.63086 -4.769531,-17.79688 c -0.394311,-1.47158 -1.895599,-2.33962 -3.367187,-1.94531 -1.471588,0.39431 -2.339624,1.8956 -1.945313,3.36719 l 2.302734,8.5957 -5.205078,-5.20703 c -1.077277,-1.07728 -2.811394,-1.07728 -3.888672,0 -1.077277,1.07728 -1.077277,2.8114 0,3.88867 l 11.941407,11.94336 2.939453,10.96485 c 0.394311,1.47158 1.895599,2.33962 3.367187,1.94531 0.01591,-0.004 0.02915,-0.0131 0.04492,-0.0176 0.237683,0.11367 0.489291,0.20739 0.763672,0.25 1.505457,0.23378 2.904892,-0.79142 3.138672,-2.29687 l 0.08398,-0.54102 c 1.082661,0.91196 2.684926,0.86976 3.705079,-0.15039 0.941532,-0.94153 1.05972,-2.38507 0.355468,-3.45313 l 2.337891,-2.33789 -1.386719,5.17774 c -0.394311,1.47159 0.473725,2.97483 1.945313,3.36914 1.471588,0.39431 2.972876,-0.47373 3.367187,-1.94531 l 3.853516,-14.38086 10.527344,-10.52735 c 1.077277,-1.07727 1.077276,-2.81139 0,-3.88867 -1.077278,-1.07728 -2.811395,-1.07728 -3.888672,0 l -3.791016,3.79102 1.388672,-5.17969 c 0.394311,-1.47159 -0.473725,-2.97288 -1.945313,-3.36719 -1.471588,-0.39431 -2.972876,0.47373 -3.367187,1.94531 l -3.853516,14.38086 -7.902344,7.90235 3.365235,-21.67383 c 0.23378,-1.50546 -0.789466,-2.90685 -2.294922,-3.14063 -0.188182,-0.0292 -0.373821,-0.0378 -0.556641,-0.0293 z"
         style="opacity:1;fill:#ffffff;fill-opacity:1;stroke:none;stroke-width:6;stroke-miterlimit:4;stroke-dasharray:none;stroke-opacity:0.73125"
         inkscape:connector-curvature="0" />
      <rect
         ry="1.07849"
         y="619.36218"
         x="-92"
         height="33"
         width="40"
         id="rect4146"
         style="opacity:1;fill:#462713;fill-opacity:1;stroke:none;stroke-width:6;stroke-miterlimit:4;stroke-dasharray:none;stroke-opacity:0.73125" />
      <rect
         ry="1.0784875"
         y="647.99524"
         x="-168.64706"
         height="11.733944"
         width="155.29411"
         id="rect4144"
         style="opacity:1;fill:#c8ab37;fill-opacity:1;stroke:none;stroke-width:6;stroke-miterlimit:4;stroke-dasharray:none;stroke-opacity:0.73125" />
    </g>
  </g>
</svg>
