<?xml version="1.0" encoding="UTF-8" standalone="no"?>
<!-- Created with Inkscape (http://www.inkscape.org/) -->

<svg
   xmlns:dc="http://purl.org/dc/elements/1.1/"
   xmlns:cc="http://creativecommons.org/ns#"
   xmlns:rdf="http://www.w3.org/1999/02/22-rdf-syntax-ns#"
   xmlns:svg="http://www.w3.org/2000/svg"
   xmlns="http://www.w3.org/2000/svg"
   xmlns:sodipodi="http://sodipodi.sourceforge.net/DTD/sodipodi-0.dtd"
   xmlns:inkscape="http://www.inkscape.org/namespaces/inkscape"
   width="951.89471"
   height="438.31552"
   viewBox="0 0 951.89472 438.31553"
   id="svg4291"
   version="1.1"
   inkscape:version="0.91 r13725"
   sodipodi:docname="Abstract Material Sun.svg"
   inkscape:export-filename="C:\Users\brayan.bedritchuk\Desktop\g4877.png"
   inkscape:export-xdpi="48.41"
   inkscape:export-ydpi="48.41">
  <defs
     id="defs4293" />
  <sodipodi:namedview
     id="base"
     pagecolor="#ffffff"
     bordercolor="#666666"
     borderopacity="1.0"
     inkscape:pageopacity="1"
     inkscape:pageshadow="2"
     inkscape:zoom="0.70710678"
     inkscape:cx="626.97039"
     inkscape:cy="262.36743"
     inkscape:document-units="px"
     inkscape:current-layer="layer1"
     showgrid="false"
     showborder="true"
     inkscape:object-paths="true"
     inkscape:object-nodes="true"
     inkscape:snap-smooth-nodes="true"
     inkscape:snap-intersection-paths="true"
     inkscape:snap-nodes="false"
     inkscape:window-width="1680"
     inkscape:window-height="987"
     inkscape:window-x="-8"
     inkscape:window-y="-8"
     inkscape:window-maximized="1"
     units="px"
     fit-margin-top="32"
     fit-margin-left="32"
     fit-margin-right="32"
     fit-margin-bottom="32" />
  <metadata
     id="metadata4296">
    <rdf:RDF>
      <cc:Work
         rdf:about="">
        <dc:format>image/svg+xml</dc:format>
        <dc:type
           rdf:resource="http://purl.org/dc/dcmitype/StillImage" />
        <dc:title></dc:title>
      </cc:Work>
    </rdf:RDF>
  </metadata>
  <g
     inkscape:label="Layer 1"
     inkscape:groupmode="layer"
     id="layer1"
     transform="translate(515.57385,-30.716216)">
    <path
       style="opacity:1;fill:#80b3ff;fill-opacity:1;stroke:none;stroke-width:40;stroke-miterlimit:4;stroke-dasharray:none;stroke-opacity:1"
       d="m -167.67914,137.81202 0,200.29898 442,0 59.81641,0 c 8.3263,0 15.02929,-5.7791 15.02929,-12.95777 0,-7.17867 -6.70299,-12.95945 -15.02929,-12.95945 l -59.81641,0 -118.37501,0 c -10.8726,0 -19.625,-7.54603 -19.625,-16.92003 0,-9.37401 8.7524,-16.92004 19.625,-16.92004 l 118.37501,0 110.375,0 2.12109,0 c 9.69739,0 17.50391,-6.73052 17.50391,-15.0913 0,-8.36076 -7.80652,-15.09297 -17.50391,-15.09297 l -14.49609,0 -98,0 -138.00001,0 c -17.728,0 -32,-12.30485 -32,-27.58935 0,-15.28452 14.272,-27.58936 32,-27.58936 l 138.00001,0 98,0 c 17.728,0 32,-12.30484 32,-27.58935 0,-15.28451 -14.272,-27.58936 -32,-27.58936 l -98,0 -138.00001,0 -303.99999,0 z"
       id="rect4839"
       inkscape:connector-curvature="0" />
    <path
       id="path4856"
       d="m -71.744042,406.82904 0,-169.51649 -318.232118,0 -43.06675,0 c -5.99479,0 -10.82082,4.89096 -10.82082,10.96639 0,6.07543 4.82603,10.9678 10.82082,10.9678 l 43.06675,0 85.22789,0 c 7.82808,0 14.12965,6.38634 14.12965,14.31972 0,7.93338 -6.30157,14.31972 -14.12965,14.31972 l -85.22789,0 -79.46804,0 -1.52714,0 c -6.98195,0 -12.60251,5.69615 -12.60251,12.77202 0,7.07587 5.62056,12.77345 12.60251,12.77345 l 10.43692,0 70.55826,0 99.35754,0 c 12.76384,0 23.03943,10.41381 23.03943,23.34935 0,12.93553 -10.27559,23.34935 -23.03943,23.34935 l -99.35754,0 -70.55826,0 c -12.76384,0 -23.03943,10.4138 -23.03943,23.34934 0,12.93554 10.27559,23.34935 23.03943,23.34935 l 70.55826,0 99.35754,0 218.874578,0 z"
       style="opacity:1;fill:#80b3ff;fill-opacity:1;stroke:none;stroke-width:40;stroke-miterlimit:4;stroke-dasharray:none;stroke-opacity:1"
       inkscape:connector-curvature="0" />
    <g
       id="g4867">
      <circle
         r="179.60512"
         cy="249.87396"
         cx="-82.355339"
         id="path4858"
         style="opacity:1;fill:#ffcc00;fill-opacity:1;stroke:none;stroke-width:40;stroke-miterlimit:4;stroke-dasharray:none;stroke-opacity:1" />
      <path
         id="circle4860"
         d="M -82.355469,70.269531 A 179.60512,179.60512 0 0 0 -261.96094,249.87305 179.60512,179.60512 0 0 0 -168.91797,407.21289 179.60512,179.60512 0 0 1 -208.2207,295.12891 179.60512,179.60512 0 0 1 -28.615234,115.52344 179.60512,179.60512 0 0 1 57.945312,137.78711 179.60512,179.60512 0 0 0 -82.355469,70.269531 Z"
         style="opacity:1;fill:#ffdc50;fill-opacity:1;stroke:none;stroke-width:40;stroke-miterlimit:4;stroke-dasharray:none;stroke-opacity:1"
         inkscape:connector-curvature="0" />
    </g>
  </g>
</svg>
