<?xml version="1.0" encoding="UTF-8" standalone="no"?>
<!-- Created with Inkscape (http://www.inkscape.org/) -->

<svg
   xmlns:dc="http://purl.org/dc/elements/1.1/"
   xmlns:cc="http://creativecommons.org/ns#"
   xmlns:rdf="http://www.w3.org/1999/02/22-rdf-syntax-ns#"
   xmlns:svg="http://www.w3.org/2000/svg"
   xmlns="http://www.w3.org/2000/svg"
   xmlns:sodipodi="http://sodipodi.sourceforge.net/DTD/sodipodi-0.dtd"
   xmlns:inkscape="http://www.inkscape.org/namespaces/inkscape"
   width="193.85139mm"
   height="107.87708mm"
   viewBox="0 0 686.87502 382.24163"
   id="svg2"
   version="1.1"
   inkscape:version="0.91 r13725"
   sodipodi:docname="Sky.svg"
   inkscape:export-filename="C:\Users\brayan.bedritchuk\Desktop\path4229.png"
   inkscape:export-xdpi="23"
   inkscape:export-ydpi="23">
  <defs
     id="defs4" />
  <sodipodi:namedview
     id="base"
     pagecolor="#ffffff"
     bordercolor="#666666"
     borderopacity="1.0"
     inkscape:pageopacity="0.0"
     inkscape:pageshadow="2"
     inkscape:zoom="0.5"
     inkscape:cx="615.14772"
     inkscape:cy="351.29545"
     inkscape:document-units="px"
     inkscape:current-layer="layer1"
     showgrid="false"
     inkscape:window-width="1680"
     inkscape:window-height="987"
     inkscape:window-x="-8"
     inkscape:window-y="-8"
     inkscape:window-maximized="1"
     fit-margin-top="0"
     fit-margin-left="0"
     fit-margin-right="0"
     fit-margin-bottom="0" />
  <metadata
     id="metadata7">
    <rdf:RDF>
      <cc:Work
         rdf:about="">
        <dc:format>image/svg+xml</dc:format>
        <dc:type
           rdf:resource="http://purl.org/dc/dcmitype/StillImage" />
        <dc:title></dc:title>
      </cc:Work>
    </rdf:RDF>
  </metadata>
  <g
     inkscape:label="Layer 1"
     inkscape:groupmode="layer"
     id="layer1"
     transform="translate(-492.73288,-1950.2625)">
    <rect
       style="opacity:1;fill:#2b3e51;fill-opacity:1;stroke:none;stroke-width:6;stroke-miterlimit:4;stroke-dasharray:none;stroke-opacity:1"
       id="rect4214"
       width="686.875"
       height="382.24164"
       x="492.73288"
       y="1950.2625" />
    <path
       inkscape:connector-curvature="0"
       id="path4216"
       d="m 652.23236,2060.2598 a 30.249341,30.249341 0 0 1 28.90455,21.3331 23.374492,23.374492 0 0 1 9.59451,-2.0836 23.374492,23.374492 0 0 1 23.37484,23.3749 23.374492,23.374492 0 0 1 -0.003,0.049 23.374492,23.374492 0 0 1 22.00106,23.3257 23.374492,23.374492 0 0 1 -1.04543,6.8748 l -160.95946,0 a 42.624073,42.624073 0 0 1 -0.24127,-4.1246 42.624073,42.624073 0 0 1 42.62438,-42.6244 42.624073,42.624073 0 0 1 5.76294,0.4406 30.249341,30.249341 0 0 1 29.98588,-26.565 z"
       style="opacity:1;fill:#ffffff;fill-opacity:1;stroke:none;stroke-width:6;stroke-miterlimit:4;stroke-dasharray:none;stroke-opacity:1" />
    <g
       id="g4239"
       style="fill:#39546d;fill-opacity:1"
       transform="matrix(0.34028772,0,0,0.34028772,1128.8735,856.87132)">
      <rect
         style="opacity:1;fill:#39546d;fill-opacity:1;stroke:none;stroke-width:6;stroke-miterlimit:4;stroke-dasharray:none;stroke-opacity:1"
         id="rect4233"
         width="602.85712"
         height="108.57143"
         x="-1754.2858"
         y="3998.0767"
         ry="54.285713" />
      <rect
         ry="54.285713"
         y="4083.791"
         x="-1605.7142"
         height="108.57143"
         width="602.85712"
         id="rect4235"
         style="opacity:1;fill:#39546d;fill-opacity:1;stroke:none;stroke-width:6;stroke-miterlimit:4;stroke-dasharray:none;stroke-opacity:1" />
      <rect
         ry="54.285713"
         y="3923.7908"
         x="-1668.5714"
         height="108.57143"
         width="602.85712"
         id="rect4237"
         style="opacity:1;fill:#39546d;fill-opacity:1;stroke:none;stroke-width:6;stroke-miterlimit:4;stroke-dasharray:none;stroke-opacity:1" />
    </g>
    <g
       id="g4189"
       transform="matrix(0.23672195,0,0,0.23672195,1421.8782,2055.3789)">
      <path
         inkscape:connector-curvature="0"
         id="rect4147"
         d="m -2817.8053,-134.13856 -43.2461,43.246097 -52.9649,-30.580097 -30.5801,52.966797 -59.0761,-15.8301 -15.8301,59.0762 -61.1602,0 0,61.16021 -59.0742,15.8281 15.8301,59.076203 -52.9668,30.58 30.5801,52.9649 -43.2481,43.248 43.2461,43.2461 -30.5781,52.9649 52.9668,30.5801 -15.8301,59.0761 59.0742,15.8282 0,61.1621 61.1621,0 15.8282,59.0742 59.0761,-15.8301 30.5801,52.9668 52.9649,-30.5781 43.2461,43.2461 43.248,-43.2481 52.9648,30.5801 30.5801,-52.9668 59.0762,15.8301 15.8281,-59.0742 61.1602,0 0,-61.1621 59.0762,-15.8282 -15.8301,-59.0761 52.9668,-30.5801 -30.5801,-52.9649 43.2461,-43.2461 -43.2461,-43.2461 30.5801,-52.9668 -52.9668,-30.58 15.8301,-59.076203 -59.0762,-15.8301 0,-61.15821 -61.1582,0 -15.8301,-59.0762 -59.0762,15.8301 -30.5801,-52.966797 -52.9668,30.580097 -43.246,-43.246097 z"
         style="opacity:1;fill:#ff7f2a;fill-opacity:1;stroke:none;stroke-width:6;stroke-miterlimit:4;stroke-dasharray:none;stroke-opacity:1" />
      <circle
         r="280"
         cy="237.59784"
         cx="-2817.8054"
         id="path4160"
         style="opacity:1;fill:#fcc900;fill-opacity:1;stroke:none;stroke-width:6;stroke-miterlimit:4;stroke-dasharray:none;stroke-opacity:1" />
      <path
         inkscape:connector-curvature="0"
         id="circle4184"
         d="m -2817.8044,-42.402283 a 280,280 0 0 0 -280,280.000033 280,280 0 0 0 111.875,223.4746 280,280 0 0 1 -49.0195,-157.7598 280,280 0 0 1 280,-279.999993 280,280 0 0 1 168.127,56.52929 280,280 0 0 0 -230.9825,-122.24413 z"
         style="opacity:1;fill:#ffd42a;fill-opacity:1;stroke:none;stroke-width:6;stroke-miterlimit:4;stroke-dasharray:none;stroke-opacity:1" />
    </g>
    <path
       style="opacity:1;fill:#ffffff;fill-opacity:1;stroke:none;stroke-width:6;stroke-miterlimit:4;stroke-dasharray:none;stroke-opacity:1"
       d="m 976.7224,2151.0078 a 30.249341,30.249341 0 0 0 -28.90452,21.3331 23.374492,23.374492 0 0 0 -9.59451,-2.0836 23.374492,23.374492 0 0 0 -23.37484,23.3749 23.374492,23.374492 0 0 0 0.003,0.048 23.374492,23.374492 0 0 0 -22.00107,23.3257 23.374492,23.374492 0 0 0 1.04544,6.8748 l 160.9594,0 a 42.624073,42.624073 0 0 0 0.2413,-4.1246 42.624073,42.624073 0 0 0 -42.6244,-42.6244 42.624073,42.624073 0 0 0 -5.7629,0.4406 30.249341,30.249341 0 0 0 -29.98591,-26.565 z"
       id="path4198"
       inkscape:connector-curvature="0" />
    <path
       style="opacity:1;fill:#39546d;fill-opacity:1;stroke:none;stroke-width:6;stroke-miterlimit:4;stroke-dasharray:none;stroke-opacity:1"
       d="m 919.12091,2014.541 163.08969,0 c 4.7805,0 8.1012,2.6795 8.6291,5.9626 l 2.5887,16.0988 c 0.5279,3.2831 -6.4373,2.3851 -11.2178,2.3851 l -163.08969,0 c -4.7805,0 -12.36174,-0.585 -11.6799,-3.8545 l 3.05081,-14.6294 c 0.68184,-3.2695 3.84859,-5.9626 8.62909,-5.9626 z"
       id="rect4218"
       inkscape:connector-curvature="0"
       sodipodi:nodetypes="sssssssss" />
    <rect
       style="opacity:1;fill:#39546d;fill-opacity:1;stroke:none;stroke-width:6;stroke-miterlimit:4;stroke-dasharray:none;stroke-opacity:1"
       id="rect4227"
       width="323.59067"
       height="24.814966"
       x="825.0639"
       y="2032.8969"
       ry="12.407483" />
    <path
       sodipodi:nodetypes="sssssssss"
       inkscape:connector-curvature="0"
       id="path4229"
       d="m 891.05316,2074.4895 163.08974,0 c 4.7805,0 8.1011,-2.5463 8.629,-5.6662 l 2.5888,-15.2989 c 0.5279,-3.1199 -6.4373,-2.2665 -11.2178,-2.2665 l -163.08974,0 c -4.7805,0 -12.36177,0.5559 -11.67993,3.6629 l 3.05085,13.9025 c 0.68183,3.107 3.84858,5.6662 8.62908,5.6662 z"
       style="opacity:1;fill:#39546d;fill-opacity:1;stroke:none;stroke-width:6;stroke-miterlimit:4;stroke-dasharray:none;stroke-opacity:1" />
  </g>
</svg>
