<?xml version="1.0" encoding="UTF-8" standalone="no"?>
<!-- Created with Inkscape (http://www.inkscape.org/) -->

<svg
   xmlns:dc="http://purl.org/dc/elements/1.1/"
   xmlns:cc="http://creativecommons.org/ns#"
   xmlns:rdf="http://www.w3.org/1999/02/22-rdf-syntax-ns#"
   xmlns:svg="http://www.w3.org/2000/svg"
   xmlns="http://www.w3.org/2000/svg"
   xmlns:sodipodi="http://sodipodi.sourceforge.net/DTD/sodipodi-0.dtd"
   xmlns:inkscape="http://www.inkscape.org/namespaces/inkscape"
   width="210mm"
   height="297mm"
   viewBox="0 0 744.09448819 1052.3622047"
   id="svg2"
   version="1.1"
   inkscape:version="0.91 r13725"
   sodipodi:docname="The European Flag.svg">
  <defs
     id="defs4" />
  <sodipodi:namedview
     id="base"
     pagecolor="#ffffff"
     bordercolor="#666666"
     borderopacity="1.0"
     inkscape:pageopacity="0.0"
     inkscape:pageshadow="2"
     inkscape:zoom="1.4"
     inkscape:cx="-1288.3383"
     inkscape:cy="479.84327"
     inkscape:document-units="px"
     inkscape:current-layer="layer1"
     showgrid="true"
     showborder="false"
     showguides="true"
     inkscape:guide-bbox="true"
     inkscape:snap-to-guides="true"
     inkscape:snap-grids="true"
     inkscape:window-width="1680"
     inkscape:window-height="987"
     inkscape:window-x="-8"
     inkscape:window-y="-8"
     inkscape:window-maximized="1">
    <inkscape:grid
       type="xygrid"
       id="grid4160"
       spacingx="10"
       spacingy="10" />
  </sodipodi:namedview>
  <metadata
     id="metadata7">
    <rdf:RDF>
      <cc:Work
         rdf:about="">
        <dc:format>image/svg+xml</dc:format>
        <dc:type
           rdf:resource="http://purl.org/dc/dcmitype/StillImage" />
        <dc:title />
      </cc:Work>
    </rdf:RDF>
  </metadata>
  <g
     inkscape:label="Layer 1"
     inkscape:groupmode="layer"
     id="layer1">
    <rect
       style="opacity:1;fill:#003399;fill-opacity:1;stroke:none;stroke-opacity:1"
       id="rect4136"
       width="270"
       height="180"
       x="-1210.228"
       y="452.1889" />
    <path
       sodipodi:type="star"
       style="opacity:1;fill:#ffcc00;fill-opacity:1;stroke:none;stroke-opacity:1"
       id="path4150"
       sodipodi:sides="5"
       sodipodi:cx="-1075.3286"
       sodipodi:cy="543.85919"
       sodipodi:r1="18.495726"
       sodipodi:r2="7.0653667"
       sodipodi:arg1="0.96007036"
       sodipodi:arg2="1.5883889"
       inkscape:flatsided="false"
       inkscape:rounded="0"
       inkscape:randomized="0"
       d="m -1064.722,559.01148 -10.7309,-8.08801 -11.0088,7.70551 4.3762,-12.70502 -10.7303,-8.08882 13.4355,0.23588 4.3771,-12.70469 3.9274,12.8508 13.4355,0.2369 -11.0082,7.70635 z"
       inkscape:transform-center-x="-0.057153767"
       inkscape:transform-center-y="-0.9928817"
       transform="matrix(0.56857729,0,0,0.59443928,-515.87777,249.89052)" />
    <path
       transform="matrix(0.56857729,0,0,0.59443928,-411.87777,249.89052)"
       inkscape:transform-center-y="-0.9928817"
       inkscape:transform-center-x="-0.057153767"
       d="m -1064.722,559.01148 -10.7309,-8.08801 -11.0088,7.70551 4.3762,-12.70502 -10.7303,-8.08882 13.4355,0.23588 4.3771,-12.70469 3.9274,12.8508 13.4355,0.2369 -11.0082,7.70635 z"
       inkscape:randomized="0"
       inkscape:rounded="0"
       inkscape:flatsided="false"
       sodipodi:arg2="1.5883889"
       sodipodi:arg1="0.96007036"
       sodipodi:r2="7.0653667"
       sodipodi:r1="18.495726"
       sodipodi:cy="543.85919"
       sodipodi:cx="-1075.3286"
       sodipodi:sides="5"
       id="path4152"
       style="opacity:1;fill:#ffcc00;fill-opacity:1;stroke:none;stroke-opacity:1"
       sodipodi:type="star" />
    <path
       sodipodi:type="star"
       style="opacity:1;fill:#ffcc00;fill-opacity:1;stroke:none;stroke-opacity:1"
       id="path4154"
       sodipodi:sides="5"
       sodipodi:cx="-1075.3286"
       sodipodi:cy="543.85919"
       sodipodi:r1="18.495726"
       sodipodi:r2="7.0653667"
       sodipodi:arg1="0.96007036"
       sodipodi:arg2="1.5883889"
       inkscape:flatsided="false"
       inkscape:rounded="0"
       inkscape:randomized="0"
       d="m -1064.722,559.01148 -10.7309,-8.08801 -11.0088,7.70551 4.3762,-12.70502 -10.7303,-8.08882 13.4355,0.23588 4.3771,-12.70469 3.9274,12.8508 13.4355,0.2369 -11.0082,7.70635 z"
       inkscape:transform-center-x="-0.057153767"
       inkscape:transform-center-y="-0.9928817"
       transform="matrix(0.56857729,0,0,0.59443928,-515.87777,189.89052)" />
    <path
       transform="matrix(0.56857729,0,0,0.59443928,-411.87777,189.89052)"
       inkscape:transform-center-y="-0.9928817"
       inkscape:transform-center-x="-0.057153767"
       d="m -1064.722,559.01148 -10.7309,-8.08801 -11.0088,7.70551 4.3762,-12.70502 -10.7303,-8.08882 13.4355,0.23588 4.3771,-12.70469 3.9274,12.8508 13.4355,0.2369 -11.0082,7.70635 z"
       inkscape:randomized="0"
       inkscape:rounded="0"
       inkscape:flatsided="false"
       sodipodi:arg2="1.5883889"
       sodipodi:arg1="0.96007036"
       sodipodi:r2="7.0653667"
       sodipodi:r1="18.495726"
       sodipodi:cy="543.85919"
       sodipodi:cx="-1075.3286"
       sodipodi:sides="5"
       id="path4156"
       style="opacity:1;fill:#ffcc00;fill-opacity:1;stroke:none;stroke-opacity:1"
       sodipodi:type="star" />
    <path
       sodipodi:type="star"
       style="opacity:1;fill:#ffcc00;fill-opacity:1;stroke:none;stroke-opacity:1"
       id="path4158"
       sodipodi:sides="5"
       sodipodi:cx="-1075.3286"
       sodipodi:cy="543.85919"
       sodipodi:r1="18.495726"
       sodipodi:r2="7.0653667"
       sodipodi:arg1="0.96007036"
       sodipodi:arg2="1.5883889"
       inkscape:flatsided="false"
       inkscape:rounded="0"
       inkscape:randomized="0"
       d="m -1064.722,559.01148 -10.7309,-8.08801 -11.0088,7.70551 4.3762,-12.70502 -10.7303,-8.08882 13.4355,0.23588 4.3771,-12.70469 3.9274,12.8508 13.4355,0.2369 -11.0082,7.70635 z"
       inkscape:transform-center-x="-0.057153767"
       inkscape:transform-center-y="-0.9928817"
       transform="matrix(0.56857729,0,0,0.59443928,-493.87777,271.89052)" />
    <path
       transform="matrix(0.56857729,0,0,0.59443928,-433.87777,167.89052)"
       inkscape:transform-center-y="-0.9928817"
       inkscape:transform-center-x="-0.057153767"
       d="m -1064.722,559.01148 -10.7309,-8.08801 -11.0088,7.70551 4.3762,-12.70502 -10.7303,-8.08882 13.4355,0.23588 4.3771,-12.70469 3.9274,12.8508 13.4355,0.2369 -11.0082,7.70635 z"
       inkscape:randomized="0"
       inkscape:rounded="0"
       inkscape:flatsided="false"
       sodipodi:arg2="1.5883889"
       sodipodi:arg1="0.96007036"
       sodipodi:r2="7.0653667"
       sodipodi:r1="18.495726"
       sodipodi:cy="543.85919"
       sodipodi:cx="-1075.3286"
       sodipodi:sides="5"
       id="path4160"
       style="opacity:1;fill:#ffcc00;fill-opacity:1;stroke:none;stroke-opacity:1"
       sodipodi:type="star" />
    <path
       sodipodi:type="star"
       style="opacity:1;fill:#ffcc00;fill-opacity:1;stroke:none;stroke-opacity:1"
       id="path4162"
       sodipodi:sides="5"
       sodipodi:cx="-1075.3286"
       sodipodi:cy="543.85919"
       sodipodi:r1="18.495726"
       sodipodi:r2="7.0653667"
       sodipodi:arg1="0.96007036"
       sodipodi:arg2="1.5883889"
       inkscape:flatsided="false"
       inkscape:rounded="0"
       inkscape:randomized="0"
       d="m -1064.722,559.01148 -10.7309,-8.08801 -11.0088,7.70551 4.3762,-12.70502 -10.7303,-8.08882 13.4355,0.23588 4.3771,-12.70469 3.9274,12.8508 13.4355,0.2369 -11.0082,7.70635 z"
       inkscape:transform-center-x="-0.057153767"
       inkscape:transform-center-y="-0.9928817"
       transform="matrix(0.56857729,0,0,0.59443928,-433.87777,271.89052)" />
    <path
       transform="matrix(0.56857729,0,0,0.59443928,-493.87777,167.89052)"
       inkscape:transform-center-y="-0.9928817"
       inkscape:transform-center-x="-0.057153767"
       d="m -1064.722,559.01148 -10.7309,-8.08801 -11.0088,7.70551 4.3762,-12.70502 -10.7303,-8.08882 13.4355,0.23588 4.3771,-12.70469 3.9274,12.8508 13.4355,0.2369 -11.0082,7.70635 z"
       inkscape:randomized="0"
       inkscape:rounded="0"
       inkscape:flatsided="false"
       sodipodi:arg2="1.5883889"
       sodipodi:arg1="0.96007036"
       sodipodi:r2="7.0653667"
       sodipodi:r1="18.495726"
       sodipodi:cy="543.85919"
       sodipodi:cx="-1075.3286"
       sodipodi:sides="5"
       id="path4164"
       style="opacity:1;fill:#ffcc00;fill-opacity:1;stroke:none;stroke-opacity:1"
       sodipodi:type="star" />
    <path
       sodipodi:type="star"
       style="opacity:1;fill:#ffcc00;fill-opacity:1;stroke:none;stroke-opacity:1"
       id="path4166"
       sodipodi:sides="5"
       sodipodi:cx="-1075.3286"
       sodipodi:cy="543.85919"
       sodipodi:r1="18.495726"
       sodipodi:r2="7.0653667"
       sodipodi:arg1="0.96007036"
       sodipodi:arg2="1.5883889"
       inkscape:flatsided="false"
       inkscape:rounded="0"
       inkscape:randomized="0"
       d="m -1064.722,559.01148 -10.7309,-8.08801 -11.0088,7.70551 4.3762,-12.70502 -10.7303,-8.08882 13.4355,0.23588 4.3771,-12.70469 3.9274,12.8508 13.4355,0.2369 -11.0082,7.70635 z"
       inkscape:transform-center-x="-0.057153767"
       inkscape:transform-center-y="-0.9928817"
       transform="matrix(0.56857729,0,0,0.59443928,-523.87777,219.89052)" />
    <path
       transform="matrix(0.56857729,0,0,0.59443928,-403.87777,219.89052)"
       inkscape:transform-center-y="-0.9928817"
       inkscape:transform-center-x="-0.057153767"
       d="m -1064.722,559.01148 -10.7309,-8.08801 -11.0088,7.70551 4.3762,-12.70502 -10.7303,-8.08882 13.4355,0.23588 4.3771,-12.70469 3.9274,12.8508 13.4355,0.2369 -11.0082,7.70635 z"
       inkscape:randomized="0"
       inkscape:rounded="0"
       inkscape:flatsided="false"
       sodipodi:arg2="1.5883889"
       sodipodi:arg1="0.96007036"
       sodipodi:r2="7.0653667"
       sodipodi:r1="18.495726"
       sodipodi:cy="543.85919"
       sodipodi:cx="-1075.3286"
       sodipodi:sides="5"
       id="path4168"
       style="opacity:1;fill:#ffcc00;fill-opacity:1;stroke:none;stroke-opacity:1"
       sodipodi:type="star" />
    <path
       sodipodi:type="star"
       style="opacity:1;fill:#ffcc00;fill-opacity:1;stroke:none;stroke-opacity:1"
       id="path4170"
       sodipodi:sides="5"
       sodipodi:cx="-1075.3286"
       sodipodi:cy="543.85919"
       sodipodi:r1="18.495726"
       sodipodi:r2="7.0653667"
       sodipodi:arg1="0.96007036"
       sodipodi:arg2="1.5883889"
       inkscape:flatsided="false"
       inkscape:rounded="0"
       inkscape:randomized="0"
       d="m -1064.722,559.01148 -10.7309,-8.08801 -11.0088,7.70551 4.3762,-12.70502 -10.7303,-8.08882 13.4355,0.23588 4.3771,-12.70469 3.9274,12.8508 13.4355,0.2369 -11.0082,7.70635 z"
       inkscape:transform-center-x="-0.057153767"
       inkscape:transform-center-y="-0.9928817"
       transform="matrix(0.56857729,0,0,0.59443928,-463.87777,279.89052)" />
    <path
       transform="matrix(0.56857729,0,0,0.59443928,-463.87777,159.89052)"
       inkscape:transform-center-y="-0.9928817"
       inkscape:transform-center-x="-0.057153767"
       d="m -1064.722,559.01148 -10.7309,-8.08801 -11.0088,7.70551 4.3762,-12.70502 -10.7303,-8.08882 13.4355,0.23588 4.3771,-12.70469 3.9274,12.8508 13.4355,0.2369 -11.0082,7.70635 z"
       inkscape:randomized="0"
       inkscape:rounded="0"
       inkscape:flatsided="false"
       sodipodi:arg2="1.5883889"
       sodipodi:arg1="0.96007036"
       sodipodi:r2="7.0653667"
       sodipodi:r1="18.495726"
       sodipodi:cy="543.85919"
       sodipodi:cx="-1075.3286"
       sodipodi:sides="5"
       id="path4172"
       style="opacity:1;fill:#ffcc00;fill-opacity:1;stroke:none;stroke-opacity:1"
       sodipodi:type="star" />
  </g>
</svg>
