<?xml version="1.0" encoding="UTF-8" standalone="no"?>
<!-- Created with Inkscape (http://www.inkscape.org/) -->

<svg
   xmlns:dc="http://purl.org/dc/elements/1.1/"
   xmlns:cc="http://creativecommons.org/ns#"
   xmlns:rdf="http://www.w3.org/1999/02/22-rdf-syntax-ns#"
   xmlns:svg="http://www.w3.org/2000/svg"
   xmlns="http://www.w3.org/2000/svg"
   xmlns:sodipodi="http://sodipodi.sourceforge.net/DTD/sodipodi-0.dtd"
   xmlns:inkscape="http://www.inkscape.org/namespaces/inkscape"
   width="628"
   height="525"
   viewBox="0 0 628.00001 525.00001"
   id="svg2"
   version="1.1"
   inkscape:version="0.91 r13725"
   inkscape:export-filename="C:\Users\brayan.bedritchuk\Desktop\rect4157.png"
   inkscape:export-xdpi="73.379997"
   inkscape:export-ydpi="73.379997"
   sodipodi:docname="Aperture.svg">
  <defs
     id="defs4">
    <clipPath
       clipPathUnits="userSpaceOnUse"
       id="clipPath4149">
      <rect
         style="opacity:1;fill:#000000;fill-opacity:1;stroke:none;stroke-width:4;stroke-linecap:round;stroke-linejoin:round;stroke-miterlimit:4;stroke-dasharray:none;stroke-opacity:1"
         id="rect4151"
         width="469"
         height="459"
         x="-670"
         y="475.36221" />
    </clipPath>
  </defs>
  <sodipodi:namedview
     id="base"
     pagecolor="#ffffff"
     bordercolor="#666666"
     borderopacity="1.0"
     inkscape:pageopacity="0.0"
     inkscape:pageshadow="2"
     inkscape:zoom="0.5"
     inkscape:cx="-273.15326"
     inkscape:cy="230.73569"
     inkscape:document-units="px"
     inkscape:current-layer="layer1"
     showgrid="false"
     showborder="true"
     units="px"
     fit-margin-top="0"
     fit-margin-left="0"
     fit-margin-right="0"
     fit-margin-bottom="0"
     inkscape:window-width="1680"
     inkscape:window-height="987"
     inkscape:window-x="-8"
     inkscape:window-y="-8"
     inkscape:window-maximized="1" />
  <metadata
     id="metadata7">
    <rdf:RDF>
      <cc:Work
         rdf:about="">
        <dc:format>image/svg+xml</dc:format>
        <dc:type
           rdf:resource="http://purl.org/dc/dcmitype/StillImage" />
        <dc:title></dc:title>
      </cc:Work>
    </rdf:RDF>
  </metadata>
  <g
     inkscape:label="Layer 1"
     inkscape:groupmode="layer"
     id="layer1"
     transform="translate(167,-177.3622)">
    <rect
       style="opacity:1;fill:#e77272;fill-opacity:1;stroke:none;stroke-width:4;stroke-linecap:round;stroke-linejoin:round;stroke-miterlimit:4;stroke-dasharray:none;stroke-opacity:1"
       id="rect4157"
       width="628"
       height="525"
       x="-167"
       y="177.3622" />
    <g
       id="g4250"
       transform="translate(12.370491,0.45243835)">
      <rect
         rx="39.59798"
         ry="39.59798"
         y="275.96402"
         x="-28.816231"
         height="326.89148"
         width="326.89148"
         id="rect4153"
         style="opacity:1;fill:#fcfcfc;fill-opacity:1;stroke:none;stroke-width:4;stroke-linecap:round;stroke-linejoin:round;stroke-miterlimit:4;stroke-dasharray:none;stroke-opacity:1" />
      <rect
         style="opacity:1;fill:#f89c26;fill-opacity:1;stroke:none;stroke-width:4;stroke-linecap:round;stroke-linejoin:round;stroke-miterlimit:4;stroke-dasharray:none;stroke-opacity:1"
         id="rect4155"
         width="262.89148"
         height="262.89148"
         x="3.1837692"
         y="307.96402"
         ry="0"
         rx="0" />
      <path
         style="opacity:1;fill:#fecd81;fill-opacity:1;stroke:none;stroke-width:4;stroke-linecap:round;stroke-linejoin:round;stroke-miterlimit:4;stroke-dasharray:none;stroke-opacity:1"
         d="m 209.42992,396.09758 a 20.892403,20.892403 0 0 0 -20.42966,16.5597 18.463447,18.463447 0 0 0 -3.18623,-0.29532 18.463447,18.463447 0 0 0 -18.46325,18.46385 18.463447,18.463447 0 0 0 18.46325,18.46325 18.463447,18.463447 0 0 0 0.85868,-0.0303 l 0,0.003 11.06134,0 a 18.463447,18.463447 0 0 0 0.53193,0.0267 18.463447,18.463447 0 0 0 0.75371,-0.0267 l 21.29309,0 a 18.463447,18.463447 0 0 0 0.75311,0.0267 18.463447,18.463447 0 0 0 0.53193,-0.0267 l 10.55373,0 0,-0.0267 a 18.463447,18.463447 0 0 0 1.36629,0.0534 18.463447,18.463447 0 0 0 18.46385,-18.46324 18.463447,18.463447 0 0 0 -18.46385,-18.46385 18.463447,18.463447 0 0 0 -3.65885,0.36707 20.892403,20.892403 0 0 0 -20.42907,-16.63146 z"
         id="path4238"
         inkscape:connector-curvature="0" />
      <path
         inkscape:connector-curvature="0"
         id="path4240"
         d="m 46.115896,431.73543 a 18.448565,18.448565 0 0 0 -18.03995,14.62267 16.30373,16.30373 0 0 0 -2.813528,-0.26078 16.30373,16.30373 0 0 0 -16.3035575,16.30409 16.30373,16.30373 0 0 0 16.3035575,16.30355 16.30373,16.30373 0 0 0 0.758238,-0.0267 l 0,0.003 9.767466,0 a 16.30373,16.30373 0 0 0 0.469709,0.0236 16.30373,16.30373 0 0 0 0.665547,-0.0236 l 18.802382,0 a 16.30373,16.30373 0 0 0 0.665017,0.0236 16.30373,16.30373 0 0 0 0.469709,-0.0236 l 9.319233,0 0,-0.0236 a 16.30373,16.30373 0 0 0 1.206471,0.0471 16.30373,16.30373 0 0 0 16.304087,-16.30354 16.30373,16.30373 0 0 0 -16.304087,-16.30409 16.30373,16.30373 0 0 0 -3.230864,0.32413 18.448565,18.448565 0 0 0 -18.03943,-14.68603 z"
         style="opacity:1;fill:#fecd81;fill-opacity:1;stroke:none;stroke-width:4;stroke-linecap:round;stroke-linejoin:round;stroke-miterlimit:4;stroke-dasharray:none;stroke-opacity:1" />
      <g
         transform="translate(-3.4017415,0)"
         id="g4242">
        <path
           inkscape:connector-curvature="0"
           style="opacity:1;fill:#fbb853;fill-opacity:1;stroke:none;stroke-width:4;stroke-linecap:round;stroke-linejoin:round;stroke-miterlimit:4;stroke-dasharray:none;stroke-opacity:1"
           d="m 138,402.36133 a 97,97 0 0 0 -96.630859,89.60351 l 193.324219,0 A 97,97 0 0 0 138,402.36133 Z"
           id="path4186" />
        <path
           inkscape:connector-curvature="0"
           style="opacity:1;fill:#f68e1f;fill-opacity:1;stroke:none;stroke-width:4;stroke-linecap:round;stroke-linejoin:round;stroke-miterlimit:4;stroke-dasharray:none;stroke-opacity:1"
           d="m 138,423.36133 a 76,76 0 0 0 -75.630859,68.60351 l 151.195309,0 A 76,76 0 0 0 138,423.36133 Z"
           id="path4179" />
      </g>
      <rect
         rx="0"
         ry="0"
         y="491.96402"
         x="3.1837692"
         height="78.891479"
         width="262.89148"
         id="rect4159"
         style="opacity:1;fill:#4cb0e3;fill-opacity:1;stroke:none;stroke-width:4;stroke-linecap:round;stroke-linejoin:round;stroke-miterlimit:4;stroke-dasharray:none;stroke-opacity:1" />
      <path
         inkscape:connector-curvature="0"
         id="path4206"
         d="m 65.44768,317.09765 a 25.605701,25.605701 0 0 0 -25.038566,20.29555 22.628776,22.628776 0 0 0 -3.905034,-0.36194 22.628776,22.628776 0 0 0 -22.628537,22.62926 22.628776,22.628776 0 0 0 22.628537,22.62854 22.628776,22.628776 0 0 0 1.05239,-0.0371 l 0,0.004 13.55677,0 a 22.628776,22.628776 0 0 0 0.65193,0.0327 22.628776,22.628776 0 0 0 0.92375,-0.0327 l 26.09677,0 a 22.628776,22.628776 0 0 0 0.92302,0.0327 22.628776,22.628776 0 0 0 0.65193,-0.0327 l 12.93464,0 0,-0.0327 a 22.628776,22.628776 0 0 0 1.67452,0.0654 22.628776,22.628776 0 0 0 22.62927,-22.62853 22.628776,22.628776 0 0 0 -22.62927,-22.62927 22.628776,22.628776 0 0 0 -4.48428,0.44988 25.605701,25.605701 0 0 0 -25.03784,-20.38349 z"
         style="opacity:1;fill:#fecd81;fill-opacity:1;stroke:none;stroke-width:4;stroke-linecap:round;stroke-linejoin:round;stroke-miterlimit:4;stroke-dasharray:none;stroke-opacity:1" />
      <path
         id="path4233"
         d="m 262.50977,321.09766 a 20.106854,20.106854 0 0 0 -19.66211,15.9375 17.769226,17.769226 0 0 0 -3.06641,-0.28516 17.769226,17.769226 0 0 0 -17.76758,17.76953 17.769226,17.769226 0 0 0 17.76758,17.76953 17.769226,17.769226 0 0 0 0.82617,-0.0293 l 0,0.004 10.64649,0 a 17.769226,17.769226 0 0 0 0.51171,0.0254 17.769226,17.769226 0 0 0 0.72461,-0.0254 l 13.58594,0 0,-50.83203 a 20.106854,20.106854 0 0 0 -3.5664,-0.33398 z"
         style="opacity:1;fill:#fecd81;fill-opacity:1;stroke:none;stroke-width:4;stroke-linecap:round;stroke-linejoin:round;stroke-miterlimit:4;stroke-dasharray:none;stroke-opacity:1"
         inkscape:connector-curvature="0" />
    </g>
  </g>
</svg>
