<?xml version="1.0" encoding="UTF-8" standalone="no"?>
<!-- Created with Inkscape (http://www.inkscape.org/) -->

<svg
   xmlns:dc="http://purl.org/dc/elements/1.1/"
   xmlns:cc="http://creativecommons.org/ns#"
   xmlns:rdf="http://www.w3.org/1999/02/22-rdf-syntax-ns#"
   xmlns:svg="http://www.w3.org/2000/svg"
   xmlns="http://www.w3.org/2000/svg"
   xmlns:sodipodi="http://sodipodi.sourceforge.net/DTD/sodipodi-0.dtd"
   xmlns:inkscape="http://www.inkscape.org/namespaces/inkscape"
   width="291.68839"
   height="291.68839"
   viewBox="0 0 291.68839 291.68839"
   id="svg2"
   version="1.1"
   inkscape:version="0.91 r13725"
   inkscape:export-filename="C:\Users\brayan.bedritchuk\Desktop\rect4187.png"
   inkscape:export-xdpi="157.98"
   inkscape:export-ydpi="157.98"
   sodipodi:docname="Material Beer 3.svg">
  <defs
     id="defs4" />
  <sodipodi:namedview
     id="base"
     pagecolor="#ffffff"
     bordercolor="#666666"
     borderopacity="1.0"
     inkscape:pageopacity="1"
     inkscape:pageshadow="2"
     inkscape:zoom="0.70710682"
     inkscape:cx="-247.01152"
     inkscape:cy="123.55025"
     inkscape:document-units="px"
     inkscape:current-layer="layer1"
     showgrid="false"
     showborder="true"
     inkscape:object-paths="true"
     inkscape:snap-intersection-paths="true"
     inkscape:object-nodes="true"
     inkscape:snap-smooth-nodes="true"
     inkscape:snap-nodes="false"
     inkscape:window-width="1680"
     inkscape:window-height="987"
     inkscape:window-x="-8"
     inkscape:window-y="-8"
     inkscape:window-maximized="1"
     units="px"
     fit-margin-top="32"
     fit-margin-left="32"
     fit-margin-right="32"
     fit-margin-bottom="32" />
  <metadata
     id="metadata7">
    <rdf:RDF>
      <cc:Work
         rdf:about="">
        <dc:format>image/svg+xml</dc:format>
        <dc:type
           rdf:resource="http://purl.org/dc/dcmitype/StillImage" />
        <dc:title />
      </cc:Work>
    </rdf:RDF>
  </metadata>
  <g
     inkscape:label="Layer 1"
     inkscape:groupmode="layer"
     id="layer1"
     transform="translate(836.68752,-63.646729)">
    <g
       id="g5432">
      <g
         transform="matrix(1.076767,0,0,1.1726882,53.364014,-24.450274)"
         style="fill:#afcfff;fill-opacity:1"
         id="g4767">
        <path
           style="opacity:1;fill:#afcfff;fill-opacity:1;stroke:none;stroke-width:40;stroke-miterlimit:4;stroke-dasharray:none;stroke-opacity:1"
           d="m -691.67336,118.49784 a 11.809672,16.886884 0 0 0 -8.26796,4.83562 9.1429708,13.073716 0 0 0 -3.54171,-1.02245 9.1429708,13.073716 0 0 0 -6.42418,3.77912 7.6191434,10.894764 0 0 0 -5.00455,-2.68964 7.6191434,10.894764 0 0 0 -6.27686,4.72284 6.8572284,9.8052878 0 0 0 -2.86611,-0.90968 6.8572284,9.8052878 0 0 0 -6.59828,7.17736 9.1429708,13.073716 0 0 0 -5.94204,8.62006 l 92.8836,0 a 9.1429708,13.073716 0 0 0 -6.43832,-11.41291 9.1429708,13.073716 0 0 0 7.2e-4,-0.0266 9.1429708,13.073716 0 0 0 -9.14296,-13.07371 9.1429708,13.073716 0 0 0 -5.52687,2.67367 9.1429708,13.073716 0 0 0 -5.52092,-2.67369 9.1429708,13.073716 0 0 0 -7.40708,5.43142 9.1429708,13.073716 0 0 0 -4.40259,-1.61826 9.1429708,13.073716 0 0 0 -1.82667,0.27769 11.809672,16.886884 0 0 0 -7.69726,-4.09085 z"
           id="path4769"
           inkscape:connector-curvature="0" />
        <circle
           r="11.8364"
           cy="141.73029"
           cx="-664.61249"
           id="circle4771"
           style="opacity:1;fill:#afcfff;fill-opacity:1;stroke:none;stroke-width:40;stroke-miterlimit:4;stroke-dasharray:none;stroke-opacity:1" />
        <circle
           style="opacity:1;fill:#afcfff;fill-opacity:1;stroke:none;stroke-width:40;stroke-miterlimit:4;stroke-dasharray:none;stroke-opacity:1"
           id="circle4773"
           cx="-727.24072"
           cy="138.35048"
           r="13.957721" />
        <circle
           r="13.957721"
           cy="144.00734"
           cx="-705.32043"
           id="circle4775"
           style="opacity:1;fill:#afcfff;fill-opacity:1;stroke:none;stroke-width:40;stroke-miterlimit:4;stroke-dasharray:none;stroke-opacity:1" />
        <circle
           style="opacity:1;fill:#afcfff;fill-opacity:1;stroke:none;stroke-width:40;stroke-miterlimit:4;stroke-dasharray:none;stroke-opacity:1"
           id="circle4777"
           cx="-683.70435"
           cy="138.19475"
           r="11.8364" />
        <circle
           style="opacity:1;fill:#afcfff;fill-opacity:1;stroke:none;stroke-width:40;stroke-miterlimit:4;stroke-dasharray:none;stroke-opacity:1"
           id="circle4779"
           cx="-649.59161"
           cy="137.90187"
           r="9.7150793" />
        <circle
           r="9.7150793"
           cy="126.88105"
           cx="-717.64545"
           id="circle4781"
           style="opacity:1;fill:#afcfff;fill-opacity:1;stroke:none;stroke-width:40;stroke-miterlimit:4;stroke-dasharray:none;stroke-opacity:1" />
        <circle
           style="opacity:1;fill:#afcfff;fill-opacity:1;stroke:none;stroke-width:40;stroke-miterlimit:4;stroke-dasharray:none;stroke-opacity:1"
           id="circle4783"
           cx="-704.91754"
           cy="122.63841"
           r="9.7150793" />
      </g>
      <circle
         r="113.84419"
         cy="209.49092"
         cx="-690.84332"
         id="path4248"
         style="opacity:1;fill:#80b3ff;fill-opacity:1;stroke:none;stroke-width:40;stroke-miterlimit:4;stroke-dasharray:none;stroke-opacity:1" />
      <path
         sodipodi:nodetypes="ccccccccccccccccc"
         inkscape:connector-curvature="0"
         id="rect4187"
         d="m -737.66294,138.35048 23.76338,0 23.76338,0 23.76339,0 23.76338,0 0,40.55161 -8.83458,40.55161 -2.70607,39.96094 11.54065,41.14227 -23.76338,0 -23.76339,0 -23.76338,0 -23.76338,0 11.54065,-41.14227 -2.70607,-39.96094 -8.83458,-40.55161 z"
         style="opacity:1;fill:#6b6b6b;fill-opacity:1;stroke:none;stroke-width:40;stroke-miterlimit:4;stroke-dasharray:none;stroke-opacity:1" />
      <path
         sodipodi:nodetypes="ccccccccccccccccc"
         inkscape:connector-curvature="0"
         id="rect4185"
         d="m -727.79939,145.98284 18.8316,0 18.8316,0 18.8316,0 18.8316,0 0,36.17757 -7.00107,36.17757 -2.14446,36.77637 9.14553,35.57878 -18.8316,0 -18.8316,0 -18.8316,0 -18.8316,0 9.14554,-35.57878 -2.14446,-36.77637 -7.00108,-36.17757 z"
         style="opacity:1;fill:#ffd42a;fill-opacity:1;stroke:none;stroke-width:40;stroke-miterlimit:4;stroke-dasharray:none;stroke-opacity:1" />
      <path
         id="path4213"
         d="m -652.47298,146.03726 -68.75284,119.08323 -6.57321,25.57232 18.83087,0 18.83215,0 18.83087,0 18.83216,0 -9.14573,-35.57855 2.14483,-36.77684 7.0009,-36.17705 0,-36.12311 z"
         style="opacity:1;fill:#ffdb4a;fill-opacity:1;stroke:none;stroke-width:40;stroke-miterlimit:4;stroke-dasharray:none;stroke-opacity:1"
         inkscape:connector-curvature="0" />
      <circle
         style="opacity:1;fill:#fcc900;fill-opacity:1;stroke:none;stroke-width:40;stroke-miterlimit:4;stroke-dasharray:none;stroke-opacity:1"
         id="circle4228"
         cx="-670.5307"
         cy="213.46268"
         r="3.9454668" />
      <circle
         r="3.9454668"
         cy="231.54607"
         cx="-684.66858"
         id="circle4230"
         style="opacity:1;fill:#fcc900;fill-opacity:1;stroke:none;stroke-width:40;stroke-miterlimit:4;stroke-dasharray:none;stroke-opacity:1" />
      <circle
         style="opacity:1;fill:#fcc900;fill-opacity:1;stroke:none;stroke-width:40;stroke-miterlimit:4;stroke-dasharray:none;stroke-opacity:1"
         id="circle4232"
         cx="-674.14734"
         cy="251.93098"
         r="3.9454668" />
      <circle
         r="3.9454668"
         cy="271.00073"
         cx="-692.88831"
         id="circle4234"
         style="opacity:1;fill:#fcc900;fill-opacity:1;stroke:none;stroke-width:40;stroke-miterlimit:4;stroke-dasharray:none;stroke-opacity:1" />
      <circle
         style="opacity:1;fill:#fcc900;fill-opacity:1;stroke:none;stroke-width:40;stroke-miterlimit:4;stroke-dasharray:none;stroke-opacity:1"
         id="circle4236"
         cx="-668.55798"
         cy="280.53561"
         r="3.9454668" />
      <circle
         r="3.9454668"
         cy="159.21251"
         cx="-690.58679"
         id="circle4238"
         style="opacity:1;fill:#d5aa00;fill-opacity:1;stroke:none;stroke-width:40;stroke-miterlimit:4;stroke-dasharray:none;stroke-opacity:1" />
      <circle
         style="opacity:1;fill:#d5aa00;fill-opacity:1;stroke:none;stroke-width:40;stroke-miterlimit:4;stroke-dasharray:none;stroke-opacity:1"
         id="circle4240"
         cx="-710.31415"
         cy="180.255"
         r="3.9454668" />
      <circle
         r="3.9454668"
         cy="197.68082"
         cx="-694.53229"
         id="circle4242"
         style="opacity:1;fill:#d5aa00;fill-opacity:1;stroke:none;stroke-width:40;stroke-miterlimit:4;stroke-dasharray:none;stroke-opacity:1" />
      <circle
         style="opacity:1;fill:#d5aa00;fill-opacity:1;stroke:none;stroke-width:40;stroke-miterlimit:4;stroke-dasharray:none;stroke-opacity:1"
         id="circle4244"
         cx="-710.31415"
         cy="213.79147"
         r="3.9454668" />
      <g
         id="g4757">
        <path
           inkscape:connector-curvature="0"
           id="path4191"
           d="m -691.67336,118.49784 a 11.809672,16.886884 0 0 0 -8.26796,4.83562 9.1429708,13.073716 0 0 0 -3.54171,-1.02245 9.1429708,13.073716 0 0 0 -6.42418,3.77912 7.6191434,10.894764 0 0 0 -5.00455,-2.68964 7.6191434,10.894764 0 0 0 -6.27686,4.72284 6.8572284,9.8052878 0 0 0 -2.86611,-0.90968 6.8572284,9.8052878 0 0 0 -6.59828,7.17736 9.1429708,13.073716 0 0 0 -5.94204,8.62006 l 92.8836,0 a 9.1429708,13.073716 0 0 0 -6.43832,-11.41291 9.1429708,13.073716 0 0 0 7.2e-4,-0.0266 9.1429708,13.073716 0 0 0 -9.14296,-13.07371 9.1429708,13.073716 0 0 0 -5.52687,2.67367 9.1429708,13.073716 0 0 0 -5.52092,-2.67369 9.1429708,13.073716 0 0 0 -7.40708,5.43142 9.1429708,13.073716 0 0 0 -4.40259,-1.61826 9.1429708,13.073716 0 0 0 -1.82667,0.27769 11.809672,16.886884 0 0 0 -7.69726,-4.09085 z"
           style="opacity:1;fill:#ffffff;fill-opacity:1;stroke:none;stroke-width:40;stroke-miterlimit:4;stroke-dasharray:none;stroke-opacity:1" />
        <circle
           style="opacity:1;fill:#ffffff;fill-opacity:1;stroke:none;stroke-width:40;stroke-miterlimit:4;stroke-dasharray:none;stroke-opacity:1"
           id="path4246"
           cx="-664.61249"
           cy="141.73029"
           r="11.8364" />
        <circle
           r="13.957721"
           cy="138.35048"
           cx="-727.24072"
           id="circle4745"
           style="opacity:1;fill:#ffffff;fill-opacity:1;stroke:none;stroke-width:40;stroke-miterlimit:4;stroke-dasharray:none;stroke-opacity:1" />
        <circle
           style="opacity:1;fill:#ffffff;fill-opacity:1;stroke:none;stroke-width:40;stroke-miterlimit:4;stroke-dasharray:none;stroke-opacity:1"
           id="circle4747"
           cx="-705.32043"
           cy="144.00734"
           r="13.957721" />
        <circle
           r="11.8364"
           cy="138.19475"
           cx="-683.70435"
           id="circle4749"
           style="opacity:1;fill:#ffffff;fill-opacity:1;stroke:none;stroke-width:40;stroke-miterlimit:4;stroke-dasharray:none;stroke-opacity:1" />
        <circle
           r="9.7150793"
           cy="137.90187"
           cx="-649.59161"
           id="circle4751"
           style="opacity:1;fill:#ffffff;fill-opacity:1;stroke:none;stroke-width:40;stroke-miterlimit:4;stroke-dasharray:none;stroke-opacity:1" />
        <circle
           style="opacity:1;fill:#ffffff;fill-opacity:1;stroke:none;stroke-width:40;stroke-miterlimit:4;stroke-dasharray:none;stroke-opacity:1"
           id="circle4753"
           cx="-717.64545"
           cy="126.88105"
           r="9.7150793" />
        <circle
           r="9.7150793"
           cy="122.63841"
           cx="-704.91754"
           id="circle4755"
           style="opacity:1;fill:#ffffff;fill-opacity:1;stroke:none;stroke-width:40;stroke-miterlimit:4;stroke-dasharray:none;stroke-opacity:1" />
      </g>
    </g>
  </g>
</svg>
