<?xml version="1.0" encoding="UTF-8" standalone="no"?>
<!-- Created with Inkscape (http://www.inkscape.org/) -->

<svg
   xmlns:dc="http://purl.org/dc/elements/1.1/"
   xmlns:cc="http://creativecommons.org/ns#"
   xmlns:rdf="http://www.w3.org/1999/02/22-rdf-syntax-ns#"
   xmlns:svg="http://www.w3.org/2000/svg"
   xmlns="http://www.w3.org/2000/svg"
   xmlns:sodipodi="http://sodipodi.sourceforge.net/DTD/sodipodi-0.dtd"
   xmlns:inkscape="http://www.inkscape.org/namespaces/inkscape"
   width="170.32227"
   height="247.15157"
   viewBox="0 0 170.32227 247.15157"
   id="svg4322"
   version="1.1"
   inkscape:version="0.91 r13725"
   sodipodi:docname="Material Heineken.svg"
   inkscape:export-filename="C:\Users\brayan.bedritchuk\Desktop\g5055.png"
   inkscape:export-xdpi="270.54999"
   inkscape:export-ydpi="270.54999">
  <defs
     id="defs4324" />
  <sodipodi:namedview
     id="base"
     pagecolor="#ffffff"
     bordercolor="#666666"
     borderopacity="1.0"
     inkscape:pageopacity="1"
     inkscape:pageshadow="2"
     inkscape:zoom="1"
     inkscape:cx="130.37022"
     inkscape:cy="43.405747"
     inkscape:document-units="px"
     inkscape:current-layer="layer1"
     showgrid="false"
     showborder="true"
     units="px"
     inkscape:window-width="1680"
     inkscape:window-height="987"
     inkscape:window-x="-8"
     inkscape:window-y="-8"
     inkscape:window-maximized="1"
     fit-margin-top="32"
     fit-margin-left="32"
     fit-margin-right="32"
     fit-margin-bottom="32" />
  <metadata
     id="metadata4327">
    <rdf:RDF>
      <cc:Work
         rdf:about="">
        <dc:format>image/svg+xml</dc:format>
        <dc:type
           rdf:resource="http://purl.org/dc/dcmitype/StillImage" />
        <dc:title></dc:title>
      </cc:Work>
    </rdf:RDF>
  </metadata>
  <g
     inkscape:label="Layer 1"
     inkscape:groupmode="layer"
     id="layer1"
     transform="translate(-514.83884,-131.64356)">
    <g
       transform="translate(1989.8662,51.101522)"
       id="g4287">
      <path
         inkscape:connector-curvature="0"
         id="path4282"
         transform="translate(-836.68752,63.646729)"
         d="m -591.14844,82.335938 c 0,0 -1.1508,24.173582 0,36.177732 1.1722,12.22686 5.47426,23.9902 7.00196,36.17774 1.5273,12.18426 3.32983,24.55312 2.14453,36.77539 -1.182,12.18796 -9.14649,35.58008 -9.14649,35.58008 l 14.26563,0 4.5664,0 18.83203,0 18.83204,0 18.83203,0 c 0,0 -0.49853,-1.46226 -1.26367,-3.84571 -1.33896,-4.17119 -3.49674,-11.16391 -5.23829,-18.08203 -0.2488,-0.98825 -0.48857,-1.97444 -0.71679,-2.95117 -0.22836,-0.97737 -0.444,-1.94366 -0.64453,-2.89258 -0.2003,-0.94769 -0.38542,-1.87684 -0.55079,-2.7793 -1.1e-4,-6.5e-4 1.2e-4,-0.001 0,-0.002 -0.16545,-0.90303 -0.31228,-1.77831 -0.43554,-2.61914 -0.12326,-0.84082 -0.223,-1.64646 -0.29688,-2.4082 -0.14822,-1.52844 -0.24939,-3.05745 -0.31054,-4.58985 -0.0306,-0.76521 -0.0513,-1.53092 -0.0625,-2.29687 -10e-6,-6.5e-4 10e-6,-0.001 0,-0.002 -0.0337,-2.29914 0.0171,-4.60139 0.1289,-6.90429 3e-5,-6.5e-4 -3e-5,-0.001 0,-0.002 0.0746,-1.53571 0.17549,-3.07167 0.29883,-4.60743 0.49338,-6.14327 1.32619,-12.28091 2.08984,-18.37304 0.95474,-7.61659 2.99337,-15.06846 4.67383,-22.57032 1.4e-4,-6.2e-4 -1.4e-4,-0.001 0,-0.002 0.50409,-2.25014 0.97613,-4.50631 1.37696,-6.77148 0.26729,-1.51053 0.50276,-3.02533 0.69531,-4.54688 0.0963,-0.76077 0.18259,-1.52293 0.25586,-2.28711 0.10139,-1.05765 0.18002,-2.23529 0.24804,-3.45703 0.0131,-0.23658 0.0252,-0.46933 0.0371,-0.71094 0.0343,-0.68854 0.0546,-1.42264 0.0801,-2.14648 0.0374,-1.07508 0.0697,-2.16094 0.0898,-3.29102 0.0138,-0.75302 0.026,-1.48851 0.0332,-2.25586 0.009,-1.0229 0.0107,-2.04228 0.01,-3.07422 -5.1e-4,-0.80411 0.004,-1.58963 -0.002,-2.38867 -0.0705,-9.780878 -0.49609,-18.853512 -0.49609,-18.853512 l -18.83203,0 -18.83204,0 -18.83203,0 -18.83203,0 z"
         style="opacity:1;fill:#ffd42a;fill-opacity:1;stroke:#564500;stroke-width:10;stroke-miterlimit:4;stroke-dasharray:none;stroke-opacity:1" />
      <path
         style="opacity:1;fill:#ffd42a;fill-opacity:1;stroke:none;stroke-width:40;stroke-miterlimit:4;stroke-dasharray:none;stroke-opacity:1"
         d="m -1427.8351,145.98284 18.8316,0 18.8316,0 18.8316,0 18.8316,0 c 0,0 1.1508,24.17342 0,36.17757 -1.1722,12.22686 -5.4733,23.99003 -7.001,36.17757 -1.5273,12.18426 -3.3298,24.5541 -2.1445,36.77637 1.182,12.18795 9.1455,35.57878 9.1455,35.57878 l -18.8316,0 -18.8316,0 -18.8316,0 -18.8316,0 c 0,0 7.9636,-23.39082 9.1456,-35.57878 1.1853,-12.22227 -0.6172,-24.59211 -2.1445,-36.77637 -1.5277,-12.18754 -5.8289,-23.95071 -7.0011,-36.17757 -1.1508,-12.00415 0,-36.17757 0,-36.17757 z"
         id="path4189"
         inkscape:connector-curvature="0"
         sodipodi:nodetypes="cccccssscccccsssc" />
      <path
         inkscape:connector-curvature="0"
         id="path4273"
         transform="translate(-836.68752,63.646729)"
         d="m -515.32422,101.18945 -61.55859,125.85743 4.5664,0 18.83203,0 18.83204,0 18.83203,0 c 0,0 -7.96449,-23.39213 -9.14649,-35.58008 -1.1853,-12.22227 0.61723,-24.59113 2.14453,-36.77539 1.5277,-12.18754 5.82976,-23.95088 7.00196,-36.17774 0.4463,-4.6554 0.54075,-11.12806 0.49609,-17.32422 z"
         style="opacity:1;fill:#ffdc50;fill-opacity:1;stroke:none;stroke-width:40;stroke-miterlimit:4;stroke-dasharray:none;stroke-opacity:1" />
      <circle
         r="3.9454668"
         cy="222.46268"
         cx="-1369.5664"
         id="circle4194"
         style="opacity:1;fill:#fcc900;fill-opacity:1;stroke:none;stroke-width:40;stroke-miterlimit:4;stroke-dasharray:none;stroke-opacity:1" />
      <circle
         r="3.9454668"
         cy="251.93098"
         cx="-1374.183"
         id="circle4198"
         style="opacity:1;fill:#fcc900;fill-opacity:1;stroke:none;stroke-width:40;stroke-miterlimit:4;stroke-dasharray:none;stroke-opacity:1" />
      <circle
         style="opacity:1;fill:#fcc900;fill-opacity:1;stroke:none;stroke-width:40;stroke-miterlimit:4;stroke-dasharray:none;stroke-opacity:1"
         id="circle4200"
         cx="-1392.924"
         cy="271.00073"
         r="3.9454668" />
      <circle
         r="3.9454668"
         cy="280.53561"
         cx="-1368.5936"
         id="circle4202"
         style="opacity:1;fill:#fcc900;fill-opacity:1;stroke:none;stroke-width:40;stroke-miterlimit:4;stroke-dasharray:none;stroke-opacity:1" />
      <circle
         style="opacity:1;fill:#d5aa00;fill-opacity:1;stroke:none;stroke-width:40;stroke-miterlimit:4;stroke-dasharray:none;stroke-opacity:1"
         id="circle4204"
         cx="-1385.3191"
         cy="161.33383"
         r="3.9454668" />
      <circle
         r="3.9454668"
         cy="180.255"
         cx="-1410.3499"
         id="circle4206"
         style="opacity:1;fill:#d5aa00;fill-opacity:1;stroke:none;stroke-width:40;stroke-miterlimit:4;stroke-dasharray:none;stroke-opacity:1" />
      <circle
         style="opacity:1;fill:#d5aa00;fill-opacity:1;stroke:none;stroke-width:40;stroke-miterlimit:4;stroke-dasharray:none;stroke-opacity:1"
         id="circle4208"
         cx="-1394.568"
         cy="197.68082"
         r="3.9454668" />
      <circle
         r="3.9454668"
         cy="213.79147"
         cx="-1410.3499"
         id="circle4210"
         style="opacity:1;fill:#d5aa00;fill-opacity:1;stroke:none;stroke-width:40;stroke-miterlimit:4;stroke-dasharray:none;stroke-opacity:1" />
      <path
         inkscape:connector-curvature="0"
         id="path4214"
         transform="translate(-836.68752,63.646729)"
         d="m -567.55859,51.398438 a 9.7150793,9.7150793 0 0 0 -8.58594,5.183593 9.7150793,9.7150793 0 0 0 -4.14258,-0.941406 9.7150793,9.7150793 0 0 0 -9.38086,7.236328 13.957721,13.957721 0 0 0 -0.21289,-0.0098 13.957721,13.957721 0 0 0 -13.95898,13.957031 13.957721,13.957721 0 0 0 13.95898,13.958984 13.957721,13.957721 0 0 0 8.91406,-3.234375 13.957721,13.957721 0 0 0 13.00586,8.890625 13.957721,13.957721 0 0 0 13.64258,-11.041015 11.8364,11.8364 0 0 0 7.97266,3.107421 11.8364,11.8364 0 0 0 8.32226,-3.427734 11.8364,11.8364 0 0 0 10.76953,6.962891 11.8364,11.8364 0 0 0 10.76563,-6.945313 9.7150793,9.7150793 0 0 0 4.25586,0.996094 9.7150793,9.7150793 0 0 0 9.71484,-9.714844 9.7150793,9.7150793 0 0 0 -9.71484,-9.714844 9.7150793,9.7150793 0 0 0 -0.87305,0.04687 9.1429708,13.073716 0 0 0 -8.82812,-9.736328 9.1429708,13.073716 0 0 0 -5.52735,2.673828 9.1429708,13.073716 0 0 0 -5.51953,-2.673828 9.1429708,13.073716 0 0 0 -7.4082,5.431641 9.1429708,13.073716 0 0 0 -4.40235,-1.619141 9.1429708,13.073716 0 0 0 -1.82617,0.277344 11.809672,16.886884 0 0 0 -7.69726,-4.089844 11.809672,16.886884 0 0 0 -4.04688,1.046875 9.7150793,9.7150793 0 0 0 -9.19726,-6.621093 z"
         style="opacity:1;fill:#ffffff;fill-opacity:1;stroke:#564500;stroke-width:5;stroke-miterlimit:4;stroke-dasharray:none;stroke-opacity:1" />
    </g>
    <g
       id="g5055"
       transform="translate(71.90622,6.4375628)">
      <circle
         r="24.772316"
         cy="259.89346"
         cx="528.09375"
         id="path4902"
         style="opacity:1;fill:#008000;fill-opacity:1;stroke:none;stroke-width:10;stroke-miterlimit:4;stroke-dasharray:none;stroke-opacity:1" />
      <circle
         style="opacity:1;fill:#ffffff;fill-opacity:1;stroke:none;stroke-width:10;stroke-miterlimit:4;stroke-dasharray:none;stroke-opacity:1"
         id="circle4904"
         cx="528.09375"
         cy="259.89346"
         r="17.180799" />
      <rect
         ry="1.739148"
         y="254.29971"
         x="503.72101"
         height="11.1875"
         width="48.745525"
         id="rect4906"
         style="opacity:1;fill:#000000;fill-opacity:1;stroke:none;stroke-width:10;stroke-miterlimit:4;stroke-dasharray:none;stroke-opacity:1" />
      <g
         transform="matrix(0.65173101,0,0,0.65173101,406.79351,242.5759)"
         id="g4916">
        <circle
           style="opacity:1;fill:#ff0000;fill-opacity:1;stroke:none;stroke-width:10;stroke-miterlimit:4;stroke-dasharray:none;stroke-opacity:1"
           id="path4908"
           cx="186.12061"
           cy="7.1068354"
           r="4.2931485" />
        <rect
           style="opacity:1;fill:#ff0000;fill-opacity:1;stroke:none;stroke-width:10;stroke-miterlimit:4;stroke-dasharray:none;stroke-opacity:1"
           id="rect4912"
           width="6.6922607"
           height="2.7779195"
           x="193.72099"
           y="8.6220646"
           ry="1.3889598" />
        <rect
           ry="1.3889598"
           y="8.6220646"
           x="171.827"
           height="2.7779195"
           width="6.6922607"
           id="rect4914"
           style="opacity:1;fill:#ff0000;fill-opacity:1;stroke:none;stroke-width:10;stroke-miterlimit:4;stroke-dasharray:none;stroke-opacity:1" />
      </g>
      <rect
         style="opacity:1;fill:#ffffff;fill-opacity:1;stroke:none;stroke-width:10;stroke-miterlimit:4;stroke-dasharray:none;stroke-opacity:1"
         id="rect4925"
         width="5.5937486"
         height="4.794642"
         x="521.20148"
         y="257.69592"
         ry="2.397321" />
      <rect
         ry="2.397321"
         y="257.69592"
         x="529.39233"
         height="4.794642"
         width="5.5937486"
         id="rect4927"
         style="opacity:1;fill:#ffffff;fill-opacity:1;stroke:none;stroke-width:10;stroke-miterlimit:4;stroke-dasharray:none;stroke-opacity:1" />
      <rect
         style="opacity:1;fill:#ffffff;fill-opacity:1;stroke:none;stroke-width:10;stroke-miterlimit:4;stroke-dasharray:none;stroke-opacity:1"
         id="rect4929"
         width="5.5937486"
         height="4.794642"
         x="537.58319"
         y="257.69592"
         ry="2.397321" />
      <rect
         ry="2.397321"
         y="257.69592"
         x="545.77399"
         height="4.794642"
         width="5.5937486"
         id="rect4931"
         style="opacity:1;fill:#ffffff;fill-opacity:1;stroke:none;stroke-width:10;stroke-miterlimit:4;stroke-dasharray:none;stroke-opacity:1" />
      <rect
         ry="2.397321"
         y="257.69592"
         x="513.01062"
         height="4.794642"
         width="5.5937486"
         id="rect4935"
         style="opacity:1;fill:#ffffff;fill-opacity:1;stroke:none;stroke-width:10;stroke-miterlimit:4;stroke-dasharray:none;stroke-opacity:1" />
      <rect
         style="opacity:1;fill:#ffffff;fill-opacity:1;stroke:none;stroke-width:10;stroke-miterlimit:4;stroke-dasharray:none;stroke-opacity:1"
         id="rect4937"
         width="5.5937486"
         height="4.794642"
         x="504.81976"
         y="257.69592"
         ry="2.397321" />
      <rect
         style="opacity:1;fill:#ffffff;fill-opacity:1;stroke:none;stroke-width:10;stroke-miterlimit:4;stroke-dasharray:none;stroke-opacity:1"
         id="rect4939"
         width="3.6001849"
         height="3.0858727"
         x="526.2937"
         y="237.65012"
         ry="1.5429363" />
      <rect
         ry="1.5429363"
         y="279.18158"
         x="526.2937"
         height="3.0858727"
         width="3.6001849"
         id="rect4965"
         style="opacity:1;fill:#ffffff;fill-opacity:1;stroke:none;stroke-width:10;stroke-miterlimit:4;stroke-dasharray:none;stroke-opacity:1" />
      <rect
         transform="matrix(0.96592583,0.25881905,-0.25881905,0.96592583,0,0)"
         style="opacity:1;fill:#ffffff;fill-opacity:1;stroke:none;stroke-width:10;stroke-miterlimit:4;stroke-dasharray:none;stroke-opacity:1"
         id="rect4971"
         width="3.6001849"
         height="3.0858727"
         x="575.5816"
         y="92.111504"
         ry="1.5429363" />
      <rect
         transform="matrix(0.8660254,0.50000001,-0.50000001,0.8660254,0,0)"
         style="opacity:1;fill:#ffffff;fill-opacity:1;stroke:none;stroke-width:10;stroke-miterlimit:4;stroke-dasharray:none;stroke-opacity:1"
         id="rect4975"
         width="3.6001849"
         height="3.0858727"
         x="585.52191"
         y="-61.224644"
         ry="1.5429363" />
      <rect
         transform="matrix(0.70710678,0.70710678,-0.70710678,0.70710678,0,0)"
         style="opacity:1;fill:#ffffff;fill-opacity:1;stroke:none;stroke-width:10;stroke-miterlimit:4;stroke-dasharray:none;stroke-opacity:1"
         id="rect4979"
         width="3.6001849"
         height="3.0858727"
         x="555.43719"
         y="-211.90874"
         ry="1.5429363" />
      <rect
         transform="matrix(-0.70710678,0.70710678,-0.70710678,-0.70710678,0,0)"
         style="opacity:1;fill:#ffffff;fill-opacity:1;stroke:none;stroke-width:10;stroke-miterlimit:4;stroke-dasharray:none;stroke-opacity:1"
         id="rect4991"
         width="3.6001849"
         height="3.0858727"
         x="-191.40016"
         y="-579.54596"
         ry="1.5429363" />
      <rect
         transform="matrix(-0.8660254,0.50000001,-0.50000001,-0.8660254,0,0)"
         style="opacity:1;fill:#ffffff;fill-opacity:1;stroke:none;stroke-width:10;stroke-miterlimit:4;stroke-dasharray:none;stroke-opacity:1"
         id="rect4995"
         width="3.6001849"
         height="3.0858727"
         x="-329.16333"
         y="-511.48645"
         ry="1.5429363" />
      <rect
         transform="matrix(-0.96592583,0.25881905,-0.25881905,-0.96592583,0,0)"
         ry="1.5429363"
         y="-410.0903"
         x="-444.61722"
         height="3.0858727"
         width="3.6001849"
         id="rect4967"
         style="opacity:1;fill:#ffffff;fill-opacity:1;stroke:none;stroke-width:10;stroke-miterlimit:4;stroke-dasharray:none;stroke-opacity:1" />
      <rect
         transform="matrix(0.96592583,0.25881905,-0.25881905,0.96592583,0,0)"
         ry="1.5429363"
         y="133.64297"
         x="575.5816"
         height="3.0858727"
         width="3.6001849"
         id="rect4973"
         style="opacity:1;fill:#ffffff;fill-opacity:1;stroke:none;stroke-width:10;stroke-miterlimit:4;stroke-dasharray:none;stroke-opacity:1" />
      <rect
         transform="matrix(0.8660254,0.50000001,-0.50000001,0.8660254,0,0)"
         ry="1.5429363"
         y="-19.69318"
         x="585.52191"
         height="3.0858727"
         width="3.6001849"
         id="rect4977"
         style="opacity:1;fill:#ffffff;fill-opacity:1;stroke:none;stroke-width:10;stroke-miterlimit:4;stroke-dasharray:none;stroke-opacity:1" />
      <rect
         transform="matrix(0.70710678,0.70710678,-0.70710678,0.70710678,0,0)"
         ry="1.5429363"
         y="-170.37727"
         x="555.43719"
         height="3.0858727"
         width="3.6001849"
         id="rect4981"
         style="opacity:1;fill:#ffffff;fill-opacity:1;stroke:none;stroke-width:10;stroke-miterlimit:4;stroke-dasharray:none;stroke-opacity:1" />
      <rect
         transform="matrix(-0.70710678,0.70710678,-0.70710678,-0.70710678,0,0)"
         ry="1.5429363"
         y="-538.01453"
         x="-191.40016"
         height="3.0858727"
         width="3.6001849"
         id="rect4993"
         style="opacity:1;fill:#ffffff;fill-opacity:1;stroke:none;stroke-width:10;stroke-miterlimit:4;stroke-dasharray:none;stroke-opacity:1" />
      <rect
         transform="matrix(-0.8660254,0.50000001,-0.50000001,-0.8660254,0,0)"
         ry="1.5429363"
         y="-469.95499"
         x="-329.16333"
         height="3.0858727"
         width="3.6001849"
         id="rect4997"
         style="opacity:1;fill:#ffffff;fill-opacity:1;stroke:none;stroke-width:10;stroke-miterlimit:4;stroke-dasharray:none;stroke-opacity:1" />
      <rect
         transform="matrix(-0.96592583,0.25881905,-0.25881905,-0.96592583,0,0)"
         style="opacity:1;fill:#ffffff;fill-opacity:1;stroke:none;stroke-width:10;stroke-miterlimit:4;stroke-dasharray:none;stroke-opacity:1"
         id="rect4969"
         width="3.6001849"
         height="3.0858727"
         x="-444.61722"
         y="-368.55884"
         ry="1.5429363" />
    </g>
  </g>
</svg>
