<?xml version="1.0" encoding="UTF-8" standalone="no"?>
<!-- Created with Inkscape (http://www.inkscape.org/) -->

<svg
   xmlns:dc="http://purl.org/dc/elements/1.1/"
   xmlns:cc="http://creativecommons.org/ns#"
   xmlns:rdf="http://www.w3.org/1999/02/22-rdf-syntax-ns#"
   xmlns:svg="http://www.w3.org/2000/svg"
   xmlns="http://www.w3.org/2000/svg"
   xmlns:sodipodi="http://sodipodi.sourceforge.net/DTD/sodipodi-0.dtd"
   xmlns:inkscape="http://www.inkscape.org/namespaces/inkscape"
   width="210mm"
   height="297mm"
   viewBox="0 0 744.09448819 1052.3622047"
   id="svg4740"
   version="1.1"
   inkscape:version="0.91 r13725"
   sodipodi:docname="X Icon.svg"
   inkscape:export-filename="E:\Tasks\Google Drive\Design\Inkscape\Other\2016-07-12\X Icon.png"
   inkscape:export-xdpi="39"
   inkscape:export-ydpi="39">
  <defs
     id="defs4742" />
  <sodipodi:namedview
     id="base"
     pagecolor="#ffffff"
     bordercolor="#666666"
     borderopacity="1.0"
     inkscape:pageopacity="0.0"
     inkscape:pageshadow="2"
     inkscape:zoom="0.25"
     inkscape:cx="-431.74342"
     inkscape:cy="1206.044"
     inkscape:document-units="px"
     inkscape:current-layer="layer1"
     showgrid="false"
     showborder="false"
     inkscape:window-width="1680"
     inkscape:window-height="987"
     inkscape:window-x="-8"
     inkscape:window-y="-8"
     inkscape:window-maximized="1" />
  <metadata
     id="metadata4745">
    <rdf:RDF>
      <cc:Work
         rdf:about="">
        <dc:format>image/svg+xml</dc:format>
        <dc:type
           rdf:resource="http://purl.org/dc/dcmitype/StillImage" />
        <dc:title></dc:title>
      </cc:Work>
    </rdf:RDF>
  </metadata>
  <g
     inkscape:label="Layer 1"
     inkscape:groupmode="layer"
     id="layer1">
    <path
       style="opacity:1;fill:#e9afaf;fill-opacity:1;stroke:none;stroke-opacity:1"
       d="m -99.268572,-273.53813 -102.356368,102.35637 -93.75883,93.758832 -93.75883,-93.758822 -102.35639,-102.3564 c 17.96334,17.96335 10.29897,54.75232 -17.11879,82.17008 -27.4178,27.41779 -64.20674,35.08214 -82.17008,17.1188 l 102.35639,102.356391 93.75882,93.758823 -93.76024,93.760246 -102.35638,102.35637 c 17.96334,-17.96333 54.75222,-10.2991 82.17015,17.11883 27.41778,27.41778 35.08201,64.20666 17.11868,82.17 l 102.35637,-102.35638 93.76025,-93.76024 93.76009,93.76009 102.356537,102.35654 C -117.23046,299.30813 -109.56619,262.51912 -82.148392,235.10132 -54.73063,207.68356 -17.94159,200.01926 0.0216797,217.98253 L -102.33486,115.62599 -196.09495,21.865895 -102.33612,-71.892934 0.02025064,-174.24931 C -17.943097,-156.28596 -54.731968,-163.9502 -82.14975,-191.36799 c -27.41792,-27.41792 -35.08217,-64.20679 -17.118822,-82.17014 z"
       id="rect4136"
       inkscape:connector-curvature="0" />
  </g>
</svg>
