<?xml version="1.0" encoding="UTF-8" standalone="no"?>
<!-- Created with Inkscape (http://www.inkscape.org/) -->

<svg
   xmlns:dc="http://purl.org/dc/elements/1.1/"
   xmlns:cc="http://creativecommons.org/ns#"
   xmlns:rdf="http://www.w3.org/1999/02/22-rdf-syntax-ns#"
   xmlns:svg="http://www.w3.org/2000/svg"
   xmlns="http://www.w3.org/2000/svg"
   xmlns:sodipodi="http://sodipodi.sourceforge.net/DTD/sodipodi-0.dtd"
   xmlns:inkscape="http://www.inkscape.org/namespaces/inkscape"
   width="64.200165mm"
   height="101.63332mm"
   viewBox="0 0 64.200165 101.63332"
   version="1.1"
   id="svg8"
   inkscape:version="0.92.1 r15371"
   sodipodi:docname="Flat Character.svg">
  <defs
     id="defs2" />
  <sodipodi:namedview
     id="base"
     pagecolor="#ffffff"
     bordercolor="#666666"
     borderopacity="1.0"
     inkscape:pageopacity="0.0"
     inkscape:pageshadow="2"
     inkscape:zoom="1"
     inkscape:cx="155.44171"
     inkscape:cy="253.52696"
     inkscape:document-units="px"
     inkscape:current-layer="layer1"
     showgrid="false"
     showborder="true"
     inkscape:window-width="1920"
     inkscape:window-height="1017"
     inkscape:window-x="-8"
     inkscape:window-y="-8"
     inkscape:window-maximized="1"
     inkscape:snap-global="false"
     fit-margin-top="0"
     fit-margin-left="0"
     fit-margin-right="0"
     fit-margin-bottom="0" />
  <metadata
     id="metadata5">
    <rdf:RDF>
      <cc:Work
         rdf:about="">
        <dc:format>image/svg+xml</dc:format>
        <dc:type
           rdf:resource="http://purl.org/dc/dcmitype/StillImage" />
        <dc:title></dc:title>
      </cc:Work>
    </rdf:RDF>
  </metadata>
  <g
     inkscape:label="Layer 1"
     inkscape:groupmode="layer"
     id="layer1"
     transform="translate(-7.2373368,-83.674746)">
    <rect
       ry="2.4321527"
       y="137.22627"
       x="55.004074"
       height="48.081787"
       width="4.8643055"
       id="rect4435"
       style="opacity:1;fill:#333333;fill-opacity:1;stroke:none;stroke-width:3.97832465;stroke-linecap:round;stroke-linejoin:round;stroke-miterlimit:4;stroke-dasharray:none;stroke-opacity:1" />
    <rect
       style="opacity:1;fill:#333333;fill-opacity:1;stroke:none;stroke-width:3.97832465;stroke-linecap:round;stroke-linejoin:round;stroke-miterlimit:4;stroke-dasharray:none;stroke-opacity:1"
       id="rect4433"
       width="4.8643055"
       height="48.081787"
       x="44.527107"
       y="137.22627"
       ry="2.4321527" />
    <rect
       ry="7.8713541"
       y="-52.874081"
       x="120.79011"
       height="41.804165"
       width="15.742708"
       id="rect4429"
       style="opacity:1;fill:#ffe6d5;fill-opacity:1;stroke:none;stroke-width:5.29166651;stroke-linecap:round;stroke-linejoin:round;stroke-miterlimit:4;stroke-dasharray:none;stroke-opacity:1"
       transform="rotate(90)" />
    <circle
       r="10.386607"
       cy="149.16672"
       cx="52.372822"
       id="circle4427"
       style="opacity:1;fill:#5096ff;fill-opacity:1;stroke:none;stroke-width:3.40544486;stroke-linecap:round;stroke-linejoin:round;stroke-miterlimit:4;stroke-dasharray:none;stroke-opacity:1" />
    <circle
       style="opacity:1;fill:#80b3ff;fill-opacity:1;stroke:none;stroke-width:5.29166651;stroke-linecap:round;stroke-linejoin:round;stroke-miterlimit:4;stroke-dasharray:none;stroke-opacity:1"
       id="path4388"
       cx="51.85833"
       cy="136.39792"
       r="16.139584" />
    <rect
       style="opacity:1;fill:#ffe6d5;fill-opacity:1;stroke:none;stroke-width:1.62904823;stroke-linecap:round;stroke-linejoin:round;stroke-miterlimit:4;stroke-dasharray:none;stroke-opacity:1"
       id="rect4317"
       width="19.385674"
       height="29.567225"
       x="38.028912"
       y="97.718018"
       ry="9.6928368" />
    <rect
       ry="2.9516029"
       y="101.90153"
       x="51.511379"
       height="11.58883"
       width="5.9032059"
       id="rect4344"
       style="opacity:1;fill:#ffb380;fill-opacity:1;stroke:none;stroke-width:0.56279725;stroke-linecap:round;stroke-linejoin:round;stroke-miterlimit:4;stroke-dasharray:none;stroke-opacity:1" />
    <circle
       style="opacity:1;fill:#ffe6d5;fill-opacity:1;stroke:none;stroke-width:2.5361321;stroke-linecap:round;stroke-linejoin:round;stroke-miterlimit:4;stroke-dasharray:none;stroke-opacity:1"
       id="path4346"
       cx="54.462982"
       cy="111.54458"
       r="2.7897449" />
    <circle
       r="1.4723655"
       cy="111.54458"
       cx="54.462982"
       id="circle4350"
       style="opacity:1;fill:#ffb380;fill-opacity:1;stroke:none;stroke-width:1.33851397;stroke-linecap:round;stroke-linejoin:round;stroke-miterlimit:4;stroke-dasharray:none;stroke-opacity:1" />
    <circle
       style="opacity:1;fill:#333333;fill-opacity:1;stroke:none;stroke-width:1.33851397;stroke-linecap:round;stroke-linejoin:round;stroke-miterlimit:4;stroke-dasharray:none;stroke-opacity:1"
       id="circle4358"
       cx="41.573944"
       cy="111.30022"
       r="1.4723655" />
    <circle
       r="1.4723655"
       cy="111.30022"
       cx="48.090137"
       id="circle4360"
       style="opacity:1;fill:#333333;fill-opacity:1;stroke:none;stroke-width:1.33851397;stroke-linecap:round;stroke-linejoin:round;stroke-miterlimit:4;stroke-dasharray:none;stroke-opacity:1" />
    <rect
       ry="1.6109288"
       y="112.25927"
       x="43.447689"
       height="4.9140091"
       width="2.7687089"
       id="rect4362"
       style="opacity:1;fill:#ffaaaa;fill-opacity:1;stroke:none;stroke-width:0.2509833;stroke-linecap:round;stroke-linejoin:round;stroke-miterlimit:4;stroke-dasharray:none;stroke-opacity:1" />
    <circle
       style="opacity:1;fill:#ffaaaa;fill-opacity:1;stroke:none;stroke-width:2.50584197;stroke-linecap:round;stroke-linejoin:round;stroke-miterlimit:4;stroke-dasharray:none;stroke-opacity:1"
       id="circle4370"
       cx="46.88063"
       cy="121.90385"
       r="2.7564259" />
    <path
       style="opacity:1;fill:#ff8181;fill-opacity:1;stroke:none;stroke-width:2.50584197;stroke-linecap:round;stroke-linejoin:round;stroke-miterlimit:4;stroke-dasharray:none;stroke-opacity:1"
       d="m 46.880663,121.81278 a 2.756426,2.756426 0 0 0 -2.410656,1.42137 2.756426,2.756426 0 0 0 2.410656,1.42615 2.756426,2.756426 0 0 0 2.410656,-1.42136 2.756426,2.756426 0 0 0 -2.410656,-1.42616 z"
       id="circle4372"
       inkscape:connector-curvature="0" />
    <path
       style="opacity:1;fill:#ffffff;fill-opacity:1;stroke:none;stroke-width:2.13225484;stroke-linecap:round;stroke-linejoin:round;stroke-miterlimit:4;stroke-dasharray:none;stroke-opacity:1"
       d="m 46.880663,119.13805 a 2.756426,2.756426 0 0 0 -2.469376,1.53901 h 4.940626 a 2.756426,2.756426 0 0 0 -2.47125,-1.53901 z"
       id="rect4379"
       inkscape:connector-curvature="0" />
    <rect
       style="opacity:1;fill:#333333;fill-opacity:1;stroke:none;stroke-width:0.5697313;stroke-linecap:round;stroke-linejoin:round;stroke-miterlimit:4;stroke-dasharray:none;stroke-opacity:1"
       id="rect4384"
       width="5.3027182"
       height="1.2625122"
       x="38.900368"
       y="108.5512"
       ry="0.6312561" />
    <rect
       ry="0.6312561"
       y="118.69605"
       x="2.2223577"
       height="1.2625122"
       width="5.3027182"
       id="rect4386"
       style="opacity:1;fill:#333333;fill-opacity:1;stroke:none;stroke-width:0.5697313;stroke-linecap:round;stroke-linejoin:round;stroke-miterlimit:4;stroke-dasharray:none;stroke-opacity:1"
       transform="rotate(-21.565859)" />
    <rect
       style="opacity:1;fill:#ffe6d5;fill-opacity:1;stroke:none;stroke-width:5.29166651;stroke-linecap:round;stroke-linejoin:round;stroke-miterlimit:4;stroke-dasharray:none;stroke-opacity:1"
       id="rect4405"
       width="15.742708"
       height="41.804165"
       x="55.69479"
       y="121.97813"
       ry="7.8713541" />
    <path
       style="opacity:1;fill:#80b3ff;fill-opacity:1;stroke:none;stroke-width:5.29166651;stroke-linecap:round;stroke-linejoin:round;stroke-miterlimit:4;stroke-dasharray:none;stroke-opacity:1"
       d="m 63.566143,121.97808 c -4.360731,0 -7.871354,3.51063 -7.871354,7.87136 v 3.9026 h 15.742708 v -3.9026 c 0,-4.36073 -3.510624,-7.87136 -7.871354,-7.87136 z"
       id="rect4407"
       inkscape:connector-curvature="0" />
    <path
       style="opacity:1;fill:#ffe6d5;fill-opacity:1;stroke:none;stroke-width:1.26690197;stroke-linecap:round;stroke-linejoin:round;stroke-miterlimit:4;stroke-dasharray:none;stroke-opacity:1"
       d="m 57.579308,152.18351 c 1.044022,0 1.884517,0.8405 1.884517,1.88452 v 10.34053 c 0,1.04402 -0.840495,1.88452 -1.884517,1.88452 -1.044022,0 -1.884517,-0.8405 -1.884517,-1.88452 v -10.34053 c 0,-1.04402 0.840495,-1.88452 1.884517,-1.88452 z"
       id="rect4413"
       inkscape:connector-curvature="0"
       sodipodi:nodetypes="sssssss" />
    <path
       id="path4421"
       d="m 63.566143,121.97808 c -4.360731,0 -7.871354,3.51063 -7.871354,7.87136 v 3.9026 h 15.742708 v -3.9026 c 0,-4.36073 -3.510624,-7.87136 -7.871354,-7.87136 z"
       style="opacity:1;fill:#80b3ff;fill-opacity:1;stroke:none;stroke-width:5.29166651;stroke-linecap:round;stroke-linejoin:round;stroke-miterlimit:4;stroke-dasharray:none;stroke-opacity:1"
       inkscape:connector-curvature="0" />
    <path
       style="opacity:1;fill:#80b3ff;fill-opacity:1;stroke:none;stroke-width:5.29166651;stroke-linecap:round;stroke-linejoin:round;stroke-miterlimit:4;stroke-dasharray:none;stroke-opacity:1"
       d="m 63.566143,121.97808 c -4.360731,0 -7.871354,3.51063 -7.871354,7.87136 v 3.9026 h 15.742708 v -3.9026 c 0,-4.36073 -3.510624,-7.87136 -7.871354,-7.87136 z"
       id="path4423"
       inkscape:connector-curvature="0" />
    <path
       id="path4425"
       d="m 63.566143,121.97808 c -4.360731,0 -7.871354,3.51063 -7.871354,7.87136 v 3.9026 h 15.742708 v -3.9026 c 0,-4.36073 -3.510624,-7.87136 -7.871354,-7.87136 z"
       style="opacity:1;fill:#80b3ff;fill-opacity:1;stroke:none;stroke-width:5.29166651;stroke-linecap:round;stroke-linejoin:round;stroke-miterlimit:4;stroke-dasharray:none;stroke-opacity:1"
       inkscape:connector-curvature="0" />
    <path
       sodipodi:nodetypes="sssssss"
       inkscape:connector-curvature="0"
       id="path4431"
       d="m 21.346907,122.67462 c 0,1.04403 -0.8405,1.88452 -1.88452,1.88452 H 9.1218568 c -1.04402,0 -1.88452,-0.84049 -1.88452,-1.88452 0,-1.04402 0.8405,-1.88451 1.88452,-1.88451 H 19.462387 c 1.04402,0 1.88452,0.84049 1.88452,1.88451 z"
       style="opacity:1;fill:#ffe6d5;fill-opacity:1;stroke:none;stroke-width:1.26690197;stroke-linecap:round;stroke-linejoin:round;stroke-miterlimit:4;stroke-dasharray:none;stroke-opacity:1" />
    <rect
       style="opacity:1;fill:#333333;fill-opacity:1;stroke:none;stroke-width:0.43086678;stroke-linecap:round;stroke-linejoin:round;stroke-miterlimit:4;stroke-dasharray:none;stroke-opacity:1"
       id="rect4478"
       width="4.7530842"
       height="8.4359531"
       x="-185.30806"
       y="40.95546"
       ry="2.7655056"
       transform="rotate(-90)" />
    <rect
       transform="rotate(-90)"
       ry="2.7655056"
       y="51.432426"
       x="-185.30806"
       height="8.4359531"
       width="4.7530842"
       id="rect4480"
       style="opacity:1;fill:#333333;fill-opacity:1;stroke:none;stroke-width:0.43086678;stroke-linecap:round;stroke-linejoin:round;stroke-miterlimit:4;stroke-dasharray:none;stroke-opacity:1" />
    <g
       id="g4491"
       transform="translate(-0.41818047)">
      <rect
         ry="0.55461806"
         y="150.12648"
         x="59.868374"
         height="1.1092361"
         width="8.2319012"
         id="rect4482"
         style="opacity:1;fill:#333333;fill-opacity:1;stroke:none;stroke-width:2.76715088;stroke-linecap:round;stroke-linejoin:round;stroke-miterlimit:4;stroke-dasharray:none;stroke-opacity:1" />
      <rect
         style="opacity:1;fill:#333333;fill-opacity:1;stroke:none;stroke-width:2.76715088;stroke-linecap:round;stroke-linejoin:round;stroke-miterlimit:4;stroke-dasharray:none;stroke-opacity:1"
         id="rect4484"
         width="8.2319012"
         height="1.1092361"
         x="59.868374"
         y="152.06754"
         ry="0.55461806" />
      <rect
         ry="0.55461806"
         y="154.00858"
         x="59.868374"
         height="1.1092361"
         width="8.2319012"
         id="rect4486"
         style="opacity:1;fill:#333333;fill-opacity:1;stroke:none;stroke-width:2.76715088;stroke-linecap:round;stroke-linejoin:round;stroke-miterlimit:4;stroke-dasharray:none;stroke-opacity:1" />
    </g>
    <path
       style="color:#000000;font-style:normal;font-variant:normal;font-weight:normal;font-stretch:normal;font-size:medium;line-height:normal;font-family:sans-serif;font-variant-ligatures:normal;font-variant-position:normal;font-variant-caps:normal;font-variant-numeric:normal;font-variant-alternates:normal;font-feature-settings:normal;text-indent:0;text-align:start;text-decoration:none;text-decoration-line:none;text-decoration-style:solid;text-decoration-color:#000000;letter-spacing:normal;word-spacing:normal;text-transform:none;writing-mode:lr-tb;direction:ltr;text-orientation:mixed;dominant-baseline:auto;baseline-shift:baseline;text-anchor:start;white-space:normal;shape-padding:0;clip-rule:nonzero;display:inline;overflow:visible;visibility:visible;opacity:1;isolation:auto;mix-blend-mode:normal;color-interpolation:sRGB;color-interpolation-filters:linearRGB;solid-color:#000000;solid-opacity:1;vector-effect:none;fill:#3486ff;fill-opacity:1;fill-rule:nonzero;stroke:none;stroke-width:1.77087367;stroke-linecap:round;stroke-linejoin:round;stroke-miterlimit:4;stroke-dasharray:none;stroke-dashoffset:0;stroke-opacity:1;color-rendering:auto;image-rendering:auto;shape-rendering:auto;text-rendering:auto;enable-background:accumulate"
       d="m 51.174136,132.6289 c -0.168607,-0.006 -0.335303,0.0371 -0.480469,0.12305 l -6.861328,3.96289 c -0.589686,0.34097 -0.589686,1.19224 0,1.5332 l 6.708677,1.12501 -6.925782,3.99804 c -1.073743,0.57557 -0.150833,2.17488 0.884766,1.53321 l 8.253906,-4.76368 c 0.589687,-0.34097 0.589687,-1.19223 0,-1.5332 l -6.708676,-1.125 5.533203,-3.19532 c 0.784077,-0.43795 0.493365,-1.63028 -0.404297,-1.6582 z"
       id="path4505"
       inkscape:connector-curvature="0"
       sodipodi:nodetypes="cccccccccccc" />
    <path
       style="opacity:1;fill:#ffc39b;fill-opacity:1;stroke:none;stroke-width:2.26732779;stroke-linecap:round;stroke-linejoin:round;stroke-miterlimit:4;stroke-dasharray:none;stroke-opacity:1"
       d="m 57.316123,87.854751 c -0.289083,-0.129496 -0.626242,-0.0011 -0.755738,0.287913 l -1.253719,2.798751 c -0.129496,0.289081 -9.07e-4,0.626356 0.288175,0.755854 l 2.79875,1.253717 c 0.289081,0.129496 0.626095,7.91e-4 0.755592,-0.28829 0.129495,-0.289081 10e-4,-0.625979 -0.28803,-0.755476 l -2.276998,-1.019995 1.019997,-2.276999 c 0.129495,-0.289081 10e-4,-0.625979 -0.288029,-0.755475 z"
       id="rect4498"
       inkscape:connector-curvature="0" />
    <path
       inkscape:connector-curvature="0"
       id="path4503"
       d="m 41.355122,83.751853 c -0.274323,0.158381 -0.367889,0.50679 -0.209509,0.781113 l 1.533364,2.655865 c 0.15838,0.274322 0.507038,0.367744 0.781361,0.209363 L 46.1162,85.864832 c 0.274323,-0.15838 0.367498,-0.506896 0.209118,-0.781217 -0.15838,-0.274323 -0.506647,-0.367641 -0.78097,-0.209261 L 43.3836,86.121862 42.13609,83.961113 c -0.15838,-0.274322 -0.506646,-0.36764 -0.780968,-0.20926 z"
       style="opacity:1;fill:#ffc39b;fill-opacity:1;stroke:none;stroke-width:2.26732779;stroke-linecap:round;stroke-linejoin:round;stroke-miterlimit:4;stroke-dasharray:none;stroke-opacity:1" />
    <g
       id="g4531"
       transform="translate(-0.09053289)">
      <path
         inkscape:connector-curvature="0"
         id="path4337"
         d="m 39.001772,104.68472 c -5.097483,0 -9.201232,-4.10376 -9.201232,-9.201237 0,-0.03978 10e-4,-0.07936 0.0015,-0.119002 h -0.0015 v -9.082233 h 9.201232 4.651057 4.651056 c 5.097483,0 9.201233,4.103754 9.201233,9.201235 0,0.03977 -0.001,0.07936 -0.0015,0.119002 h 0.0015 v 9.082235 h -9.201233 -4.651056 z"
         style="opacity:1;fill:#ffc39b;fill-opacity:1;stroke:none;stroke-width:1.54642558;stroke-linecap:round;stroke-linejoin:round;stroke-miterlimit:4;stroke-dasharray:none;stroke-opacity:1" />
      <path
         inkscape:connector-curvature="0"
         id="path4514"
         d="m 29.800537,88.324876 v 7.039462 h 0.0015 c -4.75e-4,0.03964 -0.0015,0.07943 -0.0015,0.119205 0,5.097487 4.103855,9.201337 9.201339,9.201337 h 4.650952 4.650948 9.20134 v -7.039952 h -0.0015 c 4.75e-4,-0.03964 0.0015,-0.07943 0.0015,-0.119205 0,-5.097481 -4.103856,-9.200847 -9.20134,-9.200847 h -4.650948 -4.650952 z"
         style="opacity:1;fill:#ffb380;fill-opacity:1;stroke:none;stroke-width:1.54642546;stroke-linecap:round;stroke-linejoin:round;stroke-miterlimit:4;stroke-dasharray:none;stroke-opacity:1" />
    </g>
  </g>
</svg>
