<?xml version="1.0" encoding="UTF-8" standalone="no"?>
<!-- Created with Inkscape (http://www.inkscape.org/) -->

<svg
   xmlns:dc="http://purl.org/dc/elements/1.1/"
   xmlns:cc="http://creativecommons.org/ns#"
   xmlns:rdf="http://www.w3.org/1999/02/22-rdf-syntax-ns#"
   xmlns:svg="http://www.w3.org/2000/svg"
   xmlns="http://www.w3.org/2000/svg"
   xmlns:sodipodi="http://sodipodi.sourceforge.net/DTD/sodipodi-0.dtd"
   xmlns:inkscape="http://www.inkscape.org/namespaces/inkscape"
   width="744.09448819"
   height="1052.3622047"
   id="svg2"
   version="1.1"
   inkscape:version="0.48.5 r10040"
   inkscape:export-filename="C:\Users\brayan.bedritchuk\Desktop\g4076.png"
   inkscape:export-xdpi="90"
   inkscape:export-ydpi="90"
   sodipodi:docname="youtube_drone.svg">
  <defs
     id="defs4" />
  <sodipodi:namedview
     id="base"
     pagecolor="#ffffff"
     bordercolor="#666666"
     borderopacity="1.0"
     inkscape:pageopacity="0.0"
     inkscape:pageshadow="2"
     inkscape:zoom="0.5"
     inkscape:cx="-553.15123"
     inkscape:cy="576.71296"
     inkscape:document-units="px"
     inkscape:current-layer="layer1"
     showgrid="false"
     showborder="false"
     inkscape:window-width="1680"
     inkscape:window-height="987"
     inkscape:window-x="-8"
     inkscape:window-y="-8"
     inkscape:window-maximized="1" />
  <metadata
     id="metadata7">
    <rdf:RDF>
      <cc:Work
         rdf:about="">
        <dc:format>image/svg+xml</dc:format>
        <dc:type
           rdf:resource="http://purl.org/dc/dcmitype/StillImage" />
        <dc:title></dc:title>
      </cc:Work>
    </rdf:RDF>
  </metadata>
  <g
     inkscape:label="Layer 1"
     inkscape:groupmode="layer"
     id="layer1">
    <rect
       style="fill:#ffdd55;fill-opacity:1;stroke:none"
       id="rect4074"
       width="1280"
       height="720"
       x="-1186.317"
       y="90.313416"
       inkscape:export-filename="C:\Users\brayan.bedritchuk\Desktop\g4076.png"
       inkscape:export-xdpi="90"
       inkscape:export-ydpi="90" />
    <path
       sodipodi:type="arc"
       style="fill:#ffffff;stroke:#4d4d4d;stroke-width:6.38052893;stroke-linecap:round;stroke-linejoin:round;stroke-miterlimit:4;stroke-opacity:1;stroke-dasharray:none"
       id="path4002"
       sodipodi:cx="-895"
       sodipodi:cy="495.36218"
       sodipodi:rx="48"
       sodipodi:ry="48"
       d="m -847,495.36218 a 48,48 0 1 1 -96,0 48,48 0 1 1 96,0 z"
       transform="matrix(0,1.8807218,-1.8807218,0,385.32147,1947.2047)"
       inkscape:export-filename="C:\Users\brayan.bedritchuk\Desktop\g4076.png"
       inkscape:export-xdpi="90"
       inkscape:export-ydpi="90" />
    <path
       sodipodi:type="arc"
       style="fill:#ffffff;stroke:#4d4d4d;stroke-width:6.38052893;stroke-linecap:round;stroke-linejoin:round;stroke-miterlimit:4;stroke-opacity:1;stroke-dasharray:none"
       id="path3986"
       sodipodi:cx="-895"
       sodipodi:cy="495.36218"
       sodipodi:rx="48"
       sodipodi:ry="48"
       d="m -847,495.36218 a 48,48 0 1 1 -96,0 48,48 0 1 1 96,0 z"
       transform="matrix(-1.8807218,0,0,1.8807218,-2043.2083,-481.32505)"
       inkscape:export-filename="C:\Users\brayan.bedritchuk\Desktop\g4076.png"
       inkscape:export-xdpi="90"
       inkscape:export-ydpi="90" />
    <path
       inkscape:connector-curvature="0"
       id="path3984"
       d="m -385.24974,400.1075 c -18.33849,9.25486 -30.91504,28.2617 -30.91504,50.20595 l 0,0 c 0,21.95562 12.58957,40.97078 30.94353,50.22031"
       style="fill:none;stroke:#4d4d4d;stroke-width:6.00000095;stroke-linecap:round;stroke-linejoin:round;stroke-miterlimit:4;stroke-opacity:1;stroke-dasharray:none"
       inkscape:export-filename="C:\Users\brayan.bedritchuk\Desktop\g4076.png"
       inkscape:export-xdpi="90"
       inkscape:export-ydpi="90" />
    <path
       inkscape:connector-curvature="0"
       id="path3982"
       d="m -395.85589,389.54022 c -20.75751,12.28618 -34.67667,34.9042 -34.67667,60.77321 l 0,0 c 0,25.88007 13.93109,48.50638 34.70332,60.78896"
       style="fill:none;stroke:#4d4d4d;stroke-width:6.00000048;stroke-linecap:round;stroke-linejoin:round;stroke-miterlimit:4;stroke-opacity:1;stroke-dasharray:none"
       inkscape:export-filename="C:\Users\brayan.bedritchuk\Desktop\g4076.png"
       inkscape:export-xdpi="90"
       inkscape:export-ydpi="90" />
    <path
       transform="matrix(1.8807218,0,0,1.8807218,950.57432,-481.32505)"
       d="m -847,495.36218 a 48,48 0 1 1 -96,0 48,48 0 1 1 96,0 z"
       sodipodi:ry="48"
       sodipodi:rx="48"
       sodipodi:cy="495.36218"
       sodipodi:cx="-895"
       id="path3937"
       style="fill:#ffffff;stroke:#4d4d4d;stroke-width:6.38052893;stroke-linecap:round;stroke-linejoin:round;stroke-miterlimit:4;stroke-opacity:1;stroke-dasharray:none"
       sodipodi:type="arc"
       inkscape:export-filename="C:\Users\brayan.bedritchuk\Desktop\g4076.png"
       inkscape:export-xdpi="90"
       inkscape:export-ydpi="90" />
    <path
       inkscape:connector-curvature="0"
       style="fill:none;stroke:#4d4d4d;stroke-width:6.00000048;stroke-linecap:round;stroke-linejoin:round;stroke-miterlimit:4;stroke-opacity:1;stroke-dasharray:none"
       d="m -696.77806,389.54022 c 20.7575,12.28618 34.67667,34.9042 34.67667,60.77321 l 0,0 c 0,25.88007 -13.93109,48.50638 -34.70333,60.78896"
       id="path3962"
       inkscape:export-filename="C:\Users\brayan.bedritchuk\Desktop\g4076.png"
       inkscape:export-xdpi="90"
       inkscape:export-ydpi="90" />
    <path
       inkscape:connector-curvature="0"
       style="fill:none;stroke:#4d4d4d;stroke-width:6.00000095;stroke-linecap:round;stroke-linejoin:round;stroke-miterlimit:4;stroke-opacity:1;stroke-dasharray:none"
       d="m -707.38421,400.1075 c 18.33849,9.25486 30.91503,28.2617 30.91503,50.20595 l 0,0 c 0,21.95562 -12.58957,40.97078 -30.94353,50.22031"
       id="path3969"
       inkscape:export-filename="C:\Users\brayan.bedritchuk\Desktop\g4076.png"
       inkscape:export-xdpi="90"
       inkscape:export-ydpi="90" />
    <path
       transform="matrix(0,-1.8807218,-1.8807218,0,385.32147,-1046.5779)"
       d="m -847,495.36218 a 48,48 0 1 1 -96,0 48,48 0 1 1 96,0 z"
       sodipodi:ry="48"
       sodipodi:rx="48"
       sodipodi:cy="495.36218"
       sodipodi:cx="-895"
       id="path4018"
       style="fill:#ffffff;stroke:#4d4d4d;stroke-width:6.38052893;stroke-linecap:round;stroke-linejoin:round;stroke-miterlimit:4;stroke-opacity:1;stroke-dasharray:none"
       sodipodi:type="arc"
       inkscape:export-filename="C:\Users\brayan.bedritchuk\Desktop\g4076.png"
       inkscape:export-xdpi="90"
       inkscape:export-ydpi="90" />
    <path
       style="fill:none;stroke:#4d4d4d;stroke-width:6.00000095;stroke-linecap:round;stroke-linejoin:round;stroke-miterlimit:4;stroke-opacity:1;stroke-dasharray:none"
       d="m -496.11107,611.38064 c -9.25487,-18.33849 -28.2617,-30.91503 -50.20596,-30.91503 l 0,0 c -21.95561,0 -40.97077,12.58957 -50.22031,30.94352"
       id="path4016"
       inkscape:connector-curvature="0"
       inkscape:export-filename="C:\Users\brayan.bedritchuk\Desktop\g4076.png"
       inkscape:export-xdpi="90"
       inkscape:export-ydpi="90" />
    <path
       style="fill:none;stroke:#4d4d4d;stroke-width:6.00000048;stroke-linecap:round;stroke-linejoin:round;stroke-miterlimit:4;stroke-opacity:1;stroke-dasharray:none"
       d="m -485.5438,600.77449 c -12.28617,-20.7575 -34.90419,-34.67667 -60.7732,-34.67667 l 0,0 c -25.88008,0 -48.50639,13.93109 -60.78896,34.70333"
       id="path4014"
       inkscape:connector-curvature="0"
       inkscape:export-filename="C:\Users\brayan.bedritchuk\Desktop\g4076.png"
       inkscape:export-xdpi="90"
       inkscape:export-ydpi="90" />
    <path
       inkscape:connector-curvature="0"
       id="path4000"
       d="m -496.11107,289.24613 c -9.25487,18.3385 -28.2617,30.91504 -50.20596,30.91504 l 0,0 c -21.95561,0 -40.97077,-12.58957 -50.22031,-30.94353"
       style="fill:none;stroke:#4d4d4d;stroke-width:6.00000095;stroke-linecap:round;stroke-linejoin:round;stroke-miterlimit:4;stroke-opacity:1;stroke-dasharray:none"
       inkscape:export-filename="C:\Users\brayan.bedritchuk\Desktop\g4076.png"
       inkscape:export-xdpi="90"
       inkscape:export-ydpi="90" />
    <path
       inkscape:connector-curvature="0"
       id="path3998"
       d="m -485.5438,299.85229 c -12.28617,20.7575 -34.90419,34.67666 -60.7732,34.67666 l 0,0 c -25.88008,0 -48.50639,-13.93109 -60.78896,-34.70332"
       style="fill:none;stroke:#4d4d4d;stroke-width:6.00000048;stroke-linecap:round;stroke-linejoin:round;stroke-miterlimit:4;stroke-opacity:1;stroke-dasharray:none"
       inkscape:export-filename="C:\Users\brayan.bedritchuk\Desktop\g4076.png"
       inkscape:export-xdpi="90"
       inkscape:export-ydpi="90" />
    <path
       sodipodi:type="star"
       style="fill:#80b3ff;fill-opacity:1;stroke:#4d4d4d;stroke-width:40.89130402;stroke-linecap:round;stroke-linejoin:round;stroke-miterlimit:4;stroke-dasharray:none"
       id="path3933"
       sodipodi:sides="4"
       sodipodi:cx="-1620"
       sodipodi:cy="-263.63782"
       sodipodi:r1="740.04321"
       sodipodi:r2="170.20995"
       sodipodi:arg1="1.5707963"
       sodipodi:arg2="2.3561945"
       inkscape:flatsided="false"
       inkscape:rounded="0.45"
       inkscape:randomized="0"
       d="m -1620,476.4054 c -284.0698,-10e-6 80.5111,-418.818893 -120.3566,-619.68661 -200.8677,-200.86772 -619.6866,163.713267 -619.6866,-120.35659 0,-284.06986 418.8189,80.5111 619.6866,-120.35663 200.8677,-200.86772 -163.7133,-619.68657 120.3566,-619.68657 284.0698,0 -80.5111,418.81886 120.3566,619.68658 200.8677,200.86771 619.68662,-163.71327 619.68661,120.35658 0,284.069862 -418.81891,-80.5111 -619.68661,120.35663 C -1700.5111,57.586516 -1335.9301,476.4054 -1620,476.4054 z"
       transform="matrix(0.29346091,0,0,0.29346091,-71.801716,527.97108)"
       inkscape:export-filename="C:\Users\brayan.bedritchuk\Desktop\g4076.png"
       inkscape:export-xdpi="90"
       inkscape:export-ydpi="90" />
    <path
       sodipodi:type="arc"
       style="fill:#4e4f51;fill-opacity:1;stroke:none"
       id="path3935"
       sodipodi:cx="-895"
       sodipodi:cy="495.36218"
       sodipodi:rx="48"
       sodipodi:ry="48"
       d="m -847,495.36218 a 48,48 0 1 1 -96,0 48,48 0 1 1 96,0 z"
       transform="matrix(0.28422484,0,0,0.28422484,-478.29046,309.51917)"
       inkscape:export-filename="C:\Users\brayan.bedritchuk\Desktop\g4076.png"
       inkscape:export-xdpi="90"
       inkscape:export-ydpi="90" />
    <path
       inkscape:connector-curvature="0"
       style="fill:none;stroke:#4d4d4d;stroke-width:12;stroke-linecap:round;stroke-linejoin:round;stroke-miterlimit:4;stroke-opacity:1;stroke-dasharray:none"
       d="m -792.46775,553.57075 c -35.57939,-20.64842 -59.50586,-59.15872 -59.50586,-103.25735 0,-44.09862 23.92647,-82.60891 59.50586,-103.25734"
       id="path3939"
       inkscape:export-filename="C:\Users\brayan.bedritchuk\Desktop\g4076.png"
       inkscape:export-xdpi="90"
       inkscape:export-ydpi="90" />
    <path
       inkscape:connector-curvature="0"
       style="fill:none;stroke:#4d4d4d;stroke-width:6.00000048;stroke-linecap:round;stroke-linejoin:round;stroke-miterlimit:4;stroke-opacity:1;stroke-dasharray:none"
       d="m -768.52238,511.11205 c -20.78126,-12.28038 -34.71966,-34.91177 -34.71966,-60.79862 0,-25.88009 13.93109,-48.50639 34.70333,-60.78898"
       id="path3958"
       inkscape:export-filename="C:\Users\brayan.bedritchuk\Desktop\g4076.png"
       inkscape:export-xdpi="90"
       inkscape:export-ydpi="90" />
    <path
       inkscape:connector-curvature="0"
       style="fill:none;stroke:#4d4d4d;stroke-width:6.00000095;stroke-linecap:round;stroke-linejoin:round;stroke-miterlimit:4;stroke-opacity:1;stroke-dasharray:none"
       d="m -757.91203,500.54324 c -18.36416,-9.24603 -30.96232,-28.26668 -30.96232,-50.22979 0,-21.95172 12.58511,-40.96403 30.93376,-50.2154"
       id="path3965"
       inkscape:export-filename="C:\Users\brayan.bedritchuk\Desktop\g4076.png"
       inkscape:export-xdpi="90"
       inkscape:export-ydpi="90" />
    <path
       transform="matrix(-0.28422484,0,0,0.28422484,-614.34349,309.51917)"
       d="m -847,495.36218 a 48,48 0 1 1 -96,0 48,48 0 1 1 96,0 z"
       sodipodi:ry="48"
       sodipodi:rx="48"
       sodipodi:cy="495.36218"
       sodipodi:cx="-895"
       id="path3988"
       style="fill:#4e4f51;fill-opacity:1;stroke:none"
       sodipodi:type="arc"
       inkscape:export-filename="C:\Users\brayan.bedritchuk\Desktop\g4076.png"
       inkscape:export-xdpi="90"
       inkscape:export-ydpi="90" />
    <path
       inkscape:connector-curvature="0"
       id="path3990"
       d="m -300.16621,553.57075 c 35.57939,-20.64842 59.50587,-59.15872 59.50587,-103.25735 0,-44.09862 -23.92648,-82.60891 -59.50587,-103.25734"
       style="fill:none;stroke:#4d4d4d;stroke-width:12;stroke-linecap:round;stroke-linejoin:round;stroke-miterlimit:4;stroke-opacity:1;stroke-dasharray:none"
       inkscape:export-filename="C:\Users\brayan.bedritchuk\Desktop\g4076.png"
       inkscape:export-xdpi="90"
       inkscape:export-ydpi="90" />
    <path
       inkscape:connector-curvature="0"
       id="path3992"
       d="m -324.11157,511.11205 c 20.78125,-12.28038 34.71965,-34.91177 34.71965,-60.79862 0,-25.88009 -13.93109,-48.50639 -34.70333,-60.78898"
       style="fill:none;stroke:#4d4d4d;stroke-width:6.00000048;stroke-linecap:round;stroke-linejoin:round;stroke-miterlimit:4;stroke-opacity:1;stroke-dasharray:none"
       inkscape:export-filename="C:\Users\brayan.bedritchuk\Desktop\g4076.png"
       inkscape:export-xdpi="90"
       inkscape:export-ydpi="90" />
    <path
       inkscape:connector-curvature="0"
       id="path3994"
       d="m -334.72193,500.54324 c 18.36416,-9.24603 30.96233,-28.26668 30.96233,-50.22979 0,-21.95172 -12.58511,-40.96403 -30.93376,-50.2154"
       style="fill:none;stroke:#4d4d4d;stroke-width:6.00000095;stroke-linecap:round;stroke-linejoin:round;stroke-miterlimit:4;stroke-opacity:1;stroke-dasharray:none"
       inkscape:export-filename="C:\Users\brayan.bedritchuk\Desktop\g4076.png"
       inkscape:export-xdpi="90"
       inkscape:export-ydpi="90" />
    <path
       transform="matrix(0,0.28422484,-0.28422484,0,-405.52275,518.33988)"
       d="m -847,495.36218 a 48,48 0 1 1 -96,0 48,48 0 1 1 96,0 z"
       sodipodi:ry="48"
       sodipodi:rx="48"
       sodipodi:cy="495.36218"
       sodipodi:cx="-895"
       id="path4004"
       style="fill:#4e4f51;fill-opacity:1;stroke:none"
       sodipodi:type="arc"
       inkscape:export-filename="C:\Users\brayan.bedritchuk\Desktop\g4076.png"
       inkscape:export-xdpi="90"
       inkscape:export-ydpi="90" />
    <path
       inkscape:connector-curvature="0"
       id="path4006"
       d="m -649.57433,204.1626 c 20.64842,-35.57939 59.15873,-59.50587 103.25735,-59.50587 44.09863,0 82.60892,23.92648 103.25735,59.50587"
       style="fill:none;stroke:#4d4d4d;stroke-width:12;stroke-linecap:round;stroke-linejoin:round;stroke-miterlimit:4;stroke-opacity:1;stroke-dasharray:none"
       inkscape:export-filename="C:\Users\brayan.bedritchuk\Desktop\g4076.png"
       inkscape:export-xdpi="90"
       inkscape:export-ydpi="90" />
    <path
       inkscape:connector-curvature="0"
       id="path4008"
       d="m -607.11562,228.10796 c 12.28038,-20.78125 34.91176,-34.71965 60.79862,-34.71965 25.88008,0 48.50638,13.93109 60.78897,34.70333"
       style="fill:none;stroke:#4d4d4d;stroke-width:6.00000048;stroke-linecap:round;stroke-linejoin:round;stroke-miterlimit:4;stroke-opacity:1;stroke-dasharray:none"
       inkscape:export-filename="C:\Users\brayan.bedritchuk\Desktop\g4076.png"
       inkscape:export-xdpi="90"
       inkscape:export-ydpi="90" />
    <path
       inkscape:connector-curvature="0"
       id="path4010"
       d="m -596.54681,238.71832 c 9.24602,-18.36416 28.26668,-30.96232 50.22978,-30.96232 21.95172,0 40.96404,12.58511 50.21541,30.93376"
       style="fill:none;stroke:#4d4d4d;stroke-width:6.00000095;stroke-linecap:round;stroke-linejoin:round;stroke-miterlimit:4;stroke-opacity:1;stroke-dasharray:none"
       inkscape:export-filename="C:\Users\brayan.bedritchuk\Desktop\g4076.png"
       inkscape:export-xdpi="90"
       inkscape:export-ydpi="90" />
    <path
       sodipodi:type="arc"
       style="fill:#4e4f51;fill-opacity:1;stroke:none"
       id="path4020"
       sodipodi:cx="-895"
       sodipodi:cy="495.36218"
       sodipodi:rx="48"
       sodipodi:ry="48"
       d="m -847,495.36218 a 48,48 0 1 1 -96,0 48,48 0 1 1 96,0 z"
       transform="matrix(0,-0.28422484,-0.28422484,0,-405.52275,382.28689)"
       inkscape:export-filename="C:\Users\brayan.bedritchuk\Desktop\g4076.png"
       inkscape:export-xdpi="90"
       inkscape:export-ydpi="90" />
    <path
       style="fill:none;stroke:#4d4d4d;stroke-width:12;stroke-linecap:round;stroke-linejoin:round;stroke-miterlimit:4;stroke-opacity:1;stroke-dasharray:none"
       d="m -649.57433,696.46417 c 20.64842,35.5794 59.15873,59.50587 103.25735,59.50587 44.09863,0 82.60892,-23.92647 103.25735,-59.50587"
       id="path4022"
       inkscape:connector-curvature="0"
       inkscape:export-filename="C:\Users\brayan.bedritchuk\Desktop\g4076.png"
       inkscape:export-xdpi="90"
       inkscape:export-ydpi="90" />
    <path
       style="fill:none;stroke:#4d4d4d;stroke-width:6.00000048;stroke-linecap:round;stroke-linejoin:round;stroke-miterlimit:4;stroke-opacity:1;stroke-dasharray:none"
       d="m -607.11562,672.51881 c 12.28038,20.78126 34.91176,34.71965 60.79862,34.71965 25.88008,0 48.50638,-13.93109 60.78897,-34.70333"
       id="path4024"
       inkscape:connector-curvature="0"
       inkscape:export-filename="C:\Users\brayan.bedritchuk\Desktop\g4076.png"
       inkscape:export-xdpi="90"
       inkscape:export-ydpi="90" />
    <path
       style="fill:none;stroke:#4d4d4d;stroke-width:6.00000095;stroke-linecap:round;stroke-linejoin:round;stroke-miterlimit:4;stroke-opacity:1;stroke-dasharray:none"
       d="m -596.54681,661.90846 c 9.24602,18.36416 28.26668,30.96232 50.22978,30.96232 21.95172,0 40.96404,-12.58511 50.21541,-30.93376"
       id="path4026"
       inkscape:connector-curvature="0"
       inkscape:export-filename="C:\Users\brayan.bedritchuk\Desktop\g4076.png"
       inkscape:export-xdpi="90"
       inkscape:export-ydpi="90" />
  </g>
</svg>
