<?xml version="1.0" encoding="UTF-8" standalone="no"?>
<!-- Created with Inkscape (http://www.inkscape.org/) -->

<svg
   xmlns:dc="http://purl.org/dc/elements/1.1/"
   xmlns:cc="http://creativecommons.org/ns#"
   xmlns:rdf="http://www.w3.org/1999/02/22-rdf-syntax-ns#"
   xmlns:svg="http://www.w3.org/2000/svg"
   xmlns="http://www.w3.org/2000/svg"
   xmlns:sodipodi="http://sodipodi.sourceforge.net/DTD/sodipodi-0.dtd"
   xmlns:inkscape="http://www.inkscape.org/namespaces/inkscape"
   width="210mm"
   height="297mm"
   viewBox="0 0 744.09448819 1052.3622047"
   id="svg2"
   version="1.1"
   inkscape:version="0.91 r13725"
   sodipodi:docname="Landscape.svg"
   inkscape:export-filename="E:\Tasks\Google Drive\Design\Inkscape\Other\2016-07-12\Landscape2.png"
   inkscape:export-xdpi="16.780001"
   inkscape:export-ydpi="16.780001">
  <defs
     id="defs4">
    <inkscape:path-effect
       effect="skeletal"
       id="path-effect4442"
       is_visible="true"
       pattern="m -783.87829,3499.3196 c 0,-2.76 2.24,-5 5,-5 2.76,0 5,2.24 5,5 0,2.76 -2.24,5 -5,5 -2.76,0 -5,-2.24 -5,-5 z"
       copytype="single_stretched"
       prop_scale="1"
       scale_y_rel="false"
       spacing="0"
       normal_offset="0"
       tang_offset="0"
       prop_units="false"
       vertical_pattern="false"
       fuse_tolerance="0" />
    <inkscape:path-effect
       fuse_tolerance="0"
       vertical_pattern="false"
       prop_units="false"
       tang_offset="0"
       normal_offset="0"
       spacing="0"
       scale_y_rel="false"
       prop_scale="1"
       copytype="single_stretched"
       pattern="m -937.42148,3612.4567 c 0,-2.76 2.24,-5 5,-5 2.76,0 5,2.24 5,5 0,2.76 -2.24,5 -5,5 -2.76,0 -5,-2.24 -5,-5 z"
       is_visible="true"
       id="path-effect4439"
       effect="skeletal" />
    <inkscape:path-effect
       effect="skeletal"
       id="path-effect4436"
       is_visible="true"
       pattern="m -1123.2895,3733.675 c 0,-2.76 2.24,-5 5,-5 2.76,0 5,2.24 5,5 0,2.76 -2.24,5 -5,5 -2.76,0 -5,-2.24 -5,-5 z"
       copytype="single_stretched"
       prop_scale="1"
       scale_y_rel="false"
       spacing="0"
       normal_offset="0"
       tang_offset="0"
       prop_units="false"
       vertical_pattern="false"
       fuse_tolerance="0" />
    <inkscape:path-effect
       effect="skeletal"
       id="path-effect4379"
       is_visible="true"
       pattern="m 1208,-67 c 0,-2.76 2.24,-5 5,-5 2.76,0 5,2.24 5,5 0,2.76 -2.24,5 -5,5 -2.76,0 -5,-2.24 -5,-5 z"
       copytype="single_stretched"
       prop_scale="1"
       scale_y_rel="false"
       spacing="0"
       normal_offset="0"
       tang_offset="0"
       prop_units="false"
       vertical_pattern="false"
       fuse_tolerance="0" />
    <inkscape:path-effect
       effect="skeletal"
       id="path-effect4368"
       is_visible="true"
       pattern="M 0,5 C 0,2.24 2.24,0 5,0 7.76,0 10,2.24 10,5 10,7.76 7.76,10 5,10 2.24,10 0,7.76 0,5 Z"
       copytype="single_stretched"
       prop_scale="1"
       scale_y_rel="false"
       spacing="0"
       normal_offset="0"
       tang_offset="0"
       prop_units="false"
       vertical_pattern="false"
       fuse_tolerance="0" />
    <inkscape:path-effect
       fuse_tolerance="0"
       vertical_pattern="false"
       prop_units="false"
       tang_offset="0"
       normal_offset="0"
       spacing="0"
       scale_y_rel="false"
       prop_scale="1"
       copytype="single_stretched"
       pattern="m -1307.2895,1347.9241 c 0,-2.76 2.24,-5 5,-5 2.76,0 5,2.24 5,5 0,2.76 -2.24,5 -5,5 -2.76,0 -5,-2.24 -5,-5 z"
       is_visible="true"
       id="path-effect4356"
       effect="skeletal" />
    <inkscape:path-effect
       effect="skeletal"
       id="path-effect4352"
       is_visible="true"
       pattern="m -1121.4215,1226.7058 c 0,-2.76 2.24,-5 5,-5 2.76,0 5,2.24 5,5 0,2.76 -2.24,5 -5,5 -2.76,0 -5,-2.24 -5,-5 z"
       copytype="single_stretched"
       prop_scale="1"
       scale_y_rel="false"
       spacing="0"
       normal_offset="0"
       tang_offset="0"
       prop_units="false"
       vertical_pattern="false"
       fuse_tolerance="0" />
    <inkscape:path-effect
       fuse_tolerance="0"
       vertical_pattern="false"
       prop_units="false"
       tang_offset="0"
       normal_offset="0"
       spacing="0"
       scale_y_rel="false"
       prop_scale="1"
       copytype="single_stretched"
       pattern="m -1054.5992,1112.1271 c 0,-2.76 2.24,-5 5,-5 2.76,0 5,2.24 5,5 0,2.76 -2.24,5 -5,5 -2.76,0 -5,-2.24 -5,-5 z"
       is_visible="true"
       id="path-effect4348"
       effect="skeletal" />
    <inkscape:path-effect
       effect="skeletal"
       id="path-effect4344"
       is_visible="true"
       pattern="m -1212.183,966.66518 c 0,-2.76 2.24,-5 5,-5 2.76,0 5,2.24 5,5 0,2.76 -2.24,5 -5,5 -2.76,0 -5,-2.24 -5,-5 z"
       copytype="single_stretched"
       prop_scale="1"
       scale_y_rel="false"
       spacing="0"
       normal_offset="0"
       tang_offset="0"
       prop_units="false"
       vertical_pattern="false"
       fuse_tolerance="0" />
    <inkscape:path-effect
       fuse_tolerance="0"
       vertical_pattern="false"
       prop_units="false"
       tang_offset="0"
       normal_offset="0"
       spacing="0"
       scale_y_rel="false"
       prop_scale="1"
       copytype="single_stretched"
       pattern="m -967.87829,1113.5687 c 0,-2.76 2.24,-5 5,-5 2.76,0 5,2.24 5,5 0,2.76 -2.24,5 -5,5 -2.76,0 -5,-2.24 -5,-5 z"
       is_visible="true"
       id="path-effect4340"
       effect="skeletal" />
    <inkscape:path-effect
       effect="skeletal"
       id="path-effect4336"
       is_visible="true"
       pattern="m -1196.1018,3446.9497 c 0,-2.76 2.24,-5 5,-5 2.76,0 5,2.24 5,5 0,2.76 -2.24,5 -5,5 -2.76,0 -5,-2.24 -5,-5 z"
       copytype="single_stretched"
       prop_scale="1"
       scale_y_rel="false"
       spacing="0"
       normal_offset="0"
       tang_offset="0"
       prop_units="false"
       vertical_pattern="false"
       fuse_tolerance="0" />
    <inkscape:path-effect
       effect="skeletal"
       id="path-effect4272"
       is_visible="true"
       pattern="m 307.08638,-892.01545 c 0,-2.76 2.24,-5 5,-5 2.76,0 5,2.24 5,5 0,2.76 -2.24,5 -5,5 -2.76,0 -5,-2.24 -5,-5 z"
       copytype="single_stretched"
       prop_scale="1"
       scale_y_rel="false"
       spacing="0"
       normal_offset="0"
       tang_offset="0"
       prop_units="false"
       vertical_pattern="false"
       fuse_tolerance="0" />
    <inkscape:path-effect
       effect="skeletal"
       id="path-effect4268"
       is_visible="true"
       pattern="M 0,5 C 0,2.24 2.24,0 5,0 7.76,0 10,2.24 10,5 10,7.76 7.76,10 5,10 2.24,10 0,7.76 0,5 Z"
       copytype="single_stretched"
       prop_scale="1"
       scale_y_rel="false"
       spacing="0"
       normal_offset="0"
       tang_offset="0"
       prop_units="false"
       vertical_pattern="false"
       fuse_tolerance="0" />
  </defs>
  <sodipodi:namedview
     id="base"
     pagecolor="#ffffff"
     bordercolor="#666666"
     borderopacity="1.0"
     inkscape:pageopacity="0.0"
     inkscape:pageshadow="2"
     inkscape:zoom="0.125"
     inkscape:cx="-1505.4035"
     inkscape:cy="-432.7626"
     inkscape:document-units="px"
     inkscape:current-layer="layer1"
     showgrid="false"
     showborder="false"
     inkscape:object-paths="true"
     inkscape:snap-intersection-paths="true"
     inkscape:object-nodes="true"
     inkscape:window-width="1680"
     inkscape:window-height="987"
     inkscape:window-x="-8"
     inkscape:window-y="-8"
     inkscape:window-maximized="1"
     inkscape:snap-nodes="false" />
  <metadata
     id="metadata7">
    <rdf:RDF>
      <cc:Work
         rdf:about="">
        <dc:format>image/svg+xml</dc:format>
        <dc:type
           rdf:resource="http://purl.org/dc/dcmitype/StillImage" />
        <dc:title />
      </cc:Work>
    </rdf:RDF>
  </metadata>
  <g
     inkscape:label="Layer 1"
     inkscape:groupmode="layer"
     id="layer1">
    <rect
       style="opacity:1;fill:#80b3ff;fill-opacity:1;stroke:#000000;stroke-width:1.01361322;stroke-opacity:1"
       id="rect4385"
       width="3896.658"
       height="2343.9863"
       x="-2808"
       y="-507.62305" />
    <path
       style="fill:#008080;fill-rule:evenodd;stroke:none;stroke-width:1.00111282px;stroke-linecap:butt;stroke-linejoin:miter;stroke-opacity:1"
       d="m 1088.658,1136.3398 c -260.25861,77.656 -379.39552,42.0173 -721.60337,236.0215 -705.56769,400 -1371.04633,176 -2421.38003,-40 -611.271,-125.7072 -608.2631,-85.612 -753.6746,-3.373 l 0,507.375 3896.658,0 z"
       id="path4381"
       inkscape:connector-curvature="0"
       sodipodi:nodetypes="csscccc" />
    <rect
       style="opacity:1;fill:#ffd42a;fill-opacity:1;stroke:none;stroke-opacity:1"
       id="rect4274"
       width="344.35416"
       height="344.35416"
       x="453.30951"
       y="-279.47006" />
    <rect
       y="-437.702"
       x="404.22711"
       height="344.35416"
       width="344.35416"
       id="rect4276"
       style="opacity:1;fill:#ffd42a;fill-opacity:1;stroke:none;stroke-opacity:1"
       transform="matrix(0.96592582,0.25881906,-0.25881906,0.96592582,0,0)" />
    <rect
       transform="matrix(0.8660254,0.50000001,-0.50000001,0.8660254,0,0)"
       style="opacity:1;fill:#ffd42a;fill-opacity:1;stroke:none;stroke-opacity:1"
       id="rect4278"
       width="344.35416"
       height="344.35416"
       x="315.86371"
       y="-577.83881" />
    <rect
       y="-690.33051"
       x="194.24118"
       height="344.35416"
       width="344.35416"
       id="rect4280"
       style="opacity:1;fill:#ffd42a;fill-opacity:1;stroke:none;stroke-opacity:1"
       transform="matrix(0.70710678,0.70710678,-0.70710678,0.70710678,0,0)" />
    <rect
       transform="matrix(0.50000001,0.8660254,-0.8660254,0.50000001,0,0)"
       style="opacity:1;fill:#ffd42a;fill-opacity:1;stroke:none;stroke-opacity:1"
       id="rect4282"
       width="344.35416"
       height="344.35416"
       x="47.647808"
       y="-767.51086" />
    <rect
       y="-804.12024"
       x="-113.92627"
       height="344.35416"
       width="344.35416"
       id="rect4284"
       style="opacity:1;fill:#ffd42a;fill-opacity:1;stroke:none;stroke-opacity:1"
       transform="matrix(0.25881906,0.96592582,-0.96592582,0.25881906,0,0)" />
    <circle
       style="opacity:1;fill:#ffffff;fill-opacity:1;stroke:none;stroke-opacity:1"
       id="path4322"
       cx="625.48663"
       cy="-107.29298"
       r="137.14952" />
    <path
       inkscape:connector-curvature="0"
       inkscape:original-d="m -1027.0099,530.29791 c 0,0 39.09491,-23.31979 66.87291,-5.14407 27.778,18.17572 50.0748,20.07001 82.9969,3.95192 32.922,-16.1181 49.2582,-9.13452 65.3763,10.07001"
       inkscape:path-effect="#path-effect4340"
       id="path4338"
       d="m -1027.0021,530.29327 c -0.021,-0.0356 -0.034,-0.0755 -0.04,-0.11958 -6e-4,-0.0458 0.01,-0.0971 0.026,-0.15356 0,0 0,0 0,0 0.036,-0.11224 0.1102,-0.24477 0.2211,-0.39702 l 0,0 c 0.2195,-0.30052 0.5821,-0.67428 1.0889,-1.1145 l 0,0 c 0.9773,-0.84879 2.4803,-1.93487 4.512,-3.17151 l 0,0 c 3.6293,-2.21006 9.2542,-5.08857 16.4147,-7.42355 l 0,0 c 6.11765,-2.00446 13.97179,-3.78151 22.679,-3.6351 l 0,0 c 7.75244,0.12853 16.51248,2.04879 24.48104,7.0269 l 0,10e-6 1e-5,0 0,0 c 5.90492,3.69243 12.39571,7.28056 19.28559,9.81886 l 0,0 c 5.68876,2.09988 11.80138,3.54649 18.04279,3.87481 0.82921,0.047 1.66285,0.0745 2.50052,0.0829 5.58667,0.0564 11.16135,-0.73399 16.49025,-2.02814 7.77664,-1.88873 15.25662,-4.92809 22.11419,-8.12594 7.80856,-3.6893 15.36232,-6.408 23.05838,-7.77957 6.65318,-1.19921 12.98327,-1.06695 18.68805,0.33778 0,0 10e-6,0 10e-6,0 6.25127,1.58894 11.24042,4.65321 14.82348,7.61693 8.95553,7.42174 11.14752,13.82456 10.8518,14.07275 -1.1682,0.98045 -4.87346,-4.29511 -13.91863,-9.81117 -3.50248,-2.13633 -8.06516,-4.27738 -13.17945,-5.06113 0,0 -1e-5,0 -1e-5,0 -4.71284,-0.76878 -9.9089,-0.42392 -15.61635,0.9057 -6.69698,1.57333 -13.31284,4.36479 -20.61644,8.07447 -7.09399,3.6328 -15.09054,7.08272 -23.7878,9.35064 -5.99663,1.56342 -12.40486,2.49826 -19.00149,2.44007 -0.98832,-0.009 -1.97541,-0.0397 -2.96073,-0.0934 -7.43254,-0.43091 -14.52062,-2.16257 -20.98116,-4.69351 l 0,0 c -7.76534,-3.04779 -14.72968,-7.12249 -20.82928,-11.28509 0,0 -10e-6,0 -10e-6,0 -6.03516,-4.18433 -13.26106,-6.1277 -19.83778,-6.70052 l 0,0 c -7.4801,-0.64532 -14.80089,0.37971 -20.67948,1.5968 l 0,0 c -6.8212,1.42318 -12.7055,3.36503 -16.5416,4.62814 l 0,0 c -2.1713,0.71546 -3.9082,1.29234 -5.1147,1.61816 l 0,0 c -0.631,0.17043 -1.1331,0.27662 -1.4953,0.30741 l 0,0 c -0.1851,0.0159 -0.3352,0.0122 -0.4491,-0.0123 0,0 0,0 0,0 -0.057,-0.0123 -0.1059,-0.03 -0.1451,-0.0531 -0.035,-0.0269 -0.063,-0.058 -0.084,-0.0936 z"
       style="fill:#000000;fill-rule:evenodd;stroke:none;stroke-width:1px;stroke-linecap:butt;stroke-linejoin:miter;stroke-opacity:1"
       sodipodi:nodetypes="cssc" />
    <path
       sodipodi:nodetypes="cssc"
       style="fill:#000000;fill-rule:evenodd;stroke:none;stroke-width:1px;stroke-linecap:butt;stroke-linejoin:miter;stroke-opacity:1"
       d="m -1180.5453,643.43035 c -0.021,-0.0356 -0.034,-0.0755 -0.04,-0.11958 -6e-4,-0.0459 0.01,-0.0971 0.026,-0.15356 0,0 0,0 0,0 0.036,-0.11224 0.1102,-0.24477 0.2211,-0.39702 l 0,0 c 0.2195,-0.30052 0.5821,-0.67428 1.0889,-1.1145 l 0,0 c 0.9773,-0.84879 2.4803,-1.93487 4.512,-3.17151 l 0,0 c 3.6293,-2.21006 9.2542,-5.08857 16.4147,-7.42355 l 0,0 c 6.1176,-2.00446 13.9718,-3.78151 22.679,-3.6351 l 0,0 c 7.7524,0.12853 16.5125,2.04879 24.481,7.0269 l 0,1e-5 0,0 0,0 c 5.905,3.69243 12.3958,7.28056 19.2856,9.81886 l 0,0 c 5.6888,2.09988 11.8014,3.54649 18.0428,3.87481 0.8292,0.047 1.6629,0.0745 2.5006,0.0829 5.5866,0.0564 11.1613,-0.73399 16.4902,-2.02814 7.7766,-1.88873 15.2566,-4.92809 22.1142,-8.12594 7.8085,-3.6893 15.3623,-6.408 23.0584,-7.77957 6.6532,-1.19921 12.98325,-1.06695 18.68803,0.33778 0,0 10e-6,0 10e-6,0 6.25127,1.58894 11.24042,4.65321 14.82348,7.61693 8.95553,7.42173 11.14752,13.82456 10.8518,14.07275 -1.1682,0.98045 -4.87346,-4.29511 -13.91863,-9.81117 -3.50249,-2.13633 -8.06516,-4.27738 -13.17946,-5.06113 0,0 0,0 0,0 -4.71285,-0.76878 -9.90893,-0.42392 -15.61633,0.9057 -6.697,1.57333 -13.3129,4.36479 -20.6165,8.07447 -7.094,3.6328 -15.0905,7.08272 -23.7878,9.35064 -5.9966,1.56342 -12.4048,2.49826 -19.0014,2.44007 -0.9884,-0.009 -1.9755,-0.0397 -2.9608,-0.0934 -7.4325,-0.43091 -14.5206,-2.16257 -20.9812,-4.69351 l 0,0 c -7.7653,-3.04779 -14.7296,-7.12249 -20.8292,-11.28509 0,0 0,0 0,0 -6.0352,-4.18433 -13.2611,-6.1277 -19.8378,-6.70052 l 0,0 c -7.4801,-0.64532 -14.8009,0.37971 -20.6795,1.5968 l 0,0 c -6.8212,1.42317 -12.7055,3.36503 -16.5416,4.62814 l 0,0 c -2.1713,0.71546 -3.9082,1.29234 -5.1147,1.61816 l 0,0 c -0.631,0.17043 -1.1331,0.27662 -1.4953,0.30741 l 0,0 c -0.1851,0.0159 -0.3352,0.0122 -0.4491,-0.0123 0,0 0,0 0,0 -0.058,-0.0123 -0.1059,-0.03 -0.1451,-0.0531 -0.035,-0.0269 -0.063,-0.058 -0.084,-0.0936 z"
       id="path4350"
       inkscape:path-effect="#path-effect4352"
       inkscape:original-d="m -1180.5531,643.43499 c 0,0 39.0949,-23.31979 66.8729,-5.14407 27.778,18.17572 50.0748,20.07001 82.9969,3.95192 32.92202,-16.1181 49.25822,-9.13452 65.37632,10.07001"
       inkscape:connector-curvature="0" />
    <path
       inkscape:connector-curvature="0"
       inkscape:original-d="m -1366.4211,764.6533 c 0,0 39.0949,-23.31979 66.8729,-5.14407 27.778,18.17572 50.0748,20.07001 82.9969,3.95192 32.9219,-16.1181 49.2581,-9.13452 65.3763,10.07001"
       inkscape:path-effect="#path-effect4356"
       id="path4354"
       d="m -1366.4211,764.65329 c -0.4409,-1.08145 7.7755,-5.58867 22.0492,-12.31901 6.1486,-2.0156 14.0664,-3.81548 22.8608,-3.70044 7.7524,0.12853 16.5125,2.04879 24.481,7.0269 0,10e-6 0,10e-6 0,10e-6 5.905,3.69243 12.3958,7.28056 19.2856,9.81886 5.6888,2.09988 11.8014,3.54649 18.0428,3.87481 0.8292,0.047 1.6629,0.0745 2.5005,0.0829 5.5867,0.0564 11.1614,-0.73399 16.4903,-2.02814 7.7766,-1.88873 15.2566,-4.92809 22.1142,-8.12594 7.8085,-3.68929 15.3623,-6.408 23.0583,-7.77957 6.6532,-1.19922 12.9833,-1.06696 18.688,0.33778 0,0 0,0 0,0 6.2513,1.58894 11.2405,4.65321 14.8235,7.61693 8.9556,7.42173 11.1476,13.82456 10.8519,14.07275 -1.1682,0.98045 -4.8735,-4.2951 -13.9187,-9.81116 -3.5025,-2.13634 -8.0652,-4.27738 -13.1795,-5.06114 0,0 0,0 0,0 -4.7128,-0.76878 -9.9089,-0.42392 -15.6163,0.9057 -6.697,1.57333 -13.3128,4.36479 -20.6164,8.07447 -7.094,3.6328 -15.0905,7.08272 -23.7878,9.35064 -5.9966,1.56342 -12.4048,2.49826 -19.0015,2.44007 -0.9883,-0.009 -1.9754,-0.0397 -2.9607,-0.0934 -7.4325,-0.43091 -14.5206,-2.16257 -20.9812,-4.69351 -7.7653,-3.04778 -14.7296,-7.12249 -20.8292,-11.28509 0,0 0,0 0,0 -6.0352,-4.18433 -13.2611,-6.1277 -19.8378,-6.70052 -7.3937,-0.6766 -14.6492,0.32541 -20.4977,1.53145 -14.5694,5.03112 -23.5787,7.54511 -24.0193,6.46465 z"
       style="fill:#000000;fill-rule:evenodd;stroke:none;stroke-width:1px;stroke-linecap:butt;stroke-linejoin:miter;stroke-opacity:1"
       sodipodi:nodetypes="cssc" />
    <path
       style="opacity:1;fill:#ffffff;fill-opacity:1;stroke:none;stroke-opacity:1"
       d="m -1865.2852,-275.62305 a 58.57143,58.57143 0 0 0 -58.4433,55.98046 58.57143,58.57143 0 0 0 -18.6992,-3.12304 58.57143,58.57143 0 0 0 -58.5723,58.57031 58.57143,58.57143 0 0 0 6.2871,26.375 58.57143,58.57143 0 0 0 -32.0019,52.19727 58.57143,58.57143 0 0 0 58.5722,58.57031 58.57143,58.57143 0 0 0 5.9473,-0.36524 58.57143,58.57143 0 0 0 -0.2324,4.65235 58.57143,58.57143 0 0 0 58.5703,58.57031 58.57143,58.57143 0 0 0 45.3828,-21.60547 58.57143,58.57143 0 0 0 50.332,28.74805 58.57143,58.57143 0 0 0 56.3516,-42.81249998 58.57143,58.57143 0 0 0 27.9336,7.09960998 58.57143,58.57143 0 0 0 58.5722,-58.57227 58.57143,58.57143 0 0 0 -3.1757,-18.80078 58.57143,58.57143 0 0 0 4.6035,0.23047 58.57143,58.57143 0 0 0 58.5722,-58.57227 58.57143,58.57143 0 0 0 -58.5722,-58.57226 58.57143,58.57143 0 0 0 -0.9258,0.0332 58.57143,58.57143 0 0 0 0.9258,-10.0332 58.57143,58.57143 0 0 0 -58.5703,-58.57031 58.57143,58.57143 0 0 0 -16.4317,2.38867 58.57143,58.57143 0 0 0 -43.5683,-19.53125 58.57143,58.57143 0 0 0 -40.0098,15.85351 58.57143,58.57143 0 0 0 -0.832,-0.94726 58.57143,58.57143 0 0 0 -42.0157,-17.76367 z"
       id="path5058"
       inkscape:connector-curvature="0" />
    <path
       inkscape:connector-curvature="0"
       id="path5715"
       d="m -37.2852,442.94726 a 58.57143,58.57143 0 0 1 -58.4433,-55.98046 58.57143,58.57143 0 0 1 -18.6992,3.12304 58.57143,58.57143 0 0 1 -58.5723,-58.57031 58.57143,58.57143 0 0 1 6.2871,-26.375 58.57143,58.57143 0 0 1 -32.0019,-52.19727 58.57143,58.57143 0 0 1 58.5722,-58.57031 58.57143,58.57143 0 0 1 5.9473,0.36524 58.57143,58.57143 0 0 1 -0.2324,-4.65235 58.57143,58.57143 0 0 1 58.5703,-58.57031 58.57143,58.57143 0 0 1 45.3828,21.60547 58.57143,58.57143 0 0 1 50.332,-28.74805 58.57143,58.57143 0 0 1 56.3516,42.8125 58.57143,58.57143 0 0 1 27.9336,-7.09961 58.57143,58.57143 0 0 1 58.5722,58.57227 58.57143,58.57143 0 0 1 -3.1757,18.80078 58.57143,58.57143 0 0 1 4.6035,-0.23047 58.57143,58.57143 0 0 1 58.5722,58.57227 58.57143,58.57143 0 0 1 -58.5722,58.57226 58.57143,58.57143 0 0 1 -0.9258,-0.0332 58.57143,58.57143 0 0 1 0.9258,10.0332 58.57143,58.57143 0 0 1 -58.5703,58.57031 58.57143,58.57143 0 0 1 -16.4317,-2.38867 58.57143,58.57143 0 0 1 -43.5683,19.53125 58.57143,58.57143 0 0 1 -40.0098,-15.85351 58.57143,58.57143 0 0 1 -0.832,0.94726 58.57143,58.57143 0 0 1 -42.0157,17.76367 z"
       style="opacity:1;fill:#ffffff;fill-opacity:1;stroke:none;stroke-opacity:1" />
    <path
       style="opacity:1;fill:#ffffff;fill-opacity:1;stroke:none;stroke-opacity:1"
       d="m -689.37891,-311.64453 a 62.225395,62.225395 0 0 0 -62.22656,62.22461 62.225395,62.225395 0 0 0 1.5,13.22461 62.225395,62.225395 0 0 0 -28.31445,32.10547 62.225395,62.225395 0 0 0 -1.46875,-0.0742 62.225395,62.225395 0 0 0 -62.22656,62.22461 62.225395,62.225395 0 0 0 62.22656,62.226559 62.225395,62.225395 0 0 0 17.13867,-2.433593 62.225395,62.225395 0 0 0 53.57031,30.716796 62.225395,62.225395 0 0 0 49.42969,-24.552734 62.225395,62.225395 0 0 0 38.25195,13.238281 62.225395,62.225395 0 0 0 30.02735,-7.802734 62.225395,62.225395 0 0 0 57.65429,38.916016 62.225395,62.225395 0 0 0 50.39258,-25.822266 62.225395,62.225395 0 0 0 45.77344,20.166016 62.225395,62.225395 0 0 0 61.32812,-52.128907 62.225395,62.225395 0 0 0 12.21094,1.216797 62.225395,62.225395 0 0 0 62.22656,-62.224611 62.225395,62.225395 0 0 0 -53.08398,-61.47265 62.225395,62.225395 0 0 0 -60.05273,-46.00782 62.225395,62.225395 0 0 0 -12.70899,1.38282 62.225395,62.225395 0 0 0 -60.83008,-49.4668 62.225395,62.225395 0 0 0 -51.59961,27.48633 62.225395,62.225395 0 0 0 -41.73828,-16.17188 62.225395,62.225395 0 0 0 -49.04101,24.04297 62.225395,62.225395 0 0 0 -58.43946,-41.01367 z"
       id="path4165"
       inkscape:connector-curvature="0" />
    <g
       id="g4642">
      <path
         id="circle4353"
         d="m -2633.7832,108.35547 a 39.114285,39.114285 0 0 0 -39.1152,39.11328 39.114285,39.114285 0 0 0 0.9433,8.3125 39.114285,39.114285 0 0 0 -17.7969,20.18164 39.114285,39.114285 0 0 0 -0.9257,-0.0469 39.114285,39.114285 0 0 0 -39.1133,39.11523 39.114285,39.114285 0 0 0 39.1133,39.11328 39.114285,39.114285 0 0 0 10.7734,-1.5293 39.114285,39.114285 0 0 0 33.6758,19.3086 39.114285,39.114285 0 0 0 31.0683,-15.4336 39.114285,39.114285 0 0 0 24.0469,8.32227 39.114285,39.114285 0 0 0 18.875,-4.90625 39.114285,39.114285 0 0 0 36.2403,24.46289 39.114285,39.114285 0 0 0 31.6757,-16.23047 39.114285,39.114285 0 0 0 28.7735,12.67578 39.114285,39.114285 0 0 0 38.5508,-32.76953 39.114285,39.114285 0 0 0 7.6757,0.76563 39.114285,39.114285 0 0 0 39.1133,-39.11328 39.114285,39.114285 0 0 0 -33.3672,-38.64258 39.114285,39.114285 0 0 0 -37.748,-28.91992 39.114285,39.114285 0 0 0 -7.9903,0.87109 39.114285,39.114285 0 0 0 -38.2363,-31.0957 39.114285,39.114285 0 0 0 -32.4355,17.27734 39.114285,39.114285 0 0 0 -26.2364,-10.16406 39.114285,39.114285 0 0 0 -30.8261,15.11328 39.114285,39.114285 0 0 0 -36.7344,-25.78125 z"
         style="opacity:1;fill:#ffffff;fill-opacity:1;stroke:none;stroke-opacity:1"
         inkscape:connector-curvature="0" />
    </g>
  </g>
</svg>
