<?xml version="1.0" encoding="UTF-8" standalone="no"?>
<!-- Created with Inkscape (http://www.inkscape.org/) -->

<svg
   xmlns:dc="http://purl.org/dc/elements/1.1/"
   xmlns:cc="http://creativecommons.org/ns#"
   xmlns:rdf="http://www.w3.org/1999/02/22-rdf-syntax-ns#"
   xmlns:svg="http://www.w3.org/2000/svg"
   xmlns="http://www.w3.org/2000/svg"
   version="1.1"
   width="210mm"
   height="297mm"
   viewBox="0 0 744.09449 1052.3622"
   id="svg2">
  <defs
     id="defs4" />
  <metadata
     id="metadata7">
    <rdf:RDF>
      <cc:Work
         rdf:about="">
        <dc:format>image/svg+xml</dc:format>
        <dc:type
           rdf:resource="http://purl.org/dc/dcmitype/StillImage" />
        <dc:title></dc:title>
      </cc:Work>
    </rdf:RDF>
  </metadata>
  <g
     id="layer1">
    <path
       d="m -382,314.36133 c -16.09915,0 -30.65257,1.62511 -41.94141,4.54883 -5.64442,1.46187 -10.46273,3.16872 -14.67187,5.74609 -4.20914,2.57737 -9.17383,6.94831 -9.17383,14.17383 l 0,7.5625 c -14.10513,1.84917 -27.14131,4.29894 -38.76953,7.31054 -14.07093,3.64428 -26.0813,7.89912 -36.57422,14.32422 C -533.62378,374.45245 -546,385.34889 -546,403.36133 l 0,404 c 0,18.01243 12.37622,28.90888 22.86914,35.33398 10.49292,6.42511 22.50329,10.67995 36.57422,14.32422 28.14186,7.28854 64.42322,11.3418 104.55664,11.3418 40.13342,0 76.41478,-4.05326 104.55664,-11.3418 14.07093,-3.64427 26.0813,-7.89911 36.57422,-14.32422 C -230.37622,836.27021 -218,825.37376 -218,807.36133 l 0,-404 c 0,-18.01244 -12.37622,-28.90888 -22.86914,-35.33399 -10.49292,-6.4251 -22.50329,-10.67994 -36.57422,-14.32422 -11.62822,-3.01161 -24.6644,-5.46137 -38.76953,-7.31054 l 0,-7.5625 c 0,-7.22552 -4.96469,-11.59646 -9.17383,-14.17383 -4.20914,-2.57737 -9.02745,-4.28422 -14.67187,-5.74609 -11.28884,-2.92372 -25.84226,-4.54883 -41.94141,-4.54883 z m 65.78711,57.30078 A 139,36 0 0 1 -243,403.36133 a 139,36 0 0 1 -139,36 139,36 0 0 1 -139,-36 139,36 0 0 1 73.21289,-31.67578 l 0,34.20703 c 0,7.22552 4.96469,11.59646 9.17383,14.17383 4.20914,2.57737 9.02745,4.28423 14.67187,5.74609 11.28884,2.92373 25.84226,4.54883 41.94141,4.54883 16.09915,0 30.65257,-1.6251 41.94141,-4.54883 5.64442,-1.46186 10.46273,-3.16872 14.67187,-5.74609 4.20914,-2.57737 9.17383,-6.94831 9.17383,-14.17383 l 0,-34.23047 z M -521,494.36133 c 0,19.88225 62.23242,36 139,36 76.76758,0 139,-16.11775 139,-36 l 0,313 c 0,19.88225 -62.23242,36 -139,36 -76.76758,0 -139,-16.11775 -139,-36 l 0,-71.5 c 0,10.10683 16.10311,19.2348 42,25.77344 l 0,-29 c -25.89689,-6.53864 -42,-15.66661 -42,-25.77344 l 0,-41.5 c 0,10.10683 16.10311,19.2348 42,25.77344 l 0,-29 c -25.89689,-6.53864 -42,-15.66661 -42,-25.77344 l 0,-41.5 c 0,10.10683 16.10311,19.2348 42,25.77344 l 0,-29 c -25.89689,-6.53864 -42,-15.66661 -42,-25.77344 l 0,-71.5 z"
       id="path4153"
       style="font-size:medium;font-style:normal;font-variant:normal;font-weight:normal;font-stretch:normal;text-indent:0;text-align:start;text-decoration:none;line-height:normal;letter-spacing:normal;word-spacing:normal;text-transform:none;direction:ltr;block-progression:tb;writing-mode:lr-tb;text-anchor:start;baseline-shift:baseline;color:#000000;fill:#000000;fill-opacity:1;fill-rule:nonzero;stroke:none;visibility:visible;display:inline;overflow:visible;enable-background:accumulate;font-family:sans-serif" />
  </g>
</svg>
