<?xml version="1.0" encoding="UTF-8" standalone="no"?>
<!-- Created with Inkscape (http://www.inkscape.org/) -->

<svg
   xmlns:dc="http://purl.org/dc/elements/1.1/"
   xmlns:cc="http://creativecommons.org/ns#"
   xmlns:rdf="http://www.w3.org/1999/02/22-rdf-syntax-ns#"
   xmlns:svg="http://www.w3.org/2000/svg"
   xmlns="http://www.w3.org/2000/svg"
   xmlns:sodipodi="http://sodipodi.sourceforge.net/DTD/sodipodi-0.dtd"
   xmlns:inkscape="http://www.inkscape.org/namespaces/inkscape"
   width="767.39105"
   height="767.39154"
   viewBox="0 0 767.39106 767.39155"
   id="svg4189"
   version="1.1"
   inkscape:version="0.91 r13725"
   inkscape:export-filename="C:\Users\brayan.bedritchuk\Desktop\image4791.png"
   inkscape:export-xdpi="160"
   inkscape:export-ydpi="160"
   sodipodi:docname="Material Art.svg">
  <defs
     id="defs4191">
    <filter
       inkscape:collect="always"
       style="color-interpolation-filters:sRGB"
       id="filter4879"
       x="-0.035999998"
       width="1.072"
       y="-0.035999998"
       height="1.072">
      <feGaussianBlur
         inkscape:collect="always"
         stdDeviation="8.61"
         id="feGaussianBlur4881" />
    </filter>
    <filter
       inkscape:collect="always"
       style="color-interpolation-filters:sRGB"
       id="filter4943"
       x="-0.0096695293"
       width="1.0193391"
       y="-0.0074251401"
       height="1.0148503">
      <feGaussianBlur
         inkscape:collect="always"
         stdDeviation="1.9194011"
         id="feGaussianBlur4945" />
    </filter>
  </defs>
  <sodipodi:namedview
     id="base"
     pagecolor="#ffffff"
     bordercolor="#666666"
     borderopacity="1.0"
     inkscape:pageopacity="1"
     inkscape:pageshadow="2"
     inkscape:zoom="0.5"
     inkscape:cx="-219.99665"
     inkscape:cy="525.93219"
     inkscape:document-units="px"
     inkscape:current-layer="layer1"
     showgrid="false"
     showborder="true"
     units="px"
     inkscape:window-width="1680"
     inkscape:window-height="987"
     inkscape:window-x="-8"
     inkscape:window-y="-8"
     inkscape:window-maximized="1"
     fit-margin-top="16"
     fit-margin-left="16"
     fit-margin-right="16"
     fit-margin-bottom="16" />
  <metadata
     id="metadata4194">
    <rdf:RDF>
      <cc:Work
         rdf:about="">
        <dc:format>image/svg+xml</dc:format>
        <dc:type
           rdf:resource="http://purl.org/dc/dcmitype/StillImage" />
        <dc:title></dc:title>
      </cc:Work>
    </rdf:RDF>
  </metadata>
  <g
     inkscape:label="Layer 1"
     inkscape:groupmode="layer"
     id="layer1"
     transform="translate(363.69553,-77.040115)">
    <rect
       style="opacity:1;fill:#4355b7;fill-opacity:1;stroke:none;stroke-width:20;stroke-linecap:round;stroke-linejoin:round;stroke-miterlimit:4;stroke-dasharray:none;stroke-opacity:1"
       id="rect4821"
       width="735.39105"
       height="735.39105"
       x="-347.69553"
       y="93.040115"
       rx="43.840599"
       ry="43.840599" />
    <path
       style="opacity:0.2;fill:#000000;fill-opacity:1;stroke:none;stroke-width:1;stroke-linecap:round;stroke-linejoin:round;stroke-miterlimit:4;stroke-dasharray:none;stroke-opacity:1"
       d="m 20,307.05469 a 410.03659,410.03659 0 0 0 -367.69531,229.71484 l 0,247.82031 c 0,24.2877 19.55215,43.8418 43.83984,43.8418 l 647.71094,0 c 24.28769,0 43.83984,-19.5541 43.83984,-43.8418 l 0,-248.42187 A 410.03659,410.03659 0 0 0 20,307.05469 Z"
       id="circle4827"
       inkscape:connector-curvature="0" />
    <circle
       r="287"
       cy="475.26169"
       cx="20"
       id="circle4837"
       style="opacity:0.56999966;fill:#000000;fill-opacity:1;stroke:none;stroke-width:1;stroke-linecap:round;stroke-linejoin:round;stroke-miterlimit:4;stroke-dasharray:none;stroke-opacity:1;filter:url(#filter4879)" />
    <circle
       style="opacity:1;fill:#fd377b;fill-opacity:1;stroke:none;stroke-width:1;stroke-linecap:round;stroke-linejoin:round;stroke-miterlimit:4;stroke-dasharray:none;stroke-opacity:1"
       id="path4799"
       cx="20"
       cy="465.36218"
       r="287" />
    <path
       id="path4901"
       d="m 276.81866,184.00796 a 10.001,10.001 0 0 0 -6.87304,3.02539 L 36.967099,420.01187 a 10.001,10.001 0 0 0 -1.300781,1.56445 47,47 0 0 0 -12.837891,-1.80078 47,47 0 0 0 -37.865234,19.25195 L -172.98798,314.75991 a 10.001,10.001 0 0 0 -6.48632,-2.22656 10.001,10.001 0 0 0 -5.88086,17.94531 l 159.347649,125.36719 a 10.001,10.001 0 0 0 2.824219,1.58789 47,47 0 0 0 -0.988281,9.3418 47,47 0 0 0 37,45.86523 l 0,281.6211 a 10.001,10.001 0 1 0 20,0 l 0,-281.5918 a 47,47 0 0 0 37,-45.89453 47,47 0 0 0 -16.048828,-35.29102 L 284.08624,201.17593 a 10.001,10.001 0 0 0 -7.26758,-17.16797 z M 22.828427,441.14077 A 25.636364,25.636364 0 0 1 48.465146,466.77554 25.636364,25.636364 0 0 1 22.828427,492.41226 25.636364,25.636364 0 0 1 -2.8082917,466.77554 25.636364,25.636364 0 0 1 22.828427,441.14077 Z"
       style="opacity:0.38100011;fill:#000000;fill-opacity:1;stroke:none;stroke-width:1;stroke-linecap:round;stroke-linejoin:round;stroke-miterlimit:4;stroke-dasharray:none;stroke-opacity:1;filter:url(#filter4943)"
       inkscape:connector-curvature="0" />
    <path
       style="opacity:1;fill:#ffffff;fill-opacity:1;stroke:none;stroke-width:1;stroke-linecap:round;stroke-linejoin:round;stroke-miterlimit:4;stroke-dasharray:none;stroke-opacity:1"
       d="m 273.99023,182.59375 a 10.001,10.001 0 0 0 -6.87304,3.02539 L 34.138672,418.59766 A 10.001,10.001 0 0 0 32.837891,420.16211 47,47 0 0 0 20,418.36133 47,47 0 0 0 -17.865234,437.61328 L -175.81641,313.3457 a 10.001,10.001 0 0 0 -6.48632,-2.22656 10.001,10.001 0 0 0 -5.88086,17.94531 l 159.347652,125.36719 a 10.001,10.001 0 0 0 2.824219,1.58789 47,47 0 0 0 -0.988281,9.3418 47,47 0 0 0 37,45.86523 l 0,281.6211 a 10.001,10.001 0 1 0 20,0 l 0,-281.5918 A 47,47 0 0 0 67,465.36133 47,47 0 0 0 50.951172,430.07031 L 281.25781,199.76172 a 10.001,10.001 0 0 0 -7.26758,-17.16797 z M 20,439.72656 A 25.636364,25.636364 0 0 1 45.636719,465.36133 25.636364,25.636364 0 0 1 20,490.99805 25.636364,25.636364 0 0 1 -5.6367188,465.36133 25.636364,25.636364 0 0 1 20,439.72656 Z"
       id="path4794"
       inkscape:connector-curvature="0" />
    <path
       style="opacity:1;fill:#5e6ec4;fill-opacity:1;stroke:none;stroke-width:20;stroke-linecap:round;stroke-linejoin:round;stroke-miterlimit:4;stroke-dasharray:none;stroke-opacity:1"
       d="m -303.85547,93.041016 c -24.28769,0 -43.83984,19.552154 -43.83984,43.839844 l 0,12.72852 c 0,-24.2877 19.55215,-43.8418 43.83984,-43.8418 l 647.71094,0 c 24.28769,0 43.83984,19.5541 43.83984,43.8418 l 0,-12.72852 c 0,-24.28769 -19.55215,-43.839844 -43.83984,-43.839844 l -647.71094,0 z"
       id="rect4832"
       inkscape:connector-curvature="0" />
  </g>
</svg>
