<?xml version="1.0" encoding="UTF-8" standalone="no"?>
<!-- Created with Inkscape (http://www.inkscape.org/) -->

<svg
   xmlns:dc="http://purl.org/dc/elements/1.1/"
   xmlns:cc="http://creativecommons.org/ns#"
   xmlns:rdf="http://www.w3.org/1999/02/22-rdf-syntax-ns#"
   xmlns:svg="http://www.w3.org/2000/svg"
   xmlns="http://www.w3.org/2000/svg"
   xmlns:sodipodi="http://sodipodi.sourceforge.net/DTD/sodipodi-0.dtd"
   xmlns:inkscape="http://www.inkscape.org/namespaces/inkscape"
   width="488.17737"
   height="553.49634"
   id="svg2"
   version="1.1"
   inkscape:version="0.48.5 r10040"
   sodipodi:docname="New document 1">
  <defs
     id="defs4" />
  <sodipodi:namedview
     id="base"
     pagecolor="#ffffff"
     bordercolor="#666666"
     borderopacity="1.0"
     inkscape:pageopacity="0.0"
     inkscape:pageshadow="2"
     inkscape:zoom="1"
     inkscape:cx="38.090762"
     inkscape:cy="228.58896"
     inkscape:document-units="px"
     inkscape:current-layer="layer1"
     showgrid="false"
     showborder="true"
     inkscape:snap-center="true"
     inkscape:snap-bbox="true"
     inkscape:bbox-nodes="true"
     inkscape:bbox-paths="true"
     inkscape:object-nodes="true"
     inkscape:snap-global="false"
     inkscape:window-width="1920"
     inkscape:window-height="1017"
     inkscape:window-x="-8"
     inkscape:window-y="-8"
     inkscape:window-maximized="1"
     fit-margin-top="0"
     fit-margin-left="0"
     fit-margin-right="0"
     fit-margin-bottom="0" />
  <metadata
     id="metadata7">
    <rdf:RDF>
      <cc:Work
         rdf:about="">
        <dc:format>image/svg+xml</dc:format>
        <dc:type
           rdf:resource="http://purl.org/dc/dcmitype/StillImage" />
        <dc:title></dc:title>
      </cc:Work>
    </rdf:RDF>
  </metadata>
  <g
     inkscape:label="Layer 1"
     inkscape:groupmode="layer"
     id="layer1"
     transform="translate(-1995.309,-1184.9752)">
    <rect
       style="fill:#ffe788;fill-opacity:1;stroke:none"
       id="rect3898"
       width="29.635897"
       height="65.832253"
       x="2224.5798"
       y="1184.9752" />
    <rect
       y="1550.9423"
       x="2224.5798"
       height="65.832253"
       width="29.635897"
       id="rect3900"
       style="fill:#ffe788;fill-opacity:1;stroke:none" />
    <rect
       style="fill:#ffe788;fill-opacity:1;stroke:none"
       id="rect3912"
       width="29.635897"
       height="65.832253"
       x="2510.8472"
       y="557.64282"
       transform="matrix(0.96592583,0.25881905,-0.25881905,0.96592583,0,0)" />
    <rect
       style="fill:#ffe788;fill-opacity:1;stroke:none"
       id="rect3916"
       width="29.635897"
       height="65.832253"
       x="2624.9949"
       y="-122.40522"
       transform="matrix(0.8660254,0.5,-0.5,0.8660254,0,0)" />
    <rect
       style="fill:#ffe788;fill-opacity:1;stroke:none"
       id="rect3920"
       width="29.635897"
       height="65.832253"
       x="2559.2434"
       y="-808.82477"
       transform="matrix(0.70710678,0.70710678,-0.70710678,0.70710678,0,0)" />
    <rect
       style="fill:#ffe788;fill-opacity:1;stroke:none"
       id="rect3924"
       width="29.635897"
       height="65.832253"
       x="2318.0742"
       y="-1454.8374"
       transform="matrix(0.5,0.8660254,-0.8660254,0.5,0,0)" />
    <rect
       style="fill:#ffe788;fill-opacity:1;stroke:none"
       id="rect3928"
       width="29.635897"
       height="65.832253"
       x="1917.922"
       y="-2016.4186"
       transform="matrix(0.25881905,0.96592583,-0.96592583,0.25881905,0,0)" />
    <rect
       style="fill:#ffe788;fill-opacity:1;stroke:none"
       id="rect3932"
       width="29.635897"
       height="65.832253"
       x="1386.0569"
       y="-2455.2974"
       transform="matrix(0,1,-1,0,0,0)" />
    <rect
       style="fill:#ffe788;fill-opacity:1;stroke:none"
       id="rect3936"
       width="29.635897"
       height="65.832253"
       x="758.72449"
       y="-2741.5647"
       transform="matrix(-0.25881905,0.96592583,-0.96592583,-0.25881905,0,0)" />
    <rect
       style="fill:#ffe788;fill-opacity:1;stroke:none"
       id="rect3940"
       width="29.635897"
       height="65.832253"
       x="78.676445"
       y="-2855.7124"
       transform="matrix(-0.5,0.8660254,-0.8660254,-0.5,0,0)" />
    <rect
       style="fill:#ffe788;fill-opacity:1;stroke:none"
       id="rect3944"
       width="29.635897"
       height="65.832253"
       x="-607.7431"
       y="-2789.9609"
       transform="matrix(-0.70710678,0.70710678,-0.70710678,-0.70710678,0,0)" />
    <rect
       style="fill:#ffe788;fill-opacity:1;stroke:none"
       id="rect3948"
       width="29.635897"
       height="65.832253"
       x="-1253.7557"
       y="-2548.7917"
       transform="matrix(-0.8660254,0.5,-0.5,-0.8660254,0,0)" />
    <rect
       y="-2148.6396"
       x="-1815.3369"
       height="65.832253"
       width="29.635897"
       id="rect3908"
       style="fill:#ffe788;fill-opacity:1;stroke:none"
       transform="matrix(-0.96592583,0.25881905,-0.25881905,-0.96592583,0,0)" />
    <rect
       y="923.6098"
       x="2510.8472"
       height="65.832253"
       width="29.635897"
       id="rect3914"
       style="fill:#ffe788;fill-opacity:1;stroke:none"
       transform="matrix(0.96592583,0.25881905,-0.25881905,0.96592583,0,0)" />
    <rect
       y="243.56177"
       x="2624.9949"
       height="65.832253"
       width="29.635897"
       id="rect3918"
       style="fill:#ffe788;fill-opacity:1;stroke:none"
       transform="matrix(0.8660254,0.5,-0.5,0.8660254,0,0)" />
    <rect
       y="-442.85779"
       x="2559.2434"
       height="65.832253"
       width="29.635897"
       id="rect3922"
       style="fill:#ffe788;fill-opacity:1;stroke:none"
       transform="matrix(0.70710678,0.70710678,-0.70710678,0.70710678,0,0)" />
    <rect
       y="-1088.8705"
       x="2318.0742"
       height="65.832253"
       width="29.635897"
       id="rect3926"
       style="fill:#ffe788;fill-opacity:1;stroke:none"
       transform="matrix(0.5,0.8660254,-0.8660254,0.5,0,0)" />
    <rect
       y="-1650.4515"
       x="1917.922"
       height="65.832253"
       width="29.635897"
       id="rect3930"
       style="fill:#ffe788;fill-opacity:1;stroke:none"
       transform="matrix(0.25881905,0.96592583,-0.96592583,0.25881905,0,0)" />
    <rect
       y="-2089.3303"
       x="1386.0569"
       height="65.832253"
       width="29.635897"
       id="rect3934"
       style="fill:#ffe788;fill-opacity:1;stroke:none"
       transform="matrix(0,1,-1,0,0,0)" />
    <rect
       y="-2375.5979"
       x="758.72449"
       height="65.832253"
       width="29.635897"
       id="rect3938"
       style="fill:#ffe788;fill-opacity:1;stroke:none"
       transform="matrix(-0.25881905,0.96592583,-0.96592583,-0.25881905,0,0)" />
    <rect
       y="-2489.7454"
       x="78.676445"
       height="65.832253"
       width="29.635897"
       id="rect3942"
       style="fill:#ffe788;fill-opacity:1;stroke:none"
       transform="matrix(-0.5,0.8660254,-0.8660254,-0.5,0,0)" />
    <rect
       y="-2423.9941"
       x="-607.7431"
       height="65.832253"
       width="29.635897"
       id="rect3946"
       style="fill:#ffe788;fill-opacity:1;stroke:none"
       transform="matrix(-0.70710678,0.70710678,-0.70710678,-0.70710678,0,0)" />
    <rect
       y="-2182.8247"
       x="-1253.7557"
       height="65.832253"
       width="29.635897"
       id="rect3950"
       style="fill:#ffe788;fill-opacity:1;stroke:none"
       transform="matrix(-0.8660254,0.5,-0.5,-0.8660254,0,0)" />
    <rect
       style="fill:#ffe788;fill-opacity:1;stroke:none"
       id="rect3910"
       width="29.635897"
       height="65.832253"
       x="-1815.3369"
       y="-1782.6726"
       transform="matrix(-0.96592583,0.25881905,-0.25881905,-0.96592583,0,0)" />
    <path
       sodipodi:type="arc"
       style="fill:#ff9955;fill-opacity:1;stroke:none"
       id="path3761"
       sodipodi:cx="1124"
       sodipodi:cy="988.36218"
       sodipodi:rx="1088"
       sodipodi:ry="1088"
       d="M 2212,988.36218 C 2212,1589.248 1724.8858,2076.3622 1124,2076.3622 523.11419,2076.3622 36,1589.248 36,988.36218 36,387.47637 523.11419,-99.637817 1124,-99.637817 c 600.8858,0 1088,487.114187 1088,1087.999997 z"
       transform="matrix(0.13792876,0,0,0.13792876,2084.3658,1264.5504)" />
    <path
       style="fill:#ffdd55;fill-opacity:1;stroke:none"
       d="m 2239.3977,1250.8093 c -23.2557,0 -45.2744,5.2903 -64.9214,14.7325 l 36.1589,135.334 57.5249,0 36.1589,-135.334 c -19.647,-9.4422 -41.6656,-14.7325 -64.9213,-14.7325 z"
       id="path3770"
       inkscape:connector-curvature="0" />
    <path
       id="path3781"
       d="m 2239.3977,1550.9422 c -23.2557,0 -45.2744,-5.2902 -64.9214,-14.7325 l 36.1589,-135.3339 57.5249,0 36.1589,135.3339 c -19.647,9.4423 -41.6656,14.7325 -64.9213,14.7325 z"
       style="fill:#ffffff;fill-opacity:1;stroke:none"
       inkscape:connector-curvature="0" />
    <g
       id="g3814"
       transform="matrix(0.13792876,0,0,0.13792876,1960.3646,1300.9636)">
      <g
         id="g3807">
        <path
           sodipodi:type="arc"
           style="fill:#ffffff;fill-opacity:1;stroke:none"
           id="path3783"
           sodipodi:cx="1240"
           sodipodi:cy="424.36218"
           sodipodi:rx="276"
           sodipodi:ry="276"
           d="m 1516,424.36218 c 0,152.43059 -123.5694,276 -276,276 -152.4306,0 -276,-123.56941 -276,-276 0,-152.43059 123.5694,-276 276,-276 152.4306,0 276,123.56941 276,276 z"
           transform="translate(124,0)" />
        <g
           id="g3785"
           transform="translate(0,-65.053824)">
          <path
             transform="translate(1518,-31)"
             d="m 34,455.36218 c 0,103.82954 -84.170467,188 -188,188 -103.82953,0 -188,-84.17046 -188,-188 0,-103.82953 84.17047,-188 188,-188 103.829533,0 188,84.17047 188,188 z"
             sodipodi:ry="188"
             sodipodi:rx="188"
             sodipodi:cy="455.36218"
             sodipodi:cx="-154"
             id="path3753"
             style="fill:#000000;fill-opacity:1;stroke:none"
             sodipodi:type="arc" />
          <path
             transform="matrix(1.44,0,0,1.44,1346.72,-240.43936)"
             d="m 62,387.36218 c 0,27.61424 -22.385763,50 -50,50 -27.614237,0 -50,-22.38576 -50,-50 0,-27.61423 22.385763,-50 50,-50 27.614237,0 50,22.38577 50,50 z"
             sodipodi:ry="50"
             sodipodi:rx="50"
             sodipodi:cy="387.36218"
             sodipodi:cx="12"
             id="path3755"
             style="fill:#ffffff;fill-opacity:1;stroke:none"
             sodipodi:type="arc" />
          <path
             sodipodi:type="arc"
             style="fill:#ffffff;fill-opacity:1;stroke:none"
             id="path3757"
             sodipodi:cx="12"
             sodipodi:cy="387.36218"
             sodipodi:rx="50"
             sodipodi:ry="50"
             d="m 62,387.36218 c 0,27.61424 -22.385763,50 -50,50 -27.614237,0 -50,-22.38576 -50,-50 0,-27.61423 22.385763,-50 50,-50 27.614237,0 50,22.38577 50,50 z"
             transform="matrix(0.72,0,0,0.72,1491.36,113.46141)" />
        </g>
      </g>
      <g
         id="g3800">
        <path
           transform="translate(1442.047,0)"
           d="m 1516,424.36218 c 0,152.43059 -123.5694,276 -276,276 -152.4306,0 -276,-123.56941 -276,-276 0,-152.43059 123.5694,-276 276,-276 152.4306,0 276,123.56941 276,276 z"
           sodipodi:ry="276"
           sodipodi:rx="276"
           sodipodi:cy="424.36218"
           sodipodi:cx="1240"
           id="path3790"
           style="fill:#ffffff;fill-opacity:1;stroke:none"
           sodipodi:type="arc" />
        <g
           transform="translate(1318.047,-65.053824)"
           id="g3792">
          <path
             sodipodi:type="arc"
             style="fill:#000000;fill-opacity:1;stroke:none"
             id="path3794"
             sodipodi:cx="-154"
             sodipodi:cy="455.36218"
             sodipodi:rx="188"
             sodipodi:ry="188"
             d="m 34,455.36218 c 0,103.82954 -84.170467,188 -188,188 -103.82953,0 -188,-84.17046 -188,-188 0,-103.82953 84.17047,-188 188,-188 103.829533,0 188,84.17047 188,188 z"
             transform="translate(1518,-31)" />
          <path
             sodipodi:type="arc"
             style="fill:#ffffff;fill-opacity:1;stroke:none"
             id="path3796"
             sodipodi:cx="12"
             sodipodi:cy="387.36218"
             sodipodi:rx="50"
             sodipodi:ry="50"
             d="m 62,387.36218 c 0,27.61424 -22.385763,50 -50,50 -27.614237,0 -50,-22.38576 -50,-50 0,-27.61423 22.385763,-50 50,-50 27.614237,0 50,22.38577 50,50 z"
             transform="matrix(1.44,0,0,1.44,1346.72,-240.43936)" />
          <path
             transform="matrix(0.72,0,0,0.72,1491.36,113.46141)"
             d="m 62,387.36218 c 0,27.61424 -22.385763,50 -50,50 -27.614237,0 -50,-22.38576 -50,-50 0,-27.61423 22.385763,-50 50,-50 27.614237,0 50,22.38577 50,50 z"
             sodipodi:ry="50"
             sodipodi:rx="50"
             sodipodi:cy="387.36218"
             sodipodi:cx="12"
             id="path3798"
             style="fill:#ffffff;fill-opacity:1;stroke:none"
             sodipodi:type="arc" />
        </g>
      </g>
    </g>
    <path
       sodipodi:type="arc"
       style="fill:#784421;fill-opacity:1;stroke:none"
       id="path3828"
       sodipodi:cx="356.38181"
       sodipodi:cy="1165.4993"
       sodipodi:rx="271.52899"
       sodipodi:ry="271.52899"
       d="m 627.9108,1165.4993 c 0,149.9613 -121.56767,271.529 -271.52899,271.529 -149.96133,0 -271.528996,-121.5677 -271.528996,-271.529 0,-149.9614 121.567666,-271.52902 271.528996,-271.52902 149.96132,0 271.52899,121.56762 271.52899,271.52902 z"
       transform="matrix(0.11494063,0,0,0.0646541,2198.4349,1377.7825)" />
    <g
       id="g3881"
       transform="matrix(0.25555782,0,0,0.25555782,1834.3131,1215.7568)">
      <path
         inkscape:connector-curvature="0"
         id="path3837"
         d="m 1585.1142,1061.1852 c 0,0 0,0 0,0 l 0,0 0,0 c 0,42.9568 -40.3009,77.7803 -90.0146,77.7803 -49.7137,0 -90.0146,-34.8235 -90.0146,-77.7803"
         style="fill:none;stroke:#ff9955;stroke-width:12;stroke-linecap:round;stroke-linejoin:round;stroke-miterlimit:4;stroke-opacity:1;stroke-dasharray:none" />
      <path
         transform="matrix(0.22690176,0,0,0.22690176,1528.7637,875.73036)"
         d="m -271.529,744.0636 c 0,32.80404 -26.59292,59.39697 -59.39696,59.39697 -32.80404,0 -59.39697,-26.59293 -59.39697,-59.39697 0,-32.80404 26.59293,-59.39697 59.39697,-59.39697 32.80404,0 59.39696,26.59293 59.39696,59.39697 z"
         sodipodi:ry="59.396969"
         sodipodi:rx="59.396969"
         sodipodi:cy="744.0636"
         sodipodi:cx="-330.92596"
         id="path3867"
         style="fill:#000000;fill-opacity:1;stroke:none"
         sodipodi:type="arc" />
      <path
         sodipodi:type="arc"
         style="fill:#000000;fill-opacity:1;stroke:none"
         id="path3869"
         sodipodi:cx="-330.92596"
         sodipodi:cy="744.0636"
         sodipodi:rx="59.396969"
         sodipodi:ry="59.396969"
         d="m -271.529,744.0636 c 0,32.80404 -26.59292,59.39697 -59.39696,59.39697 -32.80404,0 -59.39697,-26.59293 -59.39697,-59.39697 0,-32.80404 26.59293,-59.39697 59.39697,-59.39697 32.80404,0 59.39696,26.59293 59.39696,59.39697 z"
         transform="matrix(0.22690176,0,0,0.22690176,1541.492,919.15705)" />
      <path
         transform="matrix(0.22690176,0,0,0.22690176,1582.6728,885.46396)"
         d="m -271.529,744.0636 c 0,32.80404 -26.59292,59.39697 -59.39696,59.39697 -32.80404,0 -59.39697,-26.59293 -59.39697,-59.39697 0,-32.80404 26.59293,-59.39697 59.39697,-59.39697 32.80404,0 59.39696,26.59293 59.39696,59.39697 z"
         sodipodi:ry="59.396969"
         sodipodi:rx="59.396969"
         sodipodi:cy="744.0636"
         sodipodi:cx="-330.92596"
         id="path3871"
         style="fill:#000000;fill-opacity:1;stroke:none"
         sodipodi:type="arc" />
      <path
         style="fill:none;stroke:#ff9955;stroke-width:12;stroke-linecap:round;stroke-linejoin:round;stroke-miterlimit:4;stroke-opacity:1;stroke-dasharray:none"
         d="m 1585.085,1061.1852 c 0,0 0,0 0,0 l 0,0 0,0 c 0,42.9568 40.3009,77.7803 90.0146,77.7803 49.7137,0 90.0146,-34.8235 90.0146,-77.7803"
         id="path3873"
         inkscape:connector-curvature="0" />
      <path
         sodipodi:type="arc"
         style="fill:#000000;fill-opacity:1;stroke:none"
         id="path3875"
         sodipodi:cx="-330.92596"
         sodipodi:cy="744.0636"
         sodipodi:rx="59.396969"
         sodipodi:ry="59.396969"
         d="m -271.529,744.0636 c 0,32.80404 -26.59292,59.39697 -59.39696,59.39697 -32.80404,0 -59.39697,-26.59293 -59.39697,-59.39697 0,-32.80404 26.59293,-59.39697 59.39697,-59.39697 32.80404,0 59.39696,26.59293 59.39696,59.39697 z"
         transform="matrix(-0.22690176,0,0,0.22690176,1641.4355,875.73036)" />
      <path
         transform="matrix(-0.22690176,0,0,0.22690176,1628.7072,919.15705)"
         d="m -271.529,744.0636 c 0,32.80404 -26.59292,59.39697 -59.39696,59.39697 -32.80404,0 -59.39697,-26.59293 -59.39697,-59.39697 0,-32.80404 26.59293,-59.39697 59.39697,-59.39697 32.80404,0 59.39696,26.59293 59.39696,59.39697 z"
         sodipodi:ry="59.396969"
         sodipodi:rx="59.396969"
         sodipodi:cy="744.0636"
         sodipodi:cx="-330.92596"
         id="path3877"
         style="fill:#000000;fill-opacity:1;stroke:none"
         sodipodi:type="arc" />
      <path
         sodipodi:type="arc"
         style="fill:#000000;fill-opacity:1;stroke:none"
         id="path3879"
         sodipodi:cx="-330.92596"
         sodipodi:cy="744.0636"
         sodipodi:rx="59.396969"
         sodipodi:ry="59.396969"
         d="m -271.529,744.0636 c 0,32.80404 -26.59292,59.39697 -59.39696,59.39697 -32.80404,0 -59.39697,-26.59293 -59.39697,-59.39697 0,-32.80404 26.59293,-59.39697 59.39697,-59.39697 32.80404,0 59.39696,26.59293 59.39696,59.39697 z"
         transform="matrix(-0.22690176,0,0,0.22690176,1587.5264,885.46396)" />
    </g>
    <path
       style="fill:#ff9955;fill-opacity:1;stroke:none"
       d="m 2354.6154,1278.2923 c -17.0569,-17.057 -39.5078,-22.2629 -50.1456,-11.6251 l 61.7678,61.7678 c 10.6378,-10.6378 5.4347,-33.0858 -11.6222,-50.1427 z"
       id="path3891"
       inkscape:connector-curvature="0" />
    <path
       inkscape:connector-curvature="0"
       id="path3896"
       d="m 2124.8216,1278.2923 c 17.0569,-17.057 39.5078,-22.2629 50.1456,-11.6251 l -61.7678,61.7678 c -10.6378,-10.6378 -5.4347,-33.0858 11.6222,-50.1427 z"
       style="fill:#ff9955;fill-opacity:1;stroke:none" />
    <g
       id="g4010"
       transform="matrix(0.25555782,0,0,0.25555782,1795.6116,1215.7568)">
      <text
         sodipodi:linespacing="125%"
         id="text4002"
         y="2040.8855"
         x="752.26166"
         style="font-size:439.05474854px;font-style:normal;font-variant:normal;font-weight:normal;font-stretch:normal;line-height:125%;letter-spacing:0px;word-spacing:0px;fill:#ff9955;fill-opacity:1;stroke:none;font-family:Roboto;-inkscape-font-specification:Roboto"
         xml:space="preserve"><tspan
           style="font-weight:bold;fill:#ff9955;fill-opacity:1;-inkscape-font-specification:Roboto Bold"
           y="2040.8855"
           x="752.26166"
           id="tspan4004"
           sodipodi:role="line">LEO</tspan></text>
      <text
         xml:space="preserve"
         style="font-size:439.05474854px;font-style:normal;font-variant:normal;font-weight:normal;font-stretch:normal;line-height:125%;letter-spacing:0px;word-spacing:0px;fill:#ffdd55;fill-opacity:1;stroke:none;font-family:Roboto;-inkscape-font-specification:Roboto"
         x="1588.6636"
         y="2040.8855"
         id="text4006"
         sodipodi:linespacing="125%"><tspan
           sodipodi:role="line"
           id="tspan4008"
           x="1588.6636"
           y="2040.8855"
           style="font-weight:normal;fill:#ffdd55;fill-opacity:1;-inkscape-font-specification:Roboto">Clube</tspan></text>
    </g>
  </g>
</svg>
