<?xml version="1.0" encoding="UTF-8" standalone="no"?>
<!-- Created with Inkscape (http://www.inkscape.org/) -->

<svg
   xmlns:dc="http://purl.org/dc/elements/1.1/"
   xmlns:cc="http://creativecommons.org/ns#"
   xmlns:rdf="http://www.w3.org/1999/02/22-rdf-syntax-ns#"
   xmlns:svg="http://www.w3.org/2000/svg"
   xmlns="http://www.w3.org/2000/svg"
   xmlns:sodipodi="http://sodipodi.sourceforge.net/DTD/sodipodi-0.dtd"
   xmlns:inkscape="http://www.inkscape.org/namespaces/inkscape"
   width="520.72253"
   height="590.39612"
   id="svg2"
   version="1.1"
   inkscape:version="0.92.1 r15371"
   sodipodi:docname="Leo Clube.svg"
   viewBox="0 0 488.17737 553.49634">
  <defs
     id="defs4" />
  <sodipodi:namedview
     id="base"
     pagecolor="#ffffff"
     bordercolor="#666666"
     borderopacity="1.0"
     inkscape:pageopacity="0.0"
     inkscape:pageshadow="2"
     inkscape:zoom="1"
     inkscape:cx="200.34252"
     inkscape:cy="311.19761"
     inkscape:document-units="px"
     inkscape:current-layer="layer1"
     showgrid="false"
     showborder="true"
     inkscape:snap-center="true"
     inkscape:snap-bbox="true"
     inkscape:bbox-nodes="true"
     inkscape:bbox-paths="true"
     inkscape:object-nodes="true"
     inkscape:snap-global="false"
     inkscape:window-width="1920"
     inkscape:window-height="1017"
     inkscape:window-x="-8"
     inkscape:window-y="-8"
     inkscape:window-maximized="1"
     fit-margin-top="0"
     fit-margin-left="0"
     fit-margin-right="0"
     fit-margin-bottom="0" />
  <metadata
     id="metadata7">
    <rdf:RDF>
      <cc:Work
         rdf:about="">
        <dc:format>image/svg+xml</dc:format>
        <dc:type
           rdf:resource="http://purl.org/dc/dcmitype/StillImage" />
        <dc:title />
      </cc:Work>
    </rdf:RDF>
  </metadata>
  <g
     inkscape:label="Layer 1"
     inkscape:groupmode="layer"
     id="layer1"
     transform="translate(-1995.309,-1184.9752)">
    <rect
       style="fill:#ffe788;fill-opacity:1;stroke:none"
       id="rect3898"
       width="29.635897"
       height="65.832253"
       x="2224.5798"
       y="1184.9752" />
    <rect
       y="1550.9423"
       x="2224.5798"
       height="65.832253"
       width="29.635897"
       id="rect3900"
       style="fill:#ffe788;fill-opacity:1;stroke:none" />
    <rect
       style="fill:#ffe788;fill-opacity:1;stroke:none"
       id="rect3912"
       width="29.635897"
       height="65.832253"
       x="2510.8472"
       y="557.64282"
       transform="rotate(15)" />
    <rect
       style="fill:#ffe788;fill-opacity:1;stroke:none"
       id="rect3916"
       width="29.635897"
       height="65.832253"
       x="2624.9949"
       y="-122.40522"
       transform="rotate(30)" />
    <rect
       style="fill:#ffe788;fill-opacity:1;stroke:none"
       id="rect3920"
       width="29.635897"
       height="65.832253"
       x="2559.2434"
       y="-808.82477"
       transform="rotate(45)" />
    <rect
       style="fill:#ffe788;fill-opacity:1;stroke:none"
       id="rect3924"
       width="29.635897"
       height="65.832253"
       x="2318.0742"
       y="-1454.8374"
       transform="rotate(60)" />
    <rect
       style="fill:#ffe788;fill-opacity:1;stroke:none"
       id="rect3928"
       width="29.635897"
       height="65.832253"
       x="1917.922"
       y="-2016.4186"
       transform="rotate(75)" />
    <rect
       style="fill:#ffe788;fill-opacity:1;stroke:none"
       id="rect3932"
       width="29.635897"
       height="65.832253"
       x="1386.0569"
       y="-2455.2974"
       transform="rotate(90)" />
    <rect
       style="fill:#ffe788;fill-opacity:1;stroke:none"
       id="rect3936"
       width="29.635897"
       height="65.832253"
       x="758.72449"
       y="-2741.5647"
       transform="rotate(105)" />
    <rect
       style="fill:#ffe788;fill-opacity:1;stroke:none"
       id="rect3940"
       width="29.635897"
       height="65.832253"
       x="78.676445"
       y="-2855.7124"
       transform="rotate(120)" />
    <rect
       style="fill:#ffe788;fill-opacity:1;stroke:none"
       id="rect3944"
       width="29.635897"
       height="65.832253"
       x="-607.7431"
       y="-2789.9609"
       transform="rotate(135)" />
    <rect
       style="fill:#ffe788;fill-opacity:1;stroke:none"
       id="rect3948"
       width="29.635897"
       height="65.832253"
       x="-1253.7557"
       y="-2548.7917"
       transform="rotate(150)" />
    <rect
       y="-2148.6396"
       x="-1815.3369"
       height="65.832253"
       width="29.635897"
       id="rect3908"
       style="fill:#ffe788;fill-opacity:1;stroke:none"
       transform="rotate(165)" />
    <rect
       y="923.6098"
       x="2510.8472"
       height="65.832253"
       width="29.635897"
       id="rect3914"
       style="fill:#ffe788;fill-opacity:1;stroke:none"
       transform="rotate(15)" />
    <rect
       y="243.56177"
       x="2624.9949"
       height="65.832253"
       width="29.635897"
       id="rect3918"
       style="fill:#ffe788;fill-opacity:1;stroke:none"
       transform="rotate(30)" />
    <rect
       y="-442.85779"
       x="2559.2434"
       height="65.832253"
       width="29.635897"
       id="rect3922"
       style="fill:#ffe788;fill-opacity:1;stroke:none"
       transform="rotate(45)" />
    <rect
       y="-1088.8705"
       x="2318.0742"
       height="65.832253"
       width="29.635897"
       id="rect3926"
       style="fill:#ffe788;fill-opacity:1;stroke:none"
       transform="rotate(60)" />
    <rect
       y="-1650.4515"
       x="1917.922"
       height="65.832253"
       width="29.635897"
       id="rect3930"
       style="fill:#ffe788;fill-opacity:1;stroke:none"
       transform="rotate(75)" />
    <rect
       y="-2089.3303"
       x="1386.0569"
       height="65.832253"
       width="29.635897"
       id="rect3934"
       style="fill:#ffe788;fill-opacity:1;stroke:none"
       transform="rotate(90)" />
    <rect
       y="-2375.5979"
       x="758.72449"
       height="65.832253"
       width="29.635897"
       id="rect3938"
       style="fill:#ffe788;fill-opacity:1;stroke:none"
       transform="rotate(105)" />
    <rect
       y="-2489.7454"
       x="78.676445"
       height="65.832253"
       width="29.635897"
       id="rect3942"
       style="fill:#ffe788;fill-opacity:1;stroke:none"
       transform="rotate(120)" />
    <rect
       y="-2423.9941"
       x="-607.7431"
       height="65.832253"
       width="29.635897"
       id="rect3946"
       style="fill:#ffe788;fill-opacity:1;stroke:none"
       transform="rotate(135)" />
    <rect
       y="-2182.8247"
       x="-1253.7557"
       height="65.832253"
       width="29.635897"
       id="rect3950"
       style="fill:#ffe788;fill-opacity:1;stroke:none"
       transform="rotate(150)" />
    <rect
       style="fill:#ffe788;fill-opacity:1;stroke:none"
       id="rect3910"
       width="29.635897"
       height="65.832253"
       x="-1815.3369"
       y="-1782.6726"
       transform="rotate(165)" />
    <circle
       style="fill:#ff9955;fill-opacity:1;stroke:none"
       id="path3761"
       transform="matrix(0.13792876,0,0,0.13792876,2084.3658,1264.5504)"
       cx="1124"
       cy="988.36218"
       r="1088" />
    <path
       style="fill:#ffdd55;fill-opacity:1;stroke:none"
       d="m 2239.3977,1250.8093 c -23.2557,0 -45.2744,5.2903 -64.9214,14.7325 l 36.1589,135.334 h 57.5249 l 36.1589,-135.334 c -19.647,-9.4422 -41.6656,-14.7325 -64.9213,-14.7325 z"
       id="path3770"
       inkscape:connector-curvature="0" />
    <path
       id="path3781"
       d="m 2239.3977,1550.9422 c -23.2557,0 -45.2744,-5.2902 -64.9214,-14.7325 l 36.1589,-135.3339 h 57.5249 l 36.1589,135.3339 c -19.647,9.4423 -41.6656,14.7325 -64.9213,14.7325 z"
       style="fill:#ffffff;fill-opacity:1;stroke:none"
       inkscape:connector-curvature="0" />
    <g
       id="g3814"
       transform="matrix(0.13792876,0,0,0.13792876,1960.3646,1300.9636)">
      <g
         id="g3807">
        <circle
           style="fill:#ffffff;fill-opacity:1;stroke:none"
           id="path3783"
           transform="translate(124)"
           cx="1240"
           cy="424.36218"
           r="276" />
        <g
           id="g3785"
           transform="translate(0,-65.053824)">
          <circle
             transform="translate(1518,-31)"
             id="path3753"
             style="fill:#000000;fill-opacity:1;stroke:none"
             cx="-154"
             cy="455.36218"
             r="188" />
          <circle
             transform="matrix(1.44,0,0,1.44,1346.72,-240.43936)"
             id="path3755"
             style="fill:#ffffff;fill-opacity:1;stroke:none"
             cx="12"
             cy="387.36218"
             r="50" />
          <circle
             style="fill:#ffffff;fill-opacity:1;stroke:none"
             id="path3757"
             transform="matrix(0.72,0,0,0.72,1491.36,113.46141)"
             cx="12"
             cy="387.36218"
             r="50" />
        </g>
      </g>
      <g
         id="g3800">
        <circle
           transform="translate(1442.047)"
           id="path3790"
           style="fill:#ffffff;fill-opacity:1;stroke:none"
           cx="1240"
           cy="424.36218"
           r="276" />
        <g
           transform="translate(1318.047,-65.053824)"
           id="g3792">
          <circle
             style="fill:#000000;fill-opacity:1;stroke:none"
             id="path3794"
             transform="translate(1518,-31)"
             cx="-154"
             cy="455.36218"
             r="188" />
          <circle
             style="fill:#ffffff;fill-opacity:1;stroke:none"
             id="path3796"
             transform="matrix(1.44,0,0,1.44,1346.72,-240.43936)"
             cx="12"
             cy="387.36218"
             r="50" />
          <circle
             transform="matrix(0.72,0,0,0.72,1491.36,113.46141)"
             id="path3798"
             style="fill:#ffffff;fill-opacity:1;stroke:none"
             cx="12"
             cy="387.36218"
             r="50" />
        </g>
      </g>
    </g>
    <circle
       style="fill:#784421;fill-opacity:1;stroke:none"
       id="path3828"
       transform="matrix(0.11494063,0,0,0.0646541,2198.4349,1377.7825)"
       cx="356.38181"
       cy="1165.4993"
       r="271.52899" />
    <g
       id="g3881"
       transform="matrix(0.25555782,0,0,0.25555782,1834.3131,1215.7568)">
      <path
         inkscape:connector-curvature="0"
         id="path3837"
         d="m 1585.1142,1061.1852 c 0,0 0,0 0,0 v 0 0 c 0,42.9568 -40.3009,77.7803 -90.0146,77.7803 -49.7137,0 -90.0146,-34.8235 -90.0146,-77.7803"
         style="fill:none;stroke:#ff9955;stroke-width:12;stroke-linecap:round;stroke-linejoin:round;stroke-miterlimit:4;stroke-dasharray:none;stroke-opacity:1" />
      <circle
         transform="matrix(0.22690176,0,0,0.22690176,1528.7637,875.73036)"
         id="path3867"
         style="fill:#000000;fill-opacity:1;stroke:none"
         cx="-330.92596"
         cy="744.0636"
         r="59.396969" />
      <circle
         style="fill:#000000;fill-opacity:1;stroke:none"
         id="path3869"
         transform="matrix(0.22690176,0,0,0.22690176,1541.492,919.15705)"
         cx="-330.92596"
         cy="744.0636"
         r="59.396969" />
      <circle
         transform="matrix(0.22690176,0,0,0.22690176,1582.6728,885.46396)"
         id="path3871"
         style="fill:#000000;fill-opacity:1;stroke:none"
         cx="-330.92596"
         cy="744.0636"
         r="59.396969" />
      <path
         style="fill:none;stroke:#ff9955;stroke-width:12;stroke-linecap:round;stroke-linejoin:round;stroke-miterlimit:4;stroke-dasharray:none;stroke-opacity:1"
         d="m 1585.085,1061.1852 c 0,0 0,0 0,0 v 0 0 c 0,42.9568 40.3009,77.7803 90.0146,77.7803 49.7137,0 90.0146,-34.8235 90.0146,-77.7803"
         id="path3873"
         inkscape:connector-curvature="0" />
      <circle
         style="fill:#000000;fill-opacity:1;stroke:none"
         id="path3875"
         transform="matrix(-0.22690176,0,0,0.22690176,1641.4355,875.73036)"
         cx="-330.92596"
         cy="744.0636"
         r="59.396969" />
      <circle
         transform="matrix(-0.22690176,0,0,0.22690176,1628.7072,919.15705)"
         id="path3877"
         style="fill:#000000;fill-opacity:1;stroke:none"
         cx="-330.92596"
         cy="744.0636"
         r="59.396969" />
      <circle
         style="fill:#000000;fill-opacity:1;stroke:none"
         id="path3879"
         transform="matrix(-0.22690176,0,0,0.22690176,1587.5264,885.46396)"
         cx="-330.92596"
         cy="744.0636"
         r="59.396969" />
    </g>
    <path
       style="fill:#ff9955;fill-opacity:1;stroke:none"
       d="m 2354.6154,1278.2923 c -17.0569,-17.057 -39.5078,-22.2629 -50.1456,-11.6251 l 61.7678,61.7678 c 10.6378,-10.6378 5.4347,-33.0858 -11.6222,-50.1427 z"
       id="path3891"
       inkscape:connector-curvature="0" />
    <path
       inkscape:connector-curvature="0"
       id="path3896"
       d="m 2124.8216,1278.2923 c 17.0569,-17.057 39.5078,-22.2629 50.1456,-11.6251 l -61.7678,61.7678 c -10.6378,-10.6378 -5.4347,-33.0858 11.6222,-50.1427 z"
       style="fill:#ff9955;fill-opacity:1;stroke:none" />
    <g
       id="g4010"
       transform="matrix(0.25555782,0,0,0.25555782,1795.6116,1215.7568)">
      <text
         id="text4002"
         y="2040.8855"
         x="752.26166"
         style="font-style:normal;font-variant:normal;font-weight:normal;font-stretch:normal;line-height:0%;font-family:Roboto;-inkscape-font-specification:Roboto;letter-spacing:0px;word-spacing:0px;fill:#ff9955;fill-opacity:1;stroke:none"
         xml:space="preserve"><tspan
           style="font-weight:bold;font-size:439.05474854px;line-height:1.25;-inkscape-font-specification:'Roboto Bold';fill:#ff9955;fill-opacity:1"
           y="2040.8855"
           x="752.26166"
           id="tspan4004"
           sodipodi:role="line">LEO</tspan></text>
      <text
         xml:space="preserve"
         style="font-style:normal;font-variant:normal;font-weight:normal;font-stretch:normal;line-height:0%;font-family:Roboto;-inkscape-font-specification:Roboto;letter-spacing:0px;word-spacing:0px;fill:#ffdd55;fill-opacity:1;stroke:none"
         x="1588.6636"
         y="2040.8855"
         id="text4006"><tspan
           sodipodi:role="line"
           id="tspan4008"
           x="1588.6636"
           y="2040.8855"
           style="font-weight:normal;font-size:439.05474854px;line-height:1.25;-inkscape-font-specification:Roboto;fill:#ffdd55;fill-opacity:1">Clube</tspan></text>
    </g>
  </g>
</svg>
