<?xml version="1.0" encoding="UTF-8" standalone="no"?>
<!-- Created with Inkscape (http://www.inkscape.org/) -->

<svg
   xmlns:dc="http://purl.org/dc/elements/1.1/"
   xmlns:cc="http://creativecommons.org/ns#"
   xmlns:rdf="http://www.w3.org/1999/02/22-rdf-syntax-ns#"
   xmlns:svg="http://www.w3.org/2000/svg"
   xmlns="http://www.w3.org/2000/svg"
   xmlns:sodipodi="http://sodipodi.sourceforge.net/DTD/sodipodi-0.dtd"
   xmlns:inkscape="http://www.inkscape.org/namespaces/inkscape"
   width="210mm"
   height="297mm"
   viewBox="0 0 744.09448819 1052.3622047"
   id="svg2"
   version="1.1"
   inkscape:version="0.91 r13725"
   sodipodi:docname="Icons.svg"
   inkscape:export-filename="C:\Users\brayan.bedritchuk\Desktop\Icons.png"
   inkscape:export-xdpi="8"
   inkscape:export-ydpi="8">
  <defs
     id="defs4">
    <inkscape:path-effect
       fuse_tolerance="0"
       vertical_pattern="false"
       prop_units="false"
       tang_offset="0"
       normal_offset="0"
       spacing="0"
       scale_y_rel="false"
       prop_scale="1"
       copytype="single_stretched"
       pattern="M 0,5 C 0,2.24 2.24,0 5,0 7.76,0 10,2.24 10,5 10,7.76 7.76,10 5,10 2.24,10 0,7.76 0,5 Z"
       is_visible="true"
       id="path-effect8761"
       effect="skeletal" />
    <inkscape:path-effect
       is_visible="true"
       id="path-effect8759"
       effect="spiro" />
  </defs>
  <sodipodi:namedview
     id="base"
     pagecolor="#ffffff"
     bordercolor="#666666"
     borderopacity="1.0"
     inkscape:pageopacity="0.0"
     inkscape:pageshadow="2"
     inkscape:zoom="0.04375"
     inkscape:cx="-3951.6053"
     inkscape:cy="3223.1151"
     inkscape:document-units="px"
     inkscape:current-layer="layer1"
     showgrid="false"
     showborder="false"
     inkscape:object-paths="true"
     inkscape:snap-intersection-paths="true"
     inkscape:object-nodes="true"
     inkscape:snap-nodes="false"
     inkscape:window-width="1680"
     inkscape:window-height="987"
     inkscape:window-x="-8"
     inkscape:window-y="-8"
     inkscape:window-maximized="1" />
  <metadata
     id="metadata7">
    <rdf:RDF>
      <cc:Work
         rdf:about="">
        <dc:format>image/svg+xml</dc:format>
        <dc:type
           rdf:resource="http://purl.org/dc/dcmitype/StillImage" />
        <dc:title></dc:title>
      </cc:Work>
    </rdf:RDF>
  </metadata>
  <g
     inkscape:label="Layer 1"
     inkscape:groupmode="layer"
     id="layer1">
    <g
       id="g4931"
       transform="translate(2091.4286,0)">
      <g
         id="g4924">
        <g
           id="g4918">
          <path
             id="path4889"
             d="m -2311.2285,1339.4476 a 404.06104,404.06104 0 0 0 -404.0606,404.0625 404.06104,404.06104 0 0 0 404.0606,404.0605 404.06104,404.06104 0 0 0 339.1933,-185.2187 404.06104,404.06104 0 0 1 -64.4316,-218.8418 404.06104,404.06104 0 0 1 64.8672,-218.8438 404.06104,404.06104 0 0 0 -339.6289,-185.2187 z"
             style="opacity:1;fill:#5fd38d;fill-opacity:1;stroke:none;stroke-opacity:1"
             inkscape:connector-curvature="0" />
          <path
             id="path4801"
             d="m -1971.5996,1524.6663 a 404.06104,404.06104 0 0 1 64.4316,218.8438 404.06104,404.06104 0 0 1 -64.8672,218.8418 404.06104,404.06104 0 0 0 339.629,185.2187 404.06104,404.06104 0 0 0 404.0605,-404.0605 404.06104,404.06104 0 0 0 -404.0605,-404.0625 404.06104,404.06104 0 0 0 -339.1934,185.2187 z"
             style="opacity:1;fill:#ff8080;fill-opacity:1;stroke:none;stroke-opacity:1"
             inkscape:connector-curvature="0" />
          <path
             inkscape:connector-curvature="0"
             d="m -2517.2724,1934.6595 74.9251,0 0,-224.775 -74.9251,0 0,224.775 z m 412.0873,-206.0435 c 0,-20.6045 -16.858,-37.4625 -37.4625,-37.4625 l -118.1941,0 17.7948,-85.6021 0.5612,-5.9939 c 0,-7.6798 -3.1841,-14.7975 -8.2416,-19.8551 l -19.8553,-19.6679 -123.2515,123.439 c -6.9305,6.7431 -11.0514,16.1086 -11.0514,26.411 l 0,187.3131 c 0,20.6041 16.8583,37.4622 37.4626,37.4622 l 168.5812,0 c 15.5468,0 28.8461,-9.3656 34.4653,-22.8521 l 56.5683,-132.0557 c 1.6859,-4.308 2.6225,-8.8035 2.6225,-13.6739 l 0,-35.7765 -0.1871,-0.1871 0.1871,-1.4985 z"
             id="path4867"
             style="opacity:1;fill:#ffffff;fill-opacity:1" />
          <path
             style="opacity:1;fill:#ffffff;fill-opacity:1"
             id="path4875"
             d="m -1426.3626,1560.0347 -74.9251,0 0,224.775 74.9251,0 0,-224.775 z m -412.0873,206.0436 c 0,20.6045 16.858,37.4625 37.4625,37.4625 l 118.1941,0 -17.7948,85.602 -0.5612,5.994 c 0,7.6797 3.1841,14.7975 8.2416,19.855 l 19.8553,19.6679 123.2515,-123.4389 c 6.9305,-6.7432 11.0514,-16.1087 11.0514,-26.4111 l 0,-187.3131 c 0,-20.6041 -16.8583,-37.4622 -37.4626,-37.4622 l -168.5812,0 c -15.5468,0 -28.8461,9.3656 -34.4653,22.8521 l -56.5683,132.0557 c -1.6859,4.3081 -2.6225,8.8035 -2.6225,13.6739 l 0,35.7765 0.1871,0.1872 -0.1871,1.4985 z"
             inkscape:connector-curvature="0" />
        </g>
      </g>
    </g>
    <g
       id="g4170">
      <path
         inkscape:connector-curvature="0"
         id="path4143"
         d="m -2793.6673,-1025.8996 0,665.71287 854.2852,0 0,-568.57031 -213.5723,0 -213.5703,0 -213.5723,-97.14256 -213.5703,0 z m 115.9082,174.28514 155.6172,0 155.6172,0 155.6172,0 155.6172,0 0,414.28515 -622.4688,0 0,-414.28515 z"
         style="opacity:1;fill:#d4aa00;fill-opacity:1;stroke:none;stroke-opacity:1" />
    </g>
    <g
       id="g4201">
      <path
         style="opacity:1;fill:#d4aa00;fill-opacity:1;stroke:none;stroke-opacity:1"
         d="m -1597.6467,-1025.8996 0,665.71287 854.28521,0 0,-568.57031 -213.5723,0 -213.57031,0 -213.5723,-97.14256 -213.5703,0 z m 115.9082,174.28514 155.6172,0 155.6172,0 155.6172,0 155.61721,0 0,414.28515 -622.46881,0 0,-414.28515 z"
         id="path4147"
         inkscape:connector-curvature="0" />
      <rect
         y="-589.02429"
         x="-982.28284"
         height="305.63019"
         width="305.63019"
         id="rect4149"
         style="opacity:1;fill:#87aade;fill-opacity:1;stroke:none;stroke-opacity:1" />
    </g>
    <g
       id="g4161">
      <circle
         r="331.42856"
         cy="-656.20923"
         cx="-4.2239762e-006"
         id="path4151"
         style="opacity:1;fill:#87aade;fill-opacity:1;stroke:none;stroke-opacity:1" />
      <text
         sodipodi:linespacing="125%"
         id="text4153"
         y="-490.57916"
         x="-138.49614"
         style="font-style:normal;font-weight:normal;font-size:463.08584595px;line-height:125%;font-family:sans-serif;letter-spacing:0px;word-spacing:0px;fill:#000000;fill-opacity:1;stroke:none;stroke-width:1px;stroke-linecap:butt;stroke-linejoin:miter;stroke-opacity:1"
         xml:space="preserve"><tspan
           style="font-style:normal;font-variant:normal;font-weight:normal;font-stretch:normal;font-family:'Trebuchet MS';-inkscape-font-specification:'Trebuchet MS'"
           y="-490.57916"
           x="-138.49614"
           id="tspan4155"
           sodipodi:role="line">C</tspan></text>
    </g>
    <g
       id="g4195"
       transform="matrix(0.29078019,0,0,0.29078019,28.631759,1068.7653)">
      <path
         inkscape:connector-curvature="0"
         id="rect4157"
         d="m -6068.5719,-3336.2106 0,3222.85736 2320,0 0,-2502.85736 -360,-360 -360,-360 -1600,0 z m 194.2871,269.8945 1331.2851,0 97.8692,508.6934 502.2734,90.9863 0,2083.38864 -1931.4277,0 0,-2683.06834 z"
         style="opacity:1;fill:#999999;fill-opacity:1;stroke:none;stroke-opacity:1" />
      <path
         inkscape:connector-curvature="0"
         id="rect4185"
         d="m -5708.5719,-1976.2098 0,217.1426 1600,0 0,-217.1426 -1600,0 z m 0,474.2851 0,217.1426 1600,0 0,-217.1426 -1600,0 z m 0,474.2852 0,217.14257 1600,0 0,-217.14257 -1600,0 z"
         style="opacity:1;fill:#0066ff;fill-opacity:1;stroke:none;stroke-opacity:1" />
    </g>
    <g
       id="g4705">
      <path
         sodipodi:nodetypes="ssccssssssss"
         inkscape:connector-curvature="0"
         id="rect4205"
         d="m 689.71913,-2247.2688 c 0,0 124.8399,-15.4991 184.2786,0 44.3506,11.5647 119.9927,67.1429 119.9927,67.1429 l 141.42127,0 141.4214,0 c 53.7239,0 96.9746,43.2507 96.9746,96.9747 l 0,282.8427 c 0,53.7239 -43.2507,96.9746 -96.9746,96.9746 l -565.68537,0 c -53.724,0 -96.9747,-43.2507 -96.9747,-96.9746 l 0,-282.8427 c 0,-53.724 5.5413,-164.1176 75.5461,-164.1176 z"
         style="opacity:1;fill:#0066ff;fill-opacity:1;stroke:none;stroke-opacity:1" />
      <rect
         ry="0"
         y="-2103.3545"
         x="703.06653"
         height="303.04578"
         width="565.68542"
         id="rect4210"
         style="opacity:1;fill:#ffffff;fill-opacity:1;stroke:none;stroke-opacity:1" />
    </g>
    <g
       id="g4709">
      <g
         transform="translate(5414.4176,-1260.6704)"
         id="g4663">
        <path
           style="opacity:1;fill:#0066ff;fill-opacity:1;stroke:none;stroke-opacity:1"
           d="m -5893.8314,-1032.648 c 0,0 113.3221,-10.8981 168.3809,0 59.549,11.7869 168.381,69.37551 168.381,69.37551 l 168.381,0 168.3809,0 c 29.3805,0 53.0334,23.65292 53.0334,53.03337 l 0,413.66029 c 0,29.38048 -23.6529,53.03336 -53.0334,53.03336 l -673.5238,0 c -29.3805,0 -53.0333,-23.65288 -53.0333,-53.03336 l 0,-483.03577 c 0,-29.3804 23.6528,-53.0334 53.0333,-53.0334 z"
           id="rect4639"
           inkscape:connector-curvature="0"
           sodipodi:nodetypes="ssccssssssss" />
        <path
           style="opacity:1;fill:#ffffff;fill-opacity:1;stroke:none;stroke-opacity:1"
           d="m -5796.6368,-885.45941 239.5673,0 239.5673,0 c 20.9009,0 37.7272,16.82636 37.7272,37.72715 l 0,294.27166 c 0,20.90083 -16.8263,37.72714 -37.7272,37.72714 l -479.1346,0 c -20.9009,0 -37.7272,-16.82631 -37.7272,-37.72714 l 0,-294.27166 c 0,-20.90079 16.8263,-37.72715 37.7272,-37.72715 z"
           id="rect4639-4"
           inkscape:connector-curvature="0"
           sodipodi:nodetypes="scssssssss" />
      </g>
    </g>
    <g
       id="g4714">
      <path
         style="opacity:1;fill:#0066ff;fill-opacity:1;stroke:none;stroke-opacity:1"
         d="m -1505.7288,-2293.3184 c 0,0 113.3221,-10.8981 168.3809,0 59.549,11.7869 168.381,69.3755 168.381,69.3755 l 168.381,0 168.38091,0 c 29.3805,0 53.0334,23.653 53.0334,53.0334 l 0,413.6603 c 0,29.3805 -23.6529,53.0334 -53.0334,53.0334 l -673.52381,0 c -29.3805,0 -53.0333,-23.6529 -53.0333,-53.0334 l 0,-483.0358 c 0,-29.3804 23.6528,-53.0334 53.0333,-53.0334 z"
         id="path4669"
         inkscape:connector-curvature="0"
         sodipodi:nodetypes="ssccssssssss" />
      <path
         style="opacity:1;fill:#ffffff;fill-opacity:1"
         id="path4477"
         d="m -1321.6637,-1813.8863 55.5262,0 0,-166.5785 -55.5262,0 0,166.5785 z m 305.3938,-152.6968 c 0,-15.2697 -12.4934,-27.7631 -27.7631,-27.7631 l -87.5925,0 13.1876,-63.4388 0.4159,-4.4421 c 0,-5.6913 -2.3597,-10.9663 -6.1078,-14.7143 l -14.7146,-14.5757 -91.3405,91.4794 c -5.1361,4.9972 -8.19,11.938 -8.19,19.5729 l 0,138.8159 c 0,15.2695 12.4935,27.7628 27.7631,27.7628 l 124.9339,0 c 11.5216,0 21.3775,-6.9407 25.5419,-16.9354 l 41.9222,-97.8652 c 1.2494,-3.1926 1.9435,-6.5241 1.9435,-10.1336 l 0,-26.5136 -0.1387,-0.1387 0.1387,-1.1105 z"
         inkscape:connector-curvature="0" />
    </g>
    <g
       id="g4718">
      <g
         transform="translate(6497.3011,-2489.0159)"
         id="g4681">
        <circle
           style="opacity:1;fill:#0066ff;fill-opacity:1;stroke:none;stroke-opacity:1"
           id="path4677"
           cx="-8862.2881"
           cy="487.82697"
           r="476.79199" />
        <path
           style="opacity:1;fill:#ffffff;fill-opacity:1"
           id="path4679"
           d="m -9121.6574,723.61678 94.3161,0 0,-282.948 -94.3161,0 0,282.948 z m 518.7378,-259.36882 c 0,-25.93692 -21.2211,-47.158 -47.158,-47.158 l -148.7835,0 22.4003,-107.75632 0.7064,-7.54527 c 0,-9.66717 -4.0081,-18.62715 -10.3746,-24.99353 l -24.994,-24.75805 -155.1497,155.38565 c -8.7241,8.48829 -13.9115,20.2777 -13.9115,33.24634 l 0,235.79072 c 0,25.93655 21.2213,47.15763 47.1581,47.15763 l 212.211,0 c 19.5704,0 36.3115,-11.78941 43.3851,-28.76634 l 71.2085,-166.23241 c 2.1222,-5.42301 3.3012,-11.08187 3.3012,-17.21278 l 0,-45.03574 -0.2356,-0.2355 0.2356,-1.8864 z"
           inkscape:connector-curvature="0" />
      </g>
    </g>
    <g
       id="g4699"
       transform="translate(3717.3614,-501.03566)">
      <path
         style="opacity:1;fill:#999999;fill-opacity:1;stroke:none;stroke-opacity:1"
         d="m -6499.6963,599.69705 0,937.14305 674.6101,0 0,-727.78132 -104.6809,-104.68086 -104.6809,-104.68087 -465.2483,0 z m 56.4948,78.47997 387.1114,0 28.4584,147.91797 146.0512,26.45701 0,605.8081 -561.621,0 0,-780.18308 z"
         id="path4687"
         inkscape:connector-curvature="0" />
      <path
         id="path4697"
         d="m -6395.0154,995.15834 0,63.14076 465.2483,0 0,-63.14076 -465.2483,0 z"
         style="opacity:1;fill:#87decd;fill-opacity:1;stroke:none;stroke-opacity:1"
         inkscape:connector-curvature="0" />
      <path
         id="path4695"
         d="m -6395.0154,1133.0711 0,63.1407 465.2483,0 0,-63.1407 -465.2483,0 z"
         style="opacity:1;fill:#ff8080;fill-opacity:1;stroke:none;stroke-opacity:1"
         inkscape:connector-curvature="0" />
      <path
         id="path4689"
         d="m -6395.0154,1270.9838 0,63.1407 465.2483,0 0,-63.1407 -465.2483,0 z"
         style="opacity:1;fill:#87decd;fill-opacity:1;stroke:none;stroke-opacity:1"
         inkscape:connector-curvature="0" />
    </g>
    <g
       id="g4746"
       transform="matrix(0.89898475,0,0,0.89898475,9420.4085,-419.40966)">
      <circle
         r="565.68542"
         cy="1052.3622"
         cx="-9244.916"
         id="path4737"
         style="opacity:1;fill:#ff5555;fill-opacity:1;stroke:none;stroke-opacity:1" />
      <path
         inkscape:connector-curvature="0"
         id="circle4739"
         d="m -9527.7587,866.49459 a 185.86815,185.86815 0 0 0 -185.8683,185.86691 185.86815,185.86815 0 0 0 185.8683,185.8683 185.86815,185.86815 0 0 0 185.8683,-185.8683 185.86815,185.86815 0 0 0 -185.8683,-185.86691 z m 0,28.57429 a 157.29349,157.29349 0 0 1 157.294,157.29262 157.29349,157.29349 0 0 1 -157.294,157.294 157.29349,157.29349 0 0 1 -157.294,-157.294 157.29349,157.29349 0 0 1 157.294,-157.29262 z"
         style="opacity:1;fill:#ffffff;fill-opacity:1;stroke:none;stroke-opacity:1" />
      <path
         style="opacity:1;fill:#ffffff;fill-opacity:1;stroke:none;stroke-opacity:1"
         d="m -9026.723,737.19546 a 274.76151,274.76151 0 0 0 -274.7617,274.75974 274.76151,274.76151 0 0 0 274.7617,274.7617 274.76151,274.76151 0 0 0 274.7617,-274.7617 274.76151,274.76151 0 0 0 -274.7617,-274.75974 z m 0,42.24024 a 232.52072,232.52072 0 0 1 232.5215,232.5195 232.52072,232.52072 0 0 1 -232.5215,232.5215 232.52072,232.52072 0 0 1 -232.5215,-232.5215 232.52072,232.52072 0 0 1 232.5215,-232.5195 z"
         id="path4744"
         inkscape:connector-curvature="0" />
    </g>
    <path
       style="opacity:1;fill:#87decd;fill-opacity:1;stroke:none;stroke-opacity:1"
       d="m -407.01953,56.798802 0,0.0039 c -6.0754,0.072 -12.22621,1.6637 -17.88281,4.9297 -17.5535,10.1346 -23.52553,32.4269 -13.39063,49.980498 l 151.08594,261.6894 -313.29297,0 c -51.5973,0 -93.13477,41.5379 -93.13477,93.1348 l 0,455.3281 c 0,51.5969 41.53747,93.1348 93.13477,93.1348 l 724.38477,0 c 51.5969,0 93.13476,-41.5379 93.13476,-93.1348 l 0,-455.3281 c 0,-51.5969 -41.53786,-93.1348 -93.13476,-93.1348 l -313.29493,0 151.087894,-261.6914 c 10.1341,-17.553698 4.160922,-39.843898 -13.392578,-49.978498 -17.5542,-10.1345 -39.841663,-4.161 -49.976566,13.3926 L -238.30664,311.748 -374.92188,75.125002 c -6.6508,-11.5195 -18.53756,-18.051 -30.88476,-18.3164 -0.4043,-0.01 -0.80789,-0.0108 -1.21289,-0.0098 z m -172.7832,396.806698 682.99023,0 0,481.1992 -682.99023,0 0,-481.1992 z"
       id="path4751"
       inkscape:connector-curvature="0" />
    <g
       id="g4764"
       transform="matrix(0.67605635,0,0,0.67605635,2298.2536,-2286.6288)">
      <rect
         ry="145.46196"
         y="1731.1847"
         x="-2634.4778"
         height="1179.8582"
         width="2295.0667"
         id="rect4758"
         style="opacity:1;fill:#5fd38d;fill-opacity:1;stroke:none;stroke-opacity:1" />
      <text
         sodipodi:linespacing="125%"
         id="text4760"
         y="2548.626"
         x="-2373.386"
         style="font-style:normal;font-weight:normal;font-size:648.94812012px;line-height:125%;font-family:sans-serif;letter-spacing:0px;word-spacing:0px;fill:#ffffff;fill-opacity:1;stroke:none;stroke-width:1px;stroke-linecap:butt;stroke-linejoin:miter;stroke-opacity:1"
         xml:space="preserve"><tspan
           style="font-style:normal;font-variant:normal;font-weight:normal;font-stretch:normal;font-family:Roboto;-inkscape-font-specification:Roboto"
           y="2548.626"
           x="-2373.386"
           id="tspan4762"
           sodipodi:role="line">1 new</tspan></text>
    </g>
    <g
       id="g4895"
       transform="translate(-876.02061,0)">
      <g
         id="g4897">
        <circle
           r="404.06104"
           cy="-1747.347"
           cx="436.38568"
           id="circle4899"
           style="opacity:1;fill:#ff8080;fill-opacity:1;stroke:none;stroke-opacity:1"
           transform="scale(-1,-1)" />
        <path
           style="opacity:1;fill:#ffffff;fill-opacity:1"
           id="path4901"
           d="m -230.34201,1560.0347 -74.92508,0 0,224.775 74.92508,0 0,-224.775 z m -412.08733,206.0436 c 0,20.6045 16.85808,37.4625 37.4625,37.4625 l 118.19417,0 -17.79484,85.602 -0.56116,5.994 c 0,7.6797 3.18408,14.7975 8.24158,19.855 l 19.85533,19.6679 123.2515,-123.4389 c 6.9305,-6.7432 11.05134,-16.1087 11.05134,-26.4111 l 0,-187.3131 c 0,-20.6041 -16.85825,-37.4622 -37.46259,-37.4622 l -168.58117,0 c -15.54683,0 -28.84608,9.3656 -34.46533,22.8521 l -56.56833,132.0557 c -1.68584,4.3081 -2.62242,8.8035 -2.62242,13.6739 l 0,35.7765 0.18708,0.1872 -0.18708,1.4985 z"
           inkscape:connector-curvature="0" />
      </g>
    </g>
    <g
       id="g4903"
       transform="matrix(0.83333334,0,0,0.83333334,-1284.7553,264.28711)">
      <circle
         r="484.87323"
         cy="1779.672"
         cx="-1341.4823"
         id="circle4905"
         style="opacity:1;fill:#5fd38d;fill-opacity:1;stroke:none;stroke-opacity:1" />
      <path
         style="opacity:1;fill:#ffffff;fill-opacity:1"
         id="path4907"
         d="m -1588.7347,2004.4469 89.9101,0 0,-269.73 -89.9101,0 0,269.73 z m 494.5048,-247.2523 c 0,-24.7254 -20.2297,-44.955 -44.955,-44.955 l -141.833,0 21.3538,-102.7225 0.6734,-7.1927 c 0,-9.2157 -3.8209,-17.757 -9.8899,-23.8261 l -23.8264,-23.6014 -147.9018,148.1267 c -8.3166,8.0918 -13.2616,19.3304 -13.2616,31.6933 l 0,224.7757 c 0,24.7249 20.2299,44.9546 44.9551,44.9546 l 202.2974,0 c 18.6562,0 34.6153,-11.2387 41.3584,-27.4225 l 67.882,-158.4668 c 2.023,-5.1697 3.1469,-10.5642 3.1469,-16.4087 l 0,-42.9318 -0.2245,-0.2246 0.2245,-1.7982 z"
         inkscape:connector-curvature="0" />
    </g>
    <g
       id="g4970"
       transform="matrix(0.42196534,0,0,0.42196534,368.9511,864.61894)">
      <rect
         y="1246.6479"
         x="1725.7141"
         height="2080"
         width="1977.1429"
         id="rect4960"
         style="opacity:1;fill:#87aade;fill-opacity:1;stroke:none;stroke-opacity:1" />
      <circle
         r="914.28571"
         cy="2286.6479"
         cx="2720.0002"
         id="path4962"
         style="opacity:1;fill:#ffffff;fill-opacity:1;stroke:none;stroke-opacity:1" />
      <g
         transform="matrix(0.85949317,0,0,0.85949317,456.18395,519.60001)"
         id="g4964">
        <circle
           transform="scale(-1,-1)"
           style="opacity:1;fill:#ff8080;fill-opacity:1;stroke:none;stroke-opacity:1"
           id="circle4943"
           cx="-2961.8794"
           cy="-2364.49"
           r="404.06104" />
        <path
           inkscape:connector-curvature="0"
           d="m 3167.9231,2177.1776 -74.9251,0 0,224.775 74.9251,0 0,-224.775 z m -412.0873,206.0436 c 0,20.6045 16.858,37.4625 37.4625,37.4625 l 118.1941,0 -17.7948,85.602 -0.5612,5.994 c 0,7.6797 3.1841,14.7975 8.2416,19.855 l 19.8553,19.6679 123.2515,-123.4389 c 6.9305,-6.7432 11.0514,-16.1087 11.0514,-26.4111 l 0,-187.3131 c 0,-20.6041 -16.8583,-37.4622 -37.4626,-37.4622 l -168.5812,0 c -15.5468,0 -28.8461,9.3656 -34.4653,22.8521 l -56.5683,132.0557 c -1.6859,4.3081 -2.6225,8.8035 -2.6225,13.6739 l 0,35.7765 0.1871,0.1872 -0.1871,1.4985 z"
           id="path4945"
           style="opacity:1;fill:#ffffff;fill-opacity:1" />
        <circle
           r="404.06104"
           cy="1747.3472"
           cx="2305.9141"
           id="circle4949"
           style="opacity:1;fill:#5fd38d;fill-opacity:1;stroke:none;stroke-opacity:1" />
        <path
           style="opacity:1;fill:#ffffff;fill-opacity:1"
           id="path4951"
           d="m 2099.8705,1934.6595 74.9251,0 0,-224.775 -74.9251,0 0,224.775 z m 412.0873,-206.0435 c 0,-20.6045 -16.858,-37.4625 -37.4625,-37.4625 l -118.1941,0 17.7948,-85.6021 0.5612,-5.9939 c 0,-7.6798 -3.1841,-14.7975 -8.2416,-19.8551 l -19.8553,-19.6679 -123.2515,123.439 c -6.9305,6.7431 -11.0514,16.1086 -11.0514,26.411 l 0,187.3131 c 0,20.6041 16.8583,37.4622 37.4626,37.4622 l 168.5812,0 c 15.5468,0 28.8461,-9.3656 34.4653,-22.8521 l 56.5683,-132.0557 c 1.6859,-4.308 2.6225,-8.8035 2.6225,-13.6739 l 0,-35.7765 -0.1871,-0.1871 0.1871,-1.4985 z"
           inkscape:connector-curvature="0" />
      </g>
    </g>
  </g>
</svg>
