<?xml version="1.0" encoding="UTF-8" standalone="no"?>
<!-- Created with Inkscape (http://www.inkscape.org/) -->

<svg
   xmlns:dc="http://purl.org/dc/elements/1.1/"
   xmlns:cc="http://creativecommons.org/ns#"
   xmlns:rdf="http://www.w3.org/1999/02/22-rdf-syntax-ns#"
   xmlns:svg="http://www.w3.org/2000/svg"
   xmlns="http://www.w3.org/2000/svg"
   xmlns:sodipodi="http://sodipodi.sourceforge.net/DTD/sodipodi-0.dtd"
   xmlns:inkscape="http://www.inkscape.org/namespaces/inkscape"
   width="694.26245"
   height="488.89175"
   id="svg2"
   version="1.1"
   inkscape:version="0.48.5 r10040"
   sodipodi:docname="New document 1">
  <defs
     id="defs4">
    <inkscape:path-effect
       effect="spiro"
       id="path-effect4025"
       is_visible="true" />
    <inkscape:path-effect
       effect="spiro"
       id="path-effect3897"
       is_visible="true" />
    <inkscape:path-effect
       effect="spiro"
       id="path-effect3893"
       is_visible="true" />
    <inkscape:path-effect
       effect="spiro"
       id="path-effect3757"
       is_visible="true" />
  </defs>
  <sodipodi:namedview
     id="base"
     pagecolor="#ffffff"
     bordercolor="#666666"
     borderopacity="1.0"
     inkscape:pageopacity="0.0"
     inkscape:pageshadow="2"
     inkscape:zoom="0.35355339"
     inkscape:cx="-390.45094"
     inkscape:cy="612.97392"
     inkscape:document-units="px"
     inkscape:current-layer="layer1"
     showgrid="false"
     showborder="true"
     inkscape:snap-center="true"
     inkscape:snap-bbox="true"
     inkscape:bbox-nodes="true"
     inkscape:snap-global="false"
     fit-margin-top="0"
     fit-margin-left="0"
     fit-margin-right="0"
     fit-margin-bottom="0"
     inkscape:window-width="1920"
     inkscape:window-height="1017"
     inkscape:window-x="-8"
     inkscape:window-y="-8"
     inkscape:window-maximized="1" />
  <metadata
     id="metadata7">
    <rdf:RDF>
      <cc:Work
         rdf:about="">
        <dc:format>image/svg+xml</dc:format>
        <dc:type
           rdf:resource="http://purl.org/dc/dcmitype/StillImage" />
        <dc:title></dc:title>
      </cc:Work>
    </rdf:RDF>
  </metadata>
  <g
     inkscape:label="Layer 1"
     inkscape:groupmode="layer"
     id="layer1"
     transform="translate(216.44871,-288.16139)">
    <path
       style="fill:#ffdcb4;fill-opacity:1;stroke:none"
       d="m 306.36051,300.42144 c 15.19794,-2.91058 30.22185,-6.75822 45.52697,-9.03908 15.30511,-2.28085 31.05877,-2.96357 46.15204,0.44848 24.2933,5.49185 45.57661,21.63128 59.30406,42.41305 13.72744,20.78178 20.18536,45.89828 20.46048,70.80309 0.55024,49.80961 -22.4781,96.7815 -48.86927,139.02847 -10.58608,16.94619 -22.07241,34.1804 -25.14597,53.92354 -2.30756,14.82271 0.35411,30.01497 4.68842,44.37642 4.33432,14.36145 10.32469,28.17189 14.91527,42.45348 4.59059,14.2816 7.78936,29.31203 6.28043,44.23719 -0.75447,7.46259 -2.70027,14.83821 -6.08219,21.53313 -3.38193,6.69492 -8.22499,12.69628 -14.29177,17.1069 -5.91454,4.29994 -12.89801,7.02609 -20.09079,8.34337 -7.19277,1.31727 -14.59647,1.25482 -21.84563,0.29517 -14.49831,-1.91929 -28.25947,-7.34595 -41.98318,-12.40012 -18.70699,-6.88941 -37.66512,-13.17058 -57.03735,-17.87505 -112.54227,-27.33045 -230.027344,-0.15801 -344.472652,17.58991 -18.643289,2.89116 -37.651178,5.53184 -56.303128,2.69709 -9.32598,-1.41738 -18.495,-4.22448 -26.72105,-8.84129 -8.22605,-4.6168 -15.49016,-11.08762 -20.50018,-19.08027 -8.3352,-13.29743 -9.92105,-30.04368 -6.93652,-45.45114 2.98453,-15.40746 10.18923,-29.68408 18.42182,-43.04527 8.2326,-13.36119 17.56812,-26.03423 25.40312,-39.63239 7.835,-13.59816 14.21138,-28.36045 15.82273,-43.97137 2.39439,-23.19717 -5.94961,-46.35339 -17.85785,-66.40421 -11.90825,-20.05083 -27.33698,-37.7434 -40.96992,-56.66388 -13.63295,-18.92048 -25.72245,-39.72585 -29.4955,-62.73902 -1.88653,-11.50658 -1.61527,-23.44482 1.5488,-34.66752 3.16407,-11.22271 9.29634,-21.70129 18.05405,-29.39953 11.94158,-10.49695 27.80595,-15.23137 43.33519,-18.64166 74.997263,-16.46974 152.95033649,-8.65124 229.272953,-0.24292 76.322617,8.40832 154.002737,17.28803 229.416617,2.84543"
       id="path3895"
       inkscape:path-effect="#path-effect3897"
       inkscape:original-d="m 306.36051,300.42144 c 21.34536,17.92192 73.87439,-33.36563 91.67901,-8.5906 25.00643,34.79626 53.98326,139.38412 30.89527,252.24461 -4.31721,21.10398 -20.44448,30.94109 -25.14597,53.92354 -9.73335,47.57935 15.15225,133.92208 5.51016,169.70712 -10.25649,38.06548 -77.20568,23.74408 -83.9196,-3.76158 -8.58148,-35.15633 -43.79151,-28.01152 -57.03735,-17.87505 -129.92072,99.4227 -255.179378,-5.58524 -344.472652,17.58991 -26.668298,7.3398 -93.085968,60.85228 -103.524358,-25.22447 -9.27149,-76.454 60.79648,-105.42707 52.71115,-172.10017 -10.55918,-87.07273 -86.00049,-123.87617 -68.72042,-249.87416 2.59886,-18.94958 34.68472,-15.42939 43.33519,-18.64166 147.753707,-54.86695 343.35716,-84.31409 458.68957,2.60251 z"
       inkscape:connector-curvature="0"
       sodipodi:nodetypes="csssssscssssc"
       inkscape:export-filename="C:\Users\Brayan\Desktop\flat beer.png"
       inkscape:export-xdpi="163.69904"
       inkscape:export-ydpi="163.69904" />
    <path
       sodipodi:type="arc"
       style="fill:#ffebd4;fill-opacity:1;stroke:none"
       id="path3999"
       sodipodi:cx="-494.97473"
       sodipodi:cy="722.8504"
       sodipodi:rx="240.41631"
       sodipodi:ry="240.41631"
       d="m -254.55843,722.8504 c 0,132.77826 -107.63804,240.41631 -240.4163,240.41631 -132.77826,0 -240.41631,-107.63805 -240.41631,-240.41631 0,-132.77826 107.63805,-240.4163 240.41631,-240.4163 132.77826,0 240.4163,107.63804 240.4163,240.4163 z"
       transform="matrix(0.73344877,0,0,0.73344877,489.69756,-7.9328897)"
       inkscape:export-filename="C:\Users\Brayan\Desktop\flat beer.png"
       inkscape:export-xdpi="163.69904"
       inkscape:export-ydpi="163.69904" />
    <g
       id="g4086"
       transform="translate(0.96195251,12.375824)"
       inkscape:export-filename="C:\Users\Brayan\Desktop\flat beer.png"
       inkscape:export-xdpi="163"
       inkscape:export-ydpi="163">
      <g
         inkscape:export-ydpi="163.69904"
         inkscape:export-xdpi="163.69904"
         inkscape:export-filename="C:\Users\Brayan\Desktop\flat beer.png"
         id="g4069">
        <rect
           style="fill:none;stroke:#c5cfd5;stroke-width:15;stroke-linecap:round;stroke-linejoin:round;stroke-miterlimit:4;stroke-opacity:1;stroke-dasharray:none"
           id="rect3950"
           width="87.646378"
           height="87.646378"
           x="20.523529"
           y="498.36145" />
        <rect
           style="fill:#ffdd55;fill-opacity:1;stroke:#c5cfd5;stroke-width:15;stroke-linecap:round;stroke-linejoin:round;stroke-miterlimit:4;stroke-opacity:1;stroke-dasharray:none"
           id="rect3753"
           width="151.80386"
           height="189.95561"
           x="61.549488"
           y="444.80237" />
        <g
           id="g4016"
           transform="matrix(1.4250231,0,0,1.4250231,-86.670707,-192.20147)">
          <path
             style="fill:none;stroke:#ffcb05;stroke-width:2.33926582;stroke-linecap:round;stroke-linejoin:round;stroke-miterlimit:4;stroke-opacity:1;stroke-dasharray:none"
             d="m 182.6016,504.21165 c 3.02818,-2.36536 7.37378,-2.53124 10.61382,-0.13493 3.24004,2.39631 4.35392,6.6 2.97896,10.18808"
             id="path3986"
             inkscape:connector-curvature="0" />
          <path
             inkscape:connector-curvature="0"
             id="path3988"
             d="m 159.14311,487.0908 c 3.02818,-2.36536 7.37379,-2.53124 10.61382,-0.13493 3.24005,2.39631 4.35392,6.6 2.97897,10.18808"
             style="fill:none;stroke:#ffcb05;stroke-width:2.33926582;stroke-linecap:round;stroke-linejoin:round;stroke-miterlimit:4;stroke-opacity:1;stroke-dasharray:none" />
          <path
             inkscape:connector-curvature="0"
             id="path3984"
             d="m 184.61582,478.53037 c 3.02818,-2.36536 7.37378,-2.53124 10.61381,-0.13493 3.24005,2.39631 4.35392,6.6 2.97897,10.18808"
             style="fill:none;stroke:#ffcb05;stroke-width:2.33926582;stroke-linecap:round;stroke-linejoin:round;stroke-miterlimit:4;stroke-opacity:1;stroke-dasharray:none" />
        </g>
        <g
           id="g4011"
           transform="matrix(1.3426375,0,0,1.3426375,-24.484913,-209.8344)">
          <path
             style="fill:none;stroke:#ffcb05;stroke-width:5;stroke-linecap:round;stroke-linejoin:round;stroke-miterlimit:4;stroke-opacity:1;stroke-dasharray:none"
             d="m 98.607728,615.55941 c -4.25226,3.32152 -10.354491,3.55445 -14.904246,0.18948 -4.549776,-3.36498 -6.11391,-9.26793 -4.183167,-14.30642"
             id="path3961"
             inkscape:connector-curvature="0" />
          <path
             inkscape:connector-curvature="0"
             id="path3963"
             d="m 101.43616,579.49696 c -4.252265,3.32152 -10.354496,3.55445 -14.904251,0.18948 -4.549776,-3.36498 -6.11391,-9.26793 -4.183167,-14.30642"
             style="fill:none;stroke:#ffcb05;stroke-width:5;stroke-linecap:round;stroke-linejoin:round;stroke-miterlimit:4;stroke-opacity:1;stroke-dasharray:none" />
          <path
             style="fill:none;stroke:#ffcb05;stroke-width:5;stroke-linecap:round;stroke-linejoin:round;stroke-miterlimit:4;stroke-opacity:1;stroke-dasharray:none"
             d="m 134.37729,603.53859 c -4.25227,3.32152 -10.3545,3.55445 -14.90426,0.18948 -4.54977,-3.36498 -6.11391,-9.26793 -4.18316,-14.30642"
             id="path3965"
             inkscape:connector-curvature="0" />
        </g>
        <path
           style="fill:#ffffff;fill-opacity:1;stroke:#c5cfd5;stroke-width:10;stroke-linecap:round;stroke-linejoin:round;stroke-miterlimit:4;stroke-opacity:1;stroke-dasharray:none"
           d="m 99.902048,382.47207 c -11.477569,0 -21.052254,8.1131 -23.330304,18.91273 -1.1081,-0.10689 -2.227244,-0.16315 -3.363379,-0.16315 -19.133697,0 -34.650334,15.50409 -34.650334,34.63778 0,19.1337 15.516637,34.65034 34.650334,34.65034 1.148855,0 2.280869,-0.0539 3.401028,-0.16315 l 0,45.56877 c 0,6.29282 5.077403,11.37023 11.37023,11.37023 6.292826,0 11.357679,-5.07741 11.357679,-11.37023 l 0,-57.32805 c 1.304548,-1.49865 2.492198,-3.09818 3.526528,-4.80662 4.68728,5.70346 11.79495,9.33714 19.75358,9.33714 7.47957,0 14.21385,-3.21206 18.88763,-8.33315 6.1233,9.78258 17.00003,16.2898 29.39192,16.2898 9.15654,0 17.47485,-3.56064 23.66915,-9.36223 3.86106,2.34252 8.3942,3.67712 13.24016,3.67712 14.11503,0 25.5642,-11.43662 25.5642,-25.55164 0,-10.1412 -5.90943,-18.91209 -14.47006,-23.04165 -1.50491,-8.84286 -9.20187,-15.57446 -18.47349,-15.57446 -4.32042,0 -8.30074,1.45949 -11.47062,3.91558 -3.58768,-8.63582 -12.10343,-14.70851 -22.03767,-14.70851 -8.32456,0 -15.6493,4.26687 -19.91672,10.73018 -4.66531,-6.17527 -12.07027,-10.16544 -20.40618,-10.16544 -2.61895,0 -5.15103,0.39767 -7.52995,1.1295 -4.34682,-5.85336 -11.31274,-9.65089 -19.163732,-9.65089 z"
           id="path3759"
           inkscape:connector-curvature="0" />
        <path
           style="fill:none;stroke:#c5cfd5;stroke-width:6.24900007;stroke-linecap:round;stroke-linejoin:round;stroke-miterlimit:4;stroke-opacity:1;stroke-dasharray:none"
           d="m 186.27813,426.8439 c 3.19937,-2.43054 7.6805,-2.82246 11.3463,-0.64265 3.66579,2.17982 5.46142,6.30413 4.8538,10.27581"
           id="path3818"
           inkscape:connector-curvature="0" />
        <path
           inkscape:connector-curvature="0"
           id="path3829"
           d="m 88.044014,426.20396 c 1.455463,-7.16179 7.10952,-13.07572 14.735846,-14.49626 7.62633,-1.42055 15.03048,2.06107 18.96689,8.2185"
           style="fill:none;stroke:#c5cfd5;stroke-width:7.64599991;stroke-linecap:round;stroke-linejoin:round;stroke-miterlimit:4;stroke-opacity:1;stroke-dasharray:none" />
      </g>
    </g>
  </g>
</svg>
