<?xml version="1.0" encoding="UTF-8" standalone="no"?>
<!-- Created with Inkscape (http://www.inkscape.org/) -->

<svg
   xmlns:dc="http://purl.org/dc/elements/1.1/"
   xmlns:cc="http://creativecommons.org/ns#"
   xmlns:rdf="http://www.w3.org/1999/02/22-rdf-syntax-ns#"
   xmlns:svg="http://www.w3.org/2000/svg"
   xmlns="http://www.w3.org/2000/svg"
   xmlns:sodipodi="http://sodipodi.sourceforge.net/DTD/sodipodi-0.dtd"
   xmlns:inkscape="http://www.inkscape.org/namespaces/inkscape"
   width="1049.2047"
   height="673.02686"
   id="svg2"
   version="1.1"
   inkscape:version="0.48.5 r10040"
   sodipodi:docname="New document 1">
  <sodipodi:namedview
     id="base"
     pagecolor="#fffbc3"
     bordercolor="#666666"
     borderopacity="1.0"
     inkscape:pageopacity="1"
     inkscape:pageshadow="2"
     inkscape:zoom="1"
     inkscape:cx="557.83641"
     inkscape:cy="351.40898"
     inkscape:document-units="px"
     inkscape:current-layer="layer1"
     showgrid="false"
     showborder="true"
     inkscape:snap-bbox="true"
     inkscape:object-paths="true"
     inkscape:object-nodes="true"
     inkscape:snap-global="true"
     inkscape:window-width="1920"
     inkscape:window-height="1017"
     inkscape:window-x="-8"
     inkscape:window-y="-8"
     inkscape:window-maximized="1"
     fit-margin-top="16"
     fit-margin-left="16"
     fit-margin-right="16"
     fit-margin-bottom="16" />
  <defs
     id="defs4" />
  <metadata
     id="metadata7">
    <rdf:RDF>
      <cc:Work
         rdf:about="">
        <dc:format>image/svg+xml</dc:format>
        <dc:type
           rdf:resource="http://purl.org/dc/dcmitype/StillImage" />
        <dc:title></dc:title>
      </cc:Work>
    </rdf:RDF>
  </metadata>
  <g
     inkscape:label="Layer 1"
     inkscape:groupmode="layer"
     id="layer1"
     transform="translate(302.60237,-197.22046)">
    <path
       style="fill:#cccccc;fill-opacity:1;stroke:none"
       d="M 90.78125,266.96875 C 78.881503,267.22329 67.827966,269.72309 59.5,274.53125 L -234.8125,444.4375 -239,430.625 l -47.59375,2.09375 0,52.90625 0,0.5 0,0.0312 c 0.0241,3.7044 1.16143,7.53437 3.34375,11.3125 l 0,0.0625 c 3.5293,6.08444 9.80272,12.03982 18.71875,17.1875 l 566,326.78125 c 25.484,14.7132 62.53164,17.023 83.03125,5.1875 l 333,-192.28125 c 8.71746,-5.03304 13.00203,-11.79753 13.09375,-19.03125 0.003,-0.20838 0.004,-0.41585 0,-0.625 l 0,-53 -45.6875,11.09375 -542.375,-313.125 c -15.13112,-8.73596 -34.35806,-13.12202 -51.75,-12.75 z"
       id="path3767"
       inkscape:connector-curvature="0" />
    <path
       style="fill:#ffffff;fill-opacity:1;stroke:none"
       d="M -273.51307,413.05031 59.513068,220.77758 c 20.499609,-11.83546 57.518902,-9.51872 83.002902,5.19448 l 566,326.78024 c 25.484,14.7132 29.49671,36.0863 8.9971,47.92175 L 384.48693,792.94678 c -20.49961,11.83546 -57.5189,9.51872 -83.0029,-5.19448 l -566,-326.78024 c -25.484,-14.7132 -29.4967,-36.0863 -8.9971,-47.92175 z"
       id="rect3758"
       inkscape:connector-curvature="0" />
    <path
       id="path3756"
       d="m -231.77207,444.37676 345.54413,-199.5 510.00001,294.44863 -345.54414,199.5 z"
       style="fill:#cbe1ff;fill-opacity:1;stroke:none"
       inkscape:connector-curvature="0" />
    <path
       style="fill:#00ccff;fill-opacity:1;stroke:none"
       d="m -188.05444,445.11713 303.10889,-175 465,268.46788 -303.1089,175 z"
       id="rect3753"
       inkscape:connector-curvature="0" />
    <path
       style="fill:#cccccc;fill-opacity:1;stroke:none"
       d="m 526.02435,650.31966 c 17.71236,10.22624 19.63607,25.69559 4.29672,34.55177 -15.33936,8.85618 -42.13307,7.74553 -59.84543,-2.4807 -17.71237,-10.22624 -19.63606,-25.6956 -4.29671,-34.55178 15.33935,-8.85618 42.13307,-7.74553 59.84542,2.48071 z"
       id="path3761"
       inkscape:connector-curvature="0" />
    <path
       style="fill:#cccccc;fill-opacity:1;stroke:none"
       d="m -133.60422,352.46567 88.181636,-50.91169 11.7132,6.76262 -88.181636,50.91169 z"
       id="rect3763"
       inkscape:connector-curvature="0" />
    <path
       style="fill:#0091b6;fill-opacity:1;stroke:none"
       d="m 115.0625,270.125 -303.125,175 32.625,18.84375 270.5,-156.1875 0,-37.65625 z"
       id="path3804"
       inkscape:connector-curvature="0" />
    <path
       style="fill:#57ddff;fill-opacity:1;stroke:none"
       d="m 115.0625,270.125 0,37.65625 432.375,249.65625 32.625,-18.84375 -465,-268.46875 z"
       id="path3809"
       inkscape:connector-curvature="0" />
    <path
       inkscape:connector-curvature="0"
       id="path3814"
       d="M -71.82092,512.22459 155.52149,380.96838 504.28797,582.32881 276.94555,713.58501 z"
       style="fill:#88e7ff;fill-opacity:1;stroke:none" />
    <path
       style="font-size:medium;font-style:normal;font-variant:normal;font-weight:normal;font-stretch:normal;text-indent:0;text-align:start;text-decoration:none;line-height:normal;letter-spacing:normal;word-spacing:normal;text-transform:none;direction:ltr;block-progression:tb;writing-mode:lr-tb;text-anchor:start;baseline-shift:baseline;color:#000000;fill:#999999;fill-opacity:1;stroke:none;stroke-width:5.53755951;marker:none;visibility:visible;display:inline;overflow:visible;enable-background:accumulate;font-family:Sans;-inkscape-font-specification:Sans"
       d="m 194.29776,282.70645 c -11.303,0 -20.46875,9.19701 -20.46875,20.5 l 0,13.1875 a 2.769277,2.769277 0 0 0 0,1.09375 l 0,14.15625 a 2.769277,2.769277 0 0 0 0,1.09375 l 0,14.15625 a 2.769277,2.769277 0 0 0 0,1.09375 l 0,11.6875 a 2.7690566,2.7690566 0 1 0 5.53125,0 l 0,-7.375 22.78125,13.1875 0,10.5625 a 2.769277,2.769277 0 1 0 5.53125,0 l 0,-11.9375 a 2.7791864,2.7791864 0 0 0 0,-0.53125 l 0,-14.71875 a 2.7791864,2.7791864 0 0 0 0,-0.53125 l 0,-14.71875 a 2.7791864,2.7791864 0 0 0 0,-0.53125 l 0,-13.53125 c 0,-2.44314 0.5767,-4.72658 1.59375,-6.75 l 0,1.0625 a 2.7690566,2.7690566 0 1 0 5.53125,0 l 0,-7.0625 c 2.2754,-1.38506 4.95513,-2.1875 7.84375,-2.1875 8.33086,0 14.9375,6.60665 14.9375,14.9375 l 0,10.65625 a 2.769277,2.769277 0 1 0 5.53125,0 l 0,-10.65625 c 0,-11.30311 -9.16563,-20.5 -20.46875,-20.5 -2.8359,0 -5.54125,0.57912 -8,1.625 -1.25006,-10.11444 -9.89685,-17.96875 -20.34375,-17.96875 z m 0,5.53125 c 8.33098,0 14.96875,6.63778 14.96875,14.96875 l 0,0.84375 c -4.35353,3.76213 -7.125,9.30861 -7.125,15.5 l 0,9 -22.78125,-13.15625 0,-12.1875 c 0,-8.33097 6.60652,-14.96875 14.9375,-14.96875 z m -14.9375,33.5625 22.78125,13.1875 0,8.8125 -22.78125,-13.15625 0,-8.84375 z m 0,15.25 22.78125,13.1875 0,8.8125 -22.78125,-13.15625 0,-8.84375 z"
       id="path3821"
       inkscape:connector-curvature="0" />
    <path
       style="font-size:medium;font-style:normal;font-variant:normal;font-weight:normal;font-stretch:normal;text-indent:0;text-align:start;text-decoration:none;line-height:normal;letter-spacing:normal;word-spacing:normal;text-transform:none;direction:ltr;block-progression:tb;writing-mode:lr-tb;text-anchor:start;baseline-shift:baseline;color:#000000;fill:#0091b6;fill-opacity:1;stroke:none;stroke-width:5.53755951;marker:none;visibility:visible;display:inline;overflow:visible;enable-background:accumulate;font-family:Sans;-inkscape-font-specification:Sans"
       d="m 173.84375,341.71875 0,5.1875 a 2.769277,2.769277 0 0 0 0,1.09375 l 0,11.6875 a 2.7690566,2.7690566 0 1 0 5.53125,0 l 0,-7.375 22.78125,13.1875 0,10.5625 a 2.769277,2.769277 0 1 0 5.53125,0 l 0,-11.9375 a 2.7791864,2.7791864 0 0 0 0,-0.53125 l 0,-2.34375 -5.53125,-3.1875 0,1 -22.78125,-13.15625 0,-1 -5.53125,-3.1875 z"
       id="path3842"
       inkscape:connector-curvature="0" />
    <path
       style="fill:#c476da;fill-opacity:1;stroke:none"
       d="m 306.42912,500.25244 0,21.66085 0,0.0487 c 0.0582,16.47423 29.93359,29.83018 66.77818,29.83018 36.84456,0 66.7199,-13.35595 66.7782,-29.83018 5e-5,-0.0172 0,-0.0324 0,-0.0487 l 0,-21.66085 c -41.19253,27.12205 -86.02233,24.58598 -133.55638,0 z m 32.83908,21.70938 67.87822,0 c -9.60021,3.02494 -21.30134,4.80452 -33.93912,4.80452 -12.63779,0 -24.33891,-1.77958 -33.9391,-4.80452 z"
       id="path3854"
       inkscape:connector-curvature="0"
       sodipodi:nodetypes="cccsssccccsc" />
    <path
       style="fill:#daaae8;fill-opacity:1;stroke:none"
       d="m 373.2073,470.51931 c -36.88058,0 -66.77818,13.3661 -66.77818,29.86254 0,16.49644 29.8976,29.86253 66.77818,29.86253 36.88058,0 66.7782,-13.36609 66.7782,-29.86253 0,-16.49644 -29.89762,-29.86254 -66.7782,-29.86254 z m 0,16.66221 c 16.29605,0 29.50663,5.91122 29.50663,13.20033 0,7.28913 -13.21058,13.20033 -29.50663,13.20033 -16.29606,0 -29.50664,-5.9112 -29.50664,-13.20033 0,-7.28911 13.21058,-13.20033 29.50664,-13.20033 z"
       id="path3850"
       inkscape:connector-curvature="0" />
    <path
       style="fill:#c476da;fill-opacity:1;stroke:none"
       d="m 373.2073,487.18697 c -16.29606,0 -29.50664,5.90899 -29.50664,13.19812 0,1.82806 0.82738,3.5689 2.32946,5.1519 3.70534,-5.39511 14.93601,-9.31973 28.2125,-9.31973 12.20928,0 22.68996,3.31714 27.17718,8.04624 0.84293,-1.2272 1.29413,-2.5276 1.29413,-3.87841 0,-7.28913 -13.21058,-13.19812 -29.50663,-13.19812 z"
       id="path3856"
       inkscape:connector-curvature="0" />
    <path
       style="font-size:medium;font-style:normal;font-variant:normal;font-weight:normal;font-stretch:normal;text-indent:0;text-align:start;text-decoration:none;line-height:normal;letter-spacing:normal;word-spacing:normal;text-transform:none;direction:ltr;block-progression:tb;writing-mode:lr-tb;text-anchor:start;baseline-shift:baseline;color:#000000;fill:#ffffff;fill-opacity:1;stroke:none;stroke-width:5;marker:none;visibility:visible;display:inline;overflow:visible;enable-background:accumulate;font-family:Sans;-inkscape-font-specification:Sans"
       d="m 319.54857,498.86122 a 1.2942804,1.2942804 0 0 0 -1.16475,1.27799 c -0.001,0.0791 0,0.16338 0,0.24274 0,3.69692 1.69131,7.17245 4.56189,10.20762 2.87058,3.03514 6.91822,5.67841 11.87384,7.89431 9.9112,4.43182 23.44916,7.13403 38.38775,7.13403 14.93859,0 28.47654,-2.70221 38.38777,-7.13403 4.9556,-2.2159 9.00324,-4.85917 11.87382,-7.89431 2.87057,-3.03517 4.56188,-6.5107 4.56188,-10.20762 0,-0.0791 10e-4,-0.16363 0,-0.24274 a 1.294382,1.294382 0 1 0 -2.58831,0.0484 c 0.001,0.0624 0,0.13169 0,0.19409 0,2.91507 -1.30302,5.73507 -3.85008,8.42816 -2.54708,2.6931 -6.33336,5.1962 -11.065,7.31193 -9.46328,4.23152 -22.69418,6.90754 -37.32008,6.90754 -14.62591,0 -27.8568,-2.67602 -37.32007,-6.90754 -4.73165,-2.11573 -8.51793,-4.61883 -11.06499,-7.31193 -2.54709,-2.69309 -3.85011,-5.51309 -3.85011,-8.42816 0,-0.0624 -10e-4,-0.13169 0,-0.19409 a 1.2942804,1.2942804 0 0 0 -1.42356,-1.32649 z"
       id="path3877"
       inkscape:connector-curvature="0" />
    <path
       sodipodi:nodetypes="cccsssccccsc"
       inkscape:connector-curvature="0"
       id="path3887"
       d="m 9.146328,452.44483 0,21.66085 0,0.0487 c 0.0582,16.47423 29.93359,29.83018 66.77818,29.83018 36.844562,0 66.719902,-13.35595 66.778202,-29.83018 5e-5,-0.0172 0,-0.0324 0,-0.0487 l 0,-21.66085 c -41.19253,27.12205 -86.022332,24.58598 -133.556382,0 z m 32.83908,21.70938 67.878222,0 c -9.60021,3.02494 -21.301342,4.80452 -33.939122,4.80452 -12.63779,0 -24.33891,-1.77958 -33.9391,-4.80452 z"
       style="fill:#002e72;fill-opacity:1;stroke:none" />
    <path
       inkscape:connector-curvature="0"
       id="path3889"
       d="m 75.924508,422.7117 c -36.88058,0 -66.77818,13.3661 -66.77818,29.86254 0,16.49644 29.8976,29.86253 66.77818,29.86253 36.880582,0 66.778202,-13.36609 66.778202,-29.86253 0,-16.49644 -29.89762,-29.86254 -66.778202,-29.86254 z m 0,16.66221 c 16.29605,0 29.506632,5.91122 29.506632,13.20033 0,7.28913 -13.210582,13.20033 -29.506632,13.20033 -16.29606,0 -29.50664,-5.9112 -29.50664,-13.20033 0,-7.28911 13.21058,-13.20033 29.50664,-13.20033 z"
       style="fill:#2a7fff;fill-opacity:1;stroke:none" />
    <path
       inkscape:connector-curvature="0"
       id="path3891"
       d="m 75.924508,439.37936 c -16.29606,0 -29.50664,5.90899 -29.50664,13.19812 0,1.82806 0.82738,3.5689 2.32946,5.1519 3.70534,-5.39511 14.93601,-9.31973 28.2125,-9.31973 12.20928,0 22.68996,3.31714 27.177182,8.04624 0.84293,-1.2272 1.29413,-2.5276 1.29413,-3.87841 0,-7.28913 -13.210582,-13.19812 -29.506632,-13.19812 z"
       style="fill:#002e72;fill-opacity:1;stroke:none" />
    <path
       inkscape:connector-curvature="0"
       id="path3893"
       d="m 22.265778,451.05361 a 1.2942804,1.2942804 0 0 0 -1.16475,1.27799 c -0.001,0.0791 0,0.16338 0,0.24274 0,3.69692 1.69131,7.17245 4.56189,10.20762 2.87058,3.03514 6.91822,5.67841 11.87384,7.89431 9.9112,4.43182 23.44916,7.13403 38.38775,7.13403 14.93859,0 28.476542,-2.70221 38.387772,-7.13403 4.9556,-2.2159 9.00324,-4.85917 11.87382,-7.89431 2.87057,-3.03517 4.56188,-6.5107 4.56188,-10.20762 0,-0.0791 10e-4,-0.16363 0,-0.24274 a 1.294382,1.294382 0 1 0 -2.58831,0.0484 c 0.001,0.0624 0,0.13169 0,0.19409 0,2.91507 -1.30302,5.73507 -3.85008,8.42816 -2.54708,2.6931 -6.33336,5.1962 -11.065,7.31193 -9.46328,4.23152 -22.694182,6.90754 -37.320082,6.90754 -14.62591,0 -27.8568,-2.67602 -37.32007,-6.90754 -4.73165,-2.11573 -8.51793,-4.61883 -11.06499,-7.31193 -2.54709,-2.69309 -3.85011,-5.51309 -3.85011,-8.42816 0,-0.0624 -10e-4,-0.13169 0,-0.19409 a 1.2942804,1.2942804 0 0 0 -1.42356,-1.32649 z"
       style="font-size:medium;font-style:normal;font-variant:normal;font-weight:normal;font-stretch:normal;text-indent:0;text-align:start;text-decoration:none;line-height:normal;letter-spacing:normal;word-spacing:normal;text-transform:none;direction:ltr;block-progression:tb;writing-mode:lr-tb;text-anchor:start;baseline-shift:baseline;color:#000000;fill:#9dc4ff;fill-opacity:1;stroke:none;stroke-width:5;marker:none;visibility:visible;display:inline;overflow:visible;enable-background:accumulate;font-family:Sans;-inkscape-font-specification:Sans" />
    <g
       id="g4241"
       transform="matrix(0.63184061,0,0,0.63184061,73.768785,219.63893)">
      <path
         inkscape:connector-curvature="0"
         id="path4231"
         d="m 227.53407,436.32987 c -39.02252,0 -72.85103,22.24813 -89.5,54.75 -0.004,0.008 0.004,0.0232 0,0.0312 -0.15604,0.30483 -0.31574,0.59962 -0.46875,0.90625 -0.0587,0.11515 -0.13023,0.22764 -0.1875,0.34375 -6.62245,13.4031 -10.34375,28.50888 -10.34375,44.46875 0,37.60716 20.65905,70.36254 51.25,87.59375 0.0123,0.007 0.0189,0.0243 0.0312,0.0312 12.97053,7.29879 27.71859,11.79813 43.4375,12.6875 0.0104,5.9e-4 0.0209,-5.8e-4 0.0312,0 1.89794,0.1068 3.82537,0.1875 5.75,0.1875 55.49869,0 100.5,-45.0013 100.5,-100.5 0,-34.37051 -17.27003,-64.72105 -43.59375,-82.84375 -0.012,-0.008 -0.0192,-0.0231 -0.0312,-0.0312 -14.69216,-10.10548 -32.21515,-16.39883 -51.125,-17.46875 -0.0727,-0.004 -0.14599,0.004 -0.21875,0 -1.83649,-0.0999 -3.66984,-0.15625 -5.53125,-0.15625 z"
         style="font-size:medium;font-style:normal;font-variant:normal;font-weight:normal;font-stretch:normal;text-indent:0;text-align:start;text-decoration:none;line-height:normal;letter-spacing:normal;word-spacing:normal;text-transform:none;direction:ltr;block-progression:tb;writing-mode:lr-tb;text-anchor:start;baseline-shift:baseline;color:#000000;fill:#ffffff;fill-opacity:1;stroke:none;stroke-width:1;marker:none;visibility:visible;display:inline;overflow:visible;enable-background:accumulate;font-family:Sans;-inkscape-font-specification:Sans" />
      <path
         inkscape:connector-curvature="0"
         id="path4229"
         d="m 227.54857,437.32987 c -14.69751,0 -28.66389,3.18778 -41.21875,8.90625 0.0959,-0.003 0.18465,-0.0304 0.28125,-0.0312 2.92641,-0.0264 6.20653,0.94564 9.71875,2.75 4.0832,2.09769 8.5094,5.35163 13.15625,9.59375 5.26397,-2.63793 11.45672,-4.125 18.0625,-4.125 0.65038,0 1.29578,0.002 1.9375,0.0312 0.44382,-3.82249 0.84505,-7.12978 1.25,-9.78125 0.38499,-2.52075 0.74954,-4.4977 1.09375,-5.84375 0.14926,-0.58368 0.31394,-1.01284 0.46875,-1.375 -1.57364,-0.0739 -3.15805,-0.125 -4.75,-0.125 z m 47.25,14.9375 c -2.10499,0.0136 -4.37595,0.35034 -6.78125,0.96875 -5.30521,1.36399 -11.25278,4.21434 -17.59375,8.28125 5.09596,3.68075 8.91004,8.55569 10.6875,14.125 8.08755,0.11748 15.75899,0.96117 22.75,2.46875 16.11581,3.4753 28.83907,10.54276 35.6875,20.75 -7.39917,-17.92295 -19.88526,-33.20605 -35.65625,-44.0625 l 0,0.0312 c -2.52763,-1.73736 -5.58544,-2.5851 -9.09375,-2.5625 z m -90.5625,20.03125 c -1.16804,-0.005 -2.33149,-0.004 -3.46875,0.0312 -20.38147,0.62318 -36.08491,7.52569 -42.46875,20.46875 -6.55702,13.27133 -10.25,28.22477 -10.25,44.03125 0,6.78077 0.6455,13.38171 1.9375,19.78125 -0.0226,-12.31764 6.5969,-25.30337 18.0625,-37.1875 11.15405,-11.56122 26.93366,-22.0797 45.71875,-30 -0.59393,-2.0928 -0.90625,-4.25545 -0.90625,-6.5 0,-3.53939 0.76016,-6.94254 2.1875,-10.0625 -3.70426,-0.36647 -7.31821,-0.5478 -10.8125,-0.5625 z m 75.25,21.8125 -0.0937,0.0937 c -2.73482,5.22729 -7.28715,9.63386 -13.03125,12.6875 2.96131,5.07047 5.87531,10.34972 8.6875,15.84375 12.60091,24.61774 20.95089,48.44027 24.3125,67.125 1.6808,9.34236 2.13182,17.40947 1.1875,23.65625 -0.61441,4.06434 -1.8367,7.37132 -3.6875,9.75 17.18104,-9.82107 31.1399,-24.62869 39.9375,-42.4375 l -0.0312,0 c 6.38384,-12.94305 2.31719,-29.60565 -9.59375,-46.15625 -10.48589,-14.57045 -27.02708,-29.00598 -47.6875,-40.5625 z m -53.8125,10.96875 c -2.74184,3.58229 -5.47571,7.27065 -8.125,11.125 -15.61373,22.71583 -26.33069,45.63735 -31.0625,64.25 -2.3659,9.30633 -3.22719,17.54585 -2.46875,24.125 0.71104,6.16795 2.81257,10.86683 6.40625,13.71875 0.18383,0.12905 0.37776,0.24717 0.5625,0.375 0.066,0.0471 0.1206,0.11025 0.1875,0.15625 2.45845,1.69235 5.01357,3.27982 7.625,4.75 0.15426,0.0867 0.31398,0.1642 0.46875,0.25 0.64548,0.35883 1.2833,0.71772 1.9375,1.0625 0.15293,0.08 0.31535,0.13965 0.46875,0.21875 0.19061,0.0992 0.37116,0.2145 0.5625,0.3125 11.8969,6.02695 25.1426,9.45555 38.59375,10.3125 -0.076,-0.31779 -0.15925,-0.65825 -0.21875,-1.09375 -0.18826,-1.37655 -0.31165,-3.35803 -0.40625,-5.90625 -0.18925,-5.09645 -0.2185,-12.4408 -0.0625,-21.5 0.31201,-18.1184 1.32677,-43.11306 2.90625,-70.6875 0.50278,-8.77748 1.01516,-17.11468 1.5625,-25.21875 -7.13862,-0.49064 -13.67628,-2.73594 -18.9375,-6.25 z"
         style="font-size:medium;font-style:normal;font-variant:normal;font-weight:normal;font-stretch:normal;text-indent:0;text-align:start;text-decoration:none;line-height:normal;letter-spacing:normal;word-spacing:normal;text-transform:none;direction:ltr;block-progression:tb;writing-mode:lr-tb;text-anchor:start;baseline-shift:baseline;color:#000000;fill:#ff8080;fill-opacity:1;stroke:none;stroke-width:1;marker:none;visibility:visible;display:inline;overflow:visible;enable-background:accumulate;font-family:Sans;-inkscape-font-specification:Sans" />
    </g>
  </g>
</svg>
