<?xml version="1.0" encoding="UTF-8" standalone="no"?>
<!-- Created with Inkscape (http://www.inkscape.org/) -->

<svg
   xmlns:dc="http://purl.org/dc/elements/1.1/"
   xmlns:cc="http://creativecommons.org/ns#"
   xmlns:rdf="http://www.w3.org/1999/02/22-rdf-syntax-ns#"
   xmlns:svg="http://www.w3.org/2000/svg"
   xmlns="http://www.w3.org/2000/svg"
   xmlns:sodipodi="http://sodipodi.sourceforge.net/DTD/sodipodi-0.dtd"
   xmlns:inkscape="http://www.inkscape.org/namespaces/inkscape"
   width="793.70081"
   height="1122.5197"
   id="svg2"
   version="1.1"
   inkscape:version="0.92.1 r15371"
   sodipodi:docname="oktober.svg">
  <defs
     id="defs4">
    <inkscape:path-effect
       effect="skeletal"
       id="path-effect4014"
       is_visible="true"
       pattern="M 0,5 C 0,2.24 2.24,0 5,0 7.76,0 10,2.24 10,5 10,7.76 7.76,10 5,10 2.24,10 0,7.76 0,5 Z"
       copytype="single_stretched"
       prop_scale="1"
       scale_y_rel="false"
       spacing="0"
       normal_offset="0"
       tang_offset="0"
       prop_units="false"
       vertical_pattern="false"
       fuse_tolerance="0" />
    <inkscape:path-effect
       effect="spiro"
       id="path-effect4012"
       is_visible="true" />
    <inkscape:path-effect
       effect="skeletal"
       id="path-effect4008"
       is_visible="true"
       pattern="M 0,5 C 0,2.24 2.24,0 5,0 7.76,0 10,2.24 10,5 10,7.76 7.76,10 5,10 2.24,10 0,7.76 0,5 Z"
       copytype="single_stretched"
       prop_scale="1"
       scale_y_rel="false"
       spacing="0"
       normal_offset="0"
       tang_offset="0"
       prop_units="false"
       vertical_pattern="false"
       fuse_tolerance="0" />
    <inkscape:path-effect
       effect="spiro"
       id="path-effect4006"
       is_visible="true" />
    <inkscape:path-effect
       effect="skeletal"
       id="path-effect4002"
       is_visible="true"
       pattern="M 0,5 C 0,2.24 2.24,0 5,0 7.76,0 10,2.24 10,5 10,7.76 7.76,10 5,10 2.24,10 0,7.76 0,5 Z"
       copytype="single_stretched"
       prop_scale="1"
       scale_y_rel="false"
       spacing="0"
       normal_offset="0"
       tang_offset="0"
       prop_units="false"
       vertical_pattern="false"
       fuse_tolerance="0" />
    <inkscape:path-effect
       effect="spiro"
       id="path-effect4000"
       is_visible="true" />
    <inkscape:path-effect
       effect="skeletal"
       id="path-effect3996"
       is_visible="true"
       pattern="M 0,5 C 0,2.24 2.24,0 5,0 7.76,0 10,2.24 10,5 10,7.76 7.76,10 5,10 2.24,10 0,7.76 0,5 Z"
       copytype="single_stretched"
       prop_scale="1"
       scale_y_rel="false"
       spacing="0"
       normal_offset="0"
       tang_offset="0"
       prop_units="false"
       vertical_pattern="false"
       fuse_tolerance="0" />
    <inkscape:path-effect
       effect="spiro"
       id="path-effect3994"
       is_visible="true" />
    <inkscape:path-effect
       effect="skeletal"
       id="path-effect3990"
       is_visible="true"
       pattern="M 0,5 C 0,2.24 2.24,0 5,0 7.76,0 10,2.24 10,5 10,7.76 7.76,10 5,10 2.24,10 0,7.76 0,5 Z"
       copytype="single_stretched"
       prop_scale="1"
       scale_y_rel="false"
       spacing="0"
       normal_offset="0"
       tang_offset="0"
       prop_units="false"
       vertical_pattern="false"
       fuse_tolerance="0" />
    <inkscape:path-effect
       effect="spiro"
       id="path-effect3988"
       is_visible="true" />
    <inkscape:path-effect
       effect="skeletal"
       id="path-effect3984"
       is_visible="true"
       pattern="M 0,5 C 0,2.24 2.24,0 5,0 7.76,0 10,2.24 10,5 10,7.76 7.76,10 5,10 2.24,10 0,7.76 0,5 Z"
       copytype="single_stretched"
       prop_scale="1"
       scale_y_rel="false"
       spacing="0"
       normal_offset="0"
       tang_offset="0"
       prop_units="false"
       vertical_pattern="false"
       fuse_tolerance="0" />
    <inkscape:path-effect
       effect="spiro"
       id="path-effect3982"
       is_visible="true" />
    <inkscape:path-effect
       effect="skeletal"
       id="path-effect3978"
       is_visible="true"
       pattern="M 0,5 C 0,2.24 2.24,0 5,0 7.76,0 10,2.24 10,5 10,7.76 7.76,10 5,10 2.24,10 0,7.76 0,5 Z"
       copytype="single_stretched"
       prop_scale="1"
       scale_y_rel="false"
       spacing="0"
       normal_offset="0"
       tang_offset="0"
       prop_units="false"
       vertical_pattern="false"
       fuse_tolerance="0" />
    <inkscape:path-effect
       effect="spiro"
       id="path-effect3976"
       is_visible="true" />
    <inkscape:path-effect
       effect="skeletal"
       id="path-effect3972"
       is_visible="true"
       pattern="M 0,5 C 0,2.24 2.24,0 5,0 7.76,0 10,2.24 10,5 10,7.76 7.76,10 5,10 2.24,10 0,7.76 0,5 Z"
       copytype="single_stretched"
       prop_scale="1"
       scale_y_rel="false"
       spacing="0"
       normal_offset="0"
       tang_offset="0"
       prop_units="false"
       vertical_pattern="false"
       fuse_tolerance="0" />
    <inkscape:path-effect
       effect="spiro"
       id="path-effect3970"
       is_visible="true" />
    <inkscape:path-effect
       effect="skeletal"
       id="path-effect3966"
       is_visible="true"
       pattern="M 0,5 C 0,2.24 2.24,0 5,0 7.76,0 10,2.24 10,5 10,7.76 7.76,10 5,10 2.24,10 0,7.76 0,5 Z"
       copytype="single_stretched"
       prop_scale="1"
       scale_y_rel="false"
       spacing="0"
       normal_offset="0"
       tang_offset="0"
       prop_units="false"
       vertical_pattern="false"
       fuse_tolerance="0" />
    <inkscape:path-effect
       effect="spiro"
       id="path-effect3964"
       is_visible="true" />
    <inkscape:path-effect
       effect="skeletal"
       id="path-effect3869"
       is_visible="true"
       pattern="M 0,5 C 0,2.24 2.24,0 5,0 7.76,0 10,2.24 10,5 10,7.76 7.76,10 5,10 2.24,10 0,7.76 0,5 Z"
       copytype="single_stretched"
       prop_scale="1"
       scale_y_rel="false"
       spacing="0"
       normal_offset="0"
       tang_offset="0"
       prop_units="false"
       vertical_pattern="false"
       fuse_tolerance="0" />
    <inkscape:path-effect
       effect="spiro"
       id="path-effect3867"
       is_visible="true" />
    <inkscape:path-effect
       effect="skeletal"
       id="path-effect3851"
       is_visible="true"
       pattern="M 0,5 C 0,2.24 2.24,0 5,0 7.76,0 10,2.24 10,5 10,7.76 7.76,10 5,10 2.24,10 0,7.76 0,5 Z"
       copytype="single_stretched"
       prop_scale="1"
       scale_y_rel="false"
       spacing="0"
       normal_offset="0"
       tang_offset="0"
       prop_units="false"
       vertical_pattern="false"
       fuse_tolerance="0" />
    <inkscape:path-effect
       effect="spiro"
       id="path-effect3849"
       is_visible="true" />
    <inkscape:path-effect
       effect="skeletal"
       id="path-effect3845"
       is_visible="true"
       pattern="M 0,5 C 0,2.24 2.24,0 5,0 7.76,0 10,2.24 10,5 10,7.76 7.76,10 5,10 2.24,10 0,7.76 0,5 Z"
       copytype="single_stretched"
       prop_scale="1"
       scale_y_rel="false"
       spacing="0"
       normal_offset="0"
       tang_offset="0"
       prop_units="false"
       vertical_pattern="false"
       fuse_tolerance="0" />
    <inkscape:path-effect
       effect="spiro"
       id="path-effect3843"
       is_visible="true" />
    <inkscape:path-effect
       effect="spiro"
       id="path-effect3839"
       is_visible="true" />
    <inkscape:path-effect
       fuse_tolerance="0"
       vertical_pattern="false"
       prop_units="false"
       tang_offset="0"
       normal_offset="0"
       spacing="0"
       scale_y_rel="false"
       prop_scale="1"
       copytype="single_stretched"
       pattern="m 296.07525,-38.396969 c 0,-2.76 2.24,-5 5,-5 2.76,0 5,2.24 5,5 0,2.76 -2.24,5 -5,5 -2.76,0 -5,-2.24 -5,-5 z"
       is_visible="true"
       id="path-effect3833"
       effect="skeletal" />
    <inkscape:path-effect
       is_visible="true"
       id="path-effect3831"
       effect="spiro" />
    <inkscape:path-effect
       effect="skeletal"
       id="path-effect3792"
       is_visible="true"
       pattern="m 21512.761,-805.67979 c 0,-2.76 2.24,-5 5,-5 2.76,0 5,2.24 5,5 0,2.76 -2.24,5 -5,5 -2.76,0 -5,-2.24 -5,-5 z"
       copytype="single_stretched"
       prop_scale="1"
       scale_y_rel="false"
       spacing="0"
       normal_offset="0"
       tang_offset="0"
       prop_units="false"
       vertical_pattern="false"
       fuse_tolerance="0" />
    <inkscape:path-effect
       effect="spiro"
       id="path-effect3790"
       is_visible="true" />
    <inkscape:path-effect
       effect="spiro"
       id="path-effect3790-1"
       is_visible="true" />
    <inkscape:path-effect
       effect="skeletal"
       id="path-effect3792-7"
       is_visible="true"
       pattern="m -1481.0713,-2441.1726 c 0,-2.76 2.24,-5 5,-5 2.76,0 5,2.24 5,5 0,2.76 -2.24,5 -5,5 -2.76,0 -5,-2.24 -5,-5 z"
       copytype="single_stretched"
       prop_scale="1"
       scale_y_rel="false"
       spacing="0"
       normal_offset="0"
       tang_offset="0"
       prop_units="false"
       vertical_pattern="false"
       fuse_tolerance="0" />
  </defs>
  <sodipodi:namedview
     id="base"
     pagecolor="#ffffff"
     bordercolor="#666666"
     borderopacity="1.0"
     inkscape:pageopacity="0.0"
     inkscape:pageshadow="2"
     inkscape:zoom="0.5"
     inkscape:cx="61.91875"
     inkscape:cy="151.26842"
     inkscape:document-units="px"
     inkscape:current-layer="layer1"
     showgrid="false"
     showborder="false"
     inkscape:window-width="1920"
     inkscape:window-height="1017"
     inkscape:window-x="-8"
     inkscape:window-y="-8"
     inkscape:window-maximized="1" />
  <metadata
     id="metadata7">
    <rdf:RDF>
      <cc:Work
         rdf:about="">
        <dc:format>image/svg+xml</dc:format>
        <dc:type
           rdf:resource="http://purl.org/dc/dcmitype/StillImage" />
        <dc:title />
      </cc:Work>
    </rdf:RDF>
  </metadata>
  <g
     inkscape:label="Layer 1"
     inkscape:groupmode="layer"
     id="layer1">
    <circle
       style="color:#000000;display:inline;overflow:visible;visibility:visible;fill:none;stroke:#37c8ab;stroke-width:21.33333397;stroke-linecap:round;stroke-linejoin:round;stroke-miterlimit:4;stroke-dasharray:none;stroke-opacity:1;marker:none;enable-background:accumulate"
       id="path3753"
       cx="213.31886"
       cy="1273.5913"
       r="180.00526" />
    <path
       style="color:#000000;display:inline;overflow:visible;visibility:visible;fill:#ffdd55;fill-opacity:1;fill-rule:nonzero;stroke:none;stroke-width:10.66666698;marker:none;enable-background:accumulate"
       d="m 193.5805,1165.0675 c -0.12104,-0.016 -0.24749,-0.014 -0.33625,0.042 -0.70346,0.3903 -0.18293,2.8387 1.00877,6.9775 1.19305,4.1387 3.01557,10.0328 4.62423,17.4855 0.55415,2.5709 1.09756,5.3105 1.55487,8.2384 -2.09422,-3.5725 -4.7695,-7.0392 -7.98547,-10.2559 -9.20947,-9.2096 -20.57232,-13.9559 -30.01178,-13.4504 -0.20982,9.2798 4.49511,20.2995 13.45036,29.2545 7.96799,7.9682 17.58768,12.5489 26.14479,13.3242 0.1345,10.0176 -0.87831,21.107 -3.86698,32.407 -0.26631,0.9993 -0.58778,2.0984 -0.88369,3.1523 -1.50643,-7.6891 -5.9195,-15.9238 -12.90292,-22.9077 -9.20945,-9.2094 -20.57231,-13.9557 -30.01177,-13.4503 -0.20982,9.28 4.49511,20.2997 13.45035,29.2545 8.47373,8.473 18.79552,13.1471 27.74135,13.4504 -0.30263,1.2639 -0.54743,2.6002 -0.79895,3.9512 -0.65369,3.8558 -0.96573,7.7146 -0.96573,11.6009 0,2.4814 0.12105,4.9531 0.33626,7.3555 -2.17358,-3.9293 -5.05196,-7.7836 -8.57461,-11.3067 -9.20945,-9.2093 -20.57231,-13.9557 -30.01176,-13.4504 -0.20983,9.28 4.53814,20.2998 13.49204,29.2545 8.67548,8.675 19.28108,13.3966 28.37217,13.4925 0.32147,1.2375 0.6268,2.458 0.96708,3.6568 1.87229,6.8985 3.92481,13.2978 5.58997,19.2929 1.04105,3.7468 1.91398,7.3107 2.60667,10.7603 -2.17356,-6.0636 -6.03516,-12.2135 -11.43279,-17.6116 -9.20946,-9.2094 -20.57232,-13.9558 -30.01177,-13.4504 -0.20983,9.2799 4.49511,20.2996 13.45036,29.2545 9.06284,9.0622 20.24277,13.7825 29.59077,13.4504 0.29994,4.394 0.26228,8.5676 0,12.3576 -0.36989,5.3617 -1.16884,10.0346 -1.93282,13.8705 -0.76532,3.836 -1.48895,6.8219 -1.89246,8.953 -0.40217,2.1311 -0.45597,3.4041 0.0403,3.6567 0.49901,0.2527 1.51854,-0.5346 2.90124,-2.3116 1.3827,-1.777 3.13527,-4.5742 4.87575,-8.4066 1.73913,-3.8323 3.43521,-8.708 4.66458,-14.5431 0.86216,-4.0869 1.47146,-8.6405 1.63959,-13.5765 8.77636,-0.5238 18.73903,-5.2044 26.98544,-13.4504 8.95524,-8.9549 13.70188,-19.9745 13.49206,-29.2545 -9.43946,-0.5052 -20.80232,4.241 -30.01177,13.4504 -5.07347,5.0743 -8.82209,10.8125 -11.0535,16.5187 -0.48287,-4.1067 -1.19171,-8.3023 -2.1023,-12.5676 -1.37462,-6.4416 -3.12585,-13.0291 -4.74931,-19.6711 -0.0269,-0.1252 -0.0538,-0.2527 -0.0807,-0.3784 9.04267,-0.1666 19.55413,-4.8851 28.16101,-13.4925 8.95524,-8.9551 13.66017,-19.9744 13.45034,-29.2545 -9.43811,-0.5051 -20.80097,4.2411 -30.01042,13.4504 -7.0843,7.0847 -11.50274,15.4603 -12.94596,23.2439 -1.33562,-6.3922 -2.39954,-12.8906 -2.43855,-19.2927 -0.0134,-3.1897 0.20579,-6.3031 0.75726,-9.2893 0.33222,-2.0254 0.83795,-4.1386 1.38673,-6.3048 8.79652,-0.4988 18.79686,-5.136 27.06883,-13.4084 8.95524,-8.9549 13.70187,-19.9745 13.49204,-29.2545 -9.43811,-0.5053 -20.80097,4.241 -30.01042,13.4503 -2.48293,2.4834 -4.65382,5.0992 -6.47365,7.8182 0.63216,-6.5136 0.68327,-12.7915 0.29456,-18.7045 8.95659,-0.2897 19.25552,-4.9221 27.74134,-13.4082 8.95526,-8.9552 13.70188,-19.9747 13.49206,-29.2545 -9.43812,-0.5054 -20.80097,4.2408 -30.01042,13.4503 -6.09167,6.0915 -10.23168,13.1206 -12.19006,19.9232 -1.2576,-8.4456 -3.35855,-15.8704 -5.67336,-22.0249 -2.88241,-7.6618 -6.10242,-13.3885 -8.65934,-17.065 -2.23679,-3.2172 -3.92481,-4.8929 -4.791,-5.0019 z"
       id="path3813"
       inkscape:connector-curvature="0" />
    <g
       transform="matrix(1.0920324,-0.6304852,0.6304852,1.0920324,-904.36208,261.64443)"
       id="g3943">
      <path
         style="color:#000000;display:inline;overflow:visible;visibility:visible;fill:#ffdd55;fill-opacity:1;fill-rule:nonzero;stroke:none;stroke-width:10.66666698;marker:none;enable-background:accumulate"
         d="m 535.21216,1190.871 c -0.096,-0.013 -0.19627,-0.011 -0.26667,0.033 -0.55786,0.3096 -0.14506,2.2512 0.8,5.5334 0.94614,3.2822 2.39147,7.9564 3.6672,13.8667 0.43947,2.0388 0.8704,4.2114 1.23307,6.5333 -1.6608,-2.833 -3.7824,-5.5822 -6.3328,-8.1333 -7.30347,-7.3036 -16.31467,-11.0675 -23.80053,-10.6667 -0.1664,7.3593 3.5648,16.0984 10.66666,23.2 6.31894,6.3192 13.94774,9.9518 20.73387,10.5667 0.10667,7.9443 -0.69653,16.7386 -3.06667,25.7 -0.2112,0.7924 -0.46613,1.6641 -0.7008,2.5 -1.19466,-6.0979 -4.6944,-12.6283 -10.23253,-18.1668 -7.30347,-7.3034 -16.31467,-11.0675 -23.80053,-10.6666 -0.1664,7.3593 3.5648,16.0984 10.66666,23.2 6.72,6.7194 14.9056,10.4261 22,10.6666 -0.24,1.0024 -0.43413,2.0621 -0.6336,3.1335 -0.5184,3.0578 -0.76586,6.1181 -0.76586,9.2 0,1.9679 0.096,3.928 0.26666,5.8333 -1.72373,-3.1162 -4.0064,-6.1728 -6.8,-8.9668 -7.30346,-7.3033 -16.31466,-11.0674 -23.80053,-10.6666 -0.1664,7.3593 3.59893,16.0984 10.69973,23.2 6.88,6.8795 15.29067,10.624 22.50027,10.7 0.25493,0.9814 0.49707,1.9494 0.76693,2.9 1.4848,5.4708 3.11254,10.5457 4.43307,15.3 0.8256,2.9714 1.51787,5.7977 2.0672,8.5334 -1.72373,-4.8087 -4.78613,-9.6858 -9.06667,-13.9668 -7.30346,-7.3033 -16.31466,-11.0674 -23.80053,-10.6666 -0.1664,7.3593 3.5648,16.0984 10.66667,23.2 7.1872,7.1866 16.05333,10.9301 23.46666,10.6666 0.23787,3.4847 0.208,6.7946 0,9.8001 -0.29333,4.2521 -0.92693,7.9579 -1.5328,10.9999 -0.60693,3.0421 -1.1808,5.4101 -1.5008,7.1001 -0.31893,1.69 -0.3616,2.6996 0.032,2.8999 0.39574,0.2005 1.20427,-0.424 2.3008,-1.8332 1.09654,-1.4092 2.4864,-3.6276 3.86667,-6.6667 1.3792,-3.0392 2.72427,-6.9058 3.6992,-11.5333 0.68373,-3.2411 1.16693,-6.8523 1.30027,-10.7668 6.96,-0.4153 14.8608,-4.1272 21.40053,-10.6666 7.10187,-7.1016 10.86613,-15.8406 10.69973,-23.2 -7.48586,-0.4007 -16.49706,3.3633 -23.80053,10.6666 -4.02347,4.0243 -6.99627,8.5749 -8.76587,13.1001 -0.38293,-3.2568 -0.94506,-6.5841 -1.6672,-9.9666 -1.09013,-5.1085 -2.47893,-10.3326 -3.7664,-15.6 -0.0213,-0.099 -0.0427,-0.2004 -0.064,-0.3001 7.1712,-0.1321 15.5072,-3.8741 22.3328,-10.7 7.10187,-7.1018 10.83307,-15.8406 10.66667,-23.2 -7.4848,-0.4007 -16.496,3.3633 -23.79947,10.6666 -5.61813,5.6185 -9.12213,12.2607 -10.26666,18.4334 -1.0592,-5.0693 -1.90294,-10.2228 -1.93387,-15.2999 -0.0107,-2.5296 0.1632,-4.9986 0.60053,-7.3667 0.26347,-1.6063 0.66454,-3.2822 1.09974,-5 6.976,-0.3956 14.90666,-4.0731 21.46666,-10.6334 7.10187,-7.1017 10.86614,-15.8407 10.69974,-23.2 -7.4848,-0.4008 -16.496,3.3633 -23.79947,10.6666 -1.96907,1.9694 -3.69067,4.0439 -5.13387,6.2001 0.50134,-5.1655 0.54187,-10.1442 0.2336,-14.8333 7.10294,-0.2298 15.2704,-3.9035 22,-10.6333 7.10187,-7.1019 10.86614,-15.8408 10.69974,-23.2 -7.4848,-0.4008 -16.496,3.3632 -23.79947,10.6666 -4.83093,4.8308 -8.11413,10.4052 -9.6672,15.7999 -0.99733,-6.6977 -2.66347,-12.5858 -4.4992,-17.4666 -2.28587,-6.0761 -4.83947,-10.6176 -6.8672,-13.5333 -1.77387,-2.5513 -3.11253,-3.8802 -3.79947,-3.9667 z"
         id="path3945"
         inkscape:connector-curvature="0" />
    </g>
    <g
       id="g3947"
       transform="matrix(-1.0920324,-0.6304852,-0.6304852,1.0920324,2056.1628,261.64441)">
      <path
         inkscape:connector-curvature="0"
         id="path3949"
         d="m 535.21216,1190.871 c -0.096,-0.013 -0.19627,-0.011 -0.26667,0.033 -0.55786,0.3096 -0.14506,2.2512 0.8,5.5334 0.94614,3.2822 2.39147,7.9564 3.6672,13.8667 0.43947,2.0388 0.8704,4.2114 1.23307,6.5333 -1.6608,-2.833 -3.7824,-5.5822 -6.3328,-8.1333 -7.30347,-7.3036 -16.31467,-11.0675 -23.80053,-10.6667 -0.1664,7.3593 3.5648,16.0984 10.66666,23.2 6.31894,6.3192 13.94774,9.9518 20.73387,10.5667 0.10667,7.9443 -0.69653,16.7386 -3.06667,25.7 -0.2112,0.7924 -0.46613,1.6641 -0.7008,2.5 -1.19466,-6.0979 -4.6944,-12.6283 -10.23253,-18.1668 -7.30347,-7.3034 -16.31467,-11.0675 -23.80053,-10.6666 -0.1664,7.3593 3.5648,16.0984 10.66666,23.2 6.72,6.7194 14.9056,10.4261 22,10.6666 -0.24,1.0024 -0.43413,2.0621 -0.6336,3.1335 -0.5184,3.0578 -0.76586,6.1181 -0.76586,9.2 0,1.9679 0.096,3.928 0.26666,5.8333 -1.72373,-3.1162 -4.0064,-6.1728 -6.8,-8.9668 -7.30346,-7.3033 -16.31466,-11.0674 -23.80053,-10.6666 -0.1664,7.3593 3.59893,16.0984 10.69973,23.2 6.88,6.8795 15.29067,10.624 22.50027,10.7 0.25493,0.9814 0.49707,1.9494 0.76693,2.9 1.4848,5.4708 3.11254,10.5457 4.43307,15.3 0.8256,2.9714 1.51787,5.7977 2.0672,8.5334 -1.72373,-4.8087 -4.78613,-9.6858 -9.06667,-13.9668 -7.30346,-7.3033 -16.31466,-11.0674 -23.80053,-10.6666 -0.1664,7.3593 3.5648,16.0984 10.66667,23.2 7.1872,7.1866 16.05333,10.9301 23.46666,10.6666 0.23787,3.4847 0.208,6.7946 0,9.8001 -0.29333,4.2521 -0.92693,7.9579 -1.5328,10.9999 -0.60693,3.0421 -1.1808,5.4101 -1.5008,7.1001 -0.31893,1.69 -0.3616,2.6996 0.032,2.8999 0.39574,0.2005 1.20427,-0.424 2.3008,-1.8332 1.09654,-1.4092 2.4864,-3.6276 3.86667,-6.6667 1.3792,-3.0392 2.72427,-6.9058 3.6992,-11.5333 0.68373,-3.2411 1.16693,-6.8523 1.30027,-10.7668 6.96,-0.4153 14.8608,-4.1272 21.40053,-10.6666 7.10187,-7.1016 10.86613,-15.8406 10.69973,-23.2 -7.48586,-0.4007 -16.49706,3.3633 -23.80053,10.6666 -4.02347,4.0243 -6.99627,8.5749 -8.76587,13.1001 -0.38293,-3.2568 -0.94506,-6.5841 -1.6672,-9.9666 -1.09013,-5.1085 -2.47893,-10.3326 -3.7664,-15.6 -0.0213,-0.099 -0.0427,-0.2004 -0.064,-0.3001 7.1712,-0.1321 15.5072,-3.8741 22.3328,-10.7 7.10187,-7.1018 10.83307,-15.8406 10.66667,-23.2 -7.4848,-0.4007 -16.496,3.3633 -23.79947,10.6666 -5.61813,5.6185 -9.12213,12.2607 -10.26666,18.4334 -1.0592,-5.0693 -1.90294,-10.2228 -1.93387,-15.2999 -0.0107,-2.5296 0.1632,-4.9986 0.60053,-7.3667 0.26347,-1.6063 0.66454,-3.2822 1.09974,-5 6.976,-0.3956 14.90666,-4.0731 21.46666,-10.6334 7.10187,-7.1017 10.86614,-15.8407 10.69974,-23.2 -7.4848,-0.4008 -16.496,3.3633 -23.79947,10.6666 -1.96907,1.9694 -3.69067,4.0439 -5.13387,6.2001 0.50134,-5.1655 0.54187,-10.1442 0.2336,-14.8333 7.10294,-0.2298 15.2704,-3.9035 22,-10.6333 7.10187,-7.1019 10.86614,-15.8408 10.69974,-23.2 -7.4848,-0.4008 -16.496,3.3632 -23.79947,10.6666 -4.83093,4.8308 -8.11413,10.4052 -9.6672,15.7999 -0.99733,-6.6977 -2.66347,-12.5858 -4.4992,-17.4666 -2.28587,-6.0761 -4.83947,-10.6176 -6.8672,-13.5333 -1.77387,-2.5513 -3.11253,-3.8802 -3.79947,-3.9667 z"
         style="color:#000000;display:inline;overflow:visible;visibility:visible;fill:#ffdd55;fill-opacity:1;fill-rule:nonzero;stroke:none;stroke-width:10.66666698;marker:none;enable-background:accumulate" />
    </g>
  </g>
</svg>
