<?xml version="1.0" encoding="UTF-8" standalone="no"?>
<!-- Created with Inkscape (http://www.inkscape.org/) -->

<svg
   xmlns:dc="http://purl.org/dc/elements/1.1/"
   xmlns:cc="http://creativecommons.org/ns#"
   xmlns:rdf="http://www.w3.org/1999/02/22-rdf-syntax-ns#"
   xmlns:svg="http://www.w3.org/2000/svg"
   xmlns="http://www.w3.org/2000/svg"
   xmlns:sodipodi="http://sodipodi.sourceforge.net/DTD/sodipodi-0.dtd"
   xmlns:inkscape="http://www.inkscape.org/namespaces/inkscape"
   width="1316.7437"
   height="1487.0535"
   viewBox="0 0 1316.7437 1487.0535"
   id="svg4740"
   version="1.1"
   inkscape:version="0.91 r13725"
   inkscape:export-filename="C:\Users\Brayan\Desktop\path4715.png"
   inkscape:export-xdpi="35.869999"
   inkscape:export-ydpi="35.869999"
   sodipodi:docname="Flower.svg">
  <defs
     id="defs4742">
    <filter
       inkscape:collect="always"
       style="color-interpolation-filters:sRGB"
       id="filter4668"
       x="-0.12"
       width="1.24"
       y="-0.12"
       height="1.24">
      <feGaussianBlur
         inkscape:collect="always"
         stdDeviation="24.324474"
         id="feGaussianBlur4670" />
    </filter>
  </defs>
  <sodipodi:namedview
     id="base"
     pagecolor="#ffffff"
     bordercolor="#666666"
     borderopacity="1.0"
     inkscape:pageopacity="1"
     inkscape:pageshadow="2"
     inkscape:zoom="0.24748737"
     inkscape:cx="-241.11513"
     inkscape:cy="477.81188"
     inkscape:document-units="px"
     inkscape:current-layer="layer1"
     showgrid="false"
     units="px"
     fit-margin-top="16"
     fit-margin-left="16"
     fit-margin-right="16"
     fit-margin-bottom="16"
     inkscape:window-width="1366"
     inkscape:window-height="705"
     inkscape:window-x="-8"
     inkscape:window-y="-8"
     inkscape:window-maximized="1" />
  <metadata
     id="metadata4745">
    <rdf:RDF>
      <cc:Work
         rdf:about="">
        <dc:format>image/svg+xml</dc:format>
        <dc:type
           rdf:resource="http://purl.org/dc/dcmitype/StillImage" />
        <dc:title></dc:title>
      </cc:Work>
    </rdf:RDF>
  </metadata>
  <g
     inkscape:label="Layer 1"
     inkscape:groupmode="layer"
     id="layer1"
     transform="translate(384.08609,474.02164)">
    <path
       inkscape:connector-curvature="0"
       id="path4715"
       d="m 617.51444,-410.13986 a 358.41602,358.41602 0 0 0 -473.826,106.76371 358.41602,358.41602 0 0 0 -463.89301,144.4974 358.41602,358.41602 0 0 0 106.76301,473.82489 A 358.41602,358.41602 0 0 0 -68.943564,778.83996 358.41602,358.41602 0 0 0 404.88244,672.07606 358.41602,358.41602 0 0 0 868.77641,527.57867 358.41602,358.41602 0 0 0 762.01241,53.754085 358.41602,358.41602 0 0 0 617.51444,-410.13986 Z"
       style="opacity:1;fill:#ffaaaa;fill-opacity:1;stroke:none;stroke-width:8;stroke-miterlimit:4;stroke-dasharray:none;stroke-opacity:1" />
    <ellipse
       style="opacity:1;fill:#37c871;fill-opacity:1;stroke:none;stroke-width:8;stroke-miterlimit:4;stroke-dasharray:none;stroke-opacity:1"
       id="ellipse4564"
       cx="223.12404"
       cy="-909.34119"
       rx="400.66519"
       ry="77.26326"
       transform="matrix(-0.5,0.8660254,-0.8660254,-0.5,0,0)" />
    <path
       inkscape:connector-curvature="0"
       style="opacity:1;fill:#5cd28b;fill-opacity:1;stroke:none;stroke-width:8;stroke-miterlimit:4;stroke-dasharray:none;stroke-opacity:1"
       d="M 497.98551,922.07532 A 63.38151,328.67842 30 0 0 705.49364,667.87718 63.38151,328.67842 30 0 0 814.94293,351.5436 63.38151,328.67842 30 0 0 785.39608,358.5367 77.263261,400.6652 30 0 0 609.03831,609.26984 77.263261,400.6652 30 0 0 477.48908,895.9601 a 63.38151,328.67842 30 0 0 8.77509,24.87006 63.38151,328.67842 30 0 0 11.72134,1.24516 z"
       id="path4566" />
    <circle
       style="opacity:0.58899997;fill:#000000;fill-opacity:1;stroke:none;stroke-width:8;stroke-miterlimit:4;stroke-dasharray:none;stroke-opacity:1;filter:url(#filter4668)"
       id="path4590"
       cx="577.87183"
       cy="391.43076"
       r="243.24474" />
    <path
       style="opacity:1;fill:#ff5555;fill-opacity:1;stroke:none;stroke-width:8;stroke-miterlimit:4;stroke-dasharray:none;stroke-opacity:1"
       d="m 561.94544,-313.89185 a 300.38843,300.38843 0 0 0 -397.113,89.4786 300.38843,300.38843 0 0 0 -388.789,121.10325 300.38843,300.38843 0 0 0 89.478,397.11262 A 300.38843,300.38843 0 0 0 -13.374564,682.59206 300.38843,300.38843 0 0 0 383.73844,593.11316 300.38843,300.38843 0 0 0 772.52841,472.00992 300.38843,300.38843 0 0 0 683.04941,74.897585 300.38843,300.38843 0 0 0 561.94544,-313.89185 Z"
       id="path4530"
       inkscape:connector-curvature="0" />
    <circle
       style="opacity:1;fill:#ff9a9a;fill-opacity:1;stroke:none;stroke-width:8;stroke-miterlimit:4;stroke-dasharray:none;stroke-opacity:1"
       id="path4539"
       cx="329.71323"
       cy="22.508539"
       r="249.47514"
       transform="matrix(0.8660254,0.5,-0.5,0.8660254,0,0)" />
    <ellipse
       transform="matrix(-0.8660254,-0.5,-0.5,0.8660254,0,0)"
       ry="77.26326"
       rx="400.66519"
       cy="599.12378"
       cx="-533.34143"
       id="ellipse4558"
       style="opacity:1;fill:#37c871;fill-opacity:1;stroke:none;stroke-width:8;stroke-miterlimit:4;stroke-dasharray:none;stroke-opacity:1" />
    <path
       id="path4560"
       d="m -128.88375,637.06829 a 328.67842,63.38151 30 0 1 306.80639,116.38798 328.67842,63.38151 30 0 1 252.95265,219.22827 328.67842,63.38151 30 0 1 -29.08487,8.71721 400.6652,77.263261 30 0 1 -278.09688,-128.96238 400.6652,77.263261 30 0 1 -257.2701,-182.50643 328.67842,63.38151 30 0 1 -4.83558,-25.92564 328.67842,63.38151 30 0 1 9.52839,-6.93901 z"
       style="opacity:1;fill:#5cd28b;fill-opacity:1;stroke:none;stroke-width:8;stroke-miterlimit:4;stroke-dasharray:none;stroke-opacity:1"
       inkscape:connector-curvature="0" />
    <path
       inkscape:connector-curvature="0"
       style="opacity:1;fill:#ffafaf;fill-opacity:1;stroke:none;stroke-width:8;stroke-miterlimit:4;stroke-dasharray:none;stroke-opacity:1"
       d="M 262.51644,-64.847035 A 249.47514,249.47514 0 0 0 58.233436,59.611955 249.47514,249.47514 0 0 0 149.54744,400.40102 a 249.47514,249.47514 0 0 0 59.035,24.46289 249.47514,249.47514 0 0 1 -54.181,-314.33984 249.47514,249.47514 0 0 1 281.754,-115.7773446 249.47514,249.47514 0 0 0 -37.131,-26.4492204 249.47514,249.47514 0 0 0 -136.508,-33.14454 z"
       id="circle4710" />
  </g>
</svg>
