<?xml version="1.0" encoding="UTF-8" standalone="no"?>
<!-- Created with Inkscape (http://www.inkscape.org/) -->

<svg
   xmlns:dc="http://purl.org/dc/elements/1.1/"
   xmlns:cc="http://creativecommons.org/ns#"
   xmlns:rdf="http://www.w3.org/1999/02/22-rdf-syntax-ns#"
   xmlns:svg="http://www.w3.org/2000/svg"
   xmlns="http://www.w3.org/2000/svg"
   xmlns:sodipodi="http://sodipodi.sourceforge.net/DTD/sodipodi-0.dtd"
   xmlns:inkscape="http://www.inkscape.org/namespaces/inkscape"
   width="1578.5083"
   height="1578.5087"
   viewBox="0 0 1578.5083 1578.5087"
   id="svg4592"
   version="1.1"
   inkscape:version="0.91 r13725"
   inkscape:export-filename="C:\Users\brayan.bedritchuk\Desktop\rect4514.png"
   inkscape:export-xdpi="29.190001"
   inkscape:export-ydpi="29.190001"
   sodipodi:docname="Abstract Circle.svg">
  <defs
     id="defs4594" />
  <sodipodi:namedview
     id="base"
     pagecolor="#ffffff"
     bordercolor="#666666"
     borderopacity="1.0"
     inkscape:pageopacity="1"
     inkscape:pageshadow="2"
     inkscape:zoom="0.35"
     inkscape:cx="741.397"
     inkscape:cy="789.25451"
     inkscape:document-units="px"
     inkscape:current-layer="layer1"
     showgrid="false"
     units="px"
     fit-margin-top="32"
     fit-margin-left="32"
     fit-margin-right="32"
     fit-margin-bottom="32"
     inkscape:window-width="1680"
     inkscape:window-height="987"
     inkscape:window-x="-8"
     inkscape:window-y="-8"
     inkscape:window-maximized="1" />
  <metadata
     id="metadata4597">
    <rdf:RDF>
      <cc:Work
         rdf:about="">
        <dc:format>image/svg+xml</dc:format>
        <dc:type
           rdf:resource="http://purl.org/dc/dcmitype/StillImage" />
        <dc:title></dc:title>
      </cc:Work>
    </rdf:RDF>
  </metadata>
  <g
     inkscape:label="Layer 1"
     inkscape:groupmode="layer"
     id="layer1"
     transform="translate(829.25414,256.89196)">
    <path
       style="opacity:1;fill:#ff9955;fill-opacity:1;stroke:none;stroke-width:15;stroke-miterlimit:4;stroke-dasharray:none;stroke-opacity:1"
       d="m -203.21022,-224.89196 c -0.14817,0 -0.26716,0.11896 -0.26716,0.2672 l 0,146.880927 -73.44049,-127.202477 c -0.074,-0.12838 -0.23627,-0.17159 -0.36464,-0.0975 l -282.68913,163.210178 c -0.12838,0.07417 -0.17165,0.236285 -0.0975,0.364667 l 73.44049,127.202472 -127.20252,-73.440458 c -0.12837,-0.07408 -0.29056,-0.03089 -0.36464,0.09747 L -777.40602,295.07971 c -0.074,0.12838 -0.031,0.29054 0.0975,0.36467 l 127.20252,73.44047 -146.88098,0 c -0.14825,0 -0.26716,0.11896 -0.26716,0.26719 l 0,326.42038 c 0,0.14825 0.11891,0.26716 0.26716,0.26716 l 146.88098,0 -127.20252,73.44049 c -0.12837,0.074 -0.17157,0.23627 -0.0975,0.36464 l 163.21022,282.68749 c 0.074,0.1284 0.23627,0.1733 0.36464,0.099 l 127.20252,-73.44038 -73.44049,127.20248 c -0.074,0.1283 -0.031,0.2905 0.0975,0.3646 l 282.68913,163.2101 c 0.12837,0.074 0.29056,0.031 0.36464,-0.097 l 73.44049,-127.2024 0,146.8808 c 0,0.1483 0.11899,0.2673 0.26716,0.2673 l 326.42044,0 c 0.14817,0 0.26716,-0.119 0.26716,-0.2673 l 0,-146.8808 73.44049,127.2024 c 0.074,0.1283 0.23627,0.1715 0.36464,0.097 l 282.6875,-163.2101 c 0.12837,-0.074 0.17328,-0.2363 0.0991,-0.3646 l -73.44049,-127.20248 127.20252,73.44038 c 0.12837,0.074 0.29056,0.029 0.36464,-0.099 L 697.40602,769.64471 c 0.074,-0.12837 0.031,-0.29056 -0.0975,-0.36464 L 570.106,695.83958 l 146.88098,0 c 0.14825,0 0.26716,-0.11891 0.26716,-0.26716 l 0,-326.42038 c 0,-0.14823 -0.11891,-0.26719 -0.26716,-0.26719 l -146.88098,0 127.20252,-73.44047 c 0.12837,-0.0741 0.17157,-0.23629 0.0975,-0.36467 L 534.1958,12.390556 c -0.074,-0.128381 -0.23627,-0.171591 -0.36464,-0.09747 L 406.62864,85.733547 480.06913,-41.468925 c 0.074,-0.128382 0.0293,-0.290542 -0.0991,-0.364667 L 197.28251,-205.04377 c -0.12837,-0.0741 -0.29056,-0.0309 -0.36464,0.0975 l -73.44049,127.202477 0,-146.880927 c 0,-0.14824 -0.11899,-0.2672 -0.26716,-0.2672 l -326.42044,0 z"
       id="rect4514"
       inkscape:connector-curvature="0" />
    <path
       style="opacity:1;fill:#ffffff;fill-opacity:1;stroke:none;stroke-width:15;stroke-miterlimit:4;stroke-dasharray:none;stroke-opacity:1"
       d="M 57.203392,95.702183 -39.790491,531.28825 34.723446,91.299109 -59.125219,85.422304 -40.07933,531.20061 -81.978923,86.988813 -174.15005,105.60229 -40.365759,531.29757 -195.81958,113.02936 l -84.21417,41.83472 239.390596,376.54296 -258.398286,-363.76087 -70.51674,62.20554 328.718423,301.77917 -343.771333,-284.5128 -52.0124,78.3379 395.58386,206.39755 -405.65553,-185.8233 -29.9654,89.13018 435.53162,96.9814 -439.93475,-74.50133 -5.87615,93.84696 445.840153,-19.04967 -444.276023,41.90457 18.61525,92.17172 425.653116,-133.77194 -418.227706,155.44078 41.83687,84.21297 376.574963,-239.41188 -363.793443,258.42137 62.20616,70.51502 301.73295,-328.66571 -284.46656,343.71862 78.33741,52.01403 206.411105,-395.61323 -185.836955,405.6849 89.13019,29.96549 96.987258,-435.56557 -74.508858,439.9681 93.849265,5.87512 L -39.921187,533.51418 1.9784101,977.73731 94.149538,959.12386 -39.640866,533.41326 115.81915,951.69682 200.03324,909.8621 -39.355039,533.32367 219.04256,897.08058 289.55767,834.87443 -39.147078,533.10555 304.61109,817.6064 356.62452,739.2707 -38.970006,532.86576 366.69455,718.69587 396.66004,629.5657 -38.866413,532.58604 401.06481,607.08622 406.93984,513.23702 -38.883277,532.28675 405.37528,490.38381 386.76175,398.2127 -38.903497,531.98625 379.33454,376.54326 337.49766,292.33026 -39.057166,531.72804 324.71614,273.32077 262.50999,202.80577 -39.235442,531.48621 245.24428,187.75111 166.90618,135.73887 -39.498124,531.33729 146.33358,125.6677 57.203392,95.702183 Z"
       id="path4251"
       inkscape:connector-curvature="0" />
  </g>
</svg>
