<?xml version="1.0" encoding="UTF-8" standalone="no"?>
<!-- Created with Inkscape (http://www.inkscape.org/) -->

<svg
   xmlns:dc="http://purl.org/dc/elements/1.1/"
   xmlns:cc="http://creativecommons.org/ns#"
   xmlns:rdf="http://www.w3.org/1999/02/22-rdf-syntax-ns#"
   xmlns:svg="http://www.w3.org/2000/svg"
   xmlns="http://www.w3.org/2000/svg"
   xmlns:sodipodi="http://sodipodi.sourceforge.net/DTD/sodipodi-0.dtd"
   xmlns:inkscape="http://www.inkscape.org/namespaces/inkscape"
   width="328"
   height="328.00089"
   viewBox="0 0 328 328.00089"
   id="svg2"
   version="1.1"
   inkscape:version="0.91 r13725"
   inkscape:export-filename="C:\Users\brayan.bedritchuk\Desktop\path4308.png"
   inkscape:export-xdpi="140.49001"
   inkscape:export-ydpi="140.49001"
   sodipodi:docname="Material Landscape.svg">
  <defs
     id="defs4">
    <filter
       inkscape:collect="always"
       style="color-interpolation-filters:sRGB"
       id="filter4304"
       x="-0.14040001"
       width="1.2808"
       y="-0.14040001"
       height="1.2808">
      <feGaussianBlur
         inkscape:collect="always"
         stdDeviation="2.106"
         id="feGaussianBlur4306" />
    </filter>
  </defs>
  <sodipodi:namedview
     id="base"
     pagecolor="#ffffff"
     bordercolor="#666666"
     borderopacity="1.0"
     inkscape:pageopacity="1"
     inkscape:pageshadow="2"
     inkscape:zoom="1"
     inkscape:cx="32.842979"
     inkscape:cy="163.02291"
     inkscape:document-units="px"
     inkscape:current-layer="layer1"
     showgrid="false"
     showborder="true"
     inkscape:snap-object-midpoints="false"
     inkscape:object-paths="true"
     inkscape:snap-intersection-paths="true"
     inkscape:object-nodes="true"
     inkscape:snap-smooth-nodes="true"
     inkscape:snap-nodes="false"
     units="px"
     fit-margin-top="16"
     fit-margin-left="16"
     fit-margin-right="16"
     fit-margin-bottom="16"
     inkscape:window-width="1680"
     inkscape:window-height="987"
     inkscape:window-x="-8"
     inkscape:window-y="-8"
     inkscape:window-maximized="1" />
  <metadata
     id="metadata7">
    <rdf:RDF>
      <cc:Work
         rdf:about="">
        <dc:format>image/svg+xml</dc:format>
        <dc:type
           rdf:resource="http://purl.org/dc/dcmitype/StillImage" />
        <dc:title></dc:title>
      </cc:Work>
    </rdf:RDF>
  </metadata>
  <g
     inkscape:label="Layer 1"
     inkscape:groupmode="layer"
     id="layer1"
     transform="translate(167,-319.36133)">
    <path
       style="opacity:1;fill:#2a8ce4;fill-opacity:1;stroke:none;stroke-width:5;stroke-linecap:round;stroke-linejoin:round;stroke-miterlimit:4;stroke-dasharray:none;stroke-opacity:1"
       d="m -3,335.36133 a 148,148 0 0 0 -148,148 l 296,0 a 148,148 0 0 0 -148,-148 z"
       id="circle4149"
       inkscape:connector-curvature="0" />
    <path
       style="fill:#2a8ce4;fill-opacity:1;fill-rule:evenodd;stroke:#2a8ce4;stroke-width:1px;stroke-linecap:butt;stroke-linejoin:miter;stroke-opacity:1"
       d="m -151,483.36221 296,0"
       id="path4308"
       inkscape:connector-curvature="0" />
    <path
       id="path4154"
       d="m -3,631.36221 a 148,148 0 0 1 -148,-148 l 296,0 a 148,148 0 0 1 -148,148 z"
       style="opacity:1;fill:#2b9bf4;fill-opacity:1;stroke:none;stroke-width:5;stroke-linecap:round;stroke-linejoin:round;stroke-miterlimit:4;stroke-dasharray:none;stroke-opacity:1"
       inkscape:connector-curvature="0" />
    <path
       style="opacity:0.053;fill:#000000;fill-rule:evenodd;stroke:none;stroke-width:1px;stroke-linecap:butt;stroke-linejoin:miter;stroke-opacity:1"
       d="m 0.99999999,352.36133 -5.49999999,17.5 -0.5,37 1,49.5 -19,28 -42.5,36.5 -35.5,20.5 -16.9386,15.73839 137.417116,72.35731 C 91.619297,618.37161 144.90762,556.3488 145,483.36133 c -0.0265,-9.27266 -0.92427,-18.52231 -2.68164,-27.62695 z"
       id="path4392"
       inkscape:connector-curvature="0"
       sodipodi:nodetypes="cccccccccccc" />
    <g
       id="g4164"
       transform="translate(137,-161.49997)">
      <rect
         y="689.36218"
         x="-147.552"
         height="59"
         width="15.104"
         id="rect4160"
         style="opacity:1;fill:#1b59ae;fill-opacity:1;stroke:none;stroke-width:5;stroke-linecap:round;stroke-linejoin:round;stroke-miterlimit:4;stroke-dasharray:none;stroke-opacity:1" />
      <rect
         transform="matrix(0,-1,1,0,0,0)"
         style="opacity:1;fill:#1b59ae;fill-opacity:1;stroke:none;stroke-width:5;stroke-linecap:round;stroke-linejoin:round;stroke-miterlimit:4;stroke-dasharray:none;stroke-opacity:1"
         id="rect4162"
         width="15.104"
         height="59"
         x="-726.41418"
         y="-169.5" />
    </g>
    <g
       id="g4354">
      <path
         inkscape:connector-curvature="0"
         id="path4352"
         d="m -32,393.36133 a 76,76 0 0 0 -76,76 76,76 0 0 0 24.53516,55.79687 L -10,482.74414 l 0,-86.10547 a 76,76 0 0 0 -22,-3.27734 z"
         style="opacity:1;fill:#ffa31c;fill-opacity:1;stroke:none;stroke-width:5;stroke-linecap:round;stroke-linejoin:round;stroke-miterlimit:4;stroke-dasharray:none;stroke-opacity:1" />
      <path
         inkscape:connector-curvature="0"
         id="path4346"
         d="m -32,415.44336 a 53.918919,53.918919 0 0 0 -53.91797,53.91797 53.918919,53.918919 0 0 0 22.84375,44.02539 L -10,482.74414 l 0,-62.56055 a 53.918919,53.918919 0 0 0 -22,-4.74023 z"
         style="opacity:1;fill:#ffc71e;fill-opacity:1;stroke:none;stroke-width:5;stroke-linecap:round;stroke-linejoin:round;stroke-miterlimit:4;stroke-dasharray:none;stroke-opacity:1" />
    </g>
    <g
       id="g4388"
       transform="translate(343.6539,259.50819)"
       style="fill:#e2e2e2;fill-opacity:1">
      <path
         id="circle4360"
         d="m -281.96289,170.99219 a 45.081394,45.081394 0 0 0 -45.08008,45.08008 45.081394,45.081394 0 0 0 3.80469,17.99414 l 47.88867,26.55859 a 45.081394,45.081394 0 0 0 38.46875,-44.55273 45.081394,45.081394 0 0 0 -45.08203,-45.08008 z"
         style="opacity:1;fill:#e2e2e2;fill-opacity:1;stroke:none;stroke-width:5;stroke-linecap:round;stroke-linejoin:round;stroke-miterlimit:4;stroke-dasharray:none;stroke-opacity:1"
         inkscape:connector-curvature="0" />
      <path
         id="path4376"
         d="m -337.22266,138.0293 a 53.806824,53.806824 0 0 0 -1.43164,0.0508 l 0,88.17383 c 1.49259,0.35727 3.07248,0.96596 4.62696,1.82812 l 21.15429,11.73242 a 53.806824,53.806824 0 0 0 29.45703,-47.97851 53.806824,53.806824 0 0 0 -53.80664,-53.80664 z"
         style="opacity:1;fill:#e2e2e2;fill-opacity:1;stroke:none;stroke-width:5;stroke-linecap:round;stroke-linejoin:round;stroke-miterlimit:4;stroke-dasharray:none;stroke-opacity:1"
         inkscape:connector-curvature="0" />
    </g>
    <path
       style="opacity:1;fill:#ffffff;fill-opacity:1;stroke:none;stroke-width:5;stroke-linecap:round;stroke-linejoin:round;stroke-miterlimit:4;stroke-dasharray:none;stroke-opacity:1"
       d="m -3,350.36133 c -4.432,0 -8,4.683 -8,10.5 l 0,120.88281 -104.68555,60.43945 c -5.03767,2.9085 -7.30975,8.33951 -5.09375,12.17774 2.216,3.83822 8.05608,4.58623 13.09375,1.67773 l 104.7890656,-60.5 c 2.09528739,-1.20971 3.70239717,-2.85807 4.7167969,-4.64453 0.634693,0.46499 1.318016,0.90978 2.0546875,1.31836 l 70.082031,38.86914 c 5.083711,2.81958 10.459157,2.95427 12.052735,0.30274 1.593577,-2.65154 -1.217071,-7.05543 -6.300782,-9.875 L 9.6269531,482.64062 C 8.0724728,481.77846 6.4925876,481.16977 5,480.8125 L 5,360.86133 c 0,-5.817 -3.568,-10.5 -8,-10.5 z"
       id="rect4175"
       inkscape:connector-curvature="0" />
    <circle
       r="18"
       cy="485.48264"
       cx="-3"
       id="circle4182"
       style="opacity:0.23699999;fill:#000000;fill-opacity:1;stroke:none;stroke-width:5;stroke-linecap:round;stroke-linejoin:round;stroke-miterlimit:4;stroke-dasharray:none;stroke-opacity:1;filter:url(#filter4304)" />
    <circle
       style="opacity:1;fill:#ffffff;fill-opacity:1;stroke:none;stroke-width:5;stroke-linecap:round;stroke-linejoin:round;stroke-miterlimit:4;stroke-dasharray:none;stroke-opacity:1"
       id="path4168"
       cx="-3"
       cy="483.36133"
       r="18" />
  </g>
</svg>
