<?xml version="1.0" encoding="UTF-8" standalone="no"?>
<!-- Created with Inkscape (http://www.inkscape.org/) -->

<svg
   xmlns:dc="http://purl.org/dc/elements/1.1/"
   xmlns:cc="http://creativecommons.org/ns#"
   xmlns:rdf="http://www.w3.org/1999/02/22-rdf-syntax-ns#"
   xmlns:svg="http://www.w3.org/2000/svg"
   xmlns="http://www.w3.org/2000/svg"
   xmlns:sodipodi="http://sodipodi.sourceforge.net/DTD/sodipodi-0.dtd"
   xmlns:inkscape="http://www.inkscape.org/namespaces/inkscape"
   width="744.09448819"
   height="1052.3622047"
   id="svg2"
   version="1.1"
   inkscape:version="0.48.5 r10040"
   sodipodi:docname="New document 1">
  <defs
     id="defs4">
    <inkscape:perspective
       sodipodi:type="inkscape:persp3d"
       inkscape:vp_x="0 : 526.18109 : 1"
       inkscape:vp_y="0 : 1000 : 0"
       inkscape:vp_z="744.09448 : 526.18109 : 1"
       inkscape:persp3d-origin="372.04724 : 350.78739 : 1"
       id="perspective3807" />
  </defs>
  <sodipodi:namedview
     id="base"
     pagecolor="#ffffff"
     bordercolor="#666666"
     borderopacity="1.0"
     inkscape:pageopacity="0.0"
     inkscape:pageshadow="2"
     inkscape:zoom="0.70710678"
     inkscape:cx="99.155515"
     inkscape:cy="458.82786"
     inkscape:document-units="px"
     inkscape:current-layer="layer1"
     showgrid="false"
     showborder="false"
     inkscape:snap-bbox="true"
     inkscape:bbox-paths="true"
     inkscape:bbox-nodes="true"
     inkscape:snap-center="true"
     inkscape:snap-global="false"
     inkscape:window-width="1680"
     inkscape:window-height="987"
     inkscape:window-x="-8"
     inkscape:window-y="-8"
     inkscape:window-maximized="1" />
  <metadata
     id="metadata7">
    <rdf:RDF>
      <cc:Work
         rdf:about="">
        <dc:format>image/svg+xml</dc:format>
        <dc:type
           rdf:resource="http://purl.org/dc/dcmitype/StillImage" />
        <dc:title></dc:title>
      </cc:Work>
    </rdf:RDF>
  </metadata>
  <g
     inkscape:label="Layer 1"
     inkscape:groupmode="layer"
     id="layer1">
    <rect
       style="fill:#afdde9;fill-opacity:1;stroke:none"
       id="rect3753"
       width="1279.8824"
       height="715.75702"
       x="-540.6076"
       y="80.387032"
       rx="0"
       inkscape:export-filename="C:\Users\brayan.bedritchuk\Desktop\Material Design Sunny Day.png"
       inkscape:export-xdpi="90"
       inkscape:export-ydpi="90" />
    <path
       style="fill:#87deaa;fill-opacity:1;stroke:none"
       d="m -159.58156,182.31854 -190.53326,244.92986 -190.61034,244.85319 381.1436,0 0,-489.78305 z"
       id="path3815"
       inkscape:connector-curvature="0"
       inkscape:export-filename="C:\Users\brayan.bedritchuk\Desktop\Material Design Sunny Day.png"
       inkscape:export-xdpi="90"
       inkscape:export-ydpi="90" />
    <path
       id="path3820"
       d="m -158.92757,180.36716 190.533257,244.92986 190.610343,244.8532 -381.1436,0 0,-489.78306 z"
       style="fill:#40cb78;fill-opacity:1;stroke:none"
       inkscape:connector-curvature="0"
       inkscape:export-filename="C:\Users\brayan.bedritchuk\Desktop\Material Design Sunny Day.png"
       inkscape:export-xdpi="90"
       inkscape:export-ydpi="90" />
    <path
       sodipodi:type="arc"
       style="fill:#ffeeaa;fill-opacity:1;stroke:none"
       id="path3813"
       sodipodi:cx="193"
       sodipodi:cy="373.36218"
       sodipodi:rx="40"
       sodipodi:ry="40"
       d="m 233,373.36218 a 40,40 0 1 1 -80,0 40,40 0 1 1 80,0 z"
       transform="matrix(1.8497651,0,0,1.8397767,-547.41769,-515.64231)"
       inkscape:export-filename="C:\Users\brayan.bedritchuk\Desktop\Material Design Sunny Day.png"
       inkscape:export-xdpi="90"
       inkscape:export-ydpi="90" />
    <path
       style="fill:#ffffff;fill-opacity:1;stroke:none"
       d="m -301.65755,152.05624 c -14.55985,-0.20291 -28.16444,4.30791 -38.0597,11.92571 -5.85419,-2.68318 -12.44096,-4.50447 -19.57356,-5.26531 -20.64639,-2.2024 -40.14052,5.22353 -51.10874,17.91107 -1.20407,-0.19564 -2.42611,-0.3631 -3.66289,-0.49503 -29.06663,-3.10059 -55.80766,12.92169 -59.75087,35.77715 -0.32,1.85477 -0.44971,3.66805 -0.45786,5.49033 -6.01403,5.77309 -10.13434,12.89892 -11.50376,20.83625 -0.38304,2.22018 -0.51929,4.44422 -0.45786,6.61539 l 368.92155,0 c 0.16722,-0.70049 0.27742,-1.4459 0.40064,-2.16014 3.9432,-22.85543 -16.4333,-43.8822 -45.49995,-46.9828 -3.77595,-0.4028 -7.50722,-0.48548 -11.16036,-0.27002 -7.60632,-11.88878 -22.2535,-20.75719 -40.29178,-22.68136 -14.13768,-1.5081 -27.71689,1.52663 -38.40309,7.65046 -6.27902,-14.51742 -22.45887,-25.74525 -43.09618,-27.94667 -2.11218,-0.22532 -4.21561,-0.37603 -6.29559,-0.40503 z"
       id="path3779"
       inkscape:connector-curvature="0"
       inkscape:export-filename="C:\Users\brayan.bedritchuk\Desktop\Material Design Sunny Day.png"
       inkscape:export-xdpi="90"
       inkscape:export-ydpi="90" />
    <path
       inkscape:connector-curvature="0"
       id="path3809"
       d="m 186.77005,95.695974 c -10.51882,-0.14663 -20.34751,3.112258 -27.49637,8.615766 -4.22939,-1.93846 -8.98803,-3.25427 -14.14101,-3.80394 -14.91606,-1.591132 -28.99967,3.77377 -36.9237,12.93992 -0.86989,-0.14129 -1.75276,-0.26231 -2.64627,-0.35763 -20.999293,-2.24004 -40.318462,9.33532 -43.167248,25.84733 -0.231183,1.33999 -0.324892,2.65 -0.330775,3.96652 -4.344858,4.1708 -7.321592,9.31886 -8.310939,15.05323 -0.276725,1.60399 -0.375169,3.21074 -0.330793,4.77931 l 266.528805,0 c 0.12079,-0.50607 0.20042,-1.04459 0.28943,-1.56059 2.84879,-16.51202 -11.87229,-31.70289 -32.8716,-33.94291 -2.72794,-0.29101 -5.42362,-0.35075 -8.06285,-0.19509 -5.49521,-8.58909 -16.07712,-14.99611 -29.10896,-16.38622 -10.21381,-1.08954 -20.02417,1.1029 -27.74444,5.52709 -4.53631,-10.48816 -16.22551,-18.599756 -31.135,-20.19017 -1.52597,-0.16282 -3.04559,-0.271661 -4.54828,-0.292616 z"
       style="fill:#ffffff;fill-opacity:1;stroke:none"
       inkscape:export-filename="C:\Users\brayan.bedritchuk\Desktop\Material Design Sunny Day.png"
       inkscape:export-xdpi="90"
       inkscape:export-ydpi="90" />
    <path
       style="fill:#ffffff;fill-opacity:1;stroke:none"
       d="m 554.87331,206.37061 c -10.51882,-0.14663 -20.34751,3.11226 -27.49637,8.61577 -4.2294,-1.93846 -8.98803,-3.25427 -14.14101,-3.80394 -14.91607,-1.59113 -28.99968,3.77377 -36.9237,12.93992 -0.86989,-0.14129 -1.75277,-0.26231 -2.64628,-0.35763 -20.99929,-2.24004 -40.31846,9.33532 -43.16724,25.84733 -0.23119,1.33999 -0.3249,2.65 -0.33078,3.96653 -4.34486,4.17079 -7.32159,9.31885 -8.31094,15.05321 -0.27672,1.604 -0.37517,3.21075 -0.33079,4.77932 l 266.52881,0 c 0.12078,-0.50607 0.20042,-1.04459 0.28943,-1.56059 2.84878,-16.51201 -11.87229,-31.70288 -32.8716,-33.9429 -2.72795,-0.29102 -5.42363,-0.35076 -8.06285,-0.19509 -5.49521,-8.58909 -16.07713,-14.99612 -29.10896,-16.38623 -10.21381,-1.08954 -20.02417,1.10291 -27.74444,5.52709 -4.53631,-10.48816 -16.22551,-18.59976 -31.13501,-20.19017 -1.52596,-0.16282 -3.04558,-0.27166 -4.54827,-0.29262 z"
       id="path3811"
       inkscape:connector-curvature="0"
       inkscape:export-filename="C:\Users\brayan.bedritchuk\Desktop\Material Design Sunny Day.png"
       inkscape:export-xdpi="90"
       inkscape:export-ydpi="90" />
    <path
       id="path3822"
       d="M 322.18432,338.84093 193.29983,504.52149 64.363232,670.15022 l 257.821088,0 0,-331.30929 z"
       style="fill:#87deaa;fill-opacity:1;stroke:none"
       inkscape:connector-curvature="0"
       inkscape:export-filename="C:\Users\brayan.bedritchuk\Desktop\Material Design Sunny Day.png"
       inkscape:export-xdpi="90"
       inkscape:export-ydpi="90" />
    <path
       inkscape:connector-curvature="0"
       style="fill:#40cb78;fill-opacity:1;stroke:none"
       d="m 322.18432,338.84093 128.8845,165.68056 128.93661,165.62873 -257.82111,0 0,-331.30929 z"
       id="path3824"
       inkscape:export-filename="C:\Users\brayan.bedritchuk\Desktop\Material Design Sunny Day.png"
       inkscape:export-xdpi="90"
       inkscape:export-ydpi="90" />
    <rect
       rx="0"
       y="662.37891"
       x="-540.6076"
       height="138.00774"
       width="1279.8824"
       id="rect3755"
       style="fill:#80e5ff;fill-opacity:1;stroke:none"
       inkscape:export-filename="C:\Users\brayan.bedritchuk\Desktop\Material Design Sunny Day.png"
       inkscape:export-xdpi="90"
       inkscape:export-ydpi="90" />
    <rect
       style="fill:#ffffff;fill-opacity:1;stroke:none"
       id="rect3757"
       width="83.745247"
       height="11.991236"
       x="-444.49286"
       y="699.57568"
       rx="8.4831629"
       ry="5.9956179"
       inkscape:export-filename="C:\Users\brayan.bedritchuk\Desktop\Material Design Sunny Day.png"
       inkscape:export-xdpi="90"
       inkscape:export-ydpi="90" />
    <rect
       ry="5.9956179"
       rx="11.992611"
       y="716.45312"
       x="-479.13791"
       height="11.991236"
       width="118.3903"
       id="rect3759"
       style="fill:#ffffff;fill-opacity:1;stroke:none"
       inkscape:export-filename="C:\Users\brayan.bedritchuk\Desktop\Material Design Sunny Day.png"
       inkscape:export-xdpi="90"
       inkscape:export-ydpi="90" />
    <rect
       ry="3.8688152"
       rx="5.4739623"
       y="746.36658"
       x="-100.64649"
       height="7.7376304"
       width="54.038612"
       id="rect3761"
       style="fill:#ffffff;fill-opacity:1;stroke:none"
       inkscape:export-filename="C:\Users\brayan.bedritchuk\Desktop\Material Design Sunny Day.png"
       inkscape:export-xdpi="90"
       inkscape:export-ydpi="90" />
    <rect
       style="fill:#ffffff;fill-opacity:1;stroke:none"
       id="rect3763"
       width="76.394157"
       height="7.7376304"
       x="-123.00202"
       y="757.25708"
       rx="7.7385168"
       ry="3.8688152"
       inkscape:export-filename="C:\Users\brayan.bedritchuk\Desktop\Material Design Sunny Day.png"
       inkscape:export-xdpi="90"
       inkscape:export-ydpi="90" />
    <rect
       ry="3.8688152"
       rx="5.1504545"
       y="768.14764"
       x="-144.00011"
       height="7.7376304"
       width="50.844967"
       id="rect3765"
       style="fill:#ffffff;fill-opacity:1;stroke:none"
       inkscape:export-filename="C:\Users\brayan.bedritchuk\Desktop\Material Design Sunny Day.png"
       inkscape:export-xdpi="90"
       inkscape:export-ydpi="90" />
    <rect
       ry="3.8688152"
       rx="3.4237676"
       y="683.39282"
       x="466.14517"
       height="7.7376304"
       width="47.758961"
       id="rect3769"
       style="fill:#ffffff;fill-opacity:1;stroke:none"
       inkscape:export-filename="C:\Users\brayan.bedritchuk\Desktop\Material Design Sunny Day.png"
       inkscape:export-xdpi="90"
       inkscape:export-ydpi="90" />
    <rect
       style="fill:#ffffff;fill-opacity:1;stroke:none"
       id="rect3773"
       width="24.426582"
       height="7.7376304"
       x="489.47757"
       y="670.73492"
       rx="1.7511047"
       ry="3.8688152"
       inkscape:export-filename="C:\Users\brayan.bedritchuk\Desktop\Material Design Sunny Day.png"
       inkscape:export-xdpi="90"
       inkscape:export-ydpi="90" />
    <rect
       style="fill:#ffffff;fill-opacity:1;stroke:none"
       id="rect3775"
       width="47.758961"
       height="7.7376304"
       x="234.23544"
       y="750.90234"
       rx="3.4237676"
       ry="3.8688152"
       inkscape:export-filename="C:\Users\brayan.bedritchuk\Desktop\Material Design Sunny Day.png"
       inkscape:export-xdpi="90"
       inkscape:export-ydpi="90" />
    <rect
       ry="3.8688152"
       rx="3.4237676"
       y="784.01831"
       x="635.63452"
       height="7.7376304"
       width="47.758961"
       id="rect3830"
       style="fill:#ffffff;fill-opacity:1;stroke:none"
       inkscape:export-filename="C:\Users\brayan.bedritchuk\Desktop\Material Design Sunny Day.png"
       inkscape:export-xdpi="90"
       inkscape:export-ydpi="90" />
  </g>
</svg>
