<?xml version="1.0" encoding="UTF-8" standalone="no"?>
<!-- Created with Inkscape (http://www.inkscape.org/) -->

<svg
   xmlns:dc="http://purl.org/dc/elements/1.1/"
   xmlns:cc="http://creativecommons.org/ns#"
   xmlns:rdf="http://www.w3.org/1999/02/22-rdf-syntax-ns#"
   xmlns:svg="http://www.w3.org/2000/svg"
   xmlns="http://www.w3.org/2000/svg"
   xmlns:sodipodi="http://sodipodi.sourceforge.net/DTD/sodipodi-0.dtd"
   xmlns:inkscape="http://www.inkscape.org/namespaces/inkscape"
   width="379.44171"
   height="379.29147"
   id="svg2"
   version="1.1"
   inkscape:version="0.48.5 r10040"
   sodipodi:docname="Wireframe Patterns.svg">
  <defs
     id="defs4">
    <inkscape:path-effect
       effect="curvestitching"
       id="path-effect3776"
       is_visible="true"
       count="75"
       startpoint_edge_variation="0;1"
       startpoint_spacing_variation="0;1"
       endpoint_edge_variation="0;1"
       endpoint_spacing_variation="0;1"
       strokepath="m 116,1218.3622 c 363.83696,350.2817 417.03752,282.8715 310,0"
       prop_scale="1"
       scale_y_rel="false"
       strokepath-nodetypes="cc" />
  </defs>
  <sodipodi:namedview
     id="base"
     pagecolor="#ffffff"
     bordercolor="#666666"
     borderopacity="1.0"
     inkscape:pageopacity="0.0"
     inkscape:pageshadow="2"
     inkscape:zoom="1"
     inkscape:cx="535.12711"
     inkscape:cy="373.5107"
     inkscape:document-units="px"
     inkscape:current-layer="layer1"
     showgrid="false"
     showborder="true"
     inkscape:window-width="1920"
     inkscape:window-height="1017"
     inkscape:window-x="-8"
     inkscape:window-y="-8"
     inkscape:window-maximized="1"
     fit-margin-top="0"
     fit-margin-left="0"
     fit-margin-right="0"
     fit-margin-bottom="0" />
  <metadata
     id="metadata7">
    <rdf:RDF>
      <cc:Work
         rdf:about="">
        <dc:format>image/svg+xml</dc:format>
        <dc:type
           rdf:resource="http://purl.org/dc/dcmitype/StillImage" />
        <dc:title></dc:title>
      </cc:Work>
    </rdf:RDF>
  </metadata>
  <g
     inkscape:label="Layer 1"
     inkscape:groupmode="layer"
     id="layer1"
     transform="translate(-81.27914,-1028.7165)">
    <path
       sodipodi:type="arc"
       style="color:#000000;fill:none;stroke:#333333;stroke-width:1;stroke-linecap:round;stroke-linejoin:round;stroke-miterlimit:4;stroke-opacity:1;stroke-dasharray:none;marker:none;visibility:visible;display:inline;overflow:visible;enable-background:accumulate"
       id="path3753"
       sodipodi:cx="271"
       sodipodi:cy="348.36218"
       sodipodi:rx="155"
       sodipodi:ry="155"
       d="m 426,348.36218 c 0,85.60414 -69.39586,155 -155,155 -85.60414,0 -155,-69.39586 -155,-155 0,-85.60413 69.39586,-155 155,-155 85.60414,0 155,69.39587 155,155 z" />
    <path
       id="path3757"
       transform="matrix(0.3483871,0,0,0.3483871,176.5871,618.99729)"
       style="color:#000000;fill:none;stroke:#333333;stroke-width:2.87037039;stroke-linecap:round;stroke-linejoin:round;stroke-miterlimit:4;stroke-opacity:1;marker:none;visibility:visible;display:inline;overflow:visible;enable-background:accumulate"
       d="m 426,348.36218 c 0,85.60414 -69.39586,155 -155,155 -85.60414,0 -155,-69.39586 -155,-155 0,-85.60413 69.39586,-155 155,-155 85.60414,0 155,69.39587 155,155 z m 289.90739,0 c 0,245.71559 -199.19182,444.9074 -444.9074,444.9074 -245.715587,0 -444.90741,-199.19181 -444.90741,-444.9074 0,-245.71556 199.191823,-444.907402 444.90741,-444.907402 245.71558,0 444.9074,199.191842 444.9074,444.907402 z"
       inkscape:connector-curvature="0" />
    <text
       xml:space="preserve"
       style="font-size:40px;font-style:normal;font-variant:normal;font-weight:normal;font-stretch:normal;line-height:125%;letter-spacing:0px;word-spacing:0px;fill:#000000;fill-opacity:1;stroke:none;font-family:Roboto;-inkscape-font-specification:Roboto"
       x="467"
       y="627.36218"
       id="text3759"
       sodipodi:linespacing="125%"><tspan
         sodipodi:role="line"
         id="tspan3761"
         x="467"
         y="627.36218">Path -&gt; Combine</tspan></text>
    <path
       style="color:#000000;fill:none;stroke:#333333;stroke-width:1;stroke-linecap:round;stroke-linejoin:round;stroke-miterlimit:4;stroke-opacity:1;marker:none;visibility:visible;display:inline;overflow:visible;enable-background:accumulate"
       d="m 325,1099.3114 c 102.35105,350.2817 117.31691,282.8715 87.20617,0 m -77.30786,5.0067 c 72.27285,357.703 92.90508,291.8056 86.89911,7.3992 m -77.46866,-1.5736 c 41.68682,362.5492 67.83915,298.6406 85.97818,14.7489 m -77.08059,-8.1447 c 10.82116,364.7863 42.30353,303.327 84.44372,21.9939 m -76.13848,-14.6581 c -20.11211,364.3994 16.46958,305.8307 82.29608,29.0792 m -74.63546,-21.0623 c -50.9215,361.3842 -9.50766,306.1266 79.53623,35.9493 m -72.57285,-27.3076 c -81.39107,355.7558 -35.4455,304.2057 76.18511,42.5519 m -69.96906,-33.3457 c -111.29254,347.5548 -61.14457,300.0843 72.2805,48.8447 m -66.86218,-39.1415 c -140.39741,336.8441 -86.40557,293.7971 67.85959,54.7879 m -63.28888,-44.6629 c -168.47875,323.7098 -111.03045,285.3978 62.95957,60.3413 m -59.2763,-49.8753 c -195.33003,308.2532 -134.83837,274.9532 57.6158,65.4672 m -54.83733,-54.7346 c -220.76969,290.5827 -157.66911,262.5376 51.8625,70.1322 m -50.00733,-59.2064 c -244.60761,270.8332 -179.35331,248.2453 45.73948,74.2996 m -44.81892,-63.2559 c -266.67524,249.1461 -199.73894,232.1757 39.28681,77.9322 m -39.30431,-66.8451 c -286.82706,225.6602 -218.69252,214.4259 32.54464,80.9924 m -33.49889,-69.9391 c -304.923469,200.5264 -236.08264,195.1045 25.55996,83.4466 m -27.44381,-72.503 c -320.832602,173.9234 -251.78089,174.3529 18.38791,85.2877 M 395.94,1256.782 c -334.433562,146.0517 -265.66772,152.333 11.08365,86.5154 m -14.78882,-76.0401 c -345.620606,117.1318 -277.63581,129.2226 3.70232,87.1294 m -8.28512,-77.021 c -354.311204,87.39 -287.59716,105.2045 -3.70234,87.1293 m -1.71838,-77.4566 c -360.450607,57.0287 -295.489002,80.4421 -11.08366,86.5153 m 4.86325,-77.3434 c -363.995202,26.2751 -301.25477,55.1189 -18.38793,85.2876 m 11.41177,-76.6792 c -364.9212732,-4.6495 -304.853384,29.4137 -25.55999,83.4465 m 17.87714,-75.4574 c -363.2202275,-35.544 -306.255978,3.4893 -32.54465,80.9924 m 24.20795,-73.6738 c -358.8945396,-66.2132 -305.442643,-22.4941 -39.28683,77.9322 m 30.35497,-71.3362 C -7.8901642,1230.2953 41.664985,1278.3851 298.34382,1401.022 m 36.27591,-68.4761 C -7.8886038,1206.587 37.41123,1258.7035 282.75721,1402.6781 m 41.9385,-65.1316 C -5.8778899,1182.9666 34.838322,1238.7368 267.07989,1403.0136 m 47.31033,-61.3372 C -1.8757042,1159.6078 33.963008,1218.6307 251.43064,1402.0176 m 52.3514,-57.1078 C 4.095466,1136.6711 34.795883,1198.5229 235.92243,1399.6976 m 57.02106,-52.4691 c -280.959053,-232.9 -255.619898,-168.6645 -72.28051,48.8447 m 61.28632,-47.4559 C 21.726281,1092.7449 41.522863,1158.9001 205.76417,1391.1691 m 65.11052,-42.1003 C 33.255062,1072.0698 47.369713,1139.6663 191.33846,1385.0182 m 68.45617,-36.4357 C 46.506095,1052.4417 54.841342,1120.9912 177.49855,1377.6616 m 71.28802,-30.4993 C 61.390076,1034.003 63.888863,1103.0113 164.34285,1369.1562 m 73.58478,-24.3387 C 77.794907,1016.8888 74.43698,1085.8596 151.94944,1359.5663 m 75.35271,-18.0051 C 95.593728,1001.2265 86.399614,1069.6635 140.40303,1348.9603 m 76.59694,-11.5473 C 114.649,987.13124 99.683123,1054.5414 129.79381,1337.4129 m 77.30786,-5.0066 c -72.27278,-357.70298 -92.90503,-291.8056 -86.89911,-7.3992 m 77.46866,1.5736 c -41.68675,-362.54922 -67.83909,-298.6406 -85.97818,-14.7489 m 77.08059,8.1447 c -10.82109,-364.78634 -42.30348,-303.327 -84.44373,-21.9939 m 76.13849,14.6581 C 200.58056,948.24133 163.99885,1006.81 98.172301,1283.5615 m 74.635469,21.0623 c 50.92155,-361.38417 9.5077,-306.12658 -79.536234,-35.9494 m 72.572854,27.3077 c 81.39112,-355.7558 35.44554,-304.20575 -76.185119,-42.5519 m 69.969079,33.3457 C 270.92091,939.22109 220.77294,986.69161 87.347835,1237.9312 m 66.862195,39.1415 C 294.60746,940.2286 240.61561,983.27559 86.350431,1222.2848 m 63.288889,44.6629 C 318.11808,943.2379 260.66977,981.54986 86.679741,1206.6063 m 59.276319,49.8754 C 341.28609,948.22849 280.79442,981.52846 88.340245,1191.0145 m 54.837345,54.7346 C 363.94728,955.16636 300.8467,983.21144 91.315083,1175.6169 m 50.007337,59.2064 c 244.6076,-270.83321 179.3533,-248.24531 -45.739489,-74.2997 m 44.818939,63.256 C 407.0771,974.63346 340.1408,991.60392 101.11505,1145.8474 m 39.30431,66.8451 C 427.24642,987.03224 359.11188,998.26655 107.87472,1131.7001 m 33.4989,69.9391 c 304.92346,-200.5264 236.08263,-195.1045 -25.55997,-83.4466 m 27.44382,72.503 c 320.83259,-173.9234 251.78088,-174.3529 -18.38792,-85.2877 m 21.19045,74.5345 c 334.43356,-146.0518 265.66772,-152.333 -11.08365,-86.5154 m 14.78882,76.0401 c 345.62061,-117.1318 277.63581,-129.2226 -3.70232,-87.1294 m 8.28512,77.0211 c 354.3112,-87.3901 287.59716,-105.2046 3.70234,-87.1294 m 1.71838,77.4566 c 360.45061,-57.0287 295.489,-80.4421 11.08366,-86.5153 m -4.86325,77.3435 c 363.9952,-26.2752 301.25477,-55.119 18.38793,-85.2877 m -11.41177,76.6792 c 364.92128,4.6495 304.85339,-29.4138 25.55999,-83.4465 m -17.87714,75.4574 c 363.22023,35.544 306.25598,-3.4893 32.54466,-80.9924 m -24.20796,73.6738 c 358.89455,66.2132 305.44265,22.4941 39.28683,-77.9322 m -30.35497,71.3362 c 351.97351,96.4271 302.41836,48.3373 45.73951,-74.2996 m -36.27591,68.4761 c 342.50835,125.9589 297.20852,73.8423 51.86252,-70.1323 m -41.9385,65.1317 c 330.57363,154.5799 289.85741,98.8096 57.61582,-65.4671 m -47.31034,61.3372 c 316.26597,182.0686 280.42725,123.0457 62.95959,-60.3413 m -52.35141,57.1079 c 299.68662,208.2386 268.9862,146.3868 67.85961,-54.7878 m -57.02106,52.4691 c 280.9591,232.8999 255.61994,168.6645 72.28052,-48.8447 m -61.28633,47.4559 c 260.22307,255.8723 240.42648,189.7172 76.18513,-42.5518 m -65.11053,42.1003 c 237.6197,276.999 223.50503,209.4025 79.53624,-35.9494 m -68.45619,36.4357 c 213.28861,296.1408 204.95335,227.5913 82.29609,-29.0792 m -71.28803,30.4994 c 187.39657,313.1593 184.89777,244.1509 84.44373,-21.9939 m -73.58478,24.3388 c 160.13279,327.9286 163.49071,258.9577 85.97818,-14.7489 m -75.3527,18.0051 c 131.70849,340.3347 140.90259,271.8977 86.89911,-7.3991 M 325,1099.3114 c 102.35105,350.2817 117.31691,282.8715 87.20617,0"
       id="path3766"
       inkscape:connector-curvature="0" />
    <text
       sodipodi:linespacing="125%"
       id="text3768"
       y="1044.3622"
       x="555"
       style="font-size:40px;font-style:normal;font-variant:normal;font-weight:normal;font-stretch:normal;line-height:125%;letter-spacing:0px;word-spacing:0px;fill:#000000;fill-opacity:1;stroke:none;font-family:Roboto;-inkscape-font-specification:Roboto"
       xml:space="preserve"><tspan
         y="1044.3622"
         x="555"
         id="tspan3770"
         sodipodi:role="line">Path -&gt; Path Effect Editor</tspan></text>
    <text
       xml:space="preserve"
       style="font-size:40px;font-style:normal;font-variant:normal;font-weight:normal;font-stretch:normal;line-height:125%;letter-spacing:0px;word-spacing:0px;fill:#000000;fill-opacity:1;stroke:none;font-family:Roboto;-inkscape-font-specification:Roboto"
       x="555"
       y="1124.3622"
       id="text3772"
       sodipodi:linespacing="125%"><tspan
         sodipodi:role="line"
         id="tspan3774"
         x="555"
         y="1124.3622">Stich Sub-Paths, 75, Edit on canvas</tspan></text>
  </g>
</svg>
