<?xml version="1.0" encoding="UTF-8" standalone="no"?>
<!-- Created with Inkscape (http://www.inkscape.org/) -->

<svg
   xmlns:dc="http://purl.org/dc/elements/1.1/"
   xmlns:cc="http://creativecommons.org/ns#"
   xmlns:rdf="http://www.w3.org/1999/02/22-rdf-syntax-ns#"
   xmlns:svg="http://www.w3.org/2000/svg"
   xmlns="http://www.w3.org/2000/svg"
   xmlns:sodipodi="http://sodipodi.sourceforge.net/DTD/sodipodi-0.dtd"
   xmlns:inkscape="http://www.inkscape.org/namespaces/inkscape"
   width="210mm"
   height="297mm"
   viewBox="0 0 744.09448819 1052.3622047"
   id="svg2"
   version="1.1"
   inkscape:version="0.91 r13725"
   inkscape:export-filename="C:\Users\brayan.bedritchuk\Desktop\rect4354.png"
   inkscape:export-xdpi="61.93"
   inkscape:export-ydpi="61.93"
   sodipodi:docname="Sky2.svg">
  <defs
     id="defs4" />
  <sodipodi:namedview
     id="base"
     pagecolor="#ffffff"
     bordercolor="#666666"
     borderopacity="1.0"
     inkscape:pageopacity="0.0"
     inkscape:pageshadow="2"
     inkscape:zoom="0.030935922"
     inkscape:cx="-3869.9207"
     inkscape:cy="-2212.029"
     inkscape:document-units="px"
     inkscape:current-layer="layer1"
     showgrid="false"
     showborder="false"
     inkscape:object-paths="true"
     inkscape:snap-intersection-paths="true"
     inkscape:object-nodes="true"
     inkscape:snap-smooth-nodes="true"
     inkscape:snap-nodes="false"
     inkscape:window-width="1680"
     inkscape:window-height="987"
     inkscape:window-x="-8"
     inkscape:window-y="-8"
     inkscape:window-maximized="1" />
  <metadata
     id="metadata7">
    <rdf:RDF>
      <cc:Work
         rdf:about="">
        <dc:format>image/svg+xml</dc:format>
        <dc:type
           rdf:resource="http://purl.org/dc/dcmitype/StillImage" />
        <dc:title></dc:title>
      </cc:Work>
    </rdf:RDF>
  </metadata>
  <g
     inkscape:label="Layer 1"
     inkscape:groupmode="layer"
     id="layer1">
    <rect
       y="224.21378"
       x="-8983.6729"
       height="4454.4175"
       width="7288.7505"
       id="rect4429"
       style="opacity:1;fill:#5599ff;fill-opacity:1;stroke:none;stroke-width:6;stroke-miterlimit:4;stroke-dasharray:none;stroke-opacity:1"
       inkscape:export-xdpi="6.3200002"
       inkscape:export-ydpi="6.3200002" />
    <path
       style="opacity:1;fill:#ffffff;fill-opacity:1;stroke:none;stroke-width:6;stroke-miterlimit:4;stroke-dasharray:none;stroke-opacity:1"
       d="m -3814.3299,1412.7286 a 542.9841,698.59779 0 0 0 -393,217.7572 317.84436,408.9353 0 0 0 -189.712,-81.4467 317.84436,408.9353 0 0 0 -283.017,223.7471 397.30547,511.16914 0 0 0 -34.826,-2.2392 397.30547,511.16914 0 0 0 -385.214,388.5858 317.84436,408.9353 0 0 0 -161.929,190.7375 l 2327.6568,0 a 317.84436,408.9353 0 0 0 7.3603,-85.1944 317.84436,408.9353 0 0 0 -317.846,-408.9344 317.84436,408.9353 0 0 0 -61.8943,8.2232 542.9841,698.59779 0 0 0 -507.5788,-451.2361 z"
       id="path4338"
       inkscape:connector-curvature="0"
       inkscape:export-xdpi="6.3200002"
       inkscape:export-ydpi="6.3200002" />
    <path
       style="opacity:1;fill:#ffffff;fill-opacity:1;stroke:none;stroke-width:6;stroke-miterlimit:4;stroke-dasharray:none;stroke-opacity:1"
       d="m -6986.6907,2786.536 a 468.06737,602.21069 0 0 1 338.7769,187.7127 273.99067,352.51359 0 0 1 163.537,-70.2094 273.99067,352.51359 0 0 1 243.9685,192.8763 342.48835,440.64199 0 0 1 30.021,-1.9302 342.48835,440.64199 0 0 1 332.0652,334.9717 273.99067,352.51359 0 0 1 139.5872,164.421 l -2006.5047,0 a 273.99067,352.51359 0 0 1 -6.3448,-73.44 273.99067,352.51359 0 0 1 273.9921,-352.5127 273.99067,352.51359 0 0 1 53.3545,7.0886 468.06737,602.21069 0 0 1 437.5471,-388.978 z"
       id="path4358"
       inkscape:connector-curvature="0"
       inkscape:export-xdpi="6.3200002"
       inkscape:export-ydpi="6.3200002" />
    <g
       id="g4333"
       transform="matrix(0.96592583,-0.25881905,0.25881905,0.96592583,-816.3003,-1374.5152)"
       inkscape:export-xdpi="6.3200002"
       inkscape:export-ydpi="6.3200002">
      <path
         inkscape:connector-curvature="0"
         id="path4136"
         d="m -5628.3936,1308.4662 -118.408,205.0879 5.8,0 a 907.54828,907.54828 0 0 0 -10.601,1.2871 l 4.801,-1.2871 -167.454,-167.4531 -61.293,228.7461 2.358,-0.6328 a 907.54828,907.54828 0 0 0 -5.613,2.5137 l 3.255,-1.8809 -205.087,-118.4082 0,236.8164 2.035,-1.1758 a 907.54828,907.54828 0 0 0 -3.02,2.1602 l 0.985,-0.9844 -228.747,-61.293 61.293,228.7461 3.844,-3.8437 a 907.54828,907.54828 0 0 0 -6.756,8.8867 l 2.912,-5.043 -236.816,0 118.354,204.9942 a 907.54828,907.54828 0 0 0 -0.04,0.1191 l -228.649,61.2676 167.453,167.4531 1.342,-5.0078 a 907.54828,907.54828 0 0 0 -1.342,8.8789 l 0,-3.8711 -205.088,118.4082 205.088,118.4082 0,-5.8008 a 907.54828,907.54828 0 0 0 1.287,10.6016 l -1.287,-4.8008 -167.453,167.4531 228.746,61.293 -0.633,-2.3574 a 907.54828,907.54828 0 0 0 2.514,5.6132 l -1.881,-3.2558 -118.408,205.0879 236.816,0 -1.171,-2.0313 a 907.54828,907.54828 0 0 0 2.154,3.0137 l -0.983,-0.9824 -61.293,228.746 228.747,-61.291 -3.848,-3.8477 a 907.54828,907.54828 0 0 0 8.894,6.7617 l -5.046,-2.914 0,236.8144 204.994,-118.3516 a 907.54828,907.54828 0 0 0 0.119,0.043 l 61.267,228.6485 167.454,-167.4551 -4.995,-1.3379 a 907.54828,907.54828 0 0 0 8.854,1.3379 l -3.859,0 118.408,205.0879 118.408,-205.0879 -5.783,0 a 907.54828,907.54828 0 0 0 10.57,-1.2832 l -4.787,1.2832 167.4531,167.4551 61.293,-228.7461 -2.3575,0.6328 a 907.54828,907.54828 0 0 0 5.6133,-2.5137 l -3.2558,1.8809 205.0878,118.4062 0,-236.8144 -2.0273,1.1699 a 907.54828,907.54828 0 0 0 3.0098,-2.1524 l -0.9825,0.9825 228.7481,61.291 -61.293,-228.746 -3.8476,3.8476 a 907.54828,907.54828 0 0 0 6.7597,-8.8906 l -2.9121,5.043 236.8145,0 -118.3516,-204.9942 a 907.54828,907.54828 0 0 0 0.043,-0.1211 l 228.6484,-61.2656 -167.4551,-167.4531 -1.3378,4.9922 a 907.54828,907.54828 0 0 0 1.3378,-8.8516 l 0,3.8594 205.0899,-118.4082 -205.0899,-118.4082 0,5.7812 a 907.54828,907.54828 0 0 0 -1.2832,-10.5703 l 1.2832,4.7891 167.4551,-167.4531 -228.7461,-61.293 0.6309,2.3535 a 907.54828,907.54828 0 0 0 -2.5098,-5.6074 l 1.8789,3.2539 118.4063,-205.0879 -236.8145,0 1.1758,2.0371 a 907.54828,907.54828 0 0 0 -2.1621,-3.0234 l 0.9863,0.9863 61.293,-228.7461 -228.7481,61.293 3.8379,3.8379 a 907.54828,907.54828 0 0 0 -8.8711,-6.7442 l 5.0332,2.9063 0,-236.8164 -204.9941,118.3535 a 907.54828,907.54828 0 0 0 -0.1211,-0.043 l -61.2656,-228.6484 -167.4531,167.4531 5.008,1.3418 a 907.54828,907.54828 0 0 0 -8.879,-1.3418 l 3.871,0 -118.408,-205.0879 z"
         style="opacity:1;fill:#ff9955;fill-opacity:1;stroke:none;stroke-width:6;stroke-miterlimit:4;stroke-dasharray:none;stroke-opacity:1" />
      <circle
         r="738.60059"
         cy="2412.9504"
         cx="-5628.3901"
         id="path4321"
         style="opacity:1;fill:#ffd42a;fill-opacity:1;stroke:none;stroke-width:6;stroke-miterlimit:4;stroke-dasharray:none;stroke-opacity:1" />
      <path
         id="circle4328"
         d="m -5628.3906,1674.3496 a 738.60059,738.60059 0 0 0 -738.5996,738.6016 738.60059,738.60059 0 0 0 168.3808,468.623 738.60059,738.60059 0 0 1 -47.164,-258.5117 738.60059,738.60059 0 0 1 738.6015,-738.6016 738.60059,738.60059 0 0 1 570.2188,269.9766 738.60059,738.60059 0 0 0 -691.4375,-480.0879 z"
         style="opacity:1;fill:#ffdd55;fill-opacity:1;stroke:none;stroke-width:6;stroke-miterlimit:4;stroke-dasharray:none;stroke-opacity:1"
         inkscape:connector-curvature="0" />
    </g>
  </g>
</svg>
