<?xml version="1.0" encoding="UTF-8" standalone="no"?>
<!-- Created with Inkscape (http://www.inkscape.org/) -->

<svg
   xmlns:dc="http://purl.org/dc/elements/1.1/"
   xmlns:cc="http://creativecommons.org/ns#"
   xmlns:rdf="http://www.w3.org/1999/02/22-rdf-syntax-ns#"
   xmlns:svg="http://www.w3.org/2000/svg"
   xmlns="http://www.w3.org/2000/svg"
   xmlns:sodipodi="http://sodipodi.sourceforge.net/DTD/sodipodi-0.dtd"
   xmlns:inkscape="http://www.inkscape.org/namespaces/inkscape"
   width="210mm"
   height="297mm"
   viewBox="0 0 744.09448819 1052.3622047"
   id="svg4871"
   version="1.1"
   inkscape:version="0.91 r13725"
   sodipodi:docname="Little Tree.svg">
  <defs
     id="defs4873" />
  <sodipodi:namedview
     id="base"
     pagecolor="#ffffff"
     bordercolor="#666666"
     borderopacity="1.0"
     inkscape:pageopacity="0.0"
     inkscape:pageshadow="2"
     inkscape:zoom="0.35"
     inkscape:cx="-52.142857"
     inkscape:cy="520"
     inkscape:document-units="px"
     inkscape:current-layer="layer1"
     showgrid="false"
     showborder="false"
     inkscape:window-width="1680"
     inkscape:window-height="987"
     inkscape:window-x="-8"
     inkscape:window-y="-8"
     inkscape:window-maximized="1" />
  <metadata
     id="metadata4876">
    <rdf:RDF>
      <cc:Work
         rdf:about="">
        <dc:format>image/svg+xml</dc:format>
        <dc:type
           rdf:resource="http://purl.org/dc/dcmitype/StillImage" />
        <dc:title></dc:title>
      </cc:Work>
    </rdf:RDF>
  </metadata>
  <g
     inkscape:label="Layer 1"
     inkscape:groupmode="layer"
     id="layer1">
    <g
       id="g4812"
       inkscape:export-xdpi="11.62"
       inkscape:export-ydpi="11.62"
       transform="matrix(0.57809988,0,0,0.57809988,-3364.6887,-323.15684)">
      <path
         inkscape:connector-curvature="0"
         id="path4741"
         d="m 6371.8428,968.73771 -48.6695,5.06004 -18.8807,5.05829 -18.8823,5.06004 -18.8824,5.0583 32.5254,140.00092 21.3539,106.4882 11.721,96.026 -7.5859,-13.1411 -55.3865,-119.998 -51.6611,-116.2758 -81.45,-90.21073 -16.9276,9.77273 -16.929,9.7744 -16.9292,9.7744 -16.929,9.7728 62.8325,108.8297 62.8309,108.8283 59.1088,127.4455 12.3347,16.7185 55.0411,542.9067 -57.9223,571.3249 163.2356,0 163.2358,0 -57.9224,-571.3249 55.9246,-551.6197 54.8781,-151.536 31.3077,-187.3227 -26.822,-7.1878 -26.822,-7.186 -46.2028,172.4292 -107.8524,147.6247 -39.7952,-139.3856 -36.2477,-136.277 -17.6301,-106.48829 z"
         style="opacity:1;fill:#6c5353;fill-opacity:1;stroke:none;stroke-opacity:1" />
      <path
         id="path4743"
         d="m 6341.541,-120.55664 a 210.62666,210.62666 0 0 0 -181.3574,103.964843 210.62666,210.62666 0 0 0 -108.2539,-30.244141 210.62666,210.62666 0 0 0 -210.627,210.626958 210.62666,210.62666 0 0 0 5.7911,47.94531 210.62666,210.62666 0 0 0 -11.0567,-0.55469 210.62666,210.62666 0 0 0 -210.6269,210.62695 210.62666,210.62666 0 0 0 93.9863,175.24024 210.62666,210.62666 0 0 0 -41.3301,124.90234 210.62666,210.62666 0 0 0 184.2813,208.77149 210.62666,210.62666 0 0 0 205.3789,165.08984 210.62666,210.62666 0 0 0 177.3847,-97.48438 210.62666,210.62666 0 0 0 85.8985,18.49998 210.62666,210.62666 0 0 0 95.7226,-23.24412 210.62666,210.62666 0 0 0 183.3574,107.49412 210.62666,210.62666 0 0 0 194.8106,-130.82419 210.62666,210.62666 0 0 0 100.0664,25.51171 210.62666,210.62666 0 0 0 210.627,-210.62695 210.62666,210.62666 0 0 0 -39.1954,-121.91797 210.62666,210.62666 0 0 0 70.7891,-157.16211 210.62666,210.62666 0 0 0 -130.666,-194.75 210.62666,210.62666 0 0 0 4.291,-42.20507 210.62666,210.62666 0 0 0 -184.8809,-208.861332 210.62666,210.62666 0 0 0 -199.5136,-143.9375 210.62666,210.62666 0 0 0 -128.916,44.197265 210.62666,210.62666 0 0 0 -165.961,-81.058593 z"
         style="opacity:1;fill:#8dd35f;fill-opacity:1;stroke:none;stroke-opacity:1"
         inkscape:connector-curvature="0" />
      <g
         id="g4778">
        <g
           id="g4762">
          <path
             inkscape:transform-center-y="-16.655026"
             d="m 6708.5609,2501.2053 -57.6947,0 -57.6947,0 28.8474,-49.9651 28.8473,-49.965 28.8474,49.965 z"
             inkscape:randomized="0"
             inkscape:rounded="0"
             inkscape:flatsided="false"
             sodipodi:arg2="1.5707963"
             sodipodi:arg1="0.52359878"
             sodipodi:r2="33.310051"
             sodipodi:r1="66.620102"
             sodipodi:cy="2467.8953"
             sodipodi:cx="6650.8662"
             sodipodi:sides="3"
             id="path4750"
             style="opacity:1;fill:#8dd35f;fill-opacity:1;stroke:none;stroke-opacity:1"
             sodipodi:type="star" />
          <path
             inkscape:transform-center-x="4.3750444e-005"
             transform="matrix(0.32022513,0,0,0.14392041,4443.2551,2139.3225)"
             sodipodi:type="star"
             style="opacity:1;fill:#8dd35f;fill-opacity:1;stroke:none;stroke-opacity:1"
             id="path4752"
             sodipodi:sides="3"
             sodipodi:cx="7361.4375"
             sodipodi:cy="2348.5701"
             sodipodi:r1="331.78513"
             sodipodi:r2="165.89256"
             sodipodi:arg1="0.52359878"
             sodipodi:arg2="1.5707963"
             inkscape:flatsided="false"
             inkscape:rounded="0"
             inkscape:randomized="0"
             d="m 7648.7718,2514.4626 -287.3343,0 -287.3343,0 143.6671,-248.8388 143.6672,-248.8389 143.6672,248.8389 z"
             inkscape:transform-center-y="-11.937685" />
          <path
             inkscape:transform-center-x="-5.4962085e-005"
             inkscape:transform-center-y="-9.4028683"
             d="m 6957.7301,2501.2054 -32.5729,0 -32.5729,0 16.2865,-28.209 16.2864,-28.209 16.2865,28.209 z"
             inkscape:randomized="0"
             inkscape:rounded="0"
             inkscape:flatsided="false"
             sodipodi:arg2="1.5707963"
             sodipodi:arg1="0.52359878"
             sodipodi:r2="18.805984"
             sodipodi:r1="37.611969"
             sodipodi:cy="2482.3994"
             sodipodi:cx="6925.1572"
             sodipodi:sides="3"
             id="path4758"
             style="opacity:1;fill:#8dd35f;fill-opacity:1;stroke:none;stroke-opacity:1"
             sodipodi:type="star" />
          <path
             inkscape:transform-center-x="-5.0991739e-005"
             transform="matrix(0.34805103,0,0,0.55317181,4224.7604,1110.275)"
             sodipodi:type="star"
             style="opacity:1;fill:#8dd35f;fill-opacity:1;stroke:none;stroke-opacity:1"
             id="path4760"
             sodipodi:sides="3"
             sodipodi:cx="7953.9282"
             sodipodi:cy="2455.7361"
             sodipodi:r1="117.45477"
             sodipodi:r2="58.727386"
             sodipodi:arg1="0.52359878"
             sodipodi:arg2="1.5707963"
             inkscape:flatsided="false"
             inkscape:rounded="0"
             inkscape:randomized="0"
             d="m 8055.647,2514.4635 -101.7188,0 -101.7188,0 50.8594,-88.0911 50.8594,-88.0911 50.8594,88.0911 z"
             inkscape:transform-center-y="-16.243142" />
        </g>
        <g
           id="g4768"
           transform="matrix(-1,0,0,1,14057.073,0)">
          <path
             sodipodi:type="star"
             style="opacity:1;fill:#8dd35f;fill-opacity:1;stroke:none;stroke-opacity:1"
             id="path4770"
             sodipodi:sides="3"
             sodipodi:cx="6650.8662"
             sodipodi:cy="2467.8953"
             sodipodi:r1="66.620102"
             sodipodi:r2="33.310051"
             sodipodi:arg1="0.52359878"
             sodipodi:arg2="1.5707963"
             inkscape:flatsided="false"
             inkscape:rounded="0"
             inkscape:randomized="0"
             d="m 6708.5609,2501.2053 -57.6947,0 -57.6947,0 28.8474,-49.9651 28.8473,-49.965 28.8474,49.965 z"
             inkscape:transform-center-y="-16.655026" />
          <path
             inkscape:transform-center-y="-11.937685"
             d="m 7648.7718,2514.4626 -287.3343,0 -287.3343,0 143.6671,-248.8388 143.6672,-248.8389 143.6672,248.8389 z"
             inkscape:randomized="0"
             inkscape:rounded="0"
             inkscape:flatsided="false"
             sodipodi:arg2="1.5707963"
             sodipodi:arg1="0.52359878"
             sodipodi:r2="165.89256"
             sodipodi:r1="331.78513"
             sodipodi:cy="2348.5701"
             sodipodi:cx="7361.4375"
             sodipodi:sides="3"
             id="path4772"
             style="opacity:1;fill:#8dd35f;fill-opacity:1;stroke:none;stroke-opacity:1"
             sodipodi:type="star"
             transform="matrix(0.32022513,0,0,0.14392041,4443.2551,2139.3225)"
             inkscape:transform-center-x="4.3750444e-005" />
          <path
             sodipodi:type="star"
             style="opacity:1;fill:#8dd35f;fill-opacity:1;stroke:none;stroke-opacity:1"
             id="path4774"
             sodipodi:sides="3"
             sodipodi:cx="6925.1572"
             sodipodi:cy="2482.3994"
             sodipodi:r1="37.611969"
             sodipodi:r2="18.805984"
             sodipodi:arg1="0.52359878"
             sodipodi:arg2="1.5707963"
             inkscape:flatsided="false"
             inkscape:rounded="0"
             inkscape:randomized="0"
             d="m 6957.7301,2501.2054 -32.5729,0 -32.5729,0 16.2865,-28.209 16.2864,-28.209 16.2865,28.209 z"
             inkscape:transform-center-y="-9.4028683"
             inkscape:transform-center-x="-5.4962085e-005" />
          <path
             inkscape:transform-center-y="-16.243142"
             d="m 8055.647,2514.4635 -101.7188,0 -101.7188,0 50.8594,-88.0911 50.8594,-88.0911 50.8594,88.0911 z"
             inkscape:randomized="0"
             inkscape:rounded="0"
             inkscape:flatsided="false"
             sodipodi:arg2="1.5707963"
             sodipodi:arg1="0.52359878"
             sodipodi:r2="58.727386"
             sodipodi:r1="117.45477"
             sodipodi:cy="2455.7361"
             sodipodi:cx="7953.9282"
             sodipodi:sides="3"
             id="path4776"
             style="opacity:1;fill:#8dd35f;fill-opacity:1;stroke:none;stroke-opacity:1"
             sodipodi:type="star"
             transform="matrix(0.34805103,0,0,0.55317181,4224.7604,1110.275)"
             inkscape:transform-center-x="-5.0991739e-005" />
        </g>
      </g>
      <g
         transform="translate(-1200.7572,0)"
         id="g4790">
        <g
           id="g4792">
          <path
             sodipodi:type="star"
             style="opacity:1;fill:#8dd35f;fill-opacity:1;stroke:none;stroke-opacity:1"
             id="path4794"
             sodipodi:sides="3"
             sodipodi:cx="6650.8662"
             sodipodi:cy="2467.8953"
             sodipodi:r1="66.620102"
             sodipodi:r2="33.310051"
             sodipodi:arg1="0.52359878"
             sodipodi:arg2="1.5707963"
             inkscape:flatsided="false"
             inkscape:rounded="0"
             inkscape:randomized="0"
             d="m 6708.5609,2501.2053 -57.6947,0 -57.6947,0 28.8474,-49.9651 28.8473,-49.965 28.8474,49.965 z"
             inkscape:transform-center-y="-16.655026" />
          <path
             inkscape:transform-center-y="-11.937685"
             d="m 7648.7718,2514.4626 -287.3343,0 -287.3343,0 143.6671,-248.8388 143.6672,-248.8389 143.6672,248.8389 z"
             inkscape:randomized="0"
             inkscape:rounded="0"
             inkscape:flatsided="false"
             sodipodi:arg2="1.5707963"
             sodipodi:arg1="0.52359878"
             sodipodi:r2="165.89256"
             sodipodi:r1="331.78513"
             sodipodi:cy="2348.5701"
             sodipodi:cx="7361.4375"
             sodipodi:sides="3"
             id="path4796"
             style="opacity:1;fill:#8dd35f;fill-opacity:1;stroke:none;stroke-opacity:1"
             sodipodi:type="star"
             transform="matrix(0.32022513,0,0,0.14392041,4443.2551,2139.3225)"
             inkscape:transform-center-x="4.3750444e-005" />
          <path
             sodipodi:type="star"
             style="opacity:1;fill:#8dd35f;fill-opacity:1;stroke:none;stroke-opacity:1"
             id="path4798"
             sodipodi:sides="3"
             sodipodi:cx="6925.1572"
             sodipodi:cy="2482.3994"
             sodipodi:r1="37.611969"
             sodipodi:r2="18.805984"
             sodipodi:arg1="0.52359878"
             sodipodi:arg2="1.5707963"
             inkscape:flatsided="false"
             inkscape:rounded="0"
             inkscape:randomized="0"
             d="m 6957.7301,2501.2054 -32.5729,0 -32.5729,0 16.2865,-28.209 16.2864,-28.209 16.2865,28.209 z"
             inkscape:transform-center-y="-9.4028683"
             inkscape:transform-center-x="-5.4962085e-005" />
          <path
             inkscape:transform-center-y="-16.243142"
             d="m 8055.647,2514.4635 -101.7188,0 -101.7188,0 50.8594,-88.0911 50.8594,-88.0911 50.8594,88.0911 z"
             inkscape:randomized="0"
             inkscape:rounded="0"
             inkscape:flatsided="false"
             sodipodi:arg2="1.5707963"
             sodipodi:arg1="0.52359878"
             sodipodi:r2="58.727386"
             sodipodi:r1="117.45477"
             sodipodi:cy="2455.7361"
             sodipodi:cx="7953.9282"
             sodipodi:sides="3"
             id="path4800"
             style="opacity:1;fill:#8dd35f;fill-opacity:1;stroke:none;stroke-opacity:1"
             sodipodi:type="star"
             transform="matrix(0.34805103,0,0,0.55317181,4224.7604,1110.275)"
             inkscape:transform-center-x="-5.0991739e-005" />
        </g>
        <g
           transform="matrix(-1,0,0,1,14057.073,0)"
           id="g4802">
          <path
             inkscape:transform-center-y="-16.655026"
             d="m 6708.5609,2501.2053 -57.6947,0 -57.6947,0 28.8474,-49.9651 28.8473,-49.965 28.8474,49.965 z"
             inkscape:randomized="0"
             inkscape:rounded="0"
             inkscape:flatsided="false"
             sodipodi:arg2="1.5707963"
             sodipodi:arg1="0.52359878"
             sodipodi:r2="33.310051"
             sodipodi:r1="66.620102"
             sodipodi:cy="2467.8953"
             sodipodi:cx="6650.8662"
             sodipodi:sides="3"
             id="path4804"
             style="opacity:1;fill:#8dd35f;fill-opacity:1;stroke:none;stroke-opacity:1"
             sodipodi:type="star" />
          <path
             inkscape:transform-center-x="4.3750444e-005"
             transform="matrix(0.32022513,0,0,0.14392041,4443.2551,2139.3225)"
             sodipodi:type="star"
             style="opacity:1;fill:#8dd35f;fill-opacity:1;stroke:none;stroke-opacity:1"
             id="path4806"
             sodipodi:sides="3"
             sodipodi:cx="7361.4375"
             sodipodi:cy="2348.5701"
             sodipodi:r1="331.78513"
             sodipodi:r2="165.89256"
             sodipodi:arg1="0.52359878"
             sodipodi:arg2="1.5707963"
             inkscape:flatsided="false"
             inkscape:rounded="0"
             inkscape:randomized="0"
             d="m 7648.7718,2514.4626 -287.3343,0 -287.3343,0 143.6671,-248.8388 143.6672,-248.8389 143.6672,248.8389 z"
             inkscape:transform-center-y="-11.937685" />
          <path
             inkscape:transform-center-x="-5.4962085e-005"
             inkscape:transform-center-y="-9.4028683"
             d="m 6957.7301,2501.2054 -32.5729,0 -32.5729,0 16.2865,-28.209 16.2864,-28.209 16.2865,28.209 z"
             inkscape:randomized="0"
             inkscape:rounded="0"
             inkscape:flatsided="false"
             sodipodi:arg2="1.5707963"
             sodipodi:arg1="0.52359878"
             sodipodi:r2="18.805984"
             sodipodi:r1="37.611969"
             sodipodi:cy="2482.3994"
             sodipodi:cx="6925.1572"
             sodipodi:sides="3"
             id="path4808"
             style="opacity:1;fill:#8dd35f;fill-opacity:1;stroke:none;stroke-opacity:1"
             sodipodi:type="star" />
          <path
             inkscape:transform-center-x="-5.0991739e-005"
             transform="matrix(0.34805103,0,0,0.55317181,4224.7604,1110.275)"
             sodipodi:type="star"
             style="opacity:1;fill:#8dd35f;fill-opacity:1;stroke:none;stroke-opacity:1"
             id="path4810"
             sodipodi:sides="3"
             sodipodi:cx="7953.9282"
             sodipodi:cy="2455.7361"
             sodipodi:r1="117.45477"
             sodipodi:r2="58.727386"
             sodipodi:arg1="0.52359878"
             sodipodi:arg2="1.5707963"
             inkscape:flatsided="false"
             inkscape:rounded="0"
             inkscape:randomized="0"
             d="m 8055.647,2514.4635 -101.7188,0 -101.7188,0 50.8594,-88.0911 50.8594,-88.0911 50.8594,88.0911 z"
             inkscape:transform-center-y="-16.243142" />
        </g>
      </g>
    </g>
  </g>
</svg>
