<?xml version="1.0" encoding="UTF-8" standalone="no"?>
<!-- Created with Inkscape (http://www.inkscape.org/) -->

<svg
   xmlns:dc="http://purl.org/dc/elements/1.1/"
   xmlns:cc="http://creativecommons.org/ns#"
   xmlns:rdf="http://www.w3.org/1999/02/22-rdf-syntax-ns#"
   xmlns:svg="http://www.w3.org/2000/svg"
   xmlns="http://www.w3.org/2000/svg"
   xmlns:sodipodi="http://sodipodi.sourceforge.net/DTD/sodipodi-0.dtd"
   xmlns:inkscape="http://www.inkscape.org/namespaces/inkscape"
   width="386"
   height="158.57961"
   id="svg2"
   version="1.1"
   inkscape:version="0.48.5 r10040"
   sodipodi:docname="New document 1">
  <defs
     id="defs4" />
  <sodipodi:namedview
     id="base"
     pagecolor="#ffffff"
     bordercolor="#666666"
     borderopacity="1.0"
     inkscape:pageopacity="0.0"
     inkscape:pageshadow="2"
     inkscape:zoom="1"
     inkscape:cx="48.931372"
     inkscape:cy="67.737966"
     inkscape:document-units="px"
     inkscape:current-layer="layer1"
     showgrid="false"
     showborder="true"
     inkscape:snap-center="true"
     fit-margin-top="0"
     fit-margin-left="0"
     fit-margin-right="0"
     fit-margin-bottom="0"
     inkscape:window-width="1920"
     inkscape:window-height="1017"
     inkscape:window-x="-8"
     inkscape:window-y="-8"
     inkscape:window-maximized="1" />
  <metadata
     id="metadata7">
    <rdf:RDF>
      <cc:Work
         rdf:about="">
        <dc:format>image/svg+xml</dc:format>
        <dc:type
           rdf:resource="http://purl.org/dc/dcmitype/StillImage" />
        <dc:title></dc:title>
      </cc:Work>
    </rdf:RDF>
  </metadata>
  <g
     inkscape:label="Layer 1"
     inkscape:groupmode="layer"
     id="layer1"
     transform="translate(498,-370.78257)">
    <path
       sodipodi:nodetypes="ccsssssssc"
       inkscape:connector-curvature="0"
       id="path3889"
       d="M -366.54475,371.87871 -305,396.62745 l 61.54475,-24.74874 c 15.25871,-6.13592 22.6438,14.82423 29.68629,29.6863 L -179,474.93935 c 9.72645,20.52613 -18.286,41 -41,41 l -170,0 c -22.714,0 -50.72645,-20.47387 -41,-41 l 34.76896,-73.37434 c 7.04249,-14.86207 13.24008,-29.6863 29.68629,-29.6863 z"
       style="fill:#37c871;fill-opacity:1;stroke:none" />
    <path
       style="fill:#37c871;fill-opacity:1;stroke:none"
       d="m -459,465.36218 308,0 c 21.606,0 39,14.272 39,32 0,17.728 -17.394,32 -39,32 l -308,0 c -21.606,0 -39,-14.272 -39,-32 0,-17.728 17.394,-32 39,-32 z"
       id="rect3891"
       inkscape:connector-curvature="0" />
    <path
       style="fill:#ffdd55;fill-opacity:1;stroke:none"
       d="m -409.25916,457.86218 208.5183,0 c 4.709,0 8.5,3.791 8.5,8.5 0,4.709 -3.791,8.5 -8.5,8.5 l -208.5183,0 c -4.709,0 -8.5,-3.791 -8.5,-8.5 0,-4.709 3.791,-8.5 8.5,-8.5 z"
       id="rect3893"
       inkscape:connector-curvature="0" />
    <g
       id="g3988">
      <path
         style="fill:#ff8080;fill-opacity:1;stroke:none"
         d="m -151.07111,411.24091 -20.27907,51.77555 c -0.45796,1.16925 -1.76796,1.74188 -2.93721,1.28391 -1.16926,-0.45796 -1.74189,-1.76796 -1.28392,-2.93721 l 20.27907,-51.77555 c 0.45796,-1.16926 1.76796,-1.74188 2.93721,-1.28392 1.16926,0.45797 1.74189,1.76797 1.28392,2.93722 z"
         id="path3897"
         inkscape:connector-curvature="0" />
      <path
         inkscape:connector-curvature="0"
         id="path3901"
         d="m -154.17668,408.85424 22.61476,-9.88535 c 1.15062,-0.50296 2.48184,0.0184 2.9848,1.16906 0.50295,1.15062 -0.0185,2.48183 -1.16907,2.98479 l -22.61476,9.88536 c -1.15062,0.50296 -2.48184,-0.0184 -2.9848,-1.16906 -0.50296,-1.15062 0.0185,-2.48184 1.16907,-2.9848 z"
         style="fill:#ff8080;fill-opacity:1;stroke:none" />
      <path
         inkscape:connector-curvature="0"
         id="path3903"
         d="m -151.39185,409.94498 -9.88535,-22.61476 c -0.50296,-1.15062 -1.83418,-1.67202 -2.9848,-1.16907 -1.15062,0.50296 -1.67202,1.83418 -1.16906,2.9848 l 9.88536,22.61477 c 0.50296,1.15061 1.83417,1.67202 2.98479,1.16906 1.15062,-0.50296 1.67202,-1.83418 1.16906,-2.9848 z"
         style="fill:#ff8080;fill-opacity:1;stroke:none" />
      <path
         inkscape:connector-curvature="0"
         id="path3907"
         d="m -158.44484,419.75148 22.61477,-9.88535 c 1.15062,-0.50296 2.48184,0.0184 2.98479,1.16906 0.50296,1.15062 -0.0184,2.48183 -1.16906,2.98479 l -22.61477,9.88536 c -1.15061,0.50296 -2.48183,-0.0184 -2.98479,-1.16906 -0.50296,-1.15062 0.0184,-2.48184 1.16906,-2.9848 z"
         style="fill:#ff8080;fill-opacity:1;stroke:none" />
      <path
         inkscape:connector-curvature="0"
         id="path3909"
         d="m -155.66,420.84222 -9.88536,-22.61476 c -0.50295,-1.15062 -1.83417,-1.67202 -2.98479,-1.16907 -1.15062,0.50296 -1.67202,1.83418 -1.16906,2.9848 l 9.88535,22.61477 c 0.50296,1.15061 1.83418,1.67202 2.9848,1.16906 1.15062,-0.50296 1.67202,-1.83418 1.16906,-2.9848 z"
         style="fill:#ff8080;fill-opacity:1;stroke:none" />
      <path
         inkscape:connector-curvature="0"
         id="path3913"
         d="m -162.71299,430.64873 22.61477,-9.88535 c 1.15061,-0.50296 2.48183,0.0184 2.98479,1.16906 0.50296,1.15062 -0.0184,2.48183 -1.16906,2.98479 l -22.61477,9.88536 c -1.15062,0.50296 -2.48184,-0.0184 -2.98479,-1.16906 -0.50296,-1.15062 0.0184,-2.48184 1.16906,-2.9848 z"
         style="fill:#ff8080;fill-opacity:1;stroke:none" />
      <path
         inkscape:connector-curvature="0"
         id="path3915"
         d="m -159.92815,431.73947 -9.88536,-22.61476 c -0.50296,-1.15062 -1.83418,-1.67202 -2.98479,-1.16907 -1.15062,0.50296 -1.67202,1.83418 -1.16907,2.9848 l 9.88536,22.61477 c 0.50296,1.15061 1.83418,1.67202 2.9848,1.16906 1.15061,-0.50296 1.67202,-1.83418 1.16906,-2.9848 z"
         style="fill:#ff8080;fill-opacity:1;stroke:none" />
      <path
         inkscape:connector-curvature="0"
         id="path3917"
         d="m -162.71299,430.64873 22.61477,-9.88535 c 1.15061,-0.50296 2.48183,0.0184 2.98479,1.16906 0.50296,1.15062 -0.0184,2.48183 -1.16906,2.98479 l -22.61477,9.88536 c -1.15062,0.50296 -2.48184,-0.0184 -2.98479,-1.16906 -0.50296,-1.15062 0.0184,-2.48184 1.16906,-2.9848 z"
         style="fill:#ff8080;fill-opacity:1;stroke:none" />
      <path
         inkscape:connector-curvature="0"
         id="path3921"
         d="m -166.98114,441.54597 22.61476,-9.88535 c 1.15062,-0.50296 2.48184,0.0184 2.9848,1.16906 0.50296,1.15062 -0.0184,2.48183 -1.16907,2.98479 l -22.61476,9.88536 c -1.15062,0.50296 -2.48184,-0.0184 -2.9848,-1.16906 -0.50295,-1.15062 0.0184,-2.48184 1.16907,-2.9848 z"
         style="fill:#ff8080;fill-opacity:1;stroke:none" />
      <path
         inkscape:connector-curvature="0"
         id="path3923"
         d="m -164.1963,442.63671 -9.88536,-22.61476 c -0.50296,-1.15062 -1.83418,-1.67202 -2.9848,-1.16907 -1.15061,0.50296 -1.67202,1.83418 -1.16906,2.9848 l 9.88536,22.61477 c 0.50296,1.15061 1.83417,1.67202 2.98479,1.16906 1.15062,-0.50296 1.67202,-1.83418 1.16907,-2.9848 z"
         style="fill:#ff8080;fill-opacity:1;stroke:none" />
      <path
         inkscape:connector-curvature="0"
         id="path3925"
         d="m -166.98114,441.54597 22.61476,-9.88535 c 1.15062,-0.50296 2.48184,0.0184 2.9848,1.16906 0.50296,1.15062 -0.0184,2.48183 -1.16907,2.98479 l -22.61476,9.88536 c -1.15062,0.50296 -2.48184,-0.0184 -2.9848,-1.16906 -0.50295,-1.15062 0.0184,-2.48184 1.16907,-2.9848 z"
         style="fill:#ff8080;fill-opacity:1;stroke:none" />
      <path
         inkscape:connector-curvature="0"
         id="path3929"
         d="m -171.24929,452.44321 22.61476,-9.88535 c 1.15062,-0.50296 2.48184,0.0184 2.9848,1.16906 0.50296,1.15062 -0.0185,2.48183 -1.16906,2.98479 l -22.61477,9.88536 c -1.15062,0.50296 -2.48184,-0.0184 -2.9848,-1.16906 -0.50295,-1.15062 0.0185,-2.48184 1.16907,-2.9848 z"
         style="fill:#ff8080;fill-opacity:1;stroke:none" />
      <path
         inkscape:connector-curvature="0"
         id="path3931"
         d="m -168.46445,453.53395 -9.88536,-22.61476 c -0.50296,-1.15062 -1.83418,-1.67202 -2.9848,-1.16907 -1.15061,0.50296 -1.67202,1.83418 -1.16906,2.9848 l 9.88536,22.61477 c 0.50296,1.15061 1.83418,1.67202 2.98479,1.16906 1.15062,-0.50296 1.67202,-1.83418 1.16907,-2.9848 z"
         style="fill:#ff8080;fill-opacity:1;stroke:none" />
      <path
         inkscape:connector-curvature="0"
         id="path3933"
         d="m -171.24929,452.44321 22.61476,-9.88535 c 1.15062,-0.50296 2.48184,0.0184 2.9848,1.16906 0.50296,1.15062 -0.0185,2.48183 -1.16906,2.98479 l -22.61477,9.88536 c -1.15062,0.50296 -2.48184,-0.0184 -2.9848,-1.16906 -0.50295,-1.15062 0.0185,-2.48184 1.16907,-2.9848 z"
         style="fill:#ff8080;fill-opacity:1;stroke:none" />
      <path
         inkscape:connector-curvature="0"
         id="path3937"
         d="m -175.51744,463.34045 22.61476,-9.88535 c 1.15062,-0.50296 2.48184,0.0184 2.9848,1.16906 0.50296,1.15062 -0.0185,2.48183 -1.16907,2.98479 l -22.61476,9.88536 c -1.15062,0.50296 -2.48184,-0.0184 -2.9848,-1.16906 -0.50295,-1.15062 0.0185,-2.48184 1.16907,-2.9848 z"
         style="fill:#ff8080;fill-opacity:1;stroke:none" />
      <path
         inkscape:connector-curvature="0"
         id="path3939"
         d="m -172.7326,464.43119 -9.88536,-22.61476 c -0.50296,-1.15062 -1.83418,-1.67202 -2.9848,-1.16907 -1.15061,0.50296 -1.67202,1.83418 -1.16906,2.9848 l 9.88536,22.61477 c 0.50296,1.15061 1.83417,1.67202 2.98479,1.16906 1.15062,-0.50296 1.67202,-1.83418 1.16907,-2.9848 z"
         style="fill:#ff8080;fill-opacity:1;stroke:none" />
      <path
         inkscape:connector-curvature="0"
         id="path3941"
         d="m -175.51744,463.34045 22.61476,-9.88535 c 1.15062,-0.50296 2.48184,0.0184 2.9848,1.16906 0.50296,1.15062 -0.0185,2.48183 -1.16907,2.98479 l -22.61476,9.88536 c -1.15062,0.50296 -2.48184,-0.0184 -2.9848,-1.16906 -0.50295,-1.15062 0.0185,-2.48184 1.16907,-2.9848 z"
         style="fill:#ff8080;fill-opacity:1;stroke:none" />
    </g>
    <path
       style="font-size:medium;font-style:normal;font-variant:normal;font-weight:normal;font-stretch:normal;text-indent:0;text-align:start;text-decoration:none;line-height:normal;letter-spacing:normal;word-spacing:normal;text-transform:none;direction:ltr;block-progression:tb;writing-mode:lr-tb;text-anchor:start;baseline-shift:baseline;color:#000000;fill:#7bdba1;fill-opacity:1;stroke:none;stroke-width:7.90768242;marker:none;visibility:visible;display:inline;overflow:visible;enable-background:accumulate;font-family:Sans;-inkscape-font-specification:Sans"
       d="m -454.78125,468.90625 c -18.34956,0 -33.3125,14.96294 -33.3125,33.3125 a 3.9542366,3.9542366 0 1 0 7.90625,0 c 0,-14.07592 11.33033,-25.40625 25.40625,-25.40625 a 3.9542366,3.9542366 0 1 0 0,-7.90625 z"
       id="path3943"
       inkscape:connector-curvature="0" />
  </g>
</svg>
