<?xml version="1.0" encoding="UTF-8" standalone="no"?>
<!-- Created with Inkscape (http://www.inkscape.org/) -->

<svg
   xmlns:dc="http://purl.org/dc/elements/1.1/"
   xmlns:cc="http://creativecommons.org/ns#"
   xmlns:rdf="http://www.w3.org/1999/02/22-rdf-syntax-ns#"
   xmlns:svg="http://www.w3.org/2000/svg"
   xmlns="http://www.w3.org/2000/svg"
   xmlns:inkscape="http://www.inkscape.org/namespaces/inkscape"
   version="1.1"
   width="210mm"
   height="297mm"
   viewBox="0 0 744.09449 1052.3622"
   id="svg2">
  <defs
     id="defs4">
    <inkscape:path-effect
       id="path-effect4144" />
    <inkscape:path-effect
       effect="spiro"
       id="path-effect4142" />
  </defs>
  <metadata
     id="metadata7">
    <rdf:RDF>
      <cc:Work
         rdf:about="">
        <dc:format>image/svg+xml</dc:format>
        <dc:type
           rdf:resource="http://purl.org/dc/dcmitype/StillImage" />
        <dc:title></dc:title>
      </cc:Work>
    </rdf:RDF>
  </metadata>
  <g
     id="layer1">
    <g
       transform="translate(183.84776,-3.5355339)"
       id="g4192">
      <path
         d="m 306.8594,698.03149 0,-177.16535 0,-177.16536 0,-177.16536 L 153.4297,77.952745 0,-10.629933 l -153.4297,-88.582678 -153.4297,-88.582679 -153.4297,-88.58268 0,177.165359 0,177.165356 0,177.165355 z"
         id="path4148"
         style="fill:#333333;fill-rule:evenodd;stroke:none" />
      <path
         d="m -429.60316,-223.22836 0,460.62993 705.77662,407.48032 0,-460.62993 z"
         id="path4150"
         style="fill:#80b3ff;fill-opacity:1;fill-rule:evenodd;stroke:none" />
      <path
         d="m -460.2891,-276.37797 30.68594,-17.71653 767.1485,442.91339 -30.68594,17.71653 z"
         id="path4152"
         style="fill:#ececec;fill-rule:evenodd;stroke:none" />
      <path
         d="m 306.8594,166.53542 30.68594,-17.71653 0,531.49607 -30.68594,17.71653 z"
         id="path4154"
         style="fill:#bbbbbb;fill-opacity:1;fill-rule:evenodd;stroke:none" />
      <path
         d="m -460.2891,255.1181 -153.4297,88.58268 -153.4297,88.58268 -153.4297,88.58268 153.4297,88.58267 153.4297,88.58268 153.4297,88.58268 153.4297,88.58268 153.4297,88.58268 L 0,875.19685 153.4297,786.61417 306.8594,698.03149 153.4297,609.44881 0,520.86614 -153.4297,432.28346 -306.8594,343.70078 z"
         id="path4156"
         style="fill:#ececec;fill-opacity:1;fill-rule:evenodd;stroke:none" />
      <path
         d="m -920.5782,520.86614 0,35.43307 767.1485,442.91339 0,-35.43307 -767.1485,-442.91339 z"
         id="path4158"
         style="fill:#d4d4d4;fill-opacity:1;fill-rule:evenodd;stroke:none" />
      <path
         d="m -153.4297,963.77953 0,35.43307 490.97504,-283.46457 0,-35.43307 z"
         id="path4160"
         style="fill:#bbbbbb;fill-opacity:1;fill-rule:evenodd;stroke:none" />
      <path
         d="M -460.2891,290.55117 245.48752,698.03149 0,839.76378 -705.77662,432.28346 z"
         id="path4162"
         style="fill:#d2d2d2;fill-opacity:1;fill-rule:evenodd;stroke:none" />
      <path
         d="m -460.2891,609.44881 -30.68594,17.71654 -30.68594,17.71654 -30.68594,17.71653 30.68594,17.71654 30.68594,17.71653 30.68594,17.71654 30.68594,17.71653 30.68594,17.71654 92.05782,-53.14961 -153.4297,-88.58268 z"
         id="path4164"
         style="fill:#d2d2d2;fill-opacity:1;fill-rule:evenodd;stroke:none" />
      <path
         d="M 337.54534,148.81889 828.52038,432.28346 337.54534,715.74803 z"
         id="path4166"
         style="opacity:0.06499999;fill:#000000;fill-rule:evenodd;stroke:none" />
    </g>
  </g>
</svg>
