<?xml version="1.0" encoding="UTF-8" standalone="no"?>
<!-- Created with Inkscape (http://www.inkscape.org/) -->

<svg
   xmlns:dc="http://purl.org/dc/elements/1.1/"
   xmlns:cc="http://creativecommons.org/ns#"
   xmlns:rdf="http://www.w3.org/1999/02/22-rdf-syntax-ns#"
   xmlns:svg="http://www.w3.org/2000/svg"
   xmlns="http://www.w3.org/2000/svg"
   xmlns:sodipodi="http://sodipodi.sourceforge.net/DTD/sodipodi-0.dtd"
   xmlns:inkscape="http://www.inkscape.org/namespaces/inkscape"
   width="407.42639"
   height="407.42639"
   id="svg2"
   version="1.1"
   inkscape:version="0.48.5 r10040"
   inkscape:export-filename="C:\Users\Brayan\Desktop\LG.png"
   inkscape:export-xdpi="90"
   inkscape:export-ydpi="90"
   sodipodi:docname="New document 1">
  <defs
     id="defs4" />
  <sodipodi:namedview
     id="base"
     pagecolor="#ffffff"
     bordercolor="#666666"
     borderopacity="1.0"
     inkscape:pageopacity="1"
     inkscape:pageshadow="2"
     inkscape:zoom="0.70710678"
     inkscape:cx="430.59031"
     inkscape:cy="6.0294418"
     inkscape:document-units="px"
     inkscape:current-layer="layer1"
     showgrid="false"
     showborder="true"
     inkscape:snap-center="true"
     inkscape:snap-bbox="true"
     inkscape:bbox-paths="true"
     inkscape:bbox-nodes="true"
     inkscape:snap-bbox-edge-midpoints="true"
     inkscape:snap-bbox-midpoints="true"
     inkscape:snap-smooth-nodes="true"
     inkscape:object-nodes="true"
     inkscape:snap-global="true"
     inkscape:window-width="1920"
     inkscape:window-height="1017"
     inkscape:window-x="-8"
     inkscape:window-y="-8"
     inkscape:window-maximized="1"
     fit-margin-top="16"
     fit-margin-left="16"
     fit-margin-right="16"
     fit-margin-bottom="16" />
  <metadata
     id="metadata7">
    <rdf:RDF>
      <cc:Work
         rdf:about="">
        <dc:format>image/svg+xml</dc:format>
        <dc:type
           rdf:resource="http://purl.org/dc/dcmitype/StillImage" />
        <dc:title></dc:title>
      </cc:Work>
    </rdf:RDF>
  </metadata>
  <g
     inkscape:label="Layer 1"
     inkscape:groupmode="layer"
     id="layer1"
     transform="translate(681.71738,-189.62545)">
    <path
       sodipodi:type="arc"
       style="fill:#ff8080;fill-opacity:1;stroke:none"
       id="path3016"
       sodipodi:cx="-478.00418"
       sodipodi:cy="393.33865"
       sodipodi:rx="203.64676"
       sodipodi:ry="203.64676"
       d="m -274.35742,393.33865 c 0,112.471 -91.17576,203.64676 -203.64676,203.64676 -112.471,0 -203.64676,-91.17576 -203.64676,-203.64676 0,-112.471 91.17576,-203.64676 203.64676,-203.64676 112.471,0 203.64676,91.17576 203.64676,203.64676 z"
       transform="matrix(0.92175885,0,0,0.92175885,-37.399594,30.775267)" />
    <path
       style="fill:#ffffff;fill-opacity:1;stroke:none"
       d="m -478,234.34375 c -87.81328,0 -159,71.18672 -159,159 0,87.81328 71.18672,159 159,159 87.81328,0 159,-71.18672 159,-159 l 0,-7.5 -119.71875,0 0,7.5 112.21875,0 c 0,83.67889 -67.82111,151.53125 -151.5,151.53125 -83.67889,0 -151.5,-67.85236 -151.5,-151.53125 0,-83.67889 67.82111,-151.53125 151.5,-151.53125 l 0,-7.46875 z"
       id="path2991"
       inkscape:connector-curvature="0" />
    <path
       style="fill:#ffffff;fill-opacity:1;stroke:none"
       d="m -485.5,307.125 0,171.28125 7.5,0 39.28125,0 0,-7.5 -39.28125,0 0,-163.78125 -7.5,0 z"
       id="rect3004"
       inkscape:connector-curvature="0" />
    <path
       sodipodi:type="arc"
       style="fill:#ffffff;fill-opacity:1;stroke:none"
       id="path3010"
       sodipodi:cx="-326"
       sodipodi:cy="-215.63782"
       sodipodi:rx="80"
       sodipodi:ry="80"
       d="m -246,-215.63782 c 0,44.18278 -35.81722,80 -80,80 -44.18278,0 -80,-35.81722 -80,-80 0,-44.18278 35.81722,-80 80,-80 44.18278,0 80,35.81722 80,80 z"
       transform="matrix(0.27325487,0,0,0.27325487,-452.92309,387.89559)" />
  </g>
</svg>
