<?xml version="1.0" encoding="UTF-8" standalone="no"?>
<!-- Created with Inkscape (http://www.inkscape.org/) -->

<svg
   xmlns:dc="http://purl.org/dc/elements/1.1/"
   xmlns:cc="http://creativecommons.org/ns#"
   xmlns:rdf="http://www.w3.org/1999/02/22-rdf-syntax-ns#"
   xmlns:svg="http://www.w3.org/2000/svg"
   xmlns="http://www.w3.org/2000/svg"
   xmlns:sodipodi="http://sodipodi.sourceforge.net/DTD/sodipodi-0.dtd"
   xmlns:inkscape="http://www.inkscape.org/namespaces/inkscape"
   width="210mm"
   height="297mm"
   viewBox="0 0 744.09448819 1052.3622047"
   id="svg36580"
   version="1.1"
   inkscape:version="0.91 r13725"
   sodipodi:docname="Brick Wall.svg">
  <defs
     id="defs36582" />
  <sodipodi:namedview
     id="base"
     pagecolor="#ffffff"
     bordercolor="#666666"
     borderopacity="1.0"
     inkscape:pageopacity="0.0"
     inkscape:pageshadow="2"
     inkscape:zoom="0.35"
     inkscape:cx="-52.142857"
     inkscape:cy="520"
     inkscape:document-units="px"
     inkscape:current-layer="layer1"
     showgrid="false"
     inkscape:window-width="1680"
     inkscape:window-height="987"
     inkscape:window-x="-8"
     inkscape:window-y="-8"
     inkscape:window-maximized="1"
     showborder="false" />
  <metadata
     id="metadata36585">
    <rdf:RDF>
      <cc:Work
         rdf:about="">
        <dc:format>image/svg+xml</dc:format>
        <dc:type
           rdf:resource="http://purl.org/dc/dcmitype/StillImage" />
        <dc:title></dc:title>
      </cc:Work>
    </rdf:RDF>
  </metadata>
  <g
     inkscape:label="Layer 1"
     inkscape:groupmode="layer"
     id="layer1">
    <rect
       style="opacity:1;fill:#ffffff;fill-opacity:1;stroke:none;stroke-opacity:1"
       id="rect36568"
       width="697.20728"
       height="671.04565"
       x="-368.60364"
       y="333.98224"
       inkscape:export-xdpi="66.089996"
       inkscape:export-ydpi="66.089996" />
    <path
       style="opacity:1;fill:#ffaaaa;fill-opacity:1;stroke:none;stroke-opacity:1"
       d="m -347.51757,377.54802 0,11 42,0 0,-11 -42,0 z m 53.2754,0 0,11 41.99999,0 0,-11 -41.99999,0 z m 53.27739,0 0,11 42,0 0,-11 -42,0 z m 53.2754,0 0,11 42,0 0,-11 -42,0 z m 53.2753,0 0,11 42.000002,0 0,-11 -42.000002,0 z m 53.275402,0 0,11 42,0 0,-11 -42,0 z m 53.2774,0 0,11 42,0 0,-11 -42,0 z m 53.2754,0 0,11 42,0 0,-11 -42,0 z m 53.2754,0 0,11 41.999998,0 0,-11 -41.999998,0 z m 53.275298,0 0,11 42,0 0,-11 -42,0 z m 53.2774,0 0,11 42,0 0,-11 -42,0 z m 53.2754,0 0,11 42,0 0,-11 -42,0 z m -559.03519,27.28125 0,11 42,0 0,-11 -42,0 z m 53.27539,0 0,11 42,0 0,-11 -42,0 z m 53.2774,0 0,11 42,0 0,-11 -42,0 z m 53.2754,0 0,11 42,0 0,-11 -42,0 z m 53.2753,0 0,11 42.000002,0 0,-11 -42.000002,0 z m 53.275402,0 0,11 42,0 0,-11 -42,0 z m 53.2774003,0 0,11 41.9999997,0 0,-11 -41.9999997,0 z m 53.2753997,0 0,11 42,0 0,-11 -42,0 z m 53.275398,0 0,11 42,0 0,-11 -42,0 z m 53.2753,0 0,11 42,0 0,-11 -42,0 z m 53.2774,0 0,11 42,0 0,-11 -42,0 z m 53.2754,0 0,11 42,0 0,-11 -42,0 z m -613.03519,27.28125 0,11 42,0 0,-11 -42,0 z m 53.2754,0 0,11 41.99999,0 0,-11 -41.99999,0 z m 53.27739,0 0,11 42,0 0,-11 -42,0 z m 53.2754,0 0,11 42,0 0,-11 -42,0 z m 53.2753,0 0,11 42.000002,0 0,-11 -42.000002,0 z m 53.275402,0 0,11 42,0 0,-11 -42,0 z m 53.2774,0 0,11 42,0 0,-11 -42,0 z m 53.2754,0 0,11 42,0 0,-11 -42,0 z m 53.2754,0 0,11 41.999998,0 0,-11 -41.999998,0 z m 53.275298,0 0,11 42,0 0,-11 -42,0 z m 53.2774,0 0,11 42,0 0,-11 -42,0 z m 53.2754,0 0,11 42,0 0,-11 -42,0 z m -559.03519,27.2832 0,11 42,0 0,-11 -42,0 z m 53.27539,0 0,11 42,0 0,-11 -42,0 z m 53.2774,0 0,11 42,0 0,-11 -42,0 z m 53.2754,0 0,11 42,0 0,-11 -42,0 z m 53.2753,0 0,11 42.000002,0 0,-11 -42.000002,0 z m 53.275402,0 0,11 42,0 0,-11 -42,0 z m 53.2774003,0 0,11 41.9999997,0 0,-11 -41.9999997,0 z m 53.2753997,0 0,11 42,0 0,-11 -42,0 z m 53.275398,0 0,11 42,0 0,-11 -42,0 z m 53.2753,0 0,11 42,0 0,-11 -42,0 z m 53.2774,0 0,11 42,0 0,-11 -42,0 z m 53.2754,0 0,11 42,0 0,-11 -42,0 z m -613.03519,27.28125 0,11 42,0 0,-11 -42,0 z m 53.2754,0 0,11 41.99999,0 0,-11 -41.99999,0 z m 53.27739,0 0,11 42,0 0,-11 -42,0 z m 53.2754,0 0,11 42,0 0,-11 -42,0 z m 53.2753,0 0,11 42.000002,0 0,-11 -42.000002,0 z m 53.275402,0 0,11 42,0 0,-11 -42,0 z m 53.2774,0 0,11 42,0 0,-11 -42,0 z m 53.2754,0 0,11 42,0 0,-11 -42,0 z m 53.2754,0 0,11 41.999998,0 0,-11 -41.999998,0 z m 53.275298,0 0,11 42,0 0,-11 -42,0 z m 53.2774,0 0,11 42,0 0,-11 -42,0 z m 53.2754,0 0,11 42,0 0,-11 -42,0 z m -559.03519,27.28125 0,11 42,0 0,-11 -42,0 z m 53.27539,0 0,11 42,0 0,-11 -42,0 z m 53.2774,0 0,11 42,0 0,-11 -42,0 z m 53.2754,0 0,11 42,0 0,-11 -42,0 z m 53.2753,0 0,11 42.000002,0 0,-11 -42.000002,0 z m 53.275402,0 0,11 42,0 0,-11 -42,0 z m 53.2774003,0 0,11 41.9999997,0 0,-11 -41.9999997,0 z m 53.2753997,0 0,11 42,0 0,-11 -42,0 z m 53.275398,0 0,11 42,0 0,-11 -42,0 z m 53.2753,0 0,11 42,0 0,-11 -42,0 z m 53.2774,0 0,11 42,0 0,-11 -42,0 z m 53.2754,0 0,11 42,0 0,-11 -42,0 z m -613.03519,27.28125 0,11 42,0 0,-11 -42,0 z m 53.2754,0 0,11 41.99999,0 0,-11 -41.99999,0 z m 53.27739,0 0,11 42,0 0,-11 -42,0 z m 53.2754,0 0,11 42,0 0,-11 -42,0 z m 53.2753,0 0,11 42.000002,0 0,-11 -42.000002,0 z m 53.275402,0 0,11 42,0 0,-11 -42,0 z m 53.2774,0 0,11 42,0 0,-11 -42,0 z m 53.2754,0 0,11 42,0 0,-11 -42,0 z m 53.2754,0 0,11 41.999998,0 0,-11 -41.999998,0 z m 53.275298,0 0,11 42,0 0,-11 -42,0 z m 53.2774,0 0,11 42,0 0,-11 -42,0 z m 53.2754,0 0,11 42,0 0,-11 -42,0 z m -559.03519,27.28125 0,11 42,0 0,-11 -42,0 z m 53.27539,0 0,11 42,0 0,-11 -42,0 z m 53.2774,0 0,11 42,0 0,-11 -42,0 z m 53.2754,0 0,11 42,0 0,-11 -42,0 z m 53.2753,0 0,11 42.000002,0 0,-11 -42.000002,0 z m 53.275402,0 0,11 42,0 0,-11 -42,0 z m 53.2774003,0 0,11 41.9999997,0 0,-11 -41.9999997,0 z m 53.2753997,0 0,11 42,0 0,-11 -42,0 z m 53.275398,0 0,11 42,0 0,-11 -42,0 z m 53.2753,0 0,11 42,0 0,-11 -42,0 z m 53.2774,0 0,11 42,0 0,-11 -42,0 z m 53.2754,0 0,11 42,0 0,-11 -42,0 z m -613.03519,27.28125 0,11 42,0 0,-11 -42,0 z m 53.2754,0 0,11 41.99999,0 0,-11 -41.99999,0 z m 53.27739,0 0,11 42,0 0,-11 -42,0 z m 53.2754,0 0,11 42,0 0,-11 -42,0 z m 53.2753,0 0,11 42.000002,0 0,-11 -42.000002,0 z m 53.275402,0 0,11 42,0 0,-11 -42,0 z m 53.2774,0 0,11 42,0 0,-11 -42,0 z m 53.2754,0 0,11 42,0 0,-11 -42,0 z m 53.2754,0 0,11 41.999998,0 0,-11 -41.999998,0 z m 53.275298,0 0,11 42,0 0,-11 -42,0 z m 53.2774,0 0,11 42,0 0,-11 -42,0 z m 53.2754,0 0,11 42,0 0,-11 -42,0 z m -559.03519,27.2832 0,11 42,0 0,-11 -42,0 z m 53.27539,0 0,11 42,0 0,-11 -42,0 z m 53.2774,0 0,11 42,0 0,-11 -42,0 z m 53.2754,0 0,11 42,0 0,-11 -42,0 z m 53.2753,0 0,11 42.000002,0 0,-11 -42.000002,0 z m 53.275402,0 0,11 42,0 0,-11 -42,0 z m 53.2774003,0 0,11 41.9999997,0 0,-11 -41.9999997,0 z m 53.2753997,0 0,11 42,0 0,-11 -42,0 z m 53.275398,0 0,11 42,0 0,-11 -42,0 z m 53.2753,0 0,11 42,0 0,-11 -42,0 z m 53.2774,0 0,11 42,0 0,-11 -42,0 z m 53.2754,0 0,11 42,0 0,-11 -42,0 z m -613.03519,27.28125 0,11 42,0 0,-11 -42,0 z m 53.2754,0 0,11 41.99999,0 0,-11 -41.99999,0 z m 53.27739,0 0,11 42,0 0,-11 -42,0 z m 53.2754,0 0,11 42,0 0,-11 -42,0 z m 53.2753,0 0,11 42.000002,0 0,-11 -42.000002,0 z m 53.275402,0 0,11 42,0 0,-11 -42,0 z m 53.2774,0 0,11 42,0 0,-11 -42,0 z m 53.2754,0 0,11 42,0 0,-11 -42,0 z m 53.2754,0 0,11 41.999998,0 0,-11 -41.999998,0 z m 53.275298,0 0,11 42,0 0,-11 -42,0 z m 53.2774,0 0,11 42,0 0,-11 -42,0 z m 53.2754,0 0,11 42,0 0,-11 -42,0 z m -559.03519,27.28125 0,11 42,0 0,-11 -42,0 z m 53.27539,0 0,11 42,0 0,-11 -42,0 z m 53.2774,0 0,11 42,0 0,-11 -42,0 z m 53.2754,0 0,11 42,0 0,-11 -42,0 z m 53.2753,0 0,11 42.000002,0 0,-11 -42.000002,0 z m 53.275402,0 0,11 42,0 0,-11 -42,0 z m 53.2774003,0 0,11 41.9999997,0 0,-11 -41.9999997,0 z m 53.2753997,0 0,11 42,0 0,-11 -42,0 z m 53.275398,0 0,11 42,0 0,-11 -42,0 z m 53.2753,0 0,11 42,0 0,-11 -42,0 z m 53.2774,0 0,11 42,0 0,-11 -42,0 z m 53.2754,0 0,11 42,0 0,-11 -42,0 z m -613.03519,27.28125 0,11 42,0 0,-11 -42,0 z m 53.2754,0 0,11 41.99999,0 0,-11 -41.99999,0 z m 53.27739,0 0,11 42,0 0,-11 -42,0 z m 53.2754,0 0,11 42,0 0,-11 -42,0 z m 53.2753,0 0,11 42.000002,0 0,-11 -42.000002,0 z m 53.275402,0 0,11 42,0 0,-11 -42,0 z m 53.2774,0 0,11 42,0 0,-11 -42,0 z m 53.2754,0 0,11 42,0 0,-11 -42,0 z m 53.2754,0 0,11 41.999998,0 0,-11 -41.999998,0 z m 53.275298,0 0,11 42,0 0,-11 -42,0 z m 53.2774,0 0,11 42,0 0,-11 -42,0 z m 53.2754,0 0,11 42,0 0,-11 -42,0 z m -559.03519,27.28125 0,11 42,0 0,-11 -42,0 z m 53.27539,0 0,11 42,0 0,-11 -42,0 z m 53.2774,0 0,11 42,0 0,-11 -42,0 z m 53.2754,0 0,11 42,0 0,-11 -42,0 z m 53.2753,0 0,11 42.000002,0 0,-11 -42.000002,0 z m 53.275402,0 0,11 42,0 0,-11 -42,0 z m 53.2774003,0 0,11 41.9999997,0 0,-11 -41.9999997,0 z m 53.2753997,0 0,11 42,0 0,-11 -42,0 z m 53.275398,0 0,11 42,0 0,-11 -42,0 z m 53.2753,0 0,11 42,0 0,-11 -42,0 z m 53.2774,0 0,11 42,0 0,-11 -42,0 z m 53.2754,0 0,11 42,0 0,-11 -42,0 z m -613.03519,27.28321 0,11 42,0 0,-11 -42,0 z m 53.2754,0 0,11 41.99999,0 0,-11 -41.99999,0 z m 53.27739,0 0,11 42,0 0,-11 -42,0 z m 53.2754,0 0,11 42,0 0,-11 -42,0 z m 53.2753,0 0,11 42.000002,0 0,-11 -42.000002,0 z m 53.275402,0 0,11 42,0 0,-11 -42,0 z m 53.2774,0 0,11 42,0 0,-11 -42,0 z m 53.2754,0 0,11 42,0 0,-11 -42,0 z m 53.2754,0 0,11 41.999998,0 0,-11 -41.999998,0 z m 53.275298,0 0,11 42,0 0,-11 -42,0 z m 53.2774,0 0,11 42,0 0,-11 -42,0 z m 53.2754,0 0,11 42,0 0,-11 -42,0 z m -559.03519,27.28125 0,11 42,0 0,-11 -42,0 z m 53.27539,0 0,11 42,0 0,-11 -42,0 z m 53.2774,0 0,11 42,0 0,-11 -42,0 z m 53.2754,0 0,11 42,0 0,-11 -42,0 z m 53.2753,0 0,11 42.000002,0 0,-11 -42.000002,0 z m 53.275402,0 0,11 42,0 0,-11 -42,0 z m 53.2774003,0 0,11 41.9999997,0 0,-11 -41.9999997,0 z m 53.2753997,0 0,11 42,0 0,-11 -42,0 z m 53.275398,0 0,11 42,0 0,-11 -42,0 z m 53.2753,0 0,11 42,0 0,-11 -42,0 z m 53.2774,0 0,11 42,0 0,-11 -42,0 z m 53.2754,0 0,11 42,0 0,-11 -42,0 z m -613.03519,27.28125 0,11 42,0 0,-11 -42,0 z m 53.2754,0 0,11 41.99999,0 0,-11 -41.99999,0 z m 53.27739,0 0,11 42,0 0,-11 -42,0 z m 53.2754,0 0,11 42,0 0,-11 -42,0 z m 53.2753,0 0,11 42.000002,0 0,-11 -42.000002,0 z m 53.275402,0 0,11 42,0 0,-11 -42,0 z m 53.2774,0 0,11 42,0 0,-11 -42,0 z m 53.2754,0 0,11 42,0 0,-11 -42,0 z m 53.2754,0 0,11 41.999998,0 0,-11 -41.999998,0 z m 53.275298,0 0,11 42,0 0,-11 -42,0 z m 53.2774,0 0,11 42,0 0,-11 -42,0 z m 53.2754,0 0,11 42,0 0,-11 -42,0 z m -559.03519,27.28125 0,11 42,0 0,-11 -42,0 z m 53.27539,0 0,11 42,0 0,-11 -42,0 z m 53.2774,0 0,11 42,0 0,-11 -42,0 z m 53.2754,0 0,11 42,0 0,-11 -42,0 z m 53.2753,0 0,11 42.000002,0 0,-11 -42.000002,0 z m 53.275402,0 0,11 42,0 0,-11 -42,0 z m 53.2774003,0 0,11 41.9999997,0 0,-11 -41.9999997,0 z m 53.2753997,0 0,11 42,0 0,-11 -42,0 z m 53.275398,0 0,11 42,0 0,-11 -42,0 z m 53.2753,0 0,11 42,0 0,-11 -42,0 z m 53.2774,0 0,11 42,0 0,-11 -42,0 z m 53.2754,0 0,11 42,0 0,-11 -42,0 z m -613.03519,27.28125 0,11.00001 42,0 0,-11.00001 -42,0 z m 53.2754,0 0,11.00001 41.99999,0 0,-11.00001 -41.99999,0 z m 53.27739,0 0,11.00001 42,0 0,-11.00001 -42,0 z m 53.2754,0 0,11.00001 42,0 0,-11.00001 -42,0 z m 53.2753,0 0,11.00001 42.000002,0 0,-11.00001 -42.000002,0 z m 53.275402,0 0,11.00001 42,0 0,-11.00001 -42,0 z m 53.2774,0 0,11.00001 42,0 0,-11.00001 -42,0 z m 53.2754,0 0,11.00001 42,0 0,-11.00001 -42,0 z m 53.2754,0 0,11.00001 41.999998,0 0,-11.00001 -41.999998,0 z m 53.275298,0 0,11.00001 42,0 0,-11.00001 -42,0 z m 53.2774,0 0,11.00001 42,0 0,-11.00001 -42,0 z m 53.2754,0 0,11.00001 42,0 0,-11.00001 -42,0 z m -559.03519,27.28121 0,11.00002 42,0 0,-11.00002 -42,0 z m 53.27539,0 0,11.00002 42,0 0,-11.00002 -42,0 z m 53.2774,0 0,11.00002 42,0 0,-11.00002 -42,0 z m 53.2754,0 0,11.00002 42,0 0,-11.00002 -42,0 z m 53.2753,0 0,11.00002 42.000002,0 0,-11.00002 -42.000002,0 z m 53.275402,0 0,11.00002 42,0 0,-11.00002 -42,0 z m 53.2774003,0 0,11.00002 41.9999997,0 0,-11.00002 -41.9999997,0 z m 53.2753997,0 0,11.00002 42,0 0,-11.00002 -42,0 z m 53.275398,0 0,11.00002 42,0 0,-11.00002 -42,0 z m 53.2753,0 0,11.00002 42,0 0,-11.00002 -42,0 z m 53.2774,0 0,11.00002 42,0 0,-11.00002 -42,0 z m 53.2754,0 0,11.00002 42,0 0,-11.00002 -42,0 z m -613.03519,27.28322 0,11 42,0 0,-11 -42,0 z m 53.2754,0 0,11 41.99999,0 0,-11 -41.99999,0 z m 53.27739,0 0,11 42,0 0,-11 -42,0 z m 53.2754,0 0,11 42,0 0,-11 -42,0 z m 53.2753,0 0,11 42.000002,0 0,-11 -42.000002,0 z m 53.275402,0 0,11 42,0 0,-11 -42,0 z m 53.2774,0 0,11 42,0 0,-11 -42,0 z m 53.2754,0 0,11 42,0 0,-11 -42,0 z m 53.2754,0 0,11 41.999998,0 0,-11 -41.999998,0 z m 53.275298,0 0,11 42,0 0,-11 -42,0 z m 53.2774,0 0,11 42,0 0,-11 -42,0 z m 53.2754,0 0,11 42,0 0,-11 -42,0 z m -559.03519,27.2813 0,11 42,0 0,-11 -42,0 z m 53.27539,0 0,11 42,0 0,-11 -42,0 z m 53.2774,0 0,11 42,0 0,-11 -42,0 z m 53.2754,0 0,11 42,0 0,-11 -42,0 z m 53.2753,0 0,11 42.000002,0 0,-11 -42.000002,0 z m 53.275402,0 0,11 42,0 0,-11 -42,0 z m 53.2774003,0 0,11 41.9999997,0 0,-11 -41.9999997,0 z m 53.2753997,0 0,11 42,0 0,-11 -42,0 z m 53.275398,0 0,11 42,0 0,-11 -42,0 z m 53.2753,0 0,11 42,0 0,-11 -42,0 z m 53.2774,0 0,11 42,0 0,-11 -42,0 z m 53.2754,0 0,11 42,0 0,-11 -42,0 z"
       id="path36516"
       inkscape:connector-curvature="0"
       inkscape:export-xdpi="66.089996"
       inkscape:export-ydpi="66.089996" />
  </g>
</svg>
